<svg width="275" height="58" viewBox="0 0 275 58" fill="none" xmlns="http://www.w3.org/2000/svg">
<path d="M71.2208 7.00787V28.3101H85.5635V31.2465H68.0472V7.00787H71.2276H71.2208Z" fill="black"/>
<path d="M100.515 30.4648C98.9486 29.6423 97.7175 28.4256 96.8215 26.8079C95.9187 25.1902 95.4741 23.2462 95.4741 20.9692V7.01465H98.6545V20.9692C98.6545 23.4909 99.3248 25.4281 100.672 26.7875C102.013 28.147 103.736 28.8267 105.829 28.8267C107.922 28.8267 109.639 28.147 110.986 26.7875C112.327 25.4281 112.997 23.4909 112.997 20.9692V7.01465H116.178V20.9692C116.178 23.2462 115.726 25.1902 114.83 26.8079C113.927 28.4256 112.696 29.6423 111.137 30.4648C109.571 31.2872 107.806 31.6951 105.836 31.6951C103.866 31.6951 102.095 31.2872 100.535 30.4648H100.515Z" fill="black"/>
<path d="M134.268 7.00787L143.652 26.9167H143.803L153.187 7.00787H157.769V31.2465H154.589V11.6367H154.438L145.198 31.2465H142.243L133.003 11.6367H132.852V31.2465H129.672V7.00787H134.255H134.268Z" fill="black"/>
<path d="M174.478 7.00787V31.2465H171.298V7.00787H174.478Z" fill="black"/>
<path d="M192.07 7.00787L205.893 26.8419H206.043V7.00787H209.224V31.2465H205.161L191.338 11.4124H191.187V31.2465H188.007V7.00787H192.07Z" fill="black"/>
<path d="M270.903 7.94586C272.182 8.5712 273.187 9.45484 273.912 10.6103C274.637 11.7591 275 13.1049 275 14.6479C275 16.5103 274.473 18.0804 273.413 19.3651C272.353 20.6497 270.937 21.513 269.166 21.9548L274.781 31.2465H271.088L265.691 22.2878H257.19V31.2465H254.009V7.00787H266.574C268.174 7.00787 269.617 7.32052 270.896 7.94586H270.903ZM266.574 19.4262C268.249 19.4262 269.542 18.964 270.452 18.0464C271.361 17.1288 271.82 15.9937 271.82 14.6479C271.82 13.302 271.361 12.1397 270.452 11.2357C269.542 10.3317 268.249 9.87625 266.574 9.87625H257.19V19.4262H266.574Z" fill="black"/>
<path d="M70.6189 51.6787C69.8119 51.23 69.1826 50.5979 68.7312 49.8027C68.2798 49.0006 68.0472 48.0966 68.0472 47.0974C68.0472 46.0982 68.2729 45.1874 68.7312 44.3853C69.1826 43.5833 69.8187 42.9579 70.6189 42.5093C71.426 42.0607 72.3357 41.8296 73.3479 41.8296C74.5859 41.8296 75.6529 42.1763 76.5352 42.8764C77.4243 43.5765 78.0331 44.4873 78.3614 45.6156H76.9661C76.6788 44.8339 76.2137 44.2086 75.5845 43.7396C74.9552 43.2706 74.2029 43.0327 73.3411 43.0327C72.5887 43.0327 71.9116 43.2094 71.3029 43.5561C70.6942 43.9027 70.2291 44.3853 69.8871 45.0039C69.5451 45.6224 69.3741 46.3157 69.3741 47.0974C69.3741 47.8791 69.5451 48.5724 69.8871 49.1909C70.2291 49.8095 70.701 50.292 71.3029 50.6387C71.9048 50.9853 72.5887 51.1621 73.3411 51.1621C74.2097 51.1621 74.9552 50.9242 75.5845 50.4552C76.2137 49.9862 76.672 49.354 76.9661 48.5792H78.3614C78.0331 49.7075 77.4243 50.6183 76.5352 51.3184C75.646 52.0185 74.5859 52.3652 73.3479 52.3652C72.3357 52.3652 71.426 52.1409 70.6189 51.6855V51.6787Z" fill="black"/>
<path d="M101.377 42.0131C102.047 42.0131 102.649 42.1423 103.189 42.4074C103.729 42.6725 104.147 43.0395 104.454 43.5221C104.755 44.0047 104.913 44.5689 104.913 45.2146C104.913 45.8603 104.762 46.4245 104.454 46.9071C104.147 47.3897 103.729 47.7635 103.189 48.0218C102.649 48.2869 102.047 48.416 101.377 48.416H97.4438V52.1748H96.1101V42.0131H101.377ZM101.377 47.2129C102.081 47.2129 102.621 47.0226 103.004 46.6352C103.387 46.2477 103.579 45.7787 103.579 45.2146C103.579 44.6504 103.387 44.161 103.004 43.7804C102.621 43.3997 102.081 43.2094 101.377 43.2094H97.4438V47.2129H101.377Z" fill="black"/>
<path d="M111.068 42.0131V52.1748H109.735V42.0131H111.068Z" fill="black"/>
<path d="M124.789 42.0131V43.2162H120.979V52.1748H119.645V43.2162H115.836V42.0131H124.789Z" fill="black"/>
<path d="M142.448 42.0131V50.9378H148.46V52.168H141.122V42.0063H142.455L142.448 42.0131Z" fill="black"/>
<path d="M232.943 7.00787H230.283L219.565 31.2533H222.821L231.541 11.4192H231.692L240.412 31.2533H243.661L232.943 7.00787Z" fill="black"/>
<path d="M87.2802 42.0131H86.1653L81.6717 52.168H83.0396L86.692 43.8619H86.7535L90.4127 52.168H91.7738L87.2802 42.0131Z" fill="black"/>
<path d="M132.285 42.0131H131.17L126.683 52.168H128.044L131.697 43.8619H131.758L135.417 52.168H136.778L132.285 42.0131Z" fill="black"/>
<path d="M19.1509 18.8213L9.58914 7.49724C10.2526 6.8991 10.9502 6.32815 11.6684 5.79118L21.1823 17.054C20.4641 17.5978 19.787 18.1891 19.1509 18.8213ZM18.9457 19.0388L7.54408 9.5296C6.9422 10.1889 6.36768 10.8822 5.82736 11.5959L17.229 21.1051C17.7488 20.371 18.3233 19.6845 18.9457 19.0388ZM26.5103 14.2604L21.6405 0.972007C20.765 1.20311 19.9032 1.475 19.062 1.78087L24.0139 15.2936C24.8141 14.8925 25.6485 14.5459 26.5103 14.2604ZM23.7198 15.4431L16.4287 2.89559C15.6148 3.28982 14.8214 3.71805 14.0554 4.18026L21.4285 16.8705C22.1535 16.3403 22.9195 15.8645 23.7198 15.4499V15.4431ZM17.058 21.343L4.20635 13.9681C3.74126 14.7294 3.31038 15.5179 2.91368 16.3267L15.6901 23.6541C16.0868 22.8452 16.545 22.0771 17.0511 21.3362L17.058 21.343ZM14.5068 26.7264L0.383016 24.2522C0.239384 25.129 0.136796 26.0195 0.0684002 26.9235L13.9528 29.3568C14.0759 28.4596 14.2606 27.5828 14.5068 26.7264ZM15.5601 23.9259L1.79197 18.9436C1.48419 19.7797 1.21063 20.6361 0.978079 21.5062L14.5889 26.4273C14.8556 25.564 15.1771 24.728 15.5601 23.9259ZM24.4037 0.380659L26.8454 14.1449C27.7004 13.8798 28.5759 13.6758 29.4787 13.5331L27.0917 0.0679755C26.182 0.12915 25.286 0.237919 24.4037 0.380659ZM46.6598 19.8816L54.0124 13.7506C53.5336 12.9825 53.0275 12.2417 52.4803 11.528L44.7652 17.958C45.4423 18.5562 46.0716 19.1951 46.6598 19.8816ZM49.9975 25.6456L57.7194 22.852C57.5279 21.9684 57.2954 21.0983 57.0286 20.2487L48.9168 23.1851C49.3341 23.9735 49.7034 24.796 50.0044 25.6456H49.9975ZM48.5817 22.5937L56.2763 18.1823C55.9343 17.3463 55.5581 16.5307 55.1478 15.7354L47.0702 20.371C47.631 21.0711 48.1371 21.8188 48.5886 22.6005L48.5817 22.5937ZM29.8549 13.4787C30.6961 13.3632 31.5511 13.302 32.4197 13.302C32.4676 13.302 32.5086 13.302 32.5565 13.302V0.183536C31.6674 0.0815789 30.7645 0.0203914 29.8549 0V13.4787ZM50.832 28.9354L58.3418 27.6168C58.3008 26.7128 58.2119 25.8223 58.0888 24.9387L50.2232 26.3185C50.49 27.1682 50.6952 28.0382 50.832 28.9354ZM13.7818 31.8242C13.7818 31.0969 13.8297 30.3764 13.9118 29.6695H0C0.0205188 30.5735 0.0820886 31.4708 0.184683 32.3544H13.7955C13.7955 32.1777 13.7818 32.0009 13.7818 31.8242ZM38.7327 14.3964L42.7817 3.33061C41.9815 2.91599 41.1676 2.52855 40.3263 2.1819L36.1199 13.6691C37.0159 13.8458 37.8846 14.0905 38.7258 14.3896L38.7327 14.3964ZM44.3206 17.5706L50.9687 9.69953C50.3668 9.02661 49.7308 8.38767 49.0673 7.77593L42.1183 16.0073C42.8912 16.4763 43.6298 16.9996 44.3206 17.5706ZM37.8504 1.29147C36.9954 1.02638 36.12 0.802065 35.2308 0.618542L32.9737 13.3224C33.8903 13.3496 34.7862 13.4379 35.6685 13.5943L37.8504 1.29826V1.29147ZM41.6464 15.7286L47.1933 6.17181C46.482 5.61445 45.7501 5.09785 44.9841 4.60846L39.1978 14.5663C40.0459 14.8925 40.8598 15.28 41.6395 15.7286H41.6464ZM15.1155 38.7029L4.6441 44.7116C5.13655 45.4661 5.66319 46.2002 6.2172 46.9071L16.3056 41.1227C15.8542 40.3478 15.4575 39.5458 15.1224 38.7029H15.1155ZM47.9046 42.1423L53.3626 45.269C53.8687 44.5281 54.3338 43.7668 54.7715 42.9783L49.2452 39.8108C48.8553 40.6197 48.4039 41.4014 47.9046 42.1423ZM43.0006 47.0702L47.0838 51.9098C47.7952 51.3592 48.4791 50.7814 49.1357 50.1697L45.1004 45.3913C44.4438 46.003 43.7393 46.5604 42.9938 47.0702H43.0006ZM45.6817 44.8407L50.4763 48.8374C51.0919 48.1849 51.6732 47.5052 52.2272 46.7983L47.4327 42.8016C46.8992 43.5221 46.311 44.2086 45.6817 44.8407ZM39.9638 48.7695L43.2537 54.4315C44.0471 53.9965 44.8131 53.5343 45.5586 53.0313L42.3508 47.5052C41.5916 47.981 40.7982 48.4024 39.9706 48.7695H39.9638ZM36.674 49.857L39.0405 56.3143C39.8954 56.0084 40.723 55.6686 41.5369 55.2879L39.2525 49.055C38.4181 49.3812 37.5563 49.6463 36.674 49.857ZM49.5735 39.0835L55.6402 41.279C56.0232 40.4702 56.3652 39.6409 56.673 38.7981L50.4558 36.5482C50.2232 37.4183 49.9291 38.2679 49.5803 39.0835H49.5735ZM50.9345 29.6763C51.0166 30.3832 51.0645 31.0969 51.0645 31.831C51.0645 32.0077 51.0576 32.1845 51.0508 32.3612H58.1845C58.2871 31.4776 58.3487 30.5803 58.3692 29.6763H50.9414H50.9345ZM50.6336 35.7802L57.268 36.9425C57.5142 36.086 57.7194 35.216 57.8836 34.3256L51.0166 33.1225C50.9551 34.0265 50.8251 34.9169 50.6336 35.7802ZM29.8549 50.1697V58C30.7645 57.9796 31.6674 57.9184 32.5565 57.8165V50.3464C32.5086 50.3464 32.4676 50.3464 32.4197 50.3464C31.5511 50.3464 30.6961 50.2853 29.8549 50.1697ZM16.5313 41.5033L7.81768 48.7695C8.43325 49.4288 9.083 50.0541 9.75328 50.6591L18.1044 43.692C17.5299 43.0055 16.9964 42.2714 16.5245 41.5101L16.5313 41.5033ZM18.4327 44.0591L11.5931 52.1613C12.3113 52.705 13.0636 53.208 13.8297 53.6838L20.3615 45.9487C19.6707 45.3641 19.0278 44.7388 18.4327 44.0659V44.0591ZM14.2059 35.7394L2.19553 40.0827C2.54435 40.9188 2.92735 41.7277 3.3514 42.5229L14.9651 38.3223C14.6504 37.4862 14.3974 36.6298 14.2059 35.7394ZM20.7787 46.2885L15.8337 54.8053C16.6339 55.2132 17.4547 55.587 18.2959 55.9269L23.0084 47.8111C22.2287 47.3557 21.4832 46.8459 20.7787 46.2817V46.2885ZM13.8023 32.701L0.61556 35.0121C0.80023 35.8957 1.02595 36.7657 1.2927 37.6154L14.1238 35.3655C13.9528 34.4955 13.8434 33.6051 13.8023 32.701ZM23.5146 48.1034L20.3752 56.6745C21.2301 56.9464 22.1056 57.1707 22.9947 57.3611L25.9768 49.2113C25.1219 48.8986 24.3011 48.5248 23.5146 48.0966V48.1034ZM33.261 50.326L34.54 57.5174C35.436 57.3543 36.3115 57.1503 37.1733 56.9056L35.949 50.0134C35.0735 50.1833 34.1775 50.2852 33.261 50.326ZM25.0945 57.7281C25.9837 57.8505 26.8796 57.9388 27.7893 57.9796L29.1914 50.0609C28.2955 49.9046 27.4131 49.6871 26.565 49.4084L25.0877 57.7213L25.0945 57.7281Z" fill="url(#paint0_linear_38_420)"/>
<defs>
<linearGradient id="paint0_linear_38_420" x1="0.157311" y1="3.18106" x2="55.8018" y2="53.3146" gradientUnits="userSpaceOnUse">
<stop stop-color="#0D75D5" stop-opacity="0.1"/>
<stop offset="1" stop-color="#0D0F9C"/>
</linearGradient>
</defs>
</svg>
