<svg width="59" height="58" viewBox="0 0 59 58" fill="none" xmlns="http://www.w3.org/2000/svg">
<path d="M19.1509 18.8213L9.58914 7.49724C10.2526 6.8991 10.9502 6.32815 11.6684 5.79118L21.1823 17.054C20.4641 17.5978 19.787 18.1891 19.1509 18.8213ZM18.9457 19.0388L7.54408 9.5296C6.9422 10.1889 6.36768 10.8822 5.82736 11.5959L17.229 21.1051C17.7488 20.371 18.3233 19.6845 18.9457 19.0388ZM26.5103 14.2604L21.6405 0.972007C20.765 1.20311 19.9032 1.475 19.062 1.78087L24.0139 15.2936C24.8141 14.8925 25.6485 14.5459 26.5103 14.2604ZM23.7198 15.4431L16.4287 2.89559C15.6148 3.28982 14.8214 3.71805 14.0554 4.18026L21.4285 16.8705C22.1535 16.3403 22.9195 15.8645 23.7198 15.4499V15.4431ZM17.058 21.343L4.20635 13.9681C3.74126 14.7294 3.31038 15.5179 2.91368 16.3267L15.6901 23.6541C16.0868 22.8452 16.545 22.0771 17.0511 21.3362L17.058 21.343ZM14.5068 26.7264L0.383016 24.2522C0.239384 25.129 0.136796 26.0195 0.0684002 26.9235L13.9528 29.3568C14.0759 28.4596 14.2606 27.5828 14.5068 26.7264ZM15.5601 23.9259L1.79197 18.9436C1.48419 19.7797 1.21063 20.6361 0.978079 21.5062L14.5889 26.4273C14.8556 25.564 15.1771 24.728 15.5601 23.9259ZM24.4037 0.380659L26.8454 14.1449C27.7004 13.8798 28.5759 13.6758 29.4787 13.5331L27.0917 0.0679755C26.182 0.12915 25.286 0.237919 24.4037 0.380659ZM46.6598 19.8816L54.0124 13.7506C53.5336 12.9825 53.0275 12.2417 52.4803 11.528L44.7652 17.958C45.4423 18.5562 46.0716 19.1951 46.6598 19.8816ZM49.9975 25.6456L57.7194 22.852C57.5279 21.9684 57.2954 21.0983 57.0286 20.2487L48.9168 23.1851C49.3341 23.9735 49.7034 24.796 50.0044 25.6456H49.9975ZM48.5817 22.5937L56.2763 18.1823C55.9343 17.3463 55.5581 16.5307 55.1478 15.7354L47.0702 20.371C47.631 21.0711 48.1371 21.8188 48.5886 22.6005L48.5817 22.5937ZM29.8549 13.4787C30.6961 13.3632 31.5511 13.302 32.4197 13.302C32.4676 13.302 32.5086 13.302 32.5565 13.302V0.183536C31.6674 0.0815789 30.7645 0.0203914 29.8549 0V13.4787ZM50.832 28.9354L58.3418 27.6168C58.3008 26.7128 58.2119 25.8223 58.0888 24.9387L50.2232 26.3185C50.49 27.1682 50.6952 28.0382 50.832 28.9354ZM13.7818 31.8242C13.7818 31.0969 13.8297 30.3764 13.9118 29.6695H0C0.0205188 30.5735 0.0820886 31.4708 0.184683 32.3544H13.7955C13.7955 32.1777 13.7818 32.0009 13.7818 31.8242ZM38.7327 14.3964L42.7817 3.33061C41.9815 2.91599 41.1676 2.52855 40.3263 2.1819L36.1199 13.6691C37.0159 13.8458 37.8846 14.0905 38.7258 14.3896L38.7327 14.3964ZM44.3206 17.5706L50.9687 9.69953C50.3668 9.02661 49.7308 8.38767 49.0673 7.77593L42.1183 16.0073C42.8912 16.4763 43.6298 16.9996 44.3206 17.5706ZM37.8504 1.29147C36.9954 1.02638 36.12 0.802065 35.2308 0.618542L32.9737 13.3224C33.8903 13.3496 34.7862 13.4379 35.6685 13.5943L37.8504 1.29826V1.29147ZM41.6464 15.7286L47.1933 6.17181C46.482 5.61445 45.7501 5.09785 44.9841 4.60846L39.1978 14.5663C40.0459 14.8925 40.8598 15.28 41.6395 15.7286H41.6464ZM15.1155 38.7029L4.6441 44.7116C5.13655 45.4661 5.66319 46.2002 6.2172 46.9071L16.3056 41.1227C15.8542 40.3478 15.4575 39.5458 15.1224 38.7029H15.1155ZM47.9046 42.1423L53.3626 45.269C53.8687 44.5281 54.3338 43.7668 54.7715 42.9783L49.2452 39.8108C48.8553 40.6197 48.4039 41.4014 47.9046 42.1423ZM43.0006 47.0702L47.0838 51.9098C47.7952 51.3592 48.4791 50.7814 49.1357 50.1697L45.1004 45.3913C44.4438 46.003 43.7393 46.5604 42.9938 47.0702H43.0006ZM45.6817 44.8407L50.4763 48.8374C51.0919 48.1849 51.6732 47.5052 52.2272 46.7983L47.4327 42.8016C46.8992 43.5221 46.311 44.2086 45.6817 44.8407ZM39.9638 48.7695L43.2537 54.4315C44.0471 53.9965 44.8131 53.5343 45.5586 53.0313L42.3508 47.5052C41.5916 47.981 40.7982 48.4024 39.9706 48.7695H39.9638ZM36.674 49.857L39.0405 56.3143C39.8954 56.0084 40.723 55.6686 41.5369 55.2879L39.2525 49.055C38.4181 49.3812 37.5563 49.6463 36.674 49.857ZM49.5735 39.0835L55.6402 41.279C56.0232 40.4702 56.3652 39.6409 56.673 38.7981L50.4558 36.5482C50.2232 37.4183 49.9291 38.2679 49.5803 39.0835H49.5735ZM50.9345 29.6763C51.0166 30.3832 51.0645 31.0969 51.0645 31.831C51.0645 32.0077 51.0576 32.1845 51.0508 32.3612H58.1845C58.2871 31.4776 58.3487 30.5803 58.3692 29.6763H50.9414H50.9345ZM50.6336 35.7802L57.268 36.9425C57.5142 36.086 57.7194 35.216 57.8836 34.3256L51.0166 33.1225C50.9551 34.0265 50.8251 34.9169 50.6336 35.7802ZM29.8549 50.1697V58C30.7645 57.9796 31.6674 57.9184 32.5565 57.8165V50.3464C32.5086 50.3464 32.4676 50.3464 32.4197 50.3464C31.5511 50.3464 30.6961 50.2853 29.8549 50.1697ZM16.5313 41.5033L7.81768 48.7695C8.43325 49.4288 9.083 50.0541 9.75328 50.6591L18.1044 43.692C17.5299 43.0055 16.9964 42.2714 16.5245 41.5101L16.5313 41.5033ZM18.4327 44.0591L11.5931 52.1613C12.3113 52.705 13.0636 53.208 13.8297 53.6838L20.3615 45.9487C19.6707 45.3641 19.0278 44.7388 18.4327 44.0659V44.0591ZM14.2059 35.7394L2.19553 40.0827C2.54435 40.9188 2.92735 41.7277 3.3514 42.5229L14.9651 38.3223C14.6504 37.4862 14.3974 36.6298 14.2059 35.7394ZM20.7787 46.2885L15.8337 54.8053C16.6339 55.2132 17.4547 55.587 18.2959 55.9269L23.0084 47.8111C22.2287 47.3557 21.4832 46.8459 20.7787 46.2817V46.2885ZM13.8023 32.701L0.61556 35.0121C0.80023 35.8957 1.02595 36.7657 1.2927 37.6154L14.1238 35.3655C13.9528 34.4955 13.8434 33.6051 13.8023 32.701ZM23.5146 48.1034L20.3752 56.6745C21.2301 56.9464 22.1056 57.1707 22.9947 57.3611L25.9768 49.2113C25.1219 48.8986 24.3011 48.5248 23.5146 48.0966V48.1034ZM33.261 50.326L34.54 57.5174C35.436 57.3543 36.3115 57.1503 37.1733 56.9056L35.949 50.0134C35.0735 50.1833 34.1775 50.2852 33.261 50.326ZM25.0945 57.7281C25.9837 57.8505 26.8796 57.9388 27.7893 57.9796L29.1914 50.0609C28.2955 49.9046 27.4131 49.6871 26.565 49.4084L25.0877 57.7213L25.0945 57.7281Z" fill="url(#paint0_linear_139_372)"/>
<defs>
<linearGradient id="paint0_linear_139_372" x1="0.157311" y1="3.18106" x2="55.8018" y2="53.3146" gradientUnits="userSpaceOnUse">
<stop stop-color="#0D75D5" stop-opacity="0.1"/>
<stop offset="1" stop-color="#0D0F9C"/>
</linearGradient>
</defs>
</svg>
