<svg width="548" height="364" viewBox="0 0 548 364" fill="none" xmlns="http://www.w3.org/2000/svg">
<g clip-path="url(#clip0_479_4886)">
<path d="M409.5 49.1484L381.065 103.908C379.981 106.023 377.404 107.224 375.272 106.639L341.705 97.2243C339.573 96.6395 338.76 94.4712 339.844 92.3565L368.279 37.5966C369.363 35.4819 371.94 34.281 374.072 34.8659L407.639 44.2805C409.716 44.9442 410.605 47.1485 409.5 49.1484Z" stroke="#141516" stroke-miterlimit="10" stroke-linecap="round" stroke-linejoin="round"/>
<path d="M347.415 98.0822L378.285 36.6564" stroke="#141516" stroke-miterlimit="10" stroke-linecap="round" stroke-linejoin="round"/>
<path d="M385.426 45.97L380.201 56.2875L395.038 60.3723L400.263 50.0548L385.426 45.97Z" stroke="#141516" stroke-miterlimit="10" stroke-linecap="round" stroke-linejoin="round"/>
<path d="M385.149 53.4192C384.233 50.345 388.153 47.734 394.8 51.9017L398.283 49.6153L400.292 50.1318L394.975 60.2379L392.289 59.5107L393.432 55.2831C393.453 55.3988 385.967 56.3413 385.149 53.4192Z" stroke="#141516" stroke-miterlimit="10" stroke-linecap="round" stroke-linejoin="round"/>
<path d="M388.143 81.1808C388.143 81.1808 392.843 74.5129 390.157 75.8264C387.546 77.1752 386.044 76.7739 387.174 75.1371C388.303 73.5003 393.165 72.1836 391.141 71.5354C389.192 70.9224 391.116 70.2825 391.427 70.1193C391.737 69.956 392.336 67.6546 392.614 67.6825C392.891 67.7104 393.379 68.1485 396.895 61.3338" stroke="#141516" stroke-miterlimit="10" stroke-linecap="round" stroke-linejoin="round"/>
<path d="M357.176 96.1293L372.347 66.0147" stroke="#141516" stroke-miterlimit="10" stroke-linecap="round" stroke-linejoin="round"/>
<path d="M360.999 97.1221L369.922 79.4008" stroke="#141516" stroke-miterlimit="10" stroke-linecap="round" stroke-linejoin="round"/>
<path d="M367.373 99.0251L379.816 74.3158" stroke="#141516" stroke-miterlimit="10" stroke-linecap="round" stroke-linejoin="round"/>
<path d="M350.277 81.7243L365.501 51.5324" stroke="#141516" stroke-miterlimit="10" stroke-linecap="round" stroke-linejoin="round"/>
<path d="M135.028 303.571L167.605 234.6L286.787 260.877L253.137 334.641L135.028 303.571Z" stroke="#141516" stroke-miterlimit="10" stroke-linecap="round" stroke-linejoin="round"/>
<path d="M238.639 330.235L272.39 259.438" stroke="#141516" stroke-miterlimit="10" stroke-linecap="round" stroke-linejoin="round"/>
<path d="M257.556 262.833L241.532 296.776" stroke="#141516" stroke-miterlimit="10" stroke-linecap="round" stroke-linejoin="round"/>
<path d="M248.693 264.964L243.664 274.68" stroke="#141516" stroke-miterlimit="10" stroke-linecap="round" stroke-linejoin="round"/>
<path d="M239.26 258.442L215.473 309.129" stroke="#141516" stroke-miterlimit="10" stroke-linecap="round" stroke-linejoin="round"/>
<path d="M189.901 316.817L223.096 247.795" stroke="#141516" stroke-miterlimit="10" stroke-linecap="round" stroke-linejoin="round" stroke-dasharray="1 1"/>
<path d="M278.417 268.493L259.399 311.088" stroke="#141516" stroke-miterlimit="10" stroke-linecap="round" stroke-linejoin="round"/>
<path d="M273.81 268.143L264.411 287.836" stroke="#141516" stroke-miterlimit="10" stroke-linecap="round" stroke-linejoin="round"/>
<path d="M210.934 251.5L194.923 286.386" stroke="#141516" stroke-miterlimit="10" stroke-linecap="round" stroke-linejoin="round"/>
<path d="M201.473 250.554L196.4 261.704" stroke="#141516" stroke-miterlimit="10" stroke-linecap="round" stroke-linejoin="round"/>
<path d="M196.587 248.765L173.055 299.489" stroke="#141516" stroke-miterlimit="10" stroke-linecap="round" stroke-linejoin="round"/>
<path d="M168.244 241.389L162.05 255.147" stroke="#141516" stroke-miterlimit="10" stroke-linecap="round" stroke-linejoin="round"/>
<path d="M149.026 287.787L143.489 299.618" stroke="#141516" stroke-miterlimit="10" stroke-linecap="round" stroke-linejoin="round"/>
<path d="M152.388 298.597C151.216 297.423 150.714 295.732 151.149 293.855" stroke="#141516" stroke-miterlimit="10" stroke-linecap="round" stroke-linejoin="round"/>
<path d="M163.057 297.082C160.681 299.708 156.759 300.985 153.977 299.679" stroke="#141516" stroke-miterlimit="10" stroke-linecap="round" stroke-linejoin="round"/>
<path d="M164.675 292.344C164.795 293.426 164.533 294.635 163.977 295.705" stroke="#141516" stroke-miterlimit="10" stroke-linecap="round" stroke-linejoin="round"/>
<path d="M151.953 291.516C155.037 287.206 161.995 286.69 163.941 290.629" stroke="#141516" stroke-miterlimit="10" stroke-linecap="round" stroke-linejoin="round"/>
<path d="M160.946 280.966C159.963 281.823 158.855 282.721 157.945 283.612" stroke="#141516" stroke-miterlimit="10" stroke-linecap="round" stroke-linejoin="round"/>
<path d="M167.528 272.77C168.906 274.531 163.744 278.553 162.439 279.754" stroke="#141516" stroke-miterlimit="10" stroke-linecap="round" stroke-linejoin="round"/>
<path d="M156.299 278.455C159.057 275.774 161.942 273.052 164.7 270.371C165.18 270.803 165.714 271.159 166.195 271.592" stroke="#141516" stroke-miterlimit="10" stroke-linecap="round" stroke-linejoin="round"/>
<path d="M155.401 283.763C153.868 281.695 152.843 281.729 155.074 279.576" stroke="#141516" stroke-miterlimit="10" stroke-linecap="round" stroke-linejoin="round"/>
<path d="M396.951 169.779C396.951 169.779 428.97 188.474 440.169 188.084C451.31 187.774 509.333 211.865 515.054 216.983C515.054 216.983 527.873 205.114 526.848 197.667C525.959 190.175 536.246 184.106 541.158 168.575C546.07 153.044 437.758 115.739 437.758 115.739L401.118 98.229L366.147 111.421L396.951 169.779Z" fill="#EDEFF7"/>
<path d="M426.708 156.665C426.907 156.972 427.084 157.162 427.047 157.361C427.693 161.43 421.869 174.998 416.473 186.503C411.956 196.044 407.815 204.036 407.815 204.036C407.815 204.036 357.227 188.243 352.358 185.987C347.49 183.731 261.773 156.398 261.773 156.398L276.73 133.704L296.634 103.499C296.634 103.499 298.869 104.319 302.791 105.706C327.676 114.76 420.102 148.648 426.708 156.665Z" fill="#6985D1"/>
<mask id="mask0_479_4886" style="mask-type:luminance" maskUnits="userSpaceOnUse" x="261" y="103" width="167" height="102">
<path d="M426.725 156.599C426.923 156.907 427.1 157.097 427.062 157.296C427.701 161.368 421.849 174.952 416.43 186.471C411.895 196.025 407.738 204.027 407.738 204.027C407.738 204.027 357.173 188.265 352.308 186.012C347.444 183.758 261.767 156.48 261.767 156.48L276.77 133.753L296.734 103.506C296.734 103.506 298.969 104.325 302.888 105.709C327.76 114.748 420.133 148.582 426.725 156.599Z" fill="white"/>
</mask>
<g mask="url(#mask0_479_4886)">
<path opacity="0.2" d="M426.597 156.672L413.174 185.091L408.124 195.808C403.7 197.32 402.173 199.31 402.173 199.31L394.451 196.813L381.908 192.73L271.644 156.549C271.734 153.353 269.072 150.502 269.072 150.502L279.243 135.251L296.904 108.795L302.644 105.735C327.601 114.812 420.001 148.654 426.597 156.672Z" fill="#141516"/>
</g>
<mask id="mask1_479_4886" style="mask-type:luminance" maskUnits="userSpaceOnUse" x="261" y="103" width="167" height="102">
<path d="M426.725 156.599C426.923 156.907 427.1 157.097 427.062 157.296C427.701 161.368 421.849 174.952 416.43 186.471C411.895 196.025 407.738 204.027 407.738 204.027C407.738 204.027 357.173 188.265 352.308 186.012C347.444 183.758 261.767 156.48 261.767 156.48L276.77 133.753L296.734 103.506C296.734 103.506 298.969 104.325 302.888 105.709C327.76 114.748 420.133 148.582 426.725 156.599Z" fill="white"/>
</mask>
<g mask="url(#mask1_479_4886)">
<path d="M426.597 156.672L413.174 185.091L408.124 195.808C403.7 197.32 402.173 199.31 402.173 199.31L394.451 196.813L381.908 192.73L271.644 156.549C271.734 153.353 269.072 150.502 269.072 150.502L279.243 135.251L296.904 108.795L302.644 105.735C327.601 114.812 420.001 148.654 426.597 156.672Z" stroke="#141516" stroke-miterlimit="10" stroke-linecap="round" stroke-linejoin="round"/>
</g>
<mask id="mask2_479_4886" style="mask-type:luminance" maskUnits="userSpaceOnUse" x="261" y="103" width="167" height="102">
<path d="M426.725 156.599C426.923 156.907 427.1 157.097 427.062 157.296C427.701 161.368 421.849 174.952 416.43 186.471C411.895 196.025 407.738 204.027 407.738 204.027C407.738 204.027 357.173 188.265 352.308 186.012C347.444 183.758 261.767 156.48 261.767 156.48L276.77 133.753L296.734 103.506C296.734 103.506 298.969 104.325 302.888 105.709C327.76 114.748 420.133 148.582 426.725 156.599Z" fill="white"/>
</mask>
<g mask="url(#mask2_479_4886)">
<path d="M370.102 181.862L376.033 173.432L378.568 174.63L377.651 177.346L374.478 182.985L370.102 181.862Z" fill="#6985D1" stroke="#141516" stroke-miterlimit="10" stroke-linecap="round" stroke-linejoin="round"/>
<path d="M376.019 183.914L380.215 177.687L382.004 176.426L385.318 178.096L380.267 185.393L376.019 183.914Z" fill="#6985D1" stroke="#141516" stroke-miterlimit="10" stroke-linecap="round" stroke-linejoin="round"/>
<path d="M382.347 185.636L386.908 178.323L389.396 179.602L388.125 183.525L385.34 187.049L382.347 185.636Z" fill="#6985D1" stroke="#141516" stroke-miterlimit="10" stroke-linecap="round" stroke-linejoin="round"/>
<path d="M387.318 187.313L391.624 181.774L393.435 181.893L394.319 183.467L391.001 188.736L387.995 188.474L387.318 187.313Z" fill="#6985D1" stroke="#141516" stroke-miterlimit="10" stroke-linecap="round" stroke-linejoin="round"/>
<path d="M397.178 183.237C398.098 183.354 398.999 183.356 399.919 183.474C400.483 183.528 401.197 183.654 401.424 184.183C401.632 184.597 401.315 185.186 400.96 185.546C400.549 185.986 400.193 186.346 399.782 186.785C398.755 188.094 398.968 189.777 397.79 191.015C396.1 190.851 393.192 191.274 393.823 189.251C394.027 188.82 397.873 183.247 397.178 183.237Z" fill="#6985D1" stroke="#141516" stroke-miterlimit="10" stroke-linecap="round" stroke-linejoin="round"/>
<path d="M403.777 186.309C404.417 186.399 405.001 186.568 405.528 186.817C406.262 187.057 407.035 187.527 407.019 188.258C407.021 188.681 406.74 189.077 406.535 189.509C405.619 191.084 404.572 192.703 403.656 194.278C403.6 194.357 401.339 193.292 401.113 193.186C400.302 192.487 400.265 192.681 400.562 191.553C401.137 189.607 403.408 188.247 403.777 186.309Z" fill="#6985D1" stroke="#141516" stroke-miterlimit="10" stroke-linecap="round" stroke-linejoin="round"/>
</g>
<mask id="mask3_479_4886" style="mask-type:luminance" maskUnits="userSpaceOnUse" x="261" y="103" width="167" height="102">
<path d="M426.725 156.599C426.923 156.907 427.1 157.097 427.062 157.296C427.701 161.368 421.849 174.952 416.43 186.471C411.895 196.025 407.738 204.027 407.738 204.027C407.738 204.027 357.173 188.265 352.308 186.012C347.444 183.758 261.767 156.48 261.767 156.48L276.77 133.753L296.734 103.506C296.734 103.506 298.969 104.325 302.888 105.709C327.76 114.748 420.133 148.582 426.725 156.599Z" fill="white"/>
</mask>
<g mask="url(#mask3_479_4886)">
<path d="M278.508 149.475C278.508 149.475 296.699 155.448 300.043 156.884" stroke="#141516" stroke-miterlimit="10" stroke-linecap="round" stroke-linejoin="round"/>
</g>
<mask id="mask4_479_4886" style="mask-type:luminance" maskUnits="userSpaceOnUse" x="261" y="103" width="167" height="102">
<path d="M426.725 156.599C426.923 156.907 427.1 157.097 427.062 157.296C427.701 161.368 421.849 174.952 416.43 186.471C411.895 196.025 407.738 204.027 407.738 204.027C407.738 204.027 357.173 188.265 352.308 186.012C347.444 183.758 261.767 156.48 261.767 156.48L276.77 133.753L296.734 103.506C296.734 103.506 298.969 104.325 302.888 105.709C327.76 114.748 420.133 148.582 426.725 156.599Z" fill="white"/>
</mask>
<g mask="url(#mask4_479_4886)">
<path d="M281.133 145.837L291.015 149.299" stroke="#141516" stroke-miterlimit="10" stroke-linecap="round" stroke-linejoin="round"/>
</g>
<mask id="mask5_479_4886" style="mask-type:luminance" maskUnits="userSpaceOnUse" x="261" y="103" width="167" height="102">
<path d="M426.725 156.599C426.923 156.907 427.1 157.097 427.062 157.296C427.701 161.368 421.849 174.952 416.43 186.471C411.895 196.025 407.738 204.027 407.738 204.027C407.738 204.027 357.173 188.265 352.308 186.012C347.444 183.758 261.767 156.48 261.767 156.48L276.77 133.753L296.734 103.506C296.734 103.506 298.969 104.325 302.888 105.709C327.76 114.748 420.133 148.582 426.725 156.599Z" fill="white"/>
</mask>
<g mask="url(#mask5_479_4886)">
<path d="M286.113 131.672L297.67 135.586L298.877 134.177L287.649 129.65L286.113 131.672Z" fill="#6985D1" stroke="#141516" stroke-miterlimit="10" stroke-linecap="round" stroke-linejoin="round"/>
</g>
<mask id="mask6_479_4886" style="mask-type:luminance" maskUnits="userSpaceOnUse" x="261" y="103" width="167" height="102">
<path d="M426.725 156.599C426.923 156.907 427.1 157.097 427.062 157.296C427.701 161.368 421.849 174.952 416.43 186.471C411.895 196.025 407.738 204.027 407.738 204.027C407.738 204.027 357.173 188.265 352.308 186.012C347.444 183.758 261.767 156.48 261.767 156.48L276.77 133.753L296.734 103.506C296.734 103.506 298.969 104.325 302.888 105.709C327.76 114.748 420.133 148.582 426.725 156.599Z" fill="white"/>
</mask>
<g mask="url(#mask6_479_4886)">
<path opacity="0.2" d="M426.575 156.853C426.774 157.162 426.953 157.353 426.915 157.552C427.564 161.647 421.707 175.31 416.282 186.897L409.181 183.615L394.41 197.278L392.172 199.388L381.804 193.186L342.205 169.57L278.668 135.54L275.944 134.064L295.953 103.632C295.953 103.632 298.199 104.453 302.14 105.841C327.066 114.869 419.938 148.798 426.575 156.853Z" fill="#141516"/>
</g>
<path d="M426.708 156.665C426.907 156.972 427.084 157.162 427.047 157.361C427.693 161.43 421.869 174.998 416.473 186.503C411.956 196.044 407.815 204.036 407.815 204.036C407.815 204.036 357.227 188.243 352.358 185.987C347.49 183.731 261.773 156.398 261.773 156.398L276.73 133.704L296.634 103.499C296.634 103.499 298.869 104.319 302.791 105.706C327.676 114.76 420.102 148.648 426.708 156.665Z" stroke="#141516" stroke-miterlimit="10" stroke-linecap="round" stroke-linejoin="round"/>
<path d="M541.967 193.352C540.432 192.425 514.705 184.069 512.112 182.868C504.921 179.754 494.2 177.484 494.2 177.484C484.964 177.089 466.894 171.632 450.865 174.453C434.756 177.238 422.337 171.486 410.878 167.904C399.341 164.286 400.515 164.399 391.393 159.743C382.27 155.086 376.305 153.186 369.633 150.959C362.96 148.731 351.03 144.931 347.388 140.656C343.667 136.345 346.075 130.774 355.119 127.629C364.163 124.485 386.692 131.899 389.286 133.1C391.88 134.302 399.976 138.051 404.43 137.526C404.43 137.526 406.818 124.073 405.325 123.382C403.831 122.69 390.394 116.898 390.844 114.95L366.15 112.032L370.663 97.9464C370.663 97.9464 375.105 96.1209 381.668 95.2784C384.422 94.9365 387.491 94.7401 390.78 94.9689C407.63 95.9791 422.729 91.9719 427.717 92.0174C432.705 92.0629 461.674 107.744 467.255 110.329C472.836 112.914 496.035 128.619 500.416 130.54C503.618 131.915 516.892 135.151 527.416 137.113C531.453 137.904 560.057 144.574 562.485 144.836L541.967 193.352Z" fill="white"/>
<path opacity="0.4" d="M392.07 110.082C393.671 110.931 408.775 115.093 408.775 115.093C413.219 115.195 419.051 128.407 419.051 128.407C418.781 130.558 424.029 133.96 424.029 133.96C419.013 138.797 398.373 145.519 398.373 145.519C398.373 145.519 402.229 149.253 413.241 156.511C424.253 163.769 460.473 166.741 483.525 171.541C506.577 176.341 513.11 182.07 513.11 182.07C505.88 178.946 495.102 176.675 495.102 176.675C485.821 176.288 467.655 170.819 451.551 173.675C435.367 176.494 422.878 170.722 411.358 167.132C399.759 163.506 400.94 163.618 391.766 158.944C382.592 154.271 376.595 152.366 369.886 150.133C363.178 147.9 351.184 144.091 347.518 139.794C343.773 135.462 346.185 129.855 355.268 126.681C364.352 123.507 387.002 130.94 389.611 132.146C392.219 133.351 400.36 137.114 404.836 136.581C404.836 136.581 407.216 123.045 405.714 122.351C404.212 121.657 390.701 115.846 391.15 113.885L366.331 110.979L370.846 96.8035C370.846 96.8035 375.307 94.9622 381.901 94.1072C386.609 101.812 391.1 109.525 392.07 110.082Z" fill="#6985D1"/>
<path opacity="0.4" d="M499.352 135.904C494.945 133.086 484.578 126.173 478.194 121.771C482.937 125.635 484.291 129.04 484.291 129.04C484.291 129.04 445.876 106.469 443.622 104.981C441.367 103.492 432.636 94.6705 424.726 92.7842C429.798 92.8004 459.384 108.837 465.08 111.475C470.777 114.114 494.496 130.211 498.967 132.171C502.234 133.573 525.193 139.429 535.909 141.393C525.877 143.19 503.758 138.723 499.352 135.904Z" fill="#6985D1"/>
<path d="M562.435 144.915C553.43 144.196 504.748 132.54 500.367 130.619C495.986 128.697 472.788 112.992 467.207 110.408C461.627 107.823 432.659 92.1416 427.671 92.096C422.683 92.0504 407.584 96.0572 390.734 95.0467C379.5 94.373 370.56 98.1046 370.56 98.1046L366.046 112.19L390.739 115.108C390.289 117.056 403.726 122.848 405.219 123.54C406.713 124.231 404.324 137.684 404.324 137.684C399.791 138.172 391.774 134.459 389.18 133.258C386.586 132.056 364.058 124.642 355.014 127.786C345.97 130.931 343.562 136.501 347.282 140.812C351.002 145.124 362.854 148.887 369.526 151.115C376.199 153.343 382.164 155.243 391.286 159.899C400.408 164.555 399.233 164.443 410.77 168.061C422.307 171.679 434.726 177.431 450.756 174.61C466.865 171.826 484.913 177.165 494.091 177.642C494.091 177.642 536.168 189.905 541.915 193.429" stroke="#141516" stroke-miterlimit="10" stroke-linecap="round" stroke-linejoin="round"/>
<path d="M404.072 136.513C404.072 136.513 414.147 138.608 421.512 136.328" stroke="#141516" stroke-miterlimit="10" stroke-linecap="round" stroke-linejoin="round"/>
<path d="M408.924 137.213C408.924 137.213 416.612 130.487 419.028 127.278" stroke="#141516" stroke-miterlimit="10" stroke-linecap="round" stroke-linejoin="round"/>
<path d="M403.943 122.655C403.943 122.655 405.325 115.981 409.259 113.092" stroke="#141516" stroke-miterlimit="10" stroke-linecap="round" stroke-linejoin="round"/>
<path d="M388.931 114.046C388.931 114.046 391.597 109.542 390.163 107.605" stroke="#141516" stroke-miterlimit="10" stroke-linecap="round" stroke-linejoin="round"/>
<path d="M456.02 173.473C456.02 173.473 472.305 169.763 479.323 169.624" stroke="#141516" stroke-miterlimit="10" stroke-linecap="round" stroke-linejoin="round"/>
<path d="M442.06 103.629C449.417 109.02 470.993 121.648 474.668 124.12" stroke="#141516" stroke-miterlimit="10" stroke-linecap="round" stroke-linejoin="round"/>
<path d="M427.719 93.5631C435.482 96.8193 438.057 100.54 438.057 100.54" stroke="#141516" stroke-miterlimit="10" stroke-linecap="round" stroke-linejoin="round"/>
<path d="M279.258 108.55L336.31 56.7731C336.31 56.7731 382.261 105.77 386.756 113.531L434.749 145.197C434.749 145.197 406.264 181.957 388.821 196.92C388.821 196.92 341.464 160.311 334.485 156.311C327.698 152.186 279.258 108.55 279.258 108.55Z" fill="#6985D1"/>
<mask id="mask7_479_4886" style="mask-type:luminance" maskUnits="userSpaceOnUse" x="279" y="56" width="156" height="141">
<path d="M279.301 108.608L336.444 56.763C336.444 56.763 382.299 105.748 386.779 113.509L434.708 145.154C434.708 145.154 406.158 181.952 388.688 196.936C388.688 196.936 341.405 160.346 334.434 156.348C327.656 152.227 279.301 108.608 279.301 108.608Z" fill="white"/>
</mask>
<g mask="url(#mask7_479_4886)">
<path opacity="0.2" d="M333.995 150.919L289.578 112.886C289.578 112.886 290.886 105.993 289.972 102.782L331.788 65.9846C331.788 65.9846 335.948 67.7063 340.242 66.49L384.35 115.524L424.454 141.048C424.454 141.048 420.047 148.212 424.486 151.136C424.486 151.136 409.704 173.94 395.184 187.113C395.184 187.113 388.628 186.42 383.306 187.479L333.995 150.919Z" fill="#141516"/>
</g>
<mask id="mask8_479_4886" style="mask-type:luminance" maskUnits="userSpaceOnUse" x="279" y="56" width="156" height="141">
<path d="M279.301 108.608L336.444 56.763C336.444 56.763 382.299 105.748 386.779 113.509L434.708 145.154C434.708 145.154 406.158 181.952 388.688 196.936C388.688 196.936 341.405 160.346 334.434 156.348C327.656 152.227 279.301 108.608 279.301 108.608Z" fill="white"/>
</mask>
<g mask="url(#mask8_479_4886)">
<path d="M333.995 150.919L289.578 112.886C289.578 112.886 290.886 105.993 289.972 102.782L331.788 65.9846C331.788 65.9846 335.948 67.7063 340.242 66.49L384.35 115.524L424.454 141.048C424.454 141.048 420.047 148.212 424.486 151.136C424.486 151.136 409.704 173.94 395.184 187.113C395.184 187.113 388.628 186.42 383.306 187.479L333.995 150.919Z" stroke="#141516" stroke-miterlimit="10" stroke-linecap="round" stroke-linejoin="round"/>
</g>
<mask id="mask9_479_4886" style="mask-type:luminance" maskUnits="userSpaceOnUse" x="279" y="56" width="156" height="141">
<path d="M279.301 108.608L336.444 56.763C336.444 56.763 382.299 105.748 386.779 113.509L434.708 145.154C434.708 145.154 406.158 181.952 388.688 196.936C388.688 196.936 341.405 160.346 334.434 156.348C327.656 152.227 279.301 108.608 279.301 108.608Z" fill="white"/>
</mask>
<g mask="url(#mask9_479_4886)">
<path d="M344.994 141.256C344.994 141.256 333.864 130.933 345.931 118.671C357.999 106.408 369.681 121.998 369.681 121.998C369.681 121.998 383.535 128.372 373.835 138.331C365.493 147.114 356.882 149.801 344.994 141.256Z" fill="#6985D1" stroke="#141516" stroke-miterlimit="10" stroke-linecap="round" stroke-linejoin="round"/>
</g>
<mask id="mask10_479_4886" style="mask-type:luminance" maskUnits="userSpaceOnUse" x="279" y="56" width="156" height="141">
<path d="M279.301 108.608L336.444 56.763C336.444 56.763 382.299 105.748 386.779 113.509L434.708 145.154C434.708 145.154 406.158 181.952 388.688 196.936C388.688 196.936 341.405 160.346 334.434 156.348C327.656 152.227 279.301 108.608 279.301 108.608Z" fill="white"/>
</mask>
<g mask="url(#mask10_479_4886)">
<path d="M297.38 108.836C297.38 108.836 310.731 120.552 313.064 123.045" stroke="#141516" stroke-miterlimit="10" stroke-linecap="round" stroke-linejoin="round"/>
</g>
<mask id="mask11_479_4886" style="mask-type:luminance" maskUnits="userSpaceOnUse" x="279" y="56" width="156" height="141">
<path d="M279.301 108.608L336.444 56.763C336.444 56.763 382.299 105.748 386.779 113.509L434.708 145.154C434.708 145.154 406.158 181.952 388.688 196.936C388.688 196.936 341.405 160.346 334.434 156.348C327.656 152.227 279.301 108.608 279.301 108.608Z" fill="white"/>
</mask>
<g mask="url(#mask11_479_4886)">
<path d="M300.943 106.127L308.146 112.718" stroke="#141516" stroke-miterlimit="10" stroke-linecap="round" stroke-linejoin="round"/>
</g>
<mask id="mask12_479_4886" style="mask-type:luminance" maskUnits="userSpaceOnUse" x="279" y="56" width="156" height="141">
<path d="M279.301 108.608L336.444 56.763C336.444 56.763 382.299 105.748 386.779 113.509L434.708 145.154C434.708 145.154 406.158 181.952 388.688 196.936C388.688 196.936 341.405 160.346 334.434 156.348C327.656 152.227 279.301 108.608 279.301 108.608Z" fill="white"/>
</mask>
<g mask="url(#mask12_479_4886)">
<path d="M326.527 80.686L334.929 73.9068L336.587 75.9544L334.856 78.403L329.986 83.1627L326.527 80.686Z" fill="#6985D1" stroke="#141516" stroke-miterlimit="10" stroke-linecap="round" stroke-linejoin="round"/>
<path d="M331.11 84.4514L337.159 79.3596L339.274 78.6614L341.554 81.4283L334.374 87.2577L331.11 84.4514Z" fill="#6985D1" stroke="#141516" stroke-miterlimit="10" stroke-linecap="round" stroke-linejoin="round"/>
<path d="M336.287 88.0467L342.923 82.0351L344.577 84.0786L341.962 87.7852L338.278 90.4603L336.287 88.0467Z" fill="#6985D1" stroke="#141516" stroke-miterlimit="10" stroke-linecap="round" stroke-linejoin="round"/>
<path d="M339.989 91.1958L345.89 86.881L347.406 87.5943L347.583 89.4775L342.798 93.7882L340.222 92.5755L339.989 91.1958Z" fill="#6985D1" stroke="#141516" stroke-miterlimit="10" stroke-linecap="round" stroke-linejoin="round"/>
<path d="M350.373 89.9724C351.129 90.3288 351.961 90.7207 352.718 91.0771C353.248 91.3265 353.796 91.6909 353.818 92.2297C353.763 92.7328 353.349 93.1726 352.917 93.4976C352.484 93.8226 351.9 94.0762 351.467 94.4012C350.112 95.4553 349.647 97.2461 348.121 98.1141C346.684 97.437 344.02 96.9227 345.296 94.9851C345.521 94.6681 350.902 90.2219 350.373 89.9724Z" fill="#6985D1" stroke="#141516" stroke-miterlimit="10" stroke-linecap="round" stroke-linejoin="round"/>
<path d="M355.214 94.9909C355.686 95.3187 356.157 95.6465 356.572 96.0534C357.137 96.5313 357.61 97.282 357.313 97.9856C357.108 98.4165 356.753 98.7763 356.453 99.0571C355.013 100.382 353.628 101.627 352.262 102.988C352.206 103.067 350.658 101.281 350.488 101.095C350.108 100.072 349.94 100.309 350.593 99.2457C351.618 97.5141 354.077 96.8806 355.214 94.9909Z" fill="#6985D1" stroke="#141516" stroke-miterlimit="10" stroke-linecap="round" stroke-linejoin="round"/>
</g>
<mask id="mask13_479_4886" style="mask-type:luminance" maskUnits="userSpaceOnUse" x="279" y="56" width="156" height="141">
<path d="M279.301 108.608L336.444 56.763C336.444 56.763 382.299 105.748 386.779 113.509L434.708 145.154C434.708 145.154 406.158 181.952 388.688 196.936C388.688 196.936 341.405 160.346 334.434 156.348C327.656 152.227 279.301 108.608 279.301 108.608Z" fill="white"/>
</mask>
<g mask="url(#mask13_479_4886)">
<path d="M310.876 93.756L319.268 101.311L320.881 100.225L312.993 92.2558L310.876 93.756Z" fill="#6985D1" stroke="#141516" stroke-miterlimit="10" stroke-linecap="round" stroke-linejoin="round"/>
</g>
<mask id="mask14_479_4886" style="mask-type:luminance" maskUnits="userSpaceOnUse" x="279" y="56" width="156" height="141">
<path d="M279.301 108.608L336.444 56.763C336.444 56.763 382.299 105.748 386.779 113.509L434.708 145.154C434.708 145.154 406.158 181.952 388.688 196.936C388.688 196.936 341.405 160.346 334.434 156.348C327.656 152.227 279.301 108.608 279.301 108.608Z" fill="white"/>
</mask>
<g mask="url(#mask14_479_4886)">
<path d="M360.309 160.008L368.13 152.756L370.084 154.521L368.525 157.153L363.986 162.165L360.309 160.008Z" fill="#6985D1" stroke="#141516" stroke-miterlimit="10" stroke-linecap="round" stroke-linejoin="round"/>
<path d="M365.284 163.347L370.918 157.968L372.989 157.041L375.508 159.601L368.84 165.868L365.284 163.347Z" fill="#6985D1" stroke="#141516" stroke-miterlimit="10" stroke-linecap="round" stroke-linejoin="round"/>
<path d="M370.779 166.482L376.997 160.067L378.835 161.987L376.578 165.755L373.086 168.729L370.779 166.482Z" fill="#6985D1" stroke="#141516" stroke-miterlimit="10" stroke-linecap="round" stroke-linejoin="round"/>
<path d="M374.911 169.317L380.371 164.602L381.993 165.155L382.378 167.027L377.878 171.666L375.199 170.615L374.911 169.317Z" fill="#6985D1" stroke="#141516" stroke-miterlimit="10" stroke-linecap="round" stroke-linejoin="round"/>
<path d="M385.264 167.383C386.074 167.66 386.885 167.936 387.771 168.248C388.356 168.418 388.959 168.702 388.924 169.32C389.001 169.778 388.533 170.297 388.101 170.622C387.67 170.946 387.163 171.235 386.731 171.56C385.456 172.648 385.144 174.508 383.698 175.411C382.152 174.893 379.383 174.538 380.58 172.568C380.748 172.33 385.848 167.553 385.264 167.383Z" fill="#6985D1" stroke="#141516" stroke-miterlimit="10" stroke-linecap="round" stroke-linejoin="round"/>
<path d="M390.511 171.968C391.038 172.216 391.509 172.544 391.98 172.872C392.601 173.27 393.13 173.942 392.852 174.76C392.723 175.226 392.368 175.586 392.068 175.867C390.779 177.262 389.49 178.658 388.125 180.018C388.069 180.097 386.278 178.513 386.164 178.249C385.653 177.269 385.56 177.542 386.137 176.443C387.162 174.712 389.637 173.77 390.511 171.968Z" fill="#6985D1" stroke="#141516" stroke-miterlimit="10" stroke-linecap="round" stroke-linejoin="round"/>
</g>
<mask id="mask15_479_4886" style="mask-type:luminance" maskUnits="userSpaceOnUse" x="279" y="56" width="156" height="141">
<path d="M279.301 108.608L336.444 56.763C336.444 56.763 382.299 105.748 386.779 113.509L434.708 145.154C434.708 145.154 406.158 181.952 388.688 196.936C388.688 196.936 341.405 160.346 334.434 156.348C327.656 152.227 279.301 108.608 279.301 108.608Z" fill="white"/>
</mask>
<g mask="url(#mask15_479_4886)">
<path d="M419.671 143.618C419.671 143.618 399.739 131.723 397.654 130.758" stroke="#141516" stroke-miterlimit="10" stroke-linecap="round" stroke-linejoin="round"/>
</g>
<mask id="mask16_479_4886" style="mask-type:luminance" maskUnits="userSpaceOnUse" x="279" y="56" width="156" height="141">
<path d="M279.301 108.608L336.444 56.763C336.444 56.763 382.299 105.748 386.779 113.509L434.708 145.154C434.708 145.154 406.158 181.952 388.688 196.936C388.688 196.936 341.405 160.346 334.434 156.348C327.656 152.227 279.301 108.608 279.301 108.608Z" fill="white"/>
</mask>
<g mask="url(#mask16_479_4886)">
<path d="M416.26 146.869C416.26 146.869 405.77 140.898 403.96 139.837" stroke="#141516" stroke-miterlimit="10" stroke-linecap="round" stroke-linejoin="round"/>
</g>
<mask id="mask17_479_4886" style="mask-type:luminance" maskUnits="userSpaceOnUse" x="279" y="56" width="156" height="141">
<path d="M279.301 108.608L336.444 56.763C336.444 56.763 382.299 105.748 386.779 113.509L434.708 145.154C434.708 145.154 406.158 181.952 388.688 196.936C388.688 196.936 341.405 160.346 334.434 156.348C327.656 152.227 279.301 108.608 279.301 108.608Z" fill="white"/>
</mask>
<g mask="url(#mask17_479_4886)">
<path d="M398.752 157.467L409.261 165.79L411.118 163.187L400.087 155.596L398.752 157.467Z" fill="#6985D1" stroke="#141516" stroke-miterlimit="10" stroke-linecap="round" stroke-linejoin="round"/>
</g>
<mask id="mask18_479_4886" style="mask-type:luminance" maskUnits="userSpaceOnUse" x="279" y="56" width="156" height="141">
<path d="M279.301 108.608L336.444 56.763C336.444 56.763 382.299 105.748 386.779 113.509L434.708 145.154C434.708 145.154 406.158 181.952 388.688 196.936C388.688 196.936 341.405 160.346 334.434 156.348C327.656 152.227 279.301 108.608 279.301 108.608Z" fill="white"/>
</mask>
<g mask="url(#mask18_479_4886)">
<path opacity="0.2" d="M387.149 113.568C382.025 118.556 376.838 122.766 371.872 125.368C371.872 125.368 381.129 126.157 400.535 122.591L435.201 145.493C435.201 145.493 416.625 169.548 400.263 186.617C388.84 173.698 366.876 149.662 360.202 148.153C351.014 146.114 345.751 135.854 345.751 135.854C355.759 115.822 355.135 91.5812 352.507 73.8899C366.008 88.5259 383.889 108.305 387.149 113.568Z" fill="#141516"/>
</g>
<path d="M279.258 108.55L336.31 56.7731C336.31 56.7731 382.261 105.77 386.756 113.531L434.749 145.197C434.749 145.197 406.264 181.957 388.821 196.92C388.821 196.92 341.464 160.311 334.485 156.311C327.698 152.186 279.258 108.55 279.258 108.55Z" stroke="#141516" stroke-miterlimit="10" stroke-linecap="round" stroke-linejoin="round"/>
<path d="M425.561 132.918L478.807 168.713C473.589 168.804 463.353 170.927 458.166 172.011C456.201 172.409 455.023 172.735 455.023 172.735L451.759 173.185C435.545 176.026 423.032 170.247 411.491 166.656C399.869 163.028 401.052 163.139 391.861 158.459C382.67 153.779 376.661 151.874 369.94 149.639C363.219 147.405 351.202 143.594 347.529 139.288C345.693 137.135 345.272 134.765 346.525 132.408C347.699 130.014 350.648 127.787 355.296 126.128C364.398 122.937 387.09 130.374 389.704 131.581C392.317 132.788 400.474 136.555 404.958 136.017C404.82 136.062 418.066 135.329 425.561 132.918Z" fill="white"/>
<path opacity="0.4" d="M447.826 171.494C451.341 170.701 455.27 170.977 459.046 171.623C457.07 172.029 455.886 172.361 455.886 172.361L452.604 172.822C436.298 175.728 423.68 169.899 412.048 166.283C400.337 162.631 401.528 162.741 392.257 158.019C382.987 153.296 376.931 151.377 370.157 149.127C363.383 146.876 351.272 143.039 347.557 138.685C345.699 136.509 345.265 134.11 346.516 131.721C350.542 128.087 357.523 125.817 365.459 127.616C378.863 130.512 361.589 137.366 369.63 144.598C377.73 151.746 382.982 149.228 386.643 148.831C390.223 148.398 394.338 152.936 400.056 158.655C405.891 164.208 438.325 173.588 447.826 171.494Z" fill="#6985D1"/>
<path d="M425.644 132.955C418.207 135.283 404.904 136.098 404.904 136.098C400.341 136.6 392.264 132.869 389.65 131.662C387.037 130.455 364.345 123.018 355.244 126.209C346.143 129.399 343.725 135.025 347.477 139.367C351.228 143.71 363.166 147.484 369.886 149.719C376.607 151.953 382.616 153.859 391.806 158.539C400.997 163.219 399.814 163.108 411.435 166.735C423.055 170.363 435.567 176.142 451.702 173.265L454.966 172.815C454.966 172.815 471.583 168.963 478.749 168.794" stroke="#141516" stroke-miterlimit="10" stroke-linecap="round" stroke-linejoin="round"/>
<path d="M380.321 149.016C380.321 149.016 381.793 140.239 384.542 136.857" stroke="#141516" stroke-miterlimit="10" stroke-linecap="round" stroke-linejoin="round"/>
<path d="M169.998 165.276C169.998 165.276 137.746 174.226 135.698 174.947C133.574 175.633 112.203 166.961 100.646 166.087C89.032 165.291 34.2998 142.065 34.2998 142.065C34.2998 142.065 27.9538 143.507 23.5776 153.701C19.2015 163.895 8.78061 171.072 7.29565 183.967C5.83182 196.976 102.757 215.555 102.757 215.555L180.128 224.633L169.998 165.276Z" fill="#EDEFF7"/>
<path d="M179.698 152.624C179.698 152.624 223.782 183.948 224.384 195.411C224.703 202.039 221.066 210.375 216.016 217.007C212.388 221.794 208.034 225.616 204.003 227.289C194.489 231.107 185.533 238.53 179.186 241.318C172.84 244.105 161.077 238.619 149.193 236.838C137.233 235.022 134.146 238.912 123.532 235.216C112.918 231.519 80.0036 221.08 66.7582 223.889C53.5128 226.699 46.7985 223.776 36.2047 222.597C25.611 221.418 -19.8729 227.271 -19.8729 227.271L5.86505 172.915C5.86505 172.915 28.9203 177.189 48.6892 179.408C58.0721 180.44 66.6203 181.083 71.681 180.517C87.2229 178.883 100.327 179.665 100.327 179.665C110.056 176.678 124.916 179.533 136.668 183.761L153.409 173.803C163.354 164.856 179.698 152.624 179.698 152.624Z" fill="white"/>
<path opacity="0.4" d="M178.9 153.729C178.9 153.729 223.5 185.264 224.128 196.823C224.46 203.506 220.798 211.918 215.706 218.612C200.392 232.887 188.61 233.214 184.935 234.353C180.08 235.998 160.252 231.855 151.878 225.128C143.448 218.479 138.69 218.273 132.591 217.656C119.133 216.468 121.687 202.172 118.468 199.099C115.248 196.026 92.2482 185.884 81.0725 187.651C75.1797 188.604 49.6972 186.367 46.55 180.905C56.0338 181.934 64.6733 182.572 69.7866 181.995C85.49 180.327 98.7341 181.1 98.7341 181.1C108.561 178.075 123.582 180.936 135.466 185.184L152.367 175.121C162.403 166.086 178.9 153.729 178.9 153.729Z" fill="#6985D1"/>
<path d="M133.842 212.284C133.842 212.284 134.98 216.531 133.288 218.926" stroke="#141516" stroke-miterlimit="10" stroke-linecap="round" stroke-linejoin="round"/>
<path d="M149.316 211.642C149.316 211.642 153.299 217.563 151.266 222.941" stroke="#141516" stroke-miterlimit="10" stroke-linecap="round" stroke-linejoin="round"/>
<path d="M182.816 234.487C182.816 234.487 184.792 226.382 180.846 223.075" stroke="#141516" stroke-miterlimit="10" stroke-linecap="round" stroke-linejoin="round"/>
<path d="M151.999 175.522C151.999 175.522 152.904 178.258 154.515 179.006" stroke="#141516" stroke-miterlimit="10" stroke-linecap="round" stroke-linejoin="round"/>
<path d="M5.8654 172.916C5.8654 172.916 56.1401 182.152 71.6822 180.518C87.2242 178.884 100.329 179.666 100.329 179.666C110.057 176.679 124.917 179.534 136.67 183.761L153.411 173.804C163.432 164.892 179.777 152.659 179.777 152.659C179.777 152.659 223.86 183.984 224.463 195.447C225.066 206.911 213.651 223.428 204.081 227.325C194.567 231.144 185.612 238.567 179.265 241.354C172.918 244.142 161.155 238.655 149.271 236.875C137.311 235.059 134.224 238.949 123.61 235.252C112.996 231.556 80.0808 221.116 66.8352 223.926C53.5897 226.735 46.8752 223.813 36.2814 222.634C25.6875 221.455 -19.8728 227.272 -19.8728 227.272" stroke="#141516" stroke-miterlimit="10" stroke-linecap="round" stroke-linejoin="round"/>
<path d="M190.984 135.366L254.797 274.968L270.847 256.507L315.475 198.541L210.636 141.6L190.984 135.366Z" fill="#141516" stroke="#141516" stroke-miterlimit="10" stroke-linecap="round" stroke-linejoin="round"/>
<path d="M191.015 135.234L310.698 201.169L254.709 274.929L163.041 224.354L134.55 208.667L159.178 176.557L191.015 135.234Z" fill="#B5CEEE"/>
<mask id="mask19_479_4886" style="mask-type:luminance" maskUnits="userSpaceOnUse" x="134" y="135" width="177" height="140">
<path d="M191.038 135.234L310.701 201.16L254.691 274.931L163.038 224.363L134.553 208.678L159.189 176.564L191.038 135.234Z" fill="white"/>
</mask>
<g mask="url(#mask19_479_4886)">
<path d="M288.314 207.296C291.868 202.314 290.858 196.446 286.058 194.189C281.258 191.932 274.486 194.141 270.933 199.123C267.379 204.105 268.389 209.974 273.189 212.23C277.988 214.487 284.76 212.278 288.314 207.296Z" fill="#EDEFF7" stroke="#141516" stroke-miterlimit="10"/>
<path d="M271.854 202.903L276.695 197.227" stroke="#141516" stroke-miterlimit="10" stroke-linecap="round" stroke-linejoin="round"/>
<path d="M272.277 205.197L279.197 196.597" stroke="#141516" stroke-miterlimit="10" stroke-linecap="round" stroke-linejoin="round"/>
<path d="M280.766 210.458L287.764 201.888" stroke="#141516" stroke-miterlimit="10" stroke-linecap="round" stroke-linejoin="round"/>
<path d="M276.31 203.256C276.956 202.491 276.74 202.073 276.524 201.654L277.114 200.97L283.023 204.658L282.206 205.662L277.653 202.813L277.006 203.577L276.31 203.256Z" fill="#141516"/>
<path d="M278.95 200.003C279.309 199.644 279.708 199.513 280.033 199.77L280.11 199.805L279.751 200.164L279.674 200.129C279.521 200.058 279.389 200.101 279.256 200.145C279.143 200.302 279.162 200.417 279.315 200.488C279.468 200.559 279.677 200.551 280.153 200.456C280.685 200.283 280.97 200.31 281.276 200.452C281.602 200.709 281.661 201.052 281.379 201.447C281.02 201.806 280.621 201.936 280.295 201.679L280.142 201.608L280.501 201.249L280.654 201.32C280.807 201.391 280.94 201.348 281.073 201.304C281.186 201.147 281.166 201.032 281.013 200.961C280.86 200.89 280.651 200.898 280.176 200.993C279.644 201.166 279.358 201.139 279.053 200.997C278.594 200.784 278.534 200.441 278.95 200.003Z" fill="#141516"/>
<path d="M279.441 199.391L280.555 198.121L280.88 198.377L280.465 198.815L282.511 200.081L282.152 200.44L280.106 199.174L279.69 199.611L279.441 199.391Z" fill="#141516"/>
</g>
<mask id="mask20_479_4886" style="mask-type:luminance" maskUnits="userSpaceOnUse" x="134" y="135" width="177" height="140">
<path d="M191.038 135.234L310.701 201.16L254.691 274.931L163.038 224.363L134.553 208.678L159.189 176.564L191.038 135.234Z" fill="white"/>
</mask>
<g mask="url(#mask20_479_4886)">
<path d="M175.912 181.63L162.649 194.586C162.3 194.937 161.763 194.994 161.447 194.741L154.194 188.732C153.877 188.479 153.928 187.987 154.277 187.635L167.54 174.679C167.889 174.327 168.425 174.271 168.742 174.524L175.995 180.533C176.257 180.863 176.261 181.278 175.912 181.63Z" fill="white" stroke="#141516" stroke-miterlimit="10" stroke-linecap="round" stroke-linejoin="round"/>
<path d="M164.953 189.176C164.82 189.218 164.744 189.183 164.744 189.183C164.744 189.183 164.744 189.183 164.687 189.261C164.631 189.34 164.555 189.304 164.478 189.269C164.478 189.269 164.478 189.269 164.401 189.233C164.401 189.233 164.324 189.197 164.38 189.118L164.36 189.004C164.36 189.004 164.36 189.004 164.283 188.968C164.283 188.968 164.283 188.968 164.339 188.89C164.185 188.818 164.053 188.861 163.843 188.868C163.367 188.961 163.234 189.004 163.06 188.818C162.963 188.668 162.942 188.554 162.998 188.475C163.111 188.318 163.187 188.354 163.418 188.461L163.494 188.497L163.852 188.139L163.775 188.104C163.447 187.846 163.161 187.818 162.86 188.097L162.762 187.946L162.461 188.225L162.558 188.375C162.334 188.69 162.375 188.919 162.703 189.176C162.954 189.397 163.24 189.426 163.772 189.254C164.247 189.161 164.38 189.118 164.555 189.304C164.652 189.454 164.673 189.569 164.616 189.647C164.504 189.805 164.371 189.848 164.197 189.662L164.023 189.476L163.665 189.833L163.819 189.905C164.147 190.162 164.433 190.191 164.734 189.912L164.796 190.255L165.098 189.976L165 189.826C165 189.826 165.113 189.669 165.169 189.59C165.225 189.511 165.148 189.476 165.204 189.397C165.184 189.283 165.184 189.283 165.163 189.168C164.953 189.176 164.953 189.176 164.953 189.176Z" fill="#141516"/>
<path d="M166.258 186.985C166.181 186.949 166.105 186.913 166.049 186.992L165.973 186.956C165.973 186.956 165.896 186.92 165.952 186.842C165.967 186.536 165.438 186.706 165.327 186.863C165.215 187.02 165.103 187.176 165.123 187.29L164.624 186.848L165.28 186.215L164.955 185.959L163.943 186.948C164.019 186.983 164.039 187.097 164.039 187.097C164.116 187.133 164.172 187.054 164.248 187.09L164.324 187.126C164.401 187.161 164.457 187.083 164.457 187.083L164.589 187.04C164.589 187.04 164.589 187.04 164.665 187.076C164.742 187.112 164.762 187.226 164.706 187.304C164.706 187.304 164.65 187.382 164.726 187.418C164.726 187.418 164.726 187.418 164.803 187.453C164.879 187.489 164.823 187.567 164.9 187.603C164.864 187.795 165.093 187.902 165.19 188.052L165.546 187.696L165.469 187.66C165.373 187.511 165.352 187.397 165.408 187.319C165.52 187.162 165.652 187.119 165.825 187.305L166.248 187.711C166.345 187.86 166.365 187.974 166.309 188.052C166.197 188.209 166.065 188.251 165.892 188.066L165.719 187.881L165.363 188.237L165.536 188.422C165.862 188.678 166.279 188.664 166.635 188.309C166.991 187.953 167.006 187.647 166.66 187.277C166.563 187.127 166.41 187.056 166.258 186.985Z" fill="#141516"/>
<path d="M170.693 182.585C170.617 182.549 170.541 182.514 170.485 182.592L170.408 182.556C170.408 182.556 170.332 182.521 170.388 182.442C170.403 182.136 169.874 182.307 169.762 182.463C169.65 182.62 169.538 182.776 169.559 182.89L169.06 182.449L169.716 181.816L169.39 181.559L168.378 182.548C168.454 182.584 168.475 182.697 168.475 182.697C168.551 182.733 168.607 182.655 168.683 182.69L168.76 182.726C168.836 182.762 168.892 182.683 168.892 182.683L169.024 182.641C169.024 182.641 169.024 182.641 169.101 182.676C169.177 182.712 169.197 182.826 169.142 182.904C169.142 182.904 169.086 182.983 169.162 183.018C169.162 183.018 169.162 183.018 169.238 183.054C169.315 183.089 169.259 183.168 169.335 183.203C169.3 183.396 169.529 183.502 169.625 183.652L169.981 183.296L169.905 183.261C169.808 183.111 169.788 182.997 169.844 182.919C169.956 182.762 170.088 182.72 170.261 182.905L170.684 183.311C170.78 183.46 170.801 183.574 170.745 183.653C170.633 183.809 170.501 183.852 170.328 183.667L170.154 183.481L169.799 183.837L169.972 184.022C170.297 184.279 170.715 184.265 171.071 183.909C171.427 183.553 171.442 183.247 171.095 182.877C170.999 182.727 170.846 182.656 170.693 182.585Z" fill="#141516"/>
<path d="M166.025 185.823C165.928 185.673 165.907 185.559 165.963 185.481C166.019 185.402 166.152 185.359 166.229 185.395C166.285 185.317 166.285 185.317 166.341 185.238C166.417 185.274 166.417 185.274 166.473 185.195C166.529 185.117 166.606 185.153 166.662 185.074C166.391 184.739 165.916 184.831 165.56 185.188C165.203 185.545 165.132 185.93 165.535 186.223C165.612 186.258 165.612 186.258 165.688 186.294C165.842 186.365 165.765 186.33 165.954 186.208C166.01 186.13 166.143 186.087 166.163 186.201C166.163 186.201 166.219 186.123 166.296 186.159L166.372 186.194L166.449 186.23L166.526 186.266C166.526 186.266 166.546 186.38 166.623 186.416L166.643 186.53C166.664 186.644 166.531 186.687 166.684 186.758C166.761 186.794 166.838 186.829 166.858 186.944C167.185 187.2 167.604 187.186 167.961 186.83C168.317 186.473 168.388 186.088 167.985 185.795L167.561 185.388C167.561 185.388 167.561 185.388 167.505 185.467C167.372 185.509 167.316 185.588 167.183 185.631L167.051 185.674L167.628 186.152C167.725 186.301 167.746 186.416 167.69 186.494C167.578 186.651 167.445 186.694 167.271 186.508L166.367 185.773C166.29 185.738 166.214 185.702 166.27 185.623L166.025 185.823Z" fill="#141516"/>
<path d="M168.651 184.528C168.631 184.414 168.498 184.457 168.554 184.379C168.61 184.3 168.61 184.3 168.666 184.222L168.166 183.78C167.84 183.523 167.422 183.537 167.065 183.894C166.709 184.25 166.638 184.635 167.041 184.927L167.117 184.963C167.25 184.92 167.326 184.955 167.382 184.877C167.515 184.834 167.494 184.72 167.647 184.792C167.724 184.827 167.668 184.906 167.8 184.863C167.8 184.863 167.856 184.785 167.933 184.82L168.009 184.856L168.03 184.97C168.106 185.006 168.106 185.006 168.127 185.12C168.071 185.198 167.938 185.241 167.882 185.319C167.826 185.398 167.903 185.433 167.923 185.547C168.02 185.697 168.173 185.768 168.25 185.804C168.576 186.061 168.994 186.046 169.35 185.69C169.539 185.569 169.63 185.298 169.666 185.106C169.645 184.992 169.625 184.878 169.548 184.842C169.451 184.693 169.452 184.693 169.243 184.7C169.243 184.7 169.243 184.7 169.187 184.778C169.187 184.778 169.187 184.778 169.131 184.856C169.054 184.821 168.978 184.785 168.922 184.863C168.922 184.863 168.922 184.863 168.901 184.749C168.748 184.678 168.672 184.642 168.651 184.528ZM168.963 185.091C169.06 185.241 169.08 185.355 169.024 185.434C168.912 185.59 168.78 185.633 168.606 185.448L167.453 184.492C167.356 184.343 167.336 184.229 167.392 184.15C167.504 183.993 167.713 183.986 167.81 184.136L168.963 185.091Z" fill="#141516"/>
<path d="M170.064 184.302L170.385 184.557L170.034 184.909L169.713 184.655L170.064 184.302Z" fill="#141516"/>
<path d="M171.536 180.78C171.592 180.701 171.439 180.63 171.362 180.594C171.035 180.337 170.617 180.352 170.26 180.708C169.903 181.065 169.832 181.45 170.236 181.743C170.389 181.814 170.486 181.964 170.716 182.071C170.848 182.028 170.945 182.178 171.078 182.135C171.078 182.135 171.078 182.135 171.155 182.171C171.231 182.206 171.175 182.285 171.252 182.32C171.328 182.356 171.272 182.435 171.349 182.47C171.349 182.47 171.425 182.506 171.502 182.542C171.829 182.798 172.247 182.784 172.604 182.428C172.961 182.071 173.032 181.686 172.628 181.393C172.475 181.322 172.378 181.172 172.302 181.137C172.225 181.101 172.031 180.801 171.842 180.923C171.842 180.923 171.786 181.001 171.709 180.965L171.633 180.93C171.347 180.901 171.556 180.894 171.536 180.78ZM171.889 181.572C171.965 181.607 171.909 181.686 171.986 181.721C172.062 181.757 172.083 181.871 172.16 181.907C172.257 182.057 172.277 182.171 172.221 182.249C172.109 182.406 171.9 182.413 171.803 182.264C171.726 182.228 171.629 182.078 171.629 182.078C171.629 182.078 171.573 182.156 171.496 182.121C171.42 182.085 171.343 182.049 171.267 182.014C171.267 182.014 171.267 182.014 171.19 181.978C171.19 181.978 171.058 182.021 171.114 181.942C171.114 181.942 171.037 181.907 170.96 181.871C171.205 181.671 170.822 181.493 170.725 181.343C170.628 181.193 170.607 181.079 170.663 181.001C170.776 180.844 170.908 180.801 171.082 180.987C171.235 181.058 171.332 181.208 171.485 181.279C171.541 181.201 171.674 181.158 171.751 181.194C171.827 181.229 171.827 181.229 171.904 181.265C171.904 181.265 172.036 181.222 171.98 181.301C171.98 181.301 171.924 181.379 172.001 181.415C171.736 181.5 171.812 181.536 171.889 181.572Z" fill="#141516"/>
<path d="M162.932 182.401C163.656 181.629 164.505 180.815 165.229 180.044" stroke="#141516" stroke-miterlimit="10" stroke-linecap="round" stroke-linejoin="round"/>
<path d="M157.645 187.616C158.989 186.225 160.405 184.868 161.75 183.477" stroke="#141516" stroke-miterlimit="10" stroke-linecap="round" stroke-linejoin="round"/>
<path d="M159.203 188.829L161.966 186.081" stroke="#141516" stroke-miterlimit="10" stroke-linecap="round" stroke-linejoin="round"/>
</g>
<mask id="mask21_479_4886" style="mask-type:luminance" maskUnits="userSpaceOnUse" x="134" y="135" width="177" height="140">
<path d="M191.038 135.234L310.701 201.16L254.691 274.931L163.038 224.363L134.553 208.678L159.189 176.564L191.038 135.234Z" fill="white"/>
</mask>
<g mask="url(#mask21_479_4886)">
<path opacity="0.4" d="M256.194 271.049C256.194 271.049 258.297 265.429 263.583 257.628C268.945 249.862 273.8 245.63 275.34 237.968C276.804 230.27 285.196 228.735 286.435 221.351C287.674 213.968 284.917 208.911 287.468 205.492C290.02 202.072 239.979 171.832 231.898 165.865C223.817 159.899 200.535 144.332 196.196 140.633L307.92 201.826L256.194 271.049Z" fill="white"/>
</g>
<mask id="mask22_479_4886" style="mask-type:luminance" maskUnits="userSpaceOnUse" x="134" y="135" width="177" height="140">
<path d="M191.038 135.234L310.701 201.16L254.691 274.931L163.038 224.363L134.553 208.678L159.189 176.564L191.038 135.234Z" fill="white"/>
</mask>
<g mask="url(#mask22_479_4886)">
<path d="M237.215 259.768L273.16 251.192L257.562 270.762L237.215 259.768Z" fill="#4143EC" stroke="#141516" stroke-miterlimit="10" stroke-linecap="round" stroke-linejoin="round"/>
</g>
<mask id="mask23_479_4886" style="mask-type:luminance" maskUnits="userSpaceOnUse" x="134" y="135" width="177" height="140">
<path d="M191.038 135.234L310.701 201.16L254.691 274.931L163.038 224.363L134.553 208.678L159.189 176.564L191.038 135.234Z" fill="white"/>
</mask>
<g mask="url(#mask23_479_4886)">
<path d="M224.925 188.337L233.188 192.633C238.034 195.115 238.823 201.311 235.001 206.381L228.247 215.276C224.425 220.346 217.326 222.422 212.481 219.94L201.72 214.368C196.874 211.885 196.085 205.69 199.907 200.619L206.661 191.725C206.828 191.491 206.995 191.257 207.237 191.059C207.568 192.983 208.683 194.65 210.58 195.645C214.449 197.669 220.165 195.984 223.264 191.926C224.023 190.722 224.652 189.561 224.925 188.337Z" fill="#4143EC" stroke="#141516" stroke-miterlimit="10" stroke-linecap="round" stroke-linejoin="round"/>
<path d="M217.653 183.408C219.844 184.542 220.255 187.331 218.459 189.707C216.72 192.006 213.515 192.992 211.249 191.823C209.058 190.689 208.647 187.899 210.442 185.523C212.182 183.225 215.461 182.274 217.653 183.408Z" fill="#4143EC" stroke="#141516" stroke-miterlimit="10" stroke-linecap="round" stroke-linejoin="round"/>
</g>
<mask id="mask24_479_4886" style="mask-type:luminance" maskUnits="userSpaceOnUse" x="134" y="135" width="177" height="140">
<path d="M191.038 135.234L310.701 201.16L254.691 274.931L163.038 224.363L134.553 208.678L159.189 176.564L191.038 135.234Z" fill="white"/>
</mask>
<g mask="url(#mask24_479_4886)">
<path opacity="0.4" d="M215.514 217.71L214.001 199.219C214.001 199.219 206.855 198.186 206.197 195.577L201.591 202.006C199.288 205.221 199.803 209.018 202.797 210.625L215.514 217.71Z" fill="white"/>
</g>
<mask id="mask25_479_4886" style="mask-type:luminance" maskUnits="userSpaceOnUse" x="134" y="135" width="177" height="140">
<path d="M191.038 135.234L310.701 201.16L254.691 274.931L163.038 224.363L134.553 208.678L159.189 176.564L191.038 135.234Z" fill="white"/>
</mask>
<g mask="url(#mask25_479_4886)">
<path opacity="0.4" d="M213.506 189.536L212.565 185.244C212.565 185.244 210.159 186.509 210.505 188.128C210.851 189.747 213.506 189.536 213.506 189.536Z" fill="white"/>
</g>
<mask id="mask26_479_4886" style="mask-type:luminance" maskUnits="userSpaceOnUse" x="134" y="135" width="177" height="140">
<path d="M191.038 135.234L310.701 201.16L254.691 274.931L163.038 224.363L134.553 208.678L159.189 176.564L191.038 135.234Z" fill="white"/>
</mask>
<g mask="url(#mask26_479_4886)">
<path d="M281.486 223.044L296.531 202.591" stroke="#141516" stroke-miterlimit="10" stroke-linecap="round" stroke-linejoin="round"/>
</g>
<mask id="mask27_479_4886" style="mask-type:luminance" maskUnits="userSpaceOnUse" x="134" y="135" width="177" height="140">
<path d="M191.038 135.234L310.701 201.16L254.691 274.931L163.038 224.363L134.553 208.678L159.189 176.564L191.038 135.234Z" fill="white"/>
</mask>
<g mask="url(#mask27_479_4886)">
<path d="M278.826 231.292L299.374 203.886" stroke="#141516" stroke-miterlimit="10" stroke-linecap="round" stroke-linejoin="round"/>
</g>
<mask id="mask28_479_4886" style="mask-type:luminance" maskUnits="userSpaceOnUse" x="134" y="135" width="177" height="140">
<path d="M191.038 135.234L310.701 201.16L254.691 274.931L163.038 224.363L134.553 208.678L159.189 176.564L191.038 135.234Z" fill="white"/>
</mask>
<g mask="url(#mask28_479_4886)">
<path d="M299.057 213.476L304.027 206.141" stroke="#141516" stroke-miterlimit="10" stroke-linecap="round" stroke-linejoin="round"/>
</g>
<mask id="mask29_479_4886" style="mask-type:luminance" maskUnits="userSpaceOnUse" x="134" y="135" width="177" height="140">
<path d="M191.038 135.234L310.701 201.16L254.691 274.931L163.038 224.363L134.553 208.678L159.189 176.564L191.038 135.234Z" fill="white"/>
</mask>
<g mask="url(#mask29_479_4886)">
<path opacity="0.2" d="M201.721 200.893C198.903 214.405 172.282 217.938 166.765 220.998C165.432 221.733 164.005 222.319 162.502 222.869L134.185 207.229L158.716 175.357C162.928 177.64 167.893 179.857 171.416 180.146C179.158 180.737 204.54 187.381 201.721 200.893Z" fill="#141516"/>
</g>
<mask id="mask30_479_4886" style="mask-type:luminance" maskUnits="userSpaceOnUse" x="134" y="135" width="177" height="140">
<path d="M191.038 135.234L310.701 201.16L254.691 274.931L163.038 224.363L134.553 208.678L159.189 176.564L191.038 135.234Z" fill="white"/>
</mask>
<g mask="url(#mask30_479_4886)">
<path opacity="0.4" d="M193.979 214.382C193.979 214.382 203.859 207.331 204.572 202.28C205.155 197.272 204.156 190.999 195.376 186.034C195.376 186.034 212.087 186.967 208.449 199.342C204.811 211.716 193.979 214.382 193.979 214.382Z" fill="white"/>
</g>
<mask id="mask31_479_4886" style="mask-type:luminance" maskUnits="userSpaceOnUse" x="134" y="135" width="177" height="140">
<path d="M191.038 135.234L310.701 201.16L254.691 274.931L163.038 224.363L134.553 208.678L159.189 176.564L191.038 135.234Z" fill="white"/>
</mask>
<g mask="url(#mask31_479_4886)">
<path opacity="0.4" d="M197.788 220.246C197.788 220.246 214.415 204.84 211.581 193.435C211.581 193.435 215.368 196.549 211.043 205.277C206.718 214.004 197.788 220.246 197.788 220.246Z" fill="white"/>
</g>
<mask id="mask32_479_4886" style="mask-type:luminance" maskUnits="userSpaceOnUse" x="134" y="135" width="177" height="140">
<path d="M191.038 135.234L310.701 201.16L254.691 274.931L163.038 224.363L134.553 208.678L159.189 176.564L191.038 135.234Z" fill="white"/>
</mask>
<g mask="url(#mask32_479_4886)">
<path opacity="0.4" d="M185.636 177.537C182.234 177.811 205.321 186.208 205.321 186.208C205.321 186.208 192.576 176.943 185.636 177.537Z" fill="white"/>
</g>
<path d="M191.015 135.234L310.698 201.169L254.709 274.929L163.041 224.354L134.55 208.667L159.178 176.557L191.015 135.234Z" stroke="#141516" stroke-miterlimit="10" stroke-linecap="round" stroke-linejoin="round"/>
<path opacity="0.4" d="M313.934 200.046L311.235 202.611L197.404 140.797L205.984 143.248L313.934 200.046Z" fill="white"/>
<path d="M201.922 200.005C201.584 202.493 199.789 205.154 197.177 206.802C195.405 207.992 193.073 208.817 189.929 209.055C182.185 209.703 163.679 212.354 158.843 212.233C154.084 212.146 141.543 210.892 134.728 212.394C127.991 213.931 120.209 212.763 120.209 212.763L57.2246 185.311C67.6084 187.577 81.4749 187.117 81.4749 187.117C90.9105 181.221 99.2106 180.513 99.2106 180.513C100.549 180.074 101.985 179.787 103.441 179.614C114.84 178.012 130.479 181.969 141.445 186.726C153.856 192.046 162.224 190.523 177.652 188.88C193.059 187.123 202.672 194.639 201.922 200.005Z" fill="white"/>
<path opacity="0.4" d="M201.863 200.77C201.45 203.241 199.727 205.959 197.105 207.623C198.734 203.584 200.285 197.912 196.851 197.816C191.389 197.529 194.167 205.52 190.252 207.119C186.414 208.754 168.135 212.45 167.089 204.194C166.044 195.939 156.046 193.77 150.718 196.633C145.391 199.496 141.392 194.242 133.147 188.731C128.13 185.348 113.626 182.27 102.955 180.323C114.412 178.693 130.141 182.657 141.174 187.434C153.661 192.775 162.071 191.229 177.578 189.553C192.929 187.806 202.763 195.436 201.863 200.77Z" fill="#6985D1"/>
<path d="M57.2246 185.316C67.6078 187.582 81.4734 187.122 81.4734 187.122C90.9086 181.226 99.2081 180.518 99.2081 180.518C110.625 177.021 129.087 181.332 141.497 186.652C153.907 191.971 162.275 190.448 177.701 188.806C193.051 187.129 202.849 194.096 201.913 200.01C201.304 204.172 197.685 208.527 189.998 209.095C182.254 209.743 163.749 212.394 158.914 212.272C154.155 212.186 141.614 210.931 134.8 212.433C128.063 213.97 120.359 212.838 120.359 212.838" stroke="#141516" stroke-miterlimit="10" stroke-linecap="round" stroke-linejoin="round"/>
<path d="M162.213 206.933C162.213 206.933 165.246 201.744 165.052 198.694" stroke="#141516" stroke-miterlimit="10" stroke-linecap="round" stroke-linejoin="round"/>
<path d="M121.964 214.43C121.964 214.43 123.496 216.5 129.424 212.413" stroke="#141516" stroke-miterlimit="10" stroke-linecap="round" stroke-linejoin="round"/>
</g>
<defs>
<clipPath id="clip0_479_4886">
<rect width="548" height="364" rx="20" fill="white"/>
</clipPath>
</defs>
</svg>
