<svg width="548" height="440" viewBox="0 0 548 440" fill="none" xmlns="http://www.w3.org/2000/svg">
<path d="M345.493 395.076C427.375 395.076 493.753 377.099 493.753 354.923C493.753 332.746 427.375 314.769 345.493 314.769C263.612 314.769 197.234 332.746 197.234 354.923C197.234 377.099 263.612 395.076 345.493 395.076Z" fill="#D3D4E1"/>
<path opacity="0.5" d="M345.493 395.076C427.375 395.076 493.753 377.099 493.753 354.923C493.753 332.746 427.375 314.769 345.493 314.769C263.612 314.769 197.234 332.746 197.234 354.923C197.234 377.099 263.612 395.076 345.493 395.076Z" fill="white"/>
<path d="M230.189 73.0992V171.363C230.189 175.437 226.882 178.845 222.748 178.845H48.4419C44.3902 178.845 41 175.52 41 171.363V73.0992C41 69.0257 44.3075 65.6172 48.4419 65.6172H222.748C226.882 65.7003 230.189 69.0257 230.189 73.0992Z" fill="white"/>
<path d="M230.189 73.0992V76.0089H41.082V73.0992C41.082 69.0257 44.3895 65.6172 48.5239 65.6172H222.83C226.881 65.7003 230.189 69.0257 230.189 73.0992Z" fill="#6985D1"/>
<path d="M230.189 73.0992V171.363C230.189 175.437 226.882 178.845 222.748 178.845H48.4419C44.3902 178.845 41 175.52 41 171.363V73.0992C41 69.0257 44.3075 65.6172 48.4419 65.6172H222.748C226.882 65.7003 230.189 69.0257 230.189 73.0992Z" stroke="#141516" stroke-miterlimit="10" stroke-linecap="round" stroke-linejoin="round"/>
<path d="M230.189 73.0992V76.0089H41.082V73.0992C41.082 69.0257 44.3895 65.6172 48.5239 65.6172H222.83C226.881 65.7003 230.189 69.0257 230.189 73.0992Z" stroke="#141516" stroke-miterlimit="10" stroke-linecap="round" stroke-linejoin="round"/>
<path d="M62.2509 70.8547C62.2509 71.9354 61.424 72.7668 60.3491 72.7668C59.2741 72.7668 58.4473 71.9354 58.4473 70.8547C58.4473 69.774 59.2741 68.9426 60.3491 68.9426C61.424 68.9426 62.2509 69.8571 62.2509 70.8547Z" fill="#141516"/>
<path d="M72.1728 70.8547C72.1728 71.9354 71.3459 72.7668 70.271 72.7668C69.196 72.7668 68.3691 71.9354 68.3691 70.8547C68.3691 69.774 69.196 68.9426 70.271 68.9426C71.3459 68.9426 72.1728 69.8571 72.1728 70.8547Z" fill="#141516"/>
<path d="M80.1948 72.7668C81.2451 72.7668 82.0966 71.9107 82.0966 70.8547C82.0966 69.7987 81.2451 68.9426 80.1948 68.9426C79.1444 68.9426 78.293 69.7987 78.293 70.8547C78.293 71.9107 79.1444 72.7668 80.1948 72.7668Z" fill="#141516"/>
<path d="M108.804 116.329H55.3055C53.6518 116.329 52.2461 114.916 52.2461 113.253V87.3982C52.2461 85.7355 53.6518 84.3223 55.3055 84.3223H108.804C110.458 84.3223 111.864 85.7355 111.864 87.3982V113.253C111.864 114.916 110.458 116.329 108.804 116.329Z" stroke="#141516" stroke-miterlimit="10" stroke-linecap="round" stroke-linejoin="round"/>
<path d="M55.8008 112.255H107.398" stroke="#141516" stroke-miterlimit="10" stroke-linecap="round" stroke-linejoin="round"/>
<path d="M65.557 106.187H59.6035V112.172H65.557V106.187Z" fill="#6985D1" stroke="#141516" stroke-miterlimit="10"/>
<path d="M74.3227 98.2058H68.3691V112.255H74.3227V98.2058Z" fill="#6985D1" stroke="#141516" stroke-miterlimit="10"/>
<path d="M84.2445 100.616H78.291V112.338H84.2445V100.616Z" fill="#6985D1" stroke="#141516" stroke-miterlimit="10"/>
<path d="M94.5805 88.9778H88.627V112.089H94.5805V88.9778Z" fill="#6985D1" stroke="#141516" stroke-miterlimit="10"/>
<path d="M105 89.144H99.0469V112.255H105V89.144Z" fill="#6985D1" stroke="#141516" stroke-miterlimit="10"/>
<path d="M185.704 117.992C194.974 117.992 202.489 110.436 202.489 101.115C202.489 91.795 194.974 84.2393 185.704 84.2393C176.433 84.2393 168.918 91.795 168.918 101.115C168.918 110.436 176.433 117.992 185.704 117.992Z" fill="#6985D1" stroke="#141516" stroke-miterlimit="10"/>
<path d="M187.11 111.59V113.336H184.298V111.59C181.9 111.008 180.412 109.013 180.412 106.353V105.605L183.637 105.272V106.103C183.637 107.683 184.464 108.68 185.787 108.68C187.11 108.68 187.937 107.849 187.937 106.602C187.937 105.106 186.531 103.776 184.795 102.362C182.81 100.7 180.826 98.7044 180.826 95.961C180.826 93.2176 182.149 91.3055 184.381 90.7236V88.9778H187.192V90.7236C189.508 91.2224 190.831 93.2176 190.831 95.961V96.543L187.606 96.8755V96.2104C187.606 94.5477 186.944 93.6333 185.787 93.6333C184.629 93.6333 183.968 94.3815 183.968 95.7116C183.968 97.208 185.456 98.5382 187.11 99.9514C189.094 101.614 191.079 103.609 191.079 106.353C191.079 109.013 189.508 111.008 187.11 111.59Z" fill="#141516"/>
<path d="M50.8398 132.623H55.8011" stroke="#141516" stroke-miterlimit="10" stroke-linecap="round" stroke-linejoin="round"/>
<path d="M50.8398 142.183H55.8011" stroke="#141516" stroke-miterlimit="10" stroke-linecap="round" stroke-linejoin="round"/>
<path d="M50.8398 151.661H55.8011" stroke="#141516" stroke-miterlimit="10" stroke-linecap="round" stroke-linejoin="round"/>
<path d="M50.8398 161.138H55.8011" stroke="#141516" stroke-miterlimit="10" stroke-linecap="round" stroke-linejoin="round"/>
<path d="M66.5508 168.371V164.546" stroke="#141516" stroke-miterlimit="10" stroke-linecap="round" stroke-linejoin="round"/>
<path d="M74.3242 168.371V164.546" stroke="#141516" stroke-miterlimit="10" stroke-linecap="round" stroke-linejoin="round"/>
<path d="M82.0957 168.371V164.546" stroke="#141516" stroke-miterlimit="10" stroke-linecap="round" stroke-linejoin="round"/>
<path d="M89.8691 168.371V164.546" stroke="#141516" stroke-miterlimit="10" stroke-linecap="round" stroke-linejoin="round"/>
<path d="M97.5586 168.371V164.546" stroke="#141516" stroke-miterlimit="10" stroke-linecap="round" stroke-linejoin="round"/>
<path d="M105.332 168.371V164.546" stroke="#141516" stroke-miterlimit="10" stroke-linecap="round" stroke-linejoin="round"/>
<path d="M113.104 168.371V164.546" stroke="#141516" stroke-miterlimit="10" stroke-linecap="round" stroke-linejoin="round"/>
<path d="M120.877 168.371V164.546" stroke="#141516" stroke-miterlimit="10" stroke-linecap="round" stroke-linejoin="round"/>
<path d="M128.648 168.371V164.546" stroke="#141516" stroke-miterlimit="10" stroke-linecap="round" stroke-linejoin="round"/>
<path d="M136.422 168.371V164.546" stroke="#141516" stroke-miterlimit="10" stroke-linecap="round" stroke-linejoin="round"/>
<path d="M144.111 168.371V164.546" stroke="#141516" stroke-miterlimit="10" stroke-linecap="round" stroke-linejoin="round"/>
<path d="M151.885 168.371V164.546" stroke="#141516" stroke-miterlimit="10" stroke-linecap="round" stroke-linejoin="round"/>
<path d="M159.656 168.371V164.546" stroke="#141516" stroke-miterlimit="10" stroke-linecap="round" stroke-linejoin="round"/>
<path d="M167.43 168.371V164.546" stroke="#141516" stroke-miterlimit="10" stroke-linecap="round" stroke-linejoin="round"/>
<path d="M175.203 168.371V164.546" stroke="#141516" stroke-miterlimit="10" stroke-linecap="round" stroke-linejoin="round"/>
<path d="M182.645 168.371V164.546" stroke="#141516" stroke-miterlimit="10" stroke-linecap="round" stroke-linejoin="round"/>
<path d="M190.086 168.371V164.546" stroke="#141516" stroke-miterlimit="10" stroke-linecap="round" stroke-linejoin="round"/>
<path d="M197.527 168.371V164.546" stroke="#141516" stroke-miterlimit="10" stroke-linecap="round" stroke-linejoin="round"/>
<path d="M217.29 126.804V163.798C217.29 166.292 214.727 168.37 211.585 168.37H56.628C54.5608 168.37 52.659 167.456 51.6667 166.126C51.1706 165.461 50.8398 164.629 50.8398 163.798V126.804C50.8398 124.31 53.4032 122.231 56.5453 122.231H211.502C214.727 122.231 217.29 124.31 217.29 126.804Z" stroke="#6985D1" stroke-miterlimit="10" stroke-linecap="round" stroke-linejoin="round"/>
<path d="M170.159 55.2255L120.712 122.231L101.776 147.837L81.1042 134.618L55.8017 168.371H55.471C53.8172 168.371 52.3288 167.456 51.502 166.126L79.9465 128.217L100.618 141.435L114.758 122.231L166.355 52.3989L170.159 55.2255Z" fill="#141516"/>
<path d="M157.59 56.0568L175.781 45L170.737 64.2039L167.512 55.3086L157.59 56.0568Z" fill="#141516"/>
<path d="M506.122 274.618H150.224L110.354 310.227" stroke="#141516" stroke-miterlimit="10" stroke-linecap="round" stroke-linejoin="round"/>
<path d="M150.426 249.692V180.306" stroke="#141516" stroke-miterlimit="10" stroke-linecap="round" stroke-linejoin="round"/>
<path d="M150.426 270.548V257.22" stroke="#141516" stroke-miterlimit="10" stroke-linecap="round" stroke-linejoin="round"/>
<path d="M387.323 138.927C387.323 148.466 380.703 156.507 371.822 158.559H371.767C371.215 158.67 370.719 158.781 370.167 158.837C369.23 158.947 368.292 159.058 367.299 159.058C356.212 159.058 347.275 150.019 347.275 138.927C347.275 128.057 355.825 119.183 366.582 118.795C366.747 118.795 366.968 118.795 367.133 118.795C367.189 118.795 367.244 118.795 367.299 118.795C367.354 118.795 367.464 118.795 367.52 118.795C370.333 118.795 372.981 119.405 375.353 120.514C382.358 123.565 387.323 130.663 387.323 138.927Z" fill="#B5CEEE"/>
<path opacity="0.4" d="M375.353 120.459C352.185 119.294 352.075 145.083 352.075 145.083C352.075 145.083 348.544 136.653 354.281 127.336C357.48 122.123 363.107 119.793 367.465 118.795C370.278 118.795 372.926 119.405 375.353 120.459Z" fill="white"/>
<path d="M387.323 138.927C387.323 148.521 380.648 156.507 371.767 158.559C370.333 158.892 368.843 159.058 367.299 159.058C356.212 159.058 347.275 150.019 347.275 138.927C347.275 128.057 355.825 119.183 366.582 118.795C366.803 118.795 367.078 118.795 367.299 118.795C378.331 118.795 387.323 127.78 387.323 138.927Z" stroke="#141516" stroke-miterlimit="10" stroke-linecap="round" stroke-linejoin="round"/>
<path d="M387.324 138.927C387.324 148.521 380.649 156.507 371.768 158.559C371.547 158.559 371.272 158.559 371.051 158.559C359.964 158.559 351.027 149.519 351.027 138.428C351.027 128.833 357.702 120.847 366.583 118.795C366.804 118.795 367.079 118.795 367.3 118.795C378.332 118.795 387.324 127.78 387.324 138.927Z" stroke="#141516" stroke-miterlimit="10" stroke-linecap="round" stroke-linejoin="round"/>
<path d="M374.194 151.516L374.691 153.623L371.216 154.455L370.719 152.348C367.63 152.348 365.148 150.351 364.321 147.079L364.1 146.136L367.906 144.75L368.127 145.748C368.623 147.745 369.892 148.687 371.492 148.299C373.091 147.911 373.863 146.635 373.477 145.083C373.036 143.197 370.83 141.977 368.347 140.757C365.369 139.315 362.335 137.485 361.507 134.046C360.68 130.663 361.728 127.89 364.376 126.504L363.879 124.396L367.354 123.564L367.851 125.672C370.885 125.616 373.091 127.613 373.919 131.051L374.084 131.772L370.278 133.159L370.112 132.382C369.616 130.275 368.513 129.388 367.134 129.776C365.7 130.109 365.093 131.218 365.534 132.937C365.975 134.823 368.182 135.987 370.664 137.263C373.588 138.76 376.677 140.535 377.504 143.973C378.276 147.135 376.952 150.074 374.194 151.516Z" stroke="#141516" stroke-miterlimit="10"/>
<path opacity="0.3" d="M374.194 151.516L374.691 153.623L371.216 154.455L370.719 152.348C367.63 152.348 365.148 150.351 364.321 147.079L364.1 146.136L367.906 144.75L368.127 145.748C368.623 147.745 369.892 148.687 371.492 148.299C373.091 147.911 373.863 146.635 373.477 145.083C373.036 143.197 370.83 141.977 368.347 140.757C365.369 139.315 362.335 137.485 361.507 134.046C360.68 130.663 361.728 127.89 364.376 126.504L363.879 124.396L367.354 123.564L367.851 125.672C370.885 125.616 373.091 127.613 373.919 131.051L374.084 131.772L370.278 133.159L370.112 132.382C369.616 130.275 368.513 129.388 367.134 129.776C365.7 130.109 365.093 131.218 365.534 132.937C365.975 134.823 368.182 135.987 370.664 137.263C373.588 138.76 376.677 140.535 377.504 143.973C378.276 147.135 376.952 150.074 374.194 151.516Z" fill="#141516"/>
<path d="M357.039 156.23L361.286 156.008" stroke="#141516" stroke-miterlimit="10" stroke-linecap="round" stroke-linejoin="round"/>
<path d="M354.998 154.843L358.694 154.511" stroke="#141516" stroke-miterlimit="10" stroke-linecap="round" stroke-linejoin="round"/>
<path d="M353.344 153.346L357.04 153.013" stroke="#141516" stroke-miterlimit="10" stroke-linecap="round" stroke-linejoin="round"/>
<path d="M352.848 124.951H355.992" stroke="#141516" stroke-miterlimit="10" stroke-linecap="round" stroke-linejoin="round"/>
<path d="M354.393 123.509L357.537 123.343" stroke="#141516" stroke-miterlimit="10" stroke-linecap="round" stroke-linejoin="round"/>
<path d="M356.377 122.012L359.687 121.679" stroke="#141516" stroke-miterlimit="10" stroke-linecap="round" stroke-linejoin="round"/>
<path opacity="0.3" d="M371.768 158.559H371.712C370.278 158.892 368.789 159.058 367.244 159.058C356.157 159.058 347.221 150.019 347.221 138.927C347.221 128.057 355.771 119.183 366.527 118.795C366.693 118.795 366.913 118.795 367.079 118.795C362.169 120.348 354.006 124.286 351.799 132.549C348.71 144.251 355.716 157.561 371.768 158.559Z" fill="#141516"/>
<path opacity="0.1" d="M387.323 138.927C387.323 148.466 380.704 156.507 371.823 158.559H371.768C371.216 158.67 370.72 158.781 370.168 158.837L375.353 120.459C382.359 123.565 387.323 130.663 387.323 138.927Z" fill="#141516"/>
<path d="M398.687 107.204C395.377 111.918 389.309 113.582 384.179 111.419C384.179 111.419 384.124 111.419 384.124 111.364C383.738 111.198 383.352 111.031 382.966 110.809C382.58 110.587 382.194 110.366 381.807 110.088C376.346 106.206 375.023 98.6083 378.884 93.1179C382.58 87.8493 389.751 86.4073 395.157 89.7903C395.267 89.8458 395.322 89.9013 395.432 89.9567C395.543 90.0122 395.653 90.1231 395.818 90.1786C395.984 90.2895 396.205 90.4559 396.37 90.6222C401.335 94.6153 402.383 101.936 398.687 107.204Z" fill="#B5CEEE"/>
<path opacity="0.4" d="M380.372 107.37C380.372 107.37 378.387 101.492 381.034 97.2215C384.344 91.7865 389.419 89.3463 396.314 90.6773C396.314 90.6773 392.563 88.1262 386.33 89.9564C380.041 91.7311 376.732 100.383 380.372 107.37Z" fill="white"/>
<path d="M398.687 107.204C395.377 111.918 389.309 113.582 384.179 111.419C383.352 111.086 382.58 110.643 381.807 110.088C376.346 106.206 375.023 98.6081 378.884 93.1176C382.635 87.7381 389.971 86.3516 395.377 89.9565C395.487 90.0119 395.653 90.1229 395.763 90.1783C401.224 94.1159 402.548 101.714 398.687 107.204Z" stroke="#141516" stroke-miterlimit="10" stroke-linecap="round" stroke-linejoin="round"/>
<path d="M398.687 107.204C395.378 111.918 389.31 113.582 384.18 111.419C384.07 111.364 383.904 111.253 383.794 111.197C378.333 107.315 377.009 99.7174 380.87 94.227C384.18 89.513 390.248 87.8492 395.378 90.0121C395.488 90.0676 395.653 90.1785 395.764 90.2339C401.225 94.1161 402.549 101.714 398.687 107.204Z" stroke="#141516" stroke-miterlimit="10" stroke-linecap="round" stroke-linejoin="round"/>
<path d="M387.819 108.812L387.323 110.033L385.337 109.256L385.834 108.036C384.289 106.927 383.793 105.097 384.51 103.211L384.73 102.657L387.102 103.322L386.882 103.932C386.44 105.097 386.716 105.984 387.654 106.372C388.592 106.76 389.419 106.372 389.75 105.485C390.191 104.376 389.529 103.045 388.702 101.547C387.764 99.7726 386.882 97.8316 387.654 95.8351C388.426 93.894 389.916 92.8403 391.681 93.1176L392.177 91.8975L394.163 92.6739L393.667 93.894C395.156 94.9477 395.597 96.7224 394.825 98.6635L394.659 99.0517L392.287 98.3862L392.453 97.9425C392.949 96.7224 392.729 95.946 391.901 95.6132C391.074 95.2805 390.412 95.6132 390.026 96.6115C389.585 97.7207 390.302 99.0517 391.074 100.549C392.012 102.324 392.894 104.265 392.122 106.261C391.35 108.147 389.695 109.09 387.819 108.812Z" stroke="#141516" stroke-miterlimit="10"/>
<path opacity="0.3" d="M387.819 108.812L387.323 110.033L385.337 109.256L385.834 108.036C384.289 106.927 383.793 105.097 384.51 103.211L384.73 102.657L387.102 103.322L386.882 103.932C386.44 105.097 386.716 105.984 387.654 106.372C388.592 106.76 389.419 106.372 389.75 105.485C390.191 104.376 389.529 103.045 388.702 101.547C387.764 99.7726 386.882 97.8316 387.654 95.8351C388.426 93.894 389.916 92.8403 391.681 93.1176L392.177 91.8975L394.163 92.6739L393.667 93.894C395.156 94.9477 395.597 96.7224 394.825 98.6635L394.659 99.0517L392.287 98.3862L392.453 97.9425C392.949 96.7224 392.729 95.946 391.901 95.6132C391.074 95.2805 390.412 95.6132 390.026 96.6115C389.585 97.7207 390.302 99.0517 391.074 100.549C392.012 102.324 392.894 104.265 392.122 106.261C391.35 108.147 389.695 109.09 387.819 108.812Z" fill="#141516"/>
<path opacity="0.3" d="M395.157 89.8457C391.847 89.2356 387.655 88.9029 385.393 90.4003C381.256 93.0623 378.663 96.4453 378.718 101.936C378.774 107.426 383.848 111.253 383.848 111.253L384.124 111.475C383.352 111.142 382.58 110.698 381.807 110.199C376.346 106.317 375.023 98.7191 378.884 93.2287C382.58 87.8491 389.751 86.4627 395.157 89.8457Z" fill="#141516"/>
<path opacity="0.1" d="M398.688 107.204C395.378 111.918 389.31 113.582 384.18 111.419C384.18 111.419 384.125 111.419 384.125 111.364C383.739 111.197 383.353 111.031 382.967 110.809L396.316 90.6775C401.336 94.6151 402.384 101.936 398.688 107.204Z" fill="#141516"/>
<path d="M406.806 339.029C398.622 348.745 389.045 357.323 378.25 363.8C374.854 365.813 371.372 367.652 367.802 369.315C343.077 380.519 314.868 381.219 288.488 374.829C233.03 361.349 203.69 312.156 199.946 257.536C198.901 242.743 196.725 226.812 202.645 212.807C208.565 198.89 220.58 190.049 234.248 184.009C244.086 179.633 254.795 176.657 264.459 174.206C282.133 169.829 300.416 171.842 316.784 179.633C328.189 185.06 336.286 194.513 345.863 202.479C346.907 203.354 347.865 204.142 348.91 205.017C358.574 212.895 368.76 220.072 379.382 226.55C395.488 236.441 412.03 245.719 422.303 262.351C438.671 288.698 424.828 317.496 406.806 339.029Z" fill="#6985D1"/>
<path opacity="0.4" d="M406.806 339.029C398.622 348.745 389.045 357.323 378.25 363.8C374.854 365.813 371.372 367.652 367.802 369.315C343.077 380.519 314.868 381.219 288.488 374.829C233.03 361.349 203.69 312.156 199.946 257.536C198.901 242.743 196.725 226.812 202.645 212.807C208.565 198.89 220.58 190.049 234.248 184.009C244.086 179.633 254.795 176.657 264.459 174.206C282.133 169.829 300.416 171.842 316.784 179.633C328.189 185.06 336.286 194.513 345.863 202.479C346.907 203.354 347.865 204.142 348.91 205.017C358.574 212.895 368.76 220.072 379.382 226.55C395.488 236.441 412.03 245.719 422.303 262.351C438.671 288.698 424.828 317.496 406.806 339.029Z" fill="white"/>
<path d="M348.823 204.929C347.778 204.142 346.734 203.266 345.776 202.391C336.199 194.425 328.102 184.972 316.697 179.545C300.329 171.755 282.046 169.741 264.373 174.118C241.301 179.895 212.745 188.736 202.558 212.72C196.638 226.725 198.902 242.656 199.859 257.449C203.603 312.069 233.03 361.262 288.402 374.742C318.525 382.094 351.087 380.081 378.163 363.8C389.046 357.235 398.623 348.745 406.72 339.029C424.742 317.496 438.585 288.698 422.217 262.263C411.943 245.632 395.402 236.353 379.295 226.462C368.76 219.985 358.487 212.807 348.823 204.929Z" stroke="#141516" stroke-miterlimit="10"/>
<path d="M264.808 302.353C260.194 303.753 255.666 305.591 251.4 307.78" stroke="#141516" stroke-miterlimit="10" stroke-linecap="round" stroke-linejoin="round"/>
<path d="M293.104 296.926C293.104 296.926 284.049 297.538 272.992 300.077" stroke="#141516" stroke-miterlimit="10" stroke-linecap="round" stroke-linejoin="round"/>
<path d="M287.183 295.525C287.183 295.525 261.151 280.294 229.809 292.461" stroke="#141516" stroke-miterlimit="10" stroke-linecap="round" stroke-linejoin="round"/>
<path opacity="0.1" d="M406.806 339.029C398.623 348.745 389.046 357.323 378.25 363.8C374.854 365.813 371.372 367.652 367.802 369.315C364.929 368.439 362.23 367.389 359.444 366.251C343.164 359.249 329.582 347.432 316.261 335.702C308.252 328.7 300.068 321.522 290.404 316.883C277.519 310.668 262.457 309.443 248.788 313.469C255.84 305.416 265.765 299.902 276.3 298.239C269.422 291.936 259.845 289.31 250.529 289.135C241.214 288.96 236.077 290.098 227.022 292.199C230.07 286.597 238.166 281.52 244.522 281.608C238.166 281.433 230.94 280.995 226.413 280.295C218.229 278.982 214.485 269.266 213.267 260.95C209.871 238.192 213.267 213.945 225.629 194.601C228.241 190.574 231.027 186.985 234.074 183.834C243.913 179.458 254.621 176.481 264.285 174.031C281.959 169.654 300.242 171.667 316.61 179.458C328.015 184.885 336.112 194.338 345.689 202.303C346.733 203.179 347.691 203.967 348.736 204.842C358.4 212.72 368.586 219.897 379.208 226.375C395.314 236.266 411.856 245.544 422.129 262.175C438.671 288.698 424.828 317.496 406.806 339.029Z" fill="#141516"/>
<path d="M415.775 338.416C415.775 338.416 423.088 344.631 431.098 349.708C441.458 350.408 436.844 363.013 436.844 363.013L427.964 368.702C427.964 368.702 412.815 356.623 404.544 352.684C396.273 348.832 415.775 338.416 415.775 338.416Z" fill="white"/>
<path opacity="0.3" d="M342.293 205.98C342.293 205.98 340.9 191.887 338.637 187.861L304.247 180.771V178.057C304.247 178.057 305.031 173.418 297.369 170.442C289.708 167.553 273.775 171.317 269.596 174.468C265.504 177.619 266.984 182.959 266.984 182.959C266.984 182.959 253.141 190.049 246.873 192.675C240.604 195.388 231.985 200.553 231.985 200.553C231.985 200.553 229.199 233.027 229.721 240.555C230.244 248.083 229.286 255.173 229.896 259.374C230.505 263.576 231.027 265.939 235.381 269.441C239.734 273.029 243.651 278.281 255.144 273.029L253.577 271.804L328.712 246.42L342.293 205.98Z" fill="#141516"/>
<path d="M342.293 205.98C342.293 205.98 340.9 191.887 338.637 187.861L304.247 180.771V178.057C304.247 178.057 305.031 173.418 297.369 170.442C289.708 167.553 273.775 171.317 269.596 174.468C265.504 177.619 266.984 182.959 266.984 182.959C266.984 182.959 253.141 190.049 246.873 192.675C240.604 195.388 231.985 200.553 231.985 200.553C231.985 200.553 229.199 233.027 229.721 240.555C230.244 248.083 229.286 255.173 229.896 259.374C230.505 263.576 231.027 265.939 235.381 269.441C239.734 273.029 243.651 278.281 255.144 273.029L253.577 271.804L328.712 246.42L342.293 205.98Z" fill="#4143EC"/>
<path opacity="0.05" d="M342.293 205.98C342.293 205.98 340.9 191.887 338.637 187.861L304.247 180.771V178.057C304.247 178.057 305.031 173.418 297.369 170.442C289.708 167.553 273.775 171.317 269.596 174.468C265.504 177.619 266.984 182.959 266.984 182.959C266.984 182.959 253.141 190.049 246.873 192.675C240.604 195.388 231.985 200.553 231.985 200.553C231.985 200.553 229.199 233.027 229.721 240.555C230.244 248.083 229.286 255.173 229.896 259.374C230.505 263.576 231.027 265.939 235.381 269.441C239.734 273.029 243.651 278.281 255.144 273.029L253.577 271.804L328.712 246.42L342.293 205.98Z" fill="#141516"/>
<path opacity="0.1" d="M339.071 189.611H324.706C321.92 189.611 319.569 191.625 319.047 194.426L311.995 237.316C311.995 237.316 302.244 238.104 295.366 243.181C288.488 248.258 271.424 212.107 244.608 212.107C244.608 212.107 252.357 229.876 254.098 244.056C254.098 244.056 237.295 242.218 234.509 248.783C231.723 255.348 235.815 267.778 242.867 262.963C250.006 258.149 256.623 250.184 261.411 255.173C266.2 260.162 287.356 262.963 287.356 262.963L320.004 246.507L332.628 240.555L339.071 189.611Z" fill="#141516"/>
<path opacity="0.4" d="M293.363 168.341C293.363 168.341 301.547 170.617 302.853 173.33C304.159 176.044 304.072 183.046 304.072 183.046C304.072 183.046 301.808 189.261 295.279 195.213L289.184 183.046L289.707 196.789C289.707 196.789 278.127 194.863 273.252 191.099C268.376 187.423 268.376 187.423 268.376 187.423C268.376 187.423 266.287 180.42 266.548 178.057C266.809 175.694 275.69 170.879 275.69 170.879L293.363 168.341Z" fill="white"/>
<path d="M429.442 380.781C429.181 380.256 432.837 373.954 429.964 367.476C427.178 360.999 422.651 363.537 422.651 363.537C422.651 363.537 409.94 355.397 404.542 352.859C399.231 350.32 393.485 346.206 393.485 346.206L387.826 353.821L393.05 370.102L429.442 380.781Z" fill="#4143EC"/>
<path d="M422.217 363.1L438.585 373.166C438.585 373.166 450.077 365.726 455.562 360.649C461.047 355.572 473.322 344.631 473.322 344.631L481.158 334.039C481.158 334.039 475.76 327.299 466.706 332.726C455.039 339.729 440.761 349.883 431.184 349.795C431.097 349.708 433.013 361.524 422.217 363.1Z" fill="#4143EC"/>
<path d="M290.578 125.888C290.578 125.888 297.978 137.18 299.371 140.856C300.677 144.532 301.809 149.872 301.548 152.498C301.287 155.124 298.588 169.041 297.195 169.391L295.889 170.879L296.759 176.744C296.759 176.744 290.926 186.81 273.949 179.458C273.949 179.458 273.253 167.728 271.25 163.964C269.161 160.288 266.113 164.665 262.979 153.986C259.845 143.307 269.77 132.19 269.77 132.19L290.578 125.888Z" fill="white"/>
<path opacity="0.5" d="M474.019 330.713C474.019 330.713 465.661 332.201 462.875 337.191C460.176 342.18 454.952 351.458 453.124 356.01C451.296 360.562 436.582 371.328 436.582 371.328L438.584 373.166C438.584 373.166 450.599 365.726 457.825 358.636C465.051 351.546 481.071 333.689 481.071 333.689C481.071 333.689 479.939 332.464 474.019 330.713Z" fill="white"/>
<path opacity="0.5" d="M389.916 350.933L387.826 353.734L394.182 367.039L429.355 379.731L431.009 374.567C431.009 374.567 431.532 369.315 419.256 365.288C406.893 361.349 399.405 358.636 395.923 355.922C392.353 353.296 389.916 350.933 389.916 350.933Z" fill="white"/>
<path d="M273.949 252.022C273.949 252.022 263.154 250.359 258.191 259.287C253.141 268.128 253.664 271.979 253.664 271.979C253.664 271.979 260.803 278.456 270.554 278.106C280.305 277.756 294.583 266.464 299.197 262.788C303.812 259.112 315.565 248.608 323.488 250.796L324.359 243.181C324.359 243.181 323.575 239.767 316.784 240.73C309.993 241.605 307.294 245.544 305.118 245.544C302.941 245.544 300.852 243.443 296.411 251.059C296.324 250.971 280.827 253.772 273.949 252.022Z" fill="white"/>
<path d="M287.879 142.081C288.14 143.482 288.401 144.882 288.837 146.283C289.011 146.983 289.272 147.596 289.707 148.121C290.491 148.996 291.884 149.259 293.016 149.434C293.19 149.434 293.451 149.522 293.538 149.697C293.625 149.872 293.625 150.047 293.625 150.222C293.625 151.622 293.19 152.935 292.406 154.073" stroke="#141516" stroke-miterlimit="10" stroke-linecap="round" stroke-linejoin="round"/>
<path opacity="0.1" d="M397.142 341.917L389.916 350.933C389.916 350.933 397.839 358.286 406.023 360.999C414.206 363.713 428.572 368.877 431.009 372.816L430.052 368.089C430.052 368.089 407.59 354.259 402.453 350.933C397.316 347.694 397.142 341.917 397.142 341.917Z" fill="#141516"/>
<path opacity="0.1" d="M422.217 363.1L436.582 371.328C436.582 371.328 443.634 366.426 447.117 362.837C450.599 359.249 454.865 355.222 457.564 347.169C461.221 336.053 471.668 330.713 471.668 330.713C471.668 330.713 457.129 337.628 449.554 342.968C441.98 348.395 434.58 350.583 430.314 350.233C430.401 350.233 433.796 361.174 422.217 363.1Z" fill="#141516"/>
<path d="M282.83 155.999C282.83 155.999 288.489 160.463 294.322 158.8C294.409 158.8 288.837 169.829 282.83 155.999Z" fill="white" stroke="#141516" stroke-miterlimit="10" stroke-linecap="round" stroke-linejoin="round"/>
<path d="M282.655 146.37C282.829 147.596 282.481 148.646 281.871 148.734C281.262 148.821 280.653 147.858 280.478 146.633C280.304 145.407 280.653 144.357 281.262 144.27C281.871 144.27 282.481 145.145 282.655 146.37Z" fill="#141516"/>
<path d="M294.93 144.182C295.104 145.408 294.756 146.458 294.147 146.546C293.537 146.633 292.928 145.67 292.754 144.445C292.58 143.219 292.928 142.169 293.537 142.081C294.147 141.994 294.756 142.957 294.93 144.182Z" fill="#141516"/>
<path d="M281.784 141.206C281.784 141.206 278.476 139.543 276.125 143.132" stroke="#141516" stroke-miterlimit="10" stroke-linecap="round" stroke-linejoin="round"/>
<path d="M290.23 138.93C290.23 138.93 293.713 135.954 295.715 138.93" stroke="#141516" stroke-miterlimit="10" stroke-linecap="round" stroke-linejoin="round"/>
<path d="M270.555 152.498C270.555 152.498 268.465 149.347 266.201 149.434C264.025 149.522 263.067 152.673 263.851 155.736C264.634 158.8 268.03 163.002 270.468 162.652C272.992 162.214 274.124 160.638 274.124 160.638" stroke="#141516" stroke-miterlimit="10" stroke-linecap="round" stroke-linejoin="round"/>
<path d="M290.839 128.426C293.19 130.44 295.715 132.54 297.021 135.516C298.065 137.967 298.327 140.768 299.284 143.307C300.329 146.02 301.461 148.821 301.548 151.71C301.635 154.336 301.026 157.137 300.503 159.763C300.068 162.039 299.72 164.314 298.849 166.503C297.717 169.654 295.541 171.58 292.581 173.068C290.491 174.118 286.921 175.694 284.658 174.206C283.352 173.33 281.349 170.792 279.695 168.516" stroke="#141516" stroke-miterlimit="10" stroke-linecap="round" stroke-linejoin="round"/>
<path d="M270.553 162.651C270.553 162.651 274.296 171.842 273.426 178.407" stroke="#141516" stroke-miterlimit="10" stroke-linecap="round" stroke-linejoin="round"/>
<path d="M269.596 150.922C270.554 150.222 271.163 148.909 271.076 147.683C270.902 146.283 269.945 144.97 270.119 143.569C270.206 142.869 270.554 142.256 270.902 141.644C271.947 139.28 271.773 136.479 270.467 134.291C270.467 134.291 282.394 134.816 287.966 131.315C293.538 127.726 297.805 118.623 294.409 114.246C291.014 109.87 284.484 115.822 279.608 116.522C274.733 117.222 257.408 119.936 254.709 126.676C251.923 133.416 256.189 135.779 256.276 142.169C256.45 148.559 256.363 160.726 265.94 159.588C265.94 159.588 262.37 154.949 264.808 150.222C266.462 148.034 269.596 150.922 269.596 150.922Z" fill="#141516"/>
<path d="M292.928 121.774C292.928 121.774 297.804 125.1 298.587 132.278C299.109 137.092 307.555 146.37 301.46 151.71C301.46 151.71 300.067 146.02 299.197 143.307C298.326 140.506 297.281 135.429 295.888 133.678C294.495 131.927 287.008 125.8 287.008 125.8L292.928 121.774Z" fill="#141516"/>
<path d="M271.686 178.145C271.686 178.145 277.52 181.996 288.49 182.171L289.795 196.876C289.795 196.876 277.52 195.914 268.465 187.51C268.465 187.51 266.027 180.946 266.637 178.145C267.246 175.344 273.167 172.542 273.167 172.542" stroke="#141516" stroke-miterlimit="10" stroke-linecap="round" stroke-linejoin="round"/>
<path d="M296.325 171.58L296.673 176.832C292.668 180.946 288.402 182.259 288.402 182.259L295.193 195.301C295.193 195.301 303.29 188.911 304.161 182.259C304.161 182.259 304.248 175.431 302.855 173.418C301.462 171.492 296.238 170.529 296.238 170.529" stroke="#141516" stroke-miterlimit="10" stroke-linecap="round" stroke-linejoin="round"/>
<path opacity="0.8" d="M263.328 130.965C264.199 128.777 266.549 127.464 268.9 127.113C271.251 126.763 273.601 127.026 275.952 126.938C279.173 126.851 282.482 126.063 285.181 124.312C287.88 122.562 290.056 119.848 290.753 116.61" stroke="white" stroke-miterlimit="10" stroke-linecap="round" stroke-linejoin="round"/>
<path opacity="0.8" d="M257.668 130.527C259.148 126.063 263.936 123.262 268.638 122.824C270.989 122.649 273.339 122.912 275.603 122.649C277.954 122.387 280.304 121.424 281.523 119.411" stroke="white" stroke-miterlimit="10" stroke-linecap="round" stroke-linejoin="round"/>
<path d="M255.23 273.205C243.912 279.069 239.907 273.03 233.552 268.04C227.283 263.051 231.375 254.035 230.069 239.68C228.763 225.237 231.985 200.816 231.985 200.816C231.985 200.816 234.771 200.203 242.606 195.389C250.442 190.574 266.897 183.222 266.897 183.222" stroke="#141516" stroke-miterlimit="10" stroke-linecap="round" stroke-linejoin="round"/>
<path d="M266.462 251.409C266.462 251.409 264.633 245.72 259.584 245.544C254.534 245.369 246.524 247.733 240.865 258.499" stroke="#141516" stroke-miterlimit="10" stroke-linecap="round" stroke-linejoin="round"/>
<path d="M258.452 245.194C258.104 245.194 257.843 245.107 257.582 245.019C253.403 243.531 248.875 243.268 244.609 244.406" stroke="#141516" stroke-miterlimit="10" stroke-linecap="round" stroke-linejoin="round"/>
<path d="M241.562 208.518C250.791 218.76 255.231 232.327 259.497 245.457" stroke="#141516" stroke-miterlimit="10" stroke-linecap="round" stroke-linejoin="round"/>
<path d="M304.246 180.771C304.246 180.771 320.962 184.797 329.146 185.76C337.33 186.723 338.636 187.861 338.636 187.861L340.116 193.55" stroke="#141516" stroke-miterlimit="10" stroke-linecap="round" stroke-linejoin="round"/>
<path d="M382.168 190.749L325.229 193.025L320.527 251.847H330.278L379.73 240.73L385.911 192.237L382.168 190.749Z" fill="white"/>
<path d="M323.488 253.597L385.738 193.638L379.731 240.73L323.488 253.597Z" fill="#4143EC"/>
<path opacity="0.7" d="M323.488 253.597L385.738 193.638L379.731 240.73L323.488 253.597Z" fill="white"/>
<path d="M323.488 252.022L328.451 195.213L385.912 192.237L379.731 240.73L323.488 252.022Z" stroke="#141516" stroke-miterlimit="10" stroke-linecap="round" stroke-linejoin="round"/>
<path d="M361.709 219.723C361.361 223.136 359.445 225.85 357.617 225.587C355.702 225.412 354.57 222.436 354.918 218.935C355.266 215.521 357.182 212.807 359.01 213.07C360.925 213.245 362.144 216.221 361.709 219.723Z" fill="#141516"/>
<path d="M379.731 240.73C379.731 240.73 406.024 239.942 414.295 245.457C422.566 250.884 427.354 278.281 426.222 292.899C425.09 307.43 415.165 340.867 415.165 340.867L396.186 319.159C396.186 319.159 386.783 284.934 391.92 271.541C391.92 271.541 366.671 272.942 356.746 269.791C356.746 269.791 347.866 255.173 332.543 250.271L379.731 240.73Z" fill="#141516"/>
<path d="M419.169 341.304C411.16 333.952 403.411 323.886 401.06 320.297C391.832 306.029 379.121 292.287 366.061 281.608C355.527 273.029 353.089 259.024 340.117 251.934C318.612 240.292 299.981 263.401 293.016 268.04C286.051 272.679 273.949 277.931 273.949 277.931C273.949 277.931 278.389 294.562 291.275 296.488C304.247 298.501 317.306 289.485 323.488 293.862C329.669 298.151 334.284 317.496 354.743 328.875C371.459 338.153 394.182 347.169 405.936 353.296C408.548 354.697 410.463 356.097 411.943 356.885C416.035 359.074 420.301 361.699 424.393 364.325L438.497 372.991C438.497 372.991 452.601 364.588 458.086 356.798C458.783 355.747 460.35 352.946 461.743 350.32C464.79 344.456 468.708 339.204 474.106 336.315C477.849 334.302 481.158 333.689 481.071 333.514C480.723 332.814 473.932 329.4 469.404 331.238C459.653 335.265 440.239 350.758 431.097 349.62C431.097 349.708 424.48 346.206 419.169 341.304Z" stroke="#141516" stroke-miterlimit="10"/>
<path d="M419.17 341.304C410.725 344.718 407.243 350.058 406.024 353.384C394.27 347.257 371.547 338.241 354.831 328.962C334.371 317.583 329.844 298.239 323.576 293.95C317.394 289.573 304.248 298.589 291.363 296.576C278.39 294.562 274.037 277.931 274.037 277.931C274.037 277.931 286.139 272.679 293.104 268.04C300.069 263.401 316.088 240.292 340.205 251.934C353.525 258.324 355.615 272.942 366.149 281.608C379.209 292.287 391.92 306.029 401.148 320.297C403.325 323.973 411.073 334.039 419.17 341.304Z" fill="#141516"/>
<path d="M355.44 267.165C355.44 267.165 348.91 253.86 338.463 251.234" stroke="white" stroke-miterlimit="10" stroke-linecap="round" stroke-linejoin="round"/>
<path d="M321.312 240.642C314.085 239.067 306.25 247.032 302.854 245.544C300.417 244.406 296.325 251.059 296.325 251.059C296.325 251.059 285.79 252.722 276.126 252.109C266.462 251.496 261.848 253.422 258.453 258.587L253.664 271.366C253.664 271.366 266.288 282.745 279.783 276.093C293.277 269.441 311.212 249.483 323.575 249.571" stroke="#141516" stroke-miterlimit="10" stroke-linecap="round" stroke-linejoin="round"/>
<path d="M421.693 362.75C421.693 362.75 433.534 363.713 430.748 349.533" stroke="#141516" stroke-miterlimit="10"/>
<path d="M477.328 340.779C476.457 342.53 465.661 351.808 456.346 359.861C456.346 359.774 458.958 354.785 460.002 352.684C462.44 348.045 468.883 335.265 481.071 333.602C482.813 334.652 477.328 340.779 477.328 340.779Z" fill="#141516"/>
<path d="M472.712 330.801C460.349 333.251 457.563 349.182 453.21 355.922C448.857 362.75 436.668 371.853 436.668 371.853" stroke="#141516" stroke-miterlimit="10"/>
<path d="M429.965 367.827C431.968 371.503 431.01 375.792 429.965 378.506C429.095 380.782 428.05 382.357 428.05 382.357C410.55 379.469 393.138 370.015 393.138 370.015L388.611 356.01L387.914 353.734L394.705 344.543" stroke="#141516" stroke-miterlimit="10"/>
<path d="M429.966 378.506C429.095 380.781 428.051 382.357 428.051 382.357C410.551 379.468 393.139 370.015 393.139 370.015L388.611 356.01C390.875 358.986 395.054 363.275 401.322 365.113C409.855 367.476 425.526 370.365 429.966 378.506Z" fill="#141516"/>
<path d="M320.527 249.833L325.229 193.025L382.168 190.749L385.911 192.237" stroke="#141516" stroke-miterlimit="10" stroke-linecap="round" stroke-linejoin="round"/>
<path d="M430.574 355.922C430.574 355.922 438.323 357.323 444.33 352.421C450.337 347.519 459.914 336.403 459.914 336.403" stroke="#141516" stroke-miterlimit="10"/>
<path d="M438.584 348.832C438.584 348.832 436.668 351.721 438.584 357.41" stroke="#141516" stroke-miterlimit="10" stroke-linecap="round" stroke-linejoin="round"/>
<path d="M444.07 346.206C444.07 346.206 442.59 350.495 444.766 354.784" stroke="#141516" stroke-miterlimit="10" stroke-linecap="round" stroke-linejoin="round"/>
<path d="M450.687 342.355C450.687 342.355 449.12 347.082 450.687 351.283" stroke="#141516" stroke-miterlimit="10" stroke-linecap="round" stroke-linejoin="round"/>
<path d="M396.184 343.405L389.916 350.933C389.916 350.933 396.185 357.848 405.065 360.737C413.945 363.625 429.791 368.439 431.097 373.691" stroke="#141516" stroke-miterlimit="10"/>
</svg>
