<svg width="548" height="440" viewBox="0 0 548 440" fill="none" xmlns="http://www.w3.org/2000/svg">
<g opacity="0.3">
<path d="M350.297 140.804L336.16 170.699L387.607 195.364L401.744 165.469L350.297 140.804Z" stroke="#141516" stroke-miterlimit="10"/>
<path d="M356.252 147.242C355.291 149.246 352.957 150.076 350.966 149.108C350.828 149.039 350.691 148.97 350.554 148.832L342.453 165.974C342.59 166.044 342.728 166.113 342.934 166.182C344.925 167.15 345.748 169.5 344.787 171.504C344.719 171.574 344.719 171.643 344.65 171.712L381.378 189.408C381.378 189.338 381.446 189.269 381.446 189.2C382.407 187.196 384.742 186.366 386.732 187.334C386.87 187.403 387.007 187.472 387.144 187.61L395.245 170.468C395.108 170.398 394.97 170.329 394.764 170.26C392.774 169.292 391.95 166.942 392.911 164.938C392.98 164.799 393.048 164.661 393.186 164.523L356.458 146.758C356.389 146.896 356.32 147.034 356.252 147.242ZM374.787 170.882C373.208 174.131 369.364 175.514 366.137 173.993C362.911 172.472 361.538 168.532 363.048 165.283C364.627 162.034 368.472 160.652 371.698 162.173C374.993 163.693 376.366 167.633 374.787 170.882Z" stroke="#141516" stroke-miterlimit="10"/>
</g>
<g opacity="0.3">
<path d="M29.4471 203.186L15.3105 233.082L66.7573 257.746L80.8939 227.851L29.4471 203.186Z" stroke="#141516" stroke-miterlimit="10"/>
<path d="M35.4415 209.585C34.4804 211.589 32.1463 212.419 30.1555 211.451C30.0182 211.382 29.8809 211.313 29.7436 211.174L21.5742 228.386C21.7115 228.455 21.8488 228.525 22.0548 228.594C24.0456 229.561 24.8694 231.912 23.9083 233.916C23.8397 233.985 23.8397 234.055 23.771 234.124L60.4988 251.75C60.4988 251.681 60.5674 251.612 60.5674 251.543C61.5285 249.538 63.8626 248.709 65.8535 249.677C65.9908 249.746 66.1281 249.815 66.2654 249.953L74.3661 232.81C74.2288 232.741 74.0915 232.672 73.8855 232.603C71.8947 231.635 71.0709 229.285 72.032 227.28C72.1006 227.142 72.1693 227.004 72.3066 226.866L35.5788 209.101C35.5788 209.239 35.5102 209.377 35.4415 209.585ZM53.977 233.225C52.3981 236.474 48.5537 237.856 45.3271 236.336C42.1006 234.815 40.7276 230.875 42.2379 227.626C43.7482 224.377 47.6612 222.995 50.8878 224.515C54.1143 226.036 55.4873 229.976 53.977 233.225Z" stroke="#141516" stroke-miterlimit="10"/>
</g>
<g opacity="0.3">
<path d="M481.555 79.3391L467.418 109.235L518.865 133.899L533.001 104.004L481.555 79.3391Z" stroke="#141516" stroke-miterlimit="10"/>
<path d="M487.562 85.7672C486.601 87.7718 484.267 88.6013 482.276 87.6335C482.139 87.5644 482.002 87.4953 481.864 87.357L473.764 104.5C473.901 104.569 474.038 104.638 474.244 104.707C476.235 105.675 477.059 108.025 476.098 110.03C476.029 110.099 476.029 110.168 475.96 110.237L512.688 127.864C512.688 127.795 512.757 127.726 512.757 127.656C513.718 125.652 516.052 124.822 518.043 125.79C518.18 125.859 518.318 125.928 518.455 126.067L526.556 108.924C526.418 108.855 526.281 108.786 526.075 108.716C524.084 107.749 523.26 105.398 524.221 103.394C524.29 103.256 524.359 103.117 524.496 102.979L487.7 85.3524C487.7 85.4907 487.631 85.6289 487.562 85.7672ZM506.098 109.477C504.519 112.726 500.674 114.108 497.448 112.587C494.221 110.997 492.848 107.127 494.359 103.878C495.938 100.629 499.782 99.2464 503.009 100.767C506.235 102.288 507.677 106.228 506.098 109.477Z" stroke="#141516" stroke-miterlimit="10"/>
</g>
<g opacity="0.3">
<path d="M116.488 105.678L135.791 132.484L181.922 98.8063L162.619 72L116.488 105.678Z" stroke="#141516" stroke-miterlimit="10"/>
<path d="M124.929 103.483C126.234 105.281 125.822 107.769 124.037 109.082C123.9 109.152 123.762 109.29 123.625 109.359L134.678 124.774C134.815 124.635 134.952 124.566 135.09 124.428C136.874 123.115 139.346 123.529 140.65 125.327C140.719 125.396 140.719 125.465 140.788 125.534L173.74 101.479C173.671 101.41 173.602 101.341 173.602 101.271C172.298 99.4742 172.71 96.9857 174.495 95.6724C174.632 95.6032 174.769 95.465 174.907 95.3959L163.854 79.9812C163.717 80.1194 163.579 80.1885 163.442 80.3268C161.657 81.6401 159.186 81.2254 157.881 79.4282C157.813 79.2899 157.675 79.1517 157.607 79.0134L124.655 103.069C124.723 103.207 124.861 103.345 124.929 103.483ZM154.449 98.4373C156.577 101.341 155.89 105.488 153.007 107.562C150.124 109.705 146.005 109.013 143.945 106.11C141.817 103.207 142.504 99.0594 145.387 96.9857C148.27 94.8429 152.321 95.465 154.449 98.4373Z" stroke="#141516" stroke-miterlimit="10"/>
</g>
<path d="M127.667 285.832H48.1016V301.523H127.667V285.832Z" fill="white" stroke="#141516" stroke-miterlimit="10" stroke-linecap="round" stroke-linejoin="round"/>
<path d="M149.704 269.38H70.1387V285.832H149.704V269.38Z" fill="white" stroke="#141516" stroke-miterlimit="10" stroke-linecap="round" stroke-linejoin="round"/>
<path d="M171.741 252.929H92.1758V269.38H171.741V252.929Z" fill="white" stroke="#141516" stroke-miterlimit="10" stroke-linecap="round" stroke-linejoin="round"/>
<path d="M193.776 236.477H114.211V252.929H193.776V236.477Z" fill="white" stroke="#141516" stroke-miterlimit="10" stroke-linecap="round" stroke-linejoin="round"/>
<path d="M216.568 366.707V236.477H193.707V252.929H171.671V269.38H149.703V285.832H127.666V366.707H216.568Z" fill="#141516" stroke="#141516" stroke-miterlimit="10" stroke-linecap="round" stroke-linejoin="round"/>
<path d="M216.569 351.016H137.004V366.707H216.569V351.016Z" fill="white" stroke="#141516" stroke-miterlimit="10" stroke-linecap="round" stroke-linejoin="round"/>
<path d="M115.007 351.038H194.572V334.586H115.007V351.038Z" fill="white" stroke="#141516" stroke-miterlimit="10" stroke-linecap="round" stroke-linejoin="round"/>
<path d="M92.921 334.552H172.486V318.1H92.921V334.552Z" fill="white" stroke="#141516" stroke-miterlimit="10" stroke-linecap="round" stroke-linejoin="round"/>
<path d="M70.9053 318.066H150.471V301.614H70.9053V318.066Z" fill="white" stroke="#141516" stroke-miterlimit="10" stroke-linecap="round" stroke-linejoin="round"/>
<path d="M48.1016 366.707V301.661H70.962V318.113H92.9987V334.564H114.967V351.016H137.003V366.707H48.1016Z" fill="#141516" stroke="#141516" stroke-miterlimit="10" stroke-linecap="round" stroke-linejoin="round"/>
<path d="M455.336 267.721L450.187 284.795L438.723 275.947C438.723 275.947 438.242 273.182 438.036 272.629C437.83 272.076 436.457 270.486 436.114 269.864C435.839 269.242 435.359 269.795 435.359 270.279C435.359 270.763 436.457 272.283 436.457 272.283L435.908 272.836L431.652 270.832C431.446 270.763 431.171 270.832 431.102 271.039C431.034 271.247 431.102 271.454 431.24 271.523L433.574 273.32L433.299 273.942L429.455 272.353C429.249 272.283 429.043 272.353 428.974 272.56C428.906 272.767 428.974 272.906 429.112 273.044L432.613 275.117L430.279 275.601C430.073 275.671 429.935 275.878 430.004 276.085C430.073 276.223 430.21 276.362 430.347 276.362H432.75L430.69 277.122C430.69 277.122 430.965 277.744 431.377 277.675L433.848 277.537L437.418 277.744C437.418 277.744 449.02 290.048 449.432 290.394C449.844 290.74 452.109 291.638 452.521 291.154C453.002 290.67 458.082 284.518 458.082 284.518L457.327 268.412C457.258 268.343 456.503 266.823 455.336 267.721Z" fill="white" stroke="#141516" stroke-miterlimit="10" stroke-linecap="round" stroke-linejoin="round"/>
<path d="M458.082 248.09C458.082 248.09 455.885 248.228 454.855 244.634C453.825 241.039 456.503 240.002 457.944 239.726C459.455 239.449 459.729 236.132 462.269 235.717C464.809 235.302 467.487 237.376 468.036 239.173C468.654 240.97 472.498 238.274 474.695 240.694C476.892 243.113 476.754 247.675 476.754 249.334C476.754 250.993 481.766 251.27 481.766 255.141C481.766 259.012 481.148 260.947 481.491 261.569C481.766 262.191 484.031 274.357 484.031 274.357H456.297C456.297 274.357 455.404 265.44 456.434 263.159C457.464 260.947 458.356 260.74 458.837 258.666C459.249 256.592 458.837 253.274 458.562 251.823C458.219 250.302 458.082 248.09 458.082 248.09Z" fill="#141516" stroke="#141516" stroke-miterlimit="10" stroke-linecap="round" stroke-linejoin="round"/>
<path d="M463.436 263.712L455.129 263.919L456.776 284.311L472.497 285.555L479.843 264.334L470.987 263.574L463.436 263.712Z" fill="#141516" stroke="#141516" stroke-miterlimit="10" stroke-linecap="round" stroke-linejoin="round"/>
<path d="M460.759 243.32C460.759 243.32 458.562 246.431 458.081 248.09C457.669 249.749 457.257 251.684 457.738 253.966C458.15 256.178 459.454 259.91 460.347 260.187C461.239 260.463 463.573 260.187 463.573 260.187L463.436 263.781H462.269L462.406 269.173L468.035 269.449L470.987 263.643L469.477 263.366L468.447 254.588C468.447 254.588 469.958 252.929 470.095 251.754C470.232 250.578 470.232 249.956 470.232 249.956C470.232 249.956 468.447 251.27 467.006 249.956C465.495 248.643 465.083 247.122 464.603 245.602C464.122 244.081 463.299 242.906 462.543 242.906C461.788 242.837 460.759 243.32 460.759 243.32Z" fill="white" stroke="#141516" stroke-miterlimit="10" stroke-linecap="round" stroke-linejoin="round"/>
<path d="M463.572 260.187L466.112 259.288L463.71 261.915L463.572 260.187Z" fill="#141516" stroke="#141516" stroke-miterlimit="10" stroke-linecap="round" stroke-linejoin="round"/>
<path d="M456.776 284.311L455.128 289.565C455.128 289.565 449.224 295.993 447.989 307.952C446.821 319.91 448.744 331.661 449.293 336.431C449.911 341.2 455.609 362.283 455.609 362.283H459.453C459.453 362.283 458.011 342.652 458.011 340.716C458.011 338.781 458.011 329.795 458.011 329.795L468.927 359.933L472.497 360.071C472.497 360.071 471.055 345.832 470.162 340.025C469.27 334.219 467.691 328.758 467.691 328.758C467.691 328.758 475.517 313.067 475.517 302.353C475.517 291.638 472.84 289.219 472.84 289.219L472.497 285.555L456.776 284.311Z" fill="#EDEFF7" stroke="#141516" stroke-miterlimit="10" stroke-linecap="round" stroke-linejoin="round"/>
<path d="M461.514 300.763C461.994 298.412 462.406 296.892 462.406 296.892" stroke="#141516" stroke-miterlimit="10" stroke-linecap="round" stroke-linejoin="round"/>
<path d="M458.08 329.864C458.08 329.864 457.462 326.892 457.943 320.463C458.217 316.661 459.728 309.127 460.895 303.597" stroke="#141516" stroke-miterlimit="10" stroke-linecap="round" stroke-linejoin="round"/>
<path d="M455.678 362.283C455.678 362.283 448.744 365.532 448.744 366.292C448.744 367.053 459.865 366.292 459.865 366.292C459.865 366.292 460.277 365.117 460.14 364.08C460.003 363.044 459.522 362.283 459.522 362.283H455.678Z" fill="white" stroke="#141516" stroke-miterlimit="10" stroke-linecap="round" stroke-linejoin="round"/>
<path d="M468.997 360.002C468.997 360.002 465.77 364.15 464.672 365.255C463.642 366.292 463.917 367.053 464.809 367.053C465.702 367.053 470.713 366.776 471.606 366.154C472.498 365.532 472.91 364.979 472.91 364.979L472.498 360.209L468.997 360.002Z" fill="white" stroke="#141516" stroke-miterlimit="10" stroke-linecap="round" stroke-linejoin="round"/>
<path d="M479.019 267.03C479.019 267.03 480.323 286.869 479.156 288.942C477.989 291.016 474.557 289.841 474.282 288.942C474.007 288.044 474.557 280.302 474.557 280.302L479.019 267.03Z" fill="white" stroke="#141516" stroke-miterlimit="10" stroke-linecap="round" stroke-linejoin="round"/>
<path d="M442.911 219.608L380.07 228.821L395.908 338.338L458.749 329.124L442.911 219.608Z" fill="#4143EC" stroke="#141516" stroke-miterlimit="10" stroke-linecap="round" stroke-linejoin="round"/>
<path d="M439.066 236.132C434.878 236.754 430.965 233.85 430.416 229.634C430.347 229.288 430.347 229.012 430.347 228.666L394.306 233.989C394.374 234.265 394.443 234.611 394.512 234.956C395.13 239.173 392.246 243.113 388.059 243.666C387.921 243.666 387.715 243.666 387.578 243.735L398.905 321.984C399.043 321.984 399.18 321.915 399.386 321.915C403.574 321.293 407.487 324.196 408.036 328.412C408.104 328.758 408.104 329.034 408.104 329.38L444.146 324.058C444.077 323.781 444.008 323.435 443.94 323.09C443.322 318.873 446.205 314.933 450.393 314.38C450.736 314.311 451.011 314.311 451.354 314.311L440.027 235.993C439.684 235.993 439.409 236.062 439.066 236.132ZM421.217 291.431C414.352 292.468 407.967 287.629 407.006 280.717C405.976 273.804 410.782 267.376 417.647 266.408C424.512 265.371 430.896 270.21 431.857 277.122C432.818 284.035 428.082 290.463 421.217 291.431Z" fill="white" stroke="#141516" stroke-miterlimit="10" stroke-linecap="round" stroke-linejoin="round"/>
<path d="M430.438 221.85L369.096 238.378L397.507 345.283L458.849 328.755L430.438 221.85Z" fill="#4143EC" stroke="#141516" stroke-miterlimit="10" stroke-linecap="round" stroke-linejoin="round"/>
<path d="M428.561 238.758C424.442 239.864 420.255 237.445 419.156 233.297C419.088 232.952 419.019 232.675 418.95 232.33L383.733 241.8C383.87 242.076 383.939 242.422 384.007 242.698C385.106 246.846 382.703 251.062 378.584 252.168C378.447 252.237 378.241 252.237 378.104 252.237L398.424 328.62C398.561 328.551 398.699 328.481 398.904 328.481C403.023 327.375 407.211 329.795 408.31 333.942C408.378 334.288 408.447 334.564 408.515 334.91L443.733 325.44C443.596 325.164 443.527 324.818 443.458 324.541C442.36 320.394 444.763 316.177 448.882 315.071C449.225 315.002 449.5 314.933 449.843 314.864L429.522 238.413C429.179 238.551 428.905 238.689 428.561 238.758ZM417.234 295.786C410.506 297.583 403.641 293.574 401.856 286.869C400.072 280.095 404.053 273.182 410.712 271.385C417.44 269.588 424.305 273.597 426.09 280.302C427.943 287.076 423.962 293.988 417.234 295.786Z" fill="white" stroke="#141516" stroke-miterlimit="10" stroke-linecap="round" stroke-linejoin="round"/>
<path d="M475.587 285.694L453.482 285.279C453.482 285.279 449.02 283.758 448.264 283.758C447.715 283.758 445.93 284.311 445.175 284.518C444.969 284.588 444.832 284.795 444.901 285.002C444.969 285.21 445.175 285.348 445.381 285.348L447.509 285.002L448.127 285.417L443.871 288.182C443.665 288.32 443.596 288.528 443.734 288.735C443.871 288.942 444.077 289.011 444.283 288.942L447.509 287.422L447.647 288.251L444.214 290.048C444.008 290.187 443.871 290.463 444.008 290.67C444.077 290.878 444.351 291.016 444.557 290.947L445.793 290.67C446.068 291.016 446.548 291.154 447.029 291.085L449.363 290.394L447.853 291.362C447.647 291.5 447.578 291.846 447.784 292.053C447.921 292.191 448.127 292.191 448.333 292.122L451.285 290.048L453.825 288.389L476.205 292.329C476.205 292.329 478.127 292.468 478.402 292.122C478.745 291.707 479.363 288.182 479.432 287.214" fill="white"/>
<path d="M475.587 285.694L453.482 285.279C453.482 285.279 449.02 283.758 448.264 283.758C447.715 283.758 445.93 284.311 445.175 284.518C444.969 284.588 444.832 284.795 444.901 285.002C444.969 285.21 445.175 285.348 445.381 285.348L447.509 285.002L448.127 285.417L443.871 288.182C443.665 288.32 443.596 288.528 443.734 288.735C443.871 288.942 444.077 289.011 444.283 288.942L447.509 287.422L447.647 288.251L444.214 290.048C444.008 290.187 443.871 290.463 444.008 290.67C444.077 290.878 444.351 291.016 444.557 290.947L445.793 290.67C446.068 291.016 446.548 291.154 447.029 291.085L449.363 290.394L447.853 291.362C447.647 291.5 447.578 291.846 447.784 292.053C447.921 292.191 448.127 292.191 448.333 292.122L451.285 290.048L453.825 288.389L476.205 292.329C476.205 292.329 478.127 292.468 478.402 292.122C478.745 291.707 479.363 288.182 479.432 287.214" stroke="#141516" stroke-miterlimit="10" stroke-linecap="round" stroke-linejoin="round"/>
<path d="M445.793 290.601L448.814 289.495" stroke="#141516" stroke-miterlimit="10" stroke-linecap="round" stroke-linejoin="round"/>
<path d="M460.072 250.025C460.072 250.509 459.797 250.924 459.454 250.924C459.111 250.924 458.836 250.509 458.836 250.025C458.836 249.542 459.111 249.127 459.454 249.127C459.797 249.127 460.072 249.542 460.072 250.025Z" fill="#141516"/>
<path d="M463.367 250.717C463.367 251.201 463.092 251.615 462.749 251.615C462.405 251.615 462.131 251.201 462.131 250.717C462.131 250.233 462.405 249.818 462.749 249.818C463.092 249.818 463.367 250.233 463.367 250.717Z" fill="#141516"/>
<path d="M458.768 247.883C458.768 247.883 459.385 247.122 460.552 247.952" stroke="#141516" stroke-miterlimit="10" stroke-linecap="round" stroke-linejoin="round"/>
<path d="M462.131 248.367C462.131 248.367 463.367 247.744 464.259 249.265" stroke="#141516" stroke-miterlimit="10" stroke-linecap="round" stroke-linejoin="round"/>
<path d="M460.69 250.095C460.69 250.095 460.827 250.924 460.622 251.408C460.416 251.961 459.386 252.86 459.454 253.136C459.523 253.343 460.072 253.482 460.072 253.482" stroke="#141516" stroke-miterlimit="10" stroke-linecap="round" stroke-linejoin="round"/>
<path d="M459.316 255.279C459.316 255.279 461.376 256.247 463.024 254.933" stroke="#141516" stroke-miterlimit="10" stroke-linecap="round" stroke-linejoin="round"/>
<path d="M230.229 198.735C243.31 198.735 253.913 188.058 253.913 174.888C253.913 161.717 243.31 151.04 230.229 151.04C217.149 151.04 206.545 161.717 206.545 174.888C206.545 188.058 217.149 198.735 230.229 198.735Z" fill="white" stroke="#141516" stroke-miterlimit="10" stroke-linecap="round" stroke-linejoin="round"/>
<path d="M232.633 198.735C245.714 198.735 256.318 188.058 256.318 174.888C256.318 161.717 245.714 151.04 232.633 151.04C219.553 151.04 208.949 161.717 208.949 174.888C208.949 188.058 219.553 198.735 232.633 198.735Z" fill="white" stroke="#141516" stroke-miterlimit="10" stroke-linecap="round" stroke-linejoin="round"/>
<path d="M246.779 189.152C254.607 181.27 254.607 168.49 246.779 160.608C238.951 152.725 226.259 152.725 218.43 160.608C210.602 168.49 210.602 181.27 218.43 189.152C226.259 197.035 238.951 197.035 246.779 189.152Z" fill="white" stroke="#141516" stroke-miterlimit="10" stroke-linecap="round" stroke-linejoin="round"/>
<path d="M232.838 189.127V186.5C230.916 186.431 229.406 185.809 228.444 184.634C227.483 183.459 226.934 181.662 226.866 179.311L230.847 178.62C230.916 179.588 230.985 180.348 231.122 181.04C231.259 181.662 231.534 182.145 231.877 182.491C232.22 182.837 232.632 182.975 233.113 182.975C233.731 182.975 234.074 182.768 234.348 182.422C234.554 182.007 234.692 181.592 234.692 181.109C234.692 180.141 234.486 179.311 234.005 178.689C233.593 177.998 232.975 177.376 232.152 176.685L229.749 174.611C229.2 174.127 228.719 173.574 228.239 173.021C227.827 172.468 227.483 171.846 227.209 171.224C226.934 170.533 226.797 169.703 226.797 168.805C226.797 167.007 227.277 165.625 228.307 164.588C229.337 163.62 230.71 162.998 232.358 162.86V160.302H233.731V162.86C234.76 162.929 235.584 163.136 236.271 163.551C236.957 163.966 237.438 164.45 237.781 165.072C238.124 165.694 238.399 166.385 238.536 167.076C238.673 167.837 238.811 168.528 238.811 169.219L234.76 169.841C234.76 169.15 234.692 168.528 234.623 167.975C234.554 167.422 234.348 167.007 234.142 166.731C233.868 166.454 233.525 166.316 232.975 166.316C232.426 166.316 232.014 166.523 231.74 166.938C231.465 167.353 231.328 167.768 231.328 168.252C231.328 169.15 231.534 169.841 231.946 170.394C232.358 170.947 232.838 171.431 233.387 171.915L235.721 173.989C236.339 174.542 236.957 175.164 237.438 175.855C237.987 176.546 238.399 177.238 238.742 178.067C239.085 178.897 239.223 179.795 239.223 180.832C239.223 181.869 239.017 182.768 238.605 183.597C238.193 184.427 237.644 185.118 236.82 185.602C236.065 186.086 235.172 186.431 234.074 186.5V189.196H232.838V189.127Z" fill="white" stroke="#141516" stroke-miterlimit="10" stroke-linecap="round" stroke-linejoin="round"/>
<path d="M173.182 171.984L173.937 206.892L173.662 231.708L177.713 231.085C177.713 231.085 182.037 207.791 182.037 206.408C182.037 205.026 184.44 187.745 184.44 187.745L188.902 210.141L191.237 231.638L195.287 231.016C195.287 231.016 195.767 207.721 195.767 203.505C195.767 199.288 195.562 172.192 195.562 172.192L182.93 168.874L173.182 171.984Z" fill="#141516" stroke="#141516" stroke-miterlimit="10" stroke-linecap="round" stroke-linejoin="round"/>
<path d="M177.644 231.155C177.644 231.155 183.617 235.095 182.724 235.993C181.832 236.892 176.889 235.993 175.516 235.855C174.143 235.717 173.731 235.371 173.731 235.371L173.594 231.777L177.644 231.155Z" fill="white" stroke="#141516" stroke-miterlimit="10" stroke-linecap="round" stroke-linejoin="round"/>
<path d="M195.218 231.155C195.218 231.155 201.191 235.095 200.298 235.993C199.406 236.892 194.463 235.993 193.09 235.855C191.717 235.717 191.305 235.371 191.305 235.371L191.168 231.777L195.218 231.155Z" fill="white" stroke="#141516" stroke-miterlimit="10" stroke-linecap="round" stroke-linejoin="round"/>
<path d="M226.043 150.348L231.466 149.104C231.466 149.104 236.615 151.869 237.096 152.284C237.576 152.699 236.684 152.699 235.723 152.699C234.762 152.699 231.329 151.8 231.329 151.8C231.329 151.8 233.594 152.491 233.251 152.837C232.908 153.182 232.153 153.252 231.81 153.182C231.466 153.113 230.093 152.906 230.093 152.906C230.093 152.906 227.691 152.837 226.935 152.699C226.18 152.56 226.18 152.56 226.18 152.56L226.043 150.348Z" fill="white" stroke="#141516" stroke-miterlimit="10" stroke-linecap="round" stroke-linejoin="round"/>
<path d="M191.237 128.851C191.237 128.851 178.949 135.763 177.37 137.768C175.791 139.772 175.242 149.726 174.212 156.777C173.182 163.828 173.045 172.606 173.045 172.606C173.045 172.606 181.901 173.782 186.775 173.643C191.649 173.505 195.631 172.33 195.631 172.33C195.631 172.33 197.347 163.413 197.759 162.1C198.171 160.786 201.329 144.818 201.329 144.818L211.077 152.63H226.111V150.348C226.111 150.348 214.166 147.514 214.029 147.169C213.892 146.754 203.869 132.307 200.848 130.579C197.828 128.851 193.297 127.261 191.237 128.851Z" fill="#4143EC" stroke="#141516" stroke-miterlimit="10" stroke-linecap="round" stroke-linejoin="round"/>
<path d="M192.404 124.98L190.138 130.441C190.138 130.441 189.108 130.717 189.314 132.86C189.589 135.003 192.198 140.947 193.159 140.809C194.051 140.671 197.003 132.722 197.003 132.722L192.404 124.98Z" fill="white" stroke="#141516" stroke-miterlimit="10" stroke-linecap="round" stroke-linejoin="round"/>
<path d="M193.641 130.994L194.602 138.252L196.318 134.726L193.641 130.994Z" fill="#141516" stroke="#141516" stroke-miterlimit="10" stroke-linecap="round" stroke-linejoin="round"/>
<path d="M204.898 121.8C204.898 121.8 206.065 122.975 208.056 122.077C210.047 121.178 210.939 119.173 209.223 117.583C207.507 115.994 206.614 117.722 206.065 115.579C205.516 113.436 203.456 111.984 201.603 112.537C199.749 113.09 200.436 113.713 199.131 114.127C197.827 114.542 196.111 113.298 194.395 115.026C192.678 116.754 192.404 120.832 191.992 122.699C191.58 124.565 193.296 125.118 194.738 124.98C196.18 124.842 197.347 121.8 198.582 120.832C199.749 119.934 204.898 121.8 204.898 121.8Z" fill="#141516" stroke="#141516" stroke-miterlimit="10" stroke-linecap="round" stroke-linejoin="round"/>
<path d="M192.13 125.533C192.13 125.533 192.267 128.436 192.816 129.404C193.365 130.302 195.562 134.726 196.386 134.726C197.21 134.726 198.377 134.726 198.857 134.45C199.407 134.173 201.466 131.408 202.839 128.989C204.143 126.57 204.967 121.8 204.967 121.8C204.967 121.8 198.651 117.791 198.24 118.62C197.828 119.45 197.965 120.625 197.347 120.763C196.661 120.901 195.219 121.04 195.219 121.04C195.219 121.04 195.631 122.906 195.082 123.321C194.532 123.736 193.228 122.906 193.228 122.906C193.228 122.906 191.58 123.183 192.13 125.533Z" fill="white" stroke="#141516" stroke-miterlimit="10" stroke-linecap="round" stroke-linejoin="round"/>
<path d="M199.476 126.017C199.339 126.5 199.064 126.915 198.789 126.846C198.515 126.777 198.378 126.293 198.515 125.809C198.652 125.325 198.927 124.911 199.201 124.98C199.476 125.049 199.613 125.533 199.476 126.017Z" fill="#141516"/>
<path d="M202.908 126.984C202.77 127.468 202.496 127.883 202.221 127.814C201.946 127.745 201.809 127.261 201.946 126.777C202.084 126.293 202.358 125.878 202.633 125.948C202.908 126.017 203.045 126.5 202.908 126.984Z" fill="#141516"/>
<path d="M198.033 124.081C198.033 124.081 198.582 123.666 200.093 124.081" stroke="#141516" stroke-miterlimit="10" stroke-linecap="round" stroke-linejoin="round"/>
<path d="M202.359 125.049C202.359 125.049 203.32 125.187 203.732 125.878" stroke="#141516" stroke-miterlimit="10" stroke-linecap="round" stroke-linejoin="round"/>
<path d="M201.259 126.915L200.71 129.749L199.062 129.542" stroke="#141516" stroke-miterlimit="10" stroke-linecap="round" stroke-linejoin="round"/>
<path d="M198.515 131.27C198.515 131.27 196.936 131.27 196.455 129.058" stroke="#141516" stroke-miterlimit="10" stroke-linecap="round" stroke-linejoin="round"/>
<path d="M193.846 124.081C193.846 124.081 193.572 121.04 192.405 121.04C191.238 121.04 190.139 123.805 190.826 125.049C191.512 126.224 193.228 126.639 193.228 126.639" fill="white"/>
<path d="M193.846 124.081C193.846 124.081 193.572 121.04 192.405 121.04C191.238 121.04 190.139 123.805 190.826 125.049C191.512 126.224 193.228 126.639 193.228 126.639" stroke="#141516" stroke-miterlimit="10" stroke-linecap="round" stroke-linejoin="round"/>
<path d="M183.343 140.118L185.609 159.196L204.831 165.832L205.105 168.044L179.43 164.519C179.43 164.519 175.792 145.648 175.311 143.021C174.831 140.394 176.135 137.56 177.989 136.04C179.842 134.45 182.725 134.381 182.725 134.381" fill="#4143EC"/>
<path d="M183.343 140.118L185.609 159.196L204.831 165.832L205.105 168.044L179.43 164.519C179.43 164.519 175.792 145.648 175.311 143.021C174.831 140.394 176.135 137.56 177.989 136.04C179.842 134.45 182.725 134.381 182.725 134.381" stroke="#141516" stroke-miterlimit="10" stroke-linecap="round" stroke-linejoin="round"/>
<path d="M204.83 165.832C204.83 165.832 207.919 164.934 208.263 164.864C208.674 164.795 210.734 166.385 211.146 166.454C211.558 166.523 212.244 166.662 212.244 167.215C212.244 167.768 212.038 168.182 211.009 167.837C209.979 167.491 209.361 167.146 209.361 167.146C209.361 167.146 211.901 169.703 212.382 169.911C212.656 170.049 213.068 170.394 213.411 170.74C213.617 170.947 213.549 171.293 213.274 171.431C212.656 171.708 211.626 172.123 210.665 172.123C209.224 172.123 205.173 168.044 205.173 168.044L204.83 165.832Z" fill="white" stroke="#141516" stroke-miterlimit="10" stroke-linecap="round" stroke-linejoin="round"/>
<path d="M324.693 222.445C324.693 222.445 344.327 211.316 347.211 212.353C350.094 213.459 344.739 235.371 343.984 236.823C343.229 238.274 324.693 222.445 324.693 222.445Z" fill="#6985D1" stroke="#141516" stroke-miterlimit="10" stroke-linecap="round" stroke-linejoin="round"/>
<path d="M346.113 215.256C346.113 215.256 345.289 216.569 344.191 218.505C342.269 221.892 339.729 227.007 339.729 229.979C339.729 234.68 342.612 234.265 343.298 230.671L345.77 220.233" stroke="#141516" stroke-miterlimit="10" stroke-linecap="round" stroke-linejoin="round"/>
<path d="M180.94 280.993C186.324 280.993 190.688 275.268 190.688 268.205C190.688 261.142 186.324 255.417 180.94 255.417C175.556 255.417 171.191 261.142 171.191 268.205C171.191 275.268 175.556 280.993 180.94 280.993Z" fill="#6985D1" stroke="#141516" stroke-miterlimit="10" stroke-linecap="round" stroke-linejoin="round"/>
<path d="M269.36 359.933C320.696 359.933 362.312 324.467 362.312 280.717C362.312 236.967 320.696 201.5 269.36 201.5C218.024 201.5 176.408 236.967 176.408 280.717C176.408 324.467 218.024 359.933 269.36 359.933Z" fill="#6985D1" stroke="#141516" stroke-miterlimit="10" stroke-linecap="round" stroke-linejoin="round"/>
<path d="M329.773 335.325C313.983 347.974 292.77 355.716 269.429 355.716C227.69 355.716 192.816 330.97 183.686 297.79" fill="#6985D1"/>
<path d="M329.773 335.325C313.983 347.974 292.77 355.716 269.429 355.716C227.69 355.716 192.816 330.97 183.686 297.79" stroke="#141516" stroke-width="2" stroke-miterlimit="10" stroke-linecap="round" stroke-linejoin="round"/>
<path d="M181.42 283.205C181.42 282.376 181.352 281.546 181.352 280.717C181.352 271.454 183.274 262.675 186.912 254.449" fill="#6985D1"/>
<path d="M181.42 283.205C181.42 282.376 181.352 281.546 181.352 280.717C181.352 271.454 183.274 262.675 186.912 254.449" stroke="#141516" stroke-width="2" stroke-miterlimit="10" stroke-linecap="round" stroke-linejoin="round"/>
<path d="M241.488 210.21C250.275 207.721 259.612 206.339 269.429 206.339C279.246 206.339 288.651 207.721 297.438 210.279" stroke="#141516" stroke-width="5" stroke-miterlimit="10" stroke-linecap="round" stroke-linejoin="round"/>
<path d="M357.165 256.247C357.165 256.247 368.973 252.307 370.757 254.449C372.542 256.592 372.542 281.823 371.101 286.454C369.659 291.154 360.048 290.048 353.252 285.002C346.455 279.956 347.211 272.767 347.211 272.767" fill="#6985D1"/>
<path d="M357.165 256.247C357.165 256.247 368.973 252.307 370.757 254.449C372.542 256.592 372.542 281.823 371.101 286.454C369.659 291.154 360.048 290.048 353.252 285.002C346.455 279.956 347.211 272.767 347.211 272.767" stroke="#141516" stroke-miterlimit="10" stroke-linecap="round" stroke-linejoin="round"/>
<path d="M350.024 271.73L342.885 272.836" stroke="#141516" stroke-miterlimit="10" stroke-linecap="round" stroke-linejoin="round"/>
<path d="M348.24 279.611C348.24 279.611 346.455 292.191 348.583 292.537C350.711 292.882 354.281 286.454 354.281 286.454C354.281 286.454 349.338 280.717 348.24 279.611Z" fill="#141516" stroke="#141516" stroke-miterlimit="10" stroke-linecap="round" stroke-linejoin="round"/>
<path d="M341.718 250.164C342.405 252.79 341.993 255.141 340.826 255.417C339.659 255.694 338.217 253.827 337.53 251.27C336.844 248.643 337.256 246.293 338.423 246.016C339.59 245.671 341.1 247.537 341.718 250.164Z" fill="#141516"/>
<path d="M304.234 215.256C304.234 215.256 326.752 192.583 331.077 197.007C335.47 201.431 333.823 220.717 333.823 223.482C333.823 226.247 333.823 231.224 333.823 231.224" fill="#6985D1"/>
<path d="M304.234 215.256C304.234 215.256 326.752 192.583 331.077 197.007C335.47 201.431 333.823 220.717 333.823 223.482C333.823 226.247 333.823 231.224 333.823 231.224" stroke="#141516" stroke-miterlimit="10" stroke-linecap="round" stroke-linejoin="round"/>
<path d="M331.833 201.915C331.833 201.915 332.176 196.178 329.704 199.772C327.233 203.367 320.025 228.182 322.222 231.085C324.35 233.989 330.46 232.537 331.901 227.145C333.343 221.754 332.244 206.27 332.244 206.27" stroke="#141516" stroke-miterlimit="10" stroke-linecap="round" stroke-linejoin="round"/>
<path d="M208.742 333.251L221.031 366.707H234.623L240.733 349.426" fill="#6985D1"/>
<path d="M208.742 333.251L221.031 366.707H234.623L240.733 349.426" stroke="#141516" stroke-miterlimit="10" stroke-linecap="round" stroke-linejoin="round"/>
<path d="M322.153 337.537L310.345 366.707H296.821L290.711 349.426" fill="#6985D1"/>
<path d="M322.153 337.537L310.345 366.707H296.821L290.711 349.426" stroke="#141516" stroke-miterlimit="10" stroke-linecap="round" stroke-linejoin="round"/>
<path d="M264.83 319.979V312.998C259.681 312.79 255.906 311.131 253.366 308.021C250.826 304.91 249.453 300.279 249.247 294.127L259.75 292.329C259.819 294.818 260.093 296.892 260.505 298.62C260.917 300.279 261.535 301.523 262.427 302.352C263.251 303.182 264.35 303.597 265.723 303.597C267.233 303.597 268.331 303.113 268.881 302.076C269.43 301.108 269.704 299.933 269.704 298.62C269.704 296.062 269.087 293.919 267.919 292.191C266.752 290.463 265.173 288.735 263.114 286.938L256.798 281.477C255.357 280.094 254.052 278.781 252.885 277.329C251.718 275.947 250.826 274.357 250.139 272.491C249.453 270.694 249.109 268.551 249.109 266.131C249.109 261.431 250.414 257.767 253.091 255.141C255.768 252.514 259.338 250.993 263.8 250.648V243.943H267.37V250.648C270.048 250.786 272.244 251.408 273.961 252.514C275.677 253.62 276.981 254.933 277.874 256.592C278.766 258.251 279.384 259.979 279.796 261.915C280.208 263.85 280.414 265.717 280.551 267.514L269.91 269.104C269.842 267.237 269.704 265.578 269.43 264.196C269.155 262.744 268.743 261.638 268.057 260.878C267.439 260.048 266.409 259.703 265.105 259.772C263.732 259.841 262.633 260.394 261.947 261.431C261.26 262.468 260.849 263.643 260.849 264.956C260.849 267.237 261.398 269.104 262.496 270.486C263.595 271.869 264.83 273.251 266.203 274.565L272.382 279.956C274.029 281.477 275.54 283.067 276.913 284.864C278.286 286.592 279.453 288.528 280.276 290.67C281.1 292.813 281.512 295.233 281.512 297.998C281.512 300.624 280.963 303.044 279.933 305.256C278.835 307.468 277.325 309.196 275.334 310.578C273.343 311.961 270.94 312.721 268.194 312.998V320.048H264.83V319.979Z" fill="#141516"/>
<path opacity="0.35" d="M291.261 279.818C303.621 279.818 313.641 270.069 313.641 258.044C313.641 246.018 303.621 236.27 291.261 236.27C278.901 236.27 268.881 246.018 268.881 258.044C268.881 270.069 278.901 279.818 291.261 279.818Z" fill="white"/>
<path d="M21.123 366.707H516.296" stroke="#141516" stroke-miterlimit="10" stroke-linecap="round" stroke-linejoin="round"/>
</svg>
