<svg width="545" height="354" viewBox="0 0 545 354" fill="none" xmlns="http://www.w3.org/2000/svg">
<g clip-path="url(#clip0_2385_314)">
<path d="M273.755 39.9139L254.49 44.0016C251.845 44.572 249.296 42.8608 248.823 40.2941L244.763 20.9014C244.196 18.2396 245.896 15.6729 248.446 15.1976L267.711 11.1099C270.356 10.5395 272.906 12.2507 273.378 14.8174L277.439 34.2101C278.1 36.7768 276.4 39.3435 273.755 39.9139Z" stroke="white" stroke-miterlimit="10" stroke-linecap="round" stroke-linejoin="round"/>
<path d="M259.873 21.6619L262.328 33.3546" stroke="white" stroke-miterlimit="10" stroke-linecap="round" stroke-linejoin="round"/>
<path d="M266.956 26.2249L255.245 28.6965" stroke="white" stroke-miterlimit="10" stroke-linecap="round" stroke-linejoin="round"/>
<path d="M505.847 236.801L486.582 240.889C483.937 241.459 481.387 239.748 480.915 237.181L476.854 217.788C476.288 215.127 477.988 212.56 480.537 212.085L499.803 207.997C502.447 207.426 504.997 209.138 505.47 211.704L509.53 231.097C510.097 233.664 508.492 236.23 505.847 236.801Z" stroke="white" stroke-miterlimit="10" stroke-linecap="round" stroke-linejoin="round"/>
<path d="M496.498 219.404L489.981 229.481" stroke="white" stroke-miterlimit="10" stroke-linecap="round" stroke-linejoin="round"/>
<path d="M498.198 227.675L488.187 221.115" stroke="white" stroke-miterlimit="10" stroke-linecap="round" stroke-linejoin="round"/>
<path d="M212.154 344.622L192.51 343.481C189.866 343.291 187.788 341.01 187.977 338.348L189.111 318.575C189.299 315.913 191.566 313.822 194.21 314.012L213.854 315.153C216.498 315.343 218.576 317.624 218.387 320.286L217.254 340.059C217.065 342.816 214.798 344.812 212.154 344.622Z" stroke="white" stroke-miterlimit="10" stroke-linecap="round" stroke-linejoin="round"/>
<path d="M209.132 329.697L197.232 329.032" stroke="white" stroke-miterlimit="10" stroke-linecap="round" stroke-linejoin="round"/>
<path d="M45.8468 159.481L27.1477 153.207C24.5979 152.352 23.2757 149.595 24.1257 147.123L30.3587 128.301C31.2086 125.734 33.9474 124.403 36.4028 125.259L55.1019 131.533C57.6517 132.388 58.9739 135.145 58.1239 137.617L51.8909 156.439C51.041 158.911 48.3966 160.337 45.8468 159.481Z" stroke="white" stroke-miterlimit="10" stroke-linecap="round" stroke-linejoin="round"/>
<path d="M48.5855 138.568L33.6641 146.173" stroke="white" stroke-miterlimit="10" stroke-linecap="round" stroke-linejoin="round"/>
<path d="M39.9918 135.525C40.464 136.571 40.0862 137.807 39.0474 138.377C38.0085 138.853 36.7808 138.472 36.2142 137.427C35.742 136.381 36.1197 135.145 37.1586 134.575C38.1974 134.004 39.5196 134.48 39.9918 135.525Z" stroke="white" stroke-miterlimit="10" stroke-linecap="round" stroke-linejoin="round"/>
<path d="M45.9415 147.408C46.4137 148.454 46.0359 149.69 44.9971 150.26C43.9582 150.735 42.7305 150.355 42.1639 149.31C41.6917 148.264 42.0694 147.028 43.1083 146.458C44.1471 145.887 45.3748 146.363 45.9415 147.408Z" stroke="white" stroke-miterlimit="10" stroke-linecap="round" stroke-linejoin="round"/>
<path d="M288.867 328.441C283.39 336.427 272.529 338.423 264.691 332.909C261.669 330.818 259.497 327.871 258.269 324.639C256.38 319.505 256.947 313.421 260.252 308.573C262.613 305.151 265.919 302.869 269.602 301.729C274.513 300.208 279.99 300.968 284.523 304.105C292.362 309.524 294.345 320.456 288.867 328.441Z" fill="#B5CEEE"/>
<mask id="mask0_2385_314" style="mask-type:luminance" maskUnits="userSpaceOnUse" x="257" y="300" width="35" height="37">
<path d="M288.867 328.441C283.39 336.427 272.529 338.423 264.691 332.909C261.669 330.818 259.497 327.871 258.269 324.639C256.38 319.505 256.947 313.421 260.252 308.573C262.613 305.151 265.919 302.869 269.602 301.729C274.513 300.208 279.99 300.968 284.523 304.105C292.362 309.524 294.345 320.456 288.867 328.441Z" fill="white"/>
</mask>
<g mask="url(#mask0_2385_314)">
<path opacity="0.3" d="M286.601 326.825C281.973 333.48 272.907 335.191 266.202 330.533C259.591 325.875 257.891 316.749 262.519 309.999C267.146 303.345 276.213 301.634 282.918 306.292C289.529 310.95 291.229 320.171 286.601 326.825Z" fill="#EDEFF7"/>
</g>
<mask id="mask1_2385_314" style="mask-type:luminance" maskUnits="userSpaceOnUse" x="257" y="300" width="35" height="37">
<path d="M288.867 328.441C283.39 336.427 272.529 338.423 264.691 332.909C261.669 330.818 259.497 327.871 258.269 324.639C256.38 319.505 256.947 313.421 260.252 308.573C262.613 305.151 265.919 302.869 269.602 301.729C274.513 300.208 279.99 300.968 284.523 304.105C292.362 309.524 294.345 320.456 288.867 328.441Z" fill="white"/>
</mask>
<g mask="url(#mask1_2385_314)">
<path d="M286.601 326.825C281.973 333.48 272.907 335.191 266.202 330.533C259.591 325.875 257.891 316.749 262.519 309.999C267.146 303.345 276.213 301.634 282.918 306.292C289.529 310.95 291.229 320.171 286.601 326.825Z" stroke="#141516" stroke-miterlimit="10" stroke-linecap="round" stroke-linejoin="round"/>
</g>
<mask id="mask2_2385_314" style="mask-type:luminance" maskUnits="userSpaceOnUse" x="257" y="300" width="35" height="37">
<path d="M288.867 328.441C283.39 336.427 272.529 338.423 264.691 332.909C261.669 330.818 259.497 327.871 258.269 324.639C256.38 319.505 256.947 313.421 260.252 308.573C262.613 305.151 265.919 302.869 269.602 301.729C274.513 300.208 279.99 300.968 284.523 304.105C292.362 309.524 294.345 320.456 288.867 328.441Z" fill="white"/>
</mask>
<g mask="url(#mask2_2385_314)">
<path d="M278.385 311.14L279.046 310.094L280.84 311.33L280.179 312.376C281.501 313.707 281.501 315.513 280.179 317.319L279.896 317.794L277.818 316.368L278.196 315.798C278.857 314.847 278.762 314.182 278.007 313.707C277.346 313.231 276.685 313.326 276.024 314.277C275.363 315.228 275.268 316.178 275.929 318.365C276.685 321.026 276.59 322.547 275.457 324.068C274.135 325.97 272.529 326.54 270.829 325.875L270.168 326.92L268.374 325.685L269.035 324.639C267.713 323.213 267.713 321.502 269.035 319.601L269.696 318.65L271.774 320.076L271.018 321.121C270.357 322.072 270.546 322.738 271.207 323.213C271.868 323.688 272.529 323.593 273.285 322.642C273.946 321.692 274.04 320.646 273.379 318.555C272.624 315.893 272.718 314.372 273.852 312.851C275.079 311.045 276.59 310.379 278.385 311.14Z" fill="#B5CEEE" stroke="#141516" stroke-miterlimit="10" stroke-linecap="round" stroke-linejoin="round"/>
</g>
<mask id="mask3_2385_314" style="mask-type:luminance" maskUnits="userSpaceOnUse" x="257" y="300" width="35" height="37">
<path d="M288.867 328.441C283.39 336.427 272.529 338.423 264.691 332.909C261.669 330.818 259.497 327.871 258.269 324.639C256.38 319.505 256.947 313.421 260.252 308.573C262.613 305.151 265.919 302.869 269.602 301.729C274.513 300.208 279.99 300.968 284.523 304.105C292.362 309.524 294.345 320.456 288.867 328.441Z" fill="white"/>
</mask>
<g mask="url(#mask3_2385_314)">
<path opacity="0.2" d="M269.696 304.295C269.696 312.946 265.069 320.456 258.269 324.639C256.38 319.505 256.947 313.421 260.252 308.573C262.613 305.151 265.919 302.87 269.602 301.729C269.696 302.584 269.696 303.44 269.696 304.295Z" fill="#EDEFF7"/>
</g>
<path d="M288.867 328.441C283.39 336.427 272.529 338.423 264.691 332.909C261.669 330.818 259.497 327.871 258.269 324.639C256.38 319.505 256.947 313.421 260.252 308.573C262.613 305.151 265.919 302.869 269.602 301.729C274.513 300.208 279.99 300.968 284.523 304.105C292.362 309.524 294.345 320.456 288.867 328.441Z" stroke="#141516" stroke-miterlimit="10" stroke-linecap="round" stroke-linejoin="round"/>
<path d="M249.769 321.216C259.366 321.216 267.146 313.385 267.146 303.725C267.146 294.065 259.366 286.233 249.769 286.233C240.172 286.233 232.392 294.065 232.392 303.725C232.392 313.385 240.172 321.216 249.769 321.216Z" fill="#B5CEEE" stroke="#141516" stroke-miterlimit="10" stroke-linecap="round" stroke-linejoin="round"/>
<path opacity="0.3" d="M249.769 318.46C257.853 318.46 264.407 311.863 264.407 303.725C264.407 295.587 257.853 288.99 249.769 288.99C241.685 288.99 235.131 295.587 235.131 303.725C235.131 311.863 241.685 318.46 249.769 318.46Z" fill="#EDEFF7"/>
<path d="M249.769 318.46C257.853 318.46 264.407 311.863 264.407 303.725C264.407 295.587 257.853 288.99 249.769 288.99C241.685 288.99 235.131 295.587 235.131 303.725C235.131 311.863 241.685 318.46 249.769 318.46Z" stroke="#141516" stroke-miterlimit="10" stroke-linecap="round" stroke-linejoin="round"/>
<path d="M248.636 295.55V294.314H250.808V295.55C252.697 295.93 253.641 297.356 253.641 299.637V300.208H251.186V299.447C251.186 298.211 250.714 297.831 249.864 297.831C249.014 297.831 248.541 298.306 248.541 299.447C248.541 300.683 249.014 301.443 250.808 302.869C252.98 304.58 253.641 305.911 253.641 307.813C253.641 310.094 252.697 311.52 250.808 311.9V313.136H248.636V311.9C246.747 311.52 245.803 310.094 245.803 307.813V306.672H248.258V308.003C248.258 309.239 248.825 309.619 249.58 309.619C250.43 309.619 250.902 309.143 250.902 308.003C250.902 306.767 250.43 305.911 248.636 304.58C246.464 302.869 245.803 301.538 245.803 299.637C245.897 297.356 246.842 295.93 248.636 295.55Z" fill="#B5CEEE" stroke="#141516" stroke-miterlimit="10" stroke-linecap="round" stroke-linejoin="round"/>
<path d="M347.442 318.437C352.619 310.304 350.266 299.485 342.185 294.273C334.105 289.061 323.357 291.43 318.179 299.564C313.001 307.698 315.355 318.517 323.436 323.729C331.516 328.94 342.264 326.571 347.442 318.437Z" fill="#B5CEEE" stroke="#141516" stroke-miterlimit="10" stroke-linecap="round" stroke-linejoin="round"/>
<path opacity="0.3" d="M343.453 298.972C348.931 304.961 348.647 314.277 342.698 319.791C336.748 325.304 327.493 325.019 322.015 319.03C316.538 313.041 316.821 303.725 322.771 298.211C328.721 292.698 337.976 292.983 343.453 298.972Z" fill="#EDEFF7"/>
<path d="M343.453 298.972C348.931 304.961 348.647 314.277 342.698 319.791C336.748 325.304 327.493 325.019 322.015 319.03C316.538 313.041 316.821 303.725 322.771 298.211C328.721 292.698 337.976 292.983 343.453 298.972Z" stroke="#141516" stroke-miterlimit="10" stroke-linecap="round" stroke-linejoin="round"/>
<path d="M326.454 303.725L325.604 302.774L327.209 301.348L328.059 302.299C329.665 301.348 331.365 301.729 332.876 303.345L333.254 303.725L331.459 305.436L330.987 304.961C330.137 304.105 329.57 304.105 328.909 304.676C328.343 305.246 328.248 305.911 329.098 306.767C329.948 307.623 330.798 307.908 333.065 307.718C335.803 307.527 337.22 308.003 338.542 309.334C340.053 311.045 340.337 312.756 339.203 314.277L340.053 315.132L338.448 316.558L337.598 315.703C335.992 316.749 334.292 316.273 332.781 314.657L332.026 313.802L333.82 312.09L334.67 313.041C335.52 313.897 336.181 313.897 336.748 313.326C337.315 312.756 337.409 312.09 336.653 311.235C335.803 310.379 334.954 310.094 332.687 310.284C329.948 310.474 328.532 309.999 327.209 308.668C325.698 306.957 325.415 305.246 326.454 303.725Z" fill="#B5CEEE" stroke="#141516" stroke-miterlimit="10" stroke-linecap="round" stroke-linejoin="round"/>
<path opacity="0.2" d="M316.653 232.904C316.653 232.904 316.559 269.217 316.653 271.404C316.748 273.495 319.486 286.329 319.486 286.329L310.704 302.584L318.259 308.668L332.991 294.124C332.991 294.124 345.457 301.919 347.818 313.041C350.085 324.164 363.684 332.244 377.85 363.044C392.016 393.845 408.071 294.124 408.071 294.124L364.534 238.893L316.653 232.904Z" fill="#8C8F9D"/>
<path d="M449.813 37.5497L436.497 168.641L428.281 249.254L313.631 237.466L291.249 235.185L276.989 233.664L289.644 109.227L298.521 21.9595L449.813 37.5497Z" fill="white"/>
<mask id="mask4_2385_314" style="mask-type:luminance" maskUnits="userSpaceOnUse" x="276" y="21" width="174" height="229">
<path d="M449.813 37.5497L436.497 168.641L428.281 249.254L313.631 237.466L291.249 235.185L276.989 233.664L289.644 109.227L298.521 21.9595L449.813 37.5497Z" fill="white"/>
</mask>
<g mask="url(#mask4_2385_314)">
<path d="M405.899 42.493L340.547 35.7435C339.319 35.6485 338.186 36.504 338.091 37.7398C337.997 38.9757 338.847 40.1164 340.074 40.2115L405.427 46.9609C406.654 47.056 407.788 46.2004 407.882 44.9646C407.976 43.7288 407.127 42.588 405.899 42.493Z" fill="#141516"/>
</g>
<mask id="mask5_2385_314" style="mask-type:luminance" maskUnits="userSpaceOnUse" x="276" y="21" width="174" height="229">
<path d="M449.813 37.5497L436.497 168.641L428.281 249.254L313.631 237.466L291.249 235.185L276.989 233.664L289.644 109.227L298.521 21.9595L449.813 37.5497Z" fill="white"/>
</mask>
<g mask="url(#mask5_2385_314)">
<path d="M388.617 49.9079L355.94 46.5807C355.374 46.4857 354.807 46.961 354.713 47.6264C354.618 48.1968 355.09 48.7672 355.752 48.8622L388.428 52.1894C388.994 52.2845 389.561 51.8092 389.655 51.1437C389.655 50.5733 389.278 50.003 388.617 49.9079Z" fill="#141516"/>
</g>
<mask id="mask6_2385_314" style="mask-type:luminance" maskUnits="userSpaceOnUse" x="276" y="21" width="174" height="229">
<path d="M449.813 37.5497L436.497 168.641L428.281 249.254L313.631 237.466L291.249 235.185L276.989 233.664L289.644 109.227L298.521 21.9595L449.813 37.5497Z" fill="white"/>
</mask>
<g mask="url(#mask6_2385_314)">
<path d="M424.598 146.682L318.637 135.749C318.07 135.654 317.503 136.13 317.409 136.795C317.315 137.365 317.787 137.936 318.448 138.031L424.409 148.963C424.976 149.058 425.542 148.583 425.637 147.917C425.731 147.252 425.165 146.777 424.598 146.682Z" fill="#141516"/>
<path d="M423.748 154.762L300.504 142.024C299.938 141.929 299.371 142.404 299.277 143.069C299.182 143.64 299.654 144.21 300.316 144.305L423.559 157.043C424.126 157.139 424.693 156.663 424.787 155.998C424.787 155.332 424.315 154.762 423.748 154.762Z" fill="#141516"/>
<path d="M388.428 159.23L299.654 150.104C299.088 150.009 298.521 150.484 298.427 151.15C298.332 151.72 298.804 152.29 299.465 152.385L388.239 161.511C388.805 161.606 389.372 161.131 389.466 160.466C389.561 159.8 388.994 159.23 388.428 159.23Z" fill="#141516"/>
</g>
<mask id="mask7_2385_314" style="mask-type:luminance" maskUnits="userSpaceOnUse" x="193" y="76" width="239" height="194">
<path d="M224.276 76.7219L352.494 103.627L431.337 120.2L408.023 233.5L403.491 255.621L400.537 269.707L278.829 244.153L193.476 226.23L224.276 76.7219Z" fill="white"/>
</mask>
<g mask="url(#mask7_2385_314)">
<path d="M298.26 158.665L294.662 194.036L418.966 206.944L422.565 171.574L298.26 158.665Z" fill="#EDEFF7" stroke="#141516" stroke-miterlimit="10"/>
</g>
<mask id="mask8_2385_314" style="mask-type:luminance" maskUnits="userSpaceOnUse" x="276" y="21" width="174" height="229">
<path d="M449.813 37.5497L436.497 168.641L428.281 249.254L313.631 237.466L291.249 235.185L276.989 233.664L289.644 109.227L298.521 21.9595L449.813 37.5497Z" fill="white"/>
</mask>
<g mask="url(#mask8_2385_314)">
<path d="M355.266 117.79C367.007 107.943 368.595 90.38 358.813 78.5613C349.031 66.7426 331.583 65.1439 319.842 74.9905C308.101 84.8371 306.512 102.4 316.294 114.219C326.077 126.038 343.525 127.636 355.266 117.79Z" fill="#B5CEEE"/>
<mask id="mask9_2385_314" style="mask-type:luminance" maskUnits="userSpaceOnUse" x="309" y="68" width="57" height="57">
<path d="M364.778 101.382C367.544 86.243 357.607 71.7259 342.583 68.9572C327.558 66.1885 313.136 76.2166 310.37 91.3557C307.604 106.495 317.541 121.012 332.566 123.781C347.59 126.549 362.012 116.521 364.778 101.382Z" fill="white"/>
</mask>
<g mask="url(#mask9_2385_314)">
<path opacity="0.5" d="M355.255 117.778C367.002 107.925 368.601 90.3619 358.825 78.5496C349.049 66.7373 331.601 65.1491 319.853 75.0022C308.106 84.8553 306.507 102.419 316.283 114.231C326.059 126.043 343.507 127.631 355.255 117.778Z" fill="white"/>
</g>
<path d="M355.266 117.79C367.007 107.943 368.595 90.38 358.813 78.5613C349.031 66.7426 331.583 65.1439 319.842 74.9905C308.101 84.8371 306.512 102.4 316.294 114.219C326.077 126.038 343.525 127.636 355.266 117.79Z" stroke="#141516" stroke-width="1.00001" stroke-miterlimit="10"/>
<path d="M338.375 96.2984L361.418 107.991C362.74 105.329 363.59 102.287 363.873 99.1503C364.629 92.0206 362.457 85.2711 358.301 79.9476L338.375 96.2984Z" fill="white"/>
<path d="M338.469 94.9675L357.735 79.1871C354.902 75.7649 351.219 73.1031 346.969 71.4871L343.475 81.0884L338.469 94.9675Z" fill="#B5CEEE"/>
<path d="M340.641 69.9661L338.28 92.8762L346.119 71.2019C344.419 70.6315 342.624 70.1562 340.641 69.9661Z" fill="#4143EC"/>
<path d="M337.147 96.0132L339.791 69.776C325.436 68.5401 312.687 79.0921 311.27 93.5416C310.798 98.2947 311.554 102.763 313.348 106.85L337.147 96.0132Z" fill="#4143EC"/>
<path d="M334.88 122.821C345.93 123.962 356.129 118.068 360.946 108.752L337.525 96.8688L313.631 107.801C317.503 115.881 325.342 121.775 334.88 122.821Z" fill="#EDEFF7"/>
<path d="M381.533 82.6094L378.417 82.3242C378.133 82.3242 377.85 82.039 377.85 81.6587L378.133 78.5217C378.133 78.2365 378.417 77.9513 378.794 77.9513L381.911 78.2365C382.194 78.2365 382.478 78.5217 382.478 78.9019L382.194 82.039C382.1 82.4192 381.817 82.7044 381.533 82.6094Z" fill="#B5CEEE" stroke="#141516" stroke-miterlimit="10"/>
<path d="M425.826 84.4156L385.122 80.2328C384.839 80.2328 384.65 79.9476 384.65 79.6624C384.65 79.3773 384.933 79.1871 385.217 79.1871L425.92 83.3699C426.203 83.3699 426.392 83.6551 426.392 83.9403C426.298 84.2255 426.109 84.4156 425.826 84.4156Z" fill="#141516"/>
<path d="M421.576 86.1268L384.933 82.3243C384.65 82.3243 384.461 82.0391 384.461 81.7539C384.461 81.4687 384.744 81.2786 385.028 81.2786L421.67 85.0811C421.953 85.0811 422.142 85.3663 422.142 85.6514C422.142 86.0317 421.859 86.2218 421.576 86.1268Z" fill="#141516"/>
<path d="M380.495 92.4009L377.378 92.1157C377.095 92.1157 376.812 91.8305 376.812 91.4502L377.095 88.3132C377.095 88.028 377.378 87.7428 377.756 87.7428L380.872 88.028C381.156 88.028 381.439 88.3132 381.439 88.6934L381.156 91.8305C381.156 92.2107 380.872 92.4009 380.495 92.4009Z" fill="#4143EC" stroke="#141516" stroke-miterlimit="10" stroke-linecap="round" stroke-linejoin="round"/>
<path d="M424.787 94.2071L384.083 90.0243C383.8 90.0243 383.611 89.7391 383.611 89.454C383.611 89.1688 383.894 88.9786 384.177 88.9786L424.881 93.1614C425.164 93.1614 425.353 93.4466 425.353 93.7318C425.353 94.017 425.07 94.2071 424.787 94.2071Z" fill="#141516"/>
<path d="M420.631 95.9183L383.989 92.1158C383.705 92.1158 383.517 91.8306 383.517 91.5454C383.517 91.2602 383.8 91.0701 384.083 91.0701L420.726 94.8726C421.009 94.8726 421.198 95.1578 421.198 95.4429C421.104 95.7281 420.82 95.9183 420.631 95.9183Z" fill="#141516"/>
<path d="M379.55 102.192L376.434 101.907C376.151 101.907 375.867 101.622 375.867 101.242L376.15 98.1046C376.15 97.8194 376.434 97.5342 376.812 97.5342L379.928 97.8194C380.211 97.8194 380.495 98.1046 380.495 98.4848L380.211 101.622C380.117 102.002 379.834 102.192 379.55 102.192Z" fill="#4143EC" stroke="#141516" stroke-miterlimit="10" stroke-linecap="round" stroke-linejoin="round"/>
<path d="M423.843 103.903L383.139 99.7206C382.856 99.7206 382.667 99.4354 382.667 99.1502C382.667 98.8651 382.95 98.6749 383.234 98.6749L423.937 102.858C424.22 102.858 424.409 103.143 424.409 103.428C424.315 103.713 424.032 103.998 423.843 103.903Z" fill="#141516"/>
<path d="M419.593 105.71L382.95 101.907C382.667 101.907 382.478 101.622 382.478 101.337C382.478 101.051 382.761 100.861 383.045 100.861L419.687 104.664C419.971 104.664 420.159 104.949 420.159 105.234C420.159 105.519 419.876 105.71 419.593 105.71Z" fill="#141516"/>
<path d="M378.511 111.889L375.395 111.603C375.111 111.603 374.828 111.318 374.828 110.938L375.111 107.801C375.111 107.516 375.395 107.231 375.773 107.231L378.889 107.516C379.172 107.516 379.456 107.801 379.456 108.181L379.172 111.318C379.172 111.699 378.889 111.984 378.511 111.889Z" fill="#EDEFF7" stroke="#141516" stroke-miterlimit="10"/>
<path d="M422.803 113.695L382.1 109.512C381.816 109.512 381.627 109.227 381.627 108.942C381.627 108.657 381.911 108.466 382.194 108.466L422.898 112.649C423.181 112.649 423.37 112.934 423.37 113.22C423.37 113.505 423.086 113.695 422.803 113.695Z" fill="#141516"/>
<path d="M418.648 115.501L382.005 111.699C381.722 111.699 381.533 111.413 381.533 111.128C381.533 110.843 381.817 110.653 382.1 110.653L418.742 114.455C419.026 114.455 419.215 114.741 419.215 115.026C419.12 115.311 418.837 115.501 418.648 115.501Z" fill="#141516"/>
<path d="M377.567 121.68L374.45 121.395C374.167 121.395 373.884 121.11 373.884 120.729L374.167 117.592C374.167 117.307 374.45 117.022 374.828 117.022L377.945 117.307C378.228 117.307 378.511 117.592 378.511 117.973L378.228 121.11C378.134 121.49 377.85 121.68 377.567 121.68Z" fill="white" stroke="#141516" stroke-miterlimit="10" stroke-linecap="round" stroke-linejoin="round"/>
<path d="M421.765 123.486L381.061 119.304C380.778 119.304 380.589 119.018 380.589 118.733C380.589 118.448 380.872 118.258 381.156 118.258L421.859 122.441C422.142 122.441 422.331 122.726 422.331 123.011C422.331 123.296 422.048 123.486 421.765 123.486Z" fill="#141516"/>
<path d="M417.609 125.197L380.967 121.395C380.684 121.395 380.495 121.11 380.495 120.825C380.495 120.539 380.778 120.349 381.061 120.349L417.704 124.152C417.987 124.152 418.176 124.437 418.176 124.722C418.082 125.102 417.893 125.292 417.609 125.197Z" fill="#141516"/>
</g>
<mask id="mask10_2385_314" style="mask-type:luminance" maskUnits="userSpaceOnUse" x="276" y="21" width="174" height="229">
<path d="M449.813 37.5497L436.497 168.641L428.281 249.254L313.631 237.466L291.249 235.185L276.989 233.664L289.644 109.227L298.521 21.9595L449.813 37.5497Z" fill="white"/>
</mask>
<g mask="url(#mask10_2385_314)">
<path d="M403.718 194.94L406.067 195.183L407.425 181.849L405.076 181.606L403.718 194.94Z" fill="#4143EC" stroke="#141516" stroke-miterlimit="10" stroke-linecap="round" stroke-linejoin="round"/>
<path d="M403.944 192.991L406.292 193.234L406.937 186.897L404.589 186.655L403.944 192.991Z" fill="#B5CEEE" stroke="#141516" stroke-miterlimit="10"/>
<path d="M409.274 192.148L411.623 192.39L412.98 179.056L410.631 178.814L409.274 192.148Z" fill="#4143EC" stroke="#141516" stroke-miterlimit="10" stroke-linecap="round" stroke-linejoin="round"/>
<path d="M410.293 182.323L409.647 188.659L411.996 188.902L412.642 182.566L410.293 182.323Z" fill="#B5CEEE" stroke="#141516" stroke-miterlimit="10"/>
<path d="M414.194 195.306L416.543 195.548L417.9 182.214L415.551 181.972L414.194 195.306Z" fill="#4143EC" stroke="#141516" stroke-miterlimit="10" stroke-linecap="round" stroke-linejoin="round"/>
<path d="M414.778 190.223L417.126 190.465L417.772 184.129L415.423 183.887L414.778 190.223Z" fill="#B5CEEE" stroke="#141516" stroke-miterlimit="10"/>
<path d="M398.708 191.81L401.057 192.052L402.415 178.718L400.067 178.476L398.708 191.81Z" fill="#4143EC" stroke="#141516" stroke-miterlimit="10" stroke-linecap="round" stroke-linejoin="round"/>
<path d="M398.944 189.766L401.292 190.008L401.937 183.672L399.589 183.43L398.944 189.766Z" fill="#B5CEEE" stroke="#141516" stroke-miterlimit="10"/>
<path d="M393.109 195.24L395.458 195.482L396.815 182.148L394.466 181.906L393.109 195.24Z" fill="#4143EC" stroke="#141516" stroke-miterlimit="10" stroke-linecap="round" stroke-linejoin="round"/>
<path d="M393.259 193.678L395.608 193.921L396.253 187.585L393.905 187.342L393.259 193.678Z" fill="#B5CEEE" stroke="#141516" stroke-miterlimit="10"/>
<path d="M388.27 191.257L390.619 191.5L391.976 178.165L389.627 177.923L388.27 191.257Z" fill="#4143EC" stroke="#141516" stroke-miterlimit="10" stroke-linecap="round" stroke-linejoin="round"/>
<path d="M388.303 190.758L390.651 191.001L391.297 184.665L388.948 184.422L388.303 190.758Z" fill="#B5CEEE" stroke="#141516" stroke-miterlimit="10"/>
<path d="M382.261 197.658L384.61 197.901L385.968 184.566L383.619 184.324L382.261 197.658Z" fill="#4143EC" stroke="#141516" stroke-miterlimit="10" stroke-linecap="round" stroke-linejoin="round"/>
<path d="M382.38 197.188L384.729 197.431L385.374 191.095L383.025 190.852L382.38 197.188Z" fill="#B5CEEE" stroke="#141516" stroke-miterlimit="10"/>
<path d="M377.952 188.715L380.301 188.957L381.658 175.623L379.309 175.381L377.952 188.715Z" fill="#4143EC" stroke="#141516" stroke-miterlimit="10" stroke-linecap="round" stroke-linejoin="round"/>
<path d="M378.094 186.734L380.442 186.976L381.087 180.64L378.738 180.398L378.094 186.734Z" fill="#B5CEEE" stroke="#141516" stroke-miterlimit="10"/>
<path d="M372.767 187.383L375.115 187.625L376.473 174.291L374.125 174.049L372.767 187.383Z" fill="#4143EC" stroke="#141516" stroke-miterlimit="10" stroke-linecap="round" stroke-linejoin="round"/>
<path d="M373.321 182.438L375.67 182.68L376.315 176.344L373.966 176.102L373.321 182.438Z" fill="#B5CEEE" stroke="#141516" stroke-miterlimit="10"/>
<path d="M366.731 195.306L369.08 195.548L370.436 182.214L368.088 181.972L366.731 195.306Z" fill="#4143EC" stroke="#141516" stroke-miterlimit="10" stroke-linecap="round" stroke-linejoin="round"/>
<path d="M367.22 189.703L369.569 189.945L370.214 183.609L367.865 183.367L367.22 189.703Z" fill="#B5CEEE" stroke="#141516" stroke-miterlimit="10"/>
<path d="M362.106 188.852L364.455 189.094L365.811 175.76L363.463 175.518L362.106 188.852Z" fill="#4143EC" stroke="#141516" stroke-miterlimit="10" stroke-linecap="round" stroke-linejoin="round"/>
<path d="M362.351 186.347L364.699 186.589L365.344 180.253L362.995 180.011L362.351 186.347Z" fill="#B5CEEE" stroke="#141516" stroke-miterlimit="10"/>
<path d="M356.523 191.78L358.872 192.023L360.23 178.688L357.882 178.446L356.523 191.78Z" fill="#4143EC" stroke="#141516" stroke-miterlimit="10" stroke-linecap="round" stroke-linejoin="round"/>
<path d="M356.655 189.819L359.003 190.061L359.648 183.725L357.299 183.483L356.655 189.819Z" fill="#B5CEEE" stroke="#141516" stroke-miterlimit="10"/>
<path d="M350.702 197.282L353.05 197.524L354.409 184.19L352.06 183.948L350.702 197.282Z" fill="#4143EC" stroke="#141516" stroke-miterlimit="10" stroke-linecap="round" stroke-linejoin="round"/>
<path d="M350.62 197.253L352.968 197.495L353.613 191.159L351.264 190.917L350.62 197.253Z" fill="#B5CEEE" stroke="#141516" stroke-miterlimit="10"/>
<path d="M346.313 188.232L348.662 188.474L350.019 175.14L347.67 174.898L346.313 188.232Z" fill="#4143EC" stroke="#141516" stroke-miterlimit="10" stroke-linecap="round" stroke-linejoin="round"/>
<path d="M346.442 186.788L348.791 187.03L349.436 180.694L347.087 180.452L346.442 186.788Z" fill="#B5CEEE" stroke="#141516" stroke-miterlimit="10"/>
<path d="M341.687 181.857L344.036 182.099L345.394 168.765L343.045 168.523L341.687 181.857Z" fill="#4143EC" stroke="#141516" stroke-miterlimit="10" stroke-linecap="round" stroke-linejoin="round"/>
<path d="M341.816 180.336L344.165 180.578L344.81 174.242L342.461 174L341.816 180.336Z" fill="#B5CEEE" stroke="#141516" stroke-miterlimit="10"/>
<path d="M335.737 188.382L338.086 188.624L339.443 175.29L337.094 175.047L335.737 188.382Z" fill="#4143EC" stroke="#141516" stroke-miterlimit="10" stroke-linecap="round" stroke-linejoin="round"/>
<path d="M336.226 183.294L338.575 183.537L339.221 177.201L336.872 176.958L336.226 183.294Z" fill="#B5CEEE" stroke="#141516" stroke-miterlimit="10"/>
<path d="M329.699 195.369L332.047 195.611L333.404 182.277L331.056 182.035L329.699 195.369Z" fill="#4143EC" stroke="#141516" stroke-miterlimit="10" stroke-linecap="round" stroke-linejoin="round"/>
<path d="M330.378 189.343L332.727 189.585L333.372 183.249L331.023 183.007L330.378 189.343Z" fill="#B5CEEE" stroke="#141516" stroke-miterlimit="10"/>
<path d="M325.224 187.264L327.572 187.506L328.929 174.172L326.58 173.93L325.224 187.264Z" fill="#4143EC" stroke="#141516" stroke-miterlimit="10" stroke-linecap="round" stroke-linejoin="round"/>
<path d="M325.468 185.277L327.816 185.519L328.462 179.183L326.113 178.941L325.468 185.277Z" fill="#B5CEEE" stroke="#141516" stroke-miterlimit="10"/>
<path d="M320.239 184.48L322.588 184.723L323.946 171.388L321.597 171.146L320.239 184.48Z" fill="#4143EC" stroke="#141516" stroke-miterlimit="10" stroke-linecap="round" stroke-linejoin="round"/>
<path d="M320.804 178.998L323.153 179.24L323.798 172.904L321.449 172.662L320.804 178.998Z" fill="#B5CEEE" stroke="#141516" stroke-miterlimit="10"/>
<path d="M314.602 188.127L316.951 188.369L318.309 175.035L315.96 174.793L314.602 188.127Z" fill="#4143EC" stroke="#141516" stroke-miterlimit="10" stroke-linecap="round" stroke-linejoin="round"/>
<path d="M314.606 188.199L316.955 188.441L317.599 182.105L315.251 181.863L314.606 188.199Z" fill="#B5CEEE" stroke="#141516" stroke-miterlimit="10"/>
<path d="M309.801 183.484L312.15 183.726L313.507 170.392L311.158 170.149L309.801 183.484Z" fill="#4143EC" stroke="#141516" stroke-miterlimit="10" stroke-linecap="round" stroke-linejoin="round"/>
<path d="M309.939 182.464L312.288 182.706L312.933 176.37L310.584 176.127L309.939 182.464Z" fill="#B5CEEE" stroke="#141516" stroke-miterlimit="10"/>
<path d="M304.371 184.677L306.72 184.919L308.077 171.585L305.728 171.343L304.371 184.677Z" fill="#4143EC" stroke="#141516" stroke-miterlimit="10" stroke-linecap="round" stroke-linejoin="round"/>
<path d="M304.489 184.208L306.837 184.45L307.482 178.114L305.133 177.872L304.489 184.208Z" fill="#B5CEEE" stroke="#141516" stroke-miterlimit="10"/>
<path d="M299.365 182.452L301.714 182.695L303.071 169.36L300.722 169.118L299.365 182.452Z" fill="#4143EC" stroke="#141516" stroke-miterlimit="10" stroke-linecap="round" stroke-linejoin="round"/>
<path d="M300.056 175.891L302.405 176.134L303.05 169.798L300.701 169.555L300.056 175.891Z" fill="#B5CEEE" stroke="#141516" stroke-miterlimit="10"/>
</g>
<mask id="mask11_2385_314" style="mask-type:luminance" maskUnits="userSpaceOnUse" x="276" y="21" width="174" height="229">
<path d="M449.813 37.5497L436.497 168.641L428.281 249.254L313.631 237.466L291.249 235.185L276.989 233.664L289.644 109.227L298.521 21.9595L449.813 37.5497Z" fill="white"/>
</mask>
<g mask="url(#mask11_2385_314)">
<path d="M417.987 211.419L312.026 200.487C311.459 200.392 310.893 200.867 310.798 201.533C310.704 202.103 311.176 202.674 311.837 202.769L417.798 213.701C418.365 213.796 418.932 213.321 419.026 212.655C419.12 211.99 418.554 211.419 417.987 211.419Z" fill="#141516"/>
<path d="M417.137 219.405L293.894 206.666C293.327 206.571 292.76 207.046 292.666 207.712C292.571 208.282 293.044 208.853 293.705 208.948L416.948 221.686C417.515 221.781 418.082 221.306 418.176 220.64C418.176 220.07 417.798 219.5 417.137 219.405Z" fill="#141516"/>
<path d="M364.534 222.162L293.043 214.747C292.477 214.652 291.91 215.127 291.816 215.792C291.721 216.363 292.193 216.933 292.855 217.028L364.345 224.443C364.912 224.538 365.479 224.063 365.573 223.397C365.668 222.732 365.195 222.162 364.534 222.162Z" fill="#141516"/>
</g>
<mask id="mask12_2385_314" style="mask-type:luminance" maskUnits="userSpaceOnUse" x="276" y="21" width="174" height="229">
<path d="M449.813 37.5497L436.497 168.641L428.281 249.254L313.631 237.466L291.249 235.185L276.989 233.664L289.644 109.227L298.521 21.9595L449.813 37.5497Z" fill="white"/>
</mask>
<g mask="url(#mask12_2385_314)">
<path opacity="0.2" d="M429.697 150.389C426.014 150.104 424.787 155.998 424.787 155.998C424.787 155.998 419.026 148.393 419.97 130.426C419.97 130.426 417.137 122.441 409.582 127.289C402.027 132.137 394.188 148.963 396.077 167.405L381.344 118.258C376.245 119.304 365.951 126.243 368.689 159.42L352.635 142.309C352.635 142.309 348.29 140.883 345.835 144.78C343.38 148.678 344.513 176.341 346.591 186.703C348.668 197.065 343.474 217.884 343.474 217.884C343.474 217.884 337.902 194.308 327.892 188.319L289.738 109.132L277.083 233.569L291.343 234.995L314.292 223.777C314.198 229.006 314.009 233.759 313.631 237.276L428.281 249.064L436.497 168.451C433.664 158.565 431.02 150.484 429.697 150.389Z" fill="#8C8F9D"/>
</g>
<path d="M449.813 37.5497L436.497 168.641L428.281 249.254L313.631 237.466L291.249 235.185L276.989 233.664L289.644 109.227L298.521 21.9595L449.813 37.5497Z" stroke="#141516" stroke-miterlimit="10" stroke-linecap="round" stroke-linejoin="round"/>
<path d="M447.925 375.022L380.872 386.525C380.872 386.525 369.162 324.164 362.268 314.277C355.279 304.391 356.601 300.398 353.202 293.744C351.124 289.751 340.924 282.241 332.897 274.921C332.236 274.256 331.48 273.685 330.914 273.02C330.631 272.735 330.347 272.45 330.064 272.259C329.025 271.214 327.986 270.168 327.136 269.122C326.853 268.742 326.475 268.362 326.192 268.077C324.492 265.985 323.359 264.084 322.981 262.278C322.981 262.183 322.981 262.088 322.886 261.993C322.886 261.898 322.886 261.803 322.792 261.612C322.603 260.187 322.414 258.475 322.225 256.669C322.225 256.289 322.131 255.909 322.131 255.528C322.131 255.338 322.131 255.243 322.037 255.053C321.848 253.532 321.659 251.916 321.47 250.205C321.281 248.494 320.998 246.688 320.809 244.881C320.714 244.216 320.62 243.646 320.525 242.98C320.431 242.315 320.337 241.554 320.148 240.889C320.053 240.318 319.959 239.653 319.864 239.083C319.864 238.988 319.864 238.893 319.77 238.797C319.676 238.037 319.487 237.371 319.392 236.706C319.392 236.611 319.392 236.516 319.298 236.516C319.203 235.946 319.014 235.28 318.92 234.71C318.637 233.284 318.259 231.953 317.976 230.717C317.22 228.055 316.465 225.679 315.52 223.492C310.704 212.655 316.937 216.553 313.159 188.604C313.159 188.604 315.992 182.14 323.925 187.273C324.586 187.654 325.153 188.129 325.72 188.604C327.325 189.935 328.742 191.456 329.969 193.167C331.575 195.354 332.803 197.921 333.653 200.772C334.88 204.955 335.352 209.518 334.691 214.366C334.691 214.366 340.641 234.995 343.758 239.653C346.874 244.311 359.907 217.408 359.057 214.271C358.868 213.606 358.679 212.085 358.396 209.993C358.301 209.518 358.301 209.043 358.207 208.472C358.112 207.902 358.112 207.427 358.018 206.856C358.018 206.571 357.924 206.286 357.924 206.001C357.924 205.906 357.924 205.811 357.924 205.621C357.829 204.575 357.64 203.434 357.546 202.198C357.546 201.818 357.451 201.533 357.451 201.248C357.357 200.677 357.357 200.107 357.262 199.537C357.262 199.441 357.262 199.346 357.262 199.251C357.262 198.966 357.168 198.586 357.168 198.206C357.074 197.54 357.074 196.875 356.979 196.209C356.885 195.639 356.885 195.069 356.79 194.498C356.696 193.358 356.601 192.312 356.507 191.266C356.413 190.506 356.318 189.65 356.318 188.985C356.318 188.794 356.318 188.604 356.318 188.509C355.94 184.327 355.563 180.904 355.468 179.383C355.468 179.383 346.024 165.314 345.08 158.66C344.135 152.005 344.23 145.066 348.102 142.214C357.451 135.464 354.713 146.301 358.962 150.769C363.118 155.237 369.54 162.557 373.223 164.839C376.623 167.025 379.55 175.296 380.022 176.531C379.55 174.725 374.734 156.758 374.639 153.146C374.545 149.344 371.617 129.19 376.528 121.965C381.439 114.741 387.955 120.349 388.616 121.775C389.183 123.201 389.372 142.689 391.166 148.108C392.866 153.526 400.138 176.151 400.138 176.151C400.138 176.151 400.421 154.192 402.121 144.305C403.727 134.514 407.977 126.814 412.132 126.338C416.287 125.863 420.159 130.521 420.159 130.521C420.159 130.521 418.554 146.206 419.026 149.819C419.498 153.431 418.365 166.55 420.348 173.584C420.348 173.584 420.159 154.857 422.992 152.481C425.92 150.104 428.376 148.963 429.981 150.579C431.586 152.195 431.964 163.318 433.57 169.972C435.27 176.626 434.986 185.752 436.12 196.114C437.253 206.476 441.503 220.926 440.653 229.196C439.803 237.467 437.158 257.905 435.081 269.978C433.003 282.051 427.62 298.497 427.62 298.497C427.62 298.497 430.075 307.243 429.603 315.133C428.753 322.833 447.925 375.022 447.925 375.022Z" fill="white"/>
<path opacity="0.4" d="M390.977 148.013C392.299 152.005 396.549 165.409 398.721 172.158C398.721 172.158 389.372 179.098 389.561 185.562C389.844 192.027 387.861 205.05 383.611 204.67C379.456 204.29 379.739 177.197 378.417 172.729C379.267 174.725 379.833 176.246 379.928 176.626C379.644 175.486 374.639 156.853 374.545 153.146C374.545 152.29 374.356 150.579 374.167 148.298C374.167 148.298 383.517 139.362 390.316 144.78C390.505 146.016 390.694 147.157 390.977 148.013Z" fill="#B5CEEE"/>
<path opacity="0.4" d="M418.837 155.713C414.493 159.895 407.882 167.215 407.032 174.345C407.032 174.345 409.488 194.213 408.449 202.769L399.949 175.961C399.949 175.961 400.233 154.001 401.932 144.115C401.932 143.83 402.027 143.545 402.121 143.259C406.277 141.073 412.037 139.172 419.215 139.077C418.932 143.354 418.648 147.822 418.837 149.629C418.837 150.864 418.837 153.051 418.837 155.713Z" fill="#B5CEEE"/>
<path opacity="0.4" d="M422.709 152.29C422.615 152.29 422.615 152.385 422.709 152.29C422.615 152.385 422.331 152.576 421.954 152.956C422.142 152.48 422.426 152.1 422.709 151.72V152.29Z" fill="#B5CEEE"/>
<path opacity="0.4" d="M424.881 207.141C424.881 207.141 419.309 185.942 419.215 168.926C419.215 162.652 419.876 156.853 421.954 152.956C422.142 152.48 422.426 152.1 422.709 151.72V152.29C423.937 151.34 425.07 150.484 426.015 150.104C424.409 152.576 422.615 157.424 424.692 165.314C427.998 177.577 425.165 192.597 424.881 207.141Z" fill="#B5CEEE"/>
<path opacity="0.4" d="M347.535 247.543C347.535 247.543 349.046 267.696 332.897 274.921C332.236 274.256 331.48 273.685 330.914 273.02C330.63 272.735 330.347 272.449 330.064 272.259C329.025 271.214 327.986 270.168 327.136 269.122C326.853 268.742 326.475 268.362 326.192 268.077C324.492 265.985 323.358 264.084 322.981 262.278C322.981 262.183 322.886 262.088 322.886 261.993C322.886 261.898 322.886 261.707 322.792 261.612C322.603 260.186 322.414 258.475 322.225 256.669C322.225 256.289 322.131 255.909 322.131 255.528C322.131 255.338 322.131 255.243 322.036 255.053C321.847 253.532 321.659 251.916 321.47 250.205C321.281 248.494 320.997 246.688 320.809 244.881C320.714 244.216 320.62 243.646 320.525 242.98C320.431 242.315 320.336 241.554 320.148 240.889C320.053 240.318 319.959 239.653 319.864 239.083C319.864 238.987 319.864 238.892 319.77 238.797C319.675 238.132 319.486 237.371 319.392 236.706C319.392 236.611 319.392 236.516 319.392 236.421C319.298 235.755 319.109 235.185 319.014 234.615C318.731 233.284 318.353 231.858 318.07 230.527C324.492 224.348 339.13 228.245 332.047 213.891C332.047 213.891 335.636 201.628 325.719 188.414C332.519 193.928 335.919 203.529 334.691 214.081C334.691 214.081 340.641 234.71 343.757 239.368C346.874 244.026 359.907 217.123 359.057 213.986C358.868 213.321 358.679 211.8 358.396 209.708C358.301 209.233 358.301 208.758 358.207 208.187C358.112 207.712 358.112 207.141 358.018 206.571C358.018 206.286 357.923 206.001 357.923 205.716C357.923 205.62 357.923 205.525 357.923 205.335C357.829 204.29 357.64 203.149 357.546 201.913C357.546 201.628 357.451 201.248 357.451 200.962C357.357 200.392 357.357 199.822 357.262 199.251C357.262 199.156 357.262 199.061 357.262 198.966C357.262 198.681 357.168 198.301 357.168 197.92C357.073 197.255 357.073 196.59 356.979 195.924C356.885 195.354 356.885 194.783 356.79 194.213C356.696 193.167 356.601 192.026 356.507 190.981C356.412 190.22 356.318 189.365 356.318 188.699C356.318 188.509 356.318 188.319 356.318 188.224C356.601 189.46 361.323 212.37 364.062 217.788C366.801 223.302 354.901 252.296 347.535 247.543Z" fill="#B5CEEE"/>
<path opacity="0.4" d="M434.797 269.788C432.719 281.861 427.336 298.307 427.336 298.307C427.336 298.307 429.792 307.147 429.32 314.942C429.225 317.034 430.453 322.357 432.436 329.012C431.869 327.586 425.825 311.805 425.92 306.387C426.014 300.683 424.409 299.067 421.198 292.032C417.987 284.998 413.17 285.758 413.17 285.758C413.17 285.758 411.282 303.345 406.937 291.842C402.499 280.245 401.649 266.746 412.793 219.975C412.793 219.975 414.493 225.869 413.076 243.265C411.659 260.662 415.815 265.985 415.815 265.985C415.815 265.985 424.787 251.155 430.547 231.382C430.547 231.382 429.131 251.726 427.809 260.947C426.486 270.168 432.342 250.205 436.403 237.847C440.18 226.249 440.369 221.876 438.952 213.606C439.991 219.405 440.841 224.918 440.463 229.006C439.519 237.276 436.875 257.81 434.797 269.788Z" fill="#B5CEEE"/>
<path opacity="0.4" d="M358.962 309.049C362.268 314.277 370.201 321.217 375.017 340.324C379.739 359.432 376.811 380.346 376.811 380.346L358.962 309.049Z" fill="#B5CEEE"/>
<path opacity="0.2" d="M333.558 200.487C333.558 200.487 316.842 209.043 315.52 223.302C310.704 212.465 316.937 216.363 313.159 188.414C313.159 188.414 315.992 181.95 323.925 187.083C324.586 187.464 325.153 187.939 325.72 188.414C327.325 189.745 328.742 191.266 329.969 192.977L333.558 200.487Z" fill="#8C8F9D"/>
<path d="M380.872 386.525C380.872 386.525 369.162 324.069 362.268 314.277C355.279 304.486 356.601 300.398 353.201 293.744C349.802 287.089 324.02 271.024 322.886 261.612C321.753 252.201 320.431 234.139 315.614 223.302C310.798 212.465 317.031 216.363 313.253 188.414C313.253 188.414 316.087 181.95 324.02 187.083C331.952 192.217 336.108 202.579 334.786 214.081C334.786 214.081 340.735 234.615 343.946 239.368C347.063 244.026 360.095 217.123 359.246 213.986C358.396 210.849 355.94 184.041 355.562 179.193C355.562 179.193 346.118 165.124 345.174 158.469C344.23 151.815 344.324 144.876 348.196 142.024C357.546 135.274 354.807 146.111 359.057 150.579C363.212 155.047 369.728 162.367 373.317 164.649C377 166.93 380.117 176.531 380.117 176.531C380.117 176.531 374.828 156.853 374.639 152.956C374.545 149.153 371.617 129 376.528 121.87C381.439 114.646 387.955 120.254 388.616 121.68C389.183 123.106 389.372 142.594 391.166 148.013C392.866 153.431 400.138 176.056 400.138 176.056C400.138 176.056 400.421 154.097 402.121 144.21C403.727 134.419 407.976 126.719 412.132 126.243C416.287 125.768 420.159 130.426 420.159 130.426C420.159 130.426 418.554 146.111 419.026 149.724C419.498 153.336 418.365 166.455 420.348 173.489C420.348 173.489 420.159 154.762 422.992 152.385C425.92 150.009 428.375 148.868 429.981 150.484C431.586 152.1 431.964 163.223 433.57 169.877C435.269 176.531 434.986 185.657 436.119 196.019C437.158 206.381 441.502 220.926 440.653 229.101C439.803 237.371 437.158 257.81 435.081 269.883C433.003 281.956 427.62 298.402 427.62 298.402C427.62 298.402 430.075 307.147 429.603 315.038C429.131 322.833 448.302 375.117 448.302 375.117" stroke="#141516" stroke-miterlimit="10" stroke-linecap="round" stroke-linejoin="round"/>
<path d="M399.949 176.056C401.932 180.714 406.749 200.202 408.449 202.864C410.149 205.525 412.132 206.381 412.132 206.381" stroke="#141516" stroke-miterlimit="10" stroke-linecap="round" stroke-linejoin="round"/>
<path d="M419.97 173.489C419.97 173.489 419.592 177.482 421.67 190.22C423.842 202.959 424.881 208.377 426.109 211.229" stroke="#141516" stroke-miterlimit="10" stroke-linecap="round" stroke-linejoin="round"/>
<path d="M379.928 176.531C382.572 184.327 383.989 196.685 385.5 200.392C387.011 204.1 388.333 204.86 388.333 204.86" stroke="#141516" stroke-miterlimit="10" stroke-linecap="round" stroke-linejoin="round"/>
<path d="M384.178 195.164C384.178 195.164 386.917 197.255 387.766 199.727" stroke="#141516" stroke-miterlimit="10" stroke-linecap="round" stroke-linejoin="round"/>
<path d="M343.757 239.368C343.757 239.368 345.174 249.634 351.596 248.874" stroke="#141516" stroke-miterlimit="10" stroke-linecap="round" stroke-linejoin="round"/>
<path d="M359.057 213.986C359.057 213.986 360.757 226.249 358.018 231.383" stroke="#141516" stroke-miterlimit="10" stroke-linecap="round" stroke-linejoin="round"/>
<path d="M410.338 214.081C410.338 214.081 414.682 216.743 411.754 224.538C408.827 232.333 403.821 263.704 403.821 263.704" stroke="#141516" stroke-miterlimit="10" stroke-linecap="round" stroke-linejoin="round"/>
<path d="M429.036 222.257C430.831 229.291 431.02 229.481 428.092 238.132C425.164 246.783 420.442 267.982 420.442 267.982" stroke="#141516" stroke-miterlimit="10" stroke-linecap="round" stroke-linejoin="round"/>
<path d="M427.242 298.306C427.242 298.306 424.409 292.603 426.77 287.85" stroke="#141516" stroke-miterlimit="10" stroke-linecap="round" stroke-linejoin="round"/>
<path d="M362.268 314.277C362.268 314.277 369.351 324.354 372.467 335.571" stroke="#141516" stroke-miterlimit="10" stroke-linecap="round" stroke-linejoin="round"/>
<path d="M414.682 137.746L416.57 135.845L417.42 135.654V136.605L415.626 138.791L414.682 137.746Z" fill="#4143EC" stroke="#141516" stroke-miterlimit="10" stroke-linecap="round" stroke-linejoin="round"/>
<path d="M416.193 138.791L413.076 145.921L328.836 258.951L319.486 252.962L332.236 236.896L407.882 141.358L414.587 137.08C414.493 137.175 416.004 137.556 416.193 138.791Z" fill="#B5CEEE"/>
<mask id="mask13_2385_314" style="mask-type:luminance" maskUnits="userSpaceOnUse" x="319" y="137" width="98" height="122">
<path d="M416.193 138.791L413.076 145.921L328.836 258.951L319.486 252.962L332.236 236.896L407.882 141.358L414.587 137.08C414.493 137.175 416.004 137.556 416.193 138.791Z" fill="white"/>
</mask>
<g mask="url(#mask13_2385_314)">
<path opacity="0.3" d="M416.193 138.791L413.076 145.921L328.836 258.951L319.486 252.962L332.236 236.896C338.091 236.326 339.035 239.748 339.035 239.748L411.565 144.495C410.809 141.929 407.787 141.453 407.787 141.453L414.493 137.175C414.493 137.175 416.004 137.556 416.193 138.791Z" fill="#8C8F9D"/>
</g>
<path d="M416.193 138.791L413.076 145.921L328.836 258.951L319.486 252.962L332.236 236.896L407.882 141.358L414.587 137.08C414.493 137.175 416.004 137.556 416.193 138.791Z" stroke="#141516" stroke-miterlimit="10" stroke-linecap="round" stroke-linejoin="round"/>
<path d="M356.318 225.584C356.318 225.584 346.874 244.406 337.902 257.62L331.48 259.331C331.48 259.331 316.653 274.161 307.587 281.576C307.587 281.576 305.226 280.245 303.148 277.868C303.148 277.868 315.992 253.057 330.158 237.371C330.158 237.371 332.236 238.037 334.786 239.843C336.297 240.984 338.091 242.505 339.697 244.501L355.562 224.443L356.318 225.584Z" fill="#B5CEEE"/>
<mask id="mask14_2385_314" style="mask-type:luminance" maskUnits="userSpaceOnUse" x="303" y="224" width="54" height="58">
<path d="M356.318 225.584C356.318 225.584 346.874 244.406 337.902 257.62L331.48 259.331C331.48 259.331 316.653 274.161 307.587 281.576C307.587 281.576 305.226 280.245 303.148 277.868C303.148 277.868 315.992 253.057 330.158 237.371C330.158 237.371 332.236 238.037 334.786 239.843C336.297 240.984 338.091 242.505 339.697 244.501L355.562 224.443L356.318 225.584Z" fill="white"/>
</mask>
<g mask="url(#mask14_2385_314)">
<path opacity="0.3" d="M356.318 225.584C356.318 225.584 346.874 244.406 337.902 257.62L331.48 259.331C331.48 259.331 316.653 274.161 307.587 281.576L307.87 277.583C317.692 262.468 330.158 246.022 334.88 239.843C336.391 240.984 338.185 242.505 339.791 244.501L331.008 256.289L336.013 255.338L355.657 224.348L356.318 225.584Z" fill="#8C8F9D"/>
</g>
<path d="M356.318 225.584C356.318 225.584 346.874 244.406 337.902 257.62L331.48 259.331C331.48 259.331 316.653 274.161 307.587 281.576C307.587 281.576 305.226 280.245 303.148 277.868C303.148 277.868 315.992 253.057 330.158 237.371C330.158 237.371 332.236 238.037 334.786 239.843C336.297 240.984 338.091 242.505 339.697 244.501L355.562 224.443L356.318 225.584Z" stroke="#141516" stroke-miterlimit="10" stroke-linecap="round" stroke-linejoin="round"/>
<path d="M388.333 204.86L361.984 230.527L357.735 234.615C360.568 227.2 359.246 215.602 359.057 214.271C359.057 214.176 359.057 214.176 359.057 214.176C359.057 214.081 359.057 213.986 359.057 213.986C358.868 213.321 358.679 211.8 358.396 209.708C358.301 209.233 358.301 208.758 358.207 208.187C358.112 207.712 358.112 207.142 358.018 206.571C358.018 206.286 357.923 206.001 357.923 205.716C357.923 205.621 357.923 205.525 357.923 205.335C357.829 204.29 357.64 203.149 357.546 201.913C357.546 201.628 357.451 201.248 357.451 200.962C357.357 200.392 357.357 199.822 357.262 199.251C357.262 199.156 357.262 199.061 357.262 198.966C357.262 198.681 357.168 198.301 357.168 197.92C357.073 197.255 357.074 196.59 356.979 195.924C356.885 195.354 356.885 194.783 356.79 194.213C356.696 193.167 356.601 192.027 356.507 190.981C356.412 190.22 356.318 189.46 356.318 188.699C356.318 188.509 356.318 188.319 356.318 188.224C355.94 184.041 355.562 180.619 355.468 179.098C355.468 179.098 346.024 165.029 345.08 158.374C344.135 151.72 344.23 144.78 348.196 141.929C357.546 135.179 354.807 146.016 359.057 150.484C363.212 154.952 369.728 162.272 373.317 164.553C377 166.835 380.117 176.436 380.117 176.436C382.761 184.231 384.178 196.59 385.689 200.297C387.011 204.1 388.333 204.86 388.333 204.86Z" fill="white"/>
<path d="M384.178 195.164C384.178 195.164 386.917 197.255 387.766 199.727" stroke="#141516" stroke-miterlimit="10" stroke-linecap="round" stroke-linejoin="round"/>
<path opacity="0.4" d="M358.868 150.579C363.023 155.047 369.445 162.367 373.128 164.649C372.656 164.363 365.951 161.131 362.173 164.744C358.301 168.546 355.468 179.193 355.468 179.193C355.468 179.193 346.024 165.124 345.08 158.469C344.135 151.815 344.23 144.876 348.196 142.024C357.357 135.274 354.618 146.111 358.868 150.579Z" fill="#B5CEEE"/>
<path opacity="0.4" d="M362.078 230.527L357.829 234.615C360.662 227.2 359.34 215.602 359.151 214.271C359.151 214.176 359.151 214.081 359.151 213.986C358.962 213.321 358.773 211.8 358.49 209.708C358.395 209.233 358.395 208.758 358.301 208.187C358.206 207.712 358.206 207.141 358.112 206.571C358.112 206.286 358.018 206.001 358.018 205.716C358.018 205.62 358.018 205.525 358.018 205.335C357.923 204.29 357.734 203.149 357.64 201.913C357.64 201.628 357.545 201.248 357.545 200.962C357.451 200.392 357.451 199.822 357.357 199.251C357.357 199.156 357.357 199.061 357.357 198.966C357.357 198.681 357.262 198.301 357.262 197.92C357.168 197.255 357.168 196.59 357.073 195.924C356.979 195.354 356.979 194.783 356.884 194.213C356.79 193.167 356.695 192.026 356.601 190.981C356.507 190.22 356.412 189.365 356.412 188.699C356.412 188.509 356.412 188.319 356.412 188.224C356.695 189.46 361.417 212.37 364.156 217.788C365.006 219.785 364.062 225.013 362.078 230.527Z" fill="#B5CEEE"/>
<path d="M388.333 204.86C388.333 204.86 387.011 204.1 385.5 200.392C383.989 196.685 382.572 184.327 379.928 176.531C379.928 176.531 376.717 167.025 373.128 164.649C369.445 162.367 363.023 155.047 358.868 150.579C354.712 146.111 357.451 135.274 348.007 142.024C344.041 144.876 343.946 151.815 344.985 158.469C345.929 165.124 355.373 179.193 355.373 179.193C355.751 184.041 358.301 210.849 359.057 213.986" stroke="#141516" stroke-miterlimit="10" stroke-linecap="round" stroke-linejoin="round"/>
<path d="M359.056 213.986C359.056 213.986 360.756 226.249 358.018 231.383" stroke="#141516" stroke-miterlimit="10" stroke-linecap="round" stroke-linejoin="round"/>
<path opacity="0.2" d="M161.736 228.911C161.736 228.911 167.685 256.859 154.747 277.203C141.809 297.546 131.798 302.965 127.36 309.049C122.921 315.133 105.355 349.07 105.355 349.07L84.8618 287.945L105.355 212.37L161.736 228.911Z" fill="#8C8F9D"/>
<path d="M282.524 207.522L155.408 261.422L142.375 266.936L117.632 207.902L60.3071 70.8216L200.55 11.4075L282.524 207.522Z" fill="white"/>
<mask id="mask15_2385_314" style="mask-type:luminance" maskUnits="userSpaceOnUse" x="60" y="11" width="223" height="256">
<path d="M282.524 207.522L155.408 261.422L142.375 266.936L117.632 207.902L60.3071 70.8216L200.55 11.4075L282.524 207.522Z" fill="white"/>
</mask>
<g mask="url(#mask15_2385_314)">
<path d="M164.285 36.8843L103.749 62.5512C102.616 63.0265 102.049 64.3574 102.521 65.4981C102.994 66.6389 104.316 67.2093 105.449 66.734L165.985 41.067C167.118 40.5917 167.685 39.2609 167.213 38.1201C166.74 36.9794 165.418 36.409 164.285 36.8843Z" fill="#141516"/>
</g>
<mask id="mask16_2385_314" style="mask-type:luminance" maskUnits="userSpaceOnUse" x="60" y="11" width="223" height="256">
<path d="M282.524 207.522L155.408 261.422L142.375 266.936L117.632 207.902L60.3071 70.8216L200.55 11.4075L282.524 207.522Z" fill="white"/>
</mask>
<g mask="url(#mask16_2385_314)">
<path d="M152.764 51.8091L122.543 64.6425C121.976 64.9277 121.693 65.4981 121.976 66.0685C122.26 66.6388 122.826 66.924 123.393 66.6388L153.614 53.8054C154.18 53.5202 154.464 52.9498 154.18 52.3794C153.991 51.9041 153.33 51.6189 152.764 51.8091Z" fill="#141516"/>
</g>
<mask id="mask17_2385_314" style="mask-type:luminance" maskUnits="userSpaceOnUse" x="60" y="11" width="223" height="256">
<path d="M282.524 207.522L155.408 261.422L142.375 266.936L117.632 207.902L60.3071 70.8216L200.55 11.4075L282.524 207.522Z" fill="white"/>
</mask>
<g mask="url(#mask17_2385_314)">
<path d="M202.534 129.951C202.534 129.951 203.856 140.027 200.078 141.643C196.678 143.069 192.145 137.651 188.273 139.362C184.307 140.978 187.423 155.332 183.646 156.948C179.868 158.564 175.335 152.671 172.03 154.096C168.724 155.522 170.707 162.842 167.402 164.268C164.663 165.409 160.697 159.61 157.486 158.279C156.825 157.994 156.164 157.899 155.597 158.184C152.292 159.61 153.897 174.915 151.064 176.151C150.12 176.531 149.27 176.626 148.514 176.531C147.381 176.436 146.342 176.151 145.303 176.246C144.925 176.246 144.548 176.341 144.076 176.531C141.62 177.577 141.998 185.657 139.731 186.608C137.465 187.559 135.293 186.418 132.932 187.368C130.571 188.414 130.571 192.597 126.982 194.118L128.493 197.73L215.472 160.846" fill="#EDEFF7"/>
<path d="M202.534 129.951C202.534 129.951 203.856 140.027 200.078 141.643C196.678 143.069 192.145 137.651 188.273 139.362C184.307 140.978 187.423 155.332 183.646 156.948C179.868 158.564 175.335 152.671 172.03 154.096C168.724 155.522 170.707 162.842 167.402 164.268C164.663 165.409 160.697 159.61 157.486 158.279C156.825 157.994 156.164 157.899 155.597 158.184C152.292 159.61 153.897 174.915 151.064 176.151C150.12 176.531 149.27 176.626 148.514 176.531C147.381 176.436 146.342 176.151 145.303 176.246C144.925 176.246 144.548 176.341 144.076 176.531C141.62 177.577 141.998 185.657 139.731 186.608C137.465 187.559 135.293 186.418 132.932 187.368C130.571 188.414 130.571 192.597 126.982 194.118L128.493 197.73L215.472 160.846" stroke="#141516" stroke-miterlimit="10"/>
<path d="M110.833 155.522L128.398 197.635L219.533 159.135" stroke="#141516" stroke-miterlimit="10" stroke-linecap="round" stroke-linejoin="round"/>
<path d="M209.522 146.682C209.522 146.682 209.05 146.111 208.483 145.541C207.35 144.495 205.556 143.069 204.234 143.64C202.911 144.21 202.817 146.396 202.817 148.773C202.817 151.625 203.1 154.762 201.684 155.332C200.456 155.808 199.323 155.047 198.189 154.192C196.867 153.241 195.545 152.195 193.94 152.861C191.295 154.001 192.051 157.519 191.106 160.561C190.634 162.082 189.69 163.508 187.612 164.363C185.251 165.314 182.985 164.363 180.718 162.842C176.94 160.276 173.635 156.093 171.463 157.043C167.969 158.469 171.841 167.976 168.063 169.497C165.986 170.352 161.641 163.793 157.486 158.089C154.181 153.621 150.97 149.724 148.986 150.484C144.453 152.385 151.914 174.915 148.609 176.341H148.514C147.192 176.912 146.153 176.531 145.303 176.056C144.17 175.391 143.131 174.44 141.903 175.01C139.542 176.056 140.865 184.897 138.22 186.038C135.576 187.178 133.97 185.562 131.043 186.798C128.493 187.844 126.982 194.023 126.982 194.023L128.493 197.635L215.472 160.751" fill="#4143EC"/>
<path d="M209.522 146.682C209.522 146.682 209.05 146.111 208.483 145.541C207.35 144.495 205.556 143.069 204.234 143.64C202.911 144.21 202.817 146.396 202.817 148.773C202.817 151.625 203.1 154.762 201.684 155.332C200.456 155.808 199.323 155.047 198.189 154.192C196.867 153.241 195.545 152.195 193.94 152.861C191.295 154.001 192.051 157.519 191.106 160.561C190.634 162.082 189.69 163.508 187.612 164.363C185.251 165.314 182.985 164.363 180.718 162.842C176.94 160.276 173.635 156.093 171.463 157.043C167.969 158.469 171.841 167.976 168.063 169.497C165.986 170.352 161.641 163.793 157.486 158.089C154.181 153.621 150.97 149.724 148.986 150.484C144.453 152.385 151.914 174.915 148.609 176.341H148.514C147.192 176.912 146.153 176.531 145.303 176.056C144.17 175.391 143.131 174.44 141.903 175.01C139.542 176.056 140.865 184.897 138.22 186.038C135.576 187.178 133.97 185.562 131.043 186.798C128.493 187.844 126.982 194.023 126.982 194.023L128.493 197.635L215.472 160.751" stroke="#141516" stroke-miterlimit="10" stroke-linecap="round" stroke-linejoin="round"/>
<path d="M191.106 176.721L160.885 189.555C160.319 189.84 160.035 190.41 160.319 190.981C160.602 191.551 161.169 191.836 161.735 191.551L191.956 178.718C192.523 178.433 192.806 177.862 192.523 177.292C192.334 176.721 191.673 176.531 191.106 176.721Z" fill="#141516"/>
<path d="M216.794 130.331L213.866 131.567C213.583 131.662 213.205 131.567 213.111 131.281L211.883 128.334C211.789 128.049 211.883 127.669 212.166 127.574L215.094 126.338C215.377 126.243 215.755 126.338 215.85 126.623L217.077 129.57C217.172 129.855 217.077 130.141 216.794 130.331Z" fill="#EDEFF7" stroke="#141516" stroke-miterlimit="10"/>
<path d="M230.865 121.3L218.777 126.433C218.494 126.528 218.21 126.433 218.116 126.148C218.022 125.863 218.116 125.578 218.399 125.483L230.488 120.349C230.771 120.254 231.054 120.349 231.149 120.634C231.243 120.92 231.149 121.205 230.865 121.3Z" fill="#141516"/>
<path d="M228.032 124.912L219.627 128.43C219.344 128.525 219.061 128.43 218.966 128.144C218.872 127.859 218.966 127.574 219.249 127.479L227.655 123.962C227.938 123.867 228.221 123.962 228.316 124.247C228.41 124.437 228.316 124.817 228.032 124.912Z" fill="#141516"/>
<path d="M220.572 139.362L217.644 140.598C217.361 140.693 216.983 140.598 216.889 140.312L215.661 137.365C215.566 137.08 215.661 136.7 215.944 136.605L218.872 135.369C219.155 135.274 219.533 135.369 219.627 135.654L220.855 138.601C220.95 138.886 220.855 139.267 220.572 139.362Z" fill="#4143EC" stroke="#141516" stroke-miterlimit="10" stroke-linecap="round" stroke-linejoin="round"/>
<path d="M234.643 130.331L222.555 135.464C222.272 135.559 221.988 135.464 221.894 135.179C221.799 134.894 221.894 134.609 222.177 134.514L234.265 129.38C234.549 129.285 234.832 129.38 234.926 129.665C235.021 129.951 234.926 130.236 234.643 130.331Z" fill="#141516"/>
<path d="M231.81 133.943L223.405 137.461C223.122 137.556 222.838 137.461 222.744 137.175C222.649 136.89 222.744 136.605 223.027 136.51L231.432 132.993C231.716 132.898 231.999 132.993 232.093 133.278C232.188 133.563 232.093 133.848 231.81 133.943Z" fill="#141516"/>
</g>
<mask id="mask18_2385_314" style="mask-type:luminance" maskUnits="userSpaceOnUse" x="60" y="11" width="223" height="256">
<path d="M282.524 207.522L155.408 261.422L142.375 266.936L117.632 207.902L60.3071 70.8216L200.55 11.4075L282.524 207.522Z" fill="white"/>
</mask>
<g mask="url(#mask18_2385_314)">
<path d="M250.508 167.69L152.291 209.328C151.724 209.613 151.441 210.183 151.724 210.754C152.008 211.324 152.574 211.609 153.141 211.324L251.358 169.687C251.925 169.402 252.208 168.831 251.925 168.261C251.736 167.69 251.075 167.405 250.508 167.69Z" fill="#141516"/>
<path d="M253.625 175.105L139.447 223.492C138.881 223.777 138.597 224.348 138.881 224.918C139.164 225.489 139.731 225.774 140.297 225.489L254.475 177.102C255.041 176.817 255.325 176.246 255.041 175.676C254.853 175.105 254.191 174.82 253.625 175.105Z" fill="#141516"/>
<path d="M256.742 182.52L142.564 230.907C141.997 231.192 141.714 231.763 141.997 232.333C142.281 232.903 142.847 233.189 143.414 232.903L257.591 184.517C258.158 184.231 258.441 183.661 258.158 183.091C257.969 182.52 257.308 182.33 256.742 182.52Z" fill="#141516"/>
<path d="M259.858 190.03L145.68 238.417C145.114 238.702 144.83 239.273 145.114 239.843C145.397 240.413 145.964 240.699 146.53 240.413L260.708 192.027C261.274 191.741 261.558 191.171 261.274 190.601C261.085 190.03 260.424 189.745 259.858 190.03Z" fill="#141516"/>
<path d="M214.999 217.788L148.797 245.832C148.23 246.117 147.947 246.687 148.23 247.258C148.514 247.828 149.08 248.113 149.647 247.828L215.849 219.785C216.416 219.5 216.699 218.929 216.416 218.359C216.227 217.788 215.566 217.503 214.999 217.788Z" fill="#141516"/>
</g>
<mask id="mask19_2385_314" style="mask-type:luminance" maskUnits="userSpaceOnUse" x="60" y="11" width="223" height="256">
<path d="M282.524 207.522L155.408 261.422L142.375 266.936L117.632 207.902L60.3071 70.8216L200.55 11.4075L282.524 207.522Z" fill="white"/>
</mask>
<g mask="url(#mask19_2385_314)">
<path d="M178.546 72.6278C178.546 72.6278 179.868 82.7044 176.09 84.3205C172.691 85.7464 168.157 80.3279 164.285 82.039C160.319 83.6551 163.436 98.0095 159.658 99.6256C155.88 101.242 151.347 95.3478 148.042 96.7737C144.736 98.1997 146.72 105.519 143.414 106.945C140.676 108.086 136.709 102.287 133.498 100.956C132.837 100.671 132.176 100.576 131.609 100.861C128.304 102.287 129.909 117.592 127.076 118.828C126.132 119.208 125.282 119.304 124.526 119.208C123.393 119.113 122.354 118.828 121.315 118.923C120.938 118.923 120.56 119.018 120.088 119.208C117.632 120.254 118.01 128.335 115.743 129.285C113.477 130.236 111.305 129.095 108.944 130.046C106.583 131.091 106.583 135.274 102.994 136.795L104.505 140.407L191.484 103.523" fill="#EDEFF7"/>
<path d="M178.546 72.6278C178.546 72.6278 179.868 82.7044 176.09 84.3205C172.691 85.7464 168.157 80.3279 164.285 82.039C160.319 83.6551 163.436 98.0095 159.658 99.6256C155.88 101.242 151.347 95.3478 148.042 96.7737C144.736 98.1997 146.72 105.519 143.414 106.945C140.676 108.086 136.709 102.287 133.498 100.956C132.837 100.671 132.176 100.576 131.609 100.861C128.304 102.287 129.909 117.592 127.076 118.828C126.132 119.208 125.282 119.304 124.526 119.208C123.393 119.113 122.354 118.828 121.315 118.923C120.938 118.923 120.56 119.018 120.088 119.208C117.632 120.254 118.01 128.335 115.743 129.285C113.477 130.236 111.305 129.095 108.944 130.046C106.583 131.091 106.583 135.274 102.994 136.795L104.505 140.407L191.484 103.523" stroke="#141516" stroke-miterlimit="10"/>
<path d="M184.212 86.1267C184.212 86.1267 184.968 90.9749 183.079 91.8305C181.474 92.4959 180.529 91.5453 178.829 91.5453C178.168 91.5453 177.413 91.6403 176.374 92.0206C174.863 92.686 174.485 94.7774 174.202 96.9639C173.824 99.7207 173.73 102.763 171.652 103.618C170.235 104.189 168.724 103.903 167.119 103.333C164.663 102.477 162.019 101.052 159.469 102.097C158.241 102.573 157.391 103.998 156.73 105.615C155.125 109.512 154.653 115.216 152.953 115.976C150.497 117.022 146.059 112.839 143.887 113.695C141.714 114.646 142.659 118.353 140.865 119.113C139.07 119.874 138.126 117.688 135.009 119.018C131.893 120.349 133.404 124.912 129.06 126.718C124.715 128.525 122.827 125.197 118.577 126.909C114.421 128.715 115.177 131.852 112.155 133.183C109.133 134.514 107.905 132.232 105.827 133.183C103.75 134.038 103.183 137.461 103.183 137.651L104.316 140.407L191.295 103.523" fill="#B5CEEE"/>
<path d="M184.212 86.1267C184.212 86.1267 184.968 90.9749 183.079 91.8305C181.474 92.4959 180.529 91.5453 178.829 91.5453C178.168 91.5453 177.413 91.6403 176.374 92.0206C174.863 92.686 174.485 94.7774 174.202 96.9639C173.824 99.7207 173.73 102.763 171.652 103.618C170.235 104.189 168.724 103.903 167.119 103.333C164.663 102.477 162.019 101.052 159.469 102.097C158.241 102.573 157.391 103.998 156.73 105.615C155.125 109.512 154.653 115.216 152.953 115.976C150.497 117.022 146.059 112.839 143.887 113.695C141.714 114.646 142.659 118.353 140.865 119.113C139.07 119.874 138.126 117.688 135.009 119.018C131.893 120.349 133.404 124.912 129.06 126.718C124.715 128.525 122.827 125.197 118.577 126.909C114.421 128.715 115.177 131.852 112.155 133.183C109.133 134.514 107.905 132.232 105.827 133.183C103.75 134.038 103.183 137.461 103.183 137.651L104.316 140.407L191.295 103.523" stroke="#141516" stroke-miterlimit="10"/>
<path d="M86.8447 98.2947L104.505 140.407L195.545 101.812" stroke="#141516" stroke-miterlimit="10" stroke-linecap="round" stroke-linejoin="round"/>
<path d="M166.835 118.828L136.614 131.662C136.048 131.947 135.764 132.517 136.048 133.088C136.331 133.658 136.898 133.943 137.464 133.658L167.685 120.825C168.252 120.539 168.535 119.969 168.252 119.399C168.063 118.828 167.402 118.543 166.835 118.828Z" fill="#141516"/>
<path d="M191.295 69.3956L188.367 70.6314C188.084 70.7265 187.706 70.6314 187.612 70.3462L186.384 67.3993C186.29 67.1141 186.384 66.7338 186.667 66.6388L189.595 65.403C189.878 65.3079 190.256 65.403 190.351 65.6881L191.578 68.6351C191.673 68.9203 191.578 69.2055 191.295 69.3956Z" fill="#EDEFF7" stroke="#141516" stroke-miterlimit="10"/>
<path d="M205.366 60.3647L193.278 65.4981C192.995 65.5931 192.711 65.4981 192.617 65.2129C192.523 64.9277 192.617 64.6425 192.9 64.5475L204.989 59.4141C205.272 59.319 205.555 59.4141 205.65 59.6993C205.744 59.9844 205.65 60.2696 205.366 60.3647Z" fill="#141516"/>
<path d="M202.533 63.9771L194.128 67.4944C193.845 67.5895 193.561 67.4944 193.467 67.2092C193.373 66.9241 193.467 66.6389 193.75 66.5438L202.156 63.0265C202.439 62.9314 202.722 63.0265 202.817 63.3117C202.911 63.5018 202.817 63.787 202.533 63.9771Z" fill="#141516"/>
<path d="M195.073 78.4266L192.145 79.6624C191.862 79.7575 191.484 79.6624 191.39 79.3772L190.162 76.4303C190.067 76.1451 190.162 75.7648 190.445 75.6698L193.373 74.434C193.656 74.3389 194.034 74.434 194.128 74.7191L195.356 77.6661C195.45 77.9513 195.356 78.2365 195.073 78.4266Z" fill="#B5CEEE" stroke="#141516" stroke-miterlimit="10"/>
<path d="M209.144 69.3957L197.056 74.5291C196.773 74.6241 196.489 74.5291 196.395 74.2439C196.3 73.9587 196.395 73.6735 196.678 73.5785L208.766 68.4451C209.05 68.35 209.333 68.4451 209.427 68.7303C209.522 69.0155 209.427 69.3006 209.144 69.3957Z" fill="#141516"/>
<path d="M206.311 73.0081L197.906 76.5254C197.623 76.6205 197.339 76.5254 197.245 76.2403C197.15 75.9551 197.245 75.6699 197.528 75.5748L205.933 72.0575C206.217 71.9624 206.5 72.0575 206.594 72.3427C206.689 72.6279 206.594 72.9131 206.311 73.0081Z" fill="#141516"/>
</g>
<mask id="mask20_2385_314" style="mask-type:luminance" maskUnits="userSpaceOnUse" x="60" y="11" width="223" height="256">
<path d="M282.524 207.522L155.408 261.422L142.375 266.936L117.632 207.902L60.3071 70.8216L200.55 11.4075L282.524 207.522Z" fill="white"/>
</mask>
<g mask="url(#mask20_2385_314)">
<path opacity="0.2" d="M155.408 261.422L142.281 266.936L117.632 207.902C119.143 206.381 121.032 203.909 121.787 199.727C123.298 191.836 122.259 166.36 141.903 163.793C161.546 161.131 145.019 205.715 145.869 214.176C146.719 221.876 157.958 244.406 155.408 261.422Z" fill="#8C8F9D"/>
</g>
<path d="M282.524 207.522L155.408 261.422L142.375 266.936L117.632 207.902L60.3071 70.8216L200.55 11.4075L282.524 207.522Z" stroke="#141516" stroke-miterlimit="10" stroke-linecap="round" stroke-linejoin="round"/>
<path d="M147.57 217.408C149.742 209.803 158.43 185.467 157.297 174.725C157.202 173.774 157.013 172.919 156.73 172.063C153.708 163.983 141.337 164.839 136.615 171.493C131.42 178.813 127.171 192.026 126.793 200.012C126.604 204.48 124.715 208.567 123.015 211.324C121.693 213.511 120.56 214.937 120.56 214.937L92.4168 147.632C92.4168 147.632 87.8837 151.34 85.0505 155.903C83.9172 157.709 83.0672 159.705 82.8784 161.701C82.3117 168.356 74.851 195.544 71.7345 207.046C71.6401 207.332 71.6401 207.522 71.5456 207.712C68.5235 218.739 76.4565 259.806 74.1899 271.689C71.9234 283.572 70.5068 283.382 70.2235 291.842C69.9401 298.021 61.1573 316.844 51.3355 336.141C45.6692 347.169 39.7195 358.386 34.8086 367.512L106.866 364.47C108.094 355.629 109.416 346.313 110.549 337.377C111.021 333.67 111.777 329.867 112.721 326.255C114.327 319.791 116.216 313.897 117.443 310.475C119.332 305.151 121.221 295.169 121.221 295.169C129.626 286.234 140.581 272.164 143.792 262.658C143.792 262.658 143.792 262.658 143.792 262.563C144.642 260.186 144.925 258.095 144.547 256.384C144.264 255.053 144.075 253.247 143.981 251.155C143.32 240.889 145.681 223.777 147.57 217.408Z" fill="white"/>
<path opacity="0.4" d="M122.921 211.324C120.654 215.792 118.01 220.26 116.31 225.298C114.61 230.337 112.721 231.097 107.716 234.995C102.711 238.987 99.0276 232.428 99.0276 232.428C99.0276 232.428 105.733 225.488 103.466 221.591C101.2 217.693 92.9834 207.997 93.4556 202.673C93.9278 197.35 88.4503 185.372 88.4503 185.372C88.4503 185.372 101.011 177.957 98.5554 169.211C97.2332 164.458 90.6224 159.42 84.9561 155.808C87.7892 151.245 92.3223 147.537 92.3223 147.537L120.371 214.841C120.371 214.841 121.599 213.511 122.921 211.324Z" fill="#B5CEEE"/>
<path opacity="0.4" d="M77.2121 252.581C77.401 253.152 81.4619 266.746 78.0621 272.449C74.5678 278.248 71.0735 285.663 72.7734 293.363C74.0956 299.542 62.7628 321.787 51.2412 336.046C61.0629 316.749 69.8458 297.926 70.1291 291.747C70.4125 283.286 71.8291 283.572 74.0956 271.594C76.3622 259.711 68.4292 218.644 71.4513 207.617C71.5457 207.426 71.5457 207.141 71.6402 206.951C73.8123 219.499 79.0065 244.406 80.3286 252.391C82.0285 262.658 77.401 253.057 77.2121 252.581Z" fill="#B5CEEE"/>
<path opacity="0.4" d="M103.183 334.811C111.588 298.497 139.731 270.643 143.603 262.658C140.392 272.164 129.437 286.234 121.032 295.169C121.032 295.169 119.143 305.151 117.255 310.474C116.121 313.897 114.138 319.791 112.533 326.255C104.316 335.856 103.183 334.811 103.183 334.811Z" fill="#B5CEEE"/>
<path opacity="0.4" d="M147.569 217.408C145.681 223.777 143.414 240.889 143.792 251.155C142.281 244.691 139.447 236.516 138.975 225.013C138.22 205.62 149.08 212.56 145.303 203.054C141.525 193.547 130.665 205.716 135.953 185.562C139.825 170.828 150.969 170.923 156.636 172.063C156.919 172.824 157.108 173.679 157.202 174.725C158.335 185.467 149.741 209.803 147.569 217.408Z" fill="#B5CEEE"/>
<path d="M45.5747 347.359C54.6409 330.723 63.4238 313.612 69.7513 295.169C70.5068 292.508 69.4679 289.085 70.2235 286.424C78.8175 262.468 69.0902 237.561 70.6957 213.035C72.0178 203.339 75.1343 193.642 78.1564 183.851C79.573 176.816 80.1396 168.926 82.5006 161.797C84.8616 156.473 87.2226 150.199 92.3223 147.537C101.861 169.782 111.494 192.121 120.371 214.841C124.432 212.465 125.093 207.236 125.754 202.864C127.926 192.312 130.098 182.615 134.065 173.679C138.126 166.55 148.419 163.508 154.747 169.306C156.541 171.018 157.486 173.584 157.675 176.151C156.447 188.414 152.575 200.867 148.797 212.37C147.286 217.693 145.681 222.066 145.114 227.39C145.209 229.101 145.209 230.051 145.303 231.763C143.036 240.603 145.114 248.399 144.642 257.144C142.659 272.925 130.098 283.952 121.032 295.74C118.765 304.581 116.593 313.421 113.477 322.262C109.699 335.571 108.472 348.69 107.149 361.428" stroke="#141516" stroke-miterlimit="10" stroke-linecap="round" stroke-linejoin="round"/>
<path d="M120.371 214.937C120.371 214.937 117.444 220.64 116.216 225.298C114.988 229.956 109.038 229.291 105.922 232.143" stroke="#141516" stroke-miterlimit="10" stroke-linecap="round" stroke-linejoin="round"/>
<path d="M97.894 206.666C97.894 206.666 106.016 209.518 110.738 213.225C115.46 216.933 118.954 217.883 118.954 217.883" stroke="#141516" stroke-miterlimit="10" stroke-linecap="round" stroke-linejoin="round"/>
<path d="M92.7002 186.418C92.7002 186.418 99.2165 188.224 104.127 185.942C104.127 185.942 104.505 181.855 105.355 178.908" stroke="#141516" stroke-miterlimit="10" stroke-linecap="round" stroke-linejoin="round"/>
<path d="M105.638 186.893C105.638 186.893 105.733 187.844 109.038 187.844" stroke="#141516" stroke-miterlimit="10" stroke-linecap="round" stroke-linejoin="round"/>
<path d="M120.937 295.074C120.937 295.074 114.516 300.873 110.644 311.425" stroke="#141516" stroke-miterlimit="10" stroke-linecap="round" stroke-linejoin="round"/>
<path d="M70.979 209.708C70.6957 215.412 77.3065 235.66 79.3842 245.737C81.3674 255.813 82.1229 262.943 82.1229 262.943" stroke="#141516" stroke-miterlimit="10" stroke-linecap="round" stroke-linejoin="round"/>
</g>
<defs>
<clipPath id="clip0_2385_314">
<rect width="545" height="354" fill="white"/>
</clipPath>
</defs>
</svg>
