<svg width="275" height="212" viewBox="0 0 275 212" fill="none" xmlns="http://www.w3.org/2000/svg">
<g clip-path="url(#clip0_278_7281)">
<path d="M37.0942 7.36682V198.467" stroke="#141516" stroke-miterlimit="10"/>
<path d="M37.0942 0V3.65611" stroke="#141516" stroke-miterlimit="10"/>
<path d="M106.597 0V198.467" stroke="#141516" stroke-miterlimit="10"/>
<path d="M176.099 0V198.467" stroke="#141516" stroke-miterlimit="10"/>
<path d="M245.601 28.3212V198.467" stroke="#141516" stroke-miterlimit="10"/>
<path d="M245.601 0V23.5192" stroke="#141516" stroke-miterlimit="10"/>
<path d="M208.915 27.1207H49.7409V121.525H208.915V27.1207Z" fill="#141516"/>
<path d="M207.988 29.7946H50.6131V118.851H207.988V29.7946Z" fill="white" stroke="#141516" stroke-miterlimit="10" stroke-linecap="round" stroke-linejoin="round"/>
<path d="M209.787 25.4836H47.8875V30.5585H209.787V25.4836Z" fill="#141516"/>
<path d="M131.072 25.4291C133.571 25.4291 135.597 23.4013 135.597 20.8999C135.597 18.3985 133.571 16.3707 131.072 16.3707C128.574 16.3707 126.548 18.3985 126.548 20.8999C126.548 23.4013 128.574 25.4291 131.072 25.4291Z" fill="white" stroke="#141516" stroke-miterlimit="10" stroke-linecap="round" stroke-linejoin="round"/>
<path d="M133.471 20.8999C133.471 22.2095 132.381 23.3009 131.072 23.3009C129.764 23.3009 128.674 22.2095 128.674 20.8999C128.674 19.5902 129.764 18.4988 131.072 18.4988C132.381 18.4988 133.471 19.5356 133.471 20.8999Z" fill="#4143EC" stroke="#141516" stroke-miterlimit="10"/>
<path d="M79.1772 87.6375H59.7166V67.8836H92.8051V87.6375H82.884" stroke="#141516" stroke-miterlimit="10"/>
<path d="M112.211 97.0779H85.8276V112.848H112.211V97.0779Z" stroke="#141516" stroke-miterlimit="10"/>
<path d="M141.375 67.8836H144.7V87.6375H111.612V67.8836H138.213" stroke="#141516" stroke-miterlimit="10"/>
<path d="M114.392 39.0167H153.204V58.7706H103.108V39.0167H110.685" stroke="#141516" stroke-miterlimit="10"/>
<path d="M196.323 67.8836H163.234V87.6375H196.323V67.8836Z" stroke="#141516" stroke-miterlimit="10"/>
<path d="M100.382 48.7845C100.382 48.7845 82.8295 51.2401 72.5268 66.1374" stroke="#141516" stroke-miterlimit="10"/>
<path d="M89.1529 89.7657L91.4969 96.5323" stroke="#141516" stroke-miterlimit="10"/>
<path d="M113.138 89.1655L111.012 95.55" stroke="#141516" stroke-miterlimit="10"/>
<path d="M88.9348 94.3495L91.4969 96.5323L92.151 93.531" stroke="#141516" stroke-miterlimit="10"/>
<path d="M109.976 93.531L110.958 96.0957L113.629 94.4587" stroke="#141516" stroke-miterlimit="10"/>
<path d="M73.0174 63.0815L72.5268 66.0828L75.9065 64.0092" stroke="#141516" stroke-miterlimit="10"/>
<path d="M145.681 77.2695H162.253" stroke="#141516" stroke-miterlimit="10"/>
<path d="M158.764 75.1959L162.417 77.2695L159.091 79.3431" stroke="#141516" stroke-miterlimit="10"/>
<path d="M93.3503 77.2695H109.922" stroke="#141516" stroke-miterlimit="10"/>
<path d="M106.433 75.1959L110.085 77.2695L106.76 79.3431" stroke="#141516" stroke-miterlimit="10"/>
<path d="M128.02 60.3531V65.4281" stroke="#141516" stroke-miterlimit="10"/>
<path d="M130.091 61.8811L128.02 65.5918L125.948 62.2085" stroke="#141516" stroke-miterlimit="10"/>
<path d="M162.09 83.2175H146.172" stroke="#141516" stroke-miterlimit="10"/>
<path d="M149.497 81.1439L146.009 83.2175L149.225 85.2911" stroke="#141516" stroke-miterlimit="10"/>
<path d="M113.465 45.183H143.447" stroke="#141516" stroke-miterlimit="10"/>
<path d="M113.465 48.0751H143.447" stroke="#141516" stroke-miterlimit="10"/>
<path d="M113.465 50.9127H143.447" stroke="#141516" stroke-miterlimit="10"/>
<path d="M62.8237 75.1959H89.7525" stroke="#141516" stroke-miterlimit="10"/>
<path d="M62.8237 78.0334H89.7525" stroke="#141516" stroke-miterlimit="10"/>
<path d="M62.8237 80.9256H89.7525" stroke="#141516" stroke-miterlimit="10"/>
<path d="M115.1 75.1959H142.029" stroke="#141516" stroke-miterlimit="10"/>
<path d="M115.1 78.0334H142.029" stroke="#141516" stroke-miterlimit="10"/>
<path d="M115.1 80.9256H142.029" stroke="#141516" stroke-miterlimit="10"/>
<path d="M165.415 75.1959H192.343" stroke="#141516" stroke-miterlimit="10"/>
<path d="M165.415 78.0334H192.343" stroke="#141516" stroke-miterlimit="10"/>
<path d="M165.415 80.9256H192.343" stroke="#141516" stroke-miterlimit="10"/>
<path d="M89.2619 102.48H109.813" stroke="#141516" stroke-miterlimit="10"/>
<path d="M89.2619 105.318H109.813" stroke="#141516" stroke-miterlimit="10"/>
<path d="M89.2619 108.21H109.813" stroke="#141516" stroke-miterlimit="10"/>
<path d="M180.405 47.6932C180.296 47.6932 180.242 47.6386 180.187 47.584C180.133 47.4749 180.133 47.3112 180.296 47.202L180.514 47.0929L180.46 47.1475C180.351 47.202 180.187 47.202 180.078 47.0383C180.024 46.9292 180.024 46.7655 180.187 46.6563L181.278 45.947L180.351 46.4926C180.242 46.5472 180.078 46.5472 179.969 46.3835C179.915 46.2744 179.915 46.1107 180.078 46.0015L182.041 44.7464L180.187 45.8378C180.078 45.8924 179.915 45.8924 179.806 45.7287C179.751 45.6195 179.751 45.4558 179.86 45.3467L182.913 43.3276L179.969 45.0193C179.86 45.0739 179.697 45.0739 179.588 44.9101C179.533 44.801 179.533 44.6373 179.642 44.5282L184.221 41.254L179.642 43.8733C179.533 43.9279 179.37 43.9279 179.261 43.7642C179.206 43.6551 179.206 43.4914 179.315 43.3822L182.586 41.0903L179.37 42.9457C179.261 43.0002 179.097 43.0002 178.988 42.8365C178.934 42.7274 178.934 42.5637 179.043 42.4545L180.896 41.1995L179.152 42.2363C179.043 42.2908 178.879 42.2908 178.77 42.1271C178.716 42.018 178.716 41.8543 178.825 41.7452L180.024 40.9266L178.934 41.5269C178.825 41.5814 178.661 41.5814 178.552 41.4177C178.498 41.3086 178.498 41.1449 178.607 41.0358L181.823 38.6893L178.661 40.4901C178.552 40.5446 178.389 40.5446 178.279 40.3809C178.225 40.2718 178.225 40.1081 178.334 39.9989L181.169 37.8162L178.389 39.4533C178.279 39.5078 178.116 39.5078 178.007 39.3441C177.952 39.235 177.952 39.0713 178.061 38.9621L179.424 37.9253L178.17 38.6893C178.061 38.7439 177.898 38.7439 177.789 38.5802C177.734 38.471 177.734 38.3073 177.843 38.1982L178.988 37.3251L177.952 37.9253C177.843 37.9799 177.68 37.9799 177.571 37.8162C177.516 37.7071 177.516 37.5433 177.625 37.4342L178.17 36.9977L177.734 37.2705C177.625 37.3251 177.462 37.3251 177.407 37.2159C177.298 37.1068 177.298 36.9977 177.407 36.8885L178.279 35.7971L177.516 36.2337C177.407 36.2883 177.298 36.2883 177.244 36.2337C177.135 36.1791 177.135 36.07 177.135 35.9609L177.189 35.6334C177.08 35.6334 177.026 35.5789 176.971 35.5243C176.917 35.4152 176.917 35.2515 177.08 35.1423L177.462 34.924C177.571 34.8695 177.68 34.8695 177.734 34.924C177.843 34.9786 177.843 35.0878 177.843 35.1969L177.789 35.4697L179.206 34.6512C179.315 34.5966 179.479 34.5966 179.533 34.7058C179.642 34.8149 179.642 34.924 179.533 35.0332L178.661 36.1246L181.223 34.6512C181.332 34.5966 181.496 34.5966 181.605 34.7603C181.659 34.8695 181.659 35.0332 181.55 35.1423L181.005 35.5789L182.368 34.8149C182.477 34.7603 182.64 34.7603 182.749 34.924C182.804 35.0332 182.804 35.1969 182.695 35.306L181.55 36.1791L183.404 35.0878C183.513 35.0332 183.676 35.0332 183.785 35.1969C183.84 35.306 183.84 35.4697 183.731 35.5789L182.368 36.6157L184.439 35.4152C184.548 35.3606 184.712 35.3606 184.821 35.5243C184.875 35.6334 184.875 35.7971 184.766 35.9063L181.932 38.089L185.639 35.9609C185.748 35.9063 185.911 35.9063 186.02 36.07C186.075 36.1791 186.075 36.3428 185.966 36.452L182.749 38.7984L186.674 36.5065C186.783 36.452 186.947 36.452 187.056 36.6157C187.11 36.7248 187.11 36.8885 187.001 36.9977L185.802 37.8162L187.328 36.9431C187.437 36.8885 187.601 36.8885 187.71 37.0522C187.765 37.1614 187.765 37.3251 187.655 37.4342L185.802 38.6893L187.983 37.4342C188.092 37.3796 188.255 37.3796 188.364 37.5434C188.419 37.6525 188.419 37.8162 188.31 37.9253L185.039 40.2172L188.746 38.089C188.855 38.0345 189.018 38.0345 189.127 38.1982C189.182 38.3073 189.182 38.471 189.073 38.5802L184.494 41.8543L189.563 38.9076C189.672 38.853 189.836 38.853 189.945 39.0167C189.999 39.1258 189.999 39.2896 189.89 39.3987L186.838 41.4177L190.163 39.5078C190.272 39.4533 190.436 39.4533 190.545 39.617C190.599 39.7261 190.599 39.8898 190.436 39.9989L188.473 41.254L190.545 40.0535C190.654 39.9989 190.817 39.9989 190.926 40.1627C190.981 40.2718 190.981 40.4355 190.817 40.5446L189.727 41.254L190.872 40.5992C190.981 40.5446 191.144 40.5446 191.253 40.7083C191.308 40.8175 191.308 40.9812 191.144 41.0903C191.253 41.0358 191.417 41.0358 191.526 41.1995C191.58 41.3086 191.58 41.4723 191.471 41.5814L188.31 43.8188L191.58 41.9089C191.689 41.8543 191.853 41.8543 191.962 42.018C192.016 42.1271 192.016 42.2908 191.907 42.4L191.853 42.4545C191.962 42.4 192.125 42.4 192.234 42.5637C192.289 42.6728 192.289 42.8365 192.18 42.9457L191.58 43.3822L192.18 43.0548C192.289 43.0002 192.453 43.0002 192.507 43.1094C192.616 43.2185 192.616 43.3822 192.507 43.4368L191.471 44.6373L192.453 44.037C192.562 43.9825 192.671 43.9825 192.78 44.0916C192.889 44.1462 192.889 44.3099 192.834 44.419L192.725 44.6919C192.834 44.6919 192.943 44.7464 192.998 44.801C193.052 44.9101 193.052 45.0739 192.889 45.183L192.289 45.5104C192.18 45.565 192.071 45.565 191.962 45.4558C191.853 45.4013 191.853 45.2376 191.907 45.1284L192.016 44.9101L190.327 45.8924C190.218 45.947 190.054 45.947 189.999 45.8378C189.89 45.7287 189.89 45.565 189.999 45.5104L191.035 44.3099L187.056 46.6018C186.947 46.6563 186.783 46.6563 186.674 46.4926C186.62 46.3835 186.62 46.2198 186.729 46.1107L187.328 45.6741L185.093 46.9838C184.984 47.0383 184.821 47.0383 184.712 46.8746C184.657 46.7655 184.657 46.6018 184.766 46.4926L184.821 46.4381L183.295 47.3112C183.186 47.3657 183.022 47.3657 182.913 47.202C182.858 47.0929 182.858 46.9292 182.967 46.8201L186.129 44.5827L180.514 47.8569C180.514 47.6932 180.46 47.6932 180.405 47.6932Z" fill="#4143EC"/>
<path d="M172.011 55.3328C169.558 53.2046 168.031 50.1488 168.031 46.8201C168.031 40.3809 173.591 35.1423 180.514 35.1423C187.383 35.1423 192.998 40.3809 192.998 46.8201C192.998 53.2592 187.437 58.4978 180.514 58.4978C178.661 58.4978 176.862 58.1158 175.281 57.4064" stroke="#141516" stroke-miterlimit="10"/>
<path d="M157.074 44.3099H164.924" stroke="#141516" stroke-miterlimit="10"/>
<path d="M157.074 47.0383H164.924" stroke="#141516" stroke-miterlimit="10"/>
<path d="M157.074 49.7668H164.924" stroke="#141516" stroke-miterlimit="10"/>
<path d="M62.006 90.6389H75.852" stroke="#141516" stroke-miterlimit="10"/>
<path d="M62.006 93.3127H75.852" stroke="#141516" stroke-miterlimit="10"/>
<path d="M59.1169 55.3328H72.9629" stroke="#141516" stroke-miterlimit="10"/>
<path d="M62.006 96.0411H75.852" stroke="#141516" stroke-miterlimit="10"/>
<path d="M62.006 101.771H75.852" stroke="#141516" stroke-miterlimit="10"/>
<path d="M62.006 104.499H75.852" stroke="#141516" stroke-miterlimit="10"/>
<path d="M62.006 107.173H75.852" stroke="#141516" stroke-miterlimit="10"/>
<path d="M177.189 35.4697L180.569 47.6386L192.889 44.8556" stroke="#141516" stroke-miterlimit="10"/>
<path d="M59.2805 38.5801V52.1678H81.0306" stroke="#141516" stroke-miterlimit="10"/>
<path d="M66.0399 40.4355H61.5154V52.1678H66.0399V40.4355Z" fill="#4143EC" stroke="#141516" stroke-miterlimit="10"/>
<path d="M77.5419 43.1094H73.0174V52.1678H77.5419V43.1094Z" fill="#4143EC" stroke="#141516" stroke-miterlimit="10"/>
<path d="M71.8182 36.7248H67.2937V52.1132H71.8182V36.7248Z" fill="#4143EC" stroke="#141516" stroke-miterlimit="10"/>
<path d="M33.0603 125.999C33.0603 125.999 33.0603 123.708 29.8441 120.543C26.6279 117.323 24.611 115.522 24.611 115.522C24.611 115.522 23.0302 120.761 25.9738 123.98C28.9174 127.2 33.0603 130.147 33.0603 130.147V125.999Z" fill="#4143EC"/>
<path d="M28.4268 140.242C28.4268 140.242 28.4268 137.95 25.2107 134.785C21.9945 131.566 19.9775 129.765 19.9775 129.765C19.9775 129.765 18.3967 135.003 21.3403 138.223C24.284 141.443 28.4268 144.389 28.4268 144.389V140.242Z" fill="#4143EC"/>
<path d="M32.8968 129.928C32.8968 129.928 33.1148 127.637 36.6581 124.799C40.1468 121.961 42.3818 120.379 42.3818 120.379C42.3818 120.379 43.4175 125.781 40.1468 128.619C36.8761 131.456 32.4607 134.021 32.4607 134.021L32.8968 129.928Z" fill="#4143EC"/>
<path d="M27.2821 146.736C27.2821 146.736 27.7727 144.498 31.534 142.043C35.2953 139.587 37.6938 138.223 37.6938 138.223C37.6938 138.223 38.1299 143.68 34.5867 146.19C31.0434 148.7 26.4099 150.719 26.4099 150.719L27.2821 146.736Z" fill="#4143EC"/>
<path d="M28.3178 165.071C28.3178 165.071 28.3178 162.779 31.534 159.614C34.7502 156.394 36.7671 154.594 36.7671 154.594C36.7671 154.594 38.348 159.832 35.4043 163.052C32.4607 166.271 28.3178 169.218 28.3178 169.218V165.071Z" fill="#4143EC"/>
<path d="M28.2633 169.545C28.2633 169.545 28.5904 167.308 25.8648 163.652C23.1392 160.05 21.3949 157.922 21.3949 157.922C21.3949 157.922 19.0509 162.888 21.5584 166.49C24.0114 170.091 27.6637 173.584 27.6637 173.584L28.2633 169.545Z" fill="#4143EC"/>
<path d="M25.1561 182.806C25.1561 182.806 25.1561 180.514 28.3723 177.349C31.5885 174.129 33.6054 172.328 33.6054 172.328C33.6054 172.328 35.1863 177.567 32.2426 180.787C29.299 184.006 25.1561 186.953 25.1561 186.953V182.806Z" fill="#4143EC"/>
<path d="M27.2821 194.811C27.2821 194.811 26.6825 192.628 28.972 188.699C31.2614 184.825 32.7878 182.533 32.7878 182.533C32.7878 182.533 35.6769 187.226 33.6055 191.046C31.534 194.865 28.3178 198.794 28.3178 198.794L27.2821 194.811Z" fill="#4143EC"/>
<path d="M33.3874 125.454C33.2239 127.909 32.8968 130.42 32.5152 132.548C31.2615 139.041 28.0998 143.298 26.846 149.191C25.5922 155.085 29.19 162.67 28.2088 170.255C27.2276 177.84 24.284 182.042 25.1561 187.062C25.9738 192.137 30.3893 205.779 30.3893 205.779" stroke="#141516" stroke-miterlimit="10" stroke-linecap="round" stroke-linejoin="round"/>
<path d="M32.8423 131.402L36.2765 128.783" stroke="#141516" stroke-miterlimit="10" stroke-linecap="round" stroke-linejoin="round"/>
<path d="M33.0058 128.401L31.5885 125.836" stroke="#141516" stroke-miterlimit="10" stroke-linecap="round" stroke-linejoin="round"/>
<path d="M27.0095 148.864C27.0095 148.864 29.8986 146.681 32.8423 144.553" stroke="#141516" stroke-miterlimit="10" stroke-linecap="round" stroke-linejoin="round"/>
<path d="M28.4268 144.389C28.4268 144.389 26.0283 139.696 23.3027 136.586" stroke="#141516" stroke-miterlimit="10" stroke-linecap="round" stroke-linejoin="round"/>
<path d="M28.4268 168.29C28.4268 168.29 30.6618 163.87 34.5866 160.05" stroke="#141516" stroke-miterlimit="10" stroke-linecap="round" stroke-linejoin="round"/>
<path d="M27.8817 171.51C27.8817 171.51 26.4644 168.072 24.7745 165.562C23.0847 163.106 22.8666 162.779 22.8666 162.779" stroke="#141516" stroke-miterlimit="10" stroke-linecap="round" stroke-linejoin="round"/>
<path d="M25.1561 187.007C25.1561 187.007 26.3009 184.061 27.7727 181.769C29.19 179.422 31.1524 177.349 31.1524 177.349" stroke="#141516" stroke-miterlimit="10" stroke-linecap="round" stroke-linejoin="round"/>
<path d="M28.3178 198.794C28.3178 198.794 27.9908 196.066 29.19 193.719C30.3893 191.373 31.7521 188.372 32.2972 187.171" stroke="#141516" stroke-miterlimit="10" stroke-linecap="round" stroke-linejoin="round"/>
<path d="M12.1824 156.503C12.1824 156.503 11.9098 155.085 13.5997 152.738C15.235 150.392 16.3252 149.028 16.3252 149.028C16.3252 149.028 17.9061 152.138 16.3798 154.484C14.8534 156.831 12.6184 159.123 12.6184 159.123L12.1824 156.503Z" fill="#4143EC"/>
<path d="M16.6523 164.907C16.6523 164.907 16.3798 163.488 18.0696 161.142C19.705 158.795 20.7952 157.431 20.7952 157.431C20.7952 157.431 22.376 160.542 20.8497 162.888C19.3234 165.234 17.0884 167.526 17.0884 167.526L16.6523 164.907Z" fill="#4143EC"/>
<path d="M12.7275 158.904C12.7275 158.904 12.3459 157.486 9.83836 156.121C7.33082 154.703 5.74999 153.939 5.74999 153.939C5.74999 153.939 5.69547 157.431 8.03948 158.85C10.3835 160.269 13.4361 161.36 13.4361 161.36L12.7275 158.904Z" fill="#4143EC"/>
<path d="M18.0696 168.836C18.0696 168.836 17.5245 167.472 14.9079 166.38C12.2914 165.234 10.6015 164.689 10.6015 164.689C10.6015 164.689 10.9286 168.181 13.4361 169.327C15.9436 170.528 19.0508 171.292 19.0508 171.292L18.0696 168.836Z" fill="#4143EC"/>
<path d="M19.3779 180.459C19.3779 180.459 19.1054 179.04 16.7614 177.349C14.4174 175.657 12.9456 174.784 12.9456 174.784C12.9456 174.784 12.5095 178.222 14.7444 179.914C16.9249 181.605 19.814 183.024 19.814 183.024L19.3779 180.459Z" fill="#4143EC"/>
<path d="M19.923 183.242C19.923 183.242 19.487 181.878 20.7952 179.313C22.1035 176.749 22.9757 175.221 22.9757 175.221C22.9757 175.221 24.9926 178.058 23.7934 180.623C22.6486 183.133 20.7407 185.752 20.7407 185.752L19.923 183.242Z" fill="#4143EC"/>
<path d="M23.9024 194.811C23.9024 194.811 24.0659 193.392 26.3009 191.591C28.5359 189.79 29.9532 188.808 29.9532 188.808C29.9532 188.808 30.6073 192.246 28.4814 194.047C26.3554 195.848 23.5753 197.43 23.5753 197.43L23.9024 194.811Z" fill="#4143EC"/>
<path d="M23.3027 191.264C23.3027 191.264 23.0302 189.845 20.6862 188.153C18.3422 186.516 16.8704 185.589 16.8704 185.589C16.8704 185.589 16.4343 189.026 18.6692 190.718C20.8497 192.41 23.7388 193.829 23.7388 193.829L23.3027 191.264Z" fill="#4143EC"/>
<path d="M23.3027 199.013C23.3027 199.013 23.4118 197.539 21.5584 195.357C19.705 193.174 18.5057 191.919 18.5057 191.919C18.5057 191.919 17.1974 195.138 18.9418 197.321C20.6317 199.504 23.0847 201.632 23.0847 201.632L23.3027 199.013Z" fill="#4143EC"/>
<path d="M11.9643 156.176C12.3459 157.704 12.782 159.232 13.2726 160.542C14.7444 164.47 17.1974 166.762 18.6147 170.364C20.032 173.911 18.6147 179.095 20.032 183.733C21.4493 188.372 23.7388 190.664 23.7933 193.938C23.7933 197.212 22.5396 206.27 22.5396 206.27" stroke="#141516" stroke-miterlimit="10" stroke-linecap="round" stroke-linejoin="round"/>
<path d="M12.9455 159.832L10.4925 158.577" stroke="#141516" stroke-miterlimit="10" stroke-linecap="round" stroke-linejoin="round"/>
<path d="M12.5095 157.977L13.1091 156.176" stroke="#141516" stroke-miterlimit="10" stroke-linecap="round" stroke-linejoin="round"/>
<path d="M18.4512 170.146C18.4512 170.146 16.4342 169.109 14.3083 168.072" stroke="#141516" stroke-miterlimit="10" stroke-linecap="round" stroke-linejoin="round"/>
<path d="M17.0884 167.472C17.0884 167.472 18.0697 164.252 19.4324 162.015" stroke="#141516" stroke-miterlimit="10" stroke-linecap="round" stroke-linejoin="round"/>
<path d="M19.6505 182.533C19.6505 182.533 17.7426 180.023 14.908 178.058" stroke="#141516" stroke-miterlimit="10" stroke-linecap="round" stroke-linejoin="round"/>
<path d="M20.3591 184.443C20.3591 184.443 20.9042 182.151 21.6674 180.405C22.4306 178.658 22.5396 178.44 22.5396 178.44" stroke="#141516" stroke-miterlimit="10" stroke-linecap="round" stroke-linejoin="round"/>
<path d="M23.6843 196.339C23.6843 196.339 25.3197 194.374 26.3009 193.61C27.2821 192.846 27.9907 192.137 27.9907 192.137" stroke="#141516" stroke-miterlimit="10" stroke-linecap="round" stroke-linejoin="round"/>
<path d="M23.7934 193.883C23.7934 193.883 22.7576 192.192 21.6129 190.882C20.4681 189.572 19.0508 188.481 19.0508 188.481" stroke="#141516" stroke-miterlimit="10" stroke-linecap="round" stroke-linejoin="round"/>
<path d="M23.0847 201.632C23.0847 201.632 22.9756 199.886 21.9944 198.576C21.0132 197.266 19.814 195.466 19.3234 194.811" stroke="#141516" stroke-miterlimit="10" stroke-linecap="round" stroke-linejoin="round"/>
<path d="M131.945 106.737L129.437 103.026C129.437 103.026 129.928 97.078 129.382 96.1503C128.837 95.2226 119.625 94.1312 119.08 94.8406C118.535 95.55 120.443 96.1503 120.443 96.1503C120.443 96.1503 119.134 96.7506 119.298 97.4054C119.516 98.3876 121.151 98.4968 121.151 98.4968C121.151 98.4968 119.843 99.3699 120.006 99.9701C120.115 100.407 121.478 100.789 121.478 100.789C121.478 100.789 120.115 101.389 121.206 102.153C122.296 102.917 123.223 103.735 123.223 103.735C123.223 103.735 122.459 105.372 124.531 106.791C126.602 108.21 130.146 110.829 130.146 110.829L131.945 106.737Z" fill="white" stroke="#141516" stroke-miterlimit="10" stroke-linecap="round" stroke-linejoin="round"/>
<path d="M119.407 92.3305L117.39 92.1667V92.8216L119.025 93.7492C118.971 93.7492 119.352 92.1667 119.407 92.3305Z" fill="#141516" stroke="#141516" stroke-miterlimit="10" stroke-linecap="round" stroke-linejoin="round"/>
<path d="M127.366 96.4777C127.256 96.4777 127.202 96.4777 127.093 96.4231L119.025 93.8584C118.589 93.7493 118.371 93.2582 118.48 92.8216C118.589 92.3851 119.08 92.1668 119.516 92.2759L127.584 94.8407C128.02 94.9498 128.238 95.4409 128.129 95.8775C128.02 96.2594 127.693 96.4777 127.366 96.4777Z" fill="white" stroke="#141516" stroke-miterlimit="10" stroke-linecap="round" stroke-linejoin="round"/>
<path d="M131.563 98.0602C131.454 98.0602 131.345 98.0602 131.181 98.0056L127.038 96.696C126.493 96.5323 126.166 95.932 126.33 95.3318C126.493 94.7861 127.093 94.4587 127.693 94.6224L131.835 95.932C132.381 96.0957 132.708 96.696 132.544 97.2962C132.381 97.7328 131.999 98.0602 131.563 98.0602Z" fill="#141516" stroke="#141516" stroke-miterlimit="10" stroke-linecap="round" stroke-linejoin="round"/>
<path d="M128.238 99.2607C128.238 99.2607 127.475 97.1325 126.929 96.0411C126.384 95.0043 125.24 94.0767 124.803 92.9853C124.367 91.8939 123.223 93.5855 123.659 94.3495C124.095 95.168 125.076 96.314 125.076 96.8597C125.076 97.4054 125.24 97.7873 124.64 99.5881C124.04 101.334 123.659 103.408 125.076 104.827" fill="white"/>
<path d="M128.238 99.2607C128.238 99.2607 127.475 97.1325 126.929 96.0411C126.384 95.0043 125.24 94.0767 124.803 92.9853C124.367 91.8939 123.223 93.5855 123.659 94.3495C124.095 95.168 125.076 96.314 125.076 96.8597C125.076 97.4054 125.24 97.7873 124.64 99.5881C124.04 101.334 123.659 103.408 125.076 104.827" stroke="#141516" stroke-miterlimit="10" stroke-linecap="round" stroke-linejoin="round"/>
<path d="M120.443 96.1503L125.076 96.9142" stroke="#141516" stroke-miterlimit="10" stroke-linecap="round" stroke-linejoin="round"/>
<path d="M121.151 98.4422C121.696 98.2785 124.585 99.6427 124.585 99.6427" stroke="#141516" stroke-miterlimit="10" stroke-linecap="round" stroke-linejoin="round"/>
<path d="M121.424 100.734L123.822 101.553" stroke="#141516" stroke-miterlimit="10" stroke-linecap="round" stroke-linejoin="round"/>
<path d="M164.215 99.5881C164.215 99.5881 162.853 98.7696 162.253 100.952C161.653 103.135 159.854 106.955 159.091 107.773C158.328 108.592 150.588 116.232 150.588 116.232C150.588 116.232 147.262 113.612 146.499 114.595C145.736 115.577 145.191 115.686 145.191 115.686L131.945 105.263L127.038 112.685C127.038 112.685 145.027 129.164 146.554 129.656C148.025 130.147 149.116 129.983 149.661 129.71C150.206 129.437 160.073 121.961 160.073 121.961C160.073 121.961 166.123 102.48 166.614 101.825C167.05 101.225 164.215 99.5881 164.215 99.5881Z" fill="#4143EC" stroke="#141516" stroke-miterlimit="10" stroke-linecap="round" stroke-linejoin="round"/>
<path d="M146.445 116.341C146.445 116.341 149.116 119.451 149.116 123.38L146.445 116.341Z" fill="#4143EC"/>
<path d="M146.445 116.341C146.445 116.341 149.116 119.451 149.116 123.38" stroke="#141516" stroke-miterlimit="10" stroke-linecap="round" stroke-linejoin="round"/>
<path d="M150.751 117.541C150.751 117.541 151.569 119.615 150.315 124.144L150.751 117.541Z" fill="#4143EC"/>
<path d="M150.751 117.541C150.751 117.541 151.569 119.615 150.315 124.144" stroke="#141516" stroke-miterlimit="10" stroke-linecap="round" stroke-linejoin="round"/>
<path d="M170.103 75.5778C170.103 75.5778 164.27 71.758 164.979 68.1019C165.687 64.5004 178.77 61.5536 186.293 64.0092C193.815 66.4648 195.342 77.7606 194.36 84.6908C193.379 91.6757 192.78 107.555 192.78 107.555L167.214 108.319C167.214 108.319 169.612 89.7112 170.103 83.8177C170.539 77.9789 170.103 75.5778 170.103 75.5778Z" fill="#141516" stroke="#141516" stroke-miterlimit="10" stroke-linecap="round" stroke-linejoin="round"/>
<path d="M157.02 178.058C157.565 183.624 158.601 208.126 159.2 211.727H185.802C185.748 207.525 185.693 179.313 186.293 177.021C187.056 174.129 188.092 164.525 186.947 159.014C185.802 153.502 184.33 150.828 184.33 150.828H156.747L156.802 153.12C156.802 153.011 156.257 170.146 157.02 178.058Z" fill="#141516" stroke="#141516" stroke-miterlimit="10" stroke-linecap="round" stroke-linejoin="round"/>
<path d="M162.907 161.36C163.997 162.124 165.088 162.67 165.088 163.707C165.633 173.42 167.759 200.65 168.522 210.472" stroke="#46474F" stroke-miterlimit="10" stroke-linecap="round" stroke-linejoin="round"/>
<path d="M170.811 99.2062L184.276 99.6973C184.276 99.6973 173.428 116.395 173.537 125.563C173.646 134.731 175.445 153.72 175.445 153.72C175.445 153.72 169.503 158.413 163.398 157.54C162.744 157.431 162.362 151.92 162.362 151.92C162.362 151.92 161.98 157.267 161.49 157.158C158.056 156.558 156.693 153.011 156.693 153.011L157.401 134.676C157.401 134.676 157.401 122.616 158.764 119.178C160.073 115.741 169.176 100.352 169.176 100.352L170.811 99.2062Z" fill="white" stroke="#141516" stroke-miterlimit="10" stroke-linecap="round" stroke-linejoin="round"/>
<path d="M170.321 109.847C170.321 109.847 166.178 118.524 164.652 123.598C163.125 128.673 162.471 151.92 162.471 151.92" stroke="#141516" stroke-miterlimit="10" stroke-linecap="round" stroke-linejoin="round"/>
<path d="M182.695 99.5881C182.695 99.5881 173.21 113.721 171.411 118.796C169.612 123.871 168.358 143.352 168.631 151.592C168.849 159.832 171.465 168.945 171.465 168.945C171.465 168.945 182.313 171.128 194.415 167.363C194.415 167.363 191.09 152.738 189.509 147.936C187.928 143.134 187.274 138.277 187.274 138.277C187.274 138.277 198.122 103.626 198.067 103.081C198.067 102.535 197.849 101.989 196.759 101.662C195.669 101.334 182.695 99.5881 182.695 99.5881Z" fill="#4143EC" stroke="#141516" stroke-miterlimit="10" stroke-linecap="round" stroke-linejoin="round"/>
<path d="M174.028 153.611L188.037 152.465L188.255 154.757L182.259 155.467" fill="#4143EC"/>
<path d="M174.028 153.611L188.037 152.465L188.255 154.757L182.259 155.467" stroke="#141516" stroke-miterlimit="10" stroke-linecap="round" stroke-linejoin="round"/>
<path d="M170.702 101.007C170.702 101.007 159.418 120.925 159.2 124.526C158.928 128.128 157.292 144.717 156.366 149.955C155.439 155.194 151.405 165.398 151.405 165.398C151.405 165.398 150.369 160.924 150.696 158.959C151.024 156.995 155.33 145.699 155.821 143.189C156.311 140.679 156.911 131.675 156.802 127.691C156.693 123.762 156.42 120.87 157.238 117.978C158.056 115.086 164.215 99.5882 164.215 99.5882L173.155 99.1516L170.702 101.007Z" fill="#4143EC" stroke="#141516" stroke-miterlimit="10" stroke-linecap="round" stroke-linejoin="round"/>
<path d="M168.249 99.3698L166.396 107.992L171.193 104.226L168.249 99.3698Z" fill="white" stroke="#141516" stroke-miterlimit="10" stroke-linecap="round" stroke-linejoin="round"/>
<path d="M174.028 95.2226L168.249 99.3698L170.43 105.045L170.321 109.847L176.808 100.188L174.028 95.2226Z" fill="white" stroke="#141516" stroke-miterlimit="10" stroke-linecap="round" stroke-linejoin="round"/>
<path d="M173.646 92.9307C173.646 92.9307 172.556 100.952 172.229 103.135C171.902 105.263 170.321 109.847 170.321 109.847C170.321 109.847 180.569 99.9155 181.06 99.1516C181.55 98.333 183.349 90.4205 183.349 90.4205C183.349 90.4205 176.753 92.8761 173.646 92.9307Z" fill="white" stroke="#141516" stroke-miterlimit="10" stroke-linecap="round" stroke-linejoin="round"/>
<path d="M173.373 95.2226C174.791 96.0957 175.826 96.0957 177.462 95.8229C179.097 95.55 181.278 94.0766 182.749 92.8761C183.076 91.4573 183.294 90.4205 183.294 90.4205C183.294 90.4205 176.699 92.8761 173.646 92.9853C173.646 92.9307 173.537 93.8584 173.373 95.2226Z" fill="#141516" stroke="#141516" stroke-miterlimit="10" stroke-linecap="round" stroke-linejoin="round"/>
<path d="M176.971 68.593L169.394 74.541C169.394 74.541 168.631 80.3253 168.358 84.3089C168.086 88.2924 169.776 91.1845 171.956 93.149C174.136 95.0589 175.336 95.1681 177.462 94.8406C179.588 94.5132 182.695 92.0031 183.894 90.9117C185.039 89.8203 187.219 86.5462 187.219 86.5462C187.219 86.5462 188.964 86.8736 189.454 86.0551C189.945 85.2365 190.108 84.8545 190.108 84.8545C190.108 84.8545 182.913 80.8164 179.969 75.687C177.026 70.5575 176.971 68.593 176.971 68.593Z" fill="white" stroke="#141516" stroke-miterlimit="10" stroke-linecap="round" stroke-linejoin="round"/>
<path d="M174.573 79.1794C174.573 79.1794 174.355 80.7619 173.864 81.5804C173.373 82.3989 171.356 82.8355 172.447 83.7632C173.537 84.6908 175.281 84.6363 175.281 84.6363" stroke="#141516" stroke-miterlimit="10" stroke-linecap="round" stroke-linejoin="round"/>
<path d="M172.392 86.1642C172.392 86.1642 176.426 87.9104 179.043 85.564" stroke="#141516" stroke-miterlimit="10" stroke-linecap="round" stroke-linejoin="round"/>
<path d="M173.755 86.819C173.755 86.819 174.355 89.0563 175.663 88.6198C176.971 88.1832 178.116 86.437 178.116 86.437C178.116 86.437 176.426 86.7099 173.755 86.819Z" stroke="#141516" stroke-miterlimit="10" stroke-linecap="round" stroke-linejoin="round"/>
<path d="M179.697 80.2162C179.697 80.8164 179.479 81.3076 179.152 81.3076C178.825 81.3076 178.552 80.871 178.497 80.2708C178.497 79.6705 178.715 79.1794 179.043 79.1794C179.37 79.1794 179.697 79.6705 179.697 80.2162Z" fill="#141516"/>
<path d="M173.319 79.5068C173.319 80.107 173.101 80.5982 172.774 80.5982C172.447 80.5982 172.174 80.1616 172.12 79.5613C172.12 78.9611 172.338 78.47 172.665 78.47C173.046 78.4154 173.319 78.9065 173.319 79.5068Z" fill="#141516"/>
<path d="M171.193 76.9966C171.193 76.9966 172.61 75.4687 174.246 77.0512" stroke="#141516" stroke-miterlimit="10" stroke-linecap="round" stroke-linejoin="round"/>
<path d="M177.353 77.3786C177.353 77.3786 180.405 76.2326 181.659 78.8519" stroke="#141516" stroke-miterlimit="10" stroke-linecap="round" stroke-linejoin="round"/>
<path d="M175.663 101.716L170.321 109.847L178.17 105.645L175.663 101.716Z" fill="white" stroke="#141516" stroke-miterlimit="10" stroke-linecap="round" stroke-linejoin="round"/>
<path d="M184.657 94.6224L175.663 101.716L178.279 109.083L186.892 99.097L184.657 94.6224Z" fill="white" stroke="#141516" stroke-miterlimit="10" stroke-linecap="round" stroke-linejoin="round"/>
<path d="M173.7 136.531C173.7 136.531 172.229 136.204 170.266 135.003C168.249 133.803 166.123 134.239 164.324 134.294C162.526 134.348 161.272 134.73 161.49 135.44C161.708 136.149 163.507 136.095 163.997 136.095C164.542 136.095 165.469 136.968 165.469 136.968L160.999 138.059C160.999 138.059 159.582 138.987 160.672 140.024C161.762 141.06 161.98 140.842 161.98 140.842C161.98 140.842 163.67 143.516 165.469 143.625C167.268 143.734 174.573 141.934 174.573 141.934L173.7 136.531Z" fill="white" stroke="#141516" stroke-miterlimit="10" stroke-linecap="round" stroke-linejoin="round"/>
<path d="M186.456 115.904C186.674 116.996 187.819 133.039 187.819 133.039L172.992 136.531L173.755 144.935C173.755 144.935 200.248 141.824 200.738 140.187C201.229 138.55 199.484 110.393 199.648 108.756C199.757 107.119 201.937 101.662 195.505 101.662" fill="#4143EC"/>
<path d="M186.456 115.904C186.674 116.996 187.819 133.039 187.819 133.039L172.992 136.531L173.755 144.935C173.755 144.935 200.248 141.824 200.738 140.187C201.229 138.55 199.484 110.393 199.648 108.756C199.757 107.119 201.937 101.662 195.505 101.662" stroke="#141516" stroke-miterlimit="10" stroke-linecap="round" stroke-linejoin="round"/>
<path d="M188.909 113.23C188.909 113.23 193.216 107.664 197.958 107.883L188.909 113.23Z" fill="#4143EC"/>
<path d="M188.909 113.23C188.909 113.23 193.216 107.664 197.958 107.883" stroke="#141516" stroke-miterlimit="10" stroke-linecap="round" stroke-linejoin="round"/>
<path d="M188.909 115.304C188.909 115.304 192.616 113.23 196.323 113.23L188.909 115.304Z" fill="#4143EC"/>
<path d="M188.909 115.304C188.909 115.304 192.616 113.23 196.323 113.23" stroke="#141516" stroke-miterlimit="10" stroke-linecap="round" stroke-linejoin="round"/>
<path d="M23.4663 211.727V180.132C23.4663 179.586 23.0302 179.204 22.5396 179.204H18.6693C18.1241 179.204 17.7426 179.641 17.7426 180.132V211.727H23.4663Z" fill="#46474F" stroke="#141516" stroke-miterlimit="10" stroke-linecap="round" stroke-linejoin="round"/>
<path d="M18.6693 211.727V180.132C18.6693 179.586 18.2332 179.204 17.7426 179.204H13.8723C13.3271 179.204 12.9456 179.641 12.9456 180.132V211.727H18.6693Z" fill="#141516" stroke="#141516" stroke-miterlimit="10" stroke-linecap="round" stroke-linejoin="round"/>
<path d="M20.7952 211.727H89.807C89.2074 210.472 88.4442 209.326 87.463 208.671C84.3558 206.707 54.5379 202.069 54.5379 202.069L23.5753 201.577L22.1035 202.069C22.1035 202.069 20.4681 204.36 20.6317 205.506C20.6862 206.107 20.7407 208.944 20.7952 211.727Z" fill="#141516" stroke="#141516" stroke-miterlimit="10" stroke-linecap="round" stroke-linejoin="round"/>
<path d="M48.9232 142.261C48.9232 142.261 41.6732 146.408 39.2201 148.7C36.7671 150.992 32.6242 158.577 32.2971 163.215C31.9701 167.854 28.3723 185.48 28.3723 185.48C28.3723 185.48 20.9587 199.94 22.1035 202.068C23.2482 204.197 53.7202 202.068 54.5379 202.068C55.3556 202.068 53.7202 193.01 53.7202 193.01C53.7202 193.01 65.2222 175.221 65.7673 170.419C66.2579 165.616 62.8237 152.629 62.1695 149.628C61.4609 146.681 50.395 141.606 48.9232 142.261Z" fill="white" stroke="#141516" stroke-miterlimit="10" stroke-linecap="round" stroke-linejoin="round"/>
<path d="M43.254 167.417C43.254 167.417 49.0323 172.874 51.4308 174.675" stroke="#141516" stroke-miterlimit="10" stroke-linecap="round" stroke-linejoin="round"/>
<path d="M40.5284 171.674C40.5284 171.674 51.1582 175.33 53.8838 175.603" stroke="#141516" stroke-miterlimit="10" stroke-linecap="round" stroke-linejoin="round"/>
<path d="M71.4911 123.762C71.4911 123.762 72.3087 129.874 72.1452 131.675C71.9817 133.475 70.3463 139.751 69.8557 141.06C69.3651 142.37 68.8745 143.844 67.0756 143.68C65.2767 143.516 64.132 142.698 64.132 142.698L62.3331 148.809L49.7954 141.552L51.4308 138.277C51.4308 138.277 49.6319 135.331 49.1413 130.365C48.6507 125.399 51.4308 119.833 55.083 117.65C58.6808 115.522 64.9497 116.341 66.7485 117.814C68.5474 119.342 71.4911 123.762 71.4911 123.762Z" fill="white" stroke="#141516" stroke-miterlimit="10" stroke-linecap="round" stroke-linejoin="round"/>
<path d="M49.0868 139.096C49.7409 139.26 63.9139 145.699 64.0775 147.336C64.241 148.973 64.8951 154.102 64.8951 154.102C64.8951 154.102 60.5887 150.337 55.5191 147.5C50.395 144.717 47.942 142.698 47.942 142.698L49.0868 139.096Z" fill="white" stroke="#141516" stroke-miterlimit="10" stroke-linecap="round" stroke-linejoin="round"/>
<path d="M61.6245 110.284C61.6245 110.284 65.9309 108.483 69.3651 109.301C72.7993 110.12 74.1621 114.103 74.1621 117.378C74.1621 120.652 72.3632 124.635 71.7091 124.799C71.055 124.963 69.4196 117.05 66.2579 114.758C63.0963 112.412 61.6245 110.284 61.6245 110.284Z" fill="#6985D1" stroke="#141516" stroke-miterlimit="10" stroke-linecap="round" stroke-linejoin="round"/>
<path d="M56.3369 111.266C56.3369 111.266 63.0963 107.664 69.0381 112.739C74.9799 117.814 72.9629 122.944 71.6546 124.799C70.3464 126.6 70.3464 130.092 69.3652 130.747C68.3839 131.402 68.2204 128.128 67.0757 127.473C65.9309 126.818 66.0945 129.274 64.7862 132.602C63.4779 135.876 57.5361 140.678 54.429 140.351C51.3218 140.024 47.506 136.586 45.38 129.328C43.2541 122.071 44.7259 114.322 48.6507 111.866C52.5756 109.301 56.3369 111.266 56.3369 111.266Z" fill="#6985D1" stroke="#141516" stroke-miterlimit="10" stroke-linecap="round" stroke-linejoin="round"/>
<path d="M69.4741 114.376C69.4741 114.376 70.7824 118.142 67.4572 122.398C64.132 126.6 59.6075 128.946 56.2823 126.927C52.9571 124.908 52.7936 122.562 52.7936 122.562" stroke="#141516" stroke-miterlimit="10" stroke-linecap="round" stroke-linejoin="round"/>
<path d="M47.3424 123.271C47.3424 123.271 46.6338 134.621 53.4477 135.767C60.2617 136.913 64.0775 129.819 64.0775 129.819" stroke="#141516" stroke-miterlimit="10" stroke-linecap="round" stroke-linejoin="round"/>
<path d="M49.5229 123.489C53.2861 123.489 56.3368 120.387 56.3368 116.559C56.3368 112.732 53.2861 109.629 49.5229 109.629C45.7596 109.629 42.7089 112.732 42.7089 116.559C42.7089 120.387 45.7596 123.489 49.5229 123.489Z" fill="#6985D1" stroke="#141516" stroke-miterlimit="10" stroke-linecap="round" stroke-linejoin="round"/>
<path d="M48.0511 115.522C48.0511 115.522 48.9233 110.993 51.3763 110.447" stroke="#141516" stroke-miterlimit="10" stroke-linecap="round" stroke-linejoin="round"/>
<path d="M47.7785 116.123C47.7785 116.123 52.7391 114.376 55.0286 116.286" stroke="#141516" stroke-miterlimit="10" stroke-linecap="round" stroke-linejoin="round"/>
<path d="M47.5059 116.996C47.5059 116.996 45.3255 118.469 46.0341 121.798" stroke="#141516" stroke-miterlimit="10" stroke-linecap="round" stroke-linejoin="round"/>
<path d="M68.0568 131.184C68.0568 131.184 67.5662 126.218 66.0944 126.381C64.6226 126.545 65.2767 133.967 66.0944 135.112C66.9121 136.258 67.7298 135.276 67.7298 135.276" fill="white"/>
<path d="M68.0568 131.184C68.0568 131.184 67.5662 126.218 66.0944 126.381C64.6226 126.545 65.2767 133.967 66.0944 135.112C66.9121 136.258 67.7298 135.276 67.7298 135.276" stroke="#141516" stroke-miterlimit="10" stroke-linecap="round" stroke-linejoin="round"/>
<path d="M207.225 205.015H54.3199L59.444 192.028H172.828L207.225 205.015Z" fill="#D3D4E1" stroke="#141516" stroke-miterlimit="10" stroke-linecap="round" stroke-linejoin="round"/>
<path d="M205.099 207.635H56.0098V211.727H205.099V207.635Z" fill="#141516" stroke="#141516" stroke-miterlimit="10" stroke-linecap="round" stroke-linejoin="round"/>
<path d="M207.225 205.015H54.3199V209.817H207.225V205.015Z" fill="#46474F" stroke="#141516" stroke-miterlimit="10" stroke-linecap="round" stroke-linejoin="round"/>
<path d="M111.884 193.719L116.354 200.704H80.431L83.9198 193.719H111.884Z" fill="white"/>
<path d="M105.125 195.793L109.595 202.778H73.6716L77.1603 195.793H105.125Z" fill="white"/>
<path d="M61.461 157.267L68.3839 189.409L95.2037 193.174C95.2037 193.174 103.271 189.9 103.926 189.9C104.58 189.9 105.724 191.864 106.215 192.519C106.706 193.174 107.523 194.156 107.85 194.647C108.177 195.138 108.341 197.594 107.85 198.249C107.36 198.903 106.379 200.704 105.397 200.541C104.416 200.377 105.397 197.758 105.397 197.758C105.397 197.758 99.6191 200.049 97.8202 200.049C96.0214 200.049 92.3691 198.412 92.3691 198.412C92.3691 198.412 61.7335 201.85 59.9346 201.195C58.1357 200.541 57.1545 199.558 56.5004 198.249C55.8463 196.939 45.3255 161.633 45.3255 161.633" fill="white"/>
<path d="M61.461 157.267L68.3839 189.409L95.2037 193.174C95.2037 193.174 103.271 189.9 103.926 189.9C104.58 189.9 105.724 191.864 106.215 192.519C106.706 193.174 107.523 194.156 107.85 194.647C108.177 195.138 108.341 197.594 107.85 198.249C107.36 198.903 106.379 200.704 105.397 200.541C104.416 200.377 105.397 197.758 105.397 197.758C105.397 197.758 99.6191 200.049 97.8202 200.049C96.0214 200.049 92.3691 198.412 92.3691 198.412C92.3691 198.412 61.7335 201.85 59.9346 201.195C58.1357 200.541 57.1545 199.558 56.5004 198.249C55.8463 196.939 45.3255 161.633 45.3255 161.633" stroke="#141516" stroke-miterlimit="10" stroke-linecap="round" stroke-linejoin="round"/>
<path d="M106.215 192.519C105.724 191.864 104.58 189.9 103.926 189.9C103.271 189.9 95.2037 193.174 95.2037 193.174L79.8859 190.991C80.5401 192.901 81.3032 196.121 80.6491 199.667C87.027 199.013 92.4236 198.412 92.4236 198.412C92.4236 198.412 96.0214 200.049 97.8748 200.049C99.6737 200.049 105.452 197.758 105.452 197.758C105.452 197.758 104.471 200.377 105.452 200.541C106.433 200.704 107.414 198.904 107.905 198.249C108.396 197.594 108.232 195.138 107.905 194.647C107.578 194.156 106.706 193.174 106.215 192.519Z" fill="white" stroke="#141516" stroke-miterlimit="10" stroke-linecap="round" stroke-linejoin="round"/>
<path d="M8.80267 211.727H269.477" stroke="#141516" stroke-miterlimit="10" stroke-linecap="round" stroke-linejoin="round"/>
<path d="M152.005 200.922H181.005V199.995L137.832 193.556L138.867 194.483L152.005 200.922Z" fill="white" stroke="#141516" stroke-miterlimit="10" stroke-linecap="round" stroke-linejoin="round"/>
<path d="M152.005 199.995H181.005L165.687 193.665L138.867 193.556L152.005 199.995Z" fill="white" stroke="#141516" stroke-miterlimit="10" stroke-linecap="round" stroke-linejoin="round"/>
<path d="M156.747 194.975H159.418L158.056 194.374L155.385 194.429L156.747 194.975Z" fill="white" stroke="#141516" stroke-width="0.75" stroke-miterlimit="10" stroke-linecap="round" stroke-linejoin="round"/>
<path d="M162.253 197.266L163.616 197.867H166.341L164.924 197.266H162.253Z" fill="white" stroke="#141516" stroke-width="0.75" stroke-miterlimit="10" stroke-linecap="round" stroke-linejoin="round"/>
<path d="M167.268 196.393H164.27L165.033 196.721H168.086L167.268 196.393Z" fill="white" stroke="#141516" stroke-width="0.75" stroke-miterlimit="10" stroke-linecap="round" stroke-linejoin="round"/>
<path d="M160.945 196.721H163.67L162.853 196.393H160.127L160.945 196.721Z" fill="white" stroke="#141516" stroke-width="0.75" stroke-miterlimit="10" stroke-linecap="round" stroke-linejoin="round"/>
<path d="M162.962 195.848H165.96L165.088 195.52H162.144L162.962 195.848Z" fill="white" stroke="#141516" stroke-width="0.75" stroke-miterlimit="10" stroke-linecap="round" stroke-linejoin="round"/>
<path d="M152.604 194.975H155.33L154.022 194.429H151.351L152.604 194.975Z" fill="white" stroke="#141516" stroke-width="0.75" stroke-miterlimit="10" stroke-linecap="round" stroke-linejoin="round"/>
<path d="M158.001 195.52L158.873 195.848H161.544L160.727 195.52H158.001Z" fill="white" stroke="#141516" stroke-width="0.75" stroke-miterlimit="10" stroke-linecap="round" stroke-linejoin="round"/>
<path d="M171.356 199.34H174.464L172.12 198.412H169.012L171.356 199.34Z" fill="white" stroke="#141516" stroke-width="0.75" stroke-miterlimit="10" stroke-linecap="round" stroke-linejoin="round"/>
<path d="M164.924 198.412L167.214 199.34H169.939L167.65 198.412H164.924Z" fill="white" stroke="#141516" stroke-width="0.75" stroke-miterlimit="10" stroke-linecap="round" stroke-linejoin="round"/>
<path d="M160.781 198.412L163.071 199.34H165.796L163.507 198.412H160.781Z" fill="white" stroke="#141516" stroke-width="0.75" stroke-miterlimit="10" stroke-linecap="round" stroke-linejoin="round"/>
<path d="M159.418 198.412H154.076L155.984 199.34H161.708L159.418 198.412Z" fill="white" stroke="#141516" stroke-width="0.75" stroke-miterlimit="10" stroke-linecap="round" stroke-linejoin="round"/>
<path d="M160.836 194.975H163.779L162.307 194.374H159.418L160.836 194.975Z" fill="white" stroke="#141516" stroke-width="0.75" stroke-miterlimit="10" stroke-linecap="round" stroke-linejoin="round"/>
<path d="M166.341 197.266L167.759 197.867H170.811L169.394 197.266H166.341Z" fill="white" stroke="#141516" stroke-width="0.75" stroke-miterlimit="10" stroke-linecap="round" stroke-linejoin="round"/>
<path d="M162.198 197.867L160.836 197.266H158.11L159.527 197.867H162.198Z" fill="white" stroke="#141516" stroke-width="0.75" stroke-miterlimit="10" stroke-linecap="round" stroke-linejoin="round"/>
<path d="M151.187 194.975L149.988 194.429L146.39 194.483L147.317 194.975H151.187Z" fill="white" stroke="#141516" stroke-width="0.75" stroke-miterlimit="10" stroke-linecap="round" stroke-linejoin="round"/>
<path d="M158.764 196.393H156.039L156.802 196.721H159.527L158.764 196.393Z" fill="white" stroke="#141516" stroke-width="0.75" stroke-miterlimit="10" stroke-linecap="round" stroke-linejoin="round"/>
<path d="M153.913 195.52L154.73 195.848H157.456L156.638 195.52H153.913Z" fill="white" stroke="#141516" stroke-width="0.75" stroke-miterlimit="10" stroke-linecap="round" stroke-linejoin="round"/>
<path d="M155.439 196.721L154.621 196.393H150.151L150.806 196.721H155.439Z" fill="white" stroke="#141516" stroke-width="0.75" stroke-miterlimit="10" stroke-linecap="round" stroke-linejoin="round"/>
<path d="M149.061 195.848H153.313L152.495 195.52H148.352L149.061 195.848Z" fill="white" stroke="#141516" stroke-width="0.75" stroke-miterlimit="10" stroke-linecap="round" stroke-linejoin="round"/>
<path d="M156.693 197.266H151.841L153.041 197.867H158.11L156.693 197.266Z" fill="white" stroke="#141516" stroke-width="0.75" stroke-miterlimit="10" stroke-linecap="round" stroke-linejoin="round"/>
<path d="M152.005 199.995H150.969L130.909 171.073L131.89 170.746H145.027L152.005 199.995Z" fill="white" stroke="#141516" stroke-miterlimit="10" stroke-linecap="round" stroke-linejoin="round"/>
<path d="M150.969 199.995L137.832 193.556L130.854 170.746H143.992L150.969 199.995Z" fill="white" stroke="#141516" stroke-miterlimit="10" stroke-linecap="round" stroke-linejoin="round"/>
<path d="M265.662 211.727V176.639C265.662 176.094 265.226 175.712 264.735 175.712H251.979C251.434 175.712 251.052 176.148 251.052 176.639V211.727H265.662Z" fill="#141516" stroke="#141516" stroke-miterlimit="10" stroke-linecap="round" stroke-linejoin="round"/>
<path d="M261.028 211.727V176.639C261.028 176.094 260.592 175.712 260.101 175.712H247.346C246.801 175.712 246.419 176.148 246.419 176.639V211.727H261.028Z" fill="#46474F" stroke="#141516" stroke-miterlimit="10" stroke-linecap="round" stroke-linejoin="round"/>
<path d="M209.896 155.794C209.896 155.794 204.281 159.559 203.573 161.851C202.864 164.143 198.667 177.294 198.231 178.331C197.795 179.368 194.36 184.661 194.36 184.661L175.826 185.534C175.826 185.534 167.486 183.679 166.723 183.679C166.014 183.679 158.819 188.426 158.219 189.736C157.62 191.046 156.366 192.901 156.911 193.337C157.51 193.774 158.328 193.065 158.328 193.065C158.328 193.065 158.601 195.084 162.198 194.374C165.796 193.665 169.394 191.046 169.394 191.046C169.394 191.046 173.864 193.228 175.608 192.792C175.663 192.792 175.717 192.737 175.772 192.737V194.647C175.772 194.647 200.139 195.957 201.174 195.684C202.21 195.411 207.498 188.917 207.498 188.917L213.712 155.412C213.767 155.358 213.494 152.193 209.896 155.794Z" fill="#6985D1" stroke="#141516" stroke-miterlimit="10" stroke-linecap="round" stroke-linejoin="round"/>
<path d="M176.262 186.025L175.935 185.534H175.881C175.881 185.534 167.541 183.679 166.777 183.679C166.069 183.679 158.873 188.426 158.274 189.736C157.674 191.046 156.42 192.901 156.965 193.337C157.565 193.774 158.383 193.065 158.383 193.065C158.383 193.065 158.655 195.084 162.253 194.374C165.851 193.665 169.449 191.046 169.449 191.046C169.449 191.046 173.918 193.228 175.663 192.792C175.717 192.792 175.772 192.737 175.826 192.737V194.647L176.262 186.025Z" fill="#46474F" stroke="#141516" stroke-miterlimit="10" stroke-linecap="round" stroke-linejoin="round"/>
<path d="M210.55 211.727H211.095C210.659 210.69 210.278 209.708 210.114 209.217C209.678 207.689 204.118 187.662 203.518 184.716C202.919 181.769 203.191 177.622 204.772 171.783C206.298 165.944 209.896 155.849 209.896 155.849L204.772 162.997C204.772 162.997 200.466 179.641 200.466 181.823C200.466 184.006 202.646 194.92 204.772 200.322C206.026 203.378 208.588 208.235 210.55 211.727Z" fill="#6985D1" stroke="#141516" stroke-miterlimit="10" stroke-linecap="round" stroke-linejoin="round"/>
<path d="M212.186 151.756C212.186 151.756 206.844 160.105 205.426 165.889C204.009 171.674 202.81 176.694 202.81 181.933C202.81 187.117 208.588 201.85 209.46 203.706C210.332 205.561 219.708 206.161 222.597 197.212C225.487 188.263 226.795 162.397 225.05 156.503C223.306 150.61 215.783 147.882 212.186 151.756Z" fill="white" stroke="#141516" stroke-miterlimit="10" stroke-linecap="round" stroke-linejoin="round"/>
<path d="M210.659 150.555C210.278 151.101 205.535 153.775 205.535 153.775L205.372 158.741L206.789 156.067L209.024 162.67L211.422 150.392L210.659 150.555Z" fill="#8C8F9D" stroke="#141516" stroke-miterlimit="10" stroke-linecap="round" stroke-linejoin="round"/>
<path d="M211.204 211.727H250.453C249.145 208.289 244.184 194.865 244.021 194.265C243.857 193.556 239.769 161.96 235.517 156.067C231.265 150.228 221.344 148.1 219.218 149.3C219.218 149.3 212.131 163.707 209.46 170.419C206.789 177.185 205.045 190.5 205.045 192.464C205.045 194.429 208.751 206.652 208.751 206.652L211.204 211.727Z" fill="#6985D1" stroke="#141516" stroke-miterlimit="10" stroke-linecap="round" stroke-linejoin="round"/>
<path d="M239.496 201.141L222.488 206.216L223.579 208.399L233.009 205.506" stroke="#141516" stroke-miterlimit="10" stroke-linecap="round" stroke-linejoin="round"/>
<path d="M202.265 125.563C202.265 125.563 200.902 129.765 200.847 130.638C200.793 131.511 200.902 132.548 200.902 132.548C200.902 132.548 200.956 133.093 200.684 133.53C200.411 133.967 197.195 137.077 197.577 137.677C197.958 138.278 200.139 140.733 200.139 140.733C200.139 140.733 201.665 148.1 203.736 148.918C205.808 149.792 208.697 149.246 208.697 149.246L209.733 152.138L222.597 147.936L222.379 143.68C222.379 143.68 223.688 136.149 222.216 130.692C220.853 125.29 207.934 119.397 202.265 125.563Z" fill="white" stroke="#141516" stroke-miterlimit="10" stroke-linecap="round" stroke-linejoin="round"/>
<path d="M202.701 134.185C202.537 134.84 202.21 135.276 201.992 135.222C201.774 135.167 201.665 134.621 201.828 133.967C201.992 133.312 202.319 132.875 202.537 132.93C202.755 132.984 202.864 133.585 202.701 134.185Z" fill="#141516"/>
<path d="M201.774 131.347C201.774 131.347 203.573 130.802 204.281 132.766L201.774 131.347Z" fill="white"/>
<path d="M201.774 131.347C201.774 131.347 203.573 130.802 204.281 132.766" stroke="#141516" stroke-miterlimit="10" stroke-linecap="round" stroke-linejoin="round"/>
<path d="M200.52 141.77C200.52 141.77 201.937 143.189 204.5 142.316L200.52 141.77Z" fill="white"/>
<path d="M200.52 141.77C200.52 141.77 201.937 143.189 204.5 142.316" stroke="#141516" stroke-miterlimit="10" stroke-linecap="round" stroke-linejoin="round"/>
<path d="M210.169 115.195C210.169 115.195 209.024 111.975 205.372 111.266C201.719 110.557 199.048 115.686 199.975 117.65C200.902 119.615 201.338 120.051 199.539 120.161C197.795 120.27 194.415 124.854 197.358 127.691C200.357 130.529 203.954 126.491 204.118 127.909C204.281 129.328 203.791 130.638 205.535 130.692C207.28 130.747 210.114 130.583 209.678 131.675C209.242 132.766 209.133 135.385 210.768 135.767C212.404 136.149 213.439 134.13 214.584 134.403C215.729 134.676 217.31 138.387 216.274 140.406C215.238 142.425 214.584 142.425 214.421 142.916C214.312 143.407 217.473 146.79 220.798 146.19C224.069 145.59 228.376 144.498 228.866 140.951C229.357 137.404 228.321 136.64 229.684 135.385C231.047 134.13 232.355 133.748 231.973 131.729C231.592 129.71 230.338 129.055 230.72 127.418C231.101 125.781 229.466 118.196 222.379 114.922C215.402 111.757 210.169 115.195 210.169 115.195Z" fill="#141516" stroke="#141516" stroke-miterlimit="10" stroke-linecap="round" stroke-linejoin="round"/>
<path d="M224.069 143.953L207.825 153.393L209.024 162.67L226.359 148.864L224.069 143.953Z" fill="white" stroke="#141516" stroke-miterlimit="10" stroke-linecap="round" stroke-linejoin="round"/>
<path d="M181.55 187.826C181.55 187.826 178.279 186.626 176.208 186.025C172.665 184.988 169.339 183.515 168.086 183.843C166.832 184.224 160.781 188.372 160.781 188.372C160.781 188.372 158.655 193.501 158.819 194.211C158.982 194.92 160.291 193.774 160.291 193.774C160.291 193.774 159.527 194.756 160.236 195.466C160.945 196.175 161.653 194.756 161.653 194.756C161.653 194.756 161.49 196.557 162.526 196.339C163.616 196.175 163.67 195.357 163.67 195.357C163.67 195.357 163.725 196.339 164.651 196.339C165.578 196.339 167.486 192.628 167.486 192.628L170.866 192.792C170.866 192.792 173.537 194.211 175.118 194.374C176.699 194.538 178.661 193.501 178.661 193.501L180.787 194.047L182.586 188.917L181.55 187.826Z" fill="white" stroke="#141516" stroke-miterlimit="10" stroke-linecap="round" stroke-linejoin="round"/>
<path d="M160.345 193.829C160.345 193.829 162.144 189.463 162.471 189.19C162.744 188.917 166.396 186.844 166.396 186.844" stroke="#141516" stroke-miterlimit="10" stroke-linecap="round" stroke-linejoin="round"/>
<path d="M161.708 194.756C161.708 194.756 163.888 190.282 164.106 190.063C164.324 189.845 167.104 188.481 167.104 188.481" stroke="#141516" stroke-miterlimit="10" stroke-linecap="round" stroke-linejoin="round"/>
<path d="M163.779 195.411C163.779 195.411 165.905 191.318 166.232 191.1C166.614 190.882 167.541 190.391 167.541 190.391" stroke="#141516" stroke-miterlimit="10" stroke-linecap="round" stroke-linejoin="round"/>
<path d="M228.594 155.685C228.594 155.685 217.419 162.943 217.582 165.835C217.746 168.672 218.673 168.672 218.673 168.672L213.003 190.009C213.003 190.009 211.204 188.59 211.041 190.391C210.877 192.192 210.877 192.192 210.877 192.192L181.223 187.226L178.225 194.702C178.225 194.702 190.49 199.504 198.994 202.505C207.498 205.506 216.383 208.89 217.255 207.307C218.127 205.725 235.735 179.422 236.77 177.458C237.861 175.493 237.861 171.946 237.861 171.946" fill="#6985D1"/>
<path d="M228.594 155.685C228.594 155.685 217.419 162.943 217.582 165.835C217.746 168.672 218.673 168.672 218.673 168.672L213.003 190.009C213.003 190.009 211.204 188.59 211.041 190.391C210.877 192.192 210.877 192.192 210.877 192.192L181.223 187.226L178.225 194.702C178.225 194.702 190.49 199.504 198.994 202.505C207.498 205.506 216.383 208.89 217.255 207.307C218.127 205.725 235.735 179.422 236.77 177.458C237.861 175.493 237.861 171.946 237.861 171.946" stroke="#141516" stroke-miterlimit="10" stroke-linecap="round" stroke-linejoin="round"/>
<path d="M218.673 168.672C218.673 168.672 222.052 161.742 230.229 161.196" stroke="#141516" stroke-miterlimit="10" stroke-linecap="round" stroke-linejoin="round"/>
</g>
<defs>
<clipPath id="clip0_278_7281">
<rect width="264" height="212" fill="white" transform="translate(5.75)"/>
</clipPath>
</defs>
</svg>
