<svg width="596" height="359" viewBox="0 0 596 359" fill="none" xmlns="http://www.w3.org/2000/svg">
<rect width="596" height="359" fill="white"/>
<g clip-path="url(#clip0_3508_1747)">
<path d="M67.5273 333.477H504.408" stroke="#141516" stroke-miterlimit="10" stroke-linecap="round" stroke-linejoin="round"/>
<path d="M507.576 45.1484H385.363V333.581H507.576V45.1484Z" stroke="#141516" stroke-width="0.75" stroke-miterlimit="10" stroke-linecap="round" stroke-linejoin="round"/>
<path d="M507.681 52.791H393.391V326.357H507.681V52.791Z" stroke="#141516" stroke-width="0.75" stroke-miterlimit="10" stroke-linecap="round" stroke-linejoin="round"/>
<path d="M403.003 169.421H395.609V206.064H403.003V169.421Z" stroke="#141516" stroke-width="0.75" stroke-miterlimit="10" stroke-linecap="round" stroke-linejoin="round"/>
<path d="M460.785 86.6073L464.06 82.1055" stroke="#141516" stroke-width="0.75" stroke-miterlimit="10" stroke-linecap="round" stroke-linejoin="round"/>
<path d="M435.328 121.262L457.933 90.4814" stroke="#141516" stroke-width="0.75" stroke-miterlimit="10" stroke-linecap="round" stroke-linejoin="round"/>
<path d="M462.473 115.922L488.774 79.9072" stroke="#141516" stroke-width="0.75" stroke-miterlimit="10" stroke-linecap="round" stroke-linejoin="round"/>
<path d="M456.031 124.612L459.623 119.691" stroke="#141516" stroke-width="0.75" stroke-miterlimit="10" stroke-linecap="round" stroke-linejoin="round"/>
<path d="M428.145 162.721L453.39 128.276" stroke="#141516" stroke-width="0.75" stroke-miterlimit="10" stroke-linecap="round" stroke-linejoin="round"/>
<path d="M237.594 324.368C237.594 324.368 239.284 281.653 264.001 267.205C264.001 267.205 246.783 294.007 243.192 326.671L237.594 324.368Z" fill="#6985D1"/>
<path d="M237.594 324.368C237.594 324.368 239.284 281.653 264.001 267.205C264.001 267.205 246.783 294.007 243.192 326.671L237.594 324.368Z" fill="#6985D1"/>
<path opacity="0.2" d="M237.594 324.368C237.594 324.368 239.284 281.653 264.001 267.205C264.001 267.205 246.783 294.007 243.192 326.671L237.594 324.368Z" fill="#141516"/>
<path d="M236.537 331.069C236.537 331.069 230.41 292.855 245.832 261.133C245.832 261.133 238.121 297.252 241.185 330.022L236.537 331.069Z" fill="#6985D1"/>
<path opacity="0.5" d="M236.537 331.069C236.537 331.069 230.41 292.855 245.832 261.133C245.832 261.133 238.121 297.252 241.185 330.022L236.537 331.069Z" fill="#141516"/>
<path d="M234.74 327.195C234.74 327.195 224.917 279.036 184.355 289.505C184.355 289.505 229.036 262.599 240.022 324.787L234.74 327.195Z" fill="#6985D1"/>
<path opacity="0.2" d="M234.74 327.195C234.74 327.195 224.917 279.036 184.355 289.505C184.355 289.505 229.036 262.599 240.022 324.787L234.74 327.195Z" fill="#141516"/>
<path d="M237.488 327.823C237.488 327.823 252.593 281.025 291.676 295.787C291.676 295.787 250.163 264.274 232.523 324.787L237.488 327.823Z" fill="#6985D1"/>
<path d="M238.648 325.625C238.648 325.625 241.605 282.91 218.578 265.949C218.578 265.949 232.838 294.426 232.838 327.3L238.648 325.625Z" fill="#6985D1"/>
<path d="M266.852 320.075L267.592 312.956H209.602L210.341 320.075C211.08 327.718 217.629 333.476 225.34 333.476H251.747C259.564 333.476 266.007 327.718 266.852 320.075Z" fill="#999999" stroke="#141516" stroke-width="0.75" stroke-miterlimit="10" stroke-linecap="round" stroke-linejoin="round"/>
<path d="M197.874 273.8C197.874 273.8 195.972 254.118 202.521 246.894C208.437 240.403 207.38 256.316 207.38 256.316C207.38 256.316 217.732 234.121 225.971 233.284C233.682 232.446 223.964 245.742 223.964 245.742C223.964 245.742 232.52 240.089 239.28 233.284C245.829 226.688 250.583 220.406 254.596 223.024C258.716 225.641 251.639 235.273 251.639 235.273C251.428 235.482 260.406 229.829 267.166 219.464C275.617 206.482 283.75 208.89 279.63 219.359C279.63 219.359 284.912 203.446 290.721 207.005C296.531 210.46 293.362 223.024 288.186 229.724C288.186 229.724 297.904 226.269 297.904 231.818C297.904 239.461 269.913 243.334 269.913 243.334C269.913 243.334 278.574 245.847 276.25 251.501C273.081 259.457 258.082 250.139 249.421 251.291C249.421 251.291 259.455 256.84 254.068 260.714C248.576 264.587 240.02 256.316 229.985 258.829C219.95 261.237 238.646 261.237 235.055 265.844C231.569 270.346 213.718 264.273 205.162 275.057C196.501 285.84 197.874 273.8 197.874 273.8Z" fill="#4143EC"/>
<path opacity="0.1" d="M197.874 273.8C197.874 273.8 195.972 254.118 202.521 246.894C208.437 240.403 207.38 256.316 207.38 256.316C207.38 256.316 217.732 234.121 225.971 233.284C233.682 232.446 223.964 245.742 223.964 245.742C223.964 245.742 232.52 240.089 239.28 233.284C245.829 226.688 250.583 220.406 254.596 223.024C258.716 225.641 251.639 235.273 251.639 235.273C251.428 235.482 260.406 229.829 267.166 219.464C275.617 206.482 283.75 208.89 279.63 219.359C279.63 219.359 284.912 203.446 290.721 207.005C296.531 210.46 293.362 223.024 288.186 229.724C288.186 229.724 297.904 226.269 297.904 231.818C297.904 239.461 269.913 243.334 269.913 243.334C269.913 243.334 278.574 245.847 276.25 251.501C273.081 259.457 258.082 250.139 249.421 251.291C249.421 251.291 259.455 256.84 254.068 260.714C248.576 264.587 240.02 256.316 229.985 258.829C219.95 261.237 238.646 261.237 235.055 265.844C231.569 270.346 213.718 264.273 205.162 275.057C196.501 285.84 197.874 273.8 197.874 273.8Z" fill="#141516"/>
<path d="M200.305 278.512C200.305 278.512 202.734 253.071 243.612 245.324C284.491 237.681 288.082 221.14 288.082 221.14" stroke="#141516" stroke-width="0.75" stroke-miterlimit="10" stroke-linecap="round" stroke-linejoin="round"/>
<path d="M177.805 273.487C177.805 273.487 187.734 245.638 178.017 242.078C169.883 239.147 172.418 252.757 172.418 252.757C172.418 252.757 156.363 229.515 143.159 236.739C134.498 241.45 150.342 245.847 150.342 245.847C150.342 245.847 116.118 240.508 113.161 249.826C111.048 256.421 124.04 254.746 124.04 254.746C124.04 254.746 99.0063 262.494 99.9569 270.241C100.802 277.884 111.576 272.021 111.576 272.021C111.576 272.021 97.6331 283.851 86.7533 278.617C75.8736 273.382 84.6408 286.155 91.2954 287.201C91.2954 287.201 78.8312 287.725 80.7325 293.169C82.6338 298.613 98.3725 297.357 102.386 295.996C102.386 295.996 99.7457 306.151 107.985 301.545C116.224 297.043 121.505 280.292 121.505 280.292C121.505 280.292 118.336 288.353 124.146 287.83C129.955 287.306 134.814 263.017 134.814 263.017C134.814 263.017 132.807 272.44 136.821 272.963C140.73 273.487 147.49 257.782 156.468 258.096C156.468 258.096 150.131 265.111 157.313 265.634C167.559 266.158 177.805 273.487 177.805 273.487Z" fill="#4143EC"/>
<path d="M176.117 278.512C176.117 278.512 177.807 247.627 148.548 249.826C119.289 252.024 122.141 289.714 93.6211 292.122" stroke="#141516" stroke-width="0.75" stroke-miterlimit="10" stroke-linecap="round" stroke-linejoin="round"/>
<path d="M189.637 281.443C189.637 281.443 173.792 265.111 175.905 248.674C177.912 232.237 185.834 252.128 185.834 252.128C185.834 252.128 181.609 228.049 186.89 224.07C192.172 220.092 192.172 235.273 192.172 235.273C192.172 235.273 197.242 209.518 204.319 210.146C211.502 210.774 205.587 219.883 205.587 219.883C205.587 219.883 227.029 208.785 230.304 217.056C233.578 225.327 214.459 227.421 214.459 227.421C214.459 227.421 226.184 228.258 224.811 233.493C223.438 238.728 210.445 236.11 206.854 239.251C206.854 239.251 212.347 238.204 212.136 242.601C211.924 246.998 201.467 249.511 197.031 258.724C197.031 258.724 204.213 251.71 208.439 256.421C212.664 261.132 193.228 270.241 189.637 281.443Z" fill="#4143EC"/>
<path d="M191.117 276.208C191.117 276.208 185.73 230.247 214.567 221.139" stroke="#141516" stroke-width="0.75" stroke-miterlimit="10" stroke-linecap="round" stroke-linejoin="round"/>
<path d="M203.05 333.477H179.284C173.263 333.477 168.298 328.975 167.665 323.112L162.172 270.241H220.056L214.564 323.112C214.036 328.975 208.965 333.477 203.05 333.477Z" fill="white" stroke="#141516" stroke-miterlimit="10" stroke-linecap="round" stroke-linejoin="round"/>
<path opacity="0.1" d="M177.805 273.487C177.805 273.487 187.734 245.638 178.017 242.078C169.883 239.147 172.418 252.757 172.418 252.757C172.418 252.757 156.363 229.515 143.159 236.739C134.498 241.45 150.342 245.847 150.342 245.847C150.342 245.847 116.118 240.508 113.161 249.826C111.048 256.421 124.04 254.746 124.04 254.746C124.04 254.746 99.0063 262.494 99.9569 270.241C100.802 277.884 111.576 272.021 111.576 272.021C111.576 272.021 97.6331 283.851 86.7533 278.617C75.8736 273.382 84.6408 286.155 91.2954 287.201C91.2954 287.201 78.8312 287.725 80.7325 293.169C82.6338 298.613 98.3725 297.357 102.386 295.996C102.386 295.996 99.7457 306.151 107.985 301.545C116.224 297.043 121.505 280.292 121.505 280.292C121.505 280.292 118.336 288.353 124.146 287.83C129.955 287.306 134.814 263.017 134.814 263.017C134.814 263.017 132.807 272.44 136.821 272.963C140.73 273.487 147.49 257.782 156.468 258.096C156.468 258.096 150.131 265.111 157.313 265.634C167.559 266.158 177.805 273.487 177.805 273.487Z" fill="#141516"/>
<path d="M479.588 315.365L450.117 305.105V245.324H439.554V305.105L410.084 315.365C409.345 315.679 408.816 316.307 408.816 317.145V318.924C408.816 320.181 409.978 321.018 411.246 320.704L441.561 311.91L442.089 319.134C442.195 320.181 443.04 321.018 444.096 321.018H445.681C446.737 321.018 447.582 320.181 447.688 319.134L448.216 311.91L478.531 320.704C479.693 321.018 480.961 320.181 480.961 318.924V317.145C480.855 316.307 480.327 315.679 479.588 315.365Z" fill="#141516" stroke="#141516" stroke-miterlimit="10"/>
<path d="M414.94 327.404C414.94 330.755 412.194 333.477 408.814 333.477C405.434 333.477 402.688 330.755 402.688 327.404C402.688 324.054 405.434 321.332 408.814 321.332C412.194 321.332 414.94 324.054 414.94 327.404Z" fill="#141516" stroke="#141516" stroke-miterlimit="10"/>
<path d="M411.982 327.405C411.982 329.184 410.503 330.545 408.813 330.545C407.123 330.545 405.645 329.08 405.645 327.405C405.645 325.625 407.123 324.264 408.813 324.264C410.503 324.264 411.982 325.625 411.982 327.405Z" fill="#6985D1" stroke="#141516" stroke-miterlimit="10" stroke-linecap="round" stroke-linejoin="round"/>
<path d="M450.96 327.404C450.96 330.755 448.214 333.477 444.834 333.477C441.453 333.477 438.707 330.755 438.707 327.404C438.707 324.054 441.453 321.332 444.834 321.332C448.214 321.332 450.96 324.054 450.96 327.404Z" fill="#141516" stroke="#141516" stroke-miterlimit="10"/>
<path d="M448.002 327.405C448.002 329.184 446.523 330.545 444.833 330.545C443.143 330.545 441.664 329.08 441.664 327.405C441.664 325.625 443.143 324.264 444.833 324.264C446.523 324.264 448.002 325.625 448.002 327.405Z" fill="#6985D1" stroke="#141516" stroke-miterlimit="10" stroke-linecap="round" stroke-linejoin="round"/>
<path d="M486.98 327.404C486.98 330.755 484.233 333.477 480.853 333.477C477.473 333.477 474.727 330.755 474.727 327.404C474.727 324.054 477.473 321.332 480.853 321.332C484.233 321.332 486.98 324.054 486.98 327.404Z" fill="#141516" stroke="#141516" stroke-miterlimit="10"/>
<path d="M484.127 327.405C484.127 329.184 482.648 330.545 480.958 330.545C479.268 330.545 477.789 329.08 477.789 327.405C477.789 325.625 479.268 324.264 480.958 324.264C482.648 324.264 484.127 325.625 484.127 327.405Z" fill="#6985D1" stroke="#141516" stroke-miterlimit="10" stroke-linecap="round" stroke-linejoin="round"/>
<path d="M463.846 201.143H456.98V245.219H463.846V201.143Z" fill="#141516" stroke="#141516" stroke-miterlimit="10"/>
<path d="M486.558 217.161H432.581C429.941 217.161 427.828 215.067 427.828 212.45V180.623C427.828 175.179 432.265 170.677 437.863 170.677H481.171C486.663 170.677 491.205 175.074 491.205 180.623V212.45C491.311 215.067 489.198 217.161 486.558 217.161Z" fill="#858585" stroke="#141516" stroke-miterlimit="10" stroke-linecap="round" stroke-linejoin="round"/>
<path d="M484.128 212.554V180.727C484.128 175.283 479.692 170.781 474.093 170.781H437.968C432.476 170.781 427.934 175.178 427.934 180.727V212.554C427.934 215.172 430.046 217.266 432.687 217.266H479.375C482.015 217.161 484.128 215.067 484.128 212.554Z" fill="#999999" stroke="#141516" stroke-width="0.75" stroke-miterlimit="10" stroke-linecap="round" stroke-linejoin="round"/>
<path d="M483.916 252.653H425.82V237.891H479.268C484.022 237.891 487.824 241.66 487.824 246.371V248.779C487.824 250.873 486.134 252.653 483.916 252.653Z" fill="#858585" stroke="#141516" stroke-miterlimit="10" stroke-linecap="round" stroke-linejoin="round"/>
<path d="M459.94 252.653H405.752C403.534 252.653 401.844 250.873 401.844 248.779V246.371C401.844 241.66 405.646 237.891 410.4 237.891H455.292C460.045 237.891 463.848 241.66 463.848 246.371V248.779C463.848 250.873 462.052 252.653 459.94 252.653Z" fill="#999999" stroke="#141516" stroke-width="0.75" stroke-miterlimit="10" stroke-linecap="round" stroke-linejoin="round"/>
<path d="M126.575 28.0826C126.258 27.9779 125.941 28.3966 125.941 28.9201C125.941 91.5273 125.941 154.135 125.941 216.742C125.941 217.265 126.153 217.684 126.575 217.579C187.945 205.33 249.421 192.976 310.792 180.727C311.109 180.622 311.425 180.308 311.425 179.994C311.425 141.885 311.425 103.777 311.425 65.6678C311.425 65.3537 311.214 65.0397 310.792 64.935C249.421 52.6857 188.051 40.3318 126.575 28.0826Z" fill="white"/>
<path d="M148.438 214.962C148.438 153.611 148.438 92.1556 148.438 30.8047" stroke="#141516" stroke-width="0.75" stroke-miterlimit="10"/>
<path d="M195.23 205.33C195.23 150.366 195.23 95.2966 195.23 40.332" stroke="#141516" stroke-width="0.75" stroke-miterlimit="10"/>
<path d="M171.887 35.5156C171.887 93.7257 171.887 151.936 171.887 210.146" stroke="#141516" stroke-width="0.75" stroke-miterlimit="10"/>
<path d="M242.129 195.802C242.129 147.119 242.129 98.5413 242.129 49.8584" stroke="#141516" stroke-width="0.75" stroke-miterlimit="10"/>
<path d="M218.68 45.1475C218.68 96.9712 218.68 148.795 218.68 200.619" stroke="#141516" stroke-width="0.75" stroke-miterlimit="10"/>
<path d="M289.031 186.276C289.031 143.98 289.031 101.683 289.031 59.4912" stroke="#141516" stroke-width="0.75" stroke-miterlimit="10"/>
<path d="M265.582 54.6748C265.582 100.112 265.582 145.55 265.582 191.092" stroke="#141516" stroke-width="0.75" stroke-miterlimit="10"/>
<path d="M124.988 64.7256C187.521 72.3683 250.053 80.011 312.479 87.6536" stroke="#141516" stroke-width="0.75" stroke-miterlimit="10"/>
<path d="M312.479 111.106C249.947 108.593 187.415 105.976 124.988 103.463" stroke="#141516" stroke-width="0.75" stroke-miterlimit="10"/>
<path d="M124.988 142.199C187.521 139.687 250.053 137.069 312.479 134.557" stroke="#141516" stroke-width="0.75" stroke-miterlimit="10"/>
<path d="M312.479 158.009C249.947 165.651 187.415 173.294 124.988 180.937" stroke="#141516" stroke-width="0.75" stroke-miterlimit="10"/>
<path d="M310.791 182.926C249.421 195.699 187.945 208.367 126.574 221.139C125.096 221.453 123.828 219.674 123.828 217.161C123.828 154.24 123.828 91.4229 123.828 28.5016C123.828 25.989 125.096 24.2092 126.574 24.5232C187.945 37.2959 249.421 49.964 310.791 62.7367C312.27 63.0508 313.537 64.5165 313.537 65.9822C313.537 103.777 313.537 141.676 313.537 179.471C313.537 181.146 312.375 182.612 310.791 182.926ZM126.574 28.0828C126.258 27.9781 125.941 28.3969 125.941 28.9204C125.941 91.5276 125.941 154.135 125.941 216.742C125.941 217.266 126.152 217.684 126.574 217.58C187.945 205.33 249.421 192.976 310.791 180.727C311.108 180.623 311.425 180.308 311.425 179.994C311.425 141.886 311.425 103.777 311.425 65.6681C311.425 65.354 311.214 65.04 310.791 64.9353C249.421 52.686 188.05 40.3321 126.574 28.0828Z" fill="white" stroke="#141516" stroke-miterlimit="10"/>
<path d="M144.214 214.02C138.088 215.276 135.025 215.8 129.004 217.056C129.004 204.283 129.004 191.406 129.004 178.633C135.13 177.9 138.194 177.586 144.214 176.854C144.214 189.312 144.214 201.666 144.214 214.02Z" fill="#6985D1" stroke="#141516" stroke-miterlimit="10" stroke-linecap="round" stroke-linejoin="round"/>
<path d="M167.664 209.413C161.537 210.67 158.474 211.193 152.453 212.449C152.453 196.012 152.453 179.575 152.453 163.138C158.58 162.615 161.643 162.301 167.664 161.777C167.664 177.586 167.664 193.5 167.664 209.413Z" fill="#6985D1" stroke="#141516" stroke-miterlimit="10" stroke-linecap="round" stroke-linejoin="round"/>
<path d="M191.113 204.702C184.986 205.959 181.923 206.482 175.902 207.738C175.902 192.139 175.902 176.644 175.902 161.045C182.029 160.521 185.092 160.207 191.113 159.684C191.113 174.655 191.113 189.626 191.113 204.702Z" fill="#6985D1" stroke="#141516" stroke-miterlimit="10" stroke-linecap="round" stroke-linejoin="round"/>
<path d="M214.562 199.991C208.436 201.247 205.372 201.771 199.352 203.027C199.352 185.02 199.352 167.117 199.352 149.109C205.478 148.691 208.541 148.481 214.562 148.062C214.562 165.442 214.562 182.716 214.562 199.991Z" fill="#6985D1" stroke="#141516" stroke-miterlimit="10" stroke-linecap="round" stroke-linejoin="round"/>
<path d="M238.011 195.28C231.885 196.536 228.822 197.06 222.801 198.316C222.801 177.796 222.801 157.276 222.801 136.756C228.927 136.547 231.99 136.442 238.011 136.232C238.011 155.915 238.011 175.598 238.011 195.28Z" fill="#6985D1" stroke="#141516" stroke-miterlimit="10" stroke-linecap="round" stroke-linejoin="round"/>
<path d="M261.461 190.569C255.334 191.825 252.271 192.348 246.25 193.605C246.25 164.709 246.25 135.918 246.25 107.022C252.376 107.337 255.44 107.441 261.461 107.651C261.461 135.395 261.461 163.034 261.461 190.569Z" fill="#6985D1" stroke="#141516" stroke-miterlimit="10" stroke-linecap="round" stroke-linejoin="round"/>
<path d="M284.914 185.962C278.787 187.219 275.724 187.742 269.703 188.999C269.703 158.951 269.703 128.799 269.703 98.752C275.83 99.1707 278.893 99.3801 284.914 99.9036C284.914 128.485 284.914 157.171 284.914 185.962Z" fill="#6985D1" stroke="#141516" stroke-miterlimit="10" stroke-linecap="round" stroke-linejoin="round"/>
<path d="M308.363 181.251C302.236 182.507 299.173 183.031 293.152 184.287C293.152 150.89 293.152 117.492 293.152 84.1992C299.279 84.9321 302.342 85.3509 308.363 86.0837C308.363 117.806 308.363 149.528 308.363 181.251Z" fill="#6985D1" stroke="#141516" stroke-miterlimit="10" stroke-linecap="round" stroke-linejoin="round"/>
<path d="M302.976 75.2996C298.645 74.5668 296.532 74.2527 292.307 73.6245C291.462 73.5198 290.828 74.0433 290.828 74.9856C290.828 75.6137 290.828 75.8231 290.828 76.4513C290.828 77.2888 291.462 78.1264 292.307 78.2311C292.835 78.3358 293.046 78.3358 293.469 78.4405C286.603 82.2095 283.223 84.1987 276.357 88.4911C266.851 91.2132 262.203 92.6789 252.696 96.0291C244.563 105.242 236.746 114.769 229.247 124.401C220.057 128.589 215.515 130.788 206.325 135.499C197.136 139.582 192.488 141.781 183.193 146.282C173.792 146.806 169.144 147.12 159.743 147.643C150.236 153.297 145.483 156.228 135.977 162.405C136.505 165.023 136.822 166.279 137.35 168.792C146.539 162.719 151.187 159.788 160.482 154.134C169.883 153.506 174.531 153.192 183.826 152.459C193.333 147.643 198.086 145.34 207.593 141.048C217.205 136.022 221.958 133.614 231.571 129.217C239.07 119.481 246.887 109.953 255.02 100.636C264.315 97.2855 268.963 95.8197 278.258 92.993C285.441 88.3864 289.033 86.2926 296.215 82.3142C295.898 83.047 295.793 83.3611 295.476 84.094C295.159 84.8268 295.582 85.7691 296.321 86.1879C296.849 86.5019 297.06 86.6066 297.589 86.9207C298.328 87.3395 299.173 87.0254 299.49 86.2926C301.074 82.2095 301.919 80.325 303.504 76.3466C303.715 75.8231 303.398 75.2996 302.976 75.2996Z" fill="#999999" stroke="#141516" stroke-width="0.75" stroke-miterlimit="10" stroke-linecap="round" stroke-linejoin="round"/>
<path d="M302.976 72.4737C298.645 71.7408 296.532 71.4267 292.307 70.6939C291.462 70.5892 290.828 71.1127 290.828 72.0549C290.828 72.6831 290.828 72.8925 290.828 73.5206C290.828 74.3582 291.462 75.1957 292.307 75.3004C292.835 75.4051 293.046 75.4051 293.469 75.5098C286.603 79.1741 283.223 81.1633 276.357 85.4558C266.851 88.0731 262.203 89.5389 252.696 92.6797C244.669 101.893 236.852 111.315 229.247 120.842C220.057 124.926 215.515 127.124 206.325 131.731C197.136 135.709 192.488 137.803 183.193 142.305C173.792 142.724 169.144 142.933 159.743 143.352C150.236 148.901 145.483 151.832 135.977 157.904C136.505 160.522 136.822 161.778 137.35 164.291C146.539 158.218 151.187 155.392 160.482 149.843C169.883 149.319 174.531 149.005 183.826 148.377C193.333 143.666 198.086 141.467 207.593 137.175C217.205 132.254 221.958 129.951 231.571 125.554C239.176 115.922 246.992 106.499 255.02 97.2862C264.315 94.0407 268.963 92.575 278.258 89.8529C285.441 85.3511 289.033 83.2572 296.215 79.3835C295.898 80.1164 295.793 80.4304 295.476 81.1633C295.159 81.8962 295.582 82.8384 296.321 83.2572C296.849 83.5713 297.06 83.676 297.589 83.9901C298.328 84.4088 299.173 84.0948 299.49 83.3619C301.074 79.3835 301.919 77.3943 303.504 73.4159C303.715 73.1018 303.398 72.5784 302.976 72.4737Z" fill="#141516"/>
<path d="M357.375 308.246L358.114 321.751H369.945L369.734 306.989L357.375 308.246Z" fill="white" stroke="#141516" stroke-miterlimit="10" stroke-linecap="round" stroke-linejoin="round"/>
<path d="M356.952 168.688C356.952 168.688 355.578 186.591 355.367 192.558C355.367 193.71 355.473 195.908 355.367 196.955C354.522 209.728 350.086 239.88 350.614 250.14C351.142 260.4 356.529 311.91 356.529 311.91C356.529 311.91 364.24 313.585 371.106 310.863C371.106 310.863 372.479 271.498 369.205 250.663C369.205 250.663 372.479 239.985 373.852 226.898C375.225 213.811 377.866 167.013 377.866 167.013L356.952 168.688Z" fill="#141516" stroke="#141516" stroke-miterlimit="10"/>
<path d="M355.156 309.921L355.579 314.528L372.268 313.585L372.691 308.874L355.156 309.921Z" fill="#141516" stroke="#141516" stroke-miterlimit="10"/>
<path d="M357.69 320.39H370.154C370.999 320.39 371.739 321.018 371.95 321.751L374.168 329.917C374.485 331.801 373.112 333.476 371.211 333.476H339.733C338.571 333.476 338.043 332.22 338.783 331.383C339.945 330.126 341.846 328.556 344.487 328.032C349.029 327.09 353.676 324.054 356.106 321.122C356.528 320.599 357.162 320.39 357.69 320.39Z" fill="#6985D1" stroke="#141516" stroke-miterlimit="10" stroke-linecap="round" stroke-linejoin="round"/>
<path d="M369.098 331.383C366.14 331.383 347.127 331.383 342.057 331.383C340.473 331.383 339.839 331.069 339.628 330.65C339.416 330.859 339.099 331.174 338.888 331.383C338.149 332.221 338.677 333.477 339.839 333.477H371.211C373.112 333.477 374.485 331.802 374.168 329.917L373.957 329.289C373.429 331.383 371.527 331.383 369.098 331.383Z" fill="white" stroke="#141516" stroke-miterlimit="10" stroke-linecap="round" stroke-linejoin="round"/>
<path d="M368.993 309.083L358.324 309.711" stroke="#7F7F7F" stroke-width="0.75" stroke-linecap="round" stroke-linejoin="round"/>
<path d="M387.164 308.246L389.91 321.751H401.741L400.156 306.885L387.164 308.246Z" fill="white" stroke="#141516" stroke-miterlimit="10" stroke-linecap="round" stroke-linejoin="round"/>
<path d="M393.5 165.023C393.5 165.023 396.352 190.15 393.395 195.908C393.395 195.908 394.979 229.41 394.134 250.349C394.134 250.349 399.838 268.147 401.317 312.433C401.317 312.433 393.606 314.841 387.163 313.48C387.163 313.48 374.593 261.761 373.537 251.71C372.48 241.555 369.1 200.41 369.1 200.41C369.1 200.41 364.03 194.233 363.924 190.045C363.819 185.858 362.234 177.482 362.234 177.482L362.868 168.583L393.5 165.023Z" fill="#141516" stroke="#141516" stroke-miterlimit="10"/>
<path d="M385.156 310.549L386.001 315.155L402.691 314.213V309.502L385.156 310.549Z" fill="#141516" stroke="#141516" stroke-miterlimit="10"/>
<path d="M399.627 309.606L388.219 310.339" stroke="#7F7F7F" stroke-width="0.75" stroke-linecap="round" stroke-linejoin="round"/>
<path d="M389.171 320.39H401.635C402.48 320.39 403.219 321.018 403.431 321.751L405.649 329.917C405.966 331.801 404.592 333.476 402.691 333.476H371.214C370.052 333.476 369.524 332.22 370.263 331.383C371.425 330.126 373.326 328.556 375.967 328.032C380.509 327.09 385.157 324.054 387.586 321.122C388.009 320.599 388.537 320.39 389.171 320.39Z" fill="#6985D1" stroke="#141516" stroke-miterlimit="10" stroke-linecap="round" stroke-linejoin="round"/>
<path d="M400.473 331.383C397.515 331.383 378.502 331.383 373.432 331.383C371.848 331.383 371.214 331.069 371.002 330.65C370.791 330.859 370.474 331.174 370.263 331.383C369.524 332.221 370.052 333.477 371.214 333.477H402.691C404.592 333.477 405.966 331.802 405.649 329.917L405.437 329.289C404.804 331.383 402.902 331.383 400.473 331.383Z" fill="white" stroke="#141516" stroke-miterlimit="10" stroke-linecap="round" stroke-linejoin="round"/>
<path d="M397.301 153.507L403.85 145.341L409.448 151.518L399.73 160.836L397.301 153.507Z" fill="white" stroke="#141516" stroke-miterlimit="10" stroke-linecap="round" stroke-linejoin="round"/>
<path d="M360.752 97.1815L359.273 90.8998C359.273 90.8998 369.097 75.9286 369.414 79.2788C370.47 89.7482 376.28 94.8782 376.28 94.8782L365.506 96.7627L360.752 97.1815Z" fill="white" stroke="#141516" stroke-miterlimit="10" stroke-linecap="round" stroke-linejoin="round"/>
<path d="M374.169 73.2068C373.007 72.0552 371.95 72.5787 371.211 73.2068C371.105 67.8674 370.683 60.9576 370.683 60.9576L367.831 58.6543L360.226 58.1309L352.832 59.5966L347.973 62.528C347.973 62.528 347.973 63.7844 347.973 64.3078C347.973 65.8782 348.29 70.4848 348.29 70.4848C348.29 70.4848 346.388 93.7269 356.423 93.7269C364.345 93.7269 368.887 85.6655 370.472 80.1167C374.38 79.6979 376.492 75.4054 374.169 73.2068Z" fill="white" stroke="#141516" stroke-miterlimit="10" stroke-linecap="round" stroke-linejoin="round"/>
<path d="M353.466 72.3691C353.466 72.3691 354.839 74.7771 352.516 79.6977C352.516 79.6977 353.466 80.5353 354.839 80.7447C356.213 80.9541 356.424 82.001 356.424 82.001" stroke="#141516" stroke-width="0.75" stroke-miterlimit="10" stroke-linecap="round" stroke-linejoin="round"/>
<path d="M356.949 84.4087C356.949 84.4087 359.696 84.3041 361.597 82.1055" stroke="#141516" stroke-width="0.75" stroke-miterlimit="10" stroke-linecap="round" stroke-linejoin="round"/>
<path d="M347.129 67.5538C349.347 66.7162 349.981 68.6007 351.46 68.7054" stroke="#141516" stroke-width="0.75" stroke-miterlimit="10" stroke-linecap="round" stroke-linejoin="round"/>
<path d="M354.734 68.4959C356.319 67.9725 357.058 65.4598 359.91 66.2974" stroke="#141516" stroke-width="0.75" stroke-miterlimit="10" stroke-linecap="round" stroke-linejoin="round"/>
<path d="M351.143 73.4165C351.143 74.1493 350.826 74.6728 350.403 74.6728C349.981 74.6728 349.664 74.1493 349.664 73.4165C349.664 72.6836 349.981 72.1602 350.403 72.1602C350.826 72.1602 351.143 72.6836 351.143 73.4165Z" fill="#141516"/>
<path d="M358.323 72.6838C358.323 73.4167 358.006 73.9401 357.583 73.9401C357.161 73.9401 356.844 73.4167 356.844 72.6838C356.844 71.9509 357.161 71.4275 357.583 71.4275C358.006 71.3228 358.323 71.9509 358.323 72.6838Z" fill="#141516"/>
<path d="M352.516 72.8929C352.727 75.0915 351.354 76.976 349.558 77.0806C347.762 77.1853 346.072 75.6149 345.967 73.4163C345.756 71.2178 347.129 69.3333 348.924 69.2286C350.72 69.1239 352.305 70.6943 352.516 72.8929Z" stroke="#141516" stroke-width="0.75" stroke-miterlimit="10" stroke-linecap="round" stroke-linejoin="round"/>
<path d="M362.024 71.5316C362.235 73.7302 360.862 75.6147 359.066 75.7194C357.27 75.8241 355.58 74.2537 355.475 72.0551C355.263 69.8565 356.637 67.972 358.432 67.8673C360.122 67.6579 361.812 69.333 362.024 71.5316Z" stroke="#141516" stroke-width="0.75" stroke-miterlimit="10" stroke-linecap="round" stroke-linejoin="round"/>
<path d="M352.516 72.8928C352.516 72.8928 353.466 72.0552 355.368 72.3693" stroke="#141516" stroke-width="0.75" stroke-miterlimit="10" stroke-linecap="round" stroke-linejoin="round"/>
<path d="M362.023 71.2176C362.023 71.2176 367.622 70.5894 369.417 71.0082C370.157 71.2176 371.953 72.788 371.953 72.788" stroke="#141516" stroke-width="0.75" stroke-miterlimit="10" stroke-linecap="round" stroke-linejoin="round"/>
<path d="M367.197 60.3294C367.197 60.3294 353.782 68.705 337.727 60.5388C337.727 60.5388 343.325 59.2825 346.599 56.351C350.508 52.7914 359.169 49.86 369.098 56.8745C369.098 56.8745 379.661 61.0623 372.267 71.5317C371.422 72.788 370.26 77.3946 370.26 77.3946L368.253 77.9181C368.253 77.9181 368.887 72.8927 368.042 70.3801C367.091 67.7627 365.19 65.1454 367.197 60.3294Z" fill="#141516" stroke="#141516" stroke-miterlimit="10" stroke-linecap="round" stroke-linejoin="round"/>
<path d="M350.613 60.9576C355.895 60.7483 362.444 59.9107 367.408 57.6074" stroke="#7F7F7F" stroke-width="0.75" stroke-linecap="round" stroke-linejoin="round"/>
<path d="M341.637 60.8535C341.637 60.8535 343.855 61.0629 347.129 61.0629" stroke="#7F7F7F" stroke-width="0.75" stroke-linecap="round" stroke-linejoin="round"/>
<path d="M348.082 58.3407C351.251 57.2938 357.377 55.828 364.349 56.7703" stroke="#7F7F7F" stroke-width="0.75" stroke-linecap="round" stroke-linejoin="round"/>
<path d="M371.002 67.6587C371.213 63.4709 369.945 60.3301 369.945 60.3301" stroke="#7F7F7F" stroke-width="0.75" stroke-linecap="round" stroke-linejoin="round"/>
<path d="M370.473 71.2185C370.684 70.5903 370.79 69.9622 370.895 69.334" stroke="#7F7F7F" stroke-width="0.75" stroke-linecap="round" stroke-linejoin="round"/>
<path d="M329.698 88.7015L333.923 84.3044C333.923 84.3044 342.162 83.9903 343.535 82.9434C344.909 81.8964 345.859 79.2791 348.5 78.7556C351.246 78.2321 348.394 76.2429 345.754 76.9758C343.113 77.8133 340.472 79.5931 340.895 76.9758C341.317 74.3584 339.838 69.6472 340.472 69.1237C341.106 68.6002 344.169 72.1598 345.859 70.9035C347.549 69.6472 344.697 67.7627 342.902 66.0876C341.106 64.4125 340.895 63.9937 339.627 64.2031C338.36 64.3078 336.247 64.6218 336.775 66.4017C336.775 66.4017 335.719 65.8782 334.451 66.9251C334.451 66.9251 332.339 66.297 331.388 67.5533C331.388 67.5533 329.276 67.2392 328.536 68.8096C327.691 70.38 329.487 78.0227 328.536 79.5931C327.586 81.1636 325.262 83.0481 325.262 83.0481L329.698 88.7015Z" fill="white" stroke="#141516" stroke-miterlimit="10" stroke-linecap="round" stroke-linejoin="round"/>
<path d="M335.402 78.7558C335.402 78.7558 337.832 77.2901 340.156 78.1276" stroke="#141516" stroke-width="0.75" stroke-miterlimit="10" stroke-linecap="round" stroke-linejoin="round"/>
<path d="M338.889 66.8203C338.889 66.8203 338.784 67.0297 339.946 68.0766" stroke="#141516" stroke-width="0.75" stroke-miterlimit="10" stroke-linecap="round" stroke-linejoin="round"/>
<path d="M338.148 68.0771C338.148 68.0771 341 71.6368 340.049 72.1602C338.782 72.8931 337.092 70.5898 335.296 68.81C335.296 68.81 339.204 72.6837 337.831 73.3119C336.352 74.0447 334.24 70.3804 332.655 69.4382C332.655 69.4382 335.93 72.8931 334.768 73.94C333.5 75.1964 332.444 70.4851 330.648 71.8461" stroke="#141516" stroke-width="0.75" stroke-miterlimit="10" stroke-linecap="round" stroke-linejoin="round"/>
<path d="M366.773 187.219C366.773 186.172 366.773 185.021 366.773 183.974" stroke="#7F7F7F" stroke-width="0.75" stroke-linecap="round" stroke-linejoin="round"/>
<path d="M370.895 224.7C369.839 212.241 368.888 200.515 368.888 200.515C368.888 200.515 366.564 197.06 366.775 190.15" stroke="#7F7F7F" stroke-width="0.75" stroke-linecap="round" stroke-linejoin="round"/>
<path d="M371.634 233.599C371.422 231.819 371.317 229.934 371.105 228.05" stroke="#7F7F7F" stroke-width="0.75" stroke-linecap="round" stroke-linejoin="round"/>
<path d="M359.91 95.9255C359.91 95.9255 351.882 96.9724 347.023 99.4851C347.023 99.4851 344.066 98.0193 342.375 100.951C342.375 100.951 331.496 102.312 318.503 105.139C318.503 105.139 321.989 101.16 332.129 87.864C332.129 87.864 327.904 83.8856 326.637 79.9072C326.637 79.9072 297.906 108.908 300.546 115.189C303.715 122.623 346.284 115.817 346.284 115.817C346.284 115.817 350.086 141.886 353.361 156.334C356.635 170.782 356.53 172.143 356.53 172.143C356.53 172.143 367.938 176.645 394.134 169.316C394.134 169.316 397.408 144.922 395.824 116.341C395.824 116.341 407.865 125.449 412.724 128.904C412.724 128.904 404.485 140.421 399.204 149.948C399.204 149.948 403.006 151.518 405.647 156.858C405.647 156.858 428.991 131.836 427.09 125.24C425.188 118.644 396.457 96.8677 396.457 96.8677C396.457 96.8677 396.035 93.3081 391.915 94.9832C391.915 94.9832 385.049 93.8316 376.071 94.2503L365.719 96.8677L359.91 95.9255Z" fill="#4143EC"/>
<mask id="mask0_3508_1747" style="mask-type:luminance" maskUnits="userSpaceOnUse" x="300" y="79" width="128" height="95">
<path d="M359.91 95.9255C359.91 95.9255 351.882 96.9724 347.023 99.4851C347.023 99.4851 344.066 98.0193 342.375 100.951C342.375 100.951 331.496 102.312 318.503 105.139C318.503 105.139 321.989 101.16 332.129 87.864C332.129 87.864 327.904 83.8856 326.637 79.9072C326.637 79.9072 297.906 108.908 300.546 115.189C303.715 122.623 346.284 115.817 346.284 115.817C346.284 115.817 350.086 141.886 353.361 156.334C356.635 170.782 356.53 172.143 356.53 172.143C356.53 172.143 367.938 176.645 394.134 169.316C394.134 169.316 397.408 144.922 395.824 116.341C395.824 116.341 407.865 125.449 412.724 128.904C412.724 128.904 404.485 140.421 399.204 149.948C399.204 149.948 403.006 151.518 405.647 156.858C405.647 156.858 428.991 131.836 427.09 125.24C425.188 118.644 396.457 96.8677 396.457 96.8677C396.457 96.8677 396.035 93.3081 391.915 94.9832C391.915 94.9832 385.049 93.8316 376.071 94.2503L365.719 96.8677L359.91 95.9255Z" fill="white"/>
</mask>
<g mask="url(#mask0_3508_1747)">
<path opacity="0.3" d="M393.501 157.904C393.501 157.904 388.325 160.626 390.332 165.128C392.234 169.63 374.171 175.807 361.707 161.987C349.348 148.168 348.926 107.651 345.44 106.918C341.954 106.185 344.278 112.886 328.962 114.037C313.54 115.189 316.92 109.745 314.174 108.803C311.533 107.86 306.569 114.456 303.083 114.037C301.71 113.828 301.182 112.886 301.076 111.629C300.442 113.2 300.231 114.456 300.548 115.294C303.717 122.727 346.285 115.922 346.285 115.922C346.285 115.922 350.088 141.991 353.362 156.439C356.637 170.886 356.531 172.247 356.531 172.247C356.531 172.247 367.939 176.749 394.135 169.421C394.135 169.421 394.558 166.07 395.086 160.522L393.501 157.904Z" fill="#141516"/>
</g>
<mask id="mask1_3508_1747" style="mask-type:luminance" maskUnits="userSpaceOnUse" x="300" y="79" width="128" height="95">
<path d="M359.91 95.9255C359.91 95.9255 351.882 96.9724 347.023 99.4851C347.023 99.4851 344.066 98.0193 342.375 100.951C342.375 100.951 331.496 102.312 318.503 105.139C318.503 105.139 321.989 101.16 332.129 87.864C332.129 87.864 327.904 83.8856 326.637 79.9072C326.637 79.9072 297.906 108.908 300.546 115.189C303.715 122.623 346.284 115.817 346.284 115.817C346.284 115.817 350.086 141.886 353.361 156.334C356.635 170.782 356.53 172.143 356.53 172.143C356.53 172.143 367.938 176.645 394.134 169.316C394.134 169.316 397.408 144.922 395.824 116.341C395.824 116.341 407.865 125.449 412.724 128.904C412.724 128.904 404.485 140.421 399.204 149.948C399.204 149.948 403.006 151.518 405.647 156.858C405.647 156.858 428.991 131.836 427.09 125.24C425.188 118.644 396.457 96.8677 396.457 96.8677C396.457 96.8677 396.035 93.3081 391.915 94.9832C391.915 94.9832 385.049 93.8316 376.071 94.2503L365.719 96.8677L359.91 95.9255Z" fill="white"/>
</mask>
<g mask="url(#mask1_3508_1747)">
<path opacity="0.3" d="M415.681 121.889C414.836 116.341 410.716 120.005 408.075 121.052C405.435 122.099 398.886 111.42 395.822 111.001C392.654 110.582 395.822 116.341 395.822 116.341C395.822 116.341 407.864 125.449 412.723 128.904C412.723 128.904 411.561 130.579 409.765 133.092C414.624 126.287 416.42 126.915 415.681 121.889Z" fill="#141516"/>
</g>
<path d="M359.91 95.9255C359.91 95.9255 351.882 96.9724 347.023 99.4851C347.023 99.4851 344.066 98.0193 342.375 100.951C342.375 100.951 331.496 102.312 318.503 105.139C318.503 105.139 321.989 101.16 332.129 87.864C332.129 87.864 327.904 83.8856 326.637 79.9072C326.637 79.9072 297.906 108.908 300.546 115.189C303.715 122.623 346.284 115.817 346.284 115.817C346.284 115.817 350.086 141.886 353.361 156.334C356.635 170.782 356.53 172.143 356.53 172.143C356.53 172.143 367.938 176.645 394.134 169.316C394.134 169.316 397.408 144.922 395.824 116.341C395.824 116.341 407.865 125.449 412.724 128.904C412.724 128.904 404.485 140.421 399.204 149.948C399.204 149.948 403.006 151.518 405.647 156.858C405.647 156.858 428.991 131.836 427.09 125.24C425.188 118.644 396.457 96.8677 396.457 96.8677C396.457 96.8677 396.035 93.3081 391.915 94.9832C391.915 94.9832 385.049 93.8316 376.071 94.2503L365.719 96.8677L359.91 95.9255Z" stroke="#141516" stroke-miterlimit="10" stroke-linecap="round" stroke-linejoin="round"/>
<path d="M345.016 104.615C345.016 104.615 345.333 107.861 345.966 112.886" stroke="#141516" stroke-width="0.75" stroke-miterlimit="10" stroke-linecap="round" stroke-linejoin="round"/>
<path d="M393.18 113.933C390.751 111.944 391.173 107.128 391.912 103.673" stroke="#141516" stroke-width="0.75" stroke-miterlimit="10" stroke-linecap="round" stroke-linejoin="round"/>
<path d="M392.97 99.7988C392.97 99.7988 392.758 100.532 392.441 101.579" stroke="#141516" stroke-width="0.75" stroke-miterlimit="10" stroke-linecap="round" stroke-linejoin="round"/>
<path d="M416.633 124.193C415.999 124.821 415.365 125.449 414.943 126.078C414.414 126.601 413.569 126.392 413.358 125.659C413.041 124.298 412.724 122.413 412.936 120.319" stroke="#141516" stroke-width="0.75" stroke-miterlimit="10" stroke-linecap="round" stroke-linejoin="round"/>
<path d="M316.812 106.918C315.228 108.384 313.221 110.163 311.848 111.001" stroke="#141516" stroke-width="0.75" stroke-miterlimit="10" stroke-linecap="round" stroke-linejoin="round"/>
<path d="M381.667 168.687C380.928 168.478 380.294 168.164 379.555 167.745" stroke="#141516" stroke-width="0.75" stroke-miterlimit="10" stroke-linecap="round" stroke-linejoin="round"/>
<path d="M357.16 143.666C360.963 150.052 368.04 160.417 376.385 166.071" stroke="#141516" stroke-width="0.75" stroke-miterlimit="10" stroke-linecap="round" stroke-linejoin="round"/>
<path d="M354.203 138.222C354.203 138.222 354.731 139.269 355.576 140.839" stroke="#141516" stroke-width="0.75" stroke-miterlimit="10" stroke-linecap="round" stroke-linejoin="round"/>
<path d="M359.065 94.7736L365.72 95.9252L375.966 92.6797L379.029 94.3548L371.318 100.951L365.72 97.4956L361.178 100.951L357.27 96.2393L359.065 94.7736Z" fill="#4143EC" stroke="#141516" stroke-miterlimit="10" stroke-linecap="round" stroke-linejoin="round"/>
<path d="M323.68 80.7447L326.743 77.918L334.348 87.2358L331.391 90.9001L323.68 80.7447Z" fill="#4143EC" stroke="#141516" stroke-miterlimit="10" stroke-linecap="round" stroke-linejoin="round"/>
<path d="M399.836 146.911L397.301 149.738L405.434 159.37L408.075 156.543L399.836 146.911Z" fill="#4143EC" stroke="#141516" stroke-miterlimit="10" stroke-linecap="round" stroke-linejoin="round"/>
<path d="M396.985 150.89C396.562 150.157 395.823 148.063 394.978 148.063C393.393 147.958 391.386 151.413 390.858 152.984C390.647 153.716 390.119 155.182 390.33 155.915C390.436 156.229 391.07 157.067 391.386 156.962C392.02 156.857 392.337 155.182 392.654 154.659C393.077 153.926 395.083 152.146 395.083 152.146C395.083 152.146 394.133 155.077 393.605 155.915C392.865 157.067 389.168 160.731 392.443 161.359C392.443 161.359 391.809 163.244 393.605 163.139C395.4 163.034 397.302 159.998 397.302 159.998C397.302 159.998 397.09 160.836 396.14 162.301C395.4 163.558 393.71 163.767 394.344 164.395C395.189 165.233 396.668 164.919 398.041 163.976C399.414 163.034 400.259 162.092 400.787 159.998C401.527 157.276 398.147 153.088 396.985 150.89Z" fill="white" stroke="#141516" stroke-miterlimit="10" stroke-linecap="round" stroke-linejoin="round"/>
<path d="M393.5 160.626C393.5 160.626 395.401 158.846 396.352 157.59C397.303 156.334 397.514 154.973 397.514 154.973" stroke="#141516" stroke-width="0.75" stroke-miterlimit="10" stroke-linecap="round" stroke-linejoin="round"/>
<path d="M384.733 174.656L384.31 172.562C378.923 173.714 374.275 174.238 370.367 174.447V176.541C374.381 176.436 379.24 175.808 384.733 174.656Z" fill="#6985D1"/>
<path d="M366.671 174.551C363.714 174.551 361.39 174.447 359.383 174.237V176.436C361.179 176.645 363.397 176.75 366.037 176.75C366.249 176.75 366.566 176.75 366.777 176.75L366.671 174.551Z" fill="#6985D1"/>
<path d="M392.233 170.678C390.754 171.097 389.381 171.411 388.008 171.725L388.43 173.819C389.803 173.504 391.177 173.086 392.55 172.772L392.233 170.678Z" fill="#6985D1"/>
<path d="M356.743 173.818L356.426 175.912C356.848 176.017 357.376 176.122 357.799 176.122V173.923C357.482 173.923 357.165 173.923 356.743 173.818Z" fill="#6985D1"/>
<path d="M371.532 177.482H366.884C366.356 177.482 366.039 177.064 366.039 176.645V174.76C366.039 174.237 366.462 173.923 366.884 173.923H371.532C372.06 173.923 372.377 174.342 372.377 174.76V176.75C372.377 177.168 371.954 177.482 371.532 177.482Z" fill="white" stroke="#141516" stroke-width="0.75" stroke-miterlimit="10" stroke-linecap="round" stroke-linejoin="round"/>
</g>
<defs>
<clipPath id="clip0_3508_1747">
<rect width="441" height="310" fill="white" transform="translate(67 24)"/>
</clipPath>
</defs>
</svg>
