<svg width="610" height="359" viewBox="0 0 610 359" fill="none" xmlns="http://www.w3.org/2000/svg">
<rect width="610" height="359" fill="white"/>
<path d="M85.7001 287.6C87.9001 288.5 93.2001 288.399 93.2001 288.399C93.3001 288.399 92.1001 284.9 92.0001 284.7C90.8001 282.3 87.2001 278.2 84.2001 278.6C82.0001 278.9 80.8001 281.1 81.3001 283.1C81.8001 285.2 83.9001 286.7 85.7001 287.6Z" fill="#4143EC"/>
<path d="M87.6008 302.9C89.9008 303.2 94.6008 301.9 95.0008 301.7C95.7008 304.4 96.7008 307 97.9008 309.7C98.6008 311.2 99.3008 312.7 100.001 314.2C99.6008 313.6 99.2008 313 99.1008 312.9C97.3008 310.9 92.7008 307.9 89.9008 309.1C87.9008 310 87.3008 312.4 88.3008 314.2C89.3008 316.1 91.8008 317 93.8008 317.3C95.8008 317.6 99.9008 316.5 101.001 316.2C101.301 316.8 101.601 317.3 101.801 317.9C103.201 320.6 104.601 323.4 105.801 326.1C106.201 327.1 106.701 328 107.101 329C106.701 328.4 106.401 328 106.301 327.9C104.501 325.9 99.9008 322.9 97.1008 324.1C95.1008 325 94.5008 327.4 95.5008 329.2C96.5008 331.1 99.0008 332 101.001 332.3C102.901 332.6 106.701 331.6 108.001 331.3C108.401 332.3 108.801 333.3 109.101 334.3C109.301 335 109.601 335.6 109.701 336.3C109.901 337 110.101 337.6 110.301 338.3C110.601 339.6 110.901 340.9 111.201 342.2C111.401 343.1 111.601 343.9 111.701 344.8C111.301 343.8 110.401 342 110.301 341.8C108.901 339.5 104.701 335.9 101.801 336.7C99.7008 337.2 98.7008 339.5 99.5008 341.5C100.201 343.5 102.501 344.8 104.501 345.4C106.601 346 111.301 345.5 111.901 345.4C112.201 346.8 112.401 348.2 112.701 349.5C113.201 352.4 113.601 354.9 113.901 357.1H115.901C115.601 354.9 115.101 352.2 114.501 349.2C114.201 347.8 113.901 346.3 113.501 344.7C113.901 344.6 115.901 343.7 117.601 342.8C119.101 344.5 123.101 346.4 123.601 346.7C123.101 348 122.501 349.3 122.001 350.5C120.901 353 119.901 355.3 118.901 357.2H121.001C121.801 355.4 122.701 353.4 123.601 351.2C124.201 349.9 124.701 348.4 125.301 346.9C125.901 347 130.501 348 132.701 347.5C134.701 347.1 137.101 345.9 137.901 344C138.801 342.1 138.001 339.7 135.901 339.1C133.001 338.1 128.701 341.4 127.101 343.6C127.001 343.7 126.101 345.2 125.601 346.2C125.801 345.6 126.101 345 126.301 344.4C126.801 343.2 127.201 341.9 127.601 340.5C127.801 339.8 128.001 339.2 128.201 338.5C128.401 337.8 128.601 337.1 128.701 336.4C129.101 334.8 129.401 333.1 129.701 331.4C130.801 331.8 134.701 333.2 136.701 333C138.701 332.9 141.201 332.1 142.401 330.3C143.501 328.5 143.101 326.1 141.201 325.1C138.501 323.7 133.701 326.3 131.801 328.2C131.701 328.3 130.501 329.8 129.801 330.7C130.001 329.7 130.101 328.7 130.301 327.6C130.701 324.6 131.001 321.6 131.301 318.5C131.401 317.6 131.501 316.6 131.601 315.7C132.001 315.8 136.601 317.6 138.901 317.4C140.901 317.3 143.401 316.5 144.601 314.7C145.701 312.9 145.301 310.5 143.401 309.5C140.701 308.1 135.901 310.7 134.001 312.6C133.901 312.7 132.101 314.9 131.701 315.5C131.901 313.5 132.101 311.4 132.501 309.4C132.901 306.6 133.501 304 134.201 301.4C134.401 301.5 139.201 303.3 141.501 303.1C143.501 303 146.001 302.2 147.201 300.4C148.301 298.6 147.901 296.2 146.001 295.2C143.301 293.8 138.501 296.4 136.601 298.3C136.501 298.4 134.601 300.8 134.301 301.3C134.301 301.1 134.401 301 134.401 300.8C135.201 298.1 136.401 295.6 137.601 293.2C138.301 291.9 139.001 290.6 139.801 289.4C140.701 289.8 144.601 291.7 146.701 291.8C148.701 291.9 151.301 291.4 152.701 289.8C154.001 288.2 153.901 285.7 152.101 284.5C149.601 282.8 144.501 284.8 142.401 286.5C142.301 286.6 141.201 287.7 140.501 288.4C140.801 287.9 141.201 287.3 141.501 286.8C142.801 284.9 144.001 283.2 145.201 281.8C145.901 281 146.501 280.2 147.001 279.6C148.101 279.6 152.301 279.5 154.201 278.6C156.001 277.7 158.101 276.1 158.601 274.1C159.001 272.1 157.801 269.9 155.601 269.7C152.601 269.4 149.001 273.5 147.901 276C147.801 276.2 146.701 279.7 146.801 279.7H146.901C146.301 280.3 145.701 281 145.101 281.8C143.901 283.2 142.601 284.9 141.301 286.8C140.001 288.7 138.601 290.8 137.401 293.1C136.101 295.4 134.901 297.9 134.001 300.7V300.8C134.001 299.9 134.001 297.4 134.001 297.2C133.701 294.5 131.401 289.5 128.401 289C126.301 288.6 124.401 290.3 124.301 292.4C124.101 294.5 125.701 296.7 127.201 298C128.901 299.5 133.601 301 134.001 301.1C133.201 303.7 132.501 306.5 132.001 309.3C131.701 310.9 131.501 312.6 131.301 314.2C131.301 313.4 131.301 312.7 131.301 312.7C131.001 310 128.701 305 125.701 304.5C123.601 304.1 121.701 305.8 121.601 307.9C121.401 310 123.001 312.2 124.501 313.5C126.001 314.9 130.001 316.2 131.101 316.5C131.001 317.1 130.901 317.8 130.901 318.4C130.501 321.4 130.201 324.5 129.801 327.4C129.601 328.4 129.501 329.5 129.301 330.5C129.301 329.8 129.301 329.2 129.301 329.2C129.001 326.5 126.701 321.5 123.701 321C121.601 320.6 119.701 322.3 119.601 324.4C119.401 326.5 121.001 328.7 122.501 330C124.001 331.3 127.601 332.6 128.901 333C128.701 334 128.501 335.1 128.201 336.1C128.001 336.8 127.901 337.4 127.601 338.1C127.401 338.8 127.201 339.4 127.001 340.1C126.501 341.3 126.101 342.6 125.601 343.8C125.301 344.6 125.001 345.4 124.601 346.2C124.801 345.2 125.001 343.1 125.001 343C125.001 341.2 124.401 338.3 123.101 336.2C123.101 335.9 123.101 335.7 123.101 335.4C122.801 333.3 120.801 331.8 118.701 332.4C115.801 333.2 113.901 338.3 113.801 341C113.801 341.2 113.901 342.9 114.001 344C113.901 343.4 113.701 342.7 113.601 342.1C113.301 340.8 112.901 339.5 112.601 338.1C112.401 337.4 112.201 336.8 112.001 336.1C111.801 335.4 111.501 334.7 111.301 334.1C110.701 332.5 110.101 330.9 109.401 329.4C110.501 329.1 114.501 328.1 116.101 326.9C117.701 325.7 119.401 323.7 119.401 321.5C119.401 319.4 117.701 317.6 115.501 317.8C112.501 318.1 109.901 322.9 109.301 325.6C109.301 325.8 109.101 327.7 109.001 328.8C108.601 327.9 108.101 326.9 107.701 326C106.401 323.3 104.901 320.6 103.501 317.9C103.101 317.1 102.601 316.2 102.201 315.4C102.601 315.3 107.401 314.2 109.201 312.8C110.801 311.6 112.501 309.6 112.501 307.4C112.501 305.3 110.801 303.5 108.601 303.7C105.601 304 103.001 308.8 102.401 311.5C102.401 311.7 102.101 314.5 102.101 315.2C101.201 313.4 100.201 311.6 99.4008 309.7C98.2008 307.2 97.2008 304.6 96.4008 302.1C96.6008 302.1 101.601 300.9 103.401 299.5C105.001 298.3 106.701 296.3 106.701 294.1C106.701 292 105.001 290.2 102.801 290.4C99.8008 290.7 97.2008 295.5 96.6008 298.2C96.6008 298.4 96.3008 301.4 96.3008 302C96.3008 301.8 96.2008 301.7 96.1008 301.5C95.3008 298.8 94.9008 296 94.6008 293.4C94.4008 291.9 94.4008 290.5 94.3008 289C95.3008 288.9 99.6008 288.3 101.401 287.2C103.101 286.2 105.001 284.3 105.301 282.2C105.501 280.1 104.001 278.1 101.901 278.1C98.9008 278.1 95.8008 282.6 94.9008 285.1C94.9008 285.2 94.6008 286.7 94.3008 287.8C94.3008 287.2 94.3008 286.5 94.3008 285.9C94.3008 283.6 94.4008 281.5 94.6008 279.7C94.7008 278.6 94.8008 277.7 94.9008 276.8C95.8008 276.2 99.3008 273.7 100.401 272C101.501 270.3 102.301 267.8 101.501 265.8C100.701 263.9 98.5008 262.8 96.6008 263.8C93.9008 265.2 93.2008 270.6 93.6008 273.3C93.6008 273.5 94.7008 277.1 94.7008 277C94.7008 277 94.7008 277 94.8008 277C94.7008 277.9 94.6008 278.8 94.5008 279.8C94.3008 281.7 94.1008 283.8 94.1008 286C94.0008 288.3 94.0008 290.8 94.3008 293.4C94.5008 296 94.9008 298.8 95.7008 301.6V301.7C95.2008 301 93.8008 298.9 93.7008 298.8C91.9008 296.8 87.3008 293.8 84.5008 295C82.5008 295.9 81.9008 298.3 82.9008 300.1C83.1008 301.7 85.6008 302.6 87.6008 302.9Z" fill="#4143EC"/>
<path d="M139.499 288.7C139.499 288.7 140.499 285.2 140.499 284.9C140.899 282.2 139.999 276.8 137.299 275.5C135.299 274.6 133.099 275.7 132.399 277.7C131.699 279.7 132.599 282.2 133.699 283.9C134.999 285.9 139.499 288.7 139.499 288.7Z" fill="#4143EC"/>
<path d="M454.899 287.6C457.099 288.5 462.399 288.399 462.399 288.399C462.499 288.399 461.299 284.9 461.199 284.7C459.999 282.3 456.399 278.2 453.399 278.6C451.199 278.9 449.999 281.1 450.499 283.1C450.899 285.2 452.999 286.7 454.899 287.6Z" fill="#4143EC"/>
<path d="M456.698 302.9C458.998 303.2 463.698 301.9 464.098 301.7C464.798 304.4 465.798 307 466.998 309.7C467.698 311.2 468.398 312.7 469.098 314.2C468.698 313.6 468.298 313 468.198 312.9C466.398 310.9 461.798 307.9 458.998 309.1C456.998 310 456.398 312.4 457.398 314.2C458.398 316.1 460.898 317 462.898 317.3C464.898 317.6 468.998 316.5 470.098 316.2C470.398 316.8 470.698 317.3 470.898 317.9C472.298 320.6 473.698 323.4 474.898 326.1C475.298 327.1 475.798 328 476.198 329C475.798 328.4 475.498 328 475.398 327.9C473.598 325.9 468.998 322.9 466.198 324.1C464.198 325 463.598 327.4 464.598 329.2C465.598 331.1 468.098 332 470.098 332.3C471.998 332.6 475.798 331.6 477.098 331.3C477.498 332.3 477.898 333.3 478.198 334.3C478.398 335 478.698 335.6 478.798 336.3C478.998 337 479.198 337.6 479.398 338.3C479.698 339.6 479.998 340.9 480.298 342.2C480.498 343.1 480.698 343.9 480.798 344.8C480.398 343.8 479.498 342 479.398 341.8C477.998 339.5 473.798 335.9 470.898 336.7C468.798 337.2 467.798 339.5 468.598 341.5C469.298 343.5 471.598 344.8 473.598 345.4C475.698 346 480.398 345.5 480.998 345.4C481.298 346.8 481.498 348.2 481.798 349.5C482.298 352.4 482.698 354.9 482.998 357.1H484.998C484.698 354.9 484.198 352.2 483.598 349.2C483.298 347.8 482.998 346.3 482.598 344.7C482.998 344.6 484.998 343.7 486.698 342.8C488.198 344.5 492.198 346.4 492.698 346.7C492.198 348 491.598 349.3 491.098 350.5C489.998 353 488.998 355.3 487.998 357.2H490.098C490.898 355.4 491.798 353.4 492.698 351.2C493.298 349.9 493.798 348.4 494.398 346.9C494.998 347 499.598 348 501.798 347.5C503.798 347.1 506.198 345.9 506.998 344C507.898 342.1 507.098 339.7 504.998 339.1C502.098 338.1 497.798 341.4 496.198 343.6C496.098 343.7 495.198 345.2 494.698 346.2C494.898 345.6 495.198 345 495.398 344.4C495.898 343.2 496.298 341.9 496.698 340.5C496.898 339.8 497.098 339.2 497.298 338.5C497.498 337.8 497.698 337.1 497.798 336.4C498.198 334.8 498.498 333.1 498.798 331.4C499.898 331.8 503.798 333.2 505.798 333C507.798 332.9 510.298 332.1 511.498 330.3C512.598 328.5 512.198 326.1 510.298 325.1C507.598 323.7 502.798 326.3 500.898 328.2C500.798 328.3 499.598 329.8 498.898 330.7C499.098 329.7 499.198 328.7 499.398 327.6C499.798 324.6 500.098 321.6 500.398 318.5C500.498 317.6 500.598 316.6 500.698 315.7C501.098 315.8 505.698 317.6 507.998 317.4C509.998 317.3 512.498 316.5 513.698 314.7C514.798 312.9 514.398 310.5 512.498 309.5C509.798 308.1 504.998 310.7 503.098 312.6C502.998 312.7 501.198 314.9 500.798 315.5C500.998 313.5 501.198 311.4 501.598 309.4C501.998 306.6 502.598 304 503.298 301.4C503.498 301.5 508.298 303.3 510.598 303.1C512.598 303 515.098 302.2 516.298 300.4C517.398 298.6 516.998 296.2 515.098 295.2C512.398 293.8 507.598 296.4 505.698 298.3C505.598 298.4 503.698 300.8 503.398 301.3C503.398 301.1 503.498 301 503.498 300.8C504.298 298.1 505.498 295.6 506.698 293.2C507.398 291.9 508.098 290.6 508.898 289.4C509.798 289.8 513.698 291.7 515.798 291.8C517.798 291.9 520.398 291.4 521.798 289.8C523.098 288.2 522.998 285.7 521.198 284.5C518.698 282.8 513.598 284.8 511.498 286.5C511.398 286.6 510.298 287.7 509.598 288.4C509.898 287.9 510.298 287.3 510.598 286.8C511.898 284.9 513.098 283.2 514.298 281.8C514.998 281 515.598 280.2 516.098 279.6C517.198 279.6 521.398 279.5 523.298 278.6C525.098 277.7 527.198 276.1 527.698 274.1C528.098 272.1 526.898 269.9 524.698 269.7C521.698 269.4 518.098 273.5 516.998 276C516.898 276.2 515.798 279.7 515.898 279.7H515.998C515.398 280.3 514.798 281 514.198 281.8C512.998 283.2 511.698 284.9 510.398 286.8C509.098 288.7 507.698 290.8 506.498 293.1C505.198 295.4 503.998 297.9 503.098 300.7V300.8C503.098 299.9 503.098 297.4 503.098 297.2C502.798 294.5 500.498 289.5 497.498 289C495.398 288.6 493.498 290.3 493.398 292.4C493.198 294.5 494.798 296.7 496.298 298C497.998 299.5 502.698 301 503.098 301.1C502.298 303.7 501.598 306.5 501.098 309.3C500.798 310.9 500.598 312.6 500.398 314.2C500.398 313.4 500.398 312.7 500.398 312.7C500.098 310 497.798 305 494.798 304.5C492.698 304.1 490.798 305.8 490.698 307.9C490.498 310 492.098 312.2 493.598 313.5C495.098 314.9 499.098 316.2 500.198 316.5C500.098 317.1 499.998 317.8 499.998 318.4C499.598 321.4 499.298 324.5 498.898 327.4C498.698 328.4 498.598 329.5 498.398 330.5C498.398 329.8 498.398 329.2 498.398 329.2C498.098 326.5 495.798 321.5 492.798 321C490.698 320.6 488.798 322.3 488.698 324.4C488.498 326.5 490.098 328.7 491.598 330C493.098 331.3 496.698 332.6 497.998 333C497.798 334 497.598 335.1 497.298 336.1C497.098 336.8 496.998 337.4 496.698 338.1C496.498 338.8 496.298 339.4 496.098 340.1C495.598 341.3 495.198 342.6 494.698 343.8C494.398 344.6 494.098 345.4 493.698 346.2C493.898 345.2 494.098 343.1 494.098 343C494.098 341.2 493.498 338.3 492.198 336.2C492.198 335.9 492.198 335.7 492.198 335.4C491.898 333.3 489.898 331.8 487.798 332.4C484.898 333.2 482.998 338.3 482.898 341C482.898 341.2 482.998 342.9 483.098 344C482.998 343.4 482.798 342.7 482.698 342.1C482.398 340.8 481.998 339.5 481.698 338.1C481.498 337.4 481.298 336.8 481.098 336.1C480.898 335.4 480.598 334.7 480.398 334.1C479.798 332.5 479.198 330.9 478.498 329.4C479.598 329.1 483.598 328.1 485.198 326.9C486.798 325.7 488.498 323.7 488.498 321.5C488.498 319.4 486.798 317.6 484.598 317.8C481.598 318.1 478.998 322.9 478.398 325.6C478.398 325.8 478.198 327.7 478.098 328.8C477.698 327.9 477.198 326.9 476.798 326C475.498 323.3 473.998 320.6 472.598 317.9C472.198 317.1 471.698 316.2 471.298 315.4C471.698 315.3 476.498 314.2 478.298 312.8C479.898 311.6 481.598 309.6 481.598 307.4C481.598 305.3 479.898 303.5 477.698 303.7C474.698 304 472.098 308.8 471.498 311.5C471.498 311.7 471.198 314.5 471.198 315.2C470.298 313.4 469.298 311.6 468.498 309.7C467.298 307.2 466.298 304.6 465.498 302.1C465.698 302.1 470.698 300.9 472.498 299.5C474.098 298.3 475.798 296.3 475.798 294.1C475.798 292 474.098 290.2 471.898 290.4C468.898 290.7 466.298 295.5 465.698 298.2C465.698 298.4 465.398 301.4 465.398 302C465.398 301.8 465.298 301.7 465.198 301.5C464.398 298.8 463.998 296 463.698 293.4C463.498 291.9 463.498 290.5 463.398 289C464.398 288.9 468.698 288.3 470.498 287.2C472.198 286.2 474.098 284.3 474.398 282.2C474.598 280.1 473.098 278.1 470.998 278.1C467.998 278.1 464.898 282.6 463.998 285.1C463.998 285.2 463.698 286.7 463.398 287.8C463.398 287.2 463.398 286.5 463.398 285.9C463.398 283.6 463.498 281.5 463.698 279.7C463.798 278.6 463.898 277.7 463.998 276.8C464.898 276.2 468.398 273.7 469.498 272C470.598 270.3 471.398 267.8 470.598 265.8C469.798 263.9 467.598 262.8 465.698 263.8C462.998 265.2 462.298 270.6 462.698 273.3C462.698 273.5 463.798 277.1 463.798 277C463.798 277 463.798 277 463.898 277C463.798 277.9 463.698 278.8 463.598 279.8C463.398 281.7 463.198 283.8 463.198 286C463.098 288.3 463.098 290.8 463.398 293.4C463.598 296 463.998 298.8 464.798 301.6V301.7C464.298 301 462.898 298.9 462.798 298.8C460.998 296.8 456.398 293.8 453.598 295C451.598 295.9 450.998 298.3 451.998 300.1C452.198 301.7 454.698 302.6 456.698 302.9Z" fill="#4143EC"/>
<path d="M508.601 288.7C508.601 288.7 509.601 285.2 509.601 284.9C510.001 282.2 509.101 276.8 506.401 275.5C504.401 274.6 502.201 275.7 501.501 277.7C500.801 279.7 501.701 282.2 502.801 283.9C504.101 285.9 508.601 288.7 508.601 288.7Z" fill="#4143EC"/>
<path d="M412.899 79.3998C412.899 79.3998 413.199 68.0998 419.699 64.8998C426.199 61.6998 426.599 72.2998 426.599 72.2998C426.599 72.2998 441.499 62.7998 444.699 69.9998C447.899 77.1998 443.399 80.5998 443.399 80.5998C443.399 80.5998 456.599 80.0998 457.499 87.3998C458.399 94.6998 451.599 98.1998 451.599 98.1998C451.599 98.1998 459.799 104.9 456.899 107.9C453.999 111 447.699 111.2 447.699 111.2C447.699 111.2 451.299 118.4 445.099 120.9C438.899 123.4 431.799 118.7 431.799 118.7C431.799 118.7 432.899 122 428.199 121.1C423.499 120.3 418.799 118.1 415.899 111.3C413.099 104.5 409.399 85.1998 412.899 79.3998Z" fill="#141516" stroke="#141516" stroke-miterlimit="10" stroke-linecap="round" stroke-linejoin="round"/>
<path d="M344.1 297.5C344.1 297.5 340.4 311.7 340.4 313.2C340.5 314.8 339.2 318.3 340.3 319.3C341.4 320.3 346.2 323.7 346.8 323.8C347.3 324 348.9 323.4 349.4 323C349.9 322.6 350.2 321.7 350.2 321.2C350.2 320.7 348.7 318.4 348.5 317.9C348.3 317.4 351.2 310.6 352.3 307.2C353.4 303.8 354.1 298 354.1 298L344.1 297.5Z" fill="#D3D4E1" stroke="#141516" stroke-miterlimit="10"/>
<path d="M348.099 307.3C348.099 307.3 345.999 312.3 345.799 313.2C345.599 314.1 342.799 316.5 343.199 318.4C343.599 320.3 347.799 319.8 349.899 314.1" fill="#D3D4E1"/>
<path d="M348.099 307.3C348.099 307.3 345.999 312.3 345.799 313.2C345.599 314.1 342.799 316.5 343.199 318.4C343.599 320.3 347.799 319.8 349.899 314.1" stroke="#141516" stroke-miterlimit="10"/>
<path d="M357.598 220.5C357.598 220.5 355.798 249.4 355.198 251.9C354.498 254.5 346.498 277.7 344.698 284.9C342.898 292 342.398 298.4 342.398 298.4L353.198 300.7L359.298 274.1C359.298 274.1 367.198 249.9 365.598 238.5C363.998 227.1 357.598 220.5 357.598 220.5Z" fill="#6985D1" stroke="#141516" stroke-miterlimit="10"/>
<path d="M413.801 357C413.901 350.7 414.201 342.2 414.801 337.4C415.801 329 419.401 323.8 423.101 313.3C426.801 302.8 427.101 289.1 427.101 289.1L361.201 291.4C361.201 291.4 353.601 319.7 349.001 340.6C347.501 347.6 346.901 352.9 346.801 356.9" fill="#6985D1"/>
<path d="M413.801 357C413.901 350.7 414.201 342.2 414.801 337.4C415.801 329 419.401 323.8 423.101 313.3C426.801 302.8 427.101 289.1 427.101 289.1L361.201 291.4C361.201 291.4 353.601 319.7 349.001 340.6C347.501 347.6 346.901 352.9 346.801 356.9" stroke="#141516" stroke-miterlimit="10"/>
<path d="M369.801 302.099L424.601 303.699L425.801 299.399L369.801 302.099Z" fill="#141516" stroke="#141516" stroke-miterlimit="10" stroke-linecap="round" stroke-linejoin="round"/>
<path d="M367.002 356C367.002 356 365.902 321.7 365.902 303.1Z" fill="white"/>
<path d="M367.002 356C367.002 356 365.902 321.7 365.902 303.1" stroke="#141516" stroke-miterlimit="10"/>
<path d="M409.002 148L417.002 153.4C417.002 153.4 426.502 161.9 428.802 168.8C431.202 175.8 429.402 217.4 427.102 230.8C424.802 244.3 430.602 261 432.702 270.4C434.802 279.8 435.802 297.4 435.802 297.4C435.802 297.4 437.302 299.5 411.602 300.4C385.902 301.3 368.002 302.6 365.902 303C363.802 303.4 362.002 303.5 362.002 303.5L361.002 294.4L358.402 301.9L353.102 300.7C353.102 300.7 356.402 284.4 357.202 278C358.002 271.6 363.302 250 363.302 241.9C363.402 233.8 356.602 220.7 355.202 212.6C353.902 204.5 356.602 190.7 363.202 180.3C369.902 169.9 374.302 165.8 387.302 155.2C400.502 144.4 409.002 148 409.002 148Z" fill="#6985D1" stroke="#141516" stroke-miterlimit="10"/>
<path d="M388.203 269.799L415.003 272.899L413.503 265.899L396.803 264.399" stroke="#141516" stroke-miterlimit="10"/>
<path d="M378.8 264L377.5 268.6L384.2 269.4" stroke="#141516" stroke-miterlimit="10"/>
<path d="M388.902 218.1C387.502 216.8 386.302 215.4 385.402 214.3" stroke="#141516" stroke-miterlimit="10"/>
<path d="M398.201 225.9C398.201 225.9 395.401 223.8 392.301 221.1" stroke="#141516" stroke-miterlimit="10"/>
<path d="M409.002 148C409.002 148 400.502 144.5 387.502 155.1C374.502 165.8 370.102 169.8 363.402 180.2C359.302 186.7 356.702 194.4 355.602 201.3C355.802 202.1 355.902 202.9 356.102 203.7C359.802 219.4 364.002 227 364.002 227C364.002 227 371.202 191.2 383.702 176.7C396.202 162.2 417.002 153.4 417.002 153.4L409.002 148Z" fill="#6985D1" stroke="#141516" stroke-miterlimit="10"/>
<path d="M377.8 78.1002C377.8 78.1002 368.4 86.9002 367.7 93.8002C367 100.7 366.3 106.7 365.1 108.9C363.9 111.1 358 112.6 360 116C362 119.4 363.9 119.3 363.9 119.3C363.9 119.3 366.9 134.2 369.2 136.3C371.5 138.4 379.6 137.2 379.6 137.2L382.1 155.3C382.1 155.3 365.3 170.2 362 190.9C358.7 211.6 362.5 223.5 362.5 223.5C362.5 223.5 364.7 190.8 372.2 178.6C379.8 166.4 397.3 154.8 399.9 152.7C402.5 150.6 409.1 148.1 409.1 148.1C409.1 148.1 406 141.1 405.6 137.9C405.2 134.8 405.3 130.1 405.9 128.8C406.5 127.5 417 123.7 420.9 111.7C424.9 99.7002 419 85.5002 412.9 79.5002C406.7 73.4002 385.6 70.3002 377.8 78.1002Z" fill="#D3D4E1" stroke="#141516" stroke-miterlimit="10"/>
<path d="M420.9 111.6C424.9 99.6 419 85.4 412.9 79.4C406.7 73.4 385.7 70.3 377.8 78.1C377.8 78.1 377.3 78.6 376.5 79.4C378.1 79 381.3 78.4 385.6 79.1C391.9 80.1 391.8 85.1 390 89.9C388.3 94.7 389.6 95.5 392.8 97.9C396 100.3 392.7 104.8 395 106.6C397.3 108.4 399.1 98.6 404 105.7C408.9 112.7 405.6 116 402.6 117.9C399.5 119.9 397.1 120.6 397.1 120.6C397.1 120.6 401.7 126 406.3 128.3C408.5 126.6 417.3 122.5 420.9 111.6Z" fill="#141516" stroke="#141516" stroke-miterlimit="10" stroke-linecap="round" stroke-linejoin="round"/>
<path d="M369 121.899C369 121.899 375.5 121.399 378.6 118.399" stroke="#141516" stroke-miterlimit="10"/>
<path d="M373.1 106.4C373.2 108 372.6 109.2 371.8 109.3C371 109.3 370.4 108.1 370.3 106.5C370.2 104.9 370.8 103.7 371.6 103.6C372.4 103.6 373.1 104.9 373.1 106.4Z" fill="#141516"/>
<path d="M370.301 100.1C370.301 100.1 372.401 97.2998 375.401 100.6" stroke="#141516" stroke-miterlimit="10"/>
<path d="M379.5 137.2L387.3 134.2L381.9 144L379.5 137.2Z" fill="#141516" stroke="#141516" stroke-miterlimit="10"/>
<path d="M357.001 280.7L346.801 323.8L356.001 326L361.001 294.4L357.001 280.7Z" fill="white" stroke="#141516" stroke-miterlimit="10"/>
<path d="M366.1 177.399C364.2 181.499 362.7 185.999 362 190.799C358.7 211.499 362.5 223.399 362.5 223.399C362.5 223.399 364.7 191.199 372.1 178.699C369.7 178.499 367.7 177.999 366.1 177.399Z" fill="white" stroke="#141516" stroke-miterlimit="10"/>
<path d="M397.7 190.9L397 227.5L333 238.1L334.4 255.3C334.4 255.3 369.9 256 386.5 254.6C403 253.2 417.5 252.1 419.6 250.4C421.7 248.6 427.7 214.6 430.2 190.7C432.7 166.8 427.7 158.7 417.9 160.1" fill="#6985D1"/>
<path d="M397.7 190.9L397 227.5L333 238.1L334.4 255.3C334.4 255.3 369.9 256 386.5 254.6C403 253.2 417.5 252.1 419.6 250.4C421.7 248.6 427.7 214.6 430.2 190.7C432.7 166.8 427.7 158.7 417.9 160.1" stroke="#141516" stroke-miterlimit="10"/>
<path d="M294.702 236.499L289.602 252.099L294.602 254.799C294.602 254.799 300.902 259.699 304.402 262.399C307.902 265.099 310.502 265.099 312.402 264.199C314.202 263.399 322.602 251.499 323.702 249.199C324.702 246.899 319.802 240.199 314.902 237.299C310.002 234.399 305.902 234.399 303.002 235.299C300.102 236.199 294.702 236.499 294.702 236.499Z" fill="white" stroke="#141516" stroke-miterlimit="10"/>
<path d="M333 238.099L324.9 237.399C324.9 237.399 319.3 235.999 317.2 235.999C315.1 235.999 312.3 238.099 310.9 239.199C309.5 240.299 294 257.099 294 257.099C294 257.099 295.4 259.899 297.5 259.199C299.6 258.499 303.5 256.699 303.5 256.699C303.5 256.699 299.3 260.899 301.4 262.999C303.5 265.099 307 265.099 307 265.099L309.5 263.699C309.5 263.699 311.3 265.099 313 265.499C314.8 265.899 317.6 265.099 320 263.699C322.5 262.299 328.7 254.999 328.7 254.999L334.1 252.899L333 238.099Z" fill="#D3D4E1" stroke="#141516" stroke-miterlimit="10"/>
<path d="M297.402 237.199C297.402 237.199 307.602 231.299 312.102 232.899C316.602 234.499 322.502 244.599 320.902 245.999C319.302 247.399 316.602 246.799 315.202 245.399C313.802 243.999 311.302 242.499 311.302 242.499C311.302 242.499 307.202 244.999 302.502 244.999" fill="white"/>
<path d="M297.402 237.199C297.402 237.199 307.602 231.299 312.102 232.899C316.602 234.499 322.502 244.599 320.902 245.999C319.302 247.399 316.602 246.799 315.202 245.399C313.802 243.999 311.302 242.499 311.302 242.499C311.302 242.499 307.202 244.999 302.502 244.999" stroke="#141516" stroke-miterlimit="10"/>
<path d="M328.002 260.399L324.702 258.699C323.602 258.099 323.202 256.699 323.802 255.699C324.402 254.599 325.802 254.199 326.802 254.799L330.102 256.499C331.202 257.099 331.602 258.499 331.002 259.499C330.402 260.599 329.102 260.999 328.002 260.399Z" fill="white" stroke="#141516" stroke-miterlimit="10"/>
<path d="M325.104 263.899L321.804 262.199C320.704 261.599 320.304 260.199 320.904 259.199C321.504 258.099 322.904 257.699 323.904 258.299L327.204 259.999C328.304 260.599 328.704 261.999 328.104 262.999C327.604 264.099 326.204 264.499 325.104 263.899Z" fill="white" stroke="#141516" stroke-miterlimit="10"/>
<path d="M321.803 266.999L318.503 265.299C317.403 264.699 317.003 263.299 317.603 262.299C318.203 261.199 319.603 260.799 320.603 261.399L323.903 263.099C325.003 263.699 325.403 265.099 324.803 266.099C324.303 267.199 322.903 267.599 321.803 266.999Z" fill="white" stroke="#141516" stroke-miterlimit="10"/>
<path d="M314.903 267.1L314.003 266.6C312.903 266 312.503 264.6 313.103 263.6C313.703 262.5 315.103 262.1 316.103 262.7L317.003 263.2C318.103 263.8 318.503 265.2 317.903 266.2C317.403 267.3 316.003 267.7 314.903 267.1Z" fill="white" stroke="#141516" stroke-miterlimit="10"/>
<path d="M294.699 236.5L251.699 218.3L253.299 246.8L288.799 254.9L294.699 236.5Z" fill="#141516" stroke="#141516" stroke-miterlimit="10" stroke-linecap="round" stroke-linejoin="round"/>
<path d="M288.8 254.899L294.7 236.499L288.6 233.899L288.5 234.499L283 253.499L288.8 254.899Z" fill="white" stroke="#141516" stroke-miterlimit="10"/>
<path d="M227.602 122.6L238.602 127.7C238.602 127.7 243.202 140.8 241.702 141.2C240.202 141.6 228.602 132.3 228.602 132.3L227.602 122.6Z" fill="white" stroke="#141516" stroke-miterlimit="10" stroke-linecap="round" stroke-linejoin="round"/>
<path d="M233.901 120L234.701 115.6C234.701 115.6 244.901 116.3 249.001 116.3C253.101 116.3 256.601 115.7 256.601 111.4C256.601 107.1 254.201 92.2999 254.201 92.2999C254.201 92.2999 258.801 91.2999 260.601 89.1999C262.401 87.1999 259.801 84.5999 257.501 81.5999C255.201 78.5999 253.101 75.2999 252.901 71.6999C252.601 68.0999 246.401 56.3999 246.401 56.3999C246.401 56.3999 247.401 54.5999 244.101 50.7999C240.801 46.9999 223.701 46.2999 212.801 51.7999C201.901 57.1999 199.401 65.0999 199.401 73.7999C199.501 82.4999 204.401 94.6999 204.401 94.6999C204.401 94.6999 201.201 108 200.901 108.7C200.601 109.5 197.801 115.1 197.801 115.1C197.801 115.1 211.501 124.6 216.501 128.9C221.501 133.2 232.801 140.5 232.801 136.5C232.901 132.5 233.301 123.6 233.301 123.6L233.901 120Z" fill="white" stroke="#141516" stroke-miterlimit="10" stroke-linecap="round" stroke-linejoin="round"/>
<path d="M248.999 78.6996C249.099 80.1996 248.699 81.3996 248.199 81.3996C247.699 81.3996 247.299 80.1996 247.199 78.7996C247.099 77.2996 247.499 76.0996 247.999 76.0996C248.499 75.9996 248.899 77.1996 248.999 78.6996Z" fill="#141516"/>
<path d="M241.801 73.8C241.801 73.8 244.101 70 249.901 72.2" stroke="#141516" stroke-width="2" stroke-miterlimit="10" stroke-linecap="round" stroke-linejoin="round"/>
<path d="M256.601 111.4C256.601 107.1 254.201 92.2999 254.201 92.2999C254.201 92.2999 251.401 90.7999 246.001 92.0999C240.701 93.3999 239.201 102.1 238.201 103.1C237.201 104.1 230.501 98.0999 227.901 93.9999C225.301 89.8999 223.501 82.7999 223.201 78.6999C222.901 74.5999 232.601 72.4999 234.101 68.6999C235.601 64.8999 228.401 60.7999 231.001 58.2999C233.501 55.6999 238.601 56.6999 241.201 57.1999C243.801 57.6999 246.301 56.3999 246.301 56.3999C246.301 56.3999 247.301 54.5999 244.001 50.7999C240.701 46.9999 223.601 46.2999 212.701 51.7999C201.801 57.1999 199.301 65.0999 199.301 73.7999C199.301 80.7999 202.601 90.1999 203.801 93.4999C204.801 93.8999 206.401 94.3999 207.101 94.1999C208.101 93.8999 208.901 90.8999 209.401 87.7999C209.901 84.6999 217.301 81.0999 217.301 81.0999C217.301 81.0999 218.601 90.2999 218.601 91.9999C218.601 93.7999 217.601 102.7 222.501 107C227.401 111.3 234.801 115.6 234.801 115.6C234.801 115.6 245.001 116.3 249.101 116.3C253.001 116.3 256.601 115.7 256.601 111.4Z" fill="#141516" stroke="#141516" stroke-miterlimit="10" stroke-linecap="round" stroke-linejoin="round"/>
<path d="M218.7 87.3995C218.7 87.3995 216.6 75.1995 213 75.6995C209.4 76.1995 207.4 80.7995 209.2 86.6995C211 92.4995 214.6 91.9995 216.6 91.4995" fill="white"/>
<path d="M218.7 87.3995C218.7 87.3995 216.6 75.1995 213 75.6995C209.4 76.1995 207.4 80.7995 209.2 86.6995C211 92.4995 214.6 91.9995 216.6 91.4995" stroke="#141516" stroke-miterlimit="10" stroke-linecap="round" stroke-linejoin="round"/>
<path d="M243.699 96.7002C243.699 96.7002 245.799 99.2002 251.099 99.2002" stroke="white" stroke-miterlimit="10" stroke-linecap="round" stroke-linejoin="round"/>
<path d="M186.501 357H240.501C240.701 354.2 242.801 343.2 242.801 336.1C242.801 327.8 248.501 274.5 248.501 274.5L178.301 273.6L180.601 306.3L186.501 357Z" fill="#141516" stroke="#141516" stroke-miterlimit="10" stroke-linecap="round" stroke-linejoin="round"/>
<path d="M193.601 117C193.601 117 181.301 132.8 177.801 141.6C174.301 150.5 171.601 152 172.401 163.2C173.201 174.4 178.601 219 178.601 219L167.801 277.1C167.801 277.1 185.101 284 207.401 284C229.701 284 239.301 282.1 240.901 281.3C242.401 280.5 255.901 277.1 255.901 277.1C255.901 277.1 255.901 211.3 251.701 188.6C247.501 165.9 242.101 148.6 240.201 144.3C238.301 140.1 232.101 126.2 232.101 126.2L193.601 117Z" fill="#141516" stroke="#141516" stroke-miterlimit="10" stroke-linecap="round" stroke-linejoin="round"/>
<path d="M240.099 144.3C238.199 140.1 231.999 126.2 231.999 126.2L193.499 117C193.499 117 190.899 120.3 187.699 124.8C196.099 129.7 216.899 141.7 218.099 142C219.599 142.4 227.299 141.6 227.299 141.6L223.799 145.8C223.799 145.8 232.999 153.1 236.099 156.2C237.699 157.8 242.399 162.1 246.499 165.8C243.899 154.8 241.299 146.9 240.099 144.3Z" fill="#141516" stroke="#141516" stroke-miterlimit="10" stroke-linecap="round" stroke-linejoin="round"/>
<path d="M222.402 134.7L235.502 145.1L246.302 164.3L239.402 136.2L225.102 128.1L222.402 134.7Z" fill="white" stroke="#141516" stroke-miterlimit="10" stroke-linecap="round" stroke-linejoin="round"/>
<path d="M196.2 109.7L236.6 127.8V142.1L190.5 118.5L196.2 109.7Z" fill="white" stroke="#141516" stroke-miterlimit="10" stroke-linecap="round" stroke-linejoin="round"/>
<path d="M249.502 255.3H179.902V311.6H249.502V255.3Z" fill="#6985D1" stroke="#141516" stroke-miterlimit="10"/>
<path d="M219.002 282.2C219.002 282.2 224.202 289 226.202 289.6C228.202 290.3 229.402 291.9 230.302 293.2C231.202 294.6 232.302 304.7 233.002 305.4C233.702 306.1 233.702 307.7 231.202 306.5C228.702 305.4 227.102 301.5 227.102 301.5L228.002 310.5C228.002 310.5 230.002 311 228.502 312.1C226.902 313.2 225.602 314.8 224.202 314.1C222.802 313.4 220.802 311.6 220.802 311.6C220.802 311.6 218.302 312.5 215.802 312.1C213.302 311.6 213.802 312.6 211.502 311C209.202 309.4 209.202 311.2 208.102 308.3C207.002 305.4 204.302 295.2 203.802 292.3C203.302 289.4 202.902 285.3 202.902 285.3L219.002 282.2Z" fill="white" stroke="#141516" stroke-miterlimit="10" stroke-linecap="round" stroke-linejoin="round"/>
<path d="M219.903 277.9L221.503 284.9L202.103 287.6L201.203 280.6L219.903 277.9Z" fill="white" stroke="#141516" stroke-miterlimit="10" stroke-linecap="round" stroke-linejoin="round"/>
<path d="M195.102 130.8C195.102 130.8 181.602 135 181.202 141.2C180.802 147.4 176.402 222.1 178.302 227.1C180.202 232.1 199.202 282.8 199.202 282.8L221.102 280.1C221.102 280.1 209.902 221.3 209.502 220.2C209.102 219 217.002 153.6 217.002 153.6" fill="#141516"/>
<path d="M195.102 130.8C195.102 130.8 181.602 135 181.202 141.2C180.802 147.4 176.402 222.1 178.302 227.1C180.202 232.1 199.202 282.8 199.202 282.8L221.102 280.1C221.102 280.1 209.902 221.3 209.502 220.2C209.102 219 217.002 153.6 217.002 153.6" stroke="#141516" stroke-miterlimit="10" stroke-linecap="round" stroke-linejoin="round"/>
<path d="M214.504 172.3L209.504 220.2L214.204 249.9" stroke="#878787" stroke-miterlimit="10" stroke-linecap="round" stroke-linejoin="round"/>
<path d="M215.202 165L214.902 167.6" stroke="#878787" stroke-miterlimit="10" stroke-linecap="round" stroke-linejoin="round"/>
<path d="M179.703 157.6L178.203 202.5" stroke="#878787" stroke-miterlimit="10" stroke-linecap="round" stroke-linejoin="round"/>
<path d="M230.002 242L244.802 241.5L246.102 246.8L221.602 248.4" stroke="#878787" stroke-miterlimit="10" stroke-linecap="round" stroke-linejoin="round"/>
<path d="M217.703 242.5L225.603 242.2" stroke="#878787" stroke-miterlimit="10" stroke-linecap="round" stroke-linejoin="round"/>
<path d="M191.004 126L218.204 142L227.404 141.6L224.004 145.8L241.804 160.1" stroke="#878787" stroke-miterlimit="10" stroke-linecap="round" stroke-linejoin="round"/>
<path d="M481.102 234.914L461.836 239.002C459.192 239.572 456.642 237.861 456.17 235.294L452.109 215.901C451.543 213.24 453.242 210.673 455.792 210.198L475.058 206.11C477.702 205.54 480.252 207.251 480.724 209.817L484.785 229.21C485.446 231.777 483.746 234.344 481.102 234.914Z" stroke="#D3D4E1" stroke-miterlimit="10" stroke-linecap="round" stroke-linejoin="round"/>
<path d="M467.219 216.662L469.674 228.355" stroke="#D3D4E1" stroke-miterlimit="10" stroke-linecap="round" stroke-linejoin="round"/>
<path d="M474.304 221.225L462.594 223.696" stroke="#D3D4E1" stroke-miterlimit="10" stroke-linecap="round" stroke-linejoin="round"/>
<path d="M492.102 57.9139L472.836 62.0016C470.192 62.5719 467.642 60.8608 467.17 58.2941L463.109 38.9014C462.543 36.2396 464.242 33.6729 466.792 33.1976L486.058 29.1099C488.702 28.5395 491.252 30.2507 491.724 32.8173L495.785 52.2101C496.352 54.7768 494.746 57.3435 492.102 57.9139Z" stroke="#D3D4E1" stroke-miterlimit="10" stroke-linecap="round" stroke-linejoin="round"/>
<path d="M482.751 40.5176L476.234 50.5942" stroke="#D3D4E1" stroke-miterlimit="10" stroke-linecap="round" stroke-linejoin="round"/>
<path d="M484.452 48.7878L474.441 42.2285" stroke="#D3D4E1" stroke-miterlimit="10" stroke-linecap="round" stroke-linejoin="round"/>
<path d="M66.1885 257.622L46.545 256.481C43.9007 256.291 41.8231 254.01 42.0119 251.348L43.1452 231.575C43.3341 228.913 45.6006 226.822 48.245 227.012L67.8884 228.153C70.5327 228.343 72.6104 230.624 72.4215 233.286L71.2882 253.059C71.0993 255.816 68.8328 257.812 66.1885 257.622Z" stroke="#D3D4E1" stroke-miterlimit="10" stroke-linecap="round" stroke-linejoin="round"/>
<path d="M63.165 242.698L51.2656 242.032" stroke="#D3D4E1" stroke-miterlimit="10" stroke-linecap="round" stroke-linejoin="round"/>
<path d="M79.9781 66.4813L61.2791 60.2071C58.7292 59.3516 57.4071 56.5947 58.257 54.1231L64.49 35.3007C65.34 32.734 68.0787 31.4031 70.5342 32.2587L89.2332 38.5328C91.7831 39.3884 93.1052 42.1452 92.2553 44.6168L86.0223 63.4393C85.1723 65.9109 82.528 67.3368 79.9781 66.4813Z" stroke="#D3D4E1" stroke-miterlimit="10" stroke-linecap="round" stroke-linejoin="round"/>
<path d="M82.7183 45.5674L67.7969 53.1724" stroke="#D3D4E1" stroke-miterlimit="10" stroke-linecap="round" stroke-linejoin="round"/>
<path d="M74.1231 42.5257C74.5953 43.5714 74.2176 44.8072 73.1787 45.3776C72.1399 45.8529 70.9122 45.4726 70.3455 44.4269C69.8733 43.3812 70.2511 42.1454 71.2899 41.5751C72.3288 41.0047 73.6509 41.48 74.1231 42.5257Z" stroke="#D3D4E1" stroke-miterlimit="10" stroke-linecap="round" stroke-linejoin="round"/>
<path d="M80.0723 54.4085C80.5445 55.4542 80.1668 56.69 79.1279 57.2604C78.0891 57.7357 76.8614 57.3554 76.2947 56.3098C75.8225 55.2641 76.2003 54.0282 77.2391 53.4579C78.278 52.8875 79.5057 53.3628 80.0723 54.4085Z" stroke="#D3D4E1" stroke-miterlimit="10" stroke-linecap="round" stroke-linejoin="round"/>
<path d="M294.801 49.5343L287.797 56.5479L294.801 63.5614L301.805 56.5479L294.801 49.5343Z" stroke="#D3D4E1" stroke-miterlimit="10" stroke-linecap="round" stroke-linejoin="round"/>
<path d="M269.42 159L256 172.438L269.42 185.875L282.84 172.437L269.42 159Z" stroke="#D3D4E1" stroke-miterlimit="10" stroke-linecap="round" stroke-linejoin="round"/>
<path d="M572.42 246L559 259.438L572.42 272.875L585.84 259.437L572.42 246Z" stroke="#D3D4E1" stroke-miterlimit="10" stroke-linecap="round" stroke-linejoin="round"/>
<path d="M527.656 127.337C532.989 127.337 537.312 123.009 537.312 117.669C537.312 112.329 532.989 108 527.656 108C522.323 108 518 112.329 518 117.669C518 123.009 522.323 127.337 527.656 127.337Z" stroke="#D3D4E1" stroke-miterlimit="10" stroke-linecap="round" stroke-linejoin="round"/>
<path d="M107.656 132.337C112.989 132.337 117.312 128.009 117.312 122.669C117.312 117.329 112.989 113 107.656 113C102.323 113 98 117.329 98 122.669C98 128.009 102.323 132.337 107.656 132.337Z" stroke="#D3D4E1" stroke-miterlimit="10" stroke-linecap="round" stroke-linejoin="round"/>
</svg>
