<svg width="610" height="359" viewBox="0 0 610 359" fill="none" xmlns="http://www.w3.org/2000/svg">
<rect width="610" height="359" fill="white"/>
<path d="M544.031 337.716H557.287" stroke="#141516" stroke-miterlimit="10" stroke-linecap="round" stroke-linejoin="round"/>
<path d="M53 337.716H538.33" stroke="#141516" stroke-miterlimit="10" stroke-linecap="round" stroke-linejoin="round"/>
<path d="M464.351 246.941C466.275 247.798 471.05 247.655 471.05 247.655C471.122 247.655 470.053 244.515 469.91 244.372C468.841 242.16 465.563 238.592 462.855 238.949C460.93 239.234 459.861 241.161 460.289 243.016C460.788 244.8 462.712 246.156 464.351 246.941Z" fill="#4143EC"/>
<path d="M465.99 260.715C467.986 261 472.262 259.787 472.618 259.644C473.259 261.999 474.186 264.426 475.184 266.781C475.754 268.136 476.395 269.492 477.037 270.848C476.68 270.277 476.324 269.778 476.253 269.706C474.685 267.851 470.551 265.282 467.986 266.352C466.204 267.137 465.634 269.278 466.56 270.92C467.487 272.632 469.696 273.417 471.478 273.703C473.331 273.988 476.965 272.989 477.892 272.704C478.177 273.203 478.391 273.703 478.676 274.274C479.887 276.7 481.17 279.198 482.31 281.624C482.738 282.48 483.094 283.337 483.451 284.193C483.094 283.694 482.809 283.265 482.738 283.194C481.17 281.339 477.037 278.769 474.471 279.84C472.689 280.625 472.119 282.766 473.046 284.407C473.972 286.12 476.181 286.905 477.963 287.19C479.674 287.476 483.094 286.548 484.235 286.263C484.591 287.119 484.947 288.047 485.232 288.903C485.446 289.474 485.66 290.045 485.803 290.687C485.945 291.329 486.159 291.9 486.301 292.471C486.586 293.613 486.872 294.826 487.085 295.968C487.228 296.753 487.442 297.538 487.584 298.252C487.228 297.395 486.373 295.754 486.301 295.611C485.019 293.542 481.313 290.33 478.676 291.044C476.752 291.543 475.896 293.613 476.609 295.326C477.25 297.11 479.317 298.323 481.028 298.822C482.952 299.393 487.157 298.894 487.655 298.822C487.941 300.107 488.154 301.32 488.368 302.462C488.511 303.104 488.582 303.675 488.653 304.246H490.364C490.221 303.604 490.079 302.89 489.936 302.176C489.651 300.892 489.366 299.536 489.081 298.109C489.366 297.966 491.219 297.252 492.787 296.325C494.212 297.823 497.775 299.607 498.203 299.821C497.704 301.035 497.205 302.176 496.778 303.247C496.635 303.604 496.493 303.889 496.35 304.175H498.132C498.203 304.103 498.203 303.961 498.274 303.889C498.773 302.676 499.272 301.391 499.771 300.036C500.27 300.107 504.475 300.963 506.399 300.535C508.18 300.107 510.318 299.108 511.102 297.395C511.886 295.682 511.174 293.542 509.321 292.971C506.755 292.114 502.835 295.04 501.339 296.967C501.267 297.11 500.484 298.466 499.985 299.322C500.199 298.751 500.412 298.252 500.626 297.681C501.054 296.539 501.41 295.397 501.838 294.184C501.98 293.613 502.194 292.971 502.408 292.4C502.622 291.829 502.693 291.115 502.907 290.544C503.263 289.046 503.548 287.547 503.762 286.048C504.76 286.405 508.252 287.618 510.033 287.476C511.815 287.333 514.096 286.691 515.165 285.049C516.162 283.479 515.806 281.267 514.096 280.411C511.673 279.198 507.325 281.481 505.615 283.194C505.472 283.265 504.403 284.693 503.833 285.406C503.976 284.478 504.118 283.551 504.261 282.623C504.617 279.911 504.831 277.199 505.116 274.488C505.187 273.631 505.258 272.846 505.401 271.99C505.757 272.133 509.891 273.631 511.886 273.489C513.668 273.346 515.949 272.704 517.018 271.062C518.015 269.492 517.659 267.28 515.949 266.424C513.525 265.211 509.178 267.494 507.468 269.207C507.325 269.35 505.757 271.276 505.401 271.847C505.615 269.992 505.829 268.208 506.114 266.352C506.47 263.855 507.04 261.5 507.682 259.145C507.824 259.216 512.171 260.857 514.238 260.715C516.02 260.572 518.3 259.93 519.369 258.288C520.367 256.718 520.011 254.506 518.3 253.65C515.877 252.437 511.53 254.72 509.82 256.433C509.677 256.576 507.967 258.717 507.682 259.073C507.753 258.931 507.753 258.788 507.824 258.645C508.537 256.219 509.606 253.935 510.675 251.866C511.316 250.653 511.958 249.511 512.599 248.44C513.383 248.797 516.946 250.581 518.799 250.653C520.581 250.724 522.933 250.296 524.144 248.797C525.356 247.37 525.213 245.158 523.574 244.016C521.294 242.517 516.733 244.301 514.88 245.8C514.808 245.871 513.811 246.87 513.169 247.513C513.454 247.013 513.811 246.513 514.096 246.085C515.236 244.373 516.376 242.874 517.374 241.518C517.944 240.804 518.514 240.091 519.013 239.52C519.94 239.52 523.788 239.377 525.498 238.592C527.138 237.807 528.99 236.38 529.418 234.525C529.774 232.669 528.705 230.742 526.71 230.528C524.002 230.243 520.795 233.954 519.797 236.166C519.726 236.38 518.728 239.52 518.799 239.52H518.871C518.372 240.091 517.802 240.733 517.231 241.447C516.162 242.731 515.022 244.23 513.811 245.943C512.599 247.655 511.387 249.511 510.247 251.58C509.107 253.65 508.038 255.933 507.254 258.431V258.502C507.254 257.717 507.254 255.505 507.183 255.291C506.898 252.865 504.831 248.44 502.194 247.941C500.27 247.584 498.631 249.083 498.488 250.938C498.346 252.865 499.7 254.792 501.054 256.005C502.55 257.361 506.826 258.717 507.111 258.788C506.328 261.143 505.757 263.641 505.33 266.21C505.045 267.637 504.831 269.135 504.688 270.634C504.688 269.92 504.688 269.35 504.688 269.207C504.403 266.781 502.337 262.356 499.7 261.856C497.775 261.5 496.136 262.998 495.994 264.854C495.851 266.781 497.205 268.707 498.559 269.92C499.913 271.134 503.548 272.347 504.475 272.632C504.403 273.203 504.332 273.774 504.261 274.345C503.904 277.057 503.619 279.769 503.263 282.48C503.12 283.408 502.978 284.336 502.764 285.263C502.764 284.621 502.764 284.122 502.764 284.05C502.479 281.624 500.412 277.199 497.775 276.7C495.851 276.343 494.212 277.842 494.07 279.697C493.927 281.624 495.281 283.551 496.635 284.764C497.918 285.906 501.268 287.048 502.337 287.404C502.123 288.332 501.909 289.26 501.695 290.188C501.553 290.83 501.41 291.401 501.196 291.972C500.982 292.542 500.84 293.185 500.626 293.756C500.198 294.897 499.771 296.039 499.343 297.11C499.058 297.895 498.773 298.608 498.488 299.322C498.631 298.394 498.916 296.539 498.916 296.396C498.987 294.755 498.346 292.186 497.277 290.33C497.277 290.116 497.277 289.831 497.205 289.617C496.92 287.761 495.139 286.405 493.286 286.905C490.649 287.618 489.01 292.186 488.867 294.612C488.867 294.755 488.938 296.325 489.01 297.324C488.867 296.753 488.724 296.182 488.582 295.611C488.297 294.469 488.012 293.327 487.655 292.043C487.442 291.472 487.299 290.83 487.085 290.259C486.943 289.688 486.658 289.046 486.444 288.403C485.945 286.976 485.304 285.549 484.733 284.122C485.731 283.908 489.366 282.98 490.791 281.838C492.217 280.768 493.784 278.912 493.713 276.985C493.713 275.13 492.217 273.489 490.221 273.703C487.513 273.988 485.161 278.27 484.662 280.696C484.662 280.839 484.448 282.623 484.377 283.551C484.021 282.694 483.593 281.838 483.166 280.982C481.954 278.555 480.671 276.129 479.388 273.703C478.961 272.989 478.605 272.204 478.248 271.49C478.605 271.419 482.881 270.42 484.52 269.135C485.945 268.065 487.513 266.21 487.442 264.283C487.442 262.427 485.945 260.786 483.95 261C481.241 261.286 478.89 265.567 478.391 267.994C478.319 268.208 478.106 270.705 478.106 271.348C477.25 269.706 476.395 268.065 475.683 266.424C474.614 264.14 473.758 261.856 473.046 259.573C473.188 259.502 477.678 258.502 479.388 257.218C480.814 256.147 482.382 254.292 482.31 252.365C482.31 250.51 480.814 248.868 478.818 249.083C476.11 249.368 473.758 253.65 473.259 256.076C473.188 256.29 472.974 259.002 472.974 259.43C472.903 259.287 472.903 259.145 472.832 259.002C472.119 256.576 471.692 254.078 471.478 251.794C471.335 250.438 471.264 249.154 471.193 247.869C472.048 247.798 475.968 247.227 477.607 246.228C479.175 245.3 480.885 243.659 481.099 241.732C481.313 239.877 479.959 238.093 478.034 238.093C475.326 238.093 472.547 242.089 471.763 244.444C471.692 244.587 471.478 245.871 471.264 246.87C471.264 246.299 471.264 245.728 471.264 245.158C471.264 243.088 471.407 241.233 471.549 239.52C471.62 238.592 471.692 237.736 471.834 236.951C472.618 236.38 475.754 234.168 476.752 232.598C477.678 231.028 478.462 228.816 477.749 227.031C477.037 225.247 475.041 224.32 473.331 225.176C470.908 226.461 470.266 231.313 470.694 233.668C470.694 233.882 471.62 237.022 471.692 237.022H471.763C471.692 237.807 471.549 238.592 471.478 239.52C471.335 241.161 471.121 243.088 471.121 245.158C471.05 247.227 471.05 249.439 471.264 251.794C471.478 254.149 471.834 256.647 472.476 259.145V259.216C472.048 258.574 470.765 256.718 470.694 256.576C469.126 254.72 464.992 252.151 462.427 253.222C460.645 254.007 460.075 256.147 461.001 257.789C461.999 259.644 464.209 260.501 465.99 260.715Z" fill="#4143EC"/>
<path d="M512.598 247.94C512.669 247.94 513.453 244.801 513.525 244.586C513.881 242.16 513.097 237.307 510.674 236.166C508.892 235.309 506.968 236.308 506.326 238.092C505.685 239.876 506.469 242.089 507.467 243.659C508.536 245.443 512.598 247.94 512.598 247.94Z" fill="#4143EC"/>
<path d="M499.624 337.715H488.506C481.807 337.715 476.391 332.291 476.391 325.583V302.747H511.81V325.583C511.739 332.291 506.323 337.715 499.624 337.715Z" fill="white" stroke="#263238" stroke-miterlimit="10" stroke-linecap="round"/>
<path d="M511.741 320.516V316.234C508.961 318.447 505.255 317.947 502.619 316.234C497.772 313.166 492.071 315.592 491.857 315.663C490.931 316.092 490.503 317.162 490.859 318.09C491.287 319.017 492.356 319.446 493.282 319.089C493.354 319.089 497.416 317.376 500.552 319.374C502.69 320.73 505.042 321.444 507.322 321.444C508.89 321.444 510.315 321.158 511.741 320.516Z" fill="white" stroke="#263238" stroke-miterlimit="10" stroke-linecap="round"/>
<path d="M476.32 319.946C478.458 319.66 481.024 318.875 484.16 317.376C490.36 314.379 501.121 310.097 503.544 315.021C503.972 315.949 505.112 316.306 506.039 315.878C506.965 315.45 507.322 314.308 506.894 313.38C503.901 307.457 495.705 307.671 482.521 314.022C479.955 315.236 477.959 315.878 476.32 316.163V319.946Z" fill="white" stroke="#263238" stroke-miterlimit="10" stroke-linecap="round"/>
<path d="M482.308 311.24C482.308 311.953 481.738 312.524 481.025 312.524C480.312 312.524 479.742 311.953 479.742 311.24C479.742 310.526 480.312 309.955 481.025 309.955C481.666 309.955 482.308 310.526 482.308 311.24Z" fill="white" stroke="#263238" stroke-miterlimit="10" stroke-linecap="round"/>
<path d="M489.862 308.67C489.862 309.384 489.292 309.955 488.58 309.955C487.867 309.955 487.297 309.384 487.297 308.67C487.297 307.957 487.867 307.386 488.58 307.386C489.292 307.315 489.862 307.885 489.862 308.67Z" fill="white" stroke="#263238" stroke-miterlimit="10" stroke-linecap="round"/>
<path d="M498.698 306.672C498.698 307.386 498.128 307.957 497.416 307.957C496.703 307.957 496.133 307.386 496.133 306.672C496.133 305.959 496.703 305.388 497.416 305.388C498.128 305.388 498.698 305.959 498.698 306.672Z" fill="white" stroke="#263238" stroke-miterlimit="10" stroke-linecap="round"/>
<path d="M507.464 307.814C507.464 308.527 506.894 309.098 506.181 309.098C505.469 309.098 504.898 308.527 504.898 307.814C504.898 307.1 505.469 306.529 506.181 306.529C506.823 306.529 507.464 307.1 507.464 307.814Z" fill="white" stroke="#263238" stroke-miterlimit="10" stroke-linecap="round"/>
<path d="M496.558 321.658C496.558 322.372 495.988 322.943 495.275 322.943C494.562 322.943 493.992 322.372 493.992 321.658C493.992 320.945 494.562 320.374 495.275 320.374C495.988 320.302 496.558 320.945 496.558 321.658Z" fill="white" stroke="#263238" stroke-miterlimit="10" stroke-linecap="round"/>
<path d="M503.191 324.298C503.191 325.012 502.621 325.583 501.908 325.583C501.195 325.583 500.625 325.012 500.625 324.298C500.625 323.585 501.195 323.014 501.908 323.014C502.621 323.014 503.191 323.513 503.191 324.298Z" fill="white" stroke="#263238" stroke-miterlimit="10" stroke-linecap="round"/>
<path d="M509.745 324.298C509.745 325.012 509.175 325.583 508.462 325.583C507.75 325.583 507.18 325.012 507.18 324.298C507.18 323.585 507.75 323.014 508.462 323.014C509.175 323.014 509.745 323.513 509.745 324.298Z" fill="white" stroke="#263238" stroke-miterlimit="10" stroke-linecap="round"/>
<g opacity="0.3">
<path d="M535.494 92.1478C535.106 92.1478 534.804 92.1478 534.502 92.1046C534.2 92.1046 533.941 92.0614 533.682 92.0182C533.423 91.975 533.164 91.9317 532.862 91.8885C532.603 91.8453 532.3 91.7589 531.998 91.6724C531.567 91.5428 531.135 91.4131 530.66 91.2402C530.186 91.0674 529.754 90.9809 529.409 90.9809C529.107 90.9809 528.891 91.0241 528.761 91.1538C528.632 91.2834 528.545 91.4563 528.459 91.6724H527.984V84.9735H528.33C528.675 86.5726 529.107 87.8259 529.711 88.6903C530.272 89.5979 530.919 90.2462 531.567 90.6784C532.214 91.1106 532.905 91.4131 533.595 91.4995C534.286 91.6292 534.933 91.6724 535.494 91.6724V81.516L533.682 80.9973C531.955 80.4787 530.704 79.7872 529.84 78.9228C528.977 78.0584 528.545 76.8915 528.545 75.4653C528.545 74.5145 528.718 73.6501 529.063 72.8289C529.409 72.0078 529.883 71.3163 530.488 70.7544C531.092 70.1926 531.826 69.7172 532.646 69.3714C533.509 69.0257 534.415 68.8528 535.408 68.8528H535.494V66.9512H535.926V68.8528C536.573 68.896 537.091 68.9825 537.523 69.1121C537.955 69.2418 538.343 69.3714 538.645 69.5011C538.947 69.6307 539.249 69.7604 539.508 69.8901C539.767 70.0197 540.026 70.0629 540.328 70.0629C540.587 70.0629 540.803 70.0197 540.89 69.9333C540.976 69.8468 541.105 69.674 541.278 69.3714H541.71V75.1196H541.321C541.192 74.4281 540.976 73.7365 540.717 73.045C540.458 72.3968 540.069 71.7917 539.638 71.2731C539.206 70.7544 538.688 70.3223 538.041 69.9765C537.437 69.6307 536.703 69.4147 535.883 69.3714V78.2313L538.473 78.966C538.775 79.0525 539.206 79.1821 539.811 79.4415C540.415 79.6575 541.019 80.0033 541.58 80.4355C542.184 80.8677 542.702 81.4295 543.134 82.1642C543.566 82.8558 543.825 83.7633 543.825 84.8006C543.825 85.7514 543.652 86.7022 543.263 87.5666C542.918 88.4742 542.357 89.2522 541.71 89.9004C541.019 90.5919 540.199 91.1106 539.206 91.5428C538.214 91.9317 537.091 92.1478 535.84 92.1478V94.352H535.408V92.1478H535.494ZM535.494 69.3714H535.408C534.89 69.3714 534.372 69.4579 533.768 69.5875C533.164 69.7172 532.603 69.9333 532.085 70.279C531.567 70.6248 531.135 71.057 530.79 71.5756C530.445 72.1374 530.272 72.829 530.272 73.6501C530.272 74.2984 530.401 74.9035 530.66 75.3789C530.919 75.8543 531.265 76.2432 531.696 76.589C532.128 76.9348 532.603 77.1941 533.164 77.4102C533.725 77.6263 534.243 77.7991 534.804 77.9288L535.538 78.1449V69.3714H535.494ZM535.926 91.7156C537.048 91.7156 537.955 91.5428 538.645 91.197C539.336 90.8513 539.94 90.4623 540.328 89.9437C540.76 89.425 541.019 88.9064 541.192 88.3013C541.364 87.6963 541.451 87.1776 541.451 86.659C541.451 85.9243 541.321 85.276 541.062 84.7574C540.803 84.2388 540.501 83.8066 540.113 83.4608C539.724 83.1151 539.293 82.8558 538.861 82.6397C538.386 82.4236 537.955 82.2507 537.566 82.121L535.926 81.6456V91.7156Z" fill="#141516"/>
<path d="M535.495 97.0312C544.052 97.0312 550.99 90.0846 550.99 81.5156C550.99 72.9466 544.052 66 535.495 66C526.937 66 520 72.9466 520 81.5156C520 90.0846 526.937 97.0312 535.495 97.0312Z" stroke="#141516" stroke-miterlimit="10"/>
</g>
<g opacity="0.3">
<path d="M91.0652 259.641C90.8712 259.803 90.7096 259.964 90.5804 260.094C90.4188 260.223 90.2895 260.32 90.1279 260.45C89.9986 260.547 89.837 260.644 89.6754 260.741C89.5138 260.838 89.3522 260.935 89.1583 261.032C88.8997 261.162 88.6088 261.291 88.3179 261.453C87.9947 261.583 87.7685 261.744 87.6069 261.906C87.4453 262.036 87.3806 262.165 87.3806 262.295C87.3806 262.424 87.413 262.553 87.4776 262.683L87.2513 262.909L84.1163 259.641L84.2779 259.479C85.1828 260.094 85.9585 260.482 86.6696 260.644C87.3483 260.806 87.9624 260.838 88.5118 260.741C89.029 260.644 89.4815 260.45 89.8693 260.191C90.2572 259.932 90.5804 259.673 90.8712 259.382L86.1525 254.463L85.0212 255.045C83.9547 255.595 83.0174 255.854 82.2094 255.822C81.4013 255.789 80.658 255.433 79.9792 254.754C79.5591 254.301 79.2359 253.783 79.0096 253.265C78.7834 252.715 78.7188 252.165 78.7188 251.615C78.7511 251.064 78.8804 250.514 79.1389 249.932C79.3975 249.381 79.753 248.864 80.2378 248.411L80.2701 248.378L79.3975 247.44L79.6237 247.245L80.4964 248.184C80.8196 247.925 81.1105 247.699 81.369 247.569C81.6276 247.44 81.8862 247.31 82.1124 247.245C82.3386 247.181 82.5326 247.084 82.7265 247.019C82.9204 246.954 83.0497 246.857 83.179 246.728C83.3083 246.598 83.3729 246.501 83.4052 246.436C83.4052 246.372 83.4052 246.21 83.3406 245.983L83.5668 245.789L86.1848 248.508L85.9909 248.669C85.603 248.378 85.1828 248.152 84.7304 247.957C84.2779 247.763 83.8577 247.634 83.3729 247.601C82.9204 247.537 82.4679 247.601 82.0154 247.699C81.5629 247.828 81.1105 248.055 80.6903 248.411L84.795 252.715L86.411 251.873C86.6049 251.776 86.8635 251.647 87.2513 251.485C87.6392 251.323 88.0917 251.194 88.5765 251.129C89.0613 251.064 89.5784 251.097 90.1279 251.226C90.6773 251.356 91.1944 251.679 91.6793 252.197C92.1317 252.65 92.4549 253.2 92.7135 253.783C92.9397 254.398 93.069 255.013 93.0367 255.66C93.0367 256.307 92.8751 256.955 92.5842 257.602C92.2933 258.249 91.8409 258.864 91.2591 259.447L92.261 260.515L92.0348 260.709L91.0652 259.641ZM80.5287 248.605L80.4964 248.637C80.2378 248.864 80.0116 249.155 79.7853 249.511C79.5591 249.867 79.3975 250.223 79.3005 250.644C79.2036 251.032 79.2036 251.453 79.2682 251.873C79.3652 252.294 79.5914 252.715 79.9792 253.103C80.3025 253.427 80.6257 253.653 80.9489 253.751C81.3044 253.848 81.6599 253.88 82.0154 253.848C82.371 253.815 82.7265 253.718 83.082 253.556C83.4375 253.395 83.7931 253.233 84.1163 253.071L84.5688 252.844L80.5287 248.605ZM91.0652 259.252C91.6146 258.735 91.9701 258.249 92.1641 257.731C92.358 257.246 92.4226 256.76 92.3903 256.34C92.358 255.919 92.261 255.498 92.0671 255.142C91.8732 254.786 91.6469 254.463 91.4207 254.236C91.0652 253.88 90.7096 253.621 90.3541 253.492C89.9986 253.362 89.6431 253.297 89.2875 253.297C88.932 253.297 88.6088 253.362 88.2856 253.492C87.9624 253.589 87.6715 253.718 87.4129 253.848L86.411 254.365L91.0652 259.252Z" fill="#141516"/>
<path d="M96.5004 254.612C96.5623 248.875 91.968 244.174 86.2387 244.112C80.5094 244.05 75.8147 248.651 75.7527 254.388C75.6908 260.125 80.2851 264.826 86.0145 264.888C91.7438 264.95 96.4385 260.349 96.5004 254.612Z" stroke="#141516" stroke-miterlimit="10"/>
</g>
<g opacity="0.3">
<path d="M506.399 179.789C506.185 179.932 505.971 180.074 505.758 180.217C505.544 180.36 505.401 180.431 505.187 180.503C505.045 180.574 504.831 180.717 504.617 180.788C504.404 180.859 504.19 180.931 503.976 181.002C503.691 181.073 503.334 181.216 502.907 181.288C502.551 181.359 502.265 181.502 501.98 181.644C501.767 181.787 501.695 181.93 501.624 182.073C501.624 182.215 501.624 182.358 501.695 182.572L501.41 182.786L498.488 178.576L498.702 178.433C499.629 179.289 500.413 179.86 501.196 180.217C501.98 180.503 502.622 180.645 503.263 180.645C503.905 180.645 504.403 180.503 504.902 180.288C505.401 180.074 505.829 179.789 506.185 179.575L501.767 173.152L500.413 173.58C499.13 174.009 497.989 174.151 497.063 173.937C496.136 173.794 495.353 173.224 494.782 172.296C494.355 171.725 494.07 171.083 493.927 170.44C493.785 169.798 493.785 169.156 493.927 168.514C494.07 167.871 494.284 167.3 494.711 166.73C495.067 166.159 495.638 165.659 496.208 165.231L496.279 165.16L495.424 163.946L495.709 163.732L496.564 164.945C496.992 164.731 497.348 164.517 497.633 164.446C497.989 164.303 498.274 164.232 498.488 164.232C498.773 164.161 498.987 164.161 499.201 164.089C499.415 164.018 499.629 163.946 499.771 163.875C499.914 163.732 500.056 163.661 500.056 163.59C500.056 163.518 500.056 163.304 500.056 163.09L500.341 162.876L502.764 166.444L502.551 166.587C502.194 166.23 501.767 165.873 501.268 165.516C500.84 165.231 500.341 165.017 499.842 164.874C499.344 164.731 498.845 164.66 498.275 164.731C497.704 164.803 497.206 164.945 496.635 165.302L500.484 170.869L502.408 170.226C502.622 170.155 502.978 170.084 503.477 169.941C503.976 169.798 504.475 169.798 505.045 169.798C505.615 169.798 506.185 169.941 506.755 170.155C507.325 170.369 507.896 170.869 508.323 171.511C508.751 172.082 509.036 172.795 509.178 173.509C509.321 174.223 509.321 174.936 509.25 175.65C509.107 176.364 508.822 177.077 508.394 177.791C507.967 178.504 507.325 179.075 506.542 179.646L507.468 181.002L507.183 181.216L506.399 179.789ZM496.493 165.516C496.136 165.802 495.78 166.087 495.495 166.444C495.139 166.801 494.925 167.158 494.711 167.586C494.497 168.014 494.426 168.514 494.497 169.013C494.497 169.513 494.711 170.012 495.067 170.512C495.353 170.94 495.709 171.225 496.065 171.44C496.422 171.654 496.849 171.725 497.205 171.725C497.633 171.725 498.061 171.725 498.488 171.582C498.916 171.511 499.344 171.368 499.771 171.225L500.341 171.011L496.493 165.516ZM506.47 179.361C507.183 178.861 507.682 178.362 507.967 177.862C508.252 177.363 508.466 176.863 508.466 176.364C508.537 175.864 508.466 175.364 508.323 174.936C508.181 174.508 507.967 174.08 507.753 173.794C507.397 173.295 507.04 173.009 506.684 172.724C506.328 172.51 505.9 172.367 505.544 172.296C505.116 172.225 504.76 172.225 504.404 172.296C504.047 172.367 503.691 172.439 503.335 172.581L502.123 173.009L506.47 179.361Z" fill="#141516"/>
<path d="M508.622 182.782C513.948 178.992 515.198 171.597 511.414 166.263C507.629 160.93 500.244 159.678 494.918 163.468C489.591 167.257 488.341 174.653 492.126 179.986C495.91 185.32 503.296 186.571 508.622 182.782Z" stroke="#141516" stroke-miterlimit="10"/>
</g>
<g opacity="0.3">
<path d="M72.3576 90.8978C72.0726 90.8978 71.7875 90.8978 71.5737 90.8978C71.3599 90.8978 71.1461 90.8264 70.9323 90.8264C70.7185 90.8264 70.5047 90.755 70.2909 90.6837C70.0771 90.6123 69.8633 90.6123 69.6495 90.541C69.3644 90.4696 69.0081 90.3269 68.6517 90.1841C68.2954 90.0414 67.9391 89.9701 67.7253 89.9701C67.5115 89.9701 67.2977 90.0414 67.2264 90.1128C67.1551 90.1841 67.0839 90.3269 67.0126 90.541H66.6562V85.4028H66.9413C67.2264 86.616 67.5115 87.5437 68.0103 88.2574C68.4379 88.971 68.9368 89.4705 69.4357 89.756C69.9345 90.1128 70.4334 90.3269 71.0036 90.3982C71.5024 90.4696 72.0013 90.541 72.4289 90.541V82.7624L71.0748 82.3342C69.792 81.9774 68.7943 81.4065 68.1529 80.7643C67.5115 80.122 67.1551 79.1943 67.1551 78.1238C67.1551 77.4102 67.2977 76.7679 67.5115 76.1257C67.7965 75.4834 68.1529 74.9839 68.5805 74.5557C69.0081 74.1275 69.5782 73.7707 70.2196 73.4852C70.861 73.1998 71.5737 73.1284 72.3576 73.1284H72.4289V71.7012H72.7852V73.1284C73.2841 73.1284 73.6404 73.1998 73.9968 73.3425C74.3531 73.4139 74.6382 73.5566 74.852 73.628C75.0658 73.7707 75.3509 73.8421 75.4934 73.9134C75.7072 73.9848 75.921 74.0561 76.1348 74.0561C76.3486 74.0561 76.4911 74.0562 76.5624 73.9848C76.6337 73.9134 76.7049 73.7707 76.8475 73.5566H77.0613V77.8384H76.7762C76.7049 77.2675 76.5624 76.7679 76.3486 76.2684C76.1348 75.7689 75.8497 75.2693 75.5647 74.9125C75.2083 74.4843 74.852 74.1989 74.3531 73.9134C73.8542 73.628 73.3554 73.4852 72.714 73.4139V80.1934L74.7095 80.7643C74.9233 80.8356 75.2796 80.9783 75.7072 81.1211C76.1348 81.2638 76.6337 81.5492 77.0613 81.9061C77.4889 82.2629 77.9165 82.691 78.2728 83.1906C78.6292 83.7615 78.7717 84.4038 78.7717 85.1887C78.7717 85.9024 78.6292 86.616 78.3441 87.3296C78.059 88.0433 77.6314 88.6142 77.1325 89.1137C76.6337 89.6132 75.9923 90.0414 75.2083 90.3269C74.4244 90.6123 73.6404 90.8264 72.6427 90.8264V92.5391H72.2864V90.8978H72.3576ZM72.2864 73.4139C71.93 73.4139 71.5024 73.4852 71.0036 73.5566C70.5759 73.628 70.0771 73.8421 69.7207 74.0561C69.2931 74.2702 69.0081 74.6271 68.723 75.0552C68.4379 75.4834 68.2954 75.9829 68.2954 76.6252C68.2954 77.1248 68.3667 77.5529 68.5805 77.9097C68.7943 78.2666 69.0081 78.552 69.3644 78.8375C69.7207 79.1229 70.0771 79.2656 70.5047 79.4797C70.9323 79.6224 71.3599 79.7652 71.7162 79.9079L72.2864 80.0506V73.4139ZM72.714 90.541C73.5692 90.541 74.2819 90.3982 74.7807 90.1841C75.3509 89.8987 75.7785 89.6132 76.0635 89.2564C76.3486 88.8996 76.6337 88.4714 76.7049 87.9719C76.8475 87.5437 76.9187 87.1155 76.9187 86.6874C76.9187 86.1165 76.8475 85.6169 76.6337 85.2601C76.4199 84.8319 76.2061 84.5465 75.921 84.261C75.6359 83.9756 75.2796 83.7615 74.9233 83.6188C74.5669 83.476 74.2106 83.3333 73.9255 83.262L72.714 82.9051V90.541Z" fill="#141516"/>
<path d="M80.7364 91.1294C85.3564 86.5032 85.3564 79.0027 80.7364 74.3765C76.1164 69.7503 68.6259 69.7503 64.0059 74.3765C59.3859 79.0027 59.3859 86.5032 64.0059 91.1294C68.6259 95.7556 76.1164 95.7556 80.7364 91.1294Z" stroke="#141516" stroke-miterlimit="10"/>
</g>
<g opacity="0.3">
<path d="M370.585 46.3857C370.306 46.2183 370.083 46.0509 369.86 45.9393C369.637 45.7718 369.47 45.6602 369.303 45.5486C369.136 45.437 368.969 45.2696 368.801 45.1021C368.634 44.9347 368.467 44.7673 368.244 44.5441C367.965 44.265 367.742 43.986 367.464 43.6511C367.185 43.3163 366.906 43.093 366.628 42.9256C366.405 42.814 366.238 42.7582 366.07 42.814C365.959 42.8698 365.792 42.9256 365.625 43.093L365.234 42.814L368.133 37.847L368.411 38.0144C367.965 39.3539 367.742 40.47 367.798 41.363C367.854 42.2559 368.021 43.0372 368.3 43.6511C368.578 44.265 368.969 44.7673 369.47 45.158C369.916 45.5486 370.362 45.8835 370.808 46.1067L375.211 38.5725L374.096 37.4006C373.037 36.2844 372.368 35.224 372.145 34.2195C371.867 33.2149 372.09 32.1545 372.703 31.0942C373.093 30.4245 373.594 29.8106 374.208 29.3641C374.821 28.9176 375.434 28.5828 376.158 28.4712C376.827 28.3037 377.607 28.3037 378.332 28.4154C379.112 28.527 379.837 28.806 380.617 29.2525L380.673 29.3083L381.509 27.9131L381.843 28.0805L380.951 29.4199C381.397 29.699 381.732 30.0338 382.01 30.3129C382.289 30.5919 382.512 30.8709 382.679 31.0942C382.846 31.3174 383.014 31.5406 383.181 31.7639C383.348 31.9871 383.515 32.0987 383.682 32.2104C383.905 32.322 384.017 32.3778 384.128 32.3778C384.24 32.3778 384.407 32.2662 384.63 32.1545L384.964 32.322L382.512 36.5076L382.233 36.3402C382.456 35.7821 382.623 35.1682 382.679 34.5543C382.791 33.9404 382.735 33.3265 382.679 32.7684C382.568 32.2104 382.4 31.6523 382.066 31.0942C381.787 30.5919 381.341 30.0896 380.728 29.699L376.939 36.2844L378.555 37.9586C378.722 38.1261 379.001 38.4609 379.335 38.8516C379.669 39.298 380.004 39.7445 380.227 40.3584C380.45 40.9165 380.617 41.5862 380.673 42.3117C380.728 43.0372 380.505 43.7627 380.004 44.5441C379.614 45.2696 379.056 45.8835 378.388 46.3857C377.719 46.888 376.994 47.2229 376.214 47.4461C375.434 47.6693 374.598 47.6693 373.65 47.5577C372.758 47.4461 371.811 47.1113 370.919 46.5532L369.972 48.1716L369.637 48.0042L370.585 46.3857ZM380.45 29.5315L380.394 29.4757C380.004 29.2525 379.558 29.0851 379.056 28.9176C378.555 28.7502 378.053 28.6944 377.496 28.6944C376.994 28.6944 376.437 28.8618 375.991 29.0851C375.489 29.3641 375.099 29.7548 374.709 30.3687C374.43 30.8709 374.263 31.3174 374.263 31.8197C374.263 32.2662 374.319 32.7126 374.486 33.1591C374.653 33.6056 374.876 33.9962 375.211 34.3869C375.545 34.7775 375.824 35.1682 376.158 35.5031L376.604 36.0053L380.45 29.5315ZM371.086 46.2183C371.922 46.7206 372.647 46.9438 373.316 46.9996C373.985 47.0554 374.598 46.9996 375.099 46.8322C375.601 46.6648 376.102 46.3857 376.437 45.9951C376.827 45.6044 377.106 45.2696 377.329 44.8789C377.663 44.3208 377.83 43.8185 377.886 43.3163C377.942 42.814 377.886 42.3675 377.719 41.9211C377.607 41.4746 377.384 41.0839 377.161 40.7491C376.938 40.4142 376.66 40.0794 376.381 39.8003L375.378 38.74L371.086 46.2183Z" fill="#141516"/>
<path d="M385.914 46.3181C390.202 40.3703 388.863 32.068 382.923 27.7745C376.983 23.4809 368.692 24.8219 364.404 30.7697C360.117 36.7174 361.456 45.0197 367.396 49.3133C373.335 53.6069 381.627 52.2659 385.914 46.3181Z" stroke="#141516" stroke-miterlimit="10"/>
</g>
<path d="M449.243 167.587L449.172 167.73V210.191H406.768L403.775 208.192L403.419 207.978C401.494 206.694 400.069 204.767 399.142 202.483C399.071 202.269 399 202.055 398.929 201.841C398.501 200.485 398.359 199.058 398.43 197.631C398.572 195.204 399.428 192.778 400.853 190.637C401.138 190.209 401.423 189.781 401.637 189.353C402.777 187.212 403.419 184.857 403.419 182.359C403.419 177.578 401.138 173.296 397.432 170.37C395.08 168.443 392.087 167.159 388.809 166.588C387.74 166.374 386.599 166.302 385.459 166.302C383.677 166.302 382.038 166.517 380.399 166.945C376.194 168.015 372.56 170.513 370.279 173.796C368.569 176.293 367.571 179.219 367.571 182.359C367.571 185.356 368.498 188.282 370.137 190.709C372.417 193.991 373.344 198.13 372.061 201.913C371.206 204.482 369.709 206.694 367.642 208.05L364.364 210.262H322.031V167.801L324.241 164.518C325.595 162.449 327.804 160.95 330.37 160.094C334.147 158.809 338.209 159.737 341.558 162.021C343.982 163.662 346.832 164.59 349.897 164.59C352.391 164.59 354.672 163.948 356.738 162.877C357.023 162.734 357.38 162.52 357.665 162.378C362.226 159.594 365.433 154.314 365.861 148.176C365.932 147.677 365.932 147.177 365.932 146.749C365.932 143.181 365.005 139.97 363.438 137.186C362.297 135.117 360.801 133.333 359.019 131.977C357.023 130.407 354.6 129.337 352.035 128.98C351.322 128.837 350.609 128.837 349.897 128.837C348.329 128.837 346.761 129.122 345.264 129.622C343.91 130.05 342.699 130.692 341.558 131.477C340.133 132.477 338.565 133.19 336.855 133.547C335.144 133.975 333.363 134.046 331.652 133.69C331.225 133.618 330.868 133.476 330.441 133.333C327.875 132.477 325.666 130.907 324.241 128.837L324.027 128.552L322.031 125.483V83.3789H449.172V125.269L449.243 125.34V167.587Z" fill="white" stroke="#141516" stroke-miterlimit="10" stroke-linecap="round" stroke-linejoin="round"/>
<path opacity="0.8" d="M399.216 202.412C400.071 204.696 401.568 206.622 403.492 207.907L403.848 208.121C403.991 206.194 404.133 204.339 404.205 202.412H399.216ZM372.705 135.902C370.709 134.332 368.642 132.833 366.504 131.477L363.369 136.972C364.936 139.755 365.863 143.038 365.863 146.535C365.863 147.034 365.863 147.534 365.792 147.962L372.705 135.902ZM357.097 162.948L357.525 162.163C357.24 162.377 356.955 162.52 356.598 162.663C356.812 162.806 356.955 162.877 357.097 162.948ZM339.138 120.202L336.857 133.333C338.496 132.905 340.135 132.191 341.561 131.263C342.701 130.478 343.913 129.836 345.267 129.408L346.55 122.2C344.055 121.344 341.632 120.702 339.138 120.202ZM377.978 140.469L358.451 163.733C360.589 165.089 362.727 166.516 364.651 168.158L383.323 145.893C381.613 143.966 379.831 142.182 377.978 140.469ZM353.462 124.627L351.966 128.766C354.531 129.122 356.955 130.193 358.95 131.763L360.375 127.838C358.095 126.696 355.814 125.554 353.462 124.627ZM403.35 188.996L401.71 189.281C401.497 189.709 401.212 190.138 400.926 190.566C399.501 192.635 398.646 195.062 398.503 197.559L404.062 196.56C403.92 194.063 403.706 191.493 403.35 188.996ZM324.029 118.418V128.337L324.243 128.623C325.668 130.692 327.806 132.262 330.443 133.119C330.871 133.261 331.227 133.333 331.655 133.476V118.918C329.089 118.632 326.595 118.489 324.029 118.418ZM395.083 162.948L388.882 166.516C392.161 167.087 395.083 168.372 397.506 170.299L398.29 169.871C397.292 167.516 396.223 165.232 395.083 162.948ZM387.599 151.031L365.934 169.228C367.502 170.656 368.999 172.154 370.424 173.724C372.705 170.441 376.268 168.015 380.544 166.873L391.947 157.311C390.521 155.17 389.096 153.1 387.599 151.031Z" fill="#4143EC"/>
<path d="M449.316 210.19V337.501H322.104V295.04L319.894 291.758C318.54 289.688 316.331 288.19 313.765 287.262C309.988 285.977 305.926 286.976 302.577 289.26C300.153 290.901 297.303 291.829 294.238 291.829C285.33 291.829 278.203 283.765 278.203 273.917C278.203 272.632 278.346 271.419 278.559 270.206C279.842 263.427 284.546 258.003 290.604 256.433C291.744 256.148 292.955 256.005 294.238 256.005C294.381 256.005 294.523 256.005 294.666 256.005C297.374 256.076 299.868 256.861 302.078 258.289C302.22 258.36 302.363 258.503 302.505 258.574C303.075 258.931 303.646 259.288 304.287 259.573C306.639 260.715 309.276 261.286 311.841 260.858C312.411 260.786 313.053 260.644 313.623 260.429C313.837 260.358 314.051 260.287 314.336 260.215C315.191 259.859 316.046 259.43 316.759 258.931C317.97 258.146 319.039 257.147 319.823 255.934L322.033 252.58V210.119H364.437L367.715 207.906C369.782 206.479 371.349 204.338 372.205 201.698C373.416 197.916 372.49 193.848 370.28 190.565C368.641 188.068 367.715 185.284 367.715 182.216C367.715 179.147 368.713 176.221 370.352 173.795C372.561 170.512 376.124 168.015 380.258 166.873C381.968 166.373 383.75 166.159 385.603 166.159C386.672 166.159 387.741 166.231 388.81 166.445C392.088 166.944 395.081 168.3 397.433 170.227C401.139 173.153 403.491 177.506 403.491 182.287C403.491 184.785 402.85 187.14 401.709 189.209C401.424 189.709 401.21 190.137 400.854 190.565C399.429 192.635 398.574 195.061 398.36 197.487C398.289 198.915 398.431 200.342 398.93 201.769C399.001 201.983 399.072 202.126 399.144 202.34C399.999 204.695 401.424 206.622 403.348 207.906L403.562 208.049L406.627 210.119H449.316V210.19Z" fill="#6985D1" stroke="#141516" stroke-miterlimit="10" stroke-linecap="round" stroke-linejoin="round"/>
<path opacity="0.8" d="M316.903 258.93C316.191 258.716 315.478 258.502 314.765 258.288L314.409 260.215L310.561 281.838C313.055 282.195 315.549 282.409 318.115 282.552L322.035 260.144C320.395 259.787 318.614 259.43 316.903 258.93ZM341.134 260.001C338.64 260.5 336.146 260.786 333.58 260.857L337.143 281.196C339.638 280.767 342.132 280.125 344.555 279.483L341.134 260.001ZM304.36 259.573L297.376 278.841C299.799 279.626 302.222 280.268 304.717 280.767L311.986 260.857C309.42 261.285 306.783 260.715 304.36 259.573ZM294.739 255.933L284.619 273.56C286.829 274.702 289.18 275.772 291.532 276.771L302.222 258.288C300.013 256.861 297.447 256.076 294.739 255.933ZM278.633 270.134C278.775 270.206 278.847 270.277 278.989 270.349L290.677 256.361C284.619 258.003 279.916 263.355 278.633 270.134ZM331.228 260.929C328.805 260.929 326.382 260.786 324.03 260.429V282.623C326.596 282.552 329.09 282.409 331.584 282.123V260.929H331.228ZM383.467 212.188C383.324 214.757 382.897 217.255 382.398 219.681L401.07 222.964C401.783 220.537 402.353 218.04 402.78 215.542L383.467 212.188ZM383.253 202.411C383.467 204.409 383.61 206.407 383.61 208.477C383.61 208.976 383.61 209.476 383.538 209.976H403.564C403.636 209.333 403.707 208.691 403.778 208.049C403.921 206.193 404.063 204.267 404.135 202.34H383.253V202.411ZM381.899 221.893C381.258 224.391 380.402 226.746 379.405 229.029L396.438 235.238C397.507 232.954 398.504 230.599 399.36 228.244L381.899 221.893ZM350.399 257.289C348.047 258.217 345.624 258.93 343.13 259.573L349.758 277.842C352.181 276.985 354.461 275.986 356.742 274.916L350.399 257.289ZM359.094 252.865C356.956 254.221 354.746 255.434 352.394 256.433L361.659 272.489C363.868 271.276 366.007 269.92 368.145 268.564L359.094 252.865ZM373.418 239.591C371.922 241.661 370.283 243.587 368.501 245.372L381.97 256.647C383.681 254.791 385.32 252.865 386.888 250.866L373.418 239.591ZM366.862 246.941C365.009 248.654 363.013 250.224 360.947 251.723L372.421 265.424C374.416 263.854 376.34 262.213 378.193 260.5L366.862 246.941ZM378.478 231.099C377.409 233.383 376.126 235.595 374.701 237.664L390.024 246.513C391.449 244.444 392.732 242.232 393.943 240.019L378.478 231.099ZM403.351 188.995L401.925 189.28L381.258 192.92C381.97 195.346 382.612 197.773 382.968 200.342L398.576 197.558L404.063 196.631C403.921 194.062 403.707 191.493 403.351 188.995ZM388.955 166.516L372.421 176.078C373.988 178.076 375.414 180.146 376.697 182.358L397.649 170.226C395.226 168.371 392.233 167.015 388.955 166.516ZM400.357 175.721L377.552 184.071C378.692 186.283 379.761 188.638 380.616 191.064L402.282 183.143C401.783 180.645 401.07 178.148 400.357 175.721ZM370.496 173.866C370.71 174.151 370.995 174.437 371.209 174.651L380.402 166.944C376.269 168.157 372.777 170.583 370.496 173.866Z" fill="#4143EC"/>
<path d="M278.558 270.135C278.345 271.348 278.202 272.561 278.202 273.846C278.202 283.765 285.4 291.758 294.237 291.758C297.23 291.758 300.081 290.83 302.504 289.189C305.854 286.976 309.845 286.049 313.693 287.262C316.259 288.118 318.468 289.688 319.893 291.758L322.103 295.112V337.572H194.891V210.19H237.295L240.43 208.12L240.644 207.978C242.568 206.693 243.994 204.695 244.92 202.411C244.992 202.197 245.063 202.055 245.134 201.84C245.847 199.771 245.847 197.63 245.348 195.561C244.92 193.848 244.208 192.206 243.21 190.708C242.426 189.637 241.856 188.424 241.428 187.14C240.929 185.641 240.644 184.071 240.644 182.358C240.644 175.293 245.704 169.299 252.76 167.158C254.541 166.587 256.537 166.302 258.532 166.302C267.868 166.302 275.494 172.653 276.349 180.788C276.42 181.288 276.42 181.787 276.42 182.287C276.42 182.644 276.42 183.001 276.349 183.357C276.135 185.927 275.28 188.424 273.855 190.494L273.784 190.565C273.356 191.207 273 191.85 272.643 192.492C271.503 194.847 271.004 197.487 271.36 199.985C271.432 200.556 271.574 201.127 271.788 201.698C271.859 201.84 271.931 202.055 272.002 202.269C272.928 204.624 274.354 206.622 276.278 207.835L278.772 209.476L279.556 210.047H321.96V252.508L319.751 255.791C318.967 256.933 317.969 257.932 316.758 258.717C315.974 259.216 315.19 259.644 314.263 260.001C314.05 260.072 313.836 260.144 313.622 260.215C313.052 260.429 312.41 260.572 311.769 260.643C309.203 261 306.566 260.501 304.215 259.287C303.573 259.002 303.003 258.645 302.433 258.217C302.29 258.146 302.148 258.003 302.005 257.932C299.796 256.576 297.302 255.719 294.594 255.648C294.451 255.648 294.237 255.648 294.095 255.648C292.883 255.648 291.672 255.791 290.531 256.076C284.616 257.86 279.841 263.284 278.558 270.135Z" fill="white" stroke="#141516" stroke-miterlimit="10" stroke-linecap="round" stroke-linejoin="round"/>
<path opacity="0.8" d="M258.531 166.302C256.535 166.302 254.54 166.587 252.758 167.158L276.347 180.788C275.492 172.653 267.795 166.302 258.531 166.302ZM272.713 192.635L241.426 187.068C241.854 188.353 242.424 189.566 243.208 190.636C244.206 192.135 244.919 193.776 245.346 195.489L271.43 200.128C271.074 197.63 271.573 194.99 272.713 192.635ZM245.204 172.082C244.348 174.437 243.564 176.863 242.923 179.361L273.924 190.636C275.35 188.496 276.205 186.069 276.419 183.5L245.204 172.082ZM278.913 209.69L276.419 208.049C274.494 206.764 272.998 204.838 272.143 202.483H244.99C244.063 204.838 242.638 206.764 240.714 208.049L240.5 208.192C240.571 208.834 240.643 209.476 240.714 210.047H278.984C278.913 209.904 278.913 209.762 278.913 209.69ZM282.619 227.959L253.186 244.944C254.54 247.084 256.036 249.154 257.604 251.152L285.969 234.81C284.686 232.669 283.545 230.386 282.619 227.959ZM286.539 235.952L262.094 256.504C263.804 258.36 265.657 260.144 267.51 261.857L290.957 242.16C289.389 240.162 287.893 238.093 286.539 235.952ZM291.884 243.16L272.642 266.067C274.566 267.494 276.49 268.85 278.485 270.135C279.768 263.284 284.543 257.932 290.672 256.362L297.3 248.512C295.376 246.87 293.594 245.086 291.884 243.16ZM280.053 219.61L246.344 231.884C247.342 234.239 248.411 236.523 249.551 238.806L282.191 226.889C281.265 224.534 280.552 222.107 280.053 219.61ZM298.512 249.439L294.806 255.933C297.514 256.005 300.008 256.861 302.217 258.217L304.783 253.721C302.574 252.508 300.507 251.009 298.512 249.439ZM278.913 210.975L241.854 217.54C242.353 220.038 242.994 222.536 243.778 224.891L279.84 218.539C279.341 216.042 279.056 213.544 278.913 210.975ZM306.208 254.578L304.427 259.573C306.779 260.715 309.415 261.286 311.981 260.929L313.121 257.718C310.698 256.861 308.418 255.791 306.208 254.578ZM314.761 258.288L314.404 260.215C315.259 259.858 316.115 259.43 316.899 258.931C316.186 258.717 315.473 258.502 314.761 258.288Z" fill="#4143EC"/>
<path d="M316.901 258.931C316.117 259.431 315.333 259.859 314.406 260.216L314.763 258.289C315.475 258.503 316.188 258.717 316.901 258.931Z" fill="white" stroke="#141516" stroke-miterlimit="10" stroke-linecap="round" stroke-linejoin="round"/>
<path d="M146.147 156.882C144.365 156.81 138.664 159.736 138.664 159.736L144.152 177.22C144.152 177.22 180.284 173.01 180.712 173.01C181.139 172.938 181.923 172.724 182.137 171.511C182.351 170.298 189.478 136.972 189.478 136.972L181.282 135.188L172.944 159.594C172.944 159.594 147.858 156.953 146.147 156.882Z" fill="#263238" stroke="#263238" stroke-miterlimit="10"/>
<path d="M197.53 120.772C197.174 120.844 194.68 121.129 194.68 121.129L190.831 122.199L193.753 119.559C193.753 119.559 196.675 118.275 197.174 117.918C197.673 117.632 197.388 116.705 197.103 116.776C196.889 116.776 194.181 117.061 193.397 117.418C192.613 117.775 188.408 120.487 188.408 120.487L191.33 116.919C191.33 116.919 194.537 114.278 194.822 113.707C195.107 113.065 194.822 112.351 194.038 112.637C193.254 112.922 190.403 115.063 189.833 115.705C189.263 116.348 185.985 119.416 185.985 119.416L186.341 118.417C186.341 118.417 189.406 114.207 189.762 113.493C190.118 112.78 189.976 111.923 189.62 111.852C189.263 111.709 188.479 112.351 187.98 113.279C187.41 114.207 183.134 119.416 182.92 119.845C182.707 120.273 182.422 131.548 182.422 131.548L181.281 135.188L188.693 136.829L189.334 133.047C189.334 133.047 190.118 131.833 190.475 131.191C190.831 130.549 191.758 126.124 191.758 126.124L194.965 123.341C194.965 123.341 197.316 122.556 198.029 122.057C198.599 121.486 197.887 120.772 197.53 120.772Z" fill="#263238" stroke="#263238" stroke-miterlimit="10"/>
<path d="M280.563 55.9034C277.997 57.5448 276.145 59.8997 275.004 62.6115C273.436 66.251 270.514 69.2482 266.737 70.2473C264.1 70.961 261.392 70.8182 259.112 69.8192L255.477 68.2492L232.672 33.1387L125.984 102.432L194.9 208.763L230.391 185.712L232.03 182.001C233.028 179.718 233.099 177.006 232.458 174.366C231.46 170.512 228.395 167.586 224.761 166.088C222.053 164.946 219.701 163.09 218.062 160.521C213.216 153.1 216.066 142.681 224.405 137.328C232.672 131.976 243.29 133.546 248.137 141.039C249.776 143.608 250.56 146.534 250.488 149.46C250.417 153.456 251.771 157.453 254.907 159.95C257.045 161.663 259.539 162.662 261.962 162.662H265.953L301.516 139.541L278.425 103.931V99.9343C278.425 97.4366 279.423 95.0102 281.133 92.8693C283.556 89.7294 287.547 88.3021 291.538 88.3735C294.46 88.4448 297.311 87.7312 299.948 86.0185C307.36 81.2372 309.07 70.6041 303.654 62.3261C298.309 53.9052 287.975 51.1221 280.563 55.9034Z" fill="#6985D1" stroke="#141516" stroke-miterlimit="10" stroke-linecap="round" stroke-linejoin="round"/>
<path d="M204.595 131.334L199.464 135.188L195.829 145.036C195.829 145.036 185.567 180.503 184.355 182.287C183.144 184.071 179.937 185.498 179.937 185.498L174.734 177.863L195.259 132.904L199.892 131.691L204.595 131.334Z" fill="#263238" stroke="#263238" stroke-miterlimit="10"/>
<path d="M156.844 155.384L160.122 156.454L160.407 161.949L157.913 159.808V161.949C157.913 161.949 161.619 171.226 165.182 184.928C168.745 198.63 169.244 207.336 168.888 215.757C168.532 224.106 167.819 229.815 167.819 229.815L163.757 216.114L154.421 161.735L153.922 157.453L156.844 155.384Z" fill="#D3D4E1" stroke="#263238" stroke-miterlimit="10"/>
<path d="M165.606 215.043C165.606 215.043 168.599 230.885 169.312 237.665C170.025 244.444 176.51 266.424 175.655 276.272C175.299 280.554 174.657 319.589 174.657 319.589L177.223 321.445L176.51 327.582C176.51 327.582 186.202 332.649 188.269 333.362C190.336 334.076 189.409 332.007 190.336 334.076C191.262 336.146 187.557 337.287 182.211 337.787C176.866 338.215 172.519 337.573 172.519 337.573L170.239 336.217L169.526 337.573C169.526 337.573 166.319 337.43 165.321 337.43C164.323 337.43 163.468 337.287 163.468 337.287C163.468 337.287 162.613 332.934 162.399 331.15C162.185 329.295 162.043 327.368 162.043 327.368C162.043 327.368 160.332 325.298 160.332 324.228C160.332 323.158 161.615 318.947 161.615 318.947L160.119 293.827L159.477 277.914L154.417 256.219C154.417 256.219 150.212 279.912 149.714 280.982C149.215 282.053 133.536 322.872 133.536 322.872L134.819 323.943L133.393 328.795L137.456 333.434C137.456 333.434 144.155 336.645 144.155 337.216C144.155 337.787 143.3 338.643 143.3 338.643C143.3 338.643 137.669 338.857 133.892 338.429C130.115 338.001 128.048 337.43 126.766 337.145C125.483 336.788 123.63 334.79 123.63 334.79L122.347 335.575L116.859 332.435C116.859 332.435 118.285 325.227 118.926 323.443C119.568 321.73 120.85 320.874 120.85 320.874L123.63 316.307L134.534 274.56L135.033 236.595L133.892 229.601L136.102 216.042L165.606 215.043Z" fill="#263238" stroke="#263238" stroke-miterlimit="10"/>
<path d="M156.124 122.985C156.124 122.985 159.402 126.41 159.545 127.909C159.687 129.479 158.975 130.977 159.402 131.691C159.83 132.404 163.821 136.329 163.678 136.829C163.536 137.329 161.469 138.827 161.469 138.827L154.984 155.312L139.804 149.817L141.514 144.679L134.673 137.899C134.673 137.899 134.245 130.549 139.447 125.411C144.579 120.344 156.124 122.985 156.124 122.985Z" fill="white" stroke="#263238" stroke-miterlimit="10"/>
<path d="M148.43 126.553C148.43 126.553 157.552 123.627 157.98 120.487C158.407 117.347 150.996 115.563 144.51 116.919C138.025 118.275 130.542 125.482 130.257 131.477C129.972 137.471 138.595 143.466 139.165 143.68C139.664 143.965 139.593 145.25 140.591 145.535C141.588 145.892 141.945 146.106 143.299 145.036C144.653 143.894 144.297 140.754 144.297 140.754C144.297 140.754 140.448 140.183 139.949 137.471C139.45 134.831 141.731 133.475 143.299 134.331C144.867 135.188 146.15 138.328 146.435 139.255C146.791 140.183 146.791 146.463 149 147.962C151.209 149.532 158.764 150.816 161.044 150.674C163.325 150.602 163.61 149.746 163.111 147.819C162.612 145.892 161.757 142.253 161.686 141.396C161.615 140.54 162.398 138.97 161.401 138.685C160.474 138.328 158.265 140.326 155.913 142.181C153.633 144.037 152.991 144.394 152.991 144.394C152.991 144.394 152.991 144.108 150.14 139.541C147.29 134.902 146.15 132.761 146.15 132.547C146.15 132.262 151.209 131.691 150.639 129.55C150.212 127.552 148.43 126.553 148.43 126.553Z" fill="#263238" stroke="#263238" stroke-miterlimit="10"/>
<path d="M158.052 130.192C158.052 130.192 156.484 128.979 155.344 131.405" stroke="#263238" stroke-miterlimit="10"/>
<path d="M157.625 142.324C157.625 142.324 159.05 143.181 160.903 142.824" stroke="white" stroke-miterlimit="10"/>
<path d="M157.983 133.761C158.126 134.475 158.054 135.117 157.769 135.188C157.484 135.26 157.128 134.689 156.985 133.975C156.843 133.261 156.914 132.619 157.199 132.548C157.484 132.548 157.841 133.047 157.983 133.761Z" fill="#263238"/>
<path d="M139.52 148.033L156.838 155.384L155.555 160.664L138.023 151.459L139.52 148.033Z" fill="white" stroke="#263238" stroke-miterlimit="10"/>
<path d="M155.555 160.664C155.555 160.664 161.684 170.655 163.109 187.711C164.534 204.838 165.603 214.971 165.603 214.971L158.12 215.827L155.555 160.664Z" fill="white" stroke="#263238" stroke-miterlimit="10"/>
<path d="M138.025 151.459L136.029 155.812C136.029 155.812 130.186 169.014 130.399 171.94C130.542 174.866 133.678 204.41 133.678 204.41L126.836 236.095C126.836 236.095 136.6 242.661 145.793 243.446C155.058 244.231 160.902 242.304 160.902 242.304C160.902 242.304 161.899 221.894 160.902 208.906C159.904 195.918 158.621 172.654 157.481 167.944C156.341 163.234 155.557 160.593 155.557 160.593L138.025 151.459Z" fill="#D3D4E1" stroke="#263238" stroke-miterlimit="10"/>
<path d="M136.031 155.812L150.641 162.234L158.195 198.058" stroke="#263238" stroke-miterlimit="10"/>
<path d="M141.016 161.235C141.016 161.235 147.002 159.094 148.784 159.38C150.494 159.665 175.081 165.446 175.081 165.446L186.484 142.324L194.395 145.107C194.395 145.107 183.135 177.221 182.707 178.434C182.279 179.647 181.495 179.79 181.068 179.79C180.64 179.79 144.294 179.29 144.294 179.29" fill="#D3D4E1"/>
<path d="M141.016 161.235C141.016 161.235 147.002 159.094 148.784 159.38C150.494 159.665 175.081 165.446 175.081 165.446L186.484 142.324L194.395 145.107C194.395 145.107 183.135 177.221 182.707 178.434C182.279 179.647 181.495 179.79 181.068 179.79C180.64 179.79 144.294 179.29 144.294 179.29" stroke="#263238" stroke-miterlimit="10"/>
<path d="M186.414 142.253L187.982 138.827L194.681 141.111L193.541 144.822L186.414 142.253Z" fill="white" stroke="#263238" stroke-miterlimit="10"/>
<path d="M187.984 138.827C187.984 138.827 189.766 127.695 189.98 127.267C190.265 126.838 195.182 122.271 195.824 121.415C196.465 120.559 197.32 120.059 197.677 120.273C198.033 120.416 198.033 121.272 197.605 121.914C197.178 122.557 193.614 126.339 193.614 126.339L193.116 127.267C193.116 127.267 196.679 124.698 197.392 124.055C198.033 123.484 201.169 121.7 201.953 121.558C202.808 121.415 202.951 122.129 202.594 122.699C202.238 123.27 198.746 125.483 198.746 125.483L195.396 128.694C195.396 128.694 199.886 126.553 200.741 126.268C201.596 125.982 204.233 126.125 204.518 126.125C204.803 126.125 204.946 127.053 204.447 127.267C203.948 127.552 200.884 128.408 200.884 128.408L197.605 130.692L201.525 130.121C201.525 130.121 204.02 130.121 204.376 130.121C204.732 130.121 205.374 130.977 204.661 131.406C203.877 131.834 201.454 132.333 201.454 132.333L197.962 134.688C197.962 134.688 196.465 138.97 196.038 139.541C195.61 140.112 194.684 141.182 194.684 141.182L187.984 138.827Z" fill="white" stroke="#263238" stroke-miterlimit="10"/>
<path d="M356.672 162.663C356.957 162.52 357.313 162.306 357.598 162.163L357.171 162.948C356.957 162.877 356.814 162.805 356.672 162.663Z" fill="white" stroke="#141516" stroke-miterlimit="10" stroke-linecap="round" stroke-linejoin="round"/>
<path d="M404.059 196.631L398.5 197.63C398.643 195.204 399.498 192.777 400.923 190.636C401.208 190.208 401.493 189.78 401.707 189.352L403.346 189.066C403.703 191.493 403.916 194.062 404.059 196.631Z" fill="white" stroke="#141516" stroke-miterlimit="10" stroke-linecap="round" stroke-linejoin="round"/>
<path d="M404.137 202.412C404.066 204.339 403.995 206.266 403.781 208.121L403.424 207.907C401.5 206.623 400.075 204.696 399.148 202.412H404.137Z" fill="white" stroke="#141516" stroke-miterlimit="10" stroke-linecap="round" stroke-linejoin="round"/>
<path opacity="0.8" d="M219.268 101.862C218.341 104.217 217.557 106.643 216.916 109.069L256.754 121.772C257.325 119.274 258.037 116.848 258.892 114.493L219.268 101.862ZM215.134 116.991C214.707 119.488 214.35 121.986 214.208 124.484L255.685 130.121C255.828 127.552 256.113 125.055 256.612 122.628L215.134 116.991ZM235.659 75.3146C233.949 77.1701 232.31 79.1682 230.742 81.095L262.883 106.001C264.166 103.86 265.663 101.719 267.231 99.7921L235.659 75.3146ZM226.181 87.7318C224.827 89.8727 223.615 92.0849 222.475 94.3685L259.178 113.636C260.104 111.281 261.173 108.998 262.456 106.786L226.181 87.7318ZM213.852 132.619C213.923 135.117 214.065 137.686 214.35 140.183L219.41 139.969C220.622 138.542 222.119 137.258 223.829 136.187C231.668 131.192 241.575 132.476 246.635 138.899L255.685 138.542C255.4 136.044 255.329 133.475 255.4 130.978L213.852 132.619ZM249.913 150.816C250.198 153.457 251.124 155.883 252.835 157.81L260.247 154.741C259.178 152.386 258.322 150.031 257.61 147.605L249.913 150.816ZM220.551 162.877L220.337 162.948C221.335 165.232 222.404 167.515 223.615 169.799L228.319 167.872C227.036 166.659 225.539 165.66 223.9 164.946C222.76 164.447 221.548 163.733 220.551 162.877ZM248.131 141.111C249.343 143.395 249.913 145.964 249.842 148.462L257.325 146.82C256.683 144.322 256.184 141.896 255.828 139.398L248.131 141.111ZM247.205 64.967C245.138 66.4657 243.142 68.107 241.289 69.7483L267.872 99.0071C269.511 97.0803 271.293 95.2962 273.217 93.5835L247.205 64.967ZM266.874 69.6056C264.238 70.2479 261.529 70.1052 259.249 69.1061L258.964 68.9634L274.072 92.8699C275.925 91.2999 277.85 89.8727 279.916 88.5881L280.273 88.374L268.157 69.2488C267.73 69.3915 267.302 69.5343 266.874 69.6056ZM260.674 155.598L254.616 159.451C256.612 160.95 258.893 161.878 261.244 161.878L264.238 161.949C264.024 161.592 263.81 161.307 263.596 161.021C262.527 159.237 261.529 157.382 260.674 155.598ZM230.956 181.146L231.027 180.932C231.953 178.791 232.096 176.364 231.668 173.938L227.606 176.507C228.675 178.148 229.815 179.647 230.956 181.146ZM282.767 54.4053L289.181 83.8782C291.604 82.9505 294.027 82.2368 296.45 81.6659L290.25 53.1208C287.756 52.9781 285.19 53.3349 282.767 54.4053ZM275.284 62.0412C274.571 63.6111 273.645 65.1098 272.433 66.3229L281.199 87.8031C283.408 86.5186 285.689 85.3768 288.041 84.3777L277.422 58.473C276.567 59.6148 275.783 60.828 275.284 62.0412ZM296.807 55.2617L297.876 81.4518C300.228 81.0237 302.579 80.7382 304.931 80.5955C305.074 80.5955 305.288 80.5955 305.43 80.5955L305.359 79.7391L304.717 63.3971C304.504 62.9689 304.29 62.5407 304.005 62.1125C302.152 59.0439 299.586 56.7603 296.807 55.2617Z" fill="#4143EC"/>
</svg>
