<svg width="548" height="440" viewBox="0 0 548 440" fill="none" xmlns="http://www.w3.org/2000/svg">
<g clip-path="url(#clip0_163_6493)">
<g opacity="0.3">
<path d="M375.911 240.002L364.551 251.377L375.911 262.752L387.27 251.377L375.911 240.002Z" stroke="#141516" stroke-miterlimit="10" stroke-linecap="round" stroke-linejoin="round"/>
<path d="M130.792 38.8591L119.433 50.234L130.792 61.6089L142.152 50.234L130.792 38.8591Z" stroke="#141516" stroke-miterlimit="10" stroke-linecap="round" stroke-linejoin="round"/>
<path d="M110.135 276.183L103.131 283.197L110.135 290.21L117.139 283.197L110.135 276.183Z" stroke="#141516" stroke-miterlimit="10" stroke-linecap="round" stroke-linejoin="round"/>
<path d="M70.4453 161.971L63.4412 168.984L70.4453 175.998L77.4495 168.984L70.4453 161.971Z" stroke="#141516" stroke-miterlimit="10" stroke-linecap="round" stroke-linejoin="round"/>
<path d="M357.803 80.5346L350.799 87.5481L357.803 94.5616L364.807 87.5481L357.803 80.5346Z" stroke="#141516" stroke-miterlimit="10" stroke-linecap="round" stroke-linejoin="round"/>
<path d="M125.904 283.961L115.898 293.98L125.904 303.999L135.91 293.98L125.904 283.961Z" stroke="#141516" stroke-miterlimit="10" stroke-linecap="round" stroke-linejoin="round"/>
<path d="M325.226 273.334L318.222 280.348L325.226 287.361L332.23 280.348L325.226 273.334Z" stroke="#141516" stroke-miterlimit="10" stroke-linecap="round" stroke-linejoin="round"/>
<path d="M379.141 66.168L365.721 79.6057L379.141 93.0434L392.561 79.6057L379.141 66.168Z" stroke="#141516" stroke-miterlimit="10" stroke-linecap="round" stroke-linejoin="round"/>
<path d="M234.97 384.122L227.966 391.135L234.97 398.149L241.974 391.135L234.97 384.122Z" stroke="#141516" stroke-miterlimit="10" stroke-linecap="round" stroke-linejoin="round"/>
<path d="M95.0472 171.865C100.702 171.865 105.286 167.275 105.286 161.613C105.286 155.951 100.702 151.361 95.0472 151.361C89.3926 151.361 84.8087 155.951 84.8087 161.613C84.8087 167.275 89.3926 171.865 95.0472 171.865Z" stroke="#141516" stroke-miterlimit="10" stroke-linecap="round" stroke-linejoin="round"/>
<path d="M391.296 203.122C396.629 203.122 400.952 198.793 400.952 193.453C400.952 188.113 396.629 183.784 391.296 183.784C385.963 183.784 381.64 188.113 381.64 193.453C381.64 198.793 385.963 203.122 391.296 203.122Z" stroke="#141516" stroke-miterlimit="10" stroke-linecap="round" stroke-linejoin="round"/>
<path d="M425.924 132.607C429.05 132.607 431.584 130.069 431.584 126.939C431.584 123.809 429.05 121.271 425.924 121.271C422.797 121.271 420.263 123.809 420.263 126.939C420.263 130.069 422.797 132.607 425.924 132.607Z" stroke="#141516" stroke-miterlimit="10" stroke-linecap="round" stroke-linejoin="round"/>
<path d="M312.385 52.5069C312.385 50.5898 310.887 49.0895 308.972 49.0895C307.058 49.0895 305.559 50.5898 305.559 52.5069C305.559 54.4239 307.058 55.9242 308.972 55.9242C310.887 55.9242 312.385 54.4239 312.385 52.5069Z" stroke="#141516" stroke-miterlimit="10" stroke-linecap="round" stroke-linejoin="round"/>
<path d="M169.38 250.298C171.265 250.298 172.793 248.768 172.793 246.881C172.793 244.993 171.265 243.463 169.38 243.463C167.495 243.463 165.967 244.993 165.967 246.881C165.967 248.768 167.495 250.298 169.38 250.298Z" stroke="#141516" stroke-miterlimit="10" stroke-linecap="round" stroke-linejoin="round"/>
<path d="M88.8042 343.401C91.6085 343.401 93.8818 341.124 93.8818 338.316C93.8818 335.508 91.6085 333.232 88.8042 333.232C85.9999 333.232 83.7266 335.508 83.7266 338.316C83.7266 341.124 85.9999 343.401 88.8042 343.401Z" stroke="#141516" stroke-miterlimit="10" stroke-linecap="round" stroke-linejoin="round"/>
<path d="M398.122 329.815C398.122 327.314 396.124 325.23 393.543 325.23C391.046 325.23 388.965 327.231 388.965 329.815C388.965 332.315 390.963 334.399 393.543 334.399C396.041 334.315 398.122 332.315 398.122 329.815Z" stroke="#141516" stroke-miterlimit="10" stroke-linecap="round" stroke-linejoin="round"/>
<path d="M361.746 36.0034C361.746 33.5028 359.748 31.4191 357.168 31.4191C354.671 31.4191 352.59 33.4195 352.59 36.0034C352.59 38.5039 354.587 40.5876 357.168 40.5876C359.748 40.5876 361.746 38.5039 361.746 36.0034Z" stroke="#141516" stroke-miterlimit="10" stroke-linecap="round" stroke-linejoin="round"/>
</g>
<path d="M180.201 210.456L147.821 228.127" stroke="#4143EC" stroke-width="3" stroke-miterlimit="10" stroke-linecap="round" stroke-linejoin="round"/>
<path d="M118.937 114.436L153.481 128.106" stroke="#4143EC" stroke-width="3" stroke-miterlimit="10" stroke-linecap="round" stroke-linejoin="round"/>
<path d="M160.307 37.1703L182.448 72.9277" stroke="#4143EC" stroke-width="3" stroke-miterlimit="10" stroke-linecap="round" stroke-linejoin="round"/>
<path d="M235.805 21.2502L234.64 49.6728" stroke="#4143EC" stroke-width="3" stroke-miterlimit="10" stroke-linecap="round" stroke-linejoin="round"/>
<path d="M300.482 88.8476L329.449 59.9249" stroke="#4143EC" stroke-width="3" stroke-miterlimit="10" stroke-linecap="round" stroke-linejoin="round"/>
<path d="M340.77 147.36L365.741 138.858" stroke="#4143EC" stroke-width="3" stroke-miterlimit="10" stroke-linecap="round" stroke-linejoin="round"/>
<path d="M316.963 211.04L337.94 222.959" stroke="#4143EC" stroke-width="3" stroke-miterlimit="10" stroke-linecap="round" stroke-linejoin="round"/>
<path d="M152.982 88.2642L169.963 101.35" stroke="#4143EC" stroke-width="3" stroke-miterlimit="10" stroke-linecap="round" stroke-linejoin="round"/>
<path d="M336.275 112.769L318.045 121.271" stroke="#4143EC" stroke-width="3" stroke-miterlimit="10" stroke-linecap="round" stroke-linejoin="round"/>
<path d="M159.225 174.699L139.913 180.367" stroke="#4143EC" stroke-width="3" stroke-miterlimit="10" stroke-linecap="round" stroke-linejoin="round"/>
<path d="M324.871 182.034L333.944 184.368" stroke="#4143EC" stroke-width="3" stroke-miterlimit="10" stroke-linecap="round" stroke-linejoin="round"/>
<path d="M332.695 148.193C329.449 145.943 317.379 147.943 309.721 154.111C302.063 160.279 300.315 162.53 300.315 162.53C300.315 162.53 296.903 138.358 296.903 137.608C296.903 136.858 291.991 91.4315 290.993 84.7635C289.994 78.0954 288.495 68.1767 287.08 66.0096C285.582 63.7591 279.672 63.509 277.674 64.5092C275.677 65.5095 275.677 65.5095 275.677 65.5095C275.677 65.5095 276.675 48.2559 274.678 44.005C272.68 39.8374 266.52 42.2546 264.772 44.5051C263.024 46.7555 261.776 50.1729 261.776 50.1729C261.776 50.1729 256.115 48.1725 252.869 54.5905C249.623 61.0085 247.209 66.6764 246.709 72.8443C246.21 79.0123 243.463 86.9306 243.463 86.9306C243.463 86.9306 240.217 81.7628 236.804 84.6801C233.391 87.6807 229.395 99.2665 228.397 107.685C227.398 116.103 226.399 138.358 226.399 138.358C226.399 138.358 224.401 148.527 223.402 156.612C222.403 164.78 223.153 198.621 226.815 212.707C230.478 226.793 235.472 235.712 235.472 235.712C235.472 235.712 244.129 264.134 245.377 268.052C246.626 271.969 260.194 325.897 260.194 325.897L300.648 274.47C300.648 274.47 290.493 246.547 288.329 240.129C286.081 233.711 284.666 231.711 284.666 231.711C284.666 231.711 296.986 214.207 303.645 208.956C310.304 203.788 313.8 186.451 315.465 178.783C317.213 171.115 324.372 160.529 328.284 157.029C332.446 153.694 335.859 150.444 332.695 148.193ZM241.382 136.358C240.633 136.358 240.882 126.689 240.882 115.103C240.882 103.517 242.88 98.2663 242.88 98.2663C241.881 103.434 243.879 129.189 243.879 130.856C243.879 132.69 242.131 136.358 241.382 136.358Z" fill="white" stroke="#090F0F" stroke-miterlimit="10" stroke-linecap="round" stroke-linejoin="round"/>
<path d="M278.673 235.962C281.753 234.378 282.336 232.711 282.336 232.711" stroke="#090F0F" stroke-miterlimit="10" stroke-linecap="round" stroke-linejoin="round"/>
<path d="M254.451 230.294C254.451 230.294 268.019 239.212 274.678 237.462" stroke="#090F0F" stroke-miterlimit="10" stroke-linecap="round" stroke-linejoin="round"/>
<path d="M300.315 162.53C300.315 162.53 295.155 170.698 293.906 173.615C292.657 176.616 291.908 179.033 289.744 180.283C287.496 181.534 284.583 183.284 284.583 183.284" stroke="#090F0F" stroke-miterlimit="10" stroke-linecap="round" stroke-linejoin="round"/>
<path d="M285.416 164.947C279.173 167.864 270.349 173.032 265.272 180.533" stroke="#090F0F" stroke-miterlimit="10" stroke-linecap="round" stroke-linejoin="round"/>
<path d="M292.657 162.03C292.657 162.03 290.826 162.613 288.079 163.78" stroke="#090F0F" stroke-miterlimit="10" stroke-linecap="round" stroke-linejoin="round"/>
<path d="M262.608 183.784C262.608 183.784 258.196 191.953 256.199 198.371" stroke="#090F0F" stroke-miterlimit="10" stroke-linecap="round" stroke-linejoin="round"/>
<path d="M261.859 50.173C261.859 50.173 260.61 60.5085 258.862 76.095C257.114 91.6816 256.115 99.3499 256.365 109.185C256.615 119.021 259.362 127.689 259.112 128.939" stroke="#090F0F" stroke-miterlimit="10" stroke-linecap="round" stroke-linejoin="round"/>
<path d="M275.677 65.4261C275.677 65.4261 274.927 71.8442 275.677 80.2626C276.426 88.681 274.927 104.268 274.927 110.185C274.927 116.103 275.177 125.022 275.427 127.689C275.677 130.44 277.175 132.357 277.175 132.357" stroke="#090F0F" stroke-miterlimit="10" stroke-linecap="round" stroke-linejoin="round"/>
<path d="M280.338 133.94C280.338 133.94 281.587 136.191 289.744 136.441" stroke="#090F0F" stroke-miterlimit="10" stroke-linecap="round" stroke-linejoin="round"/>
<path d="M261.609 127.939C261.609 127.939 267.519 129.189 271.515 128.439" stroke="#090F0F" stroke-miterlimit="10" stroke-linecap="round" stroke-linejoin="round"/>
<path d="M240.133 138.358C240.133 138.358 240.133 140.858 232.975 143.026" stroke="#090F0F" stroke-miterlimit="10" stroke-linecap="round" stroke-linejoin="round"/>
<path d="M254.201 131.69C254.95 131.19 257.863 130.19 258.612 126.772" stroke="#090F0F" stroke-miterlimit="10" stroke-linecap="round" stroke-linejoin="round"/>
<path d="M254.617 169.531C254.617 169.531 269.933 163.863 279.672 161.863" stroke="#090F0F" stroke-miterlimit="10" stroke-linecap="round" stroke-linejoin="round"/>
<path d="M298.151 419.583H430.751C421.512 407.331 387.717 362.738 385.469 360.488C382.889 357.904 371.651 356.403 371.651 356.403L338.522 328.814L297.069 260.217L257.697 314.978L251.038 288.389L236.221 343.651C236.221 343.651 289.91 409.164 291.991 411.748C292.324 412.248 294.655 415.166 298.151 419.583Z" fill="#090F0F" stroke="#090F0F" stroke-miterlimit="10" stroke-linecap="round" stroke-linejoin="round"/>
<path d="M194.352 227.46C194.352 227.46 183.364 199.287 180.7 194.12C178.037 188.952 163.72 166.447 162.97 160.279C162.221 154.195 159.974 144.026 157.643 139.775C155.312 135.524 162.221 132.773 167.882 138.108C173.542 143.526 177.038 152.277 176.955 154.778C176.871 157.279 189.774 166.697 189.774 166.697L192.104 145.026C192.104 145.026 194.601 91.1814 194.102 83.1798C193.603 75.1781 193.103 58.0912 199.429 57.4244C205.756 56.7576 206.754 61.842 206.754 61.842C206.754 61.842 207.004 49.1727 214.079 50.0062C219.49 50.673 221.571 55.7574 222.32 58.1746C223.153 60.5917 224.068 63.6757 224.068 63.6757C224.068 63.6757 228.563 60.6751 232.892 67.8432C235.389 72.0108 240.716 85.0135 241.548 88.3475C242.381 91.6815 242.631 92.8485 242.631 92.8485C242.631 92.8485 248.624 92.6817 251.204 98.9331C253.868 105.268 257.614 121.688 261.276 135.357C264.939 148.943 264.772 161.946 264.772 161.946C264.772 161.946 266.187 205.789 263.274 219.708C260.361 233.628 254.867 245.547 253.701 246.63C252.536 247.797 236.304 295.891 236.304 295.891L179.868 274.97C179.868 274.97 191.605 246.047 193.519 239.712C195.351 233.378 194.352 227.46 194.352 227.46Z" fill="white" stroke="#090F0F" stroke-miterlimit="10" stroke-linecap="round" stroke-linejoin="round"/>
<path d="M182.532 186.451C182.615 189.202 183.281 190.869 183.281 190.869" stroke="#090F0F" stroke-miterlimit="10" stroke-linecap="round" stroke-linejoin="round"/>
<path d="M188.109 169.198C188.109 169.198 184.946 172.949 183.281 179.533C182.948 180.867 182.781 182.117 182.615 183.284" stroke="#090F0F" stroke-miterlimit="10" stroke-linecap="round" stroke-linejoin="round"/>
<path d="M206.754 61.842C206.754 61.842 207.753 79.2623 208.419 87.9308C209.085 96.5993 209.418 109.935 209.418 118.687C209.501 127.439 208.419 138.441 207.837 140.859C207.254 143.276 205.922 146.276 205.922 146.276" stroke="#090F0F" stroke-miterlimit="10" stroke-linecap="round" stroke-linejoin="round"/>
<path d="M224.068 63.6757C224.068 63.6757 221.321 66.9263 222.237 71.0939C223.153 75.2614 227.481 98.683 227.481 102.017C227.481 105.434 227.731 134.774 227.814 136.774C227.897 138.775 226.482 145.443 225.816 148.11" stroke="#090F0F" stroke-miterlimit="10" stroke-linecap="round" stroke-linejoin="round"/>
<path d="M242.714 92.9318C242.714 92.9318 239.551 93.2652 240.217 98.2662C240.966 103.267 242.547 119.437 242.547 123.938C242.547 128.439 243.629 138.858 243.38 148.693C243.213 158.529 245.461 161.946 246.46 164.447" stroke="#090F0F" stroke-miterlimit="10" stroke-linecap="round" stroke-linejoin="round"/>
<path d="M193.603 158.445C193.603 158.445 192.437 164.113 194.019 167.031C195.517 169.948 197.681 176.116 197.681 179.533" stroke="#090F0F" stroke-miterlimit="10" stroke-linecap="round" stroke-linejoin="round"/>
<path d="M205.006 155.695C205.006 155.695 204.424 160.362 205.09 163.363C205.755 166.364 207.836 169.448 207.836 169.448" stroke="#090F0F" stroke-miterlimit="10" stroke-linecap="round" stroke-linejoin="round"/>
<path d="M223.985 163.03C223.985 163.03 223.319 167.947 224.484 171.031C225.65 174.115 227.065 176.449 227.065 176.449" stroke="#090F0F" stroke-miterlimit="10" stroke-linecap="round" stroke-linejoin="round"/>
<path d="M198.43 419.583L250.954 300.975C250.954 300.975 228.563 282.471 213.83 272.719C199.096 262.967 181.45 263.301 181.45 263.301C181.45 263.301 158.392 312.478 157.144 315.645C155.895 318.812 139.83 352.153 139.83 352.153C139.83 352.153 132.755 354.653 129.592 360.321C127.094 364.738 109.448 403.163 101.873 419.583H198.43Z" fill="#6985D1" stroke="#090F0F" stroke-miterlimit="10" stroke-linecap="round" stroke-linejoin="round"/>
<path d="M235.543 308.711C237.877 307.329 238.65 304.313 237.27 301.975C235.889 299.638 232.877 298.863 230.542 300.246C228.208 301.629 227.435 304.645 228.816 306.982C230.196 309.32 233.208 310.094 235.543 308.711Z" fill="#090F0F" stroke="#090F0F" stroke-miterlimit="10" stroke-linecap="round" stroke-linejoin="round"/>
<path d="M230.394 324.063C229.728 326.647 227.065 328.314 224.484 327.647C221.904 326.981 220.239 324.313 220.905 321.729C221.571 319.146 224.235 317.479 226.815 318.145C229.479 318.729 231.06 321.396 230.394 324.063Z" fill="#090F0F" stroke="#090F0F" stroke-miterlimit="10" stroke-linecap="round" stroke-linejoin="round"/>
</g>
<defs>
<clipPath id="clip0_163_6493">
<rect width="369" height="400" fill="white" transform="translate(63 20)"/>
</clipPath>
</defs>
</svg>
