<svg width="548" height="440" viewBox="0 0 548 440" fill="none" xmlns="http://www.w3.org/2000/svg">
<g clip-path="url(#clip0_163_6207)">
<path d="M409.825 122.7C409.825 122.7 393.031 113.364 391.8 134.501C390.569 155.637 387.491 293.289 387.491 293.289" stroke="#141516" stroke-width="2" stroke-miterlimit="10" stroke-linecap="round" stroke-linejoin="round"/>
<path d="M383.094 136.35C383.094 136.35 396.811 166.822 390.568 291.351" stroke="#141516" stroke-width="2" stroke-miterlimit="10" stroke-linecap="round" stroke-linejoin="round"/>
<path d="M396.548 126.927C396.548 126.927 390.129 131.066 386.436 126.31C382.743 121.555 388.898 112.924 383.534 109.225C378.17 105.526 368.85 111.163 368.85 111.163C368.85 111.163 376.06 113.276 375.796 117.239C375.533 121.202 372.103 122.612 371.664 120.938C371.224 119.265 367.795 110.546 361.991 114.157C356.188 117.768 355.309 123.316 355.309 123.316C355.309 123.316 368.85 121.907 369.729 127.015C370.521 132.123 364.19 126.134 358.562 125.782C352.935 125.43 347.835 126.31 348.186 129.657C348.538 133.092 347.659 138.64 347.659 138.64C347.659 138.64 352.407 134.413 358.562 134.765C364.717 135.117 364.453 139.08 358.914 138.728C353.286 138.376 348.538 143.748 348.538 143.748C348.538 143.748 353.638 152.467 360.145 156.782C366.652 161.098 368.938 159.512 369.729 156.254C370.521 152.907 368.762 144.365 372.631 144.629C376.588 144.893 366.124 159.424 371.136 160.305C376.148 161.186 380.193 159.688 381.512 156.43C382.831 153.171 382.831 153.171 382.831 153.171C382.831 153.171 381.072 144.629 381.863 141.282C382.655 137.935 383.534 141.37 384.413 145.333C385.293 149.296 385.82 158.896 387.579 158.456C389.25 158.015 394.789 150.97 396.02 148.24C397.339 145.509 388.81 137.143 388.898 135.47C388.986 133.796 395.58 136.967 396.548 138.728C397.603 140.489 398.57 142.779 398.57 142.779C398.57 142.779 402.615 140.225 402.527 132.299C402.263 124.461 396.548 126.927 396.548 126.927Z" fill="#4143EC"/>
<path opacity="0.3" d="M396.548 126.927C396.548 126.927 390.129 131.066 386.436 126.31C382.743 121.555 388.898 112.924 383.534 109.225C378.17 105.526 368.85 111.163 368.85 111.163C368.85 111.163 376.06 113.276 375.796 117.239C375.533 121.202 372.103 122.612 371.664 120.938C371.224 119.265 367.795 110.546 361.991 114.157C356.188 117.768 355.309 123.316 355.309 123.316C355.309 123.316 368.85 121.907 369.729 127.015C370.521 132.123 364.19 126.134 358.562 125.782C352.935 125.43 347.835 126.31 348.186 129.657C348.538 133.092 347.659 138.64 347.659 138.64C347.659 138.64 352.407 134.413 358.562 134.765C364.717 135.117 364.453 139.08 358.914 138.728C353.286 138.376 348.538 143.748 348.538 143.748C348.538 143.748 353.638 152.467 360.145 156.782C366.652 161.098 368.938 159.512 369.729 156.254C370.521 152.907 368.762 144.365 372.631 144.629C376.588 144.893 366.124 159.424 371.136 160.305C376.148 161.186 380.193 159.688 381.512 156.43C382.831 153.171 382.831 153.171 382.831 153.171C382.831 153.171 381.072 144.629 381.863 141.282C382.655 137.935 383.534 141.37 384.413 145.333C385.293 149.296 385.82 158.896 387.579 158.456C389.25 158.015 394.789 150.97 396.02 148.24C397.339 145.509 388.81 137.143 388.898 135.47C388.986 133.796 395.58 136.967 396.548 138.728C397.603 140.489 398.57 142.779 398.57 142.779C398.57 142.779 402.615 140.225 402.527 132.299C402.263 124.461 396.548 126.927 396.548 126.927Z" fill="#141516"/>
<path d="M364.014 145.421C368.234 140.225 374.389 133.268 379.577 129.833" stroke="#141516" stroke-miterlimit="10" stroke-linecap="round" stroke-linejoin="round"/>
<path d="M359.09 151.762C359.09 151.762 360.145 150.265 361.903 148.063" stroke="#141516" stroke-miterlimit="10" stroke-linecap="round" stroke-linejoin="round"/>
<path d="M382.215 131.154C382.215 131.154 388.458 139.961 389.601 149.032" stroke="#141516" stroke-miterlimit="10" stroke-linecap="round" stroke-linejoin="round"/>
<path d="M375.181 136.35C375.181 136.35 376.939 135.293 376.236 146.566" stroke="#141516" stroke-miterlimit="10" stroke-linecap="round" stroke-linejoin="round"/>
<path d="M379.753 125.958C379.753 125.958 383.27 122.788 381.424 116.535" stroke="#141516" stroke-miterlimit="10" stroke-linecap="round" stroke-linejoin="round"/>
<path d="M374.917 131.242L372.367 126.663" stroke="#141516" stroke-miterlimit="10" stroke-linecap="round" stroke-linejoin="round"/>
<path d="M369.553 135.998C369.553 135.998 361.464 129.921 356.452 129.569" stroke="#141516" stroke-miterlimit="10" stroke-linecap="round" stroke-linejoin="round"/>
<path d="M419.409 110.37C419.409 110.37 419.146 119.617 411.935 120.058C404.725 120.498 400.241 108.521 392.943 111.339C385.557 114.245 384.853 127.455 384.853 127.455C384.853 127.455 391.887 121.731 395.58 124.637C399.361 127.543 398.482 132.035 396.46 131.33C394.437 130.626 383.446 128.16 383.094 136.438C382.743 144.717 387.667 149.384 387.667 149.384C387.667 149.384 395.493 134.765 401.12 137.495C406.748 140.137 396.46 142.427 392.327 147.887C388.194 153.259 385.557 158.984 389.162 160.921C392.767 162.859 397.779 167.527 397.779 167.527C397.779 167.527 396.812 159.865 401.384 153.964C405.956 148.063 409.737 150.97 405.604 156.342C401.472 161.714 403.494 170.169 403.494 170.169C403.494 170.169 415.716 171.049 424.421 167.439C433.126 163.916 433.214 160.481 430.401 157.487C427.587 154.492 417.827 150.353 420.728 146.654C423.63 142.867 431.104 163.211 435.413 158.808C439.721 154.404 440.952 149.384 438.578 145.774C436.204 142.163 436.204 142.163 436.204 142.163C436.204 142.163 426.444 138.112 423.63 135.029C420.816 132.035 424.861 133.444 429.433 135.205C434.006 137.055 444.03 143.043 444.733 141.018C445.436 138.992 442.183 128.776 440.337 125.606C438.49 122.435 424.333 125.254 422.663 124.021C421.08 122.788 428.73 118.384 431.192 118.56C433.654 118.737 436.644 119.353 436.644 119.353C436.644 119.353 436.819 113.54 428.906 108.256C420.904 102.884 419.409 110.37 419.409 110.37Z" fill="#4143EC"/>
<path opacity="0.2" d="M419.409 110.37C419.409 110.37 419.146 119.617 411.935 120.058C404.725 120.498 400.241 108.521 392.943 111.339C385.557 114.245 384.853 127.455 384.853 127.455C384.853 127.455 391.887 121.731 395.58 124.637C399.361 127.543 398.482 132.035 396.46 131.33C394.437 130.626 383.446 128.16 383.094 136.438C382.743 144.717 387.667 149.384 387.667 149.384C387.667 149.384 395.493 134.765 401.12 137.495C406.748 140.137 396.46 142.427 392.327 147.887C388.194 153.259 385.557 158.984 389.162 160.921C392.767 162.859 397.779 167.527 397.779 167.527C397.779 167.527 396.812 159.865 401.384 153.964C405.956 148.063 409.737 150.97 405.604 156.342C401.472 161.714 403.494 170.169 403.494 170.169C403.494 170.169 415.716 171.049 424.421 167.439C433.126 163.916 433.214 160.481 430.401 157.487C427.587 154.492 417.827 150.353 420.728 146.654C423.63 142.867 431.104 163.211 435.413 158.808C439.721 154.404 440.952 149.384 438.578 145.774C436.204 142.163 436.204 142.163 436.204 142.163C436.204 142.163 426.444 138.112 423.63 135.029C420.816 132.035 424.861 133.444 429.433 135.205C434.006 137.055 444.03 143.043 444.733 141.018C445.436 138.992 442.183 128.776 440.337 125.606C438.49 122.435 424.333 125.254 422.663 124.021C421.08 122.788 428.73 118.384 431.192 118.56C433.654 118.737 436.644 119.353 436.644 119.353C436.644 119.353 436.819 113.54 428.906 108.256C420.904 102.884 419.409 110.37 419.409 110.37Z" fill="#141516"/>
<path d="M415.716 155.549C413.43 147.799 410.616 136.879 410.792 129.393" stroke="#141516" stroke-miterlimit="10" stroke-linecap="round" stroke-linejoin="round"/>
<path d="M418.706 164.708C418.706 164.708 417.915 162.595 416.859 159.336" stroke="#141516" stroke-miterlimit="10" stroke-linecap="round" stroke-linejoin="round"/>
<path d="M413.87 127.543C413.87 127.543 426.883 127.279 436.731 132.299" stroke="#141516" stroke-miterlimit="10" stroke-linecap="round" stroke-linejoin="round"/>
<path d="M414.309 138.112C414.309 138.112 414.485 135.646 425.213 143.924" stroke="#141516" stroke-miterlimit="10" stroke-linecap="round" stroke-linejoin="round"/>
<path d="M407.011 126.487C407.011 126.487 406.308 120.762 398.658 118.384" stroke="#141516" stroke-miterlimit="10" stroke-linecap="round" stroke-linejoin="round"/>
<path d="M409.034 134.941L402.615 134.325" stroke="#141516" stroke-miterlimit="10" stroke-linecap="round" stroke-linejoin="round"/>
<path d="M410.177 143.572C410.177 143.572 398.57 147.535 394.877 152.379" stroke="#141516" stroke-miterlimit="10" stroke-linecap="round" stroke-linejoin="round"/>
<path d="M342.031 171.842C342.031 171.842 378.698 196.149 378.083 290.118" stroke="#141516" stroke-width="2" stroke-miterlimit="10" stroke-linecap="round" stroke-linejoin="round"/>
<path d="M387.315 165.413C387.315 165.413 386.172 176.069 377.819 175.893C369.465 175.717 365.421 161.45 356.716 164.092C347.923 166.734 345.9 181.882 345.9 181.882C345.9 181.882 354.517 175.893 358.562 179.592C362.607 183.291 361.2 188.399 358.914 187.342C356.628 186.285 344.23 182.498 342.999 192.01C341.768 201.521 347.043 207.422 347.043 207.422C347.043 207.422 357.419 191.305 363.662 194.916C369.993 198.527 357.771 200.2 352.495 206.013C347.219 211.825 343.614 218.166 347.659 220.72C351.704 223.274 356.979 229.175 356.979 229.175C356.979 229.175 356.54 220.28 362.343 213.851C368.147 207.422 372.191 211.121 366.915 217.021C361.64 222.834 363.222 232.786 363.222 232.786C363.222 232.786 377.203 234.899 387.667 231.641C398.043 228.382 398.482 224.419 395.493 220.72C392.503 216.933 381.688 211.297 385.381 207.246C389.074 203.195 395.756 227.413 401.12 222.658C406.484 217.99 408.418 212.266 405.956 207.95C403.494 203.635 403.494 203.635 403.494 203.635C403.494 203.635 392.679 197.998 389.689 194.212C386.7 190.425 391.272 192.45 396.372 195.004C401.472 197.558 412.463 205.396 413.43 203.106C414.397 200.817 411.672 188.663 409.825 184.876C407.979 181.089 391.36 182.939 389.601 181.353C387.843 179.768 397.075 175.453 399.889 175.893C402.703 176.334 406.044 177.302 406.044 177.302C406.044 177.302 406.835 170.609 398.13 163.74C389.689 156.958 387.315 165.413 387.315 165.413Z" fill="#4143EC"/>
<path opacity="0.3" d="M387.315 165.413C387.315 165.413 386.172 176.069 377.819 175.893C369.465 175.717 365.421 161.45 356.716 164.092C347.923 166.734 345.9 181.882 345.9 181.882C345.9 181.882 354.517 175.893 358.562 179.592C362.607 183.291 361.2 188.399 358.914 187.342C356.628 186.285 344.23 182.498 342.999 192.01C341.768 201.521 347.043 207.422 347.043 207.422C347.043 207.422 357.419 191.305 363.662 194.916C369.993 198.527 357.771 200.2 352.495 206.013C347.219 211.825 343.614 218.166 347.659 220.72C351.704 223.274 356.979 229.175 356.979 229.175C356.979 229.175 356.54 220.28 362.343 213.851C368.147 207.422 372.191 211.121 366.915 217.021C361.64 222.834 363.222 232.786 363.222 232.786C363.222 232.786 377.203 234.899 387.667 231.641C398.043 228.382 398.482 224.419 395.493 220.72C392.503 216.933 381.688 211.297 385.381 207.246C389.074 203.195 395.756 227.413 401.12 222.658C406.484 217.99 408.418 212.266 405.956 207.95C403.494 203.635 403.494 203.635 403.494 203.635C403.494 203.635 392.679 197.998 389.689 194.212C386.7 190.425 391.272 192.45 396.372 195.004C401.472 197.558 412.463 205.396 413.43 203.106C414.397 200.817 411.672 188.663 409.825 184.876C407.979 181.089 391.36 182.939 389.601 181.353C387.843 179.768 397.075 175.453 399.889 175.893C402.703 176.334 406.044 177.302 406.044 177.302C406.044 177.302 406.835 170.609 398.13 163.74C389.689 156.958 387.315 165.413 387.315 165.413Z" fill="#141516"/>
<path d="M378.698 217.286C376.764 208.126 374.565 195.18 375.445 186.638" stroke="#141516" stroke-miterlimit="10" stroke-linecap="round" stroke-linejoin="round"/>
<path d="M381.336 228.118C381.336 228.118 380.632 225.652 379.753 221.777" stroke="#141516" stroke-miterlimit="10" stroke-linecap="round" stroke-linejoin="round"/>
<path d="M379.314 184.788C379.314 184.788 394.349 185.757 405.253 192.45" stroke="#141516" stroke-miterlimit="10" stroke-linecap="round" stroke-linejoin="round"/>
<path d="M378.786 197.03C378.786 197.03 379.226 194.211 390.832 204.78" stroke="#141516" stroke-miterlimit="10" stroke-linecap="round" stroke-linejoin="round"/>
<path d="M371.4 182.939C371.4 182.939 371.048 176.246 362.607 172.723" stroke="#141516" stroke-miterlimit="10" stroke-linecap="round" stroke-linejoin="round"/>
<path d="M372.983 192.89L365.684 191.569" stroke="#141516" stroke-miterlimit="10" stroke-linecap="round" stroke-linejoin="round"/>
<path d="M373.422 202.842C373.422 202.842 359.705 206.277 354.869 211.561" stroke="#141516" stroke-miterlimit="10" stroke-linecap="round" stroke-linejoin="round"/>
<path d="M356.364 245.908C356.364 245.908 380.017 263.962 382.479 290.735L377.467 201.081" stroke="#141516" stroke-width="2" stroke-miterlimit="10" stroke-linecap="round" stroke-linejoin="round"/>
<path d="M386.172 290.118C386.172 290.118 368.146 158.72 420.377 158.72" stroke="#141516" stroke-width="2" stroke-miterlimit="10" stroke-linecap="round" stroke-linejoin="round"/>
<path d="M452.647 183.291C446.843 179.856 440.512 179.768 437.347 176.157C434.181 172.547 440.337 170.697 443.678 172.106C447.019 173.515 454.581 177.39 456.076 178.271C457.483 179.152 456.516 166.646 453.878 161.89C451.24 157.223 443.854 154.404 440.249 158.279C432.511 166.382 420.464 155.725 421.344 149.384C422.135 143.043 416.244 136.174 403.582 140.225C390.92 144.188 395.58 146.478 395.58 146.478C395.58 146.478 404.637 152.027 410.353 155.461C416.156 158.896 425.74 161.802 423.63 164.356C421.608 166.822 416.068 165.325 411.408 161.626C406.748 157.927 393.47 149.032 392.151 152.379C390.832 155.637 385.996 164.796 385.996 164.796C385.996 164.796 395.668 166.206 403.406 168.672C411.144 171.137 412.727 175.365 406.66 175.717C400.592 176.069 389.689 171.49 386.26 177.302C382.831 183.115 385.205 197.91 385.205 197.91C385.205 197.91 396.284 190.425 401.911 190.425C407.539 190.425 403.934 193.595 397.603 197.646C391.272 201.697 389.689 203.106 389.689 203.106L395.405 217.814C395.405 217.814 404.901 216.581 408.594 216.845C412.375 217.109 412.375 217.109 412.375 217.109C412.375 217.109 412.375 201.697 416.771 197.118C421.256 192.538 421.959 203.106 422.927 205.837C423.894 208.567 421.08 216.669 421.08 216.669C421.08 216.669 432.071 210.68 435.588 208.302C439.106 205.925 439.106 205.925 439.106 205.925C439.106 205.925 434.973 194.74 432.247 191.481C429.433 188.311 425.652 188.751 428.906 185.933C432.071 183.115 436.907 184.612 439.633 188.575C442.359 192.538 445.612 200.288 445.612 200.288C445.612 200.288 449.745 200.993 455.021 194.916C460.209 188.751 458.45 186.726 452.647 183.291ZM402.439 200.376C398.218 198.263 408.242 194.035 408.242 194.035C412.023 193.419 406.66 202.49 402.439 200.376ZM409.561 180.473C407.715 179.592 413.166 177.743 413.166 177.743C421.08 179.24 411.408 181.441 409.561 180.473Z" fill="#4143EC"/>
<path d="M402.351 211.121C401.208 212.266 400.153 213.41 398.922 214.555" stroke="#141516" stroke-miterlimit="10" stroke-linecap="round" stroke-linejoin="round"/>
<path d="M424.07 178.095C420.025 186.549 413.87 197.646 405.78 207.246" stroke="#141516" stroke-miterlimit="10" stroke-linecap="round" stroke-linejoin="round"/>
<path d="M426.092 173.868C428.642 168.143 429.961 164.444 429.961 164.444C429.961 164.444 434.709 166.646 439.281 165.501C443.854 164.356 447.547 165.325 447.547 165.325" stroke="#141516" stroke-miterlimit="10" stroke-linecap="round" stroke-linejoin="round"/>
<path d="M421.432 172.458C422.663 171.402 404.11 162.154 404.11 162.154" stroke="#141516" stroke-miterlimit="10" stroke-linecap="round" stroke-linejoin="round"/>
<path d="M431.192 178.007C431.192 178.007 439.985 181.618 444.821 187.254" stroke="#141516" stroke-miterlimit="10" stroke-linecap="round" stroke-linejoin="round"/>
<path d="M419.497 183.995C419.497 183.995 413.518 182.851 405.253 183.027C396.987 183.203 391.184 185.405 391.184 185.405" stroke="#141516" stroke-miterlimit="10" stroke-linecap="round" stroke-linejoin="round"/>
<path d="M421.783 189.808C421.783 189.808 431.456 196.149 431.28 204.075" stroke="#141516" stroke-miterlimit="10" stroke-linecap="round" stroke-linejoin="round"/>
<path d="M351.264 169.2C351.264 169.2 345.461 173.427 341.68 169.2C337.987 164.973 343.262 156.43 337.987 153.26C332.711 150.089 324.182 155.902 324.182 155.902C324.182 155.902 331.04 157.487 331.04 161.186C331.04 164.885 327.875 166.47 327.347 164.885C326.82 163.299 323.127 155.285 317.763 159.072C312.487 162.771 311.96 168.143 311.96 168.143C311.96 168.143 324.709 166.029 325.764 170.785C326.82 175.541 320.489 170.257 315.125 170.257C309.761 170.257 305.013 171.314 305.541 174.484C306.068 177.655 305.541 183.027 305.541 183.027C305.541 183.027 309.761 178.799 315.653 178.799C321.456 178.799 321.456 182.498 316.18 182.498C310.904 182.498 306.596 187.783 306.596 187.783C306.596 187.783 311.872 195.797 318.29 199.496C324.621 203.195 326.82 201.609 327.347 198.439C327.875 195.268 325.764 187.254 329.457 187.254C333.151 187.254 324.182 201.609 328.93 202.138C333.678 202.666 337.459 201.081 338.514 197.91C339.569 194.74 339.569 194.74 339.569 194.74C339.569 194.74 337.459 186.726 337.987 183.555C338.514 180.385 339.569 183.555 340.625 187.254C341.68 190.953 342.735 200.024 344.318 199.496C345.9 198.967 350.649 192.098 351.704 189.368C352.759 186.726 344.318 179.24 344.318 177.655C344.318 176.069 350.649 178.711 351.704 180.297C352.759 181.882 353.814 183.996 353.814 183.996C353.814 183.996 357.507 181.353 356.979 173.868C356.54 166.558 351.264 169.2 351.264 169.2Z" fill="#4143EC"/>
<path d="M321.544 188.487C325.237 183.379 330.689 176.422 335.349 172.899" stroke="#141516" stroke-miterlimit="10" stroke-linecap="round" stroke-linejoin="round"/>
<path d="M317.323 194.74C317.323 194.74 318.29 193.243 319.785 191.041" stroke="#141516" stroke-miterlimit="10" stroke-linecap="round" stroke-linejoin="round"/>
<path d="M337.987 173.956C337.987 173.956 344.318 181.97 345.988 190.425" stroke="#141516" stroke-miterlimit="10" stroke-linecap="round" stroke-linejoin="round"/>
<path d="M331.656 179.328C331.656 179.328 333.238 178.271 333.238 188.927" stroke="#141516" stroke-miterlimit="10" stroke-linecap="round" stroke-linejoin="round"/>
<path d="M335.349 169.2C335.349 169.2 338.514 166.03 336.404 160.129" stroke="#141516" stroke-miterlimit="10" stroke-linecap="round" stroke-linejoin="round"/>
<path d="M331.128 174.484L328.402 170.257" stroke="#141516" stroke-miterlimit="10" stroke-linecap="round" stroke-linejoin="round"/>
<path d="M326.292 179.328C326.292 179.328 318.29 174.044 313.542 174.044" stroke="#141516" stroke-miterlimit="10" stroke-linecap="round" stroke-linejoin="round"/>
<path d="M356.716 236.132C356.716 236.132 373.51 226.797 374.741 247.933C375.533 260.968 377.027 318.565 377.995 360.573" stroke="#141516" stroke-width="2" stroke-miterlimit="10" stroke-linecap="round" stroke-linejoin="round"/>
<path d="M383.446 249.871C383.446 249.871 373.071 272.945 374.477 360.662" stroke="#141516" stroke-width="2" stroke-miterlimit="10" stroke-linecap="round" stroke-linejoin="round"/>
<path d="M369.993 240.448C369.993 240.448 376.412 244.587 380.105 239.831C383.798 235.075 377.643 226.445 383.007 222.746C388.37 219.047 397.691 224.683 397.691 224.683C397.691 224.683 390.481 226.797 390.744 230.76C391.008 234.723 394.437 236.132 394.877 234.459C395.317 232.786 398.746 224.067 404.549 227.678C410.353 231.288 411.232 236.837 411.232 236.837C411.232 236.837 397.691 235.428 396.811 240.536C396.02 245.644 402.351 239.655 407.979 239.303C413.606 238.95 418.706 239.831 418.354 243.178C418.002 246.612 418.882 252.161 418.882 252.161C418.882 252.161 414.134 247.933 407.979 248.286C401.823 248.638 402.087 252.601 407.627 252.249C413.254 251.897 418.002 257.269 418.002 257.269C418.002 257.269 412.903 265.988 406.396 270.303C399.889 274.618 397.603 273.033 396.811 269.775C396.02 266.428 397.779 257.885 393.91 258.149C389.953 258.414 400.417 272.945 395.405 273.826C390.393 274.706 386.348 273.209 385.029 269.951C383.71 266.692 383.71 266.692 383.71 266.692C383.71 266.692 385.469 258.149 384.677 254.803C383.886 251.456 383.007 254.891 382.127 258.854C381.248 262.817 380.72 272.417 378.962 271.976C377.291 271.536 371.752 264.49 370.521 261.76C369.202 259.03 377.731 250.664 377.643 248.99C377.555 247.317 370.96 250.487 369.993 252.249C368.938 254.01 367.971 256.3 367.971 256.3C367.971 256.3 363.926 253.746 364.014 245.82C364.278 237.982 369.993 240.448 369.993 240.448Z" fill="#4143EC"/>
<path opacity="0.3" d="M369.993 240.448C369.993 240.448 376.412 244.587 380.105 239.831C383.798 235.075 377.643 226.445 383.007 222.746C388.37 219.047 397.691 224.683 397.691 224.683C397.691 224.683 390.481 226.797 390.744 230.76C391.008 234.723 394.437 236.132 394.877 234.459C395.317 232.786 398.746 224.067 404.549 227.678C410.353 231.288 411.232 236.837 411.232 236.837C411.232 236.837 397.691 235.428 396.811 240.536C396.02 245.644 402.351 239.655 407.979 239.303C413.606 238.95 418.706 239.831 418.354 243.178C418.002 246.612 418.882 252.161 418.882 252.161C418.882 252.161 414.134 247.933 407.979 248.286C401.823 248.638 402.087 252.601 407.627 252.249C413.254 251.897 418.002 257.269 418.002 257.269C418.002 257.269 412.903 265.988 406.396 270.303C399.889 274.618 397.603 273.033 396.811 269.775C396.02 266.428 397.779 257.885 393.91 258.149C389.953 258.414 400.417 272.945 395.405 273.826C390.393 274.706 386.348 273.209 385.029 269.951C383.71 266.692 383.71 266.692 383.71 266.692C383.71 266.692 385.469 258.149 384.677 254.803C383.886 251.456 383.007 254.891 382.127 258.854C381.248 262.817 380.72 272.417 378.962 271.976C377.291 271.536 371.752 264.49 370.521 261.76C369.202 259.03 377.731 250.664 377.643 248.99C377.555 247.317 370.96 250.487 369.993 252.249C368.938 254.01 367.971 256.3 367.971 256.3C367.971 256.3 363.926 253.746 364.014 245.82C364.278 237.982 369.993 240.448 369.993 240.448Z" fill="#141516"/>
<path d="M402.527 258.854C398.306 253.658 392.151 246.701 386.963 243.266" stroke="#141516" stroke-miterlimit="10" stroke-linecap="round" stroke-linejoin="round"/>
<path d="M407.451 265.195C407.451 265.195 406.396 263.698 404.637 261.496" stroke="#141516" stroke-miterlimit="10" stroke-linecap="round" stroke-linejoin="round"/>
<path d="M384.325 244.587C384.325 244.587 378.082 253.394 376.939 262.465" stroke="#141516" stroke-miterlimit="10" stroke-linecap="round" stroke-linejoin="round"/>
<path d="M391.36 249.871C391.36 249.871 389.601 248.814 390.305 260.087" stroke="#141516" stroke-miterlimit="10" stroke-linecap="round" stroke-linejoin="round"/>
<path d="M386.788 239.391C386.788 239.391 383.27 236.22 385.117 229.967" stroke="#141516" stroke-miterlimit="10" stroke-linecap="round" stroke-linejoin="round"/>
<path d="M391.624 244.763L394.174 240.095" stroke="#141516" stroke-miterlimit="10" stroke-linecap="round" stroke-linejoin="round"/>
<path d="M396.899 249.519C396.899 249.519 404.989 243.442 410.001 243.09" stroke="#141516" stroke-miterlimit="10" stroke-linecap="round" stroke-linejoin="round"/>
<path d="M347.131 223.803C347.131 223.803 347.395 233.05 354.605 233.49C361.816 233.931 366.3 221.953 373.598 224.771C380.984 227.678 381.688 240.888 381.688 240.888C381.688 240.888 374.653 235.163 370.96 238.07C367.179 240.976 368.059 245.468 370.081 244.763C372.103 244.058 383.094 241.592 383.446 249.871C383.798 258.149 378.874 262.817 378.874 262.817C378.874 262.817 371.048 248.198 365.421 250.928C359.793 253.57 370.081 255.86 374.214 261.32C378.346 266.692 380.984 272.417 377.379 274.354C373.774 276.292 368.762 280.959 368.762 280.959C368.762 280.959 369.729 273.297 365.157 267.397C360.585 261.496 356.804 264.402 360.936 269.774C365.069 275.147 363.047 283.601 363.047 283.601C363.047 283.601 350.824 284.482 342.119 280.871C333.414 277.348 333.326 273.914 336.14 270.919C338.954 267.925 348.714 263.786 345.812 260.087C342.911 256.3 335.437 276.644 331.128 272.24C326.82 267.837 325.589 262.817 327.963 259.206C330.337 255.595 330.337 255.595 330.337 255.595C330.337 255.595 340.097 251.544 342.911 248.462C345.724 245.468 341.68 246.877 337.107 248.638C332.535 250.487 322.511 256.476 321.808 254.451C321.104 252.425 324.358 242.209 326.204 239.038C328.051 235.868 342.207 238.686 343.878 237.453C345.461 236.22 337.811 231.817 335.349 231.993C332.887 232.169 329.897 232.786 329.897 232.786C329.897 232.786 329.721 226.973 337.635 221.689C345.637 216.317 347.131 223.803 347.131 223.803Z" fill="#4143EC"/>
<path opacity="0.2" d="M347.131 223.803C347.131 223.803 347.395 233.05 354.605 233.49C361.816 233.931 366.3 221.953 373.598 224.771C380.984 227.678 381.688 240.888 381.688 240.888C381.688 240.888 374.653 235.163 370.96 238.07C367.179 240.976 368.059 245.468 370.081 244.763C372.103 244.058 383.094 241.592 383.446 249.871C383.798 258.149 378.874 262.817 378.874 262.817C378.874 262.817 371.048 248.198 365.421 250.928C359.793 253.57 370.081 255.86 374.214 261.32C378.346 266.692 380.984 272.417 377.379 274.354C373.774 276.292 368.762 280.959 368.762 280.959C368.762 280.959 369.729 273.297 365.157 267.397C360.585 261.496 356.804 264.402 360.936 269.774C365.069 275.147 363.047 283.601 363.047 283.601C363.047 283.601 350.824 284.482 342.119 280.871C333.414 277.348 333.326 273.914 336.14 270.919C338.954 267.925 348.714 263.786 345.812 260.087C342.911 256.3 335.437 276.644 331.128 272.24C326.82 267.837 325.589 262.817 327.963 259.206C330.337 255.595 330.337 255.595 330.337 255.595C330.337 255.595 340.097 251.544 342.911 248.462C345.724 245.468 341.68 246.877 337.107 248.638C332.535 250.487 322.511 256.476 321.808 254.451C321.104 252.425 324.358 242.209 326.204 239.038C328.051 235.868 342.207 238.686 343.878 237.453C345.461 236.22 337.811 231.817 335.349 231.993C332.887 232.169 329.897 232.786 329.897 232.786C329.897 232.786 329.721 226.973 337.635 221.689C345.637 216.317 347.131 223.803 347.131 223.803Z" fill="#141516"/>
<path d="M350.824 269.07C353.111 261.32 355.924 250.399 355.748 242.914" stroke="#141516" stroke-miterlimit="10" stroke-linecap="round" stroke-linejoin="round"/>
<path d="M347.835 278.229C347.835 278.229 348.626 276.115 349.681 272.857" stroke="#141516" stroke-miterlimit="10" stroke-linecap="round" stroke-linejoin="round"/>
<path d="M352.671 240.976C352.671 240.976 339.657 240.712 329.809 245.732" stroke="#141516" stroke-miterlimit="10" stroke-linecap="round" stroke-linejoin="round"/>
<path d="M352.231 251.632C352.231 251.632 352.055 249.166 341.328 257.445" stroke="#141516" stroke-miterlimit="10" stroke-linecap="round" stroke-linejoin="round"/>
<path d="M359.529 239.919C359.529 239.919 360.233 234.195 367.883 231.817" stroke="#141516" stroke-miterlimit="10" stroke-linecap="round" stroke-linejoin="round"/>
<path d="M357.507 248.462L363.838 247.757" stroke="#141516" stroke-miterlimit="10" stroke-linecap="round" stroke-linejoin="round"/>
<path d="M356.364 257.005C356.364 257.005 367.971 260.968 371.664 265.811" stroke="#141516" stroke-miterlimit="10" stroke-linecap="round" stroke-linejoin="round"/>
<path d="M424.509 285.363C424.509 285.363 399.537 301.92 391.184 360.397" stroke="#141516" stroke-width="2" stroke-miterlimit="10" stroke-linecap="round" stroke-linejoin="round"/>
<path d="M379.226 278.934C379.226 278.934 380.369 289.59 388.722 289.414C397.075 289.238 401.12 274.971 409.825 277.613C418.618 280.255 420.64 295.402 420.64 295.402C420.64 295.402 412.023 289.414 407.979 293.113C403.934 296.812 405.341 301.92 407.627 300.863C409.913 299.894 422.311 296.019 423.542 305.53C424.773 315.042 419.497 320.942 419.497 320.942C419.497 320.942 409.122 304.826 402.879 308.437C396.548 312.048 408.77 313.721 414.046 319.533C419.321 325.346 422.927 331.687 418.882 334.241C414.837 336.795 409.561 342.695 409.561 342.695C409.561 342.695 410.001 333.801 404.198 327.371C398.394 320.942 394.349 324.641 399.625 330.542C404.901 336.354 403.318 346.306 403.318 346.306C403.318 346.306 389.337 348.42 378.874 345.161C368.498 341.903 368.059 337.94 371.048 334.241C374.038 330.454 384.853 324.818 381.16 320.766C377.467 316.715 370.784 340.934 365.421 336.178C360.057 331.511 358.123 325.786 360.585 321.471C363.047 317.156 363.047 317.156 363.047 317.156C363.047 317.156 373.862 311.519 376.852 307.732C379.841 303.945 375.269 305.971 370.169 308.525C365.069 311.079 354.078 318.917 353.111 316.627C352.143 314.337 354.869 302.184 356.716 298.397C358.562 294.61 375.181 296.459 376.939 294.874C378.698 293.289 369.465 288.973 366.652 289.414C363.838 289.854 360.497 290.823 360.497 290.823C360.497 290.823 359.705 284.13 368.41 277.26C376.851 270.479 379.226 278.934 379.226 278.934Z" fill="#4143EC"/>
<path opacity="0.3" d="M379.226 278.934C379.226 278.934 380.369 289.59 388.722 289.414C397.075 289.238 401.12 274.971 409.825 277.613C418.618 280.255 420.64 295.402 420.64 295.402C420.64 295.402 412.023 289.414 407.979 293.113C403.934 296.812 405.341 301.92 407.627 300.863C409.913 299.894 422.311 296.019 423.542 305.53C424.773 315.042 419.497 320.942 419.497 320.942C419.497 320.942 409.122 304.826 402.879 308.437C396.548 312.048 408.77 313.721 414.046 319.533C419.321 325.346 422.927 331.687 418.882 334.241C414.837 336.795 409.561 342.695 409.561 342.695C409.561 342.695 410.001 333.801 404.198 327.371C398.394 320.942 394.349 324.641 399.625 330.542C404.901 336.354 403.318 346.306 403.318 346.306C403.318 346.306 389.337 348.42 378.874 345.161C368.498 341.903 368.059 337.94 371.048 334.241C374.038 330.454 384.853 324.818 381.16 320.766C377.467 316.715 370.784 340.934 365.421 336.178C360.057 331.511 358.123 325.786 360.585 321.471C363.047 317.156 363.047 317.156 363.047 317.156C363.047 317.156 373.862 311.519 376.852 307.732C379.841 303.945 375.269 305.971 370.169 308.525C365.069 311.079 354.078 318.917 353.111 316.627C352.143 314.337 354.869 302.184 356.716 298.397C358.562 294.61 375.181 296.459 376.939 294.874C378.698 293.289 369.465 288.973 366.652 289.414C363.838 289.854 360.497 290.823 360.497 290.823C360.497 290.823 359.705 284.13 368.41 277.26C376.851 270.479 379.226 278.934 379.226 278.934Z" fill="#141516"/>
<path d="M387.843 330.718C389.777 321.559 391.975 308.613 391.096 300.07" stroke="#141516" stroke-miterlimit="10" stroke-linecap="round" stroke-linejoin="round"/>
<path d="M385.205 341.639C385.205 341.639 385.908 339.173 386.788 335.298" stroke="#141516" stroke-miterlimit="10" stroke-linecap="round" stroke-linejoin="round"/>
<path d="M387.227 298.221C387.227 298.221 372.191 299.189 361.288 305.883" stroke="#141516" stroke-miterlimit="10" stroke-linecap="round" stroke-linejoin="round"/>
<path d="M387.755 310.55C387.755 310.55 387.315 307.732 375.708 318.3" stroke="#141516" stroke-miterlimit="10" stroke-linecap="round" stroke-linejoin="round"/>
<path d="M395.141 296.371C395.141 296.371 395.493 289.678 403.934 286.155" stroke="#141516" stroke-miterlimit="10" stroke-linecap="round" stroke-linejoin="round"/>
<path d="M393.558 306.323L400.856 305.002" stroke="#141516" stroke-miterlimit="10" stroke-linecap="round" stroke-linejoin="round"/>
<path d="M393.031 316.363C393.031 316.363 406.748 319.798 411.584 325.082" stroke="#141516" stroke-miterlimit="10" stroke-linecap="round" stroke-linejoin="round"/>
<path d="M386.524 360.133L389.074 314.602" stroke="#141516" stroke-width="2" stroke-miterlimit="10" stroke-linecap="round" stroke-linejoin="round"/>
<path d="M383.27 360.662C383.798 322.352 378.346 272.328 346.076 272.328" stroke="#141516" stroke-width="2" stroke-miterlimit="10" stroke-linecap="round" stroke-linejoin="round"/>
<path d="M313.894 296.812C319.697 293.377 326.028 293.289 329.194 289.678C332.359 286.067 326.204 284.218 322.863 285.627C319.609 286.948 311.96 290.911 310.465 291.792C309.058 292.672 310.025 280.167 312.663 275.411C315.301 270.743 322.687 267.925 326.292 271.8C334.03 279.902 346.076 269.246 345.197 262.905C344.406 256.564 350.297 249.695 362.959 253.746C375.62 257.709 370.96 259.999 370.96 259.999C370.96 259.999 361.903 265.547 356.188 268.982C350.385 272.417 340.8 275.323 342.911 277.877C344.933 280.343 350.473 278.846 355.133 275.147C359.793 271.448 373.071 262.553 374.389 265.9C375.708 269.158 380.545 278.317 380.545 278.317C380.545 278.317 370.872 279.726 363.135 282.192C355.397 284.658 353.814 288.885 359.881 289.238C365.948 289.59 376.852 285.01 380.281 290.823C383.71 296.636 381.336 311.431 381.336 311.431C381.336 311.431 370.257 303.945 364.629 303.945C359.002 303.945 362.607 307.116 368.938 311.167C375.269 315.218 376.852 316.627 376.852 316.627L371.136 331.335C371.136 331.335 361.64 330.102 357.947 330.366C354.166 330.63 354.166 330.63 354.166 330.63C354.166 330.63 354.166 315.218 349.769 310.638C345.285 306.059 344.581 316.627 343.614 319.357C342.647 322.087 345.461 330.19 345.461 330.19C345.461 330.19 334.469 324.201 330.952 321.823C327.435 319.445 327.435 319.445 327.435 319.445C327.435 319.445 331.568 308.261 334.294 305.002C337.107 301.832 340.888 302.272 337.635 299.454C334.469 296.636 329.633 298.133 326.908 302.096C324.182 306.059 320.928 313.809 320.928 313.809C320.928 313.809 316.796 314.514 311.52 308.437C306.332 302.184 308.091 300.246 313.894 296.812ZM364.102 313.809C368.322 311.695 358.298 307.468 358.298 307.468C354.517 306.94 359.881 315.923 364.102 313.809ZM356.979 293.993C358.826 293.113 353.374 291.263 353.374 291.263C345.461 292.761 355.133 294.874 356.979 293.993Z" fill="#4143EC"/>
<path d="M364.19 324.641C365.333 325.786 366.388 326.931 367.619 328.076" stroke="#141516" stroke-miterlimit="10" stroke-linecap="round" stroke-linejoin="round"/>
<path d="M342.383 291.528C346.428 299.982 352.583 311.079 360.672 320.678" stroke="#141516" stroke-miterlimit="10" stroke-linecap="round" stroke-linejoin="round"/>
<path d="M340.449 287.3C337.899 281.576 336.58 277.877 336.58 277.877C336.58 277.877 331.832 280.079 327.259 278.934C322.687 277.789 318.994 278.758 318.994 278.758" stroke="#141516" stroke-miterlimit="10" stroke-linecap="round" stroke-linejoin="round"/>
<path d="M345.109 285.891C343.878 284.834 362.431 275.587 362.431 275.587" stroke="#141516" stroke-miterlimit="10" stroke-linecap="round" stroke-linejoin="round"/>
<path d="M335.349 291.528C335.349 291.528 326.556 295.138 321.72 300.775" stroke="#141516" stroke-miterlimit="10" stroke-linecap="round" stroke-linejoin="round"/>
<path d="M347.043 297.428C347.043 297.428 353.023 296.283 361.288 296.459C369.553 296.636 375.357 298.837 375.357 298.837" stroke="#141516" stroke-miterlimit="10" stroke-linecap="round" stroke-linejoin="round"/>
<path d="M344.757 303.241C344.757 303.241 335.085 309.582 335.261 317.508" stroke="#141516" stroke-miterlimit="10" stroke-linecap="round" stroke-linejoin="round"/>
<path d="M415.277 282.633C415.277 282.633 421.08 286.86 424.861 282.633C428.554 278.405 423.278 269.863 428.554 266.692C433.83 263.522 442.359 269.334 442.359 269.334C442.359 269.334 435.5 270.919 435.5 274.618C435.5 278.317 438.666 279.902 439.194 278.317C439.721 276.732 443.414 268.718 448.778 272.505C454.142 276.292 454.581 281.576 454.581 281.576C454.581 281.576 441.831 279.462 440.776 284.218C439.721 288.974 446.052 283.689 451.416 283.689C456.691 283.689 461.528 284.746 461 287.917C460.472 291.087 461 296.459 461 296.459C461 296.459 456.779 292.232 450.888 292.232C445.085 292.232 445.085 295.931 450.361 295.931C455.636 295.931 459.945 301.215 459.945 301.215C459.945 301.215 454.669 309.229 448.25 312.928C441.919 316.627 439.721 315.042 439.194 311.871C438.666 308.701 440.776 300.687 437.083 300.687C433.39 300.687 442.359 315.042 437.611 315.57C432.863 316.099 429.082 314.514 428.026 311.343C426.971 308.173 426.971 308.173 426.971 308.173C426.971 308.173 429.082 300.158 428.554 296.988C428.026 293.817 426.971 296.988 425.916 300.687C424.861 304.386 423.806 313.457 422.223 312.928C420.64 312.4 415.892 305.53 414.837 302.8C413.782 300.158 422.223 292.672 422.223 291.087C422.223 289.502 415.892 292.144 414.837 293.729C413.782 295.315 412.727 297.428 412.727 297.428C412.727 297.428 409.034 294.786 409.561 287.3C410.001 279.991 415.277 282.633 415.277 282.633Z" fill="#4143EC"/>
<path d="M444.997 301.92C441.304 296.812 435.852 289.854 431.192 286.332" stroke="#141516" stroke-miterlimit="10" stroke-linecap="round" stroke-linejoin="round"/>
<path d="M449.217 308.173C449.217 308.173 448.25 306.675 446.755 304.474" stroke="#141516" stroke-miterlimit="10" stroke-linecap="round" stroke-linejoin="round"/>
<path d="M428.554 287.476C428.554 287.476 422.223 295.491 420.552 303.945" stroke="#141516" stroke-miterlimit="10" stroke-linecap="round" stroke-linejoin="round"/>
<path d="M434.885 292.761C434.885 292.761 433.302 291.704 433.302 302.36" stroke="#141516" stroke-miterlimit="10" stroke-linecap="round" stroke-linejoin="round"/>
<path d="M431.192 282.633C431.192 282.633 428.026 279.462 430.137 273.562" stroke="#141516" stroke-miterlimit="10" stroke-linecap="round" stroke-linejoin="round"/>
<path d="M435.413 288.005L438.138 283.777" stroke="#141516" stroke-miterlimit="10" stroke-linecap="round" stroke-linejoin="round"/>
<path d="M440.249 292.761C440.249 292.761 448.25 287.476 452.998 287.476" stroke="#141516" stroke-miterlimit="10" stroke-linecap="round" stroke-linejoin="round"/>
<path opacity="0.2" d="M294.901 33.4858H99.6978V290.911H294.901V33.4858Z" fill="#141516"/>
<path d="M288.746 26.4403H93.5427V283.865H288.746V26.4403Z" fill="white" stroke="#141516" stroke-miterlimit="10" stroke-linecap="round" stroke-linejoin="round"/>
<path d="M237.395 103.765H104.094V73.7333H277.052V103.765H240.649" stroke="#141516" stroke-miterlimit="10" stroke-linecap="round" stroke-linejoin="round"/>
<path d="M114.91 139.256H104.094V123.756H198.531" stroke="#141516" stroke-miterlimit="10" stroke-linecap="round" stroke-linejoin="round"/>
<path d="M202.575 123.756H277.052V139.256H117.811" stroke="#141516" stroke-miterlimit="10" stroke-linecap="round" stroke-linejoin="round"/>
<path d="M249.969 170.697H104.094V155.109H277.052V170.697H253.223" stroke="#141516" stroke-miterlimit="10" stroke-linecap="round" stroke-linejoin="round"/>
<path d="M148.85 264.49H104.094V185.493H277.052V264.49H153.159" stroke="#141516" stroke-miterlimit="10" stroke-linecap="round" stroke-linejoin="round"/>
<path d="M277.052 185.493H104.094V199.319H277.052V185.493Z" fill="#B5CEEE" stroke="#141516" stroke-miterlimit="10" stroke-linecap="round" stroke-linejoin="round"/>
<path d="M186.308 104.381V123.756H104.094V103.765" stroke="#141516" stroke-miterlimit="10" stroke-linecap="round" stroke-linejoin="round"/>
<path d="M277.052 84.3896H104.094V93.1085H277.052V84.3896Z" fill="#B5CEEE" stroke="#141516" stroke-miterlimit="10" stroke-linecap="round" stroke-linejoin="round"/>
<path d="M219.634 74.614V84.4777" stroke="#141516" stroke-miterlimit="10" stroke-linecap="round" stroke-linejoin="round"/>
<path d="M241.88 76.1992H230.097V82.0118H241.88V76.1992Z" fill="#B5CEEE" stroke="#141516" stroke-miterlimit="10" stroke-linecap="round" stroke-linejoin="round"/>
<path d="M192.112 93.3726V103.853" stroke="#141516" stroke-miterlimit="10" stroke-linecap="round" stroke-linejoin="round"/>
<path d="M228.251 93.3726V103.853" stroke="#141516" stroke-miterlimit="10" stroke-linecap="round" stroke-linejoin="round"/>
<path d="M135.925 123.756V103.941" stroke="#141516" stroke-miterlimit="10" stroke-linecap="round" stroke-linejoin="round"/>
<path d="M156.061 123.756V103.941" stroke="#141516" stroke-miterlimit="10" stroke-linecap="round" stroke-linejoin="round"/>
<path d="M178.043 123.844V138.992" stroke="#141516" stroke-miterlimit="10" stroke-linecap="round" stroke-linejoin="round"/>
<path d="M219.282 123.668V170.345" stroke="#141516" stroke-miterlimit="10" stroke-linecap="round" stroke-linejoin="round"/>
<path d="M104.094 139.256V155.197H219.282" stroke="#141516" stroke-miterlimit="10" stroke-linecap="round" stroke-linejoin="round"/>
<path d="M147.531 139.344V154.668" stroke="#141516" stroke-miterlimit="10" stroke-linecap="round" stroke-linejoin="round"/>
<path d="M266.94 212.089H277.139" stroke="#141516" stroke-miterlimit="10" stroke-linecap="round" stroke-linejoin="round"/>
<path d="M104.358 212.089H263.159" stroke="#141516" stroke-miterlimit="10" stroke-linecap="round" stroke-linejoin="round"/>
<path d="M104.358 224.595H277.139" stroke="#141516" stroke-miterlimit="10" stroke-linecap="round" stroke-linejoin="round"/>
<path d="M157.555 237.013H277.139" stroke="#141516" stroke-miterlimit="10" stroke-linecap="round" stroke-linejoin="round"/>
<path d="M104.358 237.013H153.159" stroke="#141516" stroke-miterlimit="10" stroke-linecap="round" stroke-linejoin="round"/>
<path d="M137.244 215.524H131.44V221.337H137.244V215.524Z" fill="#B5CEEE" stroke="#141516" stroke-miterlimit="10" stroke-linecap="round" stroke-linejoin="round"/>
<path d="M170.745 215.524H164.941V221.337H170.745V215.524Z" fill="#B5CEEE" stroke="#141516" stroke-miterlimit="10" stroke-linecap="round" stroke-linejoin="round"/>
<path d="M147.619 227.501H141.816V233.314H147.619V227.501Z" fill="#B5CEEE" stroke="#141516" stroke-miterlimit="10" stroke-linecap="round" stroke-linejoin="round"/>
<path d="M179.626 227.501H173.822V233.314H179.626V227.501Z" fill="#B5CEEE" stroke="#141516" stroke-miterlimit="10" stroke-linecap="round" stroke-linejoin="round"/>
<path d="M210.313 227.501H204.51V233.314H210.313V227.501Z" fill="#B5CEEE" stroke="#141516" stroke-miterlimit="10" stroke-linecap="round" stroke-linejoin="round"/>
<path d="M241.44 227.501H235.637V233.314H241.44V227.501Z" fill="#B5CEEE" stroke="#141516" stroke-miterlimit="10" stroke-linecap="round" stroke-linejoin="round"/>
<path d="M139.09 224.683V237.101" stroke="#141516" stroke-miterlimit="10" stroke-linecap="round" stroke-linejoin="round"/>
<path d="M170.393 224.683V237.101" stroke="#141516" stroke-miterlimit="10" stroke-linecap="round" stroke-linejoin="round"/>
<path d="M201.784 224.683V237.101" stroke="#141516" stroke-miterlimit="10" stroke-linecap="round" stroke-linejoin="round"/>
<path d="M233.175 224.683V237.101" stroke="#141516" stroke-miterlimit="10" stroke-linecap="round" stroke-linejoin="round"/>
<path d="M104.358 249.695H277.139" stroke="#141516" stroke-miterlimit="10" stroke-linecap="round" stroke-linejoin="round"/>
<path d="M126.077 240.183H120.273V245.996H126.077V240.183Z" fill="#B5CEEE" stroke="#141516" stroke-miterlimit="10" stroke-linecap="round" stroke-linejoin="round"/>
<path d="M179.626 240.183H173.822V245.996H179.626V240.183Z" fill="#B5CEEE" stroke="#141516" stroke-miterlimit="10" stroke-linecap="round" stroke-linejoin="round"/>
<path d="M210.313 240.183H204.51V245.996H210.313V240.183Z" fill="#B5CEEE" stroke="#141516" stroke-miterlimit="10" stroke-linecap="round" stroke-linejoin="round"/>
<path d="M249.793 240.183H243.99V245.996H249.793V240.183Z" fill="#B5CEEE" stroke="#141516" stroke-miterlimit="10" stroke-linecap="round" stroke-linejoin="round"/>
<path d="M117.635 237.365V249.695" stroke="#141516" stroke-miterlimit="10" stroke-linecap="round" stroke-linejoin="round"/>
<path d="M170.393 237.365V249.695" stroke="#141516" stroke-miterlimit="10" stroke-linecap="round" stroke-linejoin="round"/>
<path d="M201.784 237.365V249.695" stroke="#141516" stroke-miterlimit="10" stroke-linecap="round" stroke-linejoin="round"/>
<path d="M241.528 237.365V249.695" stroke="#141516" stroke-miterlimit="10" stroke-linecap="round" stroke-linejoin="round"/>
<path d="M173.734 47.2246V49.3383H168.898V58.4094H166.524V37.449H174.877V39.5626H168.898V47.2246H173.734Z" fill="#141516"/>
<path d="M176.548 42.557C176.548 39.3865 178.131 37.2728 181.384 37.2728C184.638 37.2728 186.22 39.3865 186.22 42.557V53.3894C186.22 56.5599 184.638 58.6736 181.384 58.6736C178.219 58.6736 176.548 56.5599 176.548 53.3894V42.557ZM178.834 53.4775C178.834 55.415 179.626 56.4718 181.296 56.4718C182.967 56.4718 183.758 55.3269 183.758 53.4775V42.3808C183.758 40.5314 182.967 39.3865 181.296 39.3865C179.626 39.3865 178.834 40.5314 178.834 42.3808V53.4775Z" fill="#141516"/>
<path d="M193.079 37.449C196.42 37.449 197.739 39.1223 197.739 42.2928V43.9661C197.739 46.2559 196.948 47.753 195.101 48.2814C197.036 48.8099 197.739 50.3951 197.739 52.6849V55.9434C197.739 56.9122 197.739 57.7048 198.179 58.4974H195.805C195.541 57.8809 195.453 57.3525 195.453 55.9434V52.5968C195.453 50.219 194.31 49.5144 192.375 49.5144H190.705V58.4974H188.331V37.449H193.079ZM192.463 47.4008C194.31 47.4008 195.453 46.7843 195.453 44.4945V42.4689C195.453 40.6195 194.75 39.5626 192.991 39.5626H190.705V47.3127H192.463V47.4008Z" fill="#141516"/>
<path d="M207.939 58.4094H205.653L202.136 41.6763V58.4094H200.113V37.449H203.367L206.796 54.2701L210.137 37.449H213.391V58.4974H211.192V41.5882L207.939 58.4094Z" fill="#141516"/>
<path d="M156.676 68.8014H175.757" stroke="#141516" stroke-miterlimit="10"/>
<path d="M104.71 68.8014H153.511" stroke="#141516" stroke-miterlimit="10"/>
<path d="M190.793 68.8014H232.735" stroke="#141516" stroke-miterlimit="10"/>
<path d="M244.166 68.8014H277.315" stroke="#141516" stroke-miterlimit="10"/>
<path d="M251.728 366.21L317.059 363.48L352.671 406.898L264.654 414.56L251.728 366.21Z" fill="white" stroke="#141516" stroke-miterlimit="10" stroke-linecap="round" stroke-linejoin="round"/>
<path d="M264.917 396.065L335.525 391.133L340.097 397.034L266.94 402.582L264.917 396.065Z" stroke="#141516" stroke-width="0.5" stroke-miterlimit="10" stroke-linecap="round" stroke-linejoin="round"/>
<path d="M262.807 389.02L330.425 384.792L332.623 387.434L263.686 392.014L262.807 389.02Z" stroke="#141516" stroke-width="0.5" stroke-miterlimit="10" stroke-linecap="round" stroke-linejoin="round"/>
<path d="M261.136 383.295L326.292 379.596L328.314 382.062L261.928 386.113L261.136 383.295Z" stroke="#141516" stroke-width="0.5" stroke-miterlimit="10" stroke-linecap="round" stroke-linejoin="round"/>
<path d="M256.74 368.676L315.653 366.122L324.446 377.218L260.345 380.741L256.74 368.676Z" stroke="#141516" stroke-width="0.5" stroke-miterlimit="10" stroke-linecap="round" stroke-linejoin="round"/>
<path d="M259.642 378.451L322.863 375.105L324.446 377.218L260.345 380.741L259.642 378.451Z" fill="#B5CEEE" stroke="#141516" stroke-width="0.5" stroke-miterlimit="10" stroke-linecap="round" stroke-linejoin="round"/>
<path d="M303.079 393.247L300.968 389.548L332.623 387.434L335.525 391.133" stroke="#141516" stroke-width="0.5" stroke-miterlimit="10" stroke-linecap="round" stroke-linejoin="round"/>
<path d="M265.621 398.267L337.107 393.159L338.426 394.832L266.148 400.204L265.621 398.267Z" fill="#B5CEEE" stroke="#141516" stroke-width="0.5" stroke-miterlimit="10" stroke-linecap="round" stroke-linejoin="round"/>
<path d="M292.351 400.469L291.296 398.355" stroke="#141516" stroke-width="0.5" stroke-miterlimit="10" stroke-linecap="round" stroke-linejoin="round"/>
<path d="M281.976 399.588L287.076 399.148L287.603 400.469L282.415 400.821L281.976 399.588Z" fill="#B5CEEE" stroke="#141516" stroke-width="0.5" stroke-miterlimit="10" stroke-linecap="round" stroke-linejoin="round"/>
<path d="M301.936 395.625L300.793 393.511" stroke="#141516" stroke-width="0.5" stroke-miterlimit="10" stroke-linecap="round" stroke-linejoin="round"/>
<path d="M286.812 396.682L285.844 394.568" stroke="#141516" stroke-width="0.5" stroke-miterlimit="10" stroke-linecap="round" stroke-linejoin="round"/>
<path d="M320.577 388.227L323.215 391.926" stroke="#141516" stroke-width="0.5" stroke-miterlimit="10" stroke-linecap="round" stroke-linejoin="round"/>
<path d="M312.839 388.755L315.301 392.542" stroke="#141516" stroke-width="0.5" stroke-miterlimit="10" stroke-linecap="round" stroke-linejoin="round"/>
<path d="M304.31 389.284L302.639 386.554" stroke="#141516" stroke-width="0.5" stroke-miterlimit="10" stroke-linecap="round" stroke-linejoin="round"/>
<path d="M287.779 390.429L283.822 382.062" stroke="#141516" stroke-width="0.5" stroke-miterlimit="10" stroke-linecap="round" stroke-linejoin="round"/>
<path d="M330.425 384.792L328.314 382.062L285.053 384.704" stroke="#141516" stroke-width="0.5" stroke-miterlimit="10" stroke-linecap="round" stroke-linejoin="round"/>
<path d="M314.246 385.761L312.487 383.119" stroke="#141516" stroke-width="0.5" stroke-miterlimit="10" stroke-linecap="round" stroke-linejoin="round"/>
<path d="M321.28 373.255L259.026 376.426" stroke="#141516" stroke-width="0.5" stroke-miterlimit="10" stroke-linecap="round" stroke-linejoin="round"/>
<path d="M319.873 371.494L258.41 374.488" stroke="#141516" stroke-width="0.5" stroke-miterlimit="10" stroke-linecap="round" stroke-linejoin="round"/>
<path d="M318.466 369.733L257.883 372.639" stroke="#141516" stroke-width="0.5" stroke-miterlimit="10" stroke-linecap="round" stroke-linejoin="round"/>
<path d="M308.97 372.463L310.992 372.375L311.608 373.255L309.585 373.343L308.97 372.463Z" fill="#B5CEEE" stroke="#141516" stroke-width="0.5" stroke-miterlimit="10" stroke-linecap="round" stroke-linejoin="round"/>
<path d="M297.363 373.079L299.386 372.991L299.913 373.784L297.891 373.96L297.363 373.079Z" fill="#B5CEEE" stroke="#141516" stroke-width="0.5" stroke-miterlimit="10" stroke-linecap="round" stroke-linejoin="round"/>
<path d="M304.31 370.966L306.244 370.877L306.86 371.67L304.837 371.758L304.31 370.966Z" fill="#B5CEEE" stroke="#141516" stroke-width="0.5" stroke-miterlimit="10" stroke-linecap="round" stroke-linejoin="round"/>
<path d="M293.231 371.494L295.253 371.406L295.781 372.198L293.67 372.287L293.231 371.494Z" fill="#B5CEEE" stroke="#141516" stroke-width="0.5" stroke-miterlimit="10" stroke-linecap="round" stroke-linejoin="round"/>
<path d="M282.415 372.022L284.438 371.934L284.877 372.727L282.855 372.815L282.415 372.022Z" fill="#B5CEEE" stroke="#141516" stroke-width="0.5" stroke-miterlimit="10" stroke-linecap="round" stroke-linejoin="round"/>
<path d="M271.16 372.551L273.271 372.463L273.71 373.255L271.512 373.432L271.16 372.551Z" fill="#B5CEEE" stroke="#141516" stroke-width="0.5" stroke-miterlimit="10" stroke-linecap="round" stroke-linejoin="round"/>
<path d="M308.091 372.022L306.86 370.261" stroke="#141516" stroke-width="0.5" stroke-miterlimit="10" stroke-linecap="round" stroke-linejoin="round"/>
<path d="M297.187 372.551L296.132 370.789" stroke="#141516" stroke-width="0.5" stroke-miterlimit="10" stroke-linecap="round" stroke-linejoin="round"/>
<path d="M286.108 373.079L285.141 371.318" stroke="#141516" stroke-width="0.5" stroke-miterlimit="10" stroke-linecap="round" stroke-linejoin="round"/>
<path d="M274.765 373.696L273.974 371.846" stroke="#141516" stroke-width="0.5" stroke-miterlimit="10" stroke-linecap="round" stroke-linejoin="round"/>
<path d="M317.147 368.059L257.267 370.789" stroke="#141516" stroke-width="0.5" stroke-miterlimit="10" stroke-linecap="round" stroke-linejoin="round"/>
<path d="M310.289 368.852L312.223 368.764L312.839 369.556L310.904 369.644L310.289 368.852Z" fill="#B5CEEE" stroke="#141516" stroke-width="0.5" stroke-miterlimit="10" stroke-linecap="round" stroke-linejoin="round"/>
<path d="M292.175 369.733L294.198 369.557L294.637 370.437L292.615 370.525L292.175 369.733Z" fill="#B5CEEE" stroke="#141516" stroke-width="0.5" stroke-miterlimit="10" stroke-linecap="round" stroke-linejoin="round"/>
<path d="M281.536 370.173L283.558 370.085L283.998 370.877L281.888 371.054L281.536 370.173Z" fill="#B5CEEE" stroke="#141516" stroke-width="0.5" stroke-miterlimit="10" stroke-linecap="round" stroke-linejoin="round"/>
<path d="M267.379 370.789L269.49 370.701L269.841 371.582L267.731 371.67L267.379 370.789Z" fill="#B5CEEE" stroke="#141516" stroke-width="0.5" stroke-miterlimit="10" stroke-linecap="round" stroke-linejoin="round"/>
<path d="M313.982 369.909L312.751 368.235" stroke="#141516" stroke-width="0.5" stroke-miterlimit="10" stroke-linecap="round" stroke-linejoin="round"/>
<path d="M296.132 370.789L295.077 369.028" stroke="#141516" stroke-width="0.5" stroke-miterlimit="10" stroke-linecap="round" stroke-linejoin="round"/>
<path d="M285.141 371.318L284.262 369.557" stroke="#141516" stroke-width="0.5" stroke-miterlimit="10" stroke-linecap="round" stroke-linejoin="round"/>
<path d="M270.896 371.934L270.193 370.173" stroke="#141516" stroke-width="0.5" stroke-miterlimit="10" stroke-linecap="round" stroke-linejoin="round"/>
<path d="M315.389 404.96L315.125 404.432L317.235 404.256L316.004 402.23L316.972 402.142L319.961 406.898L316.356 407.162L316.092 406.633L318.73 406.457L317.675 404.696L315.389 404.96Z" fill="#141516"/>
<path d="M314.861 406.193C315.301 406.986 314.861 407.514 313.454 407.602C312.047 407.69 311.08 407.25 310.641 406.545L309.234 404.079C308.794 403.375 309.234 402.847 310.641 402.758C312.047 402.67 312.927 403.023 313.366 403.815L314.861 406.193ZM312.311 403.727C312.047 403.287 311.608 403.111 310.816 403.111C310.113 403.199 309.849 403.463 310.113 403.903L311.608 406.457C311.872 406.898 312.399 407.162 313.103 407.074C313.806 406.986 314.07 406.722 313.806 406.281L312.311 403.727Z" fill="#141516"/>
<path d="M308.267 407.955C306.772 408.043 305.98 407.69 305.541 406.986L305.365 406.545C305.101 406.017 305.277 405.665 305.98 405.489C305.101 405.401 304.573 405.048 304.31 404.608L303.958 403.903C303.87 403.727 303.694 403.463 303.43 403.375L304.486 403.287C304.661 403.375 304.749 403.551 304.925 403.815L305.365 404.608C305.629 405.136 306.244 405.312 307.123 405.224L307.827 405.136L306.684 403.111L307.651 403.023L310.377 407.866L308.267 407.955ZM307.211 405.665C306.42 405.753 305.98 405.929 306.244 406.457L306.508 406.898C306.772 407.338 307.211 407.514 307.915 407.514L308.882 407.426L307.915 405.577L307.211 405.665Z" fill="#141516"/>
<path d="M299.122 403.639L300.089 403.551L303.606 407.25L301.584 403.375L302.463 403.287L305.013 408.131L303.518 408.219L300.001 404.432L300.529 408.483L299.034 408.571L296.66 403.639L297.627 403.551L299.561 407.514L299.122 403.639Z" fill="#141516"/>
<path d="M340.712 398.003L311.696 400.292" stroke="#141516" stroke-width="0.5" stroke-miterlimit="10"/>
<path d="M305.365 400.733L287.163 402.142" stroke="#141516" stroke-width="0.5" stroke-miterlimit="10"/>
<path d="M282.151 402.582L267.116 403.727" stroke="#141516" stroke-width="0.5" stroke-miterlimit="10"/>
<path d="M312.487 227.766C312.487 227.766 303.958 230.143 294.286 234.811C284.613 239.479 265.533 246.524 256.476 250.047C247.419 253.57 241.792 262.641 240.033 267.044C238.275 271.448 230.625 290.206 230.625 290.206C230.625 290.206 214.534 315.482 210.401 321.647C206.268 327.812 200.729 336.354 200.465 344.281C200.201 352.207 204.598 356.61 214.797 356.61C225.085 356.61 229.482 353.088 234.406 347.803C239.33 342.519 255.509 316.715 257.883 313.721C260.257 310.815 266.676 299.63 266.676 299.63C266.676 299.63 269.929 328.692 269.929 337.764C269.929 346.835 269.929 359.164 269.929 359.164H362.255C362.255 359.164 366.652 326.843 367.531 324.201C368.41 321.559 375.181 302.448 375.181 302.448C375.181 302.448 399.449 341.815 403.582 347.099C407.715 352.383 419.233 363.48 430.576 359.076C442.007 354.585 439.633 342.431 433.478 327.724C427.323 313.016 416.508 288.093 416.508 286.948C416.508 285.803 412.111 268.453 394.262 254.979C376.412 241.504 358.826 238.246 354.693 236.22C350.561 234.195 337.371 227.766 312.487 227.766Z" fill="#6985D1" stroke="#141516" stroke-miterlimit="10" stroke-linecap="round" stroke-linejoin="round"/>
<path d="M255.069 280.607L266.5 298.485C266.5 298.485 257.092 288.797 251.288 287.3" stroke="#141516" stroke-miterlimit="10" stroke-linecap="round" stroke-linejoin="round"/>
<path d="M266.5 298.485L259.729 296.107C259.729 296.107 253.574 292.584 248.562 294.081" stroke="#141516" stroke-miterlimit="10" stroke-linecap="round" stroke-linejoin="round"/>
<path d="M301.496 255.595C302.111 260.439 303.694 266.428 307.211 270.567" stroke="#141516" stroke-miterlimit="10" stroke-linecap="round" stroke-linejoin="round"/>
<path d="M301.056 247.669C301.056 247.669 300.968 249.342 301.144 251.896" stroke="#141516" stroke-miterlimit="10" stroke-linecap="round" stroke-linejoin="round"/>
<path d="M304.222 274.09C305.013 274.882 305.892 275.675 306.86 276.468" stroke="#141516" stroke-miterlimit="10" stroke-linecap="round" stroke-linejoin="round"/>
<path d="M296.044 260.88C296.044 260.88 298.155 267.22 302.991 272.769" stroke="#141516" stroke-miterlimit="10" stroke-linecap="round" stroke-linejoin="round"/>
<path d="M353.99 326.491C351.967 329.749 350.121 332.391 348.538 333.712" stroke="#141516" stroke-miterlimit="10" stroke-linecap="round" stroke-linejoin="round"/>
<path d="M368.762 297.34C368.762 297.34 361.991 312.752 355.573 323.761" stroke="#141516" stroke-miterlimit="10" stroke-linecap="round" stroke-linejoin="round"/>
<path d="M338.778 336.178C337.899 337.235 337.195 338.116 336.756 338.732" stroke="#141516" stroke-miterlimit="10" stroke-linecap="round" stroke-linejoin="round"/>
<path d="M350.033 322.88C350.033 322.88 344.669 329.133 340.625 333.977" stroke="#141516" stroke-miterlimit="10" stroke-linecap="round" stroke-linejoin="round"/>
<path d="M375.181 302.624C375.181 302.624 388.106 282.104 388.634 280.343" stroke="#141516" stroke-miterlimit="10" stroke-linecap="round" stroke-linejoin="round"/>
<path d="M385.029 294.698C388.898 291.616 394.613 287.652 400.417 286.508" stroke="#141516" stroke-miterlimit="10" stroke-linecap="round" stroke-linejoin="round"/>
<path d="M380.457 298.749C380.457 298.749 381.512 297.692 383.27 296.107" stroke="#141516" stroke-miterlimit="10" stroke-linecap="round" stroke-linejoin="round"/>
<path d="M396.636 283.249C396.636 283.249 391.36 285.891 386.084 290.03" stroke="#141516" stroke-miterlimit="10" stroke-linecap="round" stroke-linejoin="round"/>
<path d="M401.911 326.667C401.911 326.667 409.21 322.528 417.739 327.548" stroke="#141516" stroke-miterlimit="10" stroke-linecap="round" stroke-linejoin="round"/>
<path d="M404.549 322.88C404.549 322.88 414.837 320.854 422.399 325.522" stroke="#141516" stroke-miterlimit="10" stroke-linecap="round" stroke-linejoin="round"/>
<path d="M212.248 326.403C212.248 326.403 217.523 321.119 225.437 322.263" stroke="#141516" stroke-miterlimit="10" stroke-linecap="round" stroke-linejoin="round"/>
<path d="M230.361 322.968C231.064 323.408 231.768 324.025 232.471 324.641" stroke="#141516" stroke-miterlimit="10" stroke-linecap="round" stroke-linejoin="round"/>
<path d="M222.535 319.621C222.535 319.621 224.558 319.71 227.371 321.119" stroke="#141516" stroke-miterlimit="10" stroke-linecap="round" stroke-linejoin="round"/>
<path d="M310.465 235.339C310.465 235.339 307.827 246.524 308.706 254.715C309.585 262.905 318.642 275.587 326.292 278.493C333.942 281.399 348.011 272.945 352.935 267.925C357.947 262.905 358.21 247.053 358.21 247.053C358.21 247.053 350.649 230.584 334.47 225.916C318.29 221.248 310.465 235.339 310.465 235.339Z" fill="white" stroke="#141516" stroke-miterlimit="10" stroke-linecap="round" stroke-linejoin="round"/>
<path d="M371.048 233.05C371.048 233.05 372.543 237.629 369.641 243.442C366.74 249.254 361.024 254.186 359.441 253.658C357.947 253.129 364.19 232.169 364.19 232.169C364.19 232.169 368.41 229.791 371.048 233.05Z" fill="white" stroke="#141516" stroke-miterlimit="10" stroke-linecap="round" stroke-linejoin="round"/>
<path d="M306.42 216.317C306.42 216.317 303.518 220.192 304.486 226.621C305.453 233.05 309.322 239.479 310.904 239.479C312.487 239.479 313.191 217.55 313.191 217.55C313.191 217.55 309.937 214.027 306.42 216.317Z" fill="white" stroke="#141516" stroke-miterlimit="10" stroke-linecap="round" stroke-linejoin="round"/>
<path d="M311.168 224.683C311.168 224.683 308.882 244.323 311.52 252.425C314.07 260.439 319.258 273.033 327.259 276.292C335.261 279.55 353.638 265.635 356.54 260.175C359.441 254.715 367.443 231.465 367.443 231.465C367.443 231.465 374.477 223.098 370.345 211.473C366.124 199.848 343.614 192.802 334.294 193.067C324.973 193.419 315.653 201.081 314.949 207.246C314.422 213.41 311.168 224.683 311.168 224.683Z" fill="white" stroke="#141516" stroke-miterlimit="10" stroke-linecap="round" stroke-linejoin="round"/>
<path d="M332.095 236.573C332.095 236.573 325.061 227.854 318.554 230.76" stroke="#141516" stroke-width="2" stroke-miterlimit="10" stroke-linecap="round" stroke-linejoin="round"/>
<path d="M343.35 240.448C343.35 240.448 353.023 238.158 357.507 242.385" stroke="#141516" stroke-width="2" stroke-miterlimit="10" stroke-linecap="round" stroke-linejoin="round"/>
<path d="M319.609 238.51C319.609 238.51 321.632 244.675 330.073 243.97" stroke="#141516" stroke-miterlimit="10" stroke-linecap="round" stroke-linejoin="round"/>
<path d="M342.735 247.229C342.735 247.229 344.669 251.456 353.638 249.783" stroke="#141516" stroke-miterlimit="10" stroke-linecap="round" stroke-linejoin="round"/>
<path d="M326.908 253.041C326.908 253.041 326.38 255.331 327.435 256.916C328.49 258.502 331.128 260.791 333.063 260.791C334.997 260.791 339.042 260.087 340.097 259.03C341.152 257.973 341.856 256.74 341.856 256.74" stroke="#141516" stroke-miterlimit="10" stroke-linecap="round" stroke-linejoin="round"/>
<path d="M322.511 258.854C322.511 258.854 326.908 263.962 330.513 265.195C334.206 266.428 340.976 264.314 342.911 263.61" stroke="#141516" stroke-miterlimit="10" stroke-linecap="round" stroke-linejoin="round"/>
<path d="M386.26 202.49C385.996 200.376 387.491 197.382 387.755 195.532C388.019 193.683 385.644 190.424 383.534 187.694C381.424 184.964 381.16 181.97 381.16 180.12C381.16 178.271 379.05 176.774 377.203 175.629C375.357 174.396 372.367 172.018 371.136 170.521C369.905 169.024 364.805 169.288 363.926 169.288C363.047 169.288 359.09 165.941 356.716 164.796C354.342 163.564 349.505 165.677 349.505 165.677C349.505 165.677 343.79 162.947 342.559 162.947C341.328 162.947 336.228 165.061 336.228 165.061C336.228 165.061 332.799 166.558 330.952 166.734C330.513 166.646 330.161 166.558 329.985 166.558C329.282 165.677 323.302 169.288 323.302 169.288L317.851 170.169L315.828 173.427C313.894 173.603 309.41 174.396 309.058 176.598C308.618 179.416 309.058 180.649 307.827 182.234C306.596 183.819 302.199 183.467 303.43 187.078C304.661 190.689 307.475 193.507 303.87 195.532C300.265 197.558 298.243 201.169 300.265 203.194C302.287 205.22 303.87 208.038 303.518 209.623C303.079 211.209 302.727 214.82 304.31 215.7C305.892 216.493 308.354 218.518 308.354 218.518L310.377 222.922L311.608 225.74C311.608 225.74 313.63 219.311 315.213 218.518C316.796 217.726 315.213 221.337 318.466 221.337C321.72 221.337 324.885 206.013 327.259 205.66C329.633 205.22 336.932 218.959 344.142 218.959C351.352 218.959 360.233 212.53 363.838 212.53C367.443 212.53 364.629 227.854 364.629 231.024C364.629 234.283 365.421 237.453 365.421 238.686C365.421 239.919 369.465 233.05 372.279 231.465C373.071 231.024 373.95 230.496 375.005 229.879C375.005 230.055 375.005 230.055 375.005 230.055C375.005 230.055 384.941 223.715 386.172 221.601C387.403 219.487 386.436 217.638 386.436 215.876C386.436 214.027 387.667 212.53 387.931 209.8C388.019 206.981 386.524 204.604 386.26 202.49Z" fill="#141516" stroke="#141516" stroke-miterlimit="10" stroke-linecap="round" stroke-linejoin="round"/>
<path d="M459.857 359.164H72.4396" stroke="#141516" stroke-miterlimit="10" stroke-linecap="round" stroke-linejoin="round"/>
<path d="M417.739 333.536C417.739 333.536 406.748 329.485 398.834 332.656C390.92 335.826 372.367 343.312 359.793 345.69C347.131 348.068 334.557 348.42 323.918 348.068C313.278 347.715 307.387 349.213 305.013 351.238C302.639 353.176 293.934 364.272 294.725 365.505C295.517 366.65 296.396 367.179 300.265 366.298C301.848 365.946 306.156 361.19 306.156 361.19L314.07 357.667C314.07 357.667 305.804 366.738 306.948 367.971C308.091 369.116 310.113 367.619 311.696 366.386C313.278 365.241 316.444 362.423 316.444 362.423L323.566 359.252C323.566 359.252 316.092 364.36 316.092 366.738C316.092 369.116 317.939 367.707 321.016 366.474C321.896 366.122 325.237 363.304 325.237 363.304L331.216 361.63C331.216 361.63 336.14 364.625 343.614 364.625C351.088 364.625 355.924 360.045 355.924 360.045C355.924 360.045 383.534 364.008 397.339 362.775C411.144 361.542 428.466 363.127 435.588 358.019C442.711 352.911 433.654 339.437 432.863 338.292" fill="white"/>
<path d="M417.739 333.536C417.739 333.536 406.748 329.485 398.834 332.656C390.92 335.826 372.367 343.312 359.793 345.69C347.131 348.068 334.557 348.42 323.918 348.068C313.278 347.715 307.387 349.213 305.013 351.238C302.639 353.176 293.934 364.272 294.725 365.505C295.517 366.65 296.396 367.179 300.265 366.298C301.848 365.946 306.156 361.19 306.156 361.19L314.07 357.667C314.07 357.667 305.804 366.738 306.948 367.971C308.091 369.116 310.113 367.619 311.696 366.386C313.278 365.241 316.444 362.423 316.444 362.423L323.566 359.252C323.566 359.252 316.092 364.36 316.092 366.738C316.092 369.116 317.939 367.707 321.016 366.474C321.896 366.122 325.237 363.304 325.237 363.304L331.216 361.63C331.216 361.63 336.14 364.625 343.614 364.625C351.088 364.625 355.924 360.045 355.924 360.045C355.924 360.045 383.534 364.008 397.339 362.775C411.144 361.542 428.466 363.127 435.588 358.019C442.711 352.911 433.654 339.437 432.863 338.292" stroke="#141516" stroke-miterlimit="10" stroke-linecap="round" stroke-linejoin="round"/>
<path d="M296.572 366.474C296.572 366.474 298.067 362.247 299.474 360.397C300.88 358.548 307.739 354.144 310.113 352.823C312.487 351.502 313.015 351.326 313.015 351.326" stroke="#141516" stroke-miterlimit="10" stroke-linecap="round" stroke-linejoin="round"/>
<path d="M314.07 357.491L321.016 352.911" stroke="#141516" stroke-miterlimit="10" stroke-linecap="round" stroke-linejoin="round"/>
<path d="M323.478 359.076L329.985 355.818" stroke="#141516" stroke-miterlimit="10" stroke-linecap="round" stroke-linejoin="round"/>
<path d="M417.739 333.536C411.847 332.127 403.582 330.718 398.834 332.656C391.8 335.474 376.412 341.727 364.19 344.721C365.597 346.218 366.828 348.508 367.003 351.678C367.179 355.554 366.476 358.9 365.684 361.19C375.005 362.247 388.722 363.48 397.163 362.687C410.968 361.542 428.29 363.039 435.413 357.931C442.535 352.823 433.478 339.349 432.687 338.204" fill="#6985D1"/>
<path d="M417.739 333.536C411.847 332.127 403.582 330.718 398.834 332.656C391.8 335.474 376.412 341.727 364.19 344.721C365.597 346.218 366.828 348.508 367.003 351.678C367.179 355.554 366.476 358.9 365.684 361.19C375.005 362.247 388.722 363.48 397.163 362.687C410.968 361.542 428.29 363.039 435.413 357.931C442.535 352.823 433.478 339.349 432.687 338.204" stroke="#141516" stroke-miterlimit="10" stroke-linecap="round" stroke-linejoin="round"/>
<path d="M209.434 332.303C210.137 330.278 215.589 325.522 222.887 326.755C230.185 328.076 238.451 336.178 243.199 342.343C247.947 348.596 251.728 350.269 251.728 350.269L246.188 367.355C246.188 367.355 242.759 366.562 236.34 364.889C229.921 363.215 215.501 361.102 208.906 359.076C202.312 357.051 199.498 349.917 200.905 343.224C202.312 336.531 204.598 332.568 204.598 332.568" fill="#6985D1"/>
<path d="M209.434 332.303C210.137 330.278 215.589 325.522 222.887 326.755C230.185 328.076 238.451 336.178 243.199 342.343C247.947 348.596 251.728 350.269 251.728 350.269L246.188 367.355C246.188 367.355 242.759 366.562 236.34 364.889C229.921 363.215 215.501 361.102 208.906 359.076C202.312 357.051 199.498 349.917 200.905 343.224C202.312 336.531 204.598 332.568 204.598 332.568" stroke="#141516" stroke-miterlimit="10" stroke-linecap="round" stroke-linejoin="round"/>
<path d="M243.199 342.431C242.671 341.815 242.144 341.11 241.616 340.406C237.483 342.079 232.295 345.073 229.482 350.445C226.668 355.818 226.668 360.221 227.283 363.039C230.801 363.744 234.054 364.36 236.34 364.889C242.759 366.562 246.188 367.355 246.188 367.355L251.728 350.269C251.64 350.357 247.859 348.684 243.199 342.431Z" fill="white" stroke="#141516" stroke-miterlimit="10" stroke-linecap="round" stroke-linejoin="round"/>
<path d="M240.913 359.076C240.561 361.718 239.769 364.713 243.55 366.386C247.331 368.059 251.2 372.199 253.574 373.167C255.948 374.136 260.169 375.193 262.631 375.369C265.093 375.545 268.083 376.338 272.919 375.017C277.667 373.696 277.579 372.463 277.579 372.463C277.579 372.463 280.569 372.551 282.064 371.846C283.558 371.142 282.503 369.292 280.745 368.588C278.986 367.883 276.788 366.914 276.788 366.914C276.788 366.914 279.514 364.36 278.81 363.744C278.107 363.128 278.107 363.127 278.107 363.127C278.107 363.127 281.272 363.48 281.536 362.511C281.8 361.542 279.865 357.051 279.074 353.352C278.283 349.653 276.612 350.093 273.622 349.565C270.633 348.948 266.412 349.741 260.96 348.596C255.509 347.451 247.595 349.389 244.518 350.181" fill="white"/>
<path d="M240.913 359.076C240.561 361.718 239.769 364.713 243.55 366.386C247.331 368.059 251.2 372.199 253.574 373.167C255.948 374.136 260.169 375.193 262.631 375.369C265.093 375.545 268.083 376.338 272.919 375.017C277.667 373.696 277.579 372.463 277.579 372.463C277.579 372.463 280.569 372.551 282.064 371.846C283.558 371.142 282.503 369.292 280.745 368.588C278.986 367.883 276.788 366.914 276.788 366.914C276.788 366.914 279.514 364.36 278.81 363.744C278.107 363.128 278.107 363.127 278.107 363.127C278.107 363.127 281.272 363.48 281.536 362.511C281.8 361.542 279.865 357.051 279.074 353.352C278.283 349.653 276.612 350.093 273.622 349.565C270.633 348.948 266.412 349.741 260.96 348.596C255.509 347.451 247.595 349.389 244.518 350.181" stroke="#141516" stroke-miterlimit="10" stroke-linecap="round" stroke-linejoin="round"/>
<path d="M262.191 333.712L267.203 351.326L271.16 353.176L265.269 332.744C265.005 331.863 264.038 331.335 263.159 331.687C262.367 332.127 261.928 332.92 262.191 333.712Z" fill="#141516"/>
<path d="M265.005 349.917C265.005 349.917 273.71 354.585 274.326 354.849C274.765 355.025 278.634 361.542 279.865 364.625C280.393 366.034 279.777 366.826 278.458 367.619L276.7 366.914L265.884 360.045L261.928 358.196" fill="white"/>
<path d="M265.005 349.917C265.005 349.917 273.71 354.585 274.326 354.849C274.765 355.025 278.634 361.542 279.865 364.625C280.393 366.034 279.777 366.826 278.458 367.619L276.7 366.914L265.884 360.045L261.928 358.196" stroke="#141516" stroke-miterlimit="10" stroke-linecap="round" stroke-linejoin="round"/>
<path d="M258.938 365.153C258.938 365.153 267.379 370.173 269.226 371.142C270.984 372.111 277.491 372.463 277.491 372.463" stroke="#141516" stroke-miterlimit="10" stroke-linecap="round" stroke-linejoin="round"/>
<path d="M255.773 370.085C255.773 370.085 262.895 374.048 264.302 374.488C265.709 375.017 268.698 375.809 268.698 375.809" stroke="#141516" stroke-miterlimit="10" stroke-linecap="round" stroke-linejoin="round"/>
<path d="M200.641 402.846L233.175 372.903L161.6 368.323L200.641 402.846Z" fill="#CCCCCC" stroke="#141516" stroke-miterlimit="10" stroke-linecap="round" stroke-linejoin="round"/>
<path d="M199.322 396.77L213.918 382.943L197.036 381.886L199.322 396.77Z" fill="#141516" stroke="#141516" stroke-miterlimit="10" stroke-linecap="round" stroke-linejoin="round"/>
<path d="M99.7857 318.829L206.796 323.585L200.641 402.847L92.6634 397.65L99.7857 318.829Z" fill="#A6A6A6" stroke="#141516" stroke-miterlimit="10" stroke-linecap="round" stroke-linejoin="round"/>
<path d="M93.1031 392.366C99.434 391.398 110.073 388.932 128.187 383.119C171.097 369.204 176.548 330.278 206.796 323.673L99.6978 318.917L93.1031 392.366Z" fill="#141516" stroke="#141516" stroke-miterlimit="10" stroke-linecap="round" stroke-linejoin="round"/>
<path d="M149.026 365.329C153.542 365.329 157.204 362.49 157.204 358.988C157.204 355.486 153.542 352.647 149.026 352.647C144.51 352.647 140.849 355.486 140.849 358.988C140.849 362.49 144.51 365.329 149.026 365.329Z" fill="white" stroke="#141516" stroke-miterlimit="10" stroke-linecap="round" stroke-linejoin="round"/>
</g>
<defs>
<clipPath id="clip0_163_6207">
<rect width="389" height="389" fill="white" transform="translate(72 26)"/>
</clipPath>
</defs>
</svg>
