<svg width="337" height="210" viewBox="0 0 337 210" fill="none" xmlns="http://www.w3.org/2000/svg">
<path d="M312.031 187.413L309.215 161.232" stroke="#141516" stroke-width="0.9853" stroke-miterlimit="10" stroke-linecap="round" stroke-linejoin="round"/>
<path d="M309.215 161.953C309.215 161.953 304.161 158.058 304.161 149.115C304.161 140.171 310.875 132.959 310.875 132.959C310.875 132.959 318.095 141.902 316.434 150.774C314.774 159.717 309.215 161.953 309.215 161.953Z" fill="#6985D1" stroke="#141516" stroke-width="0.9853" stroke-miterlimit="10" stroke-linecap="round" stroke-linejoin="round"/>
<path d="M309.215 161.232L310.514 141.542" stroke="#141516" stroke-width="0.9853" stroke-miterlimit="10" stroke-linecap="round" stroke-linejoin="round"/>
<path d="M314.558 185.466C314.558 185.466 318.384 175.44 323.438 167.362" stroke="#141516" stroke-width="0.9853" stroke-miterlimit="10" stroke-linecap="round" stroke-linejoin="round"/>
<path d="M320.839 172.123C320.839 172.123 318.023 166.425 321.994 158.419C325.964 150.413 335.133 146.879 335.133 146.879C335.133 146.879 337.732 158.058 332.246 165.343C326.831 172.628 320.839 172.123 320.839 172.123Z" fill="#6985D1" stroke="#141516" stroke-width="0.9853" stroke-miterlimit="10" stroke-linecap="round" stroke-linejoin="round"/>
<path d="M320.839 172.123L331.018 155.462" stroke="#141516" stroke-width="0.9853" stroke-miterlimit="10" stroke-linecap="round" stroke-linejoin="round"/>
<path d="M307.482 187.846C307.482 187.846 305.244 180.056 301.346 173.349C297.447 166.641 297.447 166.641 297.447 166.641" stroke="#141516" stroke-width="0.9853" stroke-miterlimit="10" stroke-linecap="round" stroke-linejoin="round"/>
<path d="M300.551 171.834C300.551 171.834 291.094 175.368 282.503 168.084C273.839 160.799 274.344 145.941 274.344 145.941C274.344 145.941 291.166 143.561 297.952 153.082C304.667 162.53 300.551 171.834 300.551 171.834Z" fill="#6985D1" stroke="#141516" stroke-width="0.9853" stroke-miterlimit="10" stroke-linecap="round" stroke-linejoin="round"/>
<path d="M300.551 171.834L280.697 151.062" stroke="#141516" stroke-width="0.9853" stroke-miterlimit="10" stroke-linecap="round" stroke-linejoin="round"/>
<path d="M321.199 181.788H299.974V202.632H321.199V181.788Z" fill="#141516" stroke="#141516" stroke-width="0.9853" stroke-miterlimit="10" stroke-linecap="round" stroke-linejoin="round"/>
<path d="M184.244 74.8978C185.472 72.5177 187.998 71.0752 190.67 71.0752H252.469C252.469 71.0752 256.946 71.0752 255.574 79.586C254.202 88.0968 235.937 139.811 231.46 155.39C226.984 170.969 226.118 204.002 226.118 204.002H151.973C151.973 204.002 157.893 125.169 184.244 74.8978Z" fill="white" stroke="#141516" stroke-width="0.9853" stroke-miterlimit="10" stroke-linecap="round" stroke-linejoin="round"/>
<path d="M241.713 85.7887C235.504 100.358 222.22 157.914 220.126 204.002H226.118C226.118 204.002 226.985 170.969 231.461 155.39C235.937 139.811 254.202 88.0246 255.574 79.586C256.946 71.0752 252.47 71.0752 252.47 71.0752C252.47 71.0752 246.694 74.1045 241.713 85.7887Z" fill="#141516" stroke="#141516" stroke-width="0.9853" stroke-miterlimit="10" stroke-linecap="round" stroke-linejoin="round"/>
<path d="M124.249 72.2292C124.249 72.2292 112.915 70.8588 105.406 62.9971C97.8979 55.1355 121.65 27.0788 134.357 20.5154C147.063 13.8799 152.261 15.683 165.906 25.7084C179.479 35.7338 192.763 51.8177 192.619 62.5644C192.475 73.3832 186.554 78.5041 194.785 83.8413C203.015 89.1786 226.262 104.253 229.583 114.639C232.976 125.025 227.056 137.935 213.484 144.931C199.839 151.928 177.53 151.639 155.943 144.643C134.429 137.719 129.664 115.721 132.48 106.705C135.223 97.7615 142.587 91.6308 140.349 84.7789C138.255 77.9992 124.249 72.2292 124.249 72.2292Z" fill="#141516" stroke="#141516" stroke-width="0.9853" stroke-miterlimit="10" stroke-linecap="round" stroke-linejoin="round"/>
<path d="M133.996 103.171C133.996 103.171 122.3 101.512 116.886 105.046C111.471 108.58 84.6863 154.236 84.6863 154.236L69.8861 134.329L57.1074 140.099C57.1074 140.099 63.0997 163.323 70.1027 174.863C77.1057 186.403 81.0765 187.557 83.4589 187.197C90.6063 186.043 111.254 162.169 111.254 162.169L118.763 187.125L113.637 205.3H208.574L197.095 186.043C197.095 186.043 212.112 116.803 208.286 109.446C204.459 102.161 182.151 103.099 175.148 103.099C168.145 103.099 155.077 103.099 155.077 103.099C155.077 103.099 150.601 104.036 145.836 104.036C141.071 104.036 133.996 103.171 133.996 103.171Z" fill="#4143EC"/>
<path d="M197.384 105.479L197.601 105.551L195.796 110.167L195.579 110.095L197.384 105.479ZM196.879 110.6L197.095 110.672L198.9 106.056L198.684 105.984L196.879 110.6ZM205.109 125.385L204.893 125.313L204.098 128.198H204.315L205.109 125.385ZM206.481 125.746L206.264 125.674L205.542 128.126H205.759L206.481 125.746ZM197.817 125.89L198.467 128.126H198.684L197.962 125.818L197.817 125.89ZM199.406 125.457L199.189 125.53L199.983 128.198H200.2L199.406 125.457ZM205.181 114.855L207.636 110.528L207.419 110.455L204.965 114.783L205.181 114.855ZM206.409 115.576L208.719 111.537C208.719 111.393 208.719 111.321 208.647 111.177L206.192 115.432L206.409 115.576ZM208.069 121.707L208.502 121.13C208.502 120.986 208.502 120.841 208.575 120.697L207.925 121.491L208.069 121.707ZM201.933 117.307L205.398 120.914L205.542 120.769L202.077 117.163L201.933 117.307ZM200.922 118.317L204.387 121.923L204.532 121.779L201.066 118.173L200.922 118.317ZM197.095 118.317L197.168 118.101L194.496 117.452V117.668L197.095 118.317ZM194.496 116.153L197.456 116.947L197.529 116.73L194.496 115.937V116.153ZM197.817 122.645L197.745 122.428L194.496 123.51V123.726L197.817 122.645ZM197.312 121.058L194.496 121.995V122.212L197.384 121.274L197.312 121.058ZM195.724 161.376L197.529 156.76L197.312 156.688L195.507 161.304L195.724 161.376ZM198.684 157.193L196.879 161.809L197.095 161.881L198.9 157.265L198.684 157.193ZM198.612 178.902L198.034 177.027L197.817 177.099L198.467 179.335C198.539 179.191 198.539 179.047 198.612 178.902ZM202.221 147.744L202.005 147.816L203.665 152.504H203.738C203.738 152.432 203.81 152.288 203.81 152.216L202.221 147.744ZM203.377 147.311L204.243 149.764C204.243 149.619 204.315 149.475 204.315 149.331L203.593 147.239L203.377 147.311ZM206.481 135.122L206.625 135.483C206.625 135.339 206.698 135.194 206.698 135.05L206.481 135.122ZM201.788 134.834L201.499 139.81H201.716L202.005 134.834H201.788ZM202.871 139.882H203.088L203.377 134.906H203.16L202.871 139.882ZM196.807 134.617L196.879 134.401L194.424 133.103V133.319L196.807 134.617ZM194.496 131.732L197.529 133.391L197.601 133.175L194.496 131.516V131.732ZM196.374 139.233L196.229 139.089L194.496 140.604V140.892L196.374 139.233ZM195.435 138.152L195.291 138.007L194.496 138.729V139.017L195.435 138.152ZM194.496 146.662V146.879L198.973 145.148L198.9 144.931L194.496 146.662ZM194.496 145.148V145.364L198.467 143.777L198.395 143.561L194.496 145.148ZM197.095 154.163L197.168 153.947L194.496 153.37V153.586L197.095 154.163ZM197.456 152.793L197.529 152.577L194.496 151.927V152.144L197.456 152.793ZM197.095 169.454L197.168 169.237L194.496 168.588V168.805L197.095 169.454ZM194.496 167.362L197.456 168.156L197.529 167.939L194.496 167.146V167.362ZM197.817 173.781L197.745 173.565L194.496 174.647V174.863L197.817 173.781ZM197.384 172.411L197.312 172.195L194.496 173.132V173.349L197.384 172.411ZM203.81 130.146L204.387 128.126H204.171L203.593 130.073L203.81 130.146ZM205.831 128.126H205.615L204.965 130.434L205.181 130.506L205.831 128.126ZM199.261 130.65L199.478 130.578L198.756 128.126H198.539L199.261 130.65ZM200.85 130.218L200.2 128.198H199.983L200.633 130.29L200.85 130.218ZM202.005 198.953L203.665 203.641L203.882 203.569L202.221 198.881L202.005 198.953ZM205.254 203.064L203.593 198.376L203.377 198.448L205.037 203.136L205.254 203.064ZM207.636 204.218L207.419 204.146L207.131 205.228H207.347L207.636 204.218ZM194.496 184.528L196.879 185.826L196.951 185.61L194.496 184.312V184.528ZM194.496 182.941L197.456 184.528C197.456 184.456 197.456 184.384 197.529 184.312L194.569 182.725V182.941H194.496ZM196.374 190.442L196.229 190.298L194.496 191.813V192.101L196.374 190.442ZM195.435 189.36L195.291 189.216L194.496 189.937V190.226L195.435 189.36ZM198.9 196.068L194.496 197.799V198.015L198.973 196.284L198.9 196.068ZM194.496 196.501L198.467 194.914L198.395 194.698L194.496 196.212V196.501ZM194.496 204.507V204.723L196.879 205.228H197.168V205.084L194.496 204.507ZM197.456 203.93L197.529 203.713L194.496 203.064V203.281L197.456 203.93ZM144.32 110.095L144.537 110.167L146.342 105.551L146.125 105.479L144.32 110.095ZM145.62 110.6L145.836 110.672L147.641 106.056L147.425 105.984L145.62 110.6ZM192.258 117.091L194.424 117.668V117.452L192.258 116.875V117.091ZM192.692 115.504L192.619 115.721L194.424 116.153V115.937L192.692 115.504ZM194.496 123.726V123.51L193.052 124.015L193.125 124.231L194.496 123.726ZM192.547 122.645L192.619 122.861L194.424 122.284V121.995L192.547 122.645ZM188.721 128.126H188.937L189.876 126.467L189.659 126.395L188.721 128.126ZM190.381 128.126H190.598L191.103 127.188L190.887 127.116L190.381 128.126ZM179.624 126.179L179.48 126.323L180.996 128.198H181.285L179.624 126.179ZM180.563 125.385L182.801 128.126H183.089L180.707 125.241L180.563 125.385ZM175.148 127.838L174.931 127.91L175.004 128.126H175.22L175.148 127.838ZM176.303 127.405L176.592 128.126H176.808L176.52 127.333L176.303 127.405ZM168.506 128.126L169.156 125.674L168.939 125.602L168.289 128.054H168.506V128.126ZM170.311 126.034L169.805 128.126H170.022L170.527 126.034H170.311ZM153.922 125.385L153.706 125.313L152.912 128.198H153.128L153.922 125.385ZM155.294 125.746L155.077 125.674L154.355 128.126H154.572L155.294 125.746ZM146.631 125.89L147.28 128.126H147.497L146.775 125.818L146.631 125.89ZM148.147 125.457L147.93 125.53L148.724 128.198H148.941L148.147 125.457ZM153.994 114.855L156.449 110.528L156.233 110.455L153.778 114.783L153.994 114.855ZM155.005 115.432L155.222 115.504L157.676 111.177L157.46 111.105L155.005 115.432ZM183.306 118.606L187.854 120.553L187.927 120.337L183.378 118.389L183.306 118.606ZM182.728 119.904L187.277 121.851L187.349 121.635L182.801 119.687L182.728 119.904ZM186.627 112.475L186.844 112.547L188.215 107.787L187.999 107.715L186.627 112.475ZM187.999 112.836L188.215 112.908L189.587 108.147L189.37 108.075L187.999 112.836ZM180.563 103.964L182.007 108.724L182.223 108.652L180.779 103.892L180.563 103.964ZM181.934 103.531L183.378 108.292L183.595 108.22L182.151 103.459L181.934 103.531ZM166.196 123.943L164.752 119.183L164.535 119.255L165.979 124.015L166.196 123.943ZM167.567 123.51L166.123 118.75L165.907 118.822L167.351 123.582L167.567 123.51ZM173.199 120.769L178.108 120.048V119.832L173.199 120.553V120.769ZM173.343 122.14L178.252 121.418V121.202L173.343 121.923V122.14ZM176.953 116.081L177.169 116.153L178.252 111.321L178.036 111.249L176.953 116.081ZM179.48 111.537L178.397 116.37L178.613 116.442L179.696 111.609L179.48 111.537ZM162.008 113.34L162.225 113.485L164.896 109.301L164.68 109.157L162.008 113.34ZM166.051 110.023L165.835 109.878L163.163 114.062L163.38 114.206L166.051 110.023ZM161.431 105.19L165.979 103.171V103.099C165.835 103.099 165.69 103.099 165.618 103.099L161.358 104.974L161.431 105.19ZM161.864 106.272L161.936 106.489L166.484 104.469L166.412 104.253L161.864 106.272ZM157.532 103.099C157.46 103.099 157.388 103.099 157.316 103.099L156.233 106.993L156.449 107.066L157.532 103.099ZM155.077 106.705L156.088 103.099C156.016 103.099 155.944 103.099 155.872 103.099L154.861 106.633L155.077 106.705ZM174.57 104.613L174.137 103.099C174.065 103.099 173.993 103.099 173.921 103.099L174.426 104.685L174.57 104.613ZM173.054 105.118L173.271 105.046L172.693 103.099C172.621 103.099 172.549 103.099 172.477 103.099L173.054 105.118ZM156.666 121.563L156.81 121.707L159.842 117.74L159.698 117.596L156.666 121.563ZM157.821 122.428L157.965 122.572L160.998 118.606L160.853 118.461L157.821 122.428ZM150.746 117.307L154.211 120.914L154.355 120.769L150.89 117.163L150.746 117.307ZM149.663 118.317L153.128 121.923L153.273 121.779L149.807 118.173L149.663 118.317ZM168.578 111.898L168.506 112.114L173.054 114.062L173.126 113.845L168.578 111.898ZM169.083 110.816L173.632 112.763L173.704 112.547L169.156 110.6L169.083 110.816ZM145.909 118.317L145.981 118.101L143.31 117.452V117.668L145.909 118.317ZM143.237 116.153L146.197 116.947L146.27 116.73L143.237 115.937V116.153ZM146.558 122.645L146.486 122.428L143.237 123.51V123.726L146.558 122.645ZM146.053 121.058L143.237 121.995V122.212L146.125 121.274L146.053 121.058ZM146.125 156.616L144.32 161.232L144.537 161.304L146.342 156.688L146.125 156.616ZM147.425 157.193L145.62 161.809L145.836 161.881L147.641 157.265L147.425 157.193ZM192.403 132.237L194.424 133.319V133.103L192.475 132.093L192.403 132.237ZM193.197 130.795L193.125 131.011L194.496 131.732V131.516L193.197 130.795ZM194.496 140.604L192.475 142.335L192.619 142.479L194.496 140.892V140.604ZM191.681 141.469L194.496 139.017V138.729L191.536 141.253L191.681 141.469ZM194.208 146.734L194.28 146.951L194.424 146.879V146.662L194.208 146.734ZM193.702 145.436L193.774 145.653L194.424 145.364V145.148L193.702 145.436ZM194.496 153.37L192.331 152.865L192.258 153.081L194.496 153.586V153.37ZM194.496 151.855L192.619 151.423L192.547 151.639L194.424 152.072V151.855H194.496ZM194.496 168.588L192.331 168.011L192.258 168.228L194.424 168.805V168.588H194.496ZM192.692 166.641L192.619 166.857L194.424 167.29V167.074L192.692 166.641ZM194.496 174.863V174.647L193.052 175.152L193.125 175.368L194.496 174.863ZM194.496 173.349V173.132L192.619 173.781L192.692 173.998L194.496 173.349ZM165.185 130.65L160.637 128.703L160.564 128.919L165.113 130.867L165.185 130.65ZM159.987 130.218L164.535 132.165L164.607 131.949L160.059 130.001L159.987 130.218ZM189.876 177.676L189.659 177.604L188.649 179.335H188.865L189.876 177.676ZM191.103 178.397L190.887 178.325L190.309 179.335H190.526L191.103 178.397ZM179.48 177.46L180.996 179.335H181.285L179.624 177.316L179.48 177.46ZM180.563 176.594L182.801 179.335H183.089L180.707 176.45L180.563 176.594ZM175.148 178.974L174.931 179.047L175.004 179.263H175.22L175.148 178.974ZM176.303 178.614L176.592 179.335H176.808L176.52 178.542L176.303 178.614ZM169.083 176.883L168.867 176.811L168.217 179.263H168.434L169.083 176.883ZM170.311 177.171L169.805 179.263H170.022L170.527 177.171H170.311ZM153.922 176.522L153.706 176.45L152.912 179.335H153.128L153.922 176.522ZM155.294 176.883L155.077 176.811L154.355 179.263H154.572L155.294 176.883ZM146.631 177.099L147.28 179.335H147.497L146.775 177.027L146.631 177.099ZM147.93 176.666L148.724 179.335H148.941L148.147 176.594L147.93 176.666ZM156.305 161.592L153.85 165.92L154.067 165.992L156.521 161.664L156.305 161.592ZM157.676 162.386L157.46 162.313L155.005 166.641L155.222 166.713L157.676 162.386ZM177.819 138.729L174.643 134.906L174.498 135.05L177.675 138.873L177.819 138.729ZM176.736 139.594L173.56 135.771L173.415 135.916L176.592 139.738L176.736 139.594ZM168.939 137.502L170.6 142.191L170.816 142.118L169.156 137.43L168.939 137.502ZM170.239 136.997L171.899 141.686L172.116 141.614L170.455 136.925L170.239 136.997ZM187.927 171.545L183.378 169.598L183.306 169.814L187.854 171.762L187.927 171.545ZM187.421 172.844L182.873 170.896L182.801 171.113L187.349 173.06L187.421 172.844ZM187.927 158.851L186.555 163.612L186.771 163.684L188.143 158.924L187.927 158.851ZM189.515 159.284L189.298 159.212L187.927 163.972L188.143 164.044L189.515 159.284ZM182.151 159.789L180.707 155.029L180.49 155.101L181.934 159.861L182.151 159.789ZM183.523 159.356L182.079 154.596L181.862 154.668L183.306 159.428L183.523 159.356ZM169.156 146.951L166.701 151.278L166.918 151.35L169.372 147.023L169.156 146.951ZM168.073 146.302L167.856 146.23L165.401 150.557L165.618 150.629L168.073 146.302ZM159.626 150.269L156.449 146.446L156.305 146.59L159.481 150.413L159.626 150.269ZM160.781 149.331L157.604 145.508L157.46 145.653L160.637 149.475L160.781 149.331ZM150.818 147.816L152.478 152.504L152.695 152.432L151.034 147.744L150.818 147.816ZM152.117 147.311L153.778 152L153.994 151.927L152.334 147.239L152.117 147.311ZM186.555 151.134L186.771 151.206L187.999 146.374L187.782 146.302L186.555 151.134ZM189.37 146.662L189.154 146.59L187.927 151.423L188.143 151.495L189.37 146.662ZM181.212 150.773L176.664 148.826L176.592 149.042L181.14 150.99L181.212 150.773ZM181.79 149.403L177.242 147.456L177.169 147.672L181.718 149.619L181.79 149.403ZM166.196 175.08L164.752 170.319L164.535 170.391L165.979 175.152L166.196 175.08ZM167.567 174.647L166.123 169.887L165.907 169.959L167.351 174.719L167.567 174.647ZM178.108 171.185V170.968L173.199 171.69V171.906L178.108 171.185ZM178.325 172.627V172.411L173.415 173.132V173.349L178.325 172.627ZM177.169 167.29L178.252 162.458L178.036 162.386L176.953 167.218L177.169 167.29ZM178.541 167.651L179.624 162.818L179.407 162.746L178.325 167.579L178.541 167.651ZM164.824 160.438L164.607 160.294L161.936 164.477L162.153 164.621L164.824 160.438ZM166.051 161.159L165.835 161.015L163.163 165.271L163.38 165.415L166.051 161.159ZM165.979 154.308L165.907 154.091L161.358 156.111L161.431 156.327L165.979 154.308ZM166.557 155.606L166.484 155.389L161.936 157.409L162.008 157.625L166.557 155.606ZM157.749 153.442L157.532 153.37L156.16 158.13L156.377 158.202L157.749 153.442ZM155.077 157.842L156.449 153.081L156.233 153.009L154.861 157.77L155.077 157.842ZM174.57 155.75L173.126 150.99L172.91 151.062L174.354 155.822L174.57 155.75ZM171.61 151.495L173.054 156.255L173.271 156.183L171.827 151.423L171.61 151.495ZM164.68 139.233L160.709 142.263L160.853 142.407L164.824 139.378L164.68 139.233ZM161.647 143.561L165.618 140.532L165.474 140.387L161.503 143.417L161.647 143.561ZM158.254 139.45L156.882 134.689L156.666 134.762L158.037 139.522L158.254 139.45ZM155.294 135.122L156.666 139.882L156.882 139.81L155.511 135.05L155.294 135.122ZM150.529 134.834L150.24 139.81H150.457L150.746 134.834H150.529ZM151.684 139.882H151.901L152.19 134.906H151.973L151.684 139.882ZM159.842 168.949L159.698 168.805L156.666 172.772L156.81 172.916L159.842 168.949ZM160.998 169.814L160.853 169.67L157.821 173.637L157.965 173.781L160.998 169.814ZM150.746 168.444L154.211 172.05L154.355 171.906L150.89 168.3L150.746 168.444ZM149.663 169.454L153.128 173.06L153.273 172.916L149.807 169.31L149.663 169.454ZM185.977 141.758L185.833 141.614L182.728 145.508L182.873 145.653L185.977 141.758ZM184.678 140.748L181.573 144.643L181.718 144.787L184.822 140.892L184.678 140.748ZM185.544 133.391H185.328L184.75 138.368H184.967L185.544 133.391ZM183.956 133.247L183.378 138.224H183.595L184.172 133.247H183.956ZM173.199 165.054L168.65 163.107L168.578 163.323L173.126 165.271L173.199 165.054ZM169.083 161.953L173.632 163.9L173.704 163.684L169.156 161.736L169.083 161.953ZM145.62 134.617L145.692 134.401L143.237 133.103V133.319L145.62 134.617ZM143.237 131.732L146.27 133.391L146.342 133.175L143.237 131.516V131.732ZM145.114 139.233L144.97 139.089L143.237 140.604V140.892L145.114 139.233ZM144.176 138.152L144.031 138.007L143.237 138.729V139.017L144.176 138.152ZM147.641 144.931L143.237 146.662V146.879L147.713 145.148L147.641 144.931ZM147.208 143.777L147.136 143.561L143.237 145.076V145.292L147.208 143.777ZM145.909 154.163L145.981 153.947L143.31 153.37V153.586L145.909 154.163ZM143.237 152.072L146.197 152.721L146.27 152.504L143.237 151.855V152.072ZM145.909 169.454L145.981 169.237L143.31 168.588V168.805L145.909 169.454ZM143.237 167.362L146.197 168.156L146.27 167.939L143.237 167.146V167.362ZM146.558 173.781L146.486 173.565L143.237 174.647V174.863L146.558 173.781ZM146.125 172.411L146.053 172.195L143.237 173.132V173.349L146.125 172.411ZM187.205 130.723L187.421 130.795L188.937 128.126H188.721L187.205 130.723ZM188.504 131.444L188.721 131.516L190.67 128.126H190.453L188.504 131.444ZM182.801 130.001L181.285 128.126H180.996L182.656 130.146L182.801 130.001ZM183.739 129.208L183.884 129.064L183.089 128.126H182.801L183.739 129.208ZM176.881 132.526L175.292 128.198H175.076L176.664 132.598L176.881 132.526ZM178.036 132.093L178.252 132.021L176.881 128.126H176.664L178.036 132.093ZM167.712 130.506L167.928 130.578L168.506 128.198H168.289L167.712 130.506ZM169.083 130.867L169.3 130.939L170.022 128.198H169.805L169.083 130.867ZM152.551 130.146L153.128 128.126H152.912L152.334 130.073L152.551 130.146ZM154.572 128.126H154.355L153.706 130.434L153.922 130.506L154.572 128.126ZM148.002 130.65L148.219 130.578L147.497 128.126H147.28L148.002 130.65ZM149.591 130.218L148.941 128.198H148.724L149.374 130.29L149.591 130.218ZM192.547 183.23L192.475 183.446L194.496 184.528V184.312L192.547 183.23ZM193.197 182.004L193.125 182.22L194.496 182.941V182.725L193.197 182.004ZM194.496 192.029V191.741L192.475 193.472L192.619 193.616L194.496 192.029ZM194.496 190.154V189.865L191.536 192.39L191.681 192.534L194.496 190.154ZM194.208 197.943L194.28 198.16L194.424 198.088V197.871L194.208 197.943ZM193.702 196.573L193.774 196.789L194.424 196.501V196.284L193.702 196.573ZM192.331 204.002L192.258 204.218L194.496 204.723V204.507L192.331 204.002ZM194.496 203.064L192.619 202.631L192.547 202.848L194.424 203.281V203.064H194.496ZM165.185 181.859L160.637 179.912L160.564 180.128L165.113 182.076L165.185 181.859ZM159.987 181.427L164.535 183.374L164.607 183.158L160.059 181.21L159.987 181.427ZM174.498 186.187L177.675 190.01L177.819 189.865L174.643 186.043L174.498 186.187ZM176.736 190.803L173.56 186.98L173.415 187.125L176.592 190.947L176.736 190.803ZM170.816 193.255L169.156 188.567L168.939 188.639L170.6 193.327L170.816 193.255ZM172.188 192.822L170.527 188.134L170.311 188.206L171.971 192.895L172.188 192.822ZM169.3 198.232L169.083 198.16L166.629 202.487L166.845 202.559L169.3 198.232ZM168.073 197.511L167.856 197.438L165.401 201.766L165.618 201.838L168.073 197.511ZM159.626 201.405L156.449 197.583L156.305 197.727L159.481 201.55L159.626 201.405ZM160.781 200.54L157.604 196.717L157.46 196.861L160.637 200.684L160.781 200.54ZM152.695 203.569L151.034 198.881L150.818 198.953L152.478 203.641L152.695 203.569ZM153.994 203.064L152.334 198.448L152.117 198.52L153.778 203.208L153.994 203.064ZM187.999 197.511L187.782 197.438L186.555 202.271L186.771 202.343L187.999 197.511ZM189.37 197.871L189.154 197.799L187.927 202.631L188.143 202.704L189.37 197.871ZM181.212 201.91L176.664 199.963L176.592 200.179L181.14 202.127L181.212 201.91ZM181.79 200.612L177.242 198.665L177.169 198.881L181.718 200.828L181.79 200.612ZM157.604 204.579L157.388 205.3H157.604L157.821 204.651L157.604 204.579ZM156.377 204.218L156.16 204.146L155.872 205.228H156.088L156.377 204.218ZM172.982 202.271L173.921 205.3H174.137L173.199 202.199L172.982 202.271ZM171.827 202.631L171.61 202.704L172.404 205.3H172.621L171.827 202.631ZM164.824 190.587L164.68 190.442L160.709 193.472L160.853 193.616L164.824 190.587ZM165.69 191.741L165.546 191.596L161.575 194.626L161.719 194.77L165.69 191.741ZM158.037 190.659L158.254 190.587L156.882 185.826L156.666 185.898L158.037 190.659ZM156.882 191.019L155.511 186.259L155.294 186.331L156.666 191.091L156.882 191.019ZM150.457 191.019L150.746 186.043H150.529L150.24 191.019H150.457ZM151.901 191.091L152.19 186.115H151.973L151.684 191.091H151.901ZM185.977 192.967L185.833 192.822L182.728 196.717L182.873 196.861L185.977 192.967ZM184.678 191.885L181.573 195.78L181.718 195.924L184.822 192.029L184.678 191.885ZM185.544 184.6H185.328L184.75 189.577H184.967L185.544 184.6ZM183.956 184.384L183.378 189.36H183.595L184.172 184.384H183.956ZM145.62 185.826L145.692 185.61L143.237 184.312V184.528L145.62 185.826ZM146.342 184.384L143.237 182.725V182.941L146.27 184.6L146.342 184.384ZM145.114 190.442L144.97 190.298L143.237 191.813V192.101L145.114 190.442ZM144.176 189.36L144.031 189.216L143.237 189.937V190.226L144.176 189.36ZM147.641 196.068L143.237 197.799V198.015L147.713 196.284L147.641 196.068ZM143.237 196.501L147.208 194.914L147.136 194.698L143.237 196.212V196.501ZM143.237 204.507V204.723L145.62 205.228H145.909V205.084L143.237 204.507ZM146.197 203.93L146.27 203.713L143.237 203.064V203.281L146.197 203.93ZM187.421 182.004L188.937 179.335H188.721L187.277 181.932L187.421 182.004ZM190.381 179.335L188.504 182.653L188.721 182.725L190.67 179.335H190.381ZM182.584 181.282L182.728 181.138L181.212 179.263H180.924L182.584 181.282ZM183.739 180.417L183.884 180.273L183.089 179.335H182.801L183.739 180.417ZM176.881 183.663L175.292 179.335H175.076L176.664 183.735L176.881 183.663ZM178.036 183.23L178.252 183.158L176.881 179.263H176.664L178.036 183.23ZM167.856 181.715L168.434 179.335H168.217L167.64 181.715H167.856ZM169.083 182.004L169.3 182.076L170.022 179.335H169.805L169.083 182.004ZM152.551 181.282L153.128 179.263H152.912L152.334 181.21L152.551 181.282ZM154.355 179.335L153.706 181.643L153.922 181.715L154.572 179.335H154.355ZM148.002 181.859L148.219 181.787L147.497 179.335H147.28L148.002 181.859ZM149.374 181.427L149.591 181.355L148.941 179.335H148.724L149.374 181.427ZM141.071 117.091L143.237 117.668V117.452L141.071 116.875V117.091ZM141.505 115.504L141.432 115.721L143.237 116.153V115.937L141.505 115.504ZM143.237 123.726V123.51L141.793 124.015L141.866 124.231L143.237 123.726ZM141.36 122.645L141.432 122.861L143.237 122.284V121.995L141.36 122.645ZM137.462 128.126H137.678L138.617 126.467L138.4 126.395L137.462 128.126ZM139.122 128.126H139.339L139.844 127.188L139.628 127.116L139.122 128.126ZM128.437 126.179L128.293 126.323L129.809 128.198H130.098L128.437 126.179ZM129.376 125.385L131.614 128.126H131.903L129.52 125.241L129.376 125.385ZM123.961 127.838L123.744 127.91L123.817 128.126H124.033L123.961 127.838ZM125.116 127.405L125.405 128.126H125.621L125.333 127.333L125.116 127.405ZM117.319 128.126L117.969 125.674L117.752 125.602L117.102 128.054H117.319V128.126ZM119.052 126.034L118.546 128.126H118.763L119.268 126.034H119.052ZM101.941 128.126L102.735 125.313L102.519 125.241L101.725 128.126H101.941ZM104.035 125.746L103.818 125.674L103.096 128.126H103.313L104.035 125.746ZM132.047 118.606L136.595 120.553L136.667 120.337L132.119 118.389L132.047 118.606ZM131.542 119.904L136.09 121.851L136.162 121.635L131.614 119.687L131.542 119.904ZM135.368 112.475L135.585 112.547L136.956 107.787L136.74 107.715L135.368 112.475ZM136.74 112.836L136.956 112.908L138.328 108.147L138.111 108.075L136.74 112.836ZM129.303 103.964L130.747 108.724L130.964 108.652L129.52 103.892L129.303 103.964ZM130.675 103.531L132.119 108.292L132.336 108.22L130.892 103.459L130.675 103.531ZM113.348 119.183L114.792 123.943L115.009 123.871L113.565 119.11L113.348 119.183ZM116.308 123.51L114.864 118.75L114.648 118.822L116.092 123.582L116.308 123.51ZM121.94 120.769L126.849 120.048V119.832L121.94 120.553V120.769ZM122.084 121.923V122.14L126.993 121.418V121.202L122.084 121.923ZM127.065 111.249L126.849 111.177L125.766 116.009L125.982 116.081L127.065 111.249ZM128.221 111.537L127.138 116.37L127.354 116.442L128.437 111.609L128.221 111.537ZM110.749 113.34L110.966 113.485L113.637 109.301L113.42 109.157L110.749 113.34ZM111.976 114.062L112.193 114.206L114.864 110.023L114.648 109.878L111.976 114.062ZM123.383 104.613L122.95 103.099C122.878 103.099 122.806 103.099 122.734 103.099L123.239 104.685L123.383 104.613ZM121.795 105.118L122.012 105.046L121.506 103.315C121.434 103.315 121.362 103.315 121.29 103.387L121.795 105.118ZM105.479 121.563L105.623 121.707L108.655 117.74L108.511 117.596L105.479 121.563ZM109.811 118.606L109.666 118.461L106.634 122.428L106.778 122.572L109.811 118.606ZM117.391 111.898L117.319 112.114L121.867 114.062L121.94 113.845L117.391 111.898ZM117.824 110.816L122.373 112.763L122.445 112.547L117.897 110.6L117.824 110.816ZM94.9382 156.616L93.1333 161.232L93.3499 161.304L95.1548 156.688L94.9382 156.616ZM96.2378 157.193L94.4329 161.809L94.6494 161.881L96.4543 157.265L96.2378 157.193ZM141.216 132.237L143.237 133.319V133.103L141.288 132.093L141.216 132.237ZM142.01 130.795L141.938 131.011L143.31 131.732V131.516L142.01 130.795ZM143.237 140.604L141.216 142.335L141.36 142.479L143.237 140.892V140.604ZM140.422 141.469L143.237 139.017V138.729L140.277 141.253L140.422 141.469ZM143.021 146.734L143.093 146.951L143.237 146.879V146.662L143.021 146.734ZM143.237 145.148L142.515 145.436L142.588 145.653L143.237 145.364V145.148ZM143.237 153.37L141.071 152.865L140.999 153.081L143.237 153.586V153.37ZM141.432 151.495L141.36 151.711L143.237 152.144V151.927L141.432 151.495ZM143.237 168.588L141.071 168.011L140.999 168.228L143.165 168.805V168.588H143.237ZM141.505 166.641L141.432 166.857L143.237 167.29V167.074L141.505 166.641ZM143.237 174.863V174.647L141.793 175.152L141.866 175.368L143.237 174.863ZM143.237 173.349V173.132L141.36 173.781L141.432 173.998L143.237 173.349ZM109.305 128.919L113.854 130.867L113.926 130.65L109.377 128.703L109.305 128.919ZM108.728 130.218L113.276 132.165L113.348 131.949L108.8 130.001L108.728 130.218ZM138.689 177.676L138.472 177.604L137.462 179.335H137.678L138.689 177.676ZM139.916 178.397L139.7 178.325L139.122 179.335H139.339L139.916 178.397ZM128.221 177.46L129.737 179.335H130.025L128.365 177.316L128.221 177.46ZM129.376 176.594L131.614 179.335H131.903L129.52 176.45L129.376 176.594ZM123.961 178.974L123.744 179.047L123.817 179.263H124.033L123.961 178.974ZM125.116 178.614L125.405 179.335H125.621L125.333 178.542L125.116 178.614ZM117.03 179.335H117.247L117.897 176.883L117.68 176.811L117.03 179.335ZM119.052 177.171L118.546 179.263H118.763L119.268 177.171H119.052ZM95.588 177.027L95.3714 177.099L95.7324 178.397C95.8046 178.325 95.8768 178.253 95.8768 178.253L95.588 177.027ZM96.9597 176.594L96.7431 176.666L96.9597 177.316C97.0319 177.243 97.1041 177.171 97.1041 177.171L96.9597 176.594ZM105.262 161.664L105.046 161.592L102.591 165.92L102.808 165.992L105.262 161.664ZM104.035 166.713L106.49 162.386L106.273 162.313L103.818 166.641L104.035 166.713ZM126.632 138.729L123.456 134.906L123.311 135.05L126.488 138.873L126.632 138.729ZM125.549 139.594L122.373 135.771L122.228 135.916L125.405 139.738L125.549 139.594ZM117.68 137.502L119.34 142.191L119.557 142.118L117.897 137.43L117.68 137.502ZM119.052 136.997L120.712 141.686L120.929 141.614L119.268 136.925L119.052 136.997ZM136.74 171.545L132.119 169.598L132.047 169.814L136.595 171.762L136.74 171.545ZM136.162 172.844L131.614 170.896L131.542 171.113L136.09 173.06L136.162 172.844ZM136.74 158.851L135.368 163.612L135.585 163.684L136.956 158.924L136.74 158.851ZM138.328 159.284L138.111 159.212L136.74 163.972L136.956 164.044L138.328 159.284ZM130.964 159.789L129.52 155.029L129.303 155.101L130.747 159.861L130.964 159.789ZM132.336 159.356L130.892 154.596L130.675 154.668L132.119 159.428L132.336 159.356ZM117.897 146.951L115.442 151.278L115.658 151.35L118.113 147.023L117.897 146.951ZM116.669 146.23L114.215 150.557L114.431 150.629L116.886 146.302L116.669 146.23ZM105.118 146.518L108.294 150.341L108.439 150.196L105.262 146.374L105.118 146.518ZM106.201 145.653L109.377 149.475L109.522 149.331L106.345 145.508L106.201 145.653ZM99.5588 147.816L101.219 152.504L101.436 152.432L99.7754 147.744L99.5588 147.816ZM100.93 147.311L102.591 152L102.808 151.927L101.147 147.239L100.93 147.311ZM135.296 151.134L135.512 151.206L136.74 146.374L136.523 146.302L135.296 151.134ZM138.111 146.662L137.895 146.59L136.667 151.423L136.884 151.495L138.111 146.662ZM130.025 150.773L125.477 148.826L125.405 149.042L129.953 150.99L130.025 150.773ZM130.603 149.403L126.055 147.456L125.982 147.672L130.531 149.619L130.603 149.403ZM114.648 169.959L116.092 174.719L116.308 174.647L114.864 169.887L114.648 169.959ZM126.849 171.185V170.968L121.94 171.69V171.906L126.849 171.185ZM127.065 172.627V172.411L122.156 173.132V173.349L127.065 172.627ZM125.982 167.29L127.065 162.458L126.849 162.386L125.766 167.218L125.982 167.29ZM127.354 167.651L128.437 162.818L128.221 162.746L127.138 167.579L127.354 167.651ZM113.42 160.294L111.543 163.251L111.615 163.54L113.565 160.438L113.42 160.294ZM114.648 161.015L112.121 165.054L112.193 165.343L114.864 161.159L114.648 161.015ZM110.099 156.111L110.172 156.327L114.72 154.308L114.648 154.091L110.099 156.111ZM115.297 155.606L115.225 155.389L110.677 157.409L110.749 157.625L115.297 155.606ZM106.562 153.442L106.345 153.37L104.973 158.13L105.19 158.202L106.562 153.442ZM103.818 157.842L105.19 153.081L104.973 153.009L103.602 157.77L103.818 157.842ZM123.383 155.75L121.94 150.99L121.723 151.062L123.167 155.822L123.383 155.75ZM120.351 151.495L121.795 156.255L122.012 156.183L120.568 151.423L120.351 151.495ZM113.42 139.233L109.45 142.263L109.594 142.407L113.565 139.378L113.42 139.233ZM110.316 143.417L110.46 143.561L114.431 140.532L114.287 140.387L110.316 143.417ZM105.407 134.762L106.778 139.522L106.995 139.45L105.623 134.689L105.407 134.762ZM104.107 135.122L105.479 139.882L105.695 139.81L104.324 135.05L104.107 135.122ZM99.0534 139.81H99.27L99.5588 134.834H99.3422L99.0534 139.81ZM100.93 134.906H100.714L100.425 139.882H100.642L100.93 134.906ZM102.663 171.473L99.631 168.3L99.4866 168.444L102.519 171.618C102.591 171.618 102.663 171.545 102.663 171.473ZM98.6202 169.31L98.4758 169.454L101.58 172.699C101.652 172.627 101.652 172.627 101.725 172.555L98.6202 169.31ZM134.718 141.758L134.574 141.614L131.469 145.508L131.614 145.653L134.718 141.758ZM133.419 140.748L130.314 144.643L130.459 144.787L133.563 140.892L133.419 140.748ZM134.357 133.391H134.141L133.563 138.368H133.78L134.357 133.391ZM132.697 133.247L132.119 138.224H132.336L132.913 133.247H132.697ZM121.94 165.054L117.391 163.107L117.319 163.323L121.867 165.271L121.94 165.054ZM122.517 163.684L117.969 161.736L117.897 161.953L122.445 163.9L122.517 163.684ZM93.9275 139.233L93.7831 139.089L93.6387 139.233C93.4943 139.45 93.4221 139.594 93.2777 139.81L93.9275 139.233ZM96.4543 144.931L92.0504 146.662V146.879L96.5265 145.148L96.4543 144.931ZM96.0212 143.777L95.949 143.561L92.0504 145.076V145.292L96.0212 143.777ZM94.6494 154.163L94.7216 153.947L92.0504 153.37V153.586L94.6494 154.163ZM95.0104 152.793L95.0826 152.577L92.0504 151.927V152.144L95.0104 152.793ZM94.6494 169.454L94.7216 169.237L92.0504 168.588V168.805L94.6494 169.454ZM92.0504 167.362L95.0104 168.156L95.0826 167.939L92.0504 167.146V167.362ZM95.3714 173.781L95.2992 173.565L92.0504 174.647V174.863L95.3714 173.781ZM94.9382 172.411L94.866 172.195L92.0504 173.132V173.349L94.9382 172.411ZM136.018 130.723L136.234 130.795L137.75 128.126H137.534L136.018 130.723ZM137.245 131.444L137.462 131.516L139.411 128.126H139.194L137.245 131.444ZM131.542 130.001L130.025 128.126H129.737L131.397 130.146L131.542 130.001ZM132.48 129.208L132.625 129.064L131.83 128.126H131.542L132.48 129.208ZM125.621 132.526L124.033 128.198H123.817L125.405 132.598L125.621 132.526ZM126.777 132.093L126.993 132.021L125.621 128.126H125.405L126.777 132.093ZM116.453 130.506L116.669 130.578L117.247 128.198H117.03L116.453 130.506ZM117.824 130.867L118.041 130.939L118.763 128.198H118.546L117.824 130.867ZM101.147 130.073L101.364 130.146L101.941 128.126H101.725L101.147 130.073ZM103.385 128.126H103.169L102.519 130.434L102.735 130.506L103.385 128.126ZM141.216 183.446L143.237 184.528V184.312L141.288 183.302L141.216 183.446ZM142.01 182.004L141.938 182.22L143.31 182.941V182.725L142.01 182.004ZM143.237 192.029V191.741L141.216 193.472L141.36 193.616L143.237 192.029ZM143.237 190.154V189.865L140.277 192.39L140.422 192.534L143.237 190.154ZM143.021 197.943L143.093 198.16L143.237 198.088V197.871L143.021 197.943ZM142.515 196.573L142.588 196.789L143.237 196.501V196.284L142.515 196.573ZM141.071 204.002L140.999 204.218L143.237 204.723V204.507L141.071 204.002ZM143.237 203.064L141.36 202.631L141.288 202.848L143.165 203.281V203.064H143.237ZM123.311 186.187L126.488 190.01L126.632 189.865L123.456 186.043L123.311 186.187ZM125.549 190.803L122.373 186.98L122.228 187.125L125.405 190.947L125.549 190.803ZM119.629 193.255L118.185 189.216L118.113 189.577L119.485 193.327L119.629 193.255ZM120.929 192.822L119.268 188.134L119.052 188.206L120.712 192.895L120.929 192.822ZM118.113 198.232L117.897 198.16L115.442 202.487L115.658 202.559L118.113 198.232ZM116.669 197.366L115.081 200.107L114.864 200.973L116.886 197.511L116.669 197.366ZM136.74 197.511L136.523 197.438L135.296 202.271L135.512 202.343L136.74 197.511ZM138.111 197.871L137.895 197.799L136.667 202.631L136.884 202.704L138.111 197.871ZM130.025 201.91L125.477 199.963L125.405 200.179L129.953 202.127L130.025 201.91ZM130.603 200.612L126.055 198.665L125.982 198.881L130.531 200.828L130.603 200.612ZM121.723 202.271L122.661 205.3H122.878L121.94 202.199L121.723 202.271ZM120.568 202.631L120.351 202.704L121.145 205.3H121.362L120.568 202.631ZM134.718 192.967L134.574 192.822L131.469 196.717L131.614 196.861L134.718 192.967ZM133.419 191.885L130.314 195.78L130.459 195.924L133.563 192.029L133.419 191.885ZM134.357 184.6H134.141L133.563 189.577H133.78L134.357 184.6ZM132.697 184.384L132.119 189.36H132.336L132.913 184.384H132.697ZM136.234 182.004L137.75 179.335H137.534L136.09 181.932L136.234 182.004ZM139.122 179.335L137.245 182.653L137.462 182.725L139.411 179.335H139.122ZM131.397 181.282L131.542 181.138L130.025 179.263H129.737L131.397 181.282ZM132.48 180.417L132.625 180.273L131.83 179.335H131.542L132.48 180.417ZM125.621 183.663L124.033 179.335H123.817L125.405 183.735L125.621 183.663ZM126.777 183.23L126.993 183.158L125.621 179.263H125.405L126.777 183.23ZM116.741 180.489L116.886 180.922L117.319 179.335H117.102L116.741 180.489ZM117.824 182.004L118.041 182.076L118.763 179.335H118.546L117.824 182.004ZM91.8338 146.734L91.906 146.951L92.0504 146.879V146.662L91.8338 146.734ZM92.0504 145.148L91.3284 145.436L91.4006 145.653L92.0504 145.364V145.148ZM89.8123 153.081L92.0504 153.586V153.37L89.8845 152.865L89.8123 153.081ZM90.1011 151.711L91.9782 152.144V151.927L90.1011 151.495V151.711ZM92.0504 168.588L89.8845 168.011L89.8123 168.228L91.9782 168.805V168.588H92.0504ZM90.2455 166.641L90.1733 166.857L91.9782 167.29V167.074L90.2455 166.641ZM92.0504 174.863V174.647L90.6065 175.152L90.6787 175.368L92.0504 174.863ZM92.0504 173.349V173.132L90.1733 173.781L90.2455 173.998L92.0504 173.349ZM87.4299 177.676L87.2133 177.604L86.2025 179.335H86.4191L87.4299 177.676ZM88.7294 178.397L88.5128 178.325L87.9352 179.335H88.1518L88.7294 178.397ZM77.0336 177.46L78.5498 179.335H78.8385L77.178 177.316L77.0336 177.46ZM78.1166 176.594L80.3547 179.335H80.6434L78.261 176.45L78.1166 176.594ZM74.0736 178.542L73.857 178.614L74.1458 179.335H74.3624L74.0736 178.542ZM66.493 137.502L68.1535 142.191L68.3701 142.118L66.7096 137.43L66.493 137.502ZM67.8648 136.997L69.5253 141.686L69.7418 141.614L68.0813 136.925L67.8648 136.997ZM85.5528 171.545L81.0044 169.598L80.9322 169.814L85.4806 171.762L85.5528 171.545ZM84.9752 172.844L80.4268 170.896L80.3547 171.113L84.903 173.06L84.9752 172.844ZM85.4806 158.851L84.1088 163.612L84.3254 163.684L85.6971 158.924L85.4806 158.851ZM87.0689 159.284L86.8523 159.212L85.4806 163.972L85.6971 164.044L87.0689 159.284ZM79.7771 159.789L78.3332 155.029L78.1166 155.101L79.5605 159.861L79.7771 159.789ZM81.0766 159.356L79.6327 154.596L79.4161 154.668L80.86 159.428L81.0766 159.356ZM66.854 147.023L66.6374 146.951L64.1828 151.278L64.3993 151.35L66.854 147.023ZM65.6267 146.302L65.4101 146.23L62.9554 150.557L63.172 150.629L65.6267 146.302ZM78.7663 150.773L74.218 148.826L74.1458 149.042L78.6941 150.99L78.7663 150.773ZM79.3439 149.403L74.7956 147.456L74.7234 147.672L79.2717 149.619L79.3439 149.403ZM70.7526 171.906L75.6619 171.185V170.968L70.7526 171.69V171.906ZM70.897 173.349L75.8063 172.627V172.411L70.897 173.132V173.349ZM74.5068 167.29L74.7234 167.362L75.8063 162.53L75.5897 162.458L74.5068 167.29ZM77.0336 162.746L75.9507 167.579L76.1673 167.651L77.2502 162.818L77.0336 162.746ZM63.4608 154.163L61.5837 154.957C61.5837 155.029 61.6559 155.101 61.6559 155.173L63.533 154.308L63.4608 154.163ZM64.0384 155.462L62.0169 156.327C62.0169 156.399 62.0891 156.471 62.0891 156.543L64.1106 155.678L64.0384 155.462ZM70.536 151.062L71.9799 155.822L72.1965 155.75L70.7526 150.99L70.536 151.062ZM69.1643 151.495L70.6082 156.255L70.8248 156.183L69.3809 151.423L69.1643 151.495ZM58.2627 142.263L58.4071 142.407L62.3779 139.378L62.2335 139.233L58.2627 142.263ZM63.2442 140.604L63.0998 140.46L59.129 143.489L59.2734 143.633L63.2442 140.604ZM70.7526 165.054L66.2042 163.107L66.1321 163.323L70.6804 165.271L70.7526 165.054ZM66.6374 161.953L71.1858 163.9L71.258 163.684L66.7096 161.736L66.6374 161.953ZM90.1011 183.23L90.0289 183.446C90.1011 183.374 90.1733 183.374 90.1733 183.302L90.1011 183.23ZM90.7509 182.004L90.6787 182.22L91.184 182.509C91.2562 182.436 91.3284 182.436 91.3284 182.364L90.7509 182.004ZM82.5927 187.269C82.6649 187.269 82.7371 187.269 82.8093 187.269L83.0981 184.6H82.8815L82.5927 187.269ZM81.221 186.98C81.2932 186.98 81.3654 187.052 81.4376 187.052L81.7264 184.384H81.5098L81.221 186.98ZM86.4913 179.335H86.2747L84.8308 181.932L85.0474 182.004L86.4913 179.335ZM88.1518 179.335H87.9352L86.0581 182.653L86.2747 182.725L88.1518 179.335ZM80.2103 181.282L80.3547 181.138L78.8385 179.263H78.5498L80.2103 181.282ZM81.2932 180.417L81.4376 180.273L80.6434 179.335H80.3547L81.2932 180.417ZM74.1458 179.335L75.1565 182.22C75.3009 182.364 75.4453 182.509 75.5175 182.653L74.2902 179.335H74.1458Z" fill="white"/>
<path d="M133.996 103.171C133.996 103.171 122.3 101.512 116.886 105.046C111.471 108.58 84.6863 154.236 84.6863 154.236L69.8861 134.329L57.1074 140.099C57.1074 140.099 63.0997 163.323 70.1027 174.863C77.1057 186.403 81.0765 187.557 83.4589 187.197C90.6063 186.043 111.254 162.169 111.254 162.169L118.763 187.125L113.637 205.3H208.574L197.095 186.043C197.095 186.043 212.112 116.803 208.286 109.446C204.459 102.161 182.151 103.099 175.148 103.099C168.145 103.099 155.077 103.099 155.077 103.099C155.077 103.099 150.601 104.036 145.836 104.036C141.071 104.036 133.996 103.171 133.996 103.171Z" stroke="#141516" stroke-width="0.9853"/>
<path d="M111.254 162.169C111.254 162.169 106.778 154.163 108.222 144.426C109.594 134.69 115.658 124.087 115.658 124.087C115.658 124.087 103.674 141.397 103.674 147.167C103.674 152.937 107.211 161.376 107.211 161.376L104.107 170.247L111.254 162.169Z" fill="#141516" stroke="#141516" stroke-width="0.9853" stroke-miterlimit="10" stroke-linecap="round" stroke-linejoin="round"/>
<path d="M143.886 93.5782L144.175 103.748L135.584 104.036C135.584 104.036 133.851 141.397 141.431 148.105C149.084 154.813 172.187 103.099 172.187 103.099L164.245 101.512L161.719 80.812L143.886 93.5782Z" fill="#EDEFF7" stroke="#141516" stroke-width="0.9853" stroke-miterlimit="10" stroke-linecap="round" stroke-linejoin="round"/>
<path d="M162.657 84.9231L144.319 102.233V96.1025L162.657 84.9231Z" fill="#141516" stroke="#141516" stroke-width="0.9853" stroke-miterlimit="10" stroke-linecap="round" stroke-linejoin="round"/>
<path d="M141.504 148.105C141.504 148.105 142.442 142.118 147.063 134.257L141.504 148.105Z" fill="white"/>
<path d="M141.504 148.105C141.504 148.105 142.442 142.118 147.063 134.257" stroke="#141516" stroke-width="0.9853" stroke-miterlimit="10" stroke-linecap="round" stroke-linejoin="round"/>
<path d="M140.204 36.1665L119.268 57.9483C119.268 57.9483 121.867 64.656 121.65 72.3734C121.433 80.0908 128.436 91.4144 134.14 96.6796C139.843 101.945 151.539 93.8667 155.943 90.9817C160.275 88.0967 164.029 84.274 164.029 84.274C164.029 84.274 169.011 84.3462 171.826 79.5138C171.826 79.4416 141.432 46.9853 140.204 36.1665Z" fill="#EDEFF7" stroke="#141516" stroke-width="0.9853" stroke-miterlimit="10" stroke-linecap="round" stroke-linejoin="round"/>
<path d="M134.501 58.4531C134.501 58.4531 135.801 61.1218 135.873 63.1413C135.945 65.1608 132.407 74.6092 132.913 75.1862C133.418 75.8353 135.006 77.9269 136.234 77.6384" stroke="#141516" stroke-width="0.9853" stroke-miterlimit="10" stroke-linecap="round" stroke-linejoin="round"/>
<path d="M143.236 68.767C143.236 68.767 147.424 66.8918 152.405 68.6228" stroke="#141516" stroke-width="0.4927" stroke-miterlimit="10" stroke-linecap="round" stroke-linejoin="round"/>
<path d="M126.92 69.5605C126.92 69.5605 129.88 68.7671 131.757 68.9113" stroke="#141516" stroke-width="0.4927" stroke-miterlimit="10" stroke-linecap="round" stroke-linejoin="round"/>
<path d="M131.902 53.116C131.902 53.116 129.375 52.8275 127.57 54.847C125.765 56.9386 124.899 58.7417 124.393 57.2992C123.96 55.8567 125.982 53.116 126.703 52.539C127.425 52.0341 130.746 49.9425 131.902 53.116Z" fill="#141516"/>
<path d="M140.854 51.962C140.854 51.962 144.175 51.8177 146.99 53.4045C149.734 54.9191 148.434 51.8177 146.485 50.9522C144.535 50.0146 141.142 50.1588 140.854 51.962Z" fill="#141516"/>
<path d="M172.909 88.0967C173.053 90.2605 171.898 92.0636 170.454 92.1357C168.938 92.2078 167.638 90.549 167.494 88.3852C167.35 86.2214 168.288 80.6678 169.732 80.5957C171.248 80.5236 172.764 85.9329 172.909 88.0967Z" fill="#B5CEEE" stroke="#141516" stroke-width="0.9853" stroke-miterlimit="10" stroke-linecap="round" stroke-linejoin="round"/>
<path d="M131.035 65.6656C131.108 67.1081 130.602 68.2621 129.808 68.3343C129.014 68.4064 128.364 67.2524 128.22 65.882C128.148 64.4395 128.653 63.2855 129.447 63.2134C130.241 63.1412 130.963 64.2231 131.035 65.6656Z" fill="#141516"/>
<path d="M146.63 65.0887C146.702 66.5312 146.197 67.6852 145.403 67.7574C144.609 67.8295 143.959 66.6755 143.814 65.3051C143.742 63.8626 144.248 62.7086 145.042 62.6365C145.836 62.5643 146.486 63.6462 146.63 65.0887Z" fill="#141516"/>
<path d="M136.161 81.7496C136.161 81.7496 139.843 82.9036 144.825 78.6482" stroke="#141516" stroke-width="0.9853" stroke-miterlimit="10" stroke-linecap="round" stroke-linejoin="round"/>
<path d="M69.8853 134.329L63.1711 125.313C62.8823 122.933 62.2326 117.956 62.1604 114.639C62.016 110.095 62.2326 107.282 59.6335 103.315C57.0345 99.276 49.8149 92.929 49.1651 91.4144C48.5153 89.9718 46.4939 94.083 47.7212 96.8237C48.9485 99.5645 50.1037 100.358 50.1037 100.358C50.1037 100.358 36.8196 93.7945 36.4586 94.8042C36.0976 95.814 42.6675 114.855 45.6997 119.904C46.9992 121.995 50.4646 124.808 52.1251 127.188C53.1359 128.631 53.7856 129.929 54.2188 131.011C55.8071 137.719 57.612 145.076 58.5506 145.292C60.6443 145.941 69.5244 146.085 69.8853 134.329Z" fill="#EDEFF7" stroke="#141516" stroke-width="0.9853" stroke-miterlimit="10"/>
<path d="M51.0424 113.701C50.537 113.845 50.0317 113.557 49.8873 113.052L39.2745 74.0322C39.1301 73.5273 39.4189 73.0224 39.9242 72.8782C40.4296 72.7339 40.935 73.0225 41.0794 73.5273L51.6922 112.547C51.8366 112.98 51.5478 113.557 51.0424 113.701Z" fill="#141516" stroke="#141516" stroke-width="0.9853" stroke-miterlimit="10"/>
<path d="M43.3898 88.8179C43.3898 88.8179 33.2101 94.2273 33.8599 95.237C34.5097 96.3189 36.3868 100.069 37.1809 99.9252C38.0473 99.853 44.1839 94.8043 44.6893 94.1551C45.1225 93.5781 43.3898 88.8179 43.3898 88.8179Z" fill="#EDEFF7" stroke="#141516" stroke-width="0.9853" stroke-miterlimit="10"/>
<path d="M45.1944 95.4534C45.1944 95.4534 36.7475 101.656 36.9641 102.594C37.2528 103.531 41.368 114.278 42.09 115.144C42.8119 116.009 49.454 112.98 49.454 112.98L45.1944 95.4534Z" fill="#EDEFF7" stroke="#141516" stroke-width="0.9853" stroke-miterlimit="10"/>
<path d="M46.4939 101.223C46.4939 101.223 38.408 107.57 38.9134 107.787" stroke="#141516" stroke-width="0.9853" stroke-miterlimit="10"/>
<path d="M48.0101 108.147L41.2236 112.114" stroke="#141516" stroke-width="0.9853" stroke-miterlimit="10"/>
<path d="M50.1035 100.358L53.8577 104.036C53.8577 104.036 48.8762 114.639 53.6411 120.481" stroke="#141516" stroke-width="0.9853" stroke-miterlimit="10"/>
<path d="M197.671 105.407C197.671 105.407 206.768 104.253 210.667 111.682C214.637 119.183 239.112 185.394 239.473 191.741C239.834 198.015 223.301 199.602 217.742 196.861C212.183 194.121 196.805 161.376 195.217 157.048" fill="#4143EC"/>
<path d="M201.645 151.309L200.29 156.098L200.498 156.157L201.853 151.368L201.645 151.309Z" fill="white"/>
<path d="M203.664 137.791L202.293 133.031H202.076L203.52 137.863L203.664 137.791Z" fill="white"/>
<path d="M203.232 151.783L203.015 151.711L201.644 156.543L201.86 156.615L203.232 151.783Z" fill="white"/>
<path d="M205.108 148.61L201.932 144.715L201.787 144.859L204.964 148.754L205.108 148.61Z" fill="white"/>
<path d="M211.918 153.757L207.352 155.747L207.438 155.945L212.004 153.955L211.918 153.757Z" fill="white"/>
<path d="M211.462 159.5L211.318 159.356L208.646 163.612L208.791 163.684L211.462 159.5Z" fill="white"/>
<path d="M200.705 133.463L202.149 138.224L202.293 138.151L200.922 133.391L200.705 133.463Z" fill="white"/>
<path d="M207.419 162.818L207.636 162.963L210.307 158.707L210.09 158.635L207.419 162.818Z" fill="white"/>
<path d="M206.191 147.672L203.087 143.849L202.87 143.994L206.047 147.816L206.191 147.672Z" fill="white"/>
<path d="M211.01 138.77L207.027 141.76L207.157 141.933L211.14 138.943L211.01 138.77Z" fill="white"/>
<path d="M210.018 117.524L211.389 122.284L211.606 122.212L210.162 117.452L210.018 117.524Z" fill="white"/>
<path d="M210.234 137.791L210.09 137.574L206.119 140.604L206.264 140.748L210.234 137.791Z" fill="white"/>
<path d="M207.636 111.754L209.152 109.374C209.08 109.301 209.08 109.229 209.007 109.229L207.491 111.609L207.636 111.754Z" fill="white"/>
<path d="M203.231 120.769L203.448 120.914L206.48 116.947L206.264 116.802L203.231 120.769Z" fill="white"/>
<path d="M205.975 127.261L210.523 129.208L210.667 128.992L206.047 127.044L205.975 127.261Z" fill="white"/>
<path d="M211.317 117.163L212.761 121.923L212.978 121.851L211.534 117.091L211.317 117.163Z" fill="white"/>
<path d="M211.028 148.97L213.483 144.643L213.338 144.571L210.884 148.898L211.028 148.97Z" fill="white"/>
<path d="M205.51 128.371L205.426 128.57L210.012 130.513L210.096 130.314L205.51 128.371Z" fill="white"/>
<path d="M211.363 152.458L206.797 154.448L206.883 154.646L211.45 152.657L211.363 152.458Z" fill="white"/>
<path d="M222.652 197.006L222.58 197.222L224.89 198.232C225.107 198.232 225.251 198.232 225.468 198.232L222.652 197.006Z" fill="white"/>
<path d="M223.663 181.499L222.219 177.676L221.931 176.883L221.786 176.955L222.003 177.676L223.447 181.571L223.663 181.499Z" fill="white"/>
<path d="M218.826 185.394L222.003 189.216L222.147 189.072L219.043 185.249L218.826 185.394Z" fill="white"/>
<path d="M222.291 182.004L220.775 177.676L220.631 177.315L220.414 177.388L220.486 177.676L222.147 182.076L222.291 182.004Z" fill="white"/>
<path d="M223.735 170.752L218.754 171.473L218.826 171.618L223.735 170.969V170.752Z" fill="white"/>
<path d="M238.03 192.029L239.402 190.875C239.402 190.803 239.402 190.731 239.33 190.659L237.886 191.885L238.03 192.029Z" fill="white"/>
<path d="M202.148 119.904L202.293 120.048L205.325 116.081L205.181 115.937L202.148 119.904Z" fill="white"/>
<path d="M196.464 146.048L196.261 146.122L197.952 150.803L198.156 150.729L196.464 146.048Z" fill="white"/>
<path d="M237.092 190.947L238.969 189.288C238.969 189.216 238.897 189.144 238.897 189.072L236.947 190.803L237.092 190.947Z" fill="white"/>
<path d="M223.302 188.206L220.126 184.384L219.981 184.456L223.086 188.351L223.302 188.206Z" fill="white"/>
<path d="M197.388 133.279L197.099 138.247L197.315 138.259L197.604 133.291L197.388 133.279Z" fill="white"/>
<path d="M218.606 149.311L218.398 149.374L219.833 154.139L220.041 154.077L218.606 149.311Z" fill="white"/>
<path d="M215.979 135.295L215.775 135.369L217.466 140.05L217.67 139.977L215.979 135.295Z" fill="white"/>
<path d="M215.216 126.467L214.494 129.208H214.711L215.433 126.467L215.938 124.448L215.721 124.375L215.216 126.467Z" fill="white"/>
<path d="M213.7 126.467L213.122 128.847L213.339 128.919L213.916 126.467L214.566 124.087L214.349 124.015L213.7 126.467Z" fill="white"/>
<path d="M217.021 149.836L218.464 154.596L218.681 154.524L217.237 149.764L217.021 149.836Z" fill="white"/>
<path d="M214.584 135.741L214.38 135.814L216.072 140.495L216.275 140.422L214.584 135.741Z" fill="white"/>
<path d="M197.767 145.56L197.563 145.634L199.254 150.315L199.458 150.242L197.767 145.56Z" fill="white"/>
<path d="M208.791 112.547L210.018 110.6C209.946 110.528 209.946 110.455 209.874 110.383L208.574 112.403L208.791 112.547Z" fill="white"/>
<path d="M214.494 160.294L219.115 162.241L219.187 162.025L214.566 160.078L214.494 160.294Z" fill="white"/>
<path d="M201.932 108.869L201.715 108.724L199.261 113.052L199.405 113.196L201.932 108.869Z" fill="white"/>
<path d="M235.648 178.397C235.648 178.325 235.576 178.253 235.576 178.109L233.915 180.922L234.132 180.994L235.648 178.397Z" fill="white"/>
<path d="M231.027 182.941L230.81 182.869L230.232 187.846H230.449L231.027 182.941Z" fill="white"/>
<path d="M228.227 169.238L228.143 169.437L232.729 171.38L232.813 171.181L228.227 169.238Z" fill="white"/>
<path d="M234.42 177.676L235.07 176.594C235.07 176.522 234.998 176.45 234.998 176.306L234.204 177.676L232.76 180.273L232.976 180.345L234.42 177.676Z" fill="white"/>
<path d="M231.387 191.236L231.243 191.164L228.066 194.986L228.283 195.13L231.387 191.236Z" fill="white"/>
<path d="M232.615 169.526L228.789 167.939L228.717 168.156L232.688 169.814C232.688 169.742 232.688 169.598 232.615 169.526Z" fill="white"/>
<path d="M230.304 190.37L230.088 190.226L226.983 194.121L227.128 194.265L230.304 190.37Z" fill="white"/>
<path d="M225.107 161.087H224.891L223.808 165.92H224.024L225.107 161.087Z" fill="white"/>
<path d="M228.067 179.623L228.212 179.479L226.696 177.676L225.107 175.656L224.891 175.801L226.407 177.676L228.067 179.623Z" fill="white"/>
<path d="M200.488 113.773L200.633 113.917L203.16 109.59L202.943 109.446L200.488 113.773Z" fill="white"/>
<path d="M214.598 186.948L214.395 187.022L216.086 191.703L216.29 191.63L214.598 186.948Z" fill="white"/>
<path d="M233.41 195.852L233.193 195.78L232.832 197.294C232.904 197.294 232.976 197.222 233.049 197.222L233.41 195.852Z" fill="white"/>
<path d="M215.969 186.438L215.766 186.511L217.456 191.193L217.66 191.12L215.969 186.438Z" fill="white"/>
<path d="M222.58 146.013L224.457 146.807C224.457 146.734 224.385 146.59 224.385 146.518L222.652 145.797L222.58 146.013Z" fill="white"/>
<path d="M234.781 196.212L234.564 196.14L234.42 196.789C234.492 196.789 234.564 196.717 234.637 196.717L234.781 196.212Z" fill="white"/>
<path d="M210.09 181.499L206.336 179.912C206.408 179.984 206.408 180.128 206.48 180.2L210.018 181.715L210.09 181.499Z" fill="white"/>
<path d="M197.167 116.658L199.622 119.255L199.766 119.11L197.167 116.37V116.658Z" fill="white"/>
<path d="M218.826 134.185L220.487 136.276C220.414 136.06 220.342 135.843 220.27 135.627L218.971 134.04L218.826 134.185Z" fill="white"/>
<path d="M198.611 120.192L198.755 120.048L197.095 118.317V118.606L198.611 120.192Z" fill="white"/>
<path d="M225.974 153.442L227.418 158.202L227.634 158.13L226.19 153.37L225.974 153.442Z" fill="white"/>
<path d="M210.667 180.201L206.047 178.253L205.975 178.397L210.523 180.345L210.667 180.201Z" fill="white"/>
<path d="M205.325 167.29L205.181 167.146L202.148 171.041L202.293 171.185L205.325 167.29Z" fill="white"/>
<path d="M211.534 168.217L211.326 168.279L212.761 173.045L212.968 172.982L211.534 168.217Z" fill="white"/>
<path d="M211.606 173.421L210.162 168.66L210.018 168.733L211.389 173.493L211.606 173.421Z" fill="white"/>
<path d="M206.48 168.083L206.264 168.011L203.231 171.906L203.448 172.05L206.48 168.083Z" fill="white"/>
<path d="M199.188 128.775L199.405 128.847L200.055 126.467L200.705 124.087L200.56 124.015L199.838 126.467L199.188 128.775Z" fill="white"/>
<path d="M198.322 126.467L197.816 128.415L198.033 128.487L198.538 126.467L199.333 123.726L199.188 123.654L198.322 126.467Z" fill="white"/>
<path d="M201.932 160.005L201.715 159.933L199.261 164.261L199.405 164.333L201.932 160.005Z" fill="white"/>
<path d="M203.16 160.727L202.943 160.655L200.488 164.982L200.633 165.054L203.16 160.727Z" fill="white"/>
<path d="M214.566 145.292L212.111 149.547L212.256 149.691L214.783 145.364L214.566 145.292Z" fill="white"/>
<path d="M223.518 160.727L222.436 165.559L222.652 165.631L223.735 160.799L223.518 160.727Z" fill="white"/>
<path d="M225.035 148.393L222.075 147.167L222.003 147.384L225.107 148.682C225.107 148.538 225.107 148.465 225.035 148.393Z" fill="white"/>
<path d="M223.519 169.526V169.31L218.609 170.031V170.247L223.519 169.526Z" fill="white"/>
<path d="M226.19 174.791L225.974 174.863L228.284 177.676L229.15 178.758L229.295 178.614L228.573 177.676L226.19 174.791Z" fill="white"/>
<path d="M215.433 177.676L215.938 175.585L215.721 175.512L215.216 177.676L214.494 180.345L214.711 180.417L215.433 177.676Z" fill="white"/>
<path d="M214.028 161.427L213.943 161.626L218.529 163.569L218.614 163.37L214.028 161.427Z" fill="white"/>
<path d="M213.916 177.676L214.566 175.224L214.349 175.152L213.7 177.676L213.122 179.984L213.339 180.056L213.916 177.676Z" fill="white"/>
<path d="M229.006 187.701L229.583 182.725H229.367L228.789 187.701H229.006Z" fill="white"/>
<path d="M197.671 105.407C197.671 105.407 206.768 104.253 210.667 111.682C214.637 119.183 239.112 185.394 239.473 191.741C239.834 198.015 223.301 199.602 217.742 196.861C212.183 194.121 196.805 161.376 195.217 157.048" stroke="#141516" stroke-width="0.9853"/>
<path d="M142.803 195.708C142.803 195.708 124.249 193.327 121.072 193.76C117.895 194.121 103.673 203.641 103.673 203.641H143.958L142.803 195.708Z" fill="#EDEFF7" stroke="#141516" stroke-width="0.9853" stroke-miterlimit="10" stroke-linecap="round" stroke-linejoin="round"/>
<path d="M219.403 183.086L142.803 195.707L143.958 203.569H238.318C238.318 203.569 239.473 197.655 239.473 191.741C239.473 185.826 235.935 179.119 235.935 179.119" fill="#4143EC"/>
<path d="M225.684 196.068L227.128 200.828L227.344 200.756L225.9 195.996L225.684 196.068Z" fill="white"/>
<path d="M230.954 182.581L227.85 186.475L227.994 186.62L231.098 182.725L230.954 182.581Z" fill="white"/>
<path d="M226.694 185.61L226.911 185.754L230.015 181.859L229.871 181.715L226.694 185.61Z" fill="white"/>
<path d="M216.731 192.462L218.175 197.222L218.392 197.15L216.948 192.39L216.731 192.462Z" fill="white"/>
<path d="M228.716 200.396L227.272 195.635L227.056 195.707L228.5 200.468L228.716 200.396Z" fill="white"/>
<path d="M218.328 192.015L218.121 192.077L219.556 196.843L219.763 196.781L218.328 192.015Z" fill="white"/>
<path d="M232.908 187.273L231.682 192.096L231.892 192.149L233.118 187.326L232.908 187.273Z" fill="white"/>
<path d="M232.037 203.569H232.254L233.337 199.891L233.12 199.819L232.037 203.569Z" fill="white"/>
<path d="M214.348 202.776L214.204 202.92L215.72 203.569H216.226L214.348 202.776Z" fill="white"/>
<path d="M234.303 187.605L233.075 192.429L233.285 192.482L234.513 187.659L234.303 187.605Z" fill="white"/>
<path d="M197.498 188.26L197.294 188.333L198.985 193.015L199.188 192.941L197.498 188.26Z" fill="white"/>
<path d="M221.713 190.01L226.333 191.957L226.406 191.741L221.785 189.793L221.713 190.01Z" fill="white"/>
<path d="M223.229 203.425V203.569H223.445V203.425H223.229Z" fill="white"/>
<path d="M222.373 188.451L222.288 188.65L226.874 190.593L226.959 190.394L222.373 188.451Z" fill="white"/>
<path d="M201.498 187.557L204.675 191.38L204.819 191.236L201.642 187.413L201.498 187.557Z" fill="white"/>
<path d="M205.902 190.37L202.798 186.475L202.581 186.62L205.758 190.514L205.902 190.37Z" fill="white"/>
<path d="M236.802 182.436L237.235 182.076C237.235 182.004 237.163 181.932 237.163 181.859L236.657 182.292L236.802 182.436Z" fill="white"/>
<path d="M201.331 193.973L199.972 198.76L200.18 198.82L201.539 194.032L201.331 193.973Z" fill="white"/>
<path d="M237.74 192.678L239.473 193.039C239.473 192.967 239.473 192.895 239.473 192.823L237.74 192.462V192.678Z" fill="white"/>
<path d="M211.027 202.054L210.089 203.569H210.305L211.244 202.127L211.027 202.054Z" fill="white"/>
<path d="M239.401 194.265L237.452 193.832L237.38 194.048L239.401 194.481C239.401 194.409 239.401 194.337 239.401 194.265Z" fill="white"/>
<path d="M237.74 183.518C237.74 183.374 237.74 183.302 237.74 183.23L237.596 183.302L237.74 183.518Z" fill="white"/>
<path d="M211.063 195.15L206.497 197.139L206.584 197.338L211.15 195.349L211.063 195.15Z" fill="white"/>
<path d="M210.017 201.405L209.8 201.261L208.356 203.569H208.645L210.017 201.405Z" fill="white"/>
<path d="M202.764 194.355L201.405 199.143L201.614 199.202L202.973 194.414L202.764 194.355Z" fill="white"/>
<path d="M211.645 196.46L207.079 198.449L207.166 198.648L211.732 196.658L211.645 196.46Z" fill="white"/>
<path d="M214.494 187.99L214.277 187.918L211.822 192.245L212.039 192.317L214.494 187.99Z" fill="white"/>
<path d="M210.595 191.524L210.739 191.596L213.266 187.341L213.049 187.197L210.595 191.524Z" fill="white"/>
<path d="M159.904 195.139L155.338 197.13L155.425 197.328L159.991 195.338L159.904 195.139Z" fill="white"/>
<path d="M150.383 202.704L150.239 202.559L149.661 203.569H149.878L150.383 202.704Z" fill="white"/>
<path d="M149.012 198.881L150.239 194.481H150.022L148.795 198.809L149.012 198.881Z" fill="white"/>
<path d="M151.683 203.353L151.467 203.281L151.322 203.569H151.539L151.683 203.353Z" fill="white"/>
<path d="M175.652 190.587L175.724 190.442L175.507 190.298L175.074 190.37L175.652 190.587Z" fill="white"/>
<path d="M180.85 203.569H181.066L182.077 199.891L181.933 199.819L180.85 203.569Z" fill="white"/>
<path d="M182.727 189.144L181.86 192.462L182.077 192.534L182.943 189.072L182.727 189.144Z" fill="white"/>
<path d="M158.758 201.405L158.614 201.261L157.17 203.569H157.387L158.758 201.405Z" fill="white"/>
<path d="M159.985 202.127L159.841 202.054L158.83 203.569H159.119L159.985 202.127Z" fill="white"/>
<path d="M202.653 203.281L202.509 203.569H202.798L202.87 203.353L202.653 203.281Z" fill="white"/>
<path d="M234.491 200.179L233.553 203.569H233.769L234.708 200.251L234.491 200.179Z" fill="white"/>
<path d="M196.171 188.678L195.967 188.752L197.659 193.433L197.862 193.359L196.171 188.678Z" fill="white"/>
<path d="M183.305 200.179L182.294 203.569H182.511L183.449 200.251L183.305 200.179Z" fill="white"/>
<path d="M163.09 202.776L163.018 202.92L164.461 203.569H165.039L163.09 202.776Z" fill="white"/>
<path d="M201.643 202.704L201.426 202.559L200.849 203.569H201.137L201.643 202.704Z" fill="white"/>
<path d="M151.529 194.405L150.174 199.194L150.382 199.252L151.737 194.463L151.529 194.405Z" fill="white"/>
<path d="M191.535 197.727L191.319 197.655L189.514 202.271L189.658 202.343L191.535 197.727Z" fill="white"/>
<path d="M160.39 196.451L155.824 198.44L155.911 198.638L160.477 196.649L160.39 196.451Z" fill="white"/>
<path d="M192.834 198.232L192.617 198.16L190.812 202.776L191.029 202.848L192.834 198.232Z" fill="white"/>
<path d="M186.192 194.048L188.43 194.553L191.102 195.13V194.914L188.43 194.337L186.265 193.832L186.192 194.048Z" fill="white"/>
<path d="M191.391 193.76L191.463 193.544L188.431 192.895L186.554 192.462V192.678L188.431 193.111L191.391 193.76Z" fill="white"/>
<path d="M180.706 192.173L181.428 189.36H181.211L180.489 192.101L180.706 192.173Z" fill="white"/>
<path d="M175.219 191.74L172.837 190.731L172.476 190.803L175.075 191.957L175.219 191.74Z" fill="white"/>
<path d="M167.135 192.031L166.928 192.093L168.358 196.86L168.565 196.798L167.135 192.031Z" fill="white"/>
<path d="M167.204 197.15L165.761 192.39L165.544 192.462L166.988 197.222L167.204 197.15Z" fill="white"/>
<path d="M174.497 196.068L175.941 200.828L176.158 200.756L174.714 195.996L174.497 196.068Z" fill="white"/>
<path d="M172.042 203.425L171.97 203.569H172.186L172.259 203.425H172.042Z" fill="white"/>
<path d="M177.529 200.396L176.085 195.635L175.868 195.707L177.312 200.468L177.529 200.396Z" fill="white"/>
<path d="M219.403 183.086L142.803 195.707L143.958 203.569H238.318C238.318 203.569 239.473 197.655 239.473 191.741C239.473 185.826 235.935 179.119 235.935 179.119" stroke="#141516" stroke-width="0.9853"/>
<path d="M236.225 202.271H141.071L137.966 150.052C137.605 147.889 139.266 145.941 141.504 145.941H235.864C238.03 145.941 239.763 147.889 239.402 150.052L236.225 202.271Z" fill="#141516" stroke="#141516" stroke-width="0.9853" stroke-miterlimit="10" stroke-linecap="round" stroke-linejoin="round"/>
<path d="M145.764 147.167H235.142C237.308 147.167 238.969 149.115 238.608 151.206" stroke="white" stroke-width="0.9853" stroke-miterlimit="10" stroke-linecap="round" stroke-linejoin="round"/>
<path d="M138.688 150.341C138.833 148.61 140.277 147.167 142.154 147.167" stroke="white" stroke-width="0.9853" stroke-miterlimit="10" stroke-linecap="round" stroke-linejoin="round"/>
<path d="M236.586 197.222H140.638V202.343H236.586V197.222Z" fill="white" stroke="#141516" stroke-width="0.9853" stroke-miterlimit="10" stroke-linecap="round" stroke-linejoin="round"/>
<path d="M195.074 174.286C195.074 176.522 192.042 178.325 188.287 178.325C184.533 178.325 181.501 176.522 181.501 174.286C181.501 172.05 184.533 170.247 188.287 170.247C192.042 170.247 195.074 172.05 195.074 174.286Z" fill="white" stroke="#141516" stroke-width="0.9853" stroke-miterlimit="10" stroke-linecap="round" stroke-linejoin="round"/>
<path d="M46.4223 197.006C44.112 197.006 41.5852 196.068 40.5744 195.635C39.5637 195.203 39.0583 193.976 39.4915 192.967C39.9247 191.957 41.152 191.452 42.1627 191.885C44.0398 192.678 46.4223 193.183 47.0721 192.894C48.2272 191.596 50.0321 183.59 47.7218 179.84C47.2164 178.974 46.7111 178.83 46.3501 178.758C45.0506 178.542 43.0291 179.912 42.3793 180.561C41.5852 181.354 40.2856 181.282 39.5637 180.489C38.7695 179.696 38.8417 178.397 39.6359 177.604C39.9969 177.243 43.3179 174.214 46.9277 174.719C48.155 174.863 49.8877 175.512 51.1872 177.676C54.6526 183.302 52.2702 193.904 49.5989 195.996C48.7326 196.789 47.6496 197.006 46.4223 197.006Z" fill="#141516" stroke="#141516" stroke-width="0.9853" stroke-miterlimit="10" stroke-linecap="round" stroke-linejoin="round"/>
<path d="M42.8125 173.204H20.5762V202.704H42.8125V173.204Z" fill="#141516" stroke="#141516" stroke-width="0.9853" stroke-miterlimit="10" stroke-linecap="round" stroke-linejoin="round"/>
<path d="M22.5977 171.546C22.5977 171.546 22.5977 169.093 27.146 166.641C31.6943 164.189 34.149 160.51 31.6943 153.514C29.2397 146.518 29.6729 141.614 34.5822 137.502" stroke="#141516" stroke-width="0.9853" stroke-miterlimit="10" stroke-linecap="round" stroke-linejoin="round"/>
<path d="M23.6807 145.364C23.8973 142.335 25.269 139.811 28.0124 137.575" stroke="#141516" stroke-width="0.9853" stroke-miterlimit="10" stroke-linecap="round" stroke-linejoin="round"/>
<path d="M25.1249 153.514C24.6196 152.144 24.2586 150.918 24.042 149.692" stroke="#141516" stroke-width="0.9853" stroke-miterlimit="10" stroke-linecap="round" stroke-linejoin="round"/>
<path d="M40.9355 155.894C40.7912 155.173 40.5746 154.308 40.2858 153.514C40.1414 153.154 39.997 152.793 39.9248 152.432" stroke="#141516" stroke-width="0.9853" stroke-miterlimit="10" stroke-linecap="round" stroke-linejoin="round"/>
<path d="M31.2607 171.546C31.2607 171.546 31.2607 169.093 35.8091 166.641C38.7691 165.054 40.8628 162.891 41.2238 159.645" stroke="#141516" stroke-width="0.9853" stroke-miterlimit="10" stroke-linecap="round" stroke-linejoin="round"/>
<path d="M336 202.199H0V209.628H336V202.199Z" fill="#141516"/>
<path d="M298 17.3723H209C207.895 17.3723 207 18.2677 207 19.3723V51.3723C207 52.4769 207.895 53.3723 209 53.3723H298C299.105 53.3723 300 52.4769 300 51.3723V19.3723C300 18.2677 299.105 17.3723 298 17.3723Z" stroke="#263238" stroke-miterlimit="10" stroke-linecap="round" stroke-linejoin="round"/>
<path d="M215 28.1702H254.454" stroke="#D3D4E1" stroke-width="2" stroke-miterlimit="10" stroke-linecap="round" stroke-linejoin="round"/>
<path d="M215 35.0298H254.454" stroke="#D3D4E1" stroke-width="2" stroke-miterlimit="10" stroke-linecap="round" stroke-linejoin="round"/>
<path d="M215 43.0156H254.454" stroke="#D3D4E1" stroke-width="2" stroke-miterlimit="10" stroke-linecap="round" stroke-linejoin="round"/>
<rect x="267" y="23.3723" width="23" height="23" rx="11.5" stroke="#6985D1" stroke-width="2"/>
<path d="M272.958 36.4556L275.729 39.2264L284.041 30.5181" stroke="#6985D1" stroke-width="2" stroke-linecap="round" stroke-linejoin="round"/>
</svg>
