<svg width="336" height="210" viewBox="0 0 336 210" fill="none" xmlns="http://www.w3.org/2000/svg">
<path d="M148.052 35.9963L150.416 41.3494" stroke="#141516" stroke-width="2" stroke-miterlimit="10"/>
<path d="M135.642 9.23108L146.279 32.4276" stroke="#141516" stroke-width="2" stroke-miterlimit="10"/>
<path d="M219.559 12.205L193.557 43.7284" stroke="#141516" stroke-width="2" stroke-miterlimit="10"/>
<path d="M229.015 50.8658L216.014 59.1928" stroke="#141516" stroke-width="2" stroke-miterlimit="10"/>
<path d="M233.152 48.4867L231.379 49.6763" stroke="#141516" stroke-width="2" stroke-miterlimit="10"/>
<path d="M101.365 51.4607L117.321 62.7616" stroke="#141516" stroke-width="2" stroke-miterlimit="10"/>
<path d="M110.211 155.991L92.3652 169.568" stroke="#141516" stroke-width="2" stroke-miterlimit="10"/>
<path d="M120.999 187.953L113.095 200.156" stroke="#141516" stroke-width="2" stroke-miterlimit="10"/>
<path d="M129.449 174.781L122.838 185.085" stroke="#141516" stroke-width="2" stroke-miterlimit="10"/>
<path d="M180.401 177.205L181.545 199.267" stroke="#141516" stroke-width="2" stroke-miterlimit="10"/>
<path d="M242.986 191.954L246.565 196.56" stroke="#141516" stroke-width="2" stroke-miterlimit="10"/>
<path d="M222.406 165.729L240.401 188.64" stroke="#141516" stroke-width="2" stroke-miterlimit="10"/>
<path d="M240.799 129.955L236.772 122.309L243.98 120.76L240.799 129.955Z" fill="#141516" stroke="#141516" stroke-miterlimit="10"/>
<path d="M234.088 62.6909L164.196 72.0859L169.416 122.609L244.975 124.758C244.975 124.808 250.195 82.7303 234.088 62.6909Z" fill="white" stroke="#141516" stroke-miterlimit="10"/>
<path d="M105.191 73.0355C105.191 73.0355 107.03 74.0849 114.387 72.8356C121.744 71.5862 134.669 68.0881 138.148 67.4884C141.628 66.8887 152.912 67.8882 155.944 69.7372C158.977 71.5862 176.226 82.0807 182.142 84.3295C188.057 86.5783 196.06 90.5262 200.982 93.5746C205.903 96.6729 234.586 116.213 234.586 116.213C234.586 116.213 239.507 120.56 240.302 124.258C241.098 127.956 239.507 132.504 236.226 133.503C232.945 134.553 228.869 134.953 228.869 134.953C228.869 134.953 228.869 141.749 225.986 145.247C222.258 149.895 216.789 150.394 216.789 150.394C216.789 150.394 214.105 156.141 210.625 157.591C207.146 159.04 202.423 160.289 202.423 160.289C202.423 160.289 201.379 165.636 195.862 167.086C190.344 168.535 184.18 167.485 181.545 166.686C178.861 165.886 183.981 165.636 168.869 159.889C153.707 154.142 123.832 143.848 112.945 139.7C102.109 135.602 96.541 129.805 96.541 129.805L105.191 73.0355Z" fill="#EDEFF7" stroke="#141516" stroke-miterlimit="10"/>
<path d="M104.892 92.4252L104.245 134.803L98.7773 132.404L104.892 92.4252Z" fill="#141516" stroke="#141516" stroke-miterlimit="10"/>
<path d="M191.188 111.115L195.911 115.863L228.869 135.003" stroke="#141516" stroke-miterlimit="10"/>
<path d="M191.387 136.952C198.943 141.349 212.265 149.095 213.309 149.395C214.75 149.795 216.789 150.445 216.789 150.445" stroke="#141516" stroke-miterlimit="10"/>
<path d="M186.317 133.953C186.317 133.953 187.411 134.603 189.151 135.602" stroke="#141516" stroke-miterlimit="10"/>
<path d="M171.354 146.097C171.354 146.097 185.472 152.893 191.437 156.591C197.353 160.289 202.473 160.289 202.473 160.289" stroke="#141516" stroke-miterlimit="10"/>
<path d="M224.445 139.75C224.445 139.75 223.6 146.446 218.479 147.896" stroke="#141516" stroke-miterlimit="10"/>
<path d="M229.515 115.863C229.515 115.863 230.46 120.66 227.378 124.508C224.296 128.356 223.103 128.656 223.103 128.656" stroke="#141516" stroke-miterlimit="10"/>
<path d="M226.731 116.163C226.731 116.163 225.787 121.26 224.146 123.559" stroke="#141516" stroke-miterlimit="10"/>
<path d="M222.605 119.411C222.605 119.411 220.915 123.409 221.064 126.057" stroke="#141516" stroke-miterlimit="10"/>
<path d="M223.55 137.751C223.55 137.751 220.17 139.9 218.927 143.298" stroke="#141516" stroke-miterlimit="10"/>
<path d="M207.294 149.795C207.294 149.795 205.903 155.592 203.467 157.091" stroke="#141516" stroke-miterlimit="10"/>
<path d="M206.25 148.296C206.25 148.296 204.311 153.743 203.715 154.193" stroke="#141516" stroke-miterlimit="10"/>
<path d="M72.5801 169.984L84.6596 138.051L79.1418 135.452L72.5801 169.984Z" fill="#141516" stroke="#141516" stroke-miterlimit="10"/>
<path d="M95.5963 71.5863L106.035 71.7862C106.682 71.7862 107.228 72.3859 107.129 73.0355L100.567 141.699C100.518 142.199 100.07 142.549 99.5731 142.449L77.9492 137.701L95.5963 71.5863Z" fill="white" stroke="#141516" stroke-miterlimit="10"/>
<path d="M96.143 83.1801L83.2184 138.151L79.4404 137.002L96.143 83.1801Z" fill="#141516" stroke="#141516" stroke-miterlimit="10"/>
<path d="M98.4299 69.1375L43.6992 51.6968V162.288L70.8906 171.383C71.6362 171.633 72.4316 171.233 72.6304 170.484L99.3744 70.7867C99.5235 70.087 99.1258 69.3874 98.4299 69.1375Z" fill="#6985D1" stroke="#141516" stroke-miterlimit="10"/>
<path d="M56.1267 166.236L44.0472 123.259L43.6992 162.288L56.1267 166.236Z" fill="#141516" stroke="#141516" stroke-miterlimit="10"/>
<path d="M251.04 147.846L243.583 128.206L258.595 123.259C258.595 123.259 254.569 140.949 252.034 147.196C251.735 147.996 251.338 148.645 251.04 147.846Z" fill="#141516" stroke="#141516" stroke-miterlimit="10"/>
<path d="M226.98 61.5415C225.986 61.7914 225.489 62.9408 226.035 63.8403C228.372 67.8882 234.039 78.7824 238.264 95.9733C243.086 115.463 241.346 127.357 240.849 129.955C240.799 130.205 240.998 130.455 241.296 130.405L255.613 128.456C255.613 128.456 256.856 89.9265 248.703 75.2843C240.6 60.642 238.562 58.4932 238.562 58.4932L226.98 61.5415Z" fill="white" stroke="#141516" stroke-miterlimit="10"/>
<path d="M239.557 76.1838C239.557 76.1838 246.467 88.977 247.908 105.118C249.3 120.91 248.604 128.656 248.604 128.656L253.376 127.806C253.376 127.806 257.005 110.066 252.382 94.8239C247.759 79.582 239.209 73.1354 239.209 73.1354L239.557 76.1838Z" fill="#141516" stroke="#141516" stroke-miterlimit="10"/>
<path d="M292.001 37.3544L230.161 58.2933C229.167 58.6431 228.869 59.8425 229.515 60.642C233.442 65.3395 242.191 80.2816 246.218 96.3731C250.542 113.764 251.437 141.399 251.04 147.796C250.99 148.445 251.586 148.945 252.233 148.795L292.001 139.35V37.3544Z" fill="#4143EC" stroke="#141516" stroke-miterlimit="10"/>
<path d="M286.333 140.9L291.901 102.42L292 139.4L286.333 140.9Z" fill="#141516" stroke="#141516" stroke-miterlimit="10"/>
<path d="M141.081 137.251C141.081 137.251 131.089 147.496 130.244 152.044C129.399 156.591 131.586 159.14 135.364 161.239C139.142 163.338 142.672 162.588 144.412 161.339C146.102 160.089 153.061 148.845 153.31 145.247C153.558 141.699 152.315 139.25 149.184 137.651C146.002 136.052 144.014 135.352 141.081 137.251Z" fill="white" stroke="#141516" stroke-miterlimit="10"/>
<path d="M156.79 140.8C156.79 140.8 146.848 155.941 145.903 157.99C144.909 160.039 148.836 166.036 153.36 167.186C157.884 168.335 161.363 167.086 161.86 166.736C162.407 166.386 167.378 150.494 167.527 149.345C167.726 148.196 168.422 144.797 165.042 142.149C161.662 139.45 158.182 139.75 156.79 140.8Z" fill="white" stroke="#141516" stroke-miterlimit="10"/>
<path d="M119.855 137.351C118.712 137.651 117.718 138.501 117.32 139.65C116.922 140.75 116.475 142.199 116.425 143.498C116.326 145.947 119.606 149.745 122.042 151.094C124.478 152.443 127.162 152.193 130.344 150.344C133.525 148.495 131.785 143.848 130.095 141.649C128.505 139.65 125.273 135.952 119.855 137.351Z" fill="white" stroke="#141516" stroke-miterlimit="10"/>
<path d="M119.905 142.898L128.107 149.095C128.107 149.095 125.771 149.695 123.782 149.395C121.794 149.045 119.457 147.596 119.557 144.697" stroke="#141516" stroke-miterlimit="10"/>
<path d="M142.821 139.75C142.821 139.75 141.131 140.5 140.236 143.048C139.341 145.597 140.286 147.796 142.175 149.145C144.014 150.544 147.245 150.244 148.687 148.995C150.128 147.746 150.824 146.097 150.824 146.097C150.824 146.097 150.824 143.598 148.14 141.349C145.456 139.1 143.467 139.55 143.467 139.55" stroke="#141516" stroke-miterlimit="10"/>
<path d="M157.535 143.648C157.535 143.648 154.304 148.595 155 150.294C155.696 151.994 158.827 153.942 160.07 153.743C161.313 153.543 164.842 149.845 165.041 148.945C165.24 148.046 162.009 145.247 160.667 144.498C159.275 143.748 158.827 143.748 158.827 143.748" stroke="#141516" stroke-miterlimit="10"/>
<path d="M176.673 152.693C176.673 152.693 179.457 155.742 179.705 158.79C179.954 161.838 179.854 163.238 180.103 163.737C180.351 164.237 181.644 166.736 181.644 166.736L178.711 167.135L175.679 163.437L176.673 152.693Z" fill="#141516" stroke="#141516" stroke-miterlimit="10"/>
<path d="M169.117 148.645C169.117 148.645 167.328 149.345 166.184 152.843C165.041 156.341 160.666 163.737 161.859 165.836C163.003 167.985 166.184 169.934 168.769 170.634C171.354 171.333 175.331 170.734 177.568 169.634C179.805 168.585 180.65 166.336 180.65 166.336C180.65 166.336 180.053 165.087 178.86 164.387C177.717 163.687 177.717 163.687 177.717 163.687C177.717 163.687 178.761 155.492 176.275 151.744C173.79 148.046 170.708 147.946 169.117 148.645Z" fill="white" stroke="#141516" stroke-miterlimit="10"/>
<path d="M168.122 151.094C168.122 151.094 169.216 150.694 171.453 152.743C173.69 154.792 172.944 156.441 172.944 156.441C172.944 156.441 171.254 159.39 169.812 159.689C168.371 159.989 165.14 160.089 165.587 156.791" stroke="#141516" stroke-miterlimit="10"/>
<path d="M177.717 163.687C177.717 163.687 176.921 166.436 175.679 167.885" stroke="#141516" stroke-miterlimit="10"/>
<path d="M143.368 89.6767C141.877 91.3258 147.891 89.8766 153.906 83.38C156.094 80.9813 174.735 79.0823 174.287 80.6814L170.012 78.7824C170.012 78.7824 163.5 78.3827 158.43 79.1822C153.36 79.9818 146.45 84.4294 146.45 84.4294L143.368 89.6767Z" fill="#141516" stroke="#141516" stroke-miterlimit="10"/>
<path d="M174.933 79.632H172.001C172.001 79.632 164.345 79.7819 162.953 80.2316C161.561 80.6814 151.769 82.5304 150.526 83.9297C149.283 85.3289 141.926 91.6256 136.11 91.9254C130.294 92.2253 125.373 89.4767 124.478 87.9276C123.533 86.3784 126.317 83.1301 128.007 81.6309C129.697 80.0817 137.651 70.9865 139.192 67.5883C140.733 64.1901 146.4 63.5905 150.228 63.1407C154.055 62.6909 169.068 57.8935 169.068 57.8935C169.068 57.8935 172.895 56.0445 180.103 57.5936C187.311 59.1428 195.762 60.1923 200.783 61.2917C205.853 62.3911 208.736 63.2906 215.646 65.7393C222.556 68.188 226.085 73.885 226.831 76.5336" fill="white"/>
<path d="M174.933 79.632H172.001C172.001 79.632 164.345 79.7819 162.953 80.2316C161.561 80.6814 151.769 82.5304 150.526 83.9297C149.283 85.3289 141.926 91.6256 136.11 91.9254C130.294 92.2253 125.373 89.4767 124.478 87.9276C123.533 86.3784 126.317 83.1301 128.007 81.6309C129.697 80.0817 137.651 70.9865 139.192 67.5883C140.733 64.1901 146.4 63.5905 150.228 63.1407C154.055 62.6909 169.068 57.8935 169.068 57.8935C169.068 57.8935 172.895 56.0445 180.103 57.5936C187.311 59.1428 195.762 60.1923 200.783 61.2917C205.853 62.3911 208.736 63.2906 215.646 65.7393C222.556 68.188 226.085 73.885 226.831 76.5336" stroke="#141516" stroke-miterlimit="10"/>
<path d="M151.322 73.785C151.322 73.785 153.608 80.5814 150.576 83.9796" stroke="#141516" stroke-miterlimit="10"/>
<path d="M132.382 78.3326C132.382 78.3326 126.367 83.0801 125.472 84.5793C124.528 86.0785 125.373 85.5288 127.908 84.9291C130.443 84.3295 134.023 82.7303 135.066 81.431C136.11 80.1317 138.894 77.4831 136.707 77.0333C134.52 76.5836 133.923 77.733 133.923 77.733" stroke="#141516" stroke-miterlimit="10"/>
<path d="M224.693 98.8717C225.34 98.0721 225.886 97.1726 226.334 96.1232" stroke="#141516" stroke-miterlimit="10"/>
<path d="M216.292 104.069C216.292 104.069 219.275 103.319 222.058 101.32" stroke="#141516" stroke-miterlimit="10"/>
</svg>
