<svg width="285" height="243" viewBox="0 0 285 243" fill="none" xmlns="http://www.w3.org/2000/svg">
<g opacity="0.1">
<path d="M165.9 124.959L225.365 195.832C221.239 199.575 216.9 203.148 212.434 206.509L153.267 136.019C157.733 132.616 161.944 128.915 165.9 124.959ZM167.176 123.597L238.083 183.112C241.826 178.985 245.399 174.646 248.759 170.179L177.852 110.665C174.62 115.259 171.047 119.556 167.176 123.597ZM120.131 153.503L150.417 236.67C155.861 235.224 161.221 233.522 166.453 231.608L135.657 147.037C130.68 149.547 125.491 151.717 120.131 153.503ZM137.486 146.101L182.829 224.632C187.891 222.164 192.825 219.484 197.589 216.591L151.735 137.168C147.227 140.486 142.463 143.464 137.486 146.059V146.101ZM178.916 109.176L258.841 155.333C261.733 150.568 264.413 145.633 266.88 140.571L187.423 94.7121C184.956 99.7745 182.106 104.582 178.958 109.219L178.916 109.176ZM194.782 75.4838L282.618 90.9685C283.511 85.4808 284.149 79.908 284.575 74.2501L198.227 59.0205C197.461 64.6359 196.313 70.1236 194.782 75.4838ZM188.231 93.0105L273.856 124.193C275.77 118.96 277.471 113.6 278.917 108.155L194.271 77.3556C192.612 82.7583 190.613 87.9907 188.231 93.0105ZM133.232 240.372L118.047 154.227C112.73 155.886 107.286 157.162 101.671 158.055L116.516 242.328C122.173 241.946 127.745 241.265 133.232 240.372ZM-5.1788 118.322L-50.9047 156.694C-47.9272 161.501 -44.7796 166.138 -41.3768 170.605L6.60367 130.361C2.39264 126.618 -1.52075 122.619 -5.1788 118.322ZM-25.9363 82.2477L-73.959 99.7319C-72.768 105.262 -71.322 110.707 -69.6631 116.025L-19.2155 97.6474C-21.8102 92.7127 -24.1073 87.5653 -25.9789 82.2477H-25.9363ZM-17.1313 101.348L-64.9841 128.957C-62.8573 134.19 -60.5179 139.295 -57.9658 144.272L-7.73111 115.259C-11.2191 110.878 -14.3666 106.198 -17.1739 101.306L-17.1313 101.348ZM99.3315 158.396C94.0996 159.119 88.7827 159.502 83.3806 159.502C83.0829 159.502 82.8276 159.502 82.5299 159.502V241.605C88.0595 242.243 93.6743 242.626 99.3315 242.754V158.396ZM-31.1258 61.658L-77.8299 69.9109C-77.5747 75.5689 -77.0218 81.1417 -76.2561 86.672L-27.34 78.0362C-28.9989 72.7187 -30.2751 67.2734 -31.1258 61.658ZM199.291 43.5782C199.291 48.1301 198.993 52.6393 198.482 57.0636H285C284.872 51.4057 284.489 45.7904 283.851 40.2601H199.205C199.205 41.3661 199.291 42.4722 199.291 43.5782ZM44.1201 152.653L18.9389 221.909C23.9156 224.504 28.9773 226.929 34.2092 229.098L60.3688 157.204C54.7966 156.098 49.3946 154.567 44.1627 152.695L44.1201 152.653ZM9.36835 132.786L-31.9763 182.048C-28.2331 186.26 -24.2774 190.259 -20.1515 194.087L23.0648 142.57C18.2583 139.635 13.6644 136.36 9.36835 132.786ZM49.6072 234.671C54.9242 236.33 60.3687 237.734 65.8984 238.883L79.9351 159.374C74.2353 159.204 68.6633 158.651 63.1761 157.672L49.6072 234.629V234.671ZM25.9998 144.315L-8.49673 204.127C-4.073 207.615 0.478485 210.848 5.24249 213.911L41.2277 151.589C35.9533 149.547 30.8915 147.122 26.0424 144.315H25.9998ZM190.996 0.527054L256.118 -37.0789C253.056 -41.8009 249.78 -46.3954 246.335 -50.8196L183.595 -14.6174C186.402 -9.76779 188.869 -4.748 190.953 0.527054H190.996ZM-12.9203 -20.9985L-46.8638 -40.5673C-50.0114 -35.9304 -52.9038 -31.1658 -55.6261 -26.2311L-21.2574 -6.4071C-18.8329 -11.4695 -16.0255 -16.3616 -12.9203 -20.9985ZM17.5778 -51.8405L-7.81601 -82.1297C-12.2397 -78.6839 -16.4933 -75.0679 -20.5767 -71.2393L4.5192 -41.333C8.60263 -45.1617 12.9839 -48.65 17.6203 -51.8405H17.5778ZM0.903778 -37.8872L-28.9138 -62.9012C-32.742 -58.8173 -36.3576 -54.5632 -39.803 -50.1389L-9.98538 -25.125C-6.6676 -29.6343 -3.00952 -33.9309 0.903778 -37.8872ZM36.4636 -62.4757L16.0039 -97.9122C11.0698 -95.1896 6.30579 -92.2969 1.66937 -89.1489L21.6187 -54.5632C26.3401 -57.5411 31.2743 -60.1785 36.4211 -62.4757H36.4636ZM56.9234 -69.2823L42.2059 -109.696C36.889 -107.782 31.7422 -105.655 26.6804 -103.272L40.8873 -64.2625C46.0767 -66.3045 51.4363 -67.9635 56.9234 -69.2823ZM-23.2991 -1.85522L-61.0283 -15.5959C-63.4103 -10.5336 -65.5371 -5.34363 -67.4512 -0.068573L-28.7861 14.0124C-27.3399 8.56717 -25.511 3.24966 -23.3417 -1.85522H-23.2991ZM-31.7636 57.0211C-32.2741 52.5969 -32.5718 48.1301 -32.5718 43.5357C-32.5718 42.4296 -32.5292 41.3235 -32.4867 40.2175H-76.8517C-77.4897 45.7478 -77.8724 51.3632 -78 57.0211H-31.8062H-31.7636ZM-29.8921 18.8195L-71.1518 11.5451C-72.6831 16.9052 -73.9593 22.3504 -74.9801 27.9233L-32.274 35.4529C-31.8912 29.795 -31.0831 24.2222 -29.8921 18.8195ZM99.3315 -71.2393V-120.246C93.6743 -120.118 88.0595 -119.736 82.5299 -119.098V-72.3452C82.8276 -72.3452 83.0829 -72.3452 83.3806 -72.3452C88.7827 -72.3452 94.0996 -71.9624 99.3315 -71.2393ZM182.191 -16.9998L236.382 -62.4757C232.553 -66.6022 228.512 -70.5159 224.344 -74.3021L172.408 -30.6978C175.981 -26.4012 179.299 -21.8069 182.234 -17.0423L182.191 -16.9998ZM170.366 -32.9951L212.902 -83.7036C208.436 -87.1069 203.757 -90.2549 198.993 -93.2327L158.371 -44.8214C162.667 -41.1629 166.666 -37.2492 170.366 -33.0376V-32.9951ZM196.653 19.0747L271.346 -8.1087C269.177 -13.3412 266.795 -18.4037 264.158 -23.381L191.932 2.90932C193.888 8.14183 195.462 13.5019 196.653 19.0747ZM155.776 -46.9484L186.53 -100.252C181.553 -102.804 176.449 -105.144 171.217 -107.271L141.91 -56.4776C146.759 -53.6274 151.395 -50.4368 155.776 -46.9059V-46.9484ZM199.163 38.0905L281.172 23.6266C280.023 18.0963 278.62 12.651 276.961 7.33347L197.164 21.4146C198.227 26.8598 198.908 32.4325 199.163 38.0905ZM138.762 -58.3068L158.286 -111.951C152.969 -113.652 147.525 -115.056 141.995 -116.247L123.449 -65.241C128.766 -63.2841 133.87 -60.9443 138.762 -58.2643V-58.3068ZM78.1487 -72.2176L70.1945 -117.226C64.6223 -116.205 59.1777 -114.928 53.8182 -113.397L61.4322 -70.2608C66.8767 -71.3243 72.4489 -71.9623 78.1487 -72.2176ZM128.936 -118.544C123.407 -119.31 117.835 -119.863 112.177 -120.118L103.457 -70.5586C109.03 -69.5801 114.517 -68.2188 119.791 -66.4746L128.979 -118.502L128.936 -118.544Z" fill="url(#paint0_linear_471_3234)"/>
</g>
<defs>
<linearGradient id="paint0_linear_471_3234" x1="284.022" y1="222.845" x2="-63.9995" y2="-88.7254" gradientUnits="userSpaceOnUse">
<stop stop-color="#0D75D5" stop-opacity="0.1"/>
<stop offset="1" stop-color="#0D0F9C"/>
</linearGradient>
</defs>
</svg>
