<svg width="1280" height="342" viewBox="0 0 1280 342" fill="none" xmlns="http://www.w3.org/2000/svg">
<g opacity="0.1">
<path d="M165.9 124.205L225.365 195.078C221.239 198.821 216.9 202.395 212.434 205.755L153.267 135.265C157.733 131.862 161.944 128.161 165.9 124.205ZM167.176 122.843L238.083 182.358C241.826 178.231 245.399 173.892 248.759 169.425L177.852 109.911C174.62 114.505 171.047 118.802 167.176 122.843ZM120.131 152.75L150.417 235.917C155.861 234.47 161.221 232.769 166.453 230.854L135.657 146.283C130.68 148.793 125.491 150.963 120.131 152.75ZM137.486 145.347L182.829 223.878C187.891 221.41 192.825 218.73 197.589 215.837L151.735 136.414C147.227 139.732 142.463 142.71 137.486 145.305V145.347ZM178.916 108.422L258.841 154.579C261.733 149.814 264.413 144.879 266.88 139.817L187.423 93.9582C184.956 99.0206 182.106 103.828 178.958 108.465L178.916 108.422ZM194.782 74.7299L282.618 90.2146C283.511 84.7269 284.149 79.1541 284.575 73.4962L198.227 58.2666C197.461 63.882 196.313 69.3697 194.782 74.7299ZM188.231 92.2566L273.856 123.439C275.77 118.206 277.471 112.846 278.917 107.401L194.271 76.6017C192.612 82.0043 190.613 87.2368 188.231 92.2566ZM133.232 239.618L118.047 153.473C112.73 155.132 107.286 156.408 101.671 157.301L116.516 241.575C122.173 241.192 127.745 240.511 133.232 239.618ZM-5.17882 117.568L-50.9047 155.94C-47.9272 160.747 -44.7796 165.384 -41.3768 169.851L6.60367 129.607C2.39263 125.864 -1.52074 121.865 -5.17882 117.568ZM-25.9363 81.4938L-73.959 98.978C-72.768 104.508 -71.322 109.954 -69.6631 115.271L-19.2156 96.8935C-21.8102 91.9588 -24.1073 86.8114 -25.9789 81.4938H-25.9363ZM-17.1313 100.595L-64.9841 128.204C-62.8573 133.436 -60.518 138.541 -57.9658 143.518L-7.73112 114.505C-11.219 110.124 -14.3666 105.444 -17.1739 100.552L-17.1313 100.595ZM99.3315 157.642C94.0996 158.365 88.7827 158.748 83.3806 158.748C83.0829 158.748 82.8276 158.748 82.5299 158.748V240.851C88.0595 241.489 93.6743 241.872 99.3315 242V157.642ZM-31.1258 60.9041L-77.8299 69.157C-77.5747 74.815 -77.0218 80.3878 -76.2561 85.9181L-27.34 77.2823C-28.9989 71.9647 -30.2751 66.5195 -31.1258 60.9041ZM199.291 42.8243C199.291 47.3762 198.993 51.8854 198.482 56.3097H285C284.872 50.6518 284.489 45.0365 283.851 39.5062H199.205C199.205 40.6122 199.291 41.7183 199.291 42.8243ZM44.1201 151.899L18.9389 221.155C23.9156 223.75 28.9773 226.175 34.2092 228.344L60.3688 156.451C54.7966 155.344 49.3946 153.813 44.1627 151.941L44.1201 151.899ZM9.36833 132.032L-31.9763 181.294C-28.2331 185.506 -24.2774 189.505 -20.1515 193.333L23.0648 141.817C18.2583 138.881 13.6644 135.606 9.36833 132.032ZM49.6072 233.917C54.9242 235.576 60.3687 236.98 65.8984 238.129L79.9351 158.62C74.2353 158.45 68.6633 157.897 63.1761 156.919L49.6072 233.875V233.917ZM25.9998 143.561L-8.49673 203.373C-4.07301 206.861 0.478489 210.094 5.24249 213.157L41.2277 150.835C35.9533 148.793 30.8915 146.368 26.0424 143.561H25.9998ZM190.996 -0.226854L256.118 -37.8328C253.056 -42.5549 249.78 -47.1493 246.335 -51.5735L183.595 -15.3713C186.402 -10.5217 188.869 -5.5019 190.953 -0.226854H190.996ZM-12.9204 -21.7524L-46.8638 -41.3212C-50.0114 -36.6843 -52.9039 -31.9197 -55.6261 -26.985L-21.2575 -7.16101C-18.8329 -12.2234 -16.0255 -17.1155 -12.9204 -21.7524ZM17.5778 -52.5945L-7.81601 -82.8836C-12.2397 -79.4378 -16.4933 -75.8218 -20.5767 -71.9932L4.5192 -42.0869C8.60263 -45.9156 12.9839 -49.4039 17.6203 -52.5945H17.5778ZM0.903763 -38.6411L-28.9138 -63.6551C-32.742 -59.5712 -36.3576 -55.3171 -39.803 -50.8929L-9.98538 -25.8789C-6.66759 -30.3882 -3.00952 -34.6848 0.903763 -38.6411ZM36.4636 -63.2296L16.0039 -98.6661C11.0698 -95.9435 6.30577 -93.0508 1.66938 -89.9028L21.6186 -55.3171C26.3401 -58.295 31.2743 -60.9324 36.4211 -63.2296H36.4636ZM56.9234 -70.0362L42.2059 -110.45C36.889 -108.536 31.7422 -106.409 26.6804 -104.026L40.8873 -65.0164C46.0767 -67.0584 51.4363 -68.7174 56.9234 -70.0362ZM-23.2991 -2.60912L-61.0283 -16.3498C-63.4103 -11.2875 -65.5371 -6.09754 -67.4512 -0.822486L-28.7861 13.2585C-27.3399 7.81327 -25.511 2.49576 -23.3417 -2.60912H-23.2991ZM-31.7637 56.2672C-32.2741 51.843 -32.5718 47.3761 -32.5718 42.7817C-32.5718 41.6757 -32.5292 40.5696 -32.4867 39.4636H-76.8517C-77.4897 44.9939 -77.8724 50.6093 -78 56.2672H-31.8062H-31.7637ZM-29.8921 18.0656L-71.1518 10.7912C-72.6831 16.1513 -73.9593 21.5965 -74.9801 27.1694L-32.2741 34.699C-31.8912 29.0411 -31.0831 23.4683 -29.8921 18.0656ZM99.3315 -71.9932V-121C93.6743 -120.872 88.0595 -120.49 82.5299 -119.851V-73.0991C82.8276 -73.0991 83.0829 -73.0991 83.3806 -73.0991C88.7827 -73.0991 94.0996 -72.7163 99.3315 -71.9932ZM182.191 -17.7537L236.382 -63.2296C232.553 -67.3561 228.512 -71.2698 224.344 -75.056L172.408 -31.4517C175.981 -27.1551 179.299 -22.5608 182.234 -17.7962L182.191 -17.7537ZM170.366 -33.749L212.902 -84.4576C208.436 -87.8608 203.757 -91.0088 198.993 -93.9866L158.371 -45.5753C162.667 -41.9168 166.666 -38.0031 170.366 -33.7915V-33.749ZM196.653 18.3208L271.346 -8.86261C269.177 -14.0951 266.795 -19.1576 264.158 -24.1348L191.932 2.15542C193.888 7.38792 195.462 12.748 196.653 18.3208ZM155.776 -47.7023L186.53 -101.006C181.553 -103.558 176.449 -105.898 171.217 -108.025L141.91 -57.2315C146.759 -54.3813 151.395 -51.1907 155.776 -47.6599V-47.7023ZM199.163 37.3365L281.172 22.8727C280.023 17.3424 278.62 11.8971 276.961 6.57956L197.164 20.6607C198.227 26.1059 198.908 31.6786 199.163 37.3365ZM138.762 -59.0607L158.286 -112.705C152.969 -114.406 147.525 -115.81 141.995 -117.001L123.449 -65.9949C128.766 -64.038 133.87 -61.6982 138.762 -59.0182V-59.0607ZM78.1487 -72.9715L70.1945 -117.98C64.6223 -116.959 59.1777 -115.682 53.8182 -114.151L61.4322 -71.0147C66.8767 -72.0782 72.4489 -72.7163 78.1487 -72.9715ZM128.936 -119.298C123.407 -120.064 117.835 -120.617 112.177 -120.872L103.457 -71.3125C109.03 -70.334 114.517 -68.9727 119.791 -67.2285L128.979 -119.256L128.936 -119.298Z" fill="url(#paint0_linear_3494_453)"/>
</g>
<g opacity="0.1">
<path d="M892.462 214.346L750.434 45.0709C760.289 36.1296 770.651 27.5949 781.319 19.5681L922.635 187.928C911.968 196.057 901.91 204.896 892.462 214.346ZM889.414 217.597L720.058 75.4511C711.118 85.3069 702.584 95.6707 694.558 106.339L863.914 248.485C871.635 237.512 880.169 227.25 889.414 217.597ZM1001.78 146.168L929.442 -52.4702C916.438 -49.0156 903.637 -44.9513 891.141 -40.3791L964.695 161.612C976.582 155.618 988.976 150.436 1001.78 146.168ZM960.327 163.848L852.028 -23.716C839.938 -17.8228 828.154 -11.4215 816.775 -4.51236L926.293 185.185C937.062 177.26 948.44 170.147 960.327 163.949V163.848ZM861.375 252.042L670.48 141.8C663.572 153.179 657.171 164.966 651.279 177.057L841.056 286.587C846.948 274.496 853.755 263.015 861.273 251.94L861.375 252.042ZM823.48 332.513L613.689 295.529C611.556 308.636 610.032 321.946 609.016 335.46L815.251 371.834C817.08 358.422 819.823 345.315 823.48 332.513ZM839.126 290.652L634.617 216.175C630.046 228.672 625.982 241.474 622.528 254.48L824.699 328.042C828.662 315.138 833.436 302.641 839.126 290.652ZM970.486 -61.3098L1006.75 144.441C1019.45 140.479 1032.46 137.43 1045.87 135.297L1010.41 -65.9839C996.901 -65.0694 983.592 -63.4435 970.486 -61.3098ZM1301.07 230.196L1410.28 138.548C1403.17 127.067 1395.66 115.992 1387.53 105.323L1272.93 201.442C1282.99 210.383 1292.33 219.934 1301.07 230.196ZM1350.65 316.358L1465.35 274.598C1462.5 261.389 1459.05 248.384 1455.09 235.683L1334.6 279.577C1340.79 291.363 1346.28 303.657 1350.75 316.358H1350.65ZM1329.62 270.737L1443.91 204.795C1438.83 192.297 1433.25 180.105 1427.15 168.217L1307.17 237.512C1315.5 247.977 1323.02 259.154 1329.72 270.838L1329.62 270.737ZM1051.46 134.484C1063.95 132.757 1076.65 131.842 1089.55 131.842C1090.26 131.842 1090.87 131.842 1091.59 131.842V-64.2565C1078.38 -65.7805 1064.97 -66.6952 1051.46 -67V134.484ZM1363.04 365.535L1474.59 345.823C1473.98 332.31 1472.66 318.999 1470.83 305.791L1354 326.417C1357.96 339.117 1361.01 352.123 1363.04 365.535ZM812.711 408.717C812.711 397.845 813.422 387.075 814.641 376.508H608C608.305 390.022 609.219 403.434 610.743 416.642H812.914C812.914 414.001 812.711 411.359 812.711 408.717ZM1183.32 148.201L1243.47 -17.2131C1231.58 -23.411 1219.49 -29.2025 1207 -34.3844L1144.52 137.329C1157.82 139.971 1170.73 143.628 1183.22 148.099L1183.32 148.201ZM1266.33 195.65L1365.08 77.9913C1356.14 67.9323 1346.69 58.3812 1336.83 49.2367L1233.61 172.281C1245.09 179.292 1256.07 187.115 1266.33 195.65ZM1170.22 -47.6947C1157.52 -51.6573 1144.52 -55.0105 1131.31 -57.7539L1097.78 132.147C1111.4 132.553 1124.71 133.874 1137.81 136.211L1170.22 -47.5933V-47.6947ZM1226.6 168.115L1309 25.258C1298.43 16.9263 1287.56 9.20412 1276.18 1.88852L1190.23 150.741C1202.83 155.618 1214.92 161.409 1226.5 168.115H1226.6ZM832.522 511.542L676.982 601.361C684.297 612.639 692.119 623.613 700.349 634.18L850.199 547.713C843.494 536.13 837.602 524.141 832.624 511.542H832.522ZM1319.56 562.954L1400.63 609.693C1408.15 598.618 1415.06 587.238 1421.56 575.452L1339.47 528.104C1333.68 540.195 1326.98 551.879 1319.56 562.954ZM1246.72 636.618L1307.37 708.962C1317.94 700.731 1328.1 692.095 1337.85 682.951L1277.91 611.522C1268.16 620.666 1257.69 628.998 1246.62 636.618H1246.72ZM1286.54 603.292L1357.76 663.036C1366.9 653.282 1375.54 643.121 1383.77 632.554L1312.55 572.81C1304.63 583.58 1295.89 593.842 1286.54 603.292ZM1201.61 662.02L1250.48 746.657C1262.26 740.154 1273.64 733.245 1284.72 725.726L1237.07 643.121C1225.79 650.233 1214.01 656.533 1201.71 662.02H1201.61ZM1152.74 678.276L1187.9 774.802C1200.6 770.229 1212.89 765.149 1224.98 759.459L1191.05 666.287C1178.65 671.164 1165.85 675.127 1152.74 678.276ZM1344.35 517.232L1434.46 550.05C1440.15 537.959 1445.23 525.564 1449.8 512.964L1357.46 479.333C1354 492.339 1349.63 505.039 1344.45 517.232H1344.35ZM1364.57 376.61C1365.79 387.177 1366.5 397.845 1366.5 408.819C1366.5 411.461 1366.4 414.102 1366.29 416.744H1472.26C1473.78 403.535 1474.7 390.123 1475 376.61H1364.67H1364.57ZM1360.1 467.852L1458.64 485.226C1462.3 472.424 1465.35 459.418 1467.79 446.108L1365.79 428.124C1364.87 441.637 1362.94 454.948 1360.1 467.852ZM1051.46 682.951V800C1064.97 799.695 1078.38 798.781 1091.59 797.257V685.592C1090.87 685.592 1090.26 685.592 1089.55 685.592C1076.65 685.592 1063.95 684.678 1051.46 682.951ZM853.552 553.404L724.122 662.02C733.265 671.875 742.916 681.223 752.873 690.266L876.918 586.12C868.384 575.858 860.46 564.885 853.45 553.505L853.552 553.404ZM881.795 591.607L780.201 712.721C790.869 720.849 802.044 728.368 813.422 735.48L910.444 619.853C900.183 611.115 890.634 601.768 881.795 591.709V591.607ZM819.01 467.242L640.612 532.168C645.793 544.665 651.482 556.757 657.781 568.644L830.287 505.852C825.614 493.354 821.855 480.552 819.01 467.242ZM916.641 624.934L843.189 752.245C855.076 758.342 867.267 763.93 879.763 769.01L949.761 647.693C938.179 640.886 927.106 633.265 916.641 624.832V624.934ZM813.016 421.824L617.143 456.37C619.886 469.579 623.239 482.584 627.201 495.285L817.791 461.653C815.251 448.648 813.626 435.338 813.016 421.824ZM957.279 652.062L910.648 780.187C923.347 784.251 936.351 787.604 949.558 790.449L993.853 668.624C981.154 663.95 968.962 658.362 957.279 651.961V652.062ZM1102.05 685.287L1121.05 792.786C1134.36 790.348 1147.36 787.299 1160.16 783.641L1141.98 680.614C1128.97 683.154 1115.66 684.678 1102.05 685.287ZM980.747 795.936C993.954 797.765 1007.26 799.086 1020.77 799.695L1041.6 681.325C1028.29 678.988 1015.19 675.736 1002.59 671.57L980.646 795.834L980.747 795.936Z" fill="url(#paint1_linear_3494_453)"/>
</g>
<defs>
<linearGradient id="paint0_linear_3494_453" x1="284.022" y1="222.091" x2="-63.9995" y2="-89.4793" gradientUnits="userSpaceOnUse">
<stop stop-color="#0D75D5" stop-opacity="0.1"/>
<stop offset="1" stop-color="#0D0F9C"/>
</linearGradient>
<linearGradient id="paint1_linear_3494_453" x1="610.337" y1="-19.4486" x2="1441.56" y2="724.715" gradientUnits="userSpaceOnUse">
<stop stop-color="#0D75D5" stop-opacity="0.1"/>
<stop offset="1" stop-color="#0D0F9C"/>
</linearGradient>
</defs>
</svg>
