<svg width="1280" height="744" viewBox="0 0 1280 744" fill="none" xmlns="http://www.w3.org/2000/svg">
<g opacity="0.1">
<path d="M879.462 523.346L737.434 354.071C747.289 345.13 757.651 336.595 768.319 328.568L909.635 496.928C898.968 505.057 888.91 513.896 879.462 523.346ZM876.414 526.597L707.058 384.451C698.118 394.307 689.584 404.671 681.558 415.339L850.914 557.485C858.635 546.512 867.169 536.25 876.414 526.597ZM988.777 455.168L916.442 256.53C903.438 259.984 890.637 264.049 878.141 268.621L951.695 470.612C963.582 464.618 975.976 459.436 988.777 455.168ZM947.327 472.848L839.028 285.284C826.938 291.177 815.154 297.578 803.775 304.488L913.293 494.185C924.062 486.26 935.44 479.147 947.327 472.949V472.848ZM848.375 561.042L657.48 450.8C650.572 462.179 644.171 473.966 638.279 486.057L828.056 595.587C833.948 583.496 840.755 572.015 848.273 560.94L848.375 561.042ZM810.48 641.513L600.689 604.529C598.556 617.636 597.032 630.946 596.016 644.46L802.251 680.834C804.08 667.422 806.823 654.315 810.48 641.513ZM826.126 599.652L621.617 525.175C617.046 537.672 612.982 550.474 609.528 563.48L811.699 637.042C815.662 624.138 820.436 611.641 826.126 599.652ZM957.486 247.69L993.755 453.441C1006.45 449.479 1019.46 446.43 1032.87 444.297L997.413 243.016C983.901 243.931 970.592 245.556 957.486 247.69ZM1288.07 539.196L1397.28 447.548C1390.17 436.067 1382.66 424.992 1374.53 414.323L1259.93 510.442C1269.99 519.383 1279.33 528.934 1288.07 539.196ZM1337.65 625.358L1452.35 583.598C1449.5 570.389 1446.05 557.384 1442.09 544.683L1321.6 588.577C1327.79 600.363 1333.28 612.657 1337.75 625.358H1337.65ZM1316.62 579.737L1430.91 513.795C1425.83 501.297 1420.25 489.105 1414.15 477.217L1294.17 546.512C1302.5 556.977 1310.02 568.154 1316.72 579.838L1316.62 579.737ZM1038.46 443.484C1050.95 441.757 1063.65 440.842 1076.55 440.842C1077.26 440.842 1077.87 440.842 1078.59 440.842V244.744C1065.38 243.219 1051.97 242.305 1038.46 242V443.484ZM1350.04 674.535L1461.59 654.823C1460.98 641.31 1459.66 627.999 1457.83 614.791L1341 635.417C1344.96 648.117 1348.01 661.123 1350.04 674.535ZM799.711 717.717C799.711 706.845 800.422 696.075 801.641 685.508H595C595.305 699.022 596.219 712.434 597.743 725.642H799.914C799.914 723.001 799.711 720.359 799.711 717.717ZM1170.32 457.201L1230.47 291.787C1218.58 285.589 1206.49 279.797 1194 274.616L1131.52 446.329C1144.82 448.971 1157.73 452.628 1170.22 457.099L1170.32 457.201ZM1253.33 504.65L1352.08 386.991C1343.14 376.932 1333.69 367.381 1323.83 358.237L1220.61 481.281C1232.09 488.292 1243.07 496.115 1253.33 504.65ZM1157.22 261.305C1144.52 257.343 1131.52 253.989 1118.31 251.246L1084.78 441.147C1098.4 441.553 1111.71 442.874 1124.81 445.211L1157.22 261.407V261.305ZM1213.6 477.115L1296 334.258C1285.43 325.926 1274.56 318.204 1263.18 310.889L1177.23 459.741C1189.83 464.618 1201.92 470.409 1213.5 477.115H1213.6ZM819.522 820.542L663.982 910.361C671.297 921.639 679.119 932.613 687.349 943.18L837.199 856.713C830.494 845.13 824.602 833.141 819.624 820.542H819.522ZM1306.56 871.954L1387.63 918.693C1395.15 907.618 1402.06 896.238 1408.56 884.452L1326.47 837.104C1320.68 849.195 1313.98 860.879 1306.56 871.954ZM1233.72 945.618L1294.37 1017.96C1304.94 1009.73 1315.1 1001.1 1324.85 991.951L1264.91 920.522C1255.16 929.666 1244.69 937.998 1233.62 945.618H1233.72ZM1273.54 912.292L1344.76 972.036C1353.9 962.282 1362.54 952.121 1370.77 941.554L1299.55 881.81C1291.63 892.58 1282.89 902.842 1273.54 912.292ZM1188.61 971.02L1237.48 1055.66C1249.26 1049.15 1260.64 1042.25 1271.72 1034.73L1224.07 952.121C1212.79 959.233 1201.01 965.533 1188.71 971.02H1188.61ZM1139.74 987.276L1174.9 1083.8C1187.6 1079.23 1199.89 1074.15 1211.98 1068.46L1178.05 975.287C1165.65 980.164 1152.85 984.127 1139.74 987.276ZM1331.35 826.232L1421.46 859.05C1427.15 846.959 1432.23 834.564 1436.8 821.964L1344.46 788.333C1341 801.339 1336.63 814.039 1331.45 826.232H1331.35ZM1351.57 685.61C1352.79 696.177 1353.5 706.845 1353.5 717.819C1353.5 720.461 1353.4 723.102 1353.29 725.744H1459.26C1460.78 712.535 1461.7 699.123 1462 685.61H1351.67H1351.57ZM1347.1 776.852L1445.64 794.226C1449.3 781.424 1452.35 768.418 1454.79 755.108L1352.79 737.124C1351.87 750.637 1349.94 763.948 1347.1 776.852ZM1038.46 991.951V1109C1051.97 1108.7 1065.38 1107.78 1078.59 1106.26V994.592C1077.87 994.592 1077.26 994.592 1076.55 994.592C1063.65 994.592 1050.95 993.678 1038.46 991.951ZM840.552 862.404L711.122 971.02C720.265 980.875 729.916 990.223 739.873 999.266L863.918 895.12C855.384 884.858 847.46 873.885 840.45 862.505L840.552 862.404ZM868.795 900.607L767.201 1021.72C777.869 1029.85 789.044 1037.37 800.422 1044.48L897.444 928.853C887.183 920.115 877.634 910.768 868.795 900.709V900.607ZM806.01 776.242L627.612 841.168C632.793 853.665 638.482 865.757 644.781 877.644L817.287 814.852C812.614 802.354 808.855 789.552 806.01 776.242ZM903.641 933.934L830.189 1061.25C842.076 1067.34 854.267 1072.93 866.763 1078.01L936.761 956.693C925.179 949.886 914.106 942.265 903.641 933.832V933.934ZM800.016 730.824L604.143 765.37C606.886 778.579 610.239 791.584 614.201 804.285L804.791 770.653C802.251 757.648 800.626 744.338 800.016 730.824ZM944.279 961.062L897.648 1089.19C910.347 1093.25 923.351 1096.6 936.558 1099.45L980.853 977.624C968.154 972.95 955.962 967.362 944.279 960.961V961.062ZM1089.05 994.287L1108.05 1101.79C1121.36 1099.35 1134.36 1096.3 1147.16 1092.64L1128.98 989.614C1115.97 992.154 1102.66 993.678 1089.05 994.287ZM967.747 1104.94C980.954 1106.76 994.263 1108.09 1007.77 1108.7L1028.6 990.325C1015.29 987.988 1002.19 984.736 989.59 980.57L967.646 1104.83L967.747 1104.94Z" fill="url(#paint0_linear_3503_1308)"/>
</g>
<g opacity="0.1">
<path d="M133.9 124.205L193.365 195.078C189.239 198.821 184.9 202.395 180.434 205.755L121.267 135.265C125.733 131.862 129.944 128.161 133.9 124.205ZM135.176 122.843L206.083 182.358C209.826 178.231 213.399 173.892 216.759 169.425L145.852 109.911C142.62 114.505 139.047 118.802 135.176 122.843ZM88.1314 152.75L118.417 235.917C123.861 234.47 129.221 232.769 134.453 230.854L103.657 146.283C98.6803 148.793 93.4909 150.963 88.1314 152.75ZM105.486 145.347L150.829 223.878C155.891 221.41 160.825 218.73 165.589 215.837L119.735 136.414C115.227 139.732 110.463 142.71 105.486 145.305V145.347ZM146.916 108.422L226.841 154.579C229.733 149.814 232.413 144.879 234.88 139.817L155.423 93.9582C152.956 99.0206 150.106 103.828 146.958 108.465L146.916 108.422ZM162.782 74.7299L250.618 90.2146C251.511 84.7269 252.149 79.1541 252.575 73.4962L166.227 58.2666C165.461 63.882 164.313 69.3697 162.782 74.7299ZM156.231 92.2566L241.856 123.439C243.77 118.206 245.471 112.846 246.917 107.401L162.271 76.6017C160.612 82.0043 158.613 87.2368 156.231 92.2566ZM101.232 239.618L86.0472 153.473C80.7303 155.132 75.2857 156.408 69.6709 157.301L84.5159 241.575C90.1731 241.192 95.7453 240.511 101.232 239.618ZM-37.1788 117.568L-82.9047 155.94C-79.9272 160.747 -76.7796 165.384 -73.3768 169.851L-25.3963 129.607C-29.6074 125.864 -33.5207 121.865 -37.1788 117.568ZM-57.9363 81.4938L-105.959 98.978C-104.768 104.508 -103.322 109.954 -101.663 115.271L-51.2156 96.8935C-53.8102 91.9588 -56.1073 86.8114 -57.9789 81.4938H-57.9363ZM-49.1313 100.595L-96.9841 128.204C-94.8573 133.436 -92.518 138.541 -89.9658 143.518L-39.7311 114.505C-43.219 110.124 -46.3666 105.444 -49.1739 100.552L-49.1313 100.595ZM67.3315 157.642C62.0996 158.365 56.7827 158.748 51.3806 158.748C51.0829 158.748 50.8276 158.748 50.5299 158.748V240.851C56.0595 241.489 61.6743 241.872 67.3315 242V157.642ZM-63.1258 60.9041L-109.83 69.157C-109.575 74.815 -109.022 80.3878 -108.256 85.9181L-59.34 77.2823C-60.9989 71.9647 -62.2751 66.5195 -63.1258 60.9041ZM167.291 42.8243C167.291 47.3762 166.993 51.8854 166.482 56.3097H253C252.872 50.6518 252.489 45.0365 251.851 39.5062H167.205C167.205 40.6122 167.291 41.7183 167.291 42.8243ZM12.1201 151.899L-13.0611 221.155C-8.08444 223.75 -3.02271 226.175 2.20919 228.344L28.3688 156.451C22.7966 155.344 17.3946 153.813 12.1627 151.941L12.1201 151.899ZM-22.6317 132.032L-63.9763 181.294C-60.2331 185.506 -56.2774 189.505 -52.1515 193.333L-8.93515 141.817C-13.7417 138.881 -18.3356 135.606 -22.6317 132.032ZM17.6072 233.917C22.9242 235.576 28.3687 236.98 33.8984 238.129L47.9351 158.62C42.2353 158.45 36.6633 157.897 31.1761 156.919L17.6072 233.875V233.917ZM-6.00018 143.561L-40.4967 203.373C-36.073 206.861 -31.5215 210.094 -26.7575 213.157L9.22769 150.835C3.95326 148.793 -1.10853 146.368 -5.9576 143.561H-6.00018ZM158.996 -0.226854L224.118 -37.8328C221.056 -42.5549 217.78 -47.1493 214.335 -51.5735L151.595 -15.3713C154.402 -10.5217 156.869 -5.5019 158.953 -0.226854H158.996ZM-44.9204 -21.7524L-78.8638 -41.3212C-82.0114 -36.6843 -84.9039 -31.9197 -87.6261 -26.985L-53.2575 -7.16101C-50.8329 -12.2234 -48.0255 -17.1155 -44.9204 -21.7524ZM-14.4222 -52.5945L-39.816 -82.8836C-44.2397 -79.4378 -48.4933 -75.8218 -52.5767 -71.9932L-27.4808 -42.0869C-23.3974 -45.9156 -19.0161 -49.4039 -14.3797 -52.5945H-14.4222ZM-31.0962 -38.6411L-60.9138 -63.6551C-64.742 -59.5712 -68.3576 -55.3171 -71.803 -50.8929L-41.9854 -25.8789C-38.6676 -30.3882 -35.0095 -34.6848 -31.0962 -38.6411ZM4.46358 -63.2296L-15.9961 -98.6661C-20.9302 -95.9435 -25.6942 -93.0508 -30.3306 -89.9028L-10.3814 -55.3171C-5.65989 -58.295 -0.725693 -60.9324 4.42113 -63.2296H4.46358ZM24.9234 -70.0362L10.2059 -110.45C4.88896 -108.536 -0.257836 -106.409 -5.31959 -104.026L8.88733 -65.0164C14.0767 -67.0584 19.4363 -68.7174 24.9234 -70.0362ZM-55.2991 -2.60912L-93.0283 -16.3498C-95.4103 -11.2875 -97.5371 -6.09754 -99.4512 -0.822486L-60.7861 13.2585C-59.3399 7.81327 -57.511 2.49576 -55.3417 -2.60912H-55.2991ZM-63.7637 56.2672C-64.2741 51.843 -64.5718 47.3761 -64.5718 42.7817C-64.5718 41.6757 -64.5292 40.5696 -64.4867 39.4636H-108.852C-109.49 44.9939 -109.872 50.6093 -110 56.2672H-63.8062H-63.7637ZM-61.8921 18.0656L-103.152 10.7912C-104.683 16.1513 -105.959 21.5965 -106.98 27.1694L-64.2741 34.699C-63.8912 29.0411 -63.0831 23.4683 -61.8921 18.0656ZM67.3315 -71.9932V-121C61.6743 -120.872 56.0595 -120.49 50.5299 -119.851V-73.0991C50.8276 -73.0991 51.0829 -73.0991 51.3806 -73.0991C56.7827 -73.0991 62.0996 -72.7163 67.3315 -71.9932ZM150.191 -17.7537L204.382 -63.2296C200.553 -67.3561 196.512 -71.2698 192.344 -75.056L140.408 -31.4517C143.981 -27.1551 147.299 -22.5608 150.234 -17.7962L150.191 -17.7537ZM138.366 -33.749L180.902 -84.4576C176.436 -87.8608 171.757 -91.0088 166.993 -93.9866L126.371 -45.5753C130.667 -41.9168 134.666 -38.0031 138.366 -33.7915V-33.749ZM164.653 18.3208L239.346 -8.86261C237.177 -14.0951 234.795 -19.1576 232.158 -24.1348L159.932 2.15542C161.888 7.38792 163.462 12.748 164.653 18.3208ZM123.776 -47.7023L154.53 -101.006C149.553 -103.558 144.449 -105.898 139.217 -108.025L109.91 -57.2315C114.759 -54.3813 119.395 -51.1907 123.776 -47.6599V-47.7023ZM167.163 37.3365L249.172 22.8727C248.023 17.3424 246.62 11.8971 244.961 6.57956L165.164 20.6607C166.227 26.1059 166.908 31.6786 167.163 37.3365ZM106.762 -59.0607L126.286 -112.705C120.969 -114.406 115.525 -115.81 109.995 -117.001L91.4492 -65.9949C96.7662 -64.038 101.87 -61.6982 106.762 -59.0182V-59.0607ZM46.1487 -72.9715L38.1945 -117.98C32.6223 -116.959 27.1777 -115.682 21.8182 -114.151L29.4322 -71.0147C34.8767 -72.0782 40.4489 -72.7163 46.1487 -72.9715ZM96.9364 -119.298C91.4067 -120.064 85.8345 -120.617 80.1773 -120.872L71.4574 -71.3125C77.0295 -70.334 82.5168 -68.9727 87.7912 -67.2285L96.9788 -119.256L96.9364 -119.298Z" fill="url(#paint1_linear_3503_1308)"/>
</g>
<defs>
<linearGradient id="paint0_linear_3503_1308" x1="597.337" y1="289.551" x2="1428.56" y2="1033.72" gradientUnits="userSpaceOnUse">
<stop stop-color="#0D75D5" stop-opacity="0.1"/>
<stop offset="1" stop-color="#0D0F9C"/>
</linearGradient>
<linearGradient id="paint1_linear_3503_1308" x1="252.022" y1="222.091" x2="-95.9995" y2="-89.4793" gradientUnits="userSpaceOnUse">
<stop stop-color="#0D75D5" stop-opacity="0.1"/>
<stop offset="1" stop-color="#0D0F9C"/>
</linearGradient>
</defs>
</svg>
