<svg width="1280" height="328" viewBox="0 0 1280 328" fill="none" xmlns="http://www.w3.org/2000/svg">
<g opacity="0.1">
<path d="M879.462 386.346L737.434 217.071C747.289 208.13 757.651 199.595 768.319 191.568L909.635 359.928C898.968 368.057 888.91 376.896 879.462 386.346ZM876.414 389.597L707.058 247.451C698.118 257.307 689.584 267.671 681.558 278.339L850.914 420.485C858.635 409.512 867.169 399.25 876.414 389.597ZM988.777 318.168L916.442 119.53C903.438 122.984 890.637 127.049 878.141 131.621L951.695 333.612C963.582 327.618 975.976 322.436 988.777 318.168ZM947.327 335.848L839.028 148.284C826.938 154.177 815.154 160.578 803.775 167.488L913.293 357.185C924.062 349.26 935.44 342.147 947.327 335.949V335.848ZM848.375 424.042L657.48 313.8C650.572 325.179 644.171 336.966 638.279 349.057L828.056 458.587C833.948 446.496 840.755 435.015 848.273 423.94L848.375 424.042ZM810.48 504.513L600.689 467.529C598.556 480.636 597.032 493.946 596.016 507.46L802.251 543.834C804.08 530.422 806.823 517.315 810.48 504.513ZM826.126 462.652L621.617 388.175C617.046 400.672 612.982 413.474 609.528 426.48L811.699 500.042C815.662 487.138 820.436 474.641 826.126 462.652ZM957.486 110.69L993.755 316.441C1006.45 312.479 1019.46 309.43 1032.87 307.297L997.413 106.016C983.901 106.931 970.592 108.556 957.486 110.69ZM1288.07 402.196L1397.28 310.548C1390.17 299.067 1382.66 287.992 1374.53 277.323L1259.93 373.442C1269.99 382.383 1279.33 391.934 1288.07 402.196ZM1337.65 488.358L1452.35 446.598C1449.5 433.389 1446.05 420.384 1442.09 407.683L1321.6 451.577C1327.79 463.363 1333.28 475.657 1337.75 488.358H1337.65ZM1316.62 442.737L1430.91 376.795C1425.83 364.297 1420.25 352.105 1414.15 340.217L1294.17 409.512C1302.5 419.977 1310.02 431.154 1316.72 442.838L1316.62 442.737ZM1038.46 306.484C1050.95 304.757 1063.65 303.842 1076.55 303.842C1077.26 303.842 1077.87 303.842 1078.59 303.842V107.744C1065.38 106.219 1051.97 105.305 1038.46 105V306.484ZM1350.04 537.535L1461.59 517.823C1460.98 504.31 1459.66 490.999 1457.83 477.791L1341 498.417C1344.96 511.117 1348.01 524.123 1350.04 537.535ZM799.711 580.717C799.711 569.845 800.422 559.075 801.641 548.508H595C595.305 562.022 596.219 575.434 597.743 588.642H799.914C799.914 586.001 799.711 583.359 799.711 580.717ZM1170.32 320.201L1230.47 154.787C1218.58 148.589 1206.49 142.797 1194 137.616L1131.52 309.329C1144.82 311.971 1157.73 315.628 1170.22 320.099L1170.32 320.201ZM1253.33 367.65L1352.08 249.991C1343.14 239.932 1333.69 230.381 1323.83 221.237L1220.61 344.281C1232.09 351.292 1243.07 359.115 1253.33 367.65ZM1157.22 124.305C1144.52 120.343 1131.52 116.989 1118.31 114.246L1084.78 304.147C1098.4 304.553 1111.71 305.874 1124.81 308.211L1157.22 124.407V124.305ZM1213.6 340.115L1296 197.258C1285.43 188.926 1274.56 181.204 1263.18 173.889L1177.23 322.741C1189.83 327.618 1201.92 333.409 1213.5 340.115H1213.6ZM819.522 683.542L663.982 773.361C671.297 784.639 679.119 795.613 687.349 806.18L837.199 719.713C830.494 708.13 824.602 696.141 819.624 683.542H819.522ZM1306.56 734.954L1387.63 781.693C1395.15 770.618 1402.06 759.238 1408.56 747.452L1326.47 700.104C1320.68 712.195 1313.98 723.879 1306.56 734.954ZM1233.72 808.618L1294.37 880.962C1304.94 872.731 1315.1 864.095 1324.85 854.951L1264.91 783.522C1255.16 792.666 1244.69 800.998 1233.62 808.618H1233.72ZM1273.54 775.292L1344.76 835.036C1353.9 825.282 1362.54 815.121 1370.77 804.554L1299.55 744.81C1291.63 755.58 1282.89 765.842 1273.54 775.292ZM1188.61 834.02L1237.48 918.657C1249.26 912.154 1260.64 905.245 1271.72 897.726L1224.07 815.121C1212.79 822.233 1201.01 828.533 1188.71 834.02H1188.61ZM1139.74 850.276L1174.9 946.802C1187.6 942.229 1199.89 937.149 1211.98 931.459L1178.05 838.287C1165.65 843.164 1152.85 847.127 1139.74 850.276ZM1331.35 689.232L1421.46 722.05C1427.15 709.959 1432.23 697.564 1436.8 684.964L1344.46 651.333C1341 664.339 1336.63 677.039 1331.45 689.232H1331.35ZM1351.57 548.61C1352.79 559.177 1353.5 569.845 1353.5 580.819C1353.5 583.461 1353.4 586.102 1353.29 588.744H1459.26C1460.78 575.535 1461.7 562.123 1462 548.61H1351.67H1351.57ZM1347.1 639.852L1445.64 657.226C1449.3 644.424 1452.35 631.418 1454.79 618.108L1352.79 600.124C1351.87 613.637 1349.94 626.948 1347.1 639.852ZM1038.46 854.951V972C1051.97 971.695 1065.38 970.781 1078.59 969.257V857.592C1077.87 857.592 1077.26 857.592 1076.55 857.592C1063.65 857.592 1050.95 856.678 1038.46 854.951ZM840.552 725.404L711.122 834.02C720.265 843.875 729.916 853.223 739.873 862.266L863.918 758.12C855.384 747.858 847.46 736.885 840.45 725.505L840.552 725.404ZM868.795 763.607L767.201 884.721C777.869 892.849 789.044 900.368 800.422 907.48L897.444 791.853C887.183 783.115 877.634 773.768 868.795 763.709V763.607ZM806.01 639.242L627.612 704.168C632.793 716.665 638.482 728.757 644.781 740.644L817.287 677.852C812.614 665.354 808.855 652.552 806.01 639.242ZM903.641 796.934L830.189 924.245C842.076 930.342 854.267 935.93 866.763 941.01L936.761 819.693C925.179 812.886 914.106 805.265 903.641 796.832V796.934ZM800.016 593.824L604.143 628.37C606.886 641.579 610.239 654.584 614.201 667.285L804.791 633.653C802.251 620.648 800.626 607.338 800.016 593.824ZM944.279 824.062L897.648 952.187C910.347 956.251 923.351 959.604 936.558 962.449L980.853 840.624C968.154 835.95 955.962 830.362 944.279 823.961V824.062ZM1089.05 857.287L1108.05 964.786C1121.36 962.348 1134.36 959.299 1147.16 955.641L1128.98 852.614C1115.97 855.154 1102.66 856.678 1089.05 857.287ZM967.747 967.936C980.954 969.765 994.263 971.086 1007.77 971.695L1028.6 853.325C1015.29 850.988 1002.19 847.736 989.59 843.57L967.646 967.834L967.747 967.936Z" fill="url(#paint0_linear_3501_1149)"/>
</g>
<g opacity="0.1">
<path d="M133.9 108.205L193.365 179.078C189.239 182.821 184.9 186.395 180.434 189.755L121.267 119.265C125.733 115.862 129.944 112.161 133.9 108.205ZM135.176 106.843L206.083 166.358C209.826 162.231 213.399 157.892 216.759 153.425L145.852 93.911C142.62 98.5054 139.047 102.802 135.176 106.843ZM88.1314 136.75L118.417 219.917C123.861 218.47 129.221 216.769 134.453 214.854L103.657 130.283C98.6803 132.793 93.4909 134.963 88.1314 136.75ZM105.486 129.347L150.829 207.878C155.891 205.41 160.825 202.73 165.589 199.837L119.735 120.414C115.227 123.732 110.463 126.71 105.486 129.305V129.347ZM146.916 92.422L226.841 138.579C229.733 133.814 232.413 128.879 234.88 123.817L155.423 77.9582C152.956 83.0206 150.106 87.8277 146.958 92.4646L146.916 92.422ZM162.782 58.7299L250.618 74.2146C251.511 68.7269 252.149 63.1541 252.575 57.4962L166.227 42.2666C165.461 47.882 164.313 53.3697 162.782 58.7299ZM156.231 76.2566L241.856 107.439C243.77 102.206 245.471 96.8463 246.917 91.4011L162.271 60.6017C160.612 66.0043 158.613 71.2368 156.231 76.2566ZM101.232 223.618L86.0472 137.473C80.7303 139.132 75.2857 140.408 69.6709 141.301L84.5159 225.575C90.1731 225.192 95.7453 224.511 101.232 223.618ZM-37.1788 101.568L-82.9047 139.94C-79.9272 144.747 -76.7796 149.384 -73.3768 153.851L-25.3963 113.607C-29.6074 109.864 -33.5207 105.865 -37.1788 101.568ZM-57.9363 65.4938L-105.959 82.978C-104.768 88.5083 -103.322 93.9536 -101.663 99.2712L-51.2156 80.8935C-53.8102 75.9588 -56.1073 70.8114 -57.9789 65.4938H-57.9363ZM-49.1313 84.5946L-96.9841 112.204C-94.8573 117.436 -92.518 122.541 -89.9658 127.518L-39.7311 98.5055C-43.219 94.1238 -46.3666 89.4443 -49.1739 84.5521L-49.1313 84.5946ZM67.3315 141.642C62.0996 142.365 56.7827 142.748 51.3806 142.748C51.0829 142.748 50.8276 142.748 50.5299 142.748V224.851C56.0595 225.489 61.6743 225.872 67.3315 226V141.642ZM-63.1258 44.9041L-109.83 53.157C-109.575 58.815 -109.022 64.3878 -108.256 69.9181L-59.34 61.2823C-60.9989 55.9647 -62.2751 50.5195 -63.1258 44.9041ZM167.291 26.8243C167.291 31.3762 166.993 35.8854 166.482 40.3097H253C252.872 34.6518 252.489 29.0365 251.851 23.5062H167.205C167.205 24.6122 167.291 25.7183 167.291 26.8243ZM12.1201 135.899L-13.0611 205.155C-8.08444 207.75 -3.02271 210.175 2.20919 212.344L28.3688 140.451C22.7966 139.344 17.3946 137.813 12.1627 135.941L12.1201 135.899ZM-22.6317 116.032L-63.9763 165.294C-60.2331 169.506 -56.2774 173.505 -52.1515 177.333L-8.93515 125.817C-13.7417 122.881 -18.3356 119.606 -22.6317 116.032ZM17.6072 217.917C22.9242 219.576 28.3687 220.98 33.8984 222.129L47.9351 142.62C42.2353 142.45 36.6633 141.897 31.1761 140.919L17.6072 217.875V217.917ZM-6.00018 127.561L-40.4967 187.373C-36.073 190.861 -31.5215 194.094 -26.7575 197.157L9.22769 134.835C3.95326 132.793 -1.10853 130.368 -5.9576 127.561H-6.00018ZM158.996 -16.2269L224.118 -53.8328C221.056 -58.5549 217.78 -63.1493 214.335 -67.5735L151.595 -31.3713C154.402 -26.5217 156.869 -21.5019 158.953 -16.2269H158.996ZM-44.9204 -37.7524L-78.8638 -57.3212C-82.0114 -52.6843 -84.9039 -47.9197 -87.6261 -42.985L-53.2575 -23.161C-50.8329 -28.2234 -48.0255 -33.1155 -44.9204 -37.7524ZM-14.4222 -68.5945L-39.816 -98.8836C-44.2397 -95.4378 -48.4933 -91.8218 -52.5767 -87.9932L-27.4808 -58.0869C-23.3974 -61.9156 -19.0161 -65.4039 -14.3797 -68.5945H-14.4222ZM-31.0962 -54.6411L-60.9138 -79.6551C-64.742 -75.5712 -68.3576 -71.3171 -71.803 -66.8929L-41.9854 -41.8789C-38.6676 -46.3882 -35.0095 -50.6848 -31.0962 -54.6411ZM4.46358 -79.2296L-15.9961 -114.666C-20.9302 -111.944 -25.6942 -109.051 -30.3306 -105.903L-10.3814 -71.3171C-5.65989 -74.295 -0.725693 -76.9324 4.42113 -79.2296H4.46358ZM24.9234 -86.0362L10.2059 -126.45C4.88896 -124.536 -0.257836 -122.409 -5.31959 -120.026L8.88733 -81.0164C14.0767 -83.0584 19.4363 -84.7174 24.9234 -86.0362ZM-55.2991 -18.6091L-93.0283 -32.3498C-95.4103 -27.2875 -97.5371 -22.0975 -99.4512 -16.8225L-60.7861 -2.74152C-59.3399 -8.18673 -57.511 -13.5042 -55.3417 -18.6091H-55.2991ZM-63.7637 40.2672C-64.2741 35.843 -64.5718 31.3761 -64.5718 26.7817C-64.5718 25.6757 -64.5292 24.5696 -64.4867 23.4636H-108.852C-109.49 28.9939 -109.872 34.6093 -110 40.2672H-63.8062H-63.7637ZM-61.8921 2.0656L-103.152 -5.20882C-104.683 0.151307 -105.959 5.59654 -106.98 11.1694L-64.2741 18.699C-63.8912 13.0411 -63.0831 7.46827 -61.8921 2.0656ZM67.3315 -87.9932V-137C61.6743 -136.872 56.0595 -136.49 50.5299 -135.851V-89.0991C50.8276 -89.0991 51.0829 -89.0991 51.3806 -89.0991C56.7827 -89.0991 62.0996 -88.7163 67.3315 -87.9932ZM150.191 -33.7537L204.382 -79.2296C200.553 -83.3561 196.512 -87.2698 192.344 -91.056L140.408 -47.4517C143.981 -43.1551 147.299 -38.5608 150.234 -33.7962L150.191 -33.7537ZM138.366 -49.749L180.902 -100.458C176.436 -103.861 171.757 -107.009 166.993 -109.987L126.371 -61.5753C130.667 -57.9168 134.666 -54.0031 138.366 -49.7915V-49.749ZM164.653 2.32084L239.346 -24.8626C237.177 -30.0951 234.795 -35.1576 232.158 -40.1348L159.932 -13.8446C161.888 -8.61208 163.462 -3.252 164.653 2.32084ZM123.776 -63.7023L154.53 -117.006C149.553 -119.558 144.449 -121.898 139.217 -124.025L109.91 -73.2315C114.759 -70.3813 119.395 -67.1907 123.776 -63.6599V-63.7023ZM167.163 21.3365L249.172 6.87272C248.023 1.34243 246.62 -4.10285 244.961 -9.42044L165.164 4.66065C166.227 10.1059 166.908 15.6786 167.163 21.3365ZM106.762 -75.0607L126.286 -128.705C120.969 -130.406 115.525 -131.81 109.995 -133.001L91.4492 -81.9949C96.7662 -80.038 101.87 -77.6982 106.762 -75.0182V-75.0607ZM46.1487 -88.9715L38.1945 -133.98C32.6223 -132.959 27.1777 -131.682 21.8182 -130.151L29.4322 -87.0147C34.8767 -88.0782 40.4489 -88.7163 46.1487 -88.9715ZM96.9364 -135.298C91.4067 -136.064 85.8345 -136.617 80.1773 -136.872L71.4574 -87.3125C77.0295 -86.334 82.5168 -84.9727 87.7912 -83.2285L96.9788 -135.256L96.9364 -135.298Z" fill="url(#paint1_linear_3501_1149)"/>
</g>
<defs>
<linearGradient id="paint0_linear_3501_1149" x1="597.337" y1="152.551" x2="1428.56" y2="896.715" gradientUnits="userSpaceOnUse">
<stop stop-color="#0D75D5" stop-opacity="0.1"/>
<stop offset="1" stop-color="#0D0F9C"/>
</linearGradient>
<linearGradient id="paint1_linear_3501_1149" x1="252.022" y1="206.091" x2="-95.9995" y2="-105.479" gradientUnits="userSpaceOnUse">
<stop stop-color="#0D75D5" stop-opacity="0.1"/>
<stop offset="1" stop-color="#0D0F9C"/>
</linearGradient>
</defs>
</svg>
