<svg width="237" height="242" viewBox="0 0 237 242" fill="none" xmlns="http://www.w3.org/2000/svg">
<g opacity="0.1">
<path d="M117.9 124.205L177.365 195.078C173.239 198.821 168.9 202.395 164.434 205.755L105.267 135.265C109.733 131.862 113.944 128.161 117.9 124.205ZM119.176 122.843L190.083 182.358C193.826 178.231 197.399 173.892 200.759 169.425L129.852 109.911C126.62 114.505 123.047 118.802 119.176 122.843ZM72.1314 152.75L102.417 235.917C107.861 234.47 113.221 232.769 118.453 230.854L87.657 146.283C82.6803 148.793 77.4909 150.963 72.1314 152.75ZM89.486 145.347L134.829 223.878C139.891 221.41 144.825 218.73 149.589 215.837L103.735 136.414C99.2267 139.732 94.4626 142.71 89.486 145.305V145.347ZM130.916 108.422L210.841 154.579C213.733 149.814 216.413 144.879 218.88 139.817L139.423 93.9582C136.956 99.0206 134.106 103.828 130.958 108.465L130.916 108.422ZM146.782 74.7299L234.618 90.2146C235.511 84.7269 236.149 79.1541 236.575 73.4962L150.227 58.2666C149.461 63.882 148.313 69.3697 146.782 74.7299ZM140.231 92.2566L225.856 123.439C227.77 118.206 229.471 112.846 230.917 107.401L146.271 76.6017C144.612 82.0043 142.613 87.2368 140.231 92.2566ZM85.2324 239.618L70.0472 153.473C64.7303 155.132 59.2857 156.408 53.6709 157.301L68.5159 241.575C74.1731 241.192 79.7453 240.511 85.2324 239.618ZM-53.1788 117.568L-98.9047 155.94C-95.9272 160.747 -92.7796 165.384 -89.3768 169.851L-41.3963 129.607C-45.6074 125.864 -49.5208 121.865 -53.1788 117.568ZM-73.9363 81.4938L-121.959 98.978C-120.768 104.508 -119.322 109.954 -117.663 115.271L-67.2155 96.8935C-69.8102 91.9588 -72.1073 86.8114 -73.9789 81.4938H-73.9363ZM-65.1313 100.595L-112.984 128.204C-110.857 133.436 -108.518 138.541 -105.966 143.518L-55.7311 114.505C-59.2191 110.124 -62.3666 105.444 -65.1739 100.552L-65.1313 100.595ZM51.3315 157.642C46.0996 158.365 40.7827 158.748 35.3806 158.748C35.0829 158.748 34.8276 158.748 34.5299 158.748V240.851C40.0595 241.489 45.6743 241.872 51.3315 242V157.642ZM-79.1258 60.9041L-125.83 69.157C-125.575 74.815 -125.022 80.3878 -124.256 85.9181L-75.34 77.2823C-76.9989 71.9648 -78.2751 66.5195 -79.1258 60.9041ZM151.291 42.8243C151.291 47.3762 150.993 51.8854 150.482 56.3097H237C236.872 50.6517 236.489 45.0365 235.851 39.5062H151.205C151.205 40.6122 151.291 41.7183 151.291 42.8243ZM-3.87991 151.899L-29.0611 221.155C-24.0844 223.75 -19.0227 226.175 -13.7908 228.344L12.3688 156.451C6.79659 155.344 1.39456 153.813 -3.83733 151.941L-3.87991 151.899ZM-38.6317 132.032L-79.9763 181.294C-76.2331 185.506 -72.2774 189.505 -68.1515 193.333L-24.9352 141.817C-29.7417 138.881 -34.3356 135.606 -38.6317 132.032ZM1.60724 233.917C6.92421 235.576 12.3687 236.98 17.8984 238.129L31.9351 158.62C26.2353 158.45 20.6633 157.897 15.1761 156.919L1.60724 233.875V233.917ZM-22.0002 143.561L-56.4967 203.373C-52.073 206.861 -47.5215 210.094 -42.7575 213.157L-6.77231 150.835C-12.0467 148.793 -17.1085 146.368 -21.9576 143.561H-22.0002ZM142.996 -0.226852L208.118 -37.8328C205.056 -42.5548 201.78 -47.1493 198.335 -51.5735L135.595 -15.3713C138.402 -10.5217 140.869 -5.50191 142.953 -0.226852H142.996ZM-60.9203 -21.7524L-94.8638 -41.3212C-98.0114 -36.6843 -100.904 -31.9197 -103.626 -26.985L-69.2574 -7.16101C-66.8329 -12.2234 -64.0255 -17.1155 -60.9203 -21.7524ZM-30.4222 -52.5945L-55.816 -82.8836C-60.2397 -79.4378 -64.4933 -75.8218 -68.5767 -71.9932L-43.4808 -42.0869C-39.3974 -45.9156 -35.0161 -49.4039 -30.3797 -52.5945H-30.4222ZM-47.0962 -38.6411L-76.9138 -63.6551C-80.742 -59.5712 -84.3576 -55.3171 -87.803 -50.8929L-57.9854 -25.8789C-54.6676 -30.3882 -51.0095 -34.6848 -47.0962 -38.6411ZM-11.5364 -63.2296L-31.9961 -98.6661C-36.9302 -95.9435 -41.6942 -93.0508 -46.3306 -89.9028L-26.3813 -55.3171C-21.6599 -58.295 -16.7257 -60.9324 -11.5789 -63.2296H-11.5364ZM8.92339 -70.0362L-5.79407 -110.45C-11.111 -108.536 -16.2578 -106.409 -21.3196 -104.026L-7.11267 -65.0164C-1.92331 -67.0584 3.43628 -68.7174 8.92339 -70.0362ZM-71.2991 -2.60913L-109.028 -16.3498C-111.41 -11.2875 -113.537 -6.09753 -115.451 -0.822479L-76.7861 13.2585C-75.3399 7.81326 -73.511 2.49576 -71.3417 -2.60913H-71.2991ZM-79.7636 56.2672C-80.2741 51.843 -80.5718 47.3761 -80.5718 42.7818C-80.5718 41.6757 -80.5292 40.5696 -80.4867 39.4636H-124.852C-125.49 44.9939 -125.872 50.6093 -126 56.2672H-79.8062H-79.7636ZM-77.8921 18.0656L-119.152 10.7912C-120.683 16.1513 -121.959 21.5965 -122.98 27.1694L-80.274 34.699C-79.8912 29.0411 -79.0831 23.4683 -77.8921 18.0656ZM51.3315 -71.9932V-121C45.6743 -120.872 40.0595 -120.49 34.5299 -119.851V-73.0991C34.8276 -73.0991 35.0829 -73.0991 35.3806 -73.0991C40.7827 -73.0991 46.0996 -72.7163 51.3315 -71.9932ZM134.191 -17.7537L188.382 -63.2296C184.553 -67.3561 180.512 -71.2698 176.344 -75.056L124.408 -31.4517C127.981 -27.1551 131.299 -22.5608 134.234 -17.7962L134.191 -17.7537ZM122.366 -33.749L164.902 -84.4576C160.436 -87.8608 155.757 -91.0088 150.993 -93.9866L110.371 -45.5753C114.667 -41.9168 118.666 -38.0031 122.366 -33.7915V-33.749ZM148.653 18.3208L223.346 -8.86261C221.177 -14.0951 218.795 -19.1576 216.158 -24.1349L143.932 2.15541C145.888 7.38792 147.462 12.748 148.653 18.3208ZM107.776 -47.7023L138.53 -101.006C133.553 -103.558 128.449 -105.898 123.217 -108.025L93.9097 -57.2315C98.7588 -54.3813 103.395 -51.1907 107.776 -47.6599V-47.7023ZM151.163 37.3365L233.172 22.8727C232.023 17.3424 230.62 11.8971 228.961 6.57956L149.164 20.6607C150.227 26.1059 150.908 31.6786 151.163 37.3365ZM90.7621 -59.0607L110.286 -112.705C104.969 -114.406 99.5245 -115.81 93.9949 -117.001L75.4492 -65.9949C80.7662 -64.038 85.8705 -61.6982 90.7621 -59.0182V-59.0607ZM30.1487 -72.9715L22.1945 -117.98C16.6223 -116.959 11.1777 -115.682 5.81824 -114.151L13.4322 -71.0147C18.8767 -72.0782 24.4489 -72.7162 30.1487 -72.9715ZM80.9364 -119.298C75.4067 -120.064 69.8345 -120.617 64.1773 -120.872L55.4574 -71.3125C61.0296 -70.334 66.5168 -68.9727 71.7912 -67.2285L80.9788 -119.256L80.9364 -119.298Z" fill="url(#paint0_linear_2144_6074)"/>
</g>
<defs>
<linearGradient id="paint0_linear_2144_6074" x1="236.022" y1="222.091" x2="-111.999" y2="-89.4793" gradientUnits="userSpaceOnUse">
<stop stop-color="#0D75D5" stop-opacity="0.1"/>
<stop offset="1" stop-color="#0D0F9C"/>
</linearGradient>
</defs>
</svg>
