<svg width="1062" height="696" viewBox="0 0 1062 696" fill="none" xmlns="http://www.w3.org/2000/svg">
<g opacity="0.1">
<path d="M879.462 523.346L737.434 354.071C747.289 345.13 757.651 336.595 768.319 328.568L909.635 496.928C898.968 505.057 888.91 513.896 879.462 523.346ZM876.414 526.597L707.058 384.451C698.118 394.307 689.584 404.671 681.558 415.339L850.914 557.485C858.635 546.512 867.169 536.25 876.414 526.597ZM988.777 455.168L916.442 256.53C903.438 259.984 890.637 264.049 878.141 268.621L951.695 470.612C963.582 464.618 975.976 459.436 988.777 455.168ZM947.327 472.848L839.028 285.284C826.938 291.177 815.154 297.578 803.775 304.488L913.293 494.185C924.062 486.26 935.44 479.147 947.327 472.949V472.848ZM848.375 561.042L657.48 450.8C650.572 462.179 644.171 473.966 638.279 486.057L828.056 595.587C833.948 583.496 840.755 572.015 848.273 560.94L848.375 561.042ZM810.48 641.513L600.689 604.529C598.556 617.636 597.032 630.946 596.016 644.46L802.251 680.834C804.08 667.422 806.823 654.315 810.48 641.513ZM826.126 599.652L621.617 525.175C617.046 537.672 612.982 550.474 609.528 563.48L811.699 637.042C815.662 624.138 820.436 611.641 826.126 599.652ZM957.486 247.69L993.755 453.441C1006.45 449.479 1019.46 446.43 1032.87 444.297L997.413 243.016C983.901 243.931 970.592 245.556 957.486 247.69ZM1288.07 539.196L1397.28 447.548C1390.17 436.067 1382.66 424.992 1374.53 414.323L1259.93 510.442C1269.99 519.383 1279.33 528.934 1288.07 539.196ZM1337.65 625.358L1452.35 583.598C1449.5 570.389 1446.05 557.384 1442.09 544.683L1321.6 588.577C1327.79 600.363 1333.28 612.657 1337.75 625.358H1337.65ZM1316.62 579.737L1430.91 513.795C1425.83 501.297 1420.25 489.105 1414.15 477.217L1294.17 546.512C1302.5 556.977 1310.02 568.154 1316.72 579.838L1316.62 579.737ZM1038.46 443.484C1050.95 441.757 1063.65 440.842 1076.55 440.842C1077.26 440.842 1077.87 440.842 1078.59 440.842V244.744C1065.38 243.219 1051.97 242.305 1038.46 242V443.484ZM1350.04 674.535L1461.59 654.823C1460.98 641.31 1459.66 627.999 1457.83 614.791L1341 635.417C1344.96 648.117 1348.01 661.123 1350.04 674.535ZM799.711 717.717C799.711 706.845 800.422 696.075 801.641 685.508H595C595.305 699.022 596.219 712.434 597.743 725.642H799.914C799.914 723.001 799.711 720.359 799.711 717.717ZM1170.32 457.201L1230.47 291.787C1218.58 285.589 1206.49 279.797 1194 274.616L1131.52 446.329C1144.82 448.971 1157.73 452.628 1170.22 457.099L1170.32 457.201ZM1253.33 504.65L1352.08 386.991C1343.14 376.932 1333.69 367.381 1323.83 358.237L1220.61 481.281C1232.09 488.292 1243.07 496.115 1253.33 504.65ZM1157.22 261.305C1144.52 257.343 1131.52 253.989 1118.31 251.246L1084.78 441.147C1098.4 441.553 1111.71 442.874 1124.81 445.211L1157.22 261.407V261.305ZM1213.6 477.115L1296 334.258C1285.43 325.926 1274.56 318.204 1263.18 310.889L1177.23 459.741C1189.83 464.618 1201.92 470.409 1213.5 477.115H1213.6ZM819.522 820.542L663.982 910.361C671.297 921.639 679.119 932.613 687.349 943.18L837.199 856.713C830.494 845.13 824.602 833.141 819.624 820.542H819.522ZM1306.56 871.954L1387.63 918.693C1395.15 907.618 1402.06 896.238 1408.56 884.452L1326.47 837.104C1320.68 849.195 1313.98 860.879 1306.56 871.954ZM1233.72 945.618L1294.37 1017.96C1304.94 1009.73 1315.1 1001.1 1324.85 991.951L1264.91 920.522C1255.16 929.666 1244.69 937.998 1233.62 945.618H1233.72ZM1273.54 912.292L1344.76 972.036C1353.9 962.282 1362.54 952.121 1370.77 941.554L1299.55 881.81C1291.63 892.58 1282.89 902.842 1273.54 912.292ZM1188.61 971.02L1237.48 1055.66C1249.26 1049.15 1260.64 1042.25 1271.72 1034.73L1224.07 952.121C1212.79 959.233 1201.01 965.533 1188.71 971.02H1188.61ZM1139.74 987.276L1174.9 1083.8C1187.6 1079.23 1199.89 1074.15 1211.98 1068.46L1178.05 975.287C1165.65 980.164 1152.85 984.127 1139.74 987.276ZM1331.35 826.232L1421.46 859.05C1427.15 846.959 1432.23 834.564 1436.8 821.964L1344.46 788.333C1341 801.339 1336.63 814.039 1331.45 826.232H1331.35ZM1351.57 685.61C1352.79 696.177 1353.5 706.845 1353.5 717.819C1353.5 720.461 1353.4 723.102 1353.29 725.744H1459.26C1460.78 712.535 1461.7 699.123 1462 685.61H1351.67H1351.57ZM1347.1 776.852L1445.64 794.226C1449.3 781.424 1452.35 768.418 1454.79 755.108L1352.79 737.124C1351.87 750.637 1349.94 763.948 1347.1 776.852ZM1038.46 991.951V1109C1051.97 1108.7 1065.38 1107.78 1078.59 1106.26V994.592C1077.87 994.592 1077.26 994.592 1076.55 994.592C1063.65 994.592 1050.95 993.678 1038.46 991.951ZM840.552 862.404L711.122 971.02C720.265 980.875 729.916 990.223 739.873 999.266L863.918 895.12C855.384 884.858 847.46 873.885 840.45 862.505L840.552 862.404ZM868.795 900.607L767.201 1021.72C777.869 1029.85 789.044 1037.37 800.422 1044.48L897.444 928.853C887.183 920.115 877.634 910.768 868.795 900.709V900.607ZM806.01 776.242L627.612 841.168C632.793 853.665 638.482 865.757 644.781 877.644L817.287 814.852C812.614 802.354 808.855 789.552 806.01 776.242ZM903.641 933.934L830.189 1061.25C842.076 1067.34 854.267 1072.93 866.763 1078.01L936.761 956.693C925.179 949.886 914.106 942.265 903.641 933.832V933.934ZM800.016 730.824L604.143 765.37C606.886 778.579 610.239 791.584 614.201 804.285L804.791 770.653C802.251 757.648 800.626 744.338 800.016 730.824ZM944.279 961.062L897.648 1089.19C910.347 1093.25 923.351 1096.6 936.558 1099.45L980.853 977.624C968.154 972.95 955.962 967.362 944.279 960.961V961.062ZM1089.05 994.287L1108.05 1101.79C1121.36 1099.35 1134.36 1096.3 1147.16 1092.64L1128.98 989.614C1115.97 992.154 1102.66 993.678 1089.05 994.287ZM967.747 1104.94C980.954 1106.76 994.263 1108.09 1007.77 1108.7L1028.6 990.325C1015.29 987.988 1002.19 984.736 989.59 980.57L967.646 1104.83L967.747 1104.94Z" fill="url(#paint0_linear_3507_1247)"/>
</g>
<g opacity="0.1">
<path d="M93.8999 64.2047L153.365 135.078C149.239 138.821 144.9 142.395 140.434 145.755L81.2668 75.2652C85.7331 71.862 89.9441 68.161 93.8999 64.2047ZM95.176 62.8434L166.083 122.358C169.826 118.231 173.399 113.892 176.759 109.425L105.852 49.911C102.62 54.5054 99.0467 58.802 95.176 62.8434ZM48.1314 92.7495L78.4169 175.917C83.8614 174.47 89.221 172.769 94.4529 170.854L63.657 86.2834C58.6803 88.7933 53.4909 90.9628 48.1314 92.7495ZM65.486 85.3475L110.829 163.878C115.891 161.41 120.825 158.73 125.589 155.837L79.7355 76.4139C75.2267 79.7321 70.4626 82.7099 65.486 85.3049V85.3475ZM106.916 48.422L186.841 94.5787C189.733 89.8142 192.413 84.8795 194.88 79.8171L115.423 33.9582C112.956 39.0206 110.106 43.8277 106.958 48.4646L106.916 48.422ZM122.782 14.7299L210.618 30.2146C211.511 24.7269 212.149 19.1541 212.575 13.4962L126.227 -1.73337C125.461 3.88201 124.313 9.36974 122.782 14.7299ZM116.231 32.2566L201.856 63.4389C203.77 58.2064 205.471 52.8463 206.917 47.4011L122.271 16.6017C120.612 22.0043 118.613 27.2368 116.231 32.2566ZM61.2324 179.618L46.0472 93.4726C40.7303 95.1317 35.2857 96.4081 29.6709 97.3014L44.5159 181.575C50.1731 181.192 55.7453 180.511 61.2324 179.618ZM-77.1788 57.5684L-122.905 95.9401C-119.927 100.747 -116.78 105.384 -113.377 109.851L-65.3963 69.6074C-69.6074 65.8638 -73.5207 61.865 -77.1788 57.5684ZM-97.9363 21.4938L-145.959 38.978C-144.768 44.5083 -143.322 49.9536 -141.663 55.2712L-91.2156 36.8935C-93.8102 31.9588 -96.1073 26.8114 -97.9789 21.4938H-97.9363ZM-89.1313 40.5946L-136.984 68.2036C-134.857 73.4361 -132.518 78.5409 -129.966 83.5181L-79.7311 54.5055C-83.219 50.1238 -86.3666 45.4443 -89.1739 40.5521L-89.1313 40.5946ZM27.3315 97.6417C22.0996 98.3649 16.7827 98.7478 11.3806 98.7478C11.0829 98.7478 10.8276 98.7478 10.5299 98.7478V180.851C16.0595 181.489 21.6743 181.872 27.3315 182V97.6417ZM-103.126 0.904136L-149.83 9.15705C-149.575 14.815 -149.022 20.3878 -148.256 25.9181L-99.34 17.2823C-100.999 11.9647 -102.275 6.51951 -103.126 0.904136ZM127.291 -17.1757C127.291 -12.6238 126.993 -8.11457 126.482 -3.69033H213C212.872 -9.34825 212.489 -14.9635 211.851 -20.4938H127.205C127.205 -19.3878 127.291 -18.2817 127.291 -17.1757ZM-27.8799 91.8987L-53.0611 161.155C-48.0844 163.75 -43.0227 166.175 -37.7908 168.344L-11.6312 96.4506C-17.2034 95.3445 -22.6054 93.813 -27.8373 91.9412L-27.8799 91.8987ZM-62.6317 72.0322L-103.976 121.294C-100.233 125.506 -96.2774 129.505 -92.1515 133.333L-48.9352 81.8165C-53.7417 78.8812 -58.3356 75.6056 -62.6317 72.0322ZM-22.3928 173.917C-17.0758 175.576 -11.6313 176.98 -6.10163 178.129L7.93511 98.6202C2.23532 98.45 -3.33674 97.897 -8.82385 96.9186L-22.3928 173.875V173.917ZM-46.0002 83.5607L-80.4967 143.373C-76.073 146.861 -71.5215 150.094 -66.7575 153.157L-30.7723 90.8351C-36.0467 88.7932 -41.1085 86.3684 -45.9576 83.5607H-46.0002ZM118.996 -60.2269L184.118 -97.8328C181.056 -102.555 177.78 -107.149 174.335 -111.574L111.595 -75.3713C114.402 -70.5217 116.869 -65.5019 118.953 -60.2269H118.996ZM-84.9204 -81.7524L-118.864 -101.321C-122.011 -96.6843 -124.904 -91.9197 -127.626 -86.985L-93.2575 -67.161C-90.8329 -72.2234 -88.0255 -77.1155 -84.9204 -81.7524ZM-54.4222 -112.594L-79.816 -142.884C-84.2397 -139.438 -88.4933 -135.822 -92.5767 -131.993L-67.4808 -102.087C-63.3974 -105.916 -59.0161 -109.404 -54.3797 -112.594H-54.4222ZM-71.0962 -98.6411L-100.914 -123.655C-104.742 -119.571 -108.358 -115.317 -111.803 -110.893L-81.9854 -85.8789C-78.6676 -90.3882 -75.0095 -94.6848 -71.0962 -98.6411ZM-35.5364 -123.23L-55.9961 -158.666C-60.9302 -155.944 -65.6942 -153.051 -70.3306 -149.903L-50.3814 -115.317C-45.6599 -118.295 -40.7257 -120.932 -35.5789 -123.23H-35.5364ZM-15.0766 -130.036L-29.7941 -170.45C-35.111 -168.536 -40.2578 -166.409 -45.3196 -164.026L-31.1127 -125.016C-25.9233 -127.058 -20.5637 -128.717 -15.0766 -130.036ZM-95.2991 -62.6091L-133.028 -76.3498C-135.41 -71.2875 -137.537 -66.0975 -139.451 -60.8225L-100.786 -46.7415C-99.3399 -52.1867 -97.511 -57.5042 -95.3417 -62.6091H-95.2991ZM-103.764 -3.73279C-104.274 -8.15702 -104.572 -12.6239 -104.572 -17.2183C-104.572 -18.3243 -104.529 -19.4304 -104.487 -20.5364H-148.852C-149.49 -15.0061 -149.872 -9.3907 -150 -3.73279H-103.806H-103.764ZM-101.892 -41.9344L-143.152 -49.2088C-144.683 -43.8487 -145.959 -38.4035 -146.98 -32.8306L-104.274 -25.301C-103.891 -30.9589 -103.083 -36.5317 -101.892 -41.9344ZM27.3315 -131.993V-181C21.6743 -180.872 16.0595 -180.49 10.5299 -179.851V-133.099C10.8276 -133.099 11.0829 -133.099 11.3806 -133.099C16.7827 -133.099 22.0996 -132.716 27.3315 -131.993ZM110.191 -77.7537L164.382 -123.23C160.553 -127.356 156.512 -131.27 152.344 -135.056L100.408 -91.4517C103.981 -87.1551 107.299 -82.5608 110.234 -77.7962L110.191 -77.7537ZM98.3661 -93.749L140.902 -144.458C136.436 -147.861 131.757 -151.009 126.993 -153.987L86.371 -105.575C90.6671 -101.917 94.6655 -98.0031 98.3661 -93.7915V-93.749ZM124.653 -41.6792L199.346 -68.8626C197.177 -74.0951 194.795 -79.1576 192.158 -84.1348L119.932 -57.8446C121.888 -52.6121 123.462 -47.252 124.653 -41.6792ZM83.7764 -107.702L114.53 -161.006C109.553 -163.558 104.449 -165.898 99.2169 -168.025L69.9097 -117.232C74.7588 -114.381 79.3952 -111.191 83.7764 -107.66V-107.702ZM127.163 -22.6635L209.172 -37.1273C208.023 -42.6576 206.62 -48.1029 204.961 -53.4204L125.164 -39.3393C126.227 -33.8941 126.908 -28.3214 127.163 -22.6635ZM66.7621 -119.061L86.286 -172.705C80.969 -174.406 75.5245 -175.81 69.9949 -177.001L51.4492 -125.995C56.7662 -124.038 61.8705 -121.698 66.7621 -119.018V-119.061ZM6.14868 -132.972L-1.80548 -177.98C-7.37766 -176.959 -12.8223 -175.682 -18.1818 -174.151L-10.5678 -131.015C-5.12326 -132.078 0.448892 -132.716 6.14868 -132.972ZM56.9364 -179.298C51.4067 -180.064 45.8345 -180.617 40.1773 -180.872L31.4574 -131.312C37.0295 -130.334 42.5168 -128.973 47.7912 -127.228L56.9788 -179.256L56.9364 -179.298Z" fill="url(#paint1_linear_3507_1247)"/>
</g>
<defs>
<linearGradient id="paint0_linear_3507_1247" x1="597.337" y1="289.551" x2="1428.56" y2="1033.72" gradientUnits="userSpaceOnUse">
<stop stop-color="#0D75D5" stop-opacity="0.1"/>
<stop offset="1" stop-color="#0D0F9C"/>
</linearGradient>
<linearGradient id="paint1_linear_3507_1247" x1="212.022" y1="162.091" x2="-135.999" y2="-149.479" gradientUnits="userSpaceOnUse">
<stop stop-color="#0D75D5" stop-opacity="0.1"/>
<stop offset="1" stop-color="#0D0F9C"/>
</linearGradient>
</defs>
</svg>
