<svg width="343" height="680" viewBox="0 0 343 680" fill="none" xmlns="http://www.w3.org/2000/svg">
<g opacity="0.1">
<path d="M47.9297 114.026L97.8933 173.575C94.4266 176.72 90.7812 179.723 87.0286 182.546L37.3151 123.319C41.0677 120.46 44.6059 117.35 47.9297 114.026ZM49.0018 112.882L108.579 162.887C111.725 159.42 114.727 155.774 117.55 152.021L57.9724 102.016C55.2563 105.876 52.2541 109.487 49.0018 112.882ZM9.47406 138.01L34.9205 207.889C39.4951 206.673 43.9984 205.244 48.3943 203.635L22.5189 132.577C18.3374 134.686 13.9772 136.509 9.47406 138.01ZM24.0557 131.791L62.1539 197.773C66.4069 195.7 70.5527 193.448 74.5555 191.018L36.0284 124.284C32.24 127.072 28.2372 129.574 24.0557 131.755V131.791ZM58.8659 100.765L126.02 139.547C128.451 135.544 130.702 131.397 132.775 127.144L66.0138 88.6123C63.9409 92.8658 61.5463 96.9048 58.9016 100.801L58.8659 100.765ZM72.1967 72.4562L145.999 85.4668C146.749 80.8559 147.285 76.1735 147.643 71.4196L75.0916 58.6235C74.4483 63.3416 73.4833 67.9525 72.1967 72.4562ZM66.6929 87.1826L138.636 113.383C140.245 108.986 141.674 104.482 142.889 99.9073L71.7678 74.029C70.374 78.5684 68.6943 82.9648 66.6929 87.1826ZM20.4817 210.998L7.72286 138.618C3.25544 140.012 -1.31923 141.084 -6.03683 141.835L6.43619 212.643C11.1895 212.321 15.8714 211.749 20.4817 210.998ZM-95.8142 108.45L-134.234 140.691C-131.732 144.73 -129.088 148.626 -126.228 152.379L-85.9143 118.565C-89.4525 115.42 -92.7406 112.06 -95.8142 108.45ZM-113.255 78.1394L-153.605 92.83C-152.604 97.4767 -151.389 102.052 -149.995 106.52L-107.608 91.0786C-109.788 86.9323 -111.718 82.6074 -113.291 78.1394H-113.255ZM-105.857 94.1883L-146.064 117.386C-144.277 121.782 -142.311 126.072 -140.167 130.254L-97.9587 105.876C-100.889 102.195 -103.534 98.2631 -105.893 94.1526L-105.857 94.1883ZM-8.00245 142.12C-12.3984 142.728 -16.8658 143.05 -21.4047 143.05C-21.6549 143.05 -21.8694 143.05 -22.1196 143.05V212.035C-17.4734 212.571 -12.7558 212.893 -8.00245 213V142.12ZM-117.615 60.8396L-156.857 67.7738C-156.643 72.5277 -156.178 77.2101 -155.535 81.8568L-114.434 74.6009C-115.828 70.1329 -116.901 65.5577 -117.615 60.8396ZM75.9851 45.6485C75.9851 49.4731 75.735 53.2619 75.3061 56.9792H148C147.893 52.2253 147.571 47.5072 147.035 42.8605H75.9136C75.9136 43.7899 75.9851 44.7192 75.9851 45.6485ZM-54.3922 137.295L-75.55 195.486C-71.3685 197.666 -67.1155 199.703 -62.7196 201.526L-40.7398 141.12C-45.4216 140.19 -49.9605 138.904 -54.3565 137.331L-54.3922 137.295ZM-83.5914 120.603L-118.33 161.994C-115.185 165.532 -111.861 168.892 -108.395 172.109L-72.0833 128.824C-76.1218 126.358 -79.9817 123.605 -83.5914 120.603ZM-49.7818 206.209C-45.3144 207.603 -40.7398 208.782 -36.0937 209.747L-24.2997 142.943C-29.0888 142.8 -33.7706 142.335 -38.3809 141.513L-49.7818 206.173V206.209ZM-69.6172 130.289L-98.602 180.545C-94.8851 183.476 -91.0608 186.192 -87.058 188.766L-56.8225 136.401C-61.2542 134.686 -65.5072 132.648 -69.5815 130.289H-69.6172ZM69.0159 9.47606L123.733 -22.1212C121.16 -26.0888 118.408 -29.9491 115.513 -33.6665L62.7973 -3.24864C65.1561 0.826124 67.2289 5.04386 68.9801 9.47606H69.0159ZM-102.319 -8.61018L-130.839 -25.0522C-133.483 -21.1562 -135.914 -17.1529 -138.201 -13.0067L-109.324 3.64984C-107.287 -0.603645 -104.928 -4.71413 -102.319 -8.61018ZM-76.6936 -34.5243L-98.03 -59.9738C-101.747 -57.0786 -105.321 -54.0404 -108.752 -50.8234L-87.6657 -25.6956C-84.2347 -28.9125 -80.5535 -31.8435 -76.6579 -34.5243H-76.6936ZM-90.7035 -22.8004L-115.757 -43.8176C-118.973 -40.3862 -122.011 -36.8119 -124.906 -33.0946L-99.8527 -12.0773C-97.0651 -15.8661 -93.9915 -19.4762 -90.7035 -22.8004ZM-60.8254 -43.4602L-78.016 -73.2346C-82.1618 -70.947 -86.1646 -68.5165 -90.0602 -65.8715L-73.2984 -36.8119C-69.3313 -39.314 -65.1855 -41.53 -60.8611 -43.4602H-60.8254ZM-43.6346 -49.1792L-56.0005 -83.1356C-60.468 -81.5271 -64.7924 -79.74 -69.0454 -77.7384L-57.1085 -44.9614C-52.7483 -46.6771 -48.245 -48.0711 -43.6346 -49.1792ZM-111.039 7.47443L-142.74 -4.07079C-144.741 0.182701 -146.528 4.5434 -148.137 8.9756L-115.649 20.8067C-114.434 16.2315 -112.898 11.7637 -111.075 7.47443H-111.039ZM-118.151 56.9435C-118.58 53.2262 -118.83 49.4731 -118.83 45.6128C-118.83 44.6834 -118.795 43.7541 -118.759 42.8248H-156.035C-156.571 47.4714 -156.893 52.1896 -157 56.9435H-118.187H-118.151ZM-116.579 24.8458L-151.246 18.7336C-152.533 23.2373 -153.605 27.8125 -154.463 32.4949L-118.58 38.8215C-118.259 34.0676 -117.579 29.3852 -116.579 24.8458ZM-8.00245 -50.8234V-92C-12.7558 -91.8928 -17.4734 -91.5711 -22.1196 -91.035V-51.7527C-21.8694 -51.7527 -21.6549 -51.7527 -21.4047 -51.7527C-16.8658 -51.7527 -12.3984 -51.4311 -8.00245 -50.8234ZM61.6178 -5.25038L107.15 -43.4602C103.933 -46.9273 100.538 -50.2157 97.0356 -53.3969L53.3978 -16.7597C56.3999 -13.1496 59.1876 -9.28933 61.6536 -5.28605L61.6178 -5.25038ZM51.6823 -18.6899L87.4217 -61.2963C83.669 -64.1558 79.7377 -66.8008 75.7349 -69.3028L41.6037 -28.6266C45.2134 -25.5527 48.573 -22.2643 51.6823 -18.7257V-18.6899ZM73.7692 25.0602L136.528 2.22012C134.705 -2.17634 132.704 -6.42992 130.488 -10.6119L69.8022 11.4777C71.4462 15.8742 72.7685 20.3778 73.7692 25.0602ZM39.4237 -30.4138L65.2633 -75.2005C61.0818 -77.3451 56.7931 -79.311 52.3971 -81.0982L27.7726 -38.4204C31.8469 -36.0256 35.7425 -33.3448 39.4237 -30.3781V-30.4138ZM75.8778 41.0376L144.783 28.8848C143.819 24.2381 142.639 19.6629 141.245 15.1949L74.1982 27.0262C75.0916 31.6013 75.6634 36.2837 75.8778 41.0376ZM25.1279 -39.9574L41.5323 -85.03C37.0649 -86.4597 32.4903 -87.6393 27.8442 -88.6401L12.2617 -45.7836C16.7292 -44.1394 21.0179 -42.1734 25.1279 -39.9216V-39.9574ZM-25.8007 -51.6455L-32.484 -89.4622C-37.1658 -88.6044 -41.7405 -87.532 -46.2436 -86.2452L-39.8463 -50.0013C-35.2716 -50.8949 -30.5898 -51.431 -25.8007 -51.6455ZM16.8721 -90.5703C12.226 -91.2137 7.54415 -91.6783 2.79081 -91.8928L-4.53583 -50.2515C0.146027 -49.4294 4.75651 -48.2856 9.18819 -46.8201L16.9078 -90.5345L16.8721 -90.5703Z" fill="url(#paint0_linear_3507_1365)"/>
</g>
<g opacity="0.1">
<path d="M346.026 594.07L405.575 544.107C408.72 547.573 411.723 551.219 414.546 554.971L355.319 604.685C352.46 600.932 349.35 597.394 346.026 594.07ZM344.882 592.998L394.887 533.421C391.42 530.275 387.774 527.273 384.021 524.45L334.016 584.028C337.876 586.744 341.487 589.746 344.882 592.998ZM370.01 632.526L439.889 607.08C438.673 602.505 437.244 598.002 435.635 593.606L364.577 619.481C366.686 623.663 368.509 628.023 370.01 632.526ZM363.791 617.944L429.773 579.846C427.7 575.593 425.448 571.447 423.018 567.445L356.284 605.972C359.072 609.76 361.574 613.763 363.755 617.944L363.791 617.944ZM332.765 583.134L371.547 515.98C367.544 513.549 363.397 511.298 359.144 509.225L320.612 575.986C324.866 578.059 328.905 580.454 332.801 583.098L332.765 583.134ZM304.456 569.803L317.467 496.001C312.856 495.251 308.174 494.715 303.42 494.357L290.623 566.908C295.342 567.552 299.953 568.517 304.456 569.803ZM319.183 575.307L345.383 503.364C340.986 501.755 336.482 500.326 331.907 499.111L306.029 570.232C310.568 571.626 314.965 573.306 319.183 575.307ZM442.998 621.518L370.618 634.277C372.012 638.745 373.084 643.319 373.835 648.037L444.643 635.564C444.321 630.81 443.749 626.129 442.998 621.518ZM340.45 737.814L372.691 776.234C376.73 773.732 380.626 771.088 384.379 768.228L350.565 727.914C347.42 731.452 344.06 734.741 340.45 737.814ZM310.139 755.255L324.83 795.605C329.477 794.604 334.052 793.389 338.52 791.995L323.079 749.608C318.932 751.788 314.607 753.718 310.139 755.291L310.139 755.255ZM326.188 747.857L349.386 788.064C353.782 786.277 358.072 784.311 362.254 782.167L337.876 739.959C334.195 742.889 330.263 745.534 326.153 747.893L326.188 747.857ZM374.12 650.002C374.728 654.398 375.05 658.866 375.05 663.405C375.05 663.655 375.05 663.869 375.05 664.12L444.035 664.12C444.571 659.473 444.893 654.756 445 650.002L374.12 650.002ZM292.84 759.615L299.774 798.857C304.528 798.643 309.21 798.178 313.857 797.535L306.601 756.434C302.133 757.828 297.558 758.901 292.84 759.615ZM277.649 566.015C281.473 566.015 285.262 566.265 288.979 566.694L288.979 494C284.225 494.107 279.507 494.429 274.861 494.965L274.861 566.086C275.79 566.086 276.719 566.015 277.649 566.015ZM369.295 696.392L427.486 717.55C429.666 713.368 431.703 709.116 433.526 704.72L373.12 682.74C372.19 687.422 370.904 691.961 369.331 696.356L369.295 696.392ZM352.603 725.591L393.994 760.33C397.532 757.185 400.892 753.861 404.109 750.395L360.824 714.083C358.357 718.122 355.605 721.982 352.603 725.591ZM438.209 691.782C439.603 687.314 440.782 682.74 441.747 678.094L374.943 666.3C374.8 671.089 374.335 675.771 373.513 680.381L438.173 691.782L438.209 691.782ZM362.289 711.617L412.545 740.602C415.476 736.885 418.192 733.061 420.766 729.058L368.401 698.822C366.686 703.254 364.648 707.507 362.289 711.581L362.289 711.617ZM241.476 572.984L209.879 518.267C205.911 520.84 202.051 523.592 198.334 526.487L228.751 579.203C232.826 576.844 237.044 574.771 241.476 573.02L241.476 572.984ZM223.39 744.319L206.948 772.839C210.844 775.483 214.847 777.914 218.993 780.201L235.65 751.324C231.396 749.287 227.286 746.928 223.39 744.319ZM197.476 718.694L172.026 740.03C174.921 743.747 177.96 747.321 181.177 750.752L206.304 729.666C203.087 726.235 200.156 722.553 197.476 718.658L197.476 718.694ZM209.2 732.703L188.182 757.757C191.614 760.973 195.188 764.011 198.905 766.906L219.923 741.853C216.134 739.065 212.524 735.991 209.2 732.703ZM188.54 702.825L158.765 720.016C161.053 724.162 163.484 728.165 166.129 732.06L195.188 715.298C192.686 711.331 190.47 707.186 188.54 702.861L188.54 702.825ZM182.821 685.635L148.864 698.001C150.473 702.468 152.26 706.792 154.262 711.045L187.039 699.108C185.323 694.748 183.929 690.245 182.821 685.635ZM239.474 753.039L227.929 784.74C232.183 786.741 236.543 788.528 240.976 790.137L252.807 757.649C248.232 756.434 243.764 754.898 239.474 753.075L239.474 753.039ZM288.944 760.151C285.226 760.58 281.473 760.83 277.613 760.83C276.683 760.83 275.754 760.795 274.825 760.759L274.825 798.035C279.471 798.571 284.19 798.893 288.944 799L288.944 760.187L288.944 760.151ZM256.846 758.579L250.734 793.246C255.237 794.533 259.813 795.605 264.495 796.463L270.821 760.58C266.068 760.258 261.385 759.579 256.846 758.579ZM181.177 650.002L140 650.002C140.107 654.756 140.429 659.473 140.965 664.12L180.247 664.12C180.247 663.869 180.247 663.655 180.247 663.405C180.247 658.866 180.569 654.398 181.177 650.002ZM226.75 580.382L188.54 534.85C185.073 538.067 181.784 541.462 178.603 544.964L215.24 588.602C218.85 585.6 222.711 582.812 226.714 580.346L226.75 580.382ZM213.31 590.318L170.704 554.578C167.844 558.331 165.199 562.262 162.697 566.265L203.373 600.396C206.447 596.787 209.736 593.427 213.274 590.318L213.31 590.318ZM257.06 568.231L234.22 505.472C229.824 507.295 225.57 509.296 221.388 511.512L243.478 572.198C247.874 570.554 252.378 569.231 257.06 568.231ZM201.586 602.576L156.8 576.737C154.655 580.918 152.689 585.207 150.902 589.603L193.58 614.227C195.974 610.153 198.655 606.257 201.622 602.576L201.586 602.576ZM273.038 566.122L260.885 497.217C256.238 498.181 251.663 499.361 247.195 500.755L259.026 567.802C263.601 566.908 268.284 566.337 273.038 566.122ZM192.043 616.872L146.97 600.468C145.54 604.935 144.361 609.51 143.36 614.156L186.216 629.738C187.861 625.271 189.827 620.982 192.078 616.872L192.043 616.872ZM180.355 667.801L142.538 674.484C143.396 679.166 144.468 683.74 145.755 688.244L181.999 681.846C181.105 677.272 180.569 672.59 180.355 667.801ZM141.43 625.128C140.786 629.774 140.322 634.456 140.107 639.209L181.748 646.536C182.571 641.854 183.714 637.243 185.18 632.812L141.465 625.092L141.43 625.128Z" fill="url(#paint1_linear_3507_1365)"/>
</g>
<defs>
<linearGradient id="paint0_linear_3507_1365" x1="147.178" y1="196.272" x2="-145.236" y2="-65.5157" gradientUnits="userSpaceOnUse">
<stop stop-color="#0D75D5" stop-opacity="0.1"/>
<stop offset="1" stop-color="#0D0F9C"/>
</linearGradient>
<linearGradient id="paint1_linear_3507_1365" x1="428.272" y1="494.822" x2="166.484" y2="787.236" gradientUnits="userSpaceOnUse">
<stop stop-color="#0D75D5" stop-opacity="0.1"/>
<stop offset="1" stop-color="#0D0F9C"/>
</linearGradient>
</defs>
</svg>
