<svg width="616" height="359" viewBox="0 0 616 359" fill="none" xmlns="http://www.w3.org/2000/svg">
<g clip-path="url(#clip0_3508_2233)">
<path d="M320.496 66.8394L296.418 31.1689L272.289 66.8394H282.218V106.479H310.566V66.8394H320.496Z" fill="#6985D1" stroke="#141516" stroke-miterlimit="10" stroke-linecap="round" stroke-linejoin="round"/>
<path d="M300.182 127.862C313.73 125.515 322.938 111.843 320.747 97.3242C318.557 82.8057 305.798 72.939 292.25 75.2862C278.702 77.6334 269.494 91.3056 271.685 105.824C273.875 120.342 286.634 130.209 300.182 127.862Z" fill="white" stroke="#141516" stroke-miterlimit="10" stroke-linecap="round" stroke-linejoin="round"/>
<path d="M315.101 111.798C320.358 100.624 316.167 86.9982 305.74 81.3642C295.312 75.7302 282.597 80.2214 277.34 91.3955C272.082 102.57 276.273 116.195 286.701 121.829C297.128 127.463 309.843 122.972 315.101 111.798Z" fill="white" stroke="#141516" stroke-miterlimit="10" stroke-linecap="round" stroke-linejoin="round"/>
<path d="M303.312 104.991C303.312 99.0368 295.441 98.9265 295.441 96.4456C295.441 95.1224 296.058 94.7365 297.396 94.7365C298.527 94.7365 299.453 95.2327 300.585 96.2802L303.158 93.0825C301.974 91.7042 300.482 90.7119 298.579 90.3259V86.9629H295.183V90.3811C292.251 91.0427 290.502 93.3031 290.502 96.611C290.502 102.345 298.373 102.676 298.373 105.267C298.373 106.535 297.756 107.086 296.264 107.086C294.977 107.086 293.691 106.59 292.045 105.267L289.781 109.071C291.273 110.504 293.434 111.331 295.183 111.552V114.805H298.579V111.386C301.717 110.559 303.312 108.134 303.312 104.991Z" fill="#6985D1" stroke="#141516" stroke-miterlimit="10" stroke-linecap="round" stroke-linejoin="round"/>
<path d="M446.52 291.816H451.152V244H446.52V291.816Z" fill="#141516" stroke="#141516" stroke-miterlimit="10" stroke-linecap="round" stroke-linejoin="round"/>
<path d="M469.632 245.694L477.785 246.715L482.966 199.223L474.812 198.202L469.632 245.694Z" fill="#141516" stroke="#141516" stroke-miterlimit="10" stroke-linecap="round" stroke-linejoin="round"/>
<path d="M442.93 293.774V285.674H454.715V293.861L501.775 314.068V323.649H498.524V316.332L448.701 304.226L400.096 316.332V323.649H397.008V314.068L442.93 293.774Z" fill="#8C8F9D" stroke="#141516" stroke-miterlimit="10" stroke-linecap="round" stroke-linejoin="round"/>
<path d="M437.254 259.257H460.418V244.015H437.254V259.257Z" fill="#141516" stroke="#141516" stroke-miterlimit="10" stroke-linecap="round" stroke-linejoin="round"/>
<path d="M501.773 323.997C501.773 321.035 503.968 318.684 506.731 318.684C509.495 318.684 511.689 321.035 511.689 323.997C511.689 326.958 509.495 329.31 506.731 329.31C503.968 329.31 501.773 326.958 501.773 323.997Z" fill="#141516" stroke="#141516" stroke-miterlimit="10" stroke-linecap="round" stroke-linejoin="round"/>
<path d="M504.617 323.997C504.617 322.691 505.593 321.732 506.73 321.732C507.868 321.732 508.844 322.778 508.844 323.997C508.844 325.303 507.868 326.262 506.73 326.262C505.593 326.262 504.617 325.216 504.617 323.997Z" fill="white" stroke="#141516" stroke-miterlimit="10" stroke-linecap="round" stroke-linejoin="round"/>
<path d="M386.602 323.998C386.602 321.036 388.796 318.685 391.56 318.685C394.323 318.685 396.517 321.036 396.517 323.998C396.517 326.959 394.323 329.311 391.56 329.311C388.796 329.311 386.602 326.959 386.602 323.998Z" fill="#141516" stroke="#141516" stroke-miterlimit="10" stroke-linecap="round" stroke-linejoin="round"/>
<path d="M391.641 326.262C392.808 326.262 393.754 325.248 393.754 323.997C393.754 322.746 392.808 321.732 391.641 321.732C390.473 321.732 389.527 322.746 389.527 323.997C389.527 325.248 390.473 326.262 391.641 326.262Z" fill="white" stroke="#141516" stroke-miterlimit="10" stroke-linecap="round" stroke-linejoin="round"/>
<path d="M446.666 323.91H450.648L452.599 295.255H444.715L446.666 323.91Z" fill="#8C8F9D" stroke="#141516" stroke-miterlimit="10" stroke-linecap="round" stroke-linejoin="round"/>
<path d="M446.927 329.566H450.828V317.721H446.927V329.566Z" fill="#141516" stroke="#141516" stroke-miterlimit="10" stroke-linecap="round" stroke-linejoin="round"/>
<path d="M479.664 222.005C489.255 222.963 497.789 215.473 498.765 205.108L504.21 144.226C505.104 133.949 498.115 124.803 488.443 123.758C478.852 122.8 470.318 130.291 469.342 140.655L463.897 201.537C463.003 211.815 470.074 220.96 479.664 222.005Z" fill="#8C8F9D" stroke="#141516" stroke-miterlimit="10" stroke-linecap="round" stroke-linejoin="round"/>
<path d="M475.52 221.569C485.111 222.528 493.645 215.037 494.62 204.672L500.066 143.791C500.96 133.513 493.97 124.368 484.298 123.323C474.707 122.365 466.173 129.855 465.198 140.22L459.752 201.101C458.858 211.379 465.929 220.524 475.52 221.569Z" fill="#8C8F9D" stroke="#141516" stroke-miterlimit="10" stroke-linecap="round" stroke-linejoin="round"/>
<path d="M399.445 248.744L481.048 251.008C482.917 251.096 484.543 249.441 484.624 247.437L485.03 233.415C485.112 231.411 483.567 229.669 481.698 229.582L400.095 227.318C398.226 227.231 396.6 228.886 396.519 230.889L396.112 244.912C396.031 247.002 397.575 248.657 399.445 248.744Z" fill="#8C8F9D" stroke="#141516" stroke-miterlimit="10" stroke-linecap="round" stroke-linejoin="round"/>
<path d="M433.582 249.441L481.048 251.009C482.917 251.096 484.543 249.441 484.624 247.438L485.031 233.415C485.112 231.412 483.568 229.67 481.698 229.583L434.232 228.015C432.363 227.928 430.737 229.583 430.656 231.586L430.249 245.609C430.168 247.699 431.631 249.354 433.582 249.441Z" fill="#8C8F9D" stroke="#141516" stroke-miterlimit="10" stroke-linecap="round" stroke-linejoin="round"/>
<path d="M393.998 308.58L393.592 311.803C393.592 311.803 390.015 319.555 388.552 320.861C387.171 322.167 378.311 326.261 376.686 326.871C375.06 327.48 377.905 329.484 381.725 329.658C385.545 329.832 392.535 329.832 394.973 329.222C397.412 328.613 401.963 324.955 403.02 324.693L403.833 327.48C403.833 327.48 408.222 325.738 409.847 325.303C411.473 324.868 414.074 322.69 414.074 322.69C414.074 322.69 412.042 316.245 410.904 313.893C409.685 311.541 408.059 310.061 408.059 310.061L405.052 306.229L393.998 308.58Z" fill="#141516" stroke="#141516" stroke-miterlimit="10" stroke-linecap="round" stroke-linejoin="round"/>
<path d="M418.299 185.859L411.716 190.127L397.248 194.656C397.248 194.656 351.57 203.715 348.969 206.937C346.369 210.16 347.344 212.947 349.538 217.041C351.733 221.134 390.421 311.629 390.421 311.629L406.433 308.232L379.53 221.57C379.53 221.57 430.085 232.544 438.863 230.802C447.722 229.06 458.938 218.957 460.889 211.292C462.84 203.627 453.655 191.347 453.655 191.347L418.299 185.859Z" fill="#6985D1" stroke="#141516" stroke-miterlimit="10" stroke-linecap="round" stroke-linejoin="round"/>
<path d="M368.234 213.121C368.234 213.121 378.313 218.434 380.182 224.27" stroke="#141516" stroke-miterlimit="10" stroke-linecap="round" stroke-linejoin="round"/>
<path d="M470.642 114.09L448.941 112L417.242 188.908L438.131 192.74L470.642 114.09Z" fill="white" stroke="#141516" stroke-miterlimit="10" stroke-linecap="round" stroke-linejoin="round"/>
<path d="M449.348 119.142C449.348 119.142 417.65 187.775 417.244 188.908C416.837 189.953 407.815 192.74 405.783 193.175C403.751 193.611 397.168 194.656 397.168 194.656L408.384 186.469L416.431 164.346L406.596 158.946C406.596 158.946 424.64 129.942 428.623 120.1C432.605 110.258 434.231 107.645 438.213 107.384C442.196 107.209 453.656 107.993 453.656 107.993L449.348 119.142Z" fill="#6985D1" stroke="#141516" stroke-miterlimit="10" stroke-linecap="round" stroke-linejoin="round"/>
<path d="M444.958 133.688L445.365 138.652C445.365 138.652 424.314 179.066 424.151 179.937C423.989 180.808 425.777 186.817 425.777 186.817L433.173 180.982L447.234 139.523L451.054 137.171L451.135 129.507L444.958 133.688Z" fill="#141516" stroke="#141516" stroke-miterlimit="10" stroke-linecap="round" stroke-linejoin="round"/>
<path d="M453.332 59.3927C453.332 59.3927 445.854 78.7285 444.229 84.5641C442.603 90.3997 441.384 99.9805 441.709 101.026C442.034 102.071 444.229 105.816 447.967 105.99C451.787 106.164 455.12 106.164 455.12 106.164L449.349 119.142C449.349 119.142 449.999 129.245 450.975 129.42C451.95 129.594 466.499 117.574 466.824 117.052C467.149 116.529 476.415 95.2772 476.415 95.2772C476.415 95.2772 484.705 90.8352 485.193 86.9158C485.68 82.9963 483.079 81.0802 483.079 81.0802V76.2898L486.737 64.6186C486.737 64.6186 477.634 58.2605 467.555 55.5604C457.477 52.8604 455.282 54.6894 455.282 54.6894L453.332 59.3927Z" fill="white" stroke="#141516" stroke-miterlimit="10" stroke-linecap="round" stroke-linejoin="round"/>
<path d="M469.994 48.5923C469.994 48.5923 455.12 44.3245 448.455 50.5085C441.871 56.6925 459.021 66.6216 464.629 67.4926C470.237 68.3636 477.227 67.1442 475.52 68.712C473.895 70.2798 470.237 72.8056 472.026 74.3734C473.814 75.9412 475.846 76.6379 475.846 76.6379C475.846 76.6379 468.043 94.9285 466.742 97.0189C465.442 99.1093 462.922 98.9351 461.459 98.4125C459.996 97.8899 452.844 93.0995 450.568 92.2285C448.292 91.3575 443.985 88.6575 442.928 91.5317C441.953 94.406 439.433 106.425 443.091 109.038C446.748 111.738 464.467 104.945 467.068 103.029C469.75 101.113 470.563 97.5415 471.05 96.8447C471.538 96.1479 478.69 83.5187 479.341 82.6477C479.991 81.7767 482.998 80.9057 482.998 80.9057C482.998 80.9057 488.931 68.1023 489.419 63.2248C490.069 58.3473 474.464 48.4181 469.994 48.5923Z" fill="#141516" stroke="#141516" stroke-miterlimit="10" stroke-linecap="round" stroke-linejoin="round"/>
<path d="M454.472 73.2412L454.146 81.0801C454.146 81.0801 446.344 90.4867 446.344 91.5318C446.344 92.577 455.609 91.3576 455.609 91.3576" stroke="#141516" stroke-miterlimit="10" stroke-linecap="round" stroke-linejoin="round"/>
<path d="M453.33 71.4987C453.33 71.4987 452.355 69.4083 450.16 70.1051" stroke="#141516" stroke-miterlimit="10" stroke-linecap="round" stroke-linejoin="round"/>
<path d="M460.238 75.8542C460.238 75.8542 465.034 75.3316 466.497 79.251" stroke="#141516" stroke-miterlimit="10" stroke-linecap="round" stroke-linejoin="round"/>
<path d="M447.398 95.5381C447.398 95.5381 451.706 98.4123 454.551 98.4123" stroke="white" stroke-miterlimit="10" stroke-linecap="round" stroke-linejoin="round"/>
<path d="M461.863 83.606C461.376 84.5641 460.563 85.0867 459.994 84.8254C459.425 84.477 459.344 83.5189 459.75 82.5608C460.238 81.6027 461.051 81.0802 461.619 81.3414C462.27 81.6027 462.351 82.6479 461.863 83.606Z" fill="#141516"/>
<path d="M451.543 79.2505C451.055 80.2086 450.243 80.7312 449.674 80.4699C449.105 80.1215 449.023 79.1634 449.43 78.2054C449.917 77.2473 450.73 76.7247 451.299 76.986C451.868 77.2473 452.031 78.2924 451.543 79.2505Z" fill="#141516"/>
<path d="M379.776 301.438L378.394 310.497L375.387 311.368C375.387 311.368 372.542 315.026 371.973 315.897C371.404 316.768 363.926 322.516 361.976 323.649C359.944 324.694 354.986 325.129 355.148 326.697C355.311 328.178 365.958 329.484 372.786 329.745C379.613 329.92 383.433 327.568 383.433 327.568L384.002 329.049L390.992 328.439C390.992 328.439 390.586 321.384 390.829 318.336C390.992 315.287 390.423 311.019 390.423 311.019L390.017 304.748L379.776 301.438Z" fill="#141516" stroke="#141516" stroke-miterlimit="10" stroke-linecap="round" stroke-linejoin="round"/>
<path d="M436.098 195.963C436.098 195.963 379.122 203.453 377.984 205.021C376.765 206.502 377.822 251.009 377.822 251.009L371.238 303.094L391.72 309.713C391.72 309.713 398.141 265.816 400.336 253.97C402.53 242.125 403.506 227.318 403.506 227.318C403.506 227.318 434.96 235.07 445.77 228.625C456.58 222.179 454.386 214.254 454.386 214.254" fill="#6985D1"/>
<path d="M436.098 195.963C436.098 195.963 379.122 203.453 377.984 205.021C376.765 206.502 377.822 251.009 377.822 251.009L371.238 303.094L391.72 309.713C391.72 309.713 398.141 265.816 400.336 253.97C402.53 242.125 403.506 227.318 403.506 227.318C403.506 227.318 434.96 235.07 445.77 228.625C456.58 222.179 454.386 214.254 454.386 214.254" stroke="#141516" stroke-miterlimit="10" stroke-linecap="round" stroke-linejoin="round"/>
<path d="M378.879 249.267C378.879 249.267 381.48 236.812 381.967 230.105" stroke="#141516" stroke-miterlimit="10" stroke-linecap="round" stroke-linejoin="round"/>
<path d="M399.198 220.177C398.467 219.219 397.735 218.348 397.004 217.912" stroke="#141516" stroke-miterlimit="10" stroke-linecap="round" stroke-linejoin="round"/>
<path d="M403.424 227.319C403.424 227.319 402.286 224.88 400.742 222.441" stroke="#141516" stroke-miterlimit="10" stroke-linecap="round" stroke-linejoin="round"/>
<path d="M469.83 109.996C469.83 109.996 447.154 154.677 442.358 166.087C437.563 177.497 431.142 193.349 431.142 195.091C431.142 196.833 426.915 240.818 428.297 241.688C429.679 242.559 450.73 235.243 460.564 231.15C470.399 227.056 470.805 224.095 471.618 221.656C472.431 219.304 472.187 188.82 472.187 188.82C472.187 188.82 492.669 126.545 492.425 123.758C492.263 120.97 469.83 109.996 469.83 109.996Z" fill="#6985D1" stroke="#141516" stroke-miterlimit="10" stroke-linecap="round" stroke-linejoin="round"/>
<path d="M452.601 155.2C448.862 159.12 445.773 161.994 445.773 161.994" stroke="#141516" stroke-miterlimit="10" stroke-linecap="round" stroke-linejoin="round"/>
<path d="M477.067 114.961C477.067 114.961 467.639 134.732 462.843 142.658C460.893 145.794 457.885 149.539 454.797 152.849" stroke="#141516" stroke-miterlimit="10" stroke-linecap="round" stroke-linejoin="round"/>
<path d="M446.91 110.78C446.91 110.78 437.157 128.287 434.312 138.565C431.467 148.842 430.898 154.242 430.898 154.242" stroke="#141516" stroke-miterlimit="10" stroke-linecap="round" stroke-linejoin="round"/>
<path d="M441.707 135.777L450.973 129.419L451.379 144.4" stroke="#141516" stroke-miterlimit="10" stroke-linecap="round" stroke-linejoin="round"/>
<path d="M461.539 202.931L464.628 202.408" stroke="#141516" stroke-miterlimit="10" stroke-linecap="round" stroke-linejoin="round"/>
<path d="M463.571 198.575L441.707 201.362V206.24L457.312 203.627" stroke="#141516" stroke-miterlimit="10" stroke-linecap="round" stroke-linejoin="round"/>
<path d="M433.094 117.575C433.094 117.575 436.67 109.388 438.539 109.213C440.409 109.039 444.391 109.213 444.391 110.955C444.391 112.697 442.197 112.871 442.197 112.871H439.19L437.808 116.704L433.094 117.575Z" fill="white" stroke="#141516" stroke-miterlimit="10" stroke-linecap="round" stroke-linejoin="round"/>
<path d="M428.133 132.991L429.514 124.63C429.514 124.63 430.083 117.313 431.14 116.878C432.115 116.442 441.381 116.704 441.381 116.704C441.381 116.704 441.543 125.326 440.812 127.417C439.999 129.594 436.423 130.465 436.423 130.465C436.423 130.465 435.61 133.514 435.041 134.298C434.472 135.169 432.197 136.214 432.197 136.214L431.628 137.956L426.426 134.298L428.133 132.991Z" fill="white" stroke="#141516" stroke-miterlimit="10" stroke-linecap="round" stroke-linejoin="round"/>
<path d="M436.342 130.465L435.285 126.372L439.105 126.11" fill="white"/>
<path d="M436.342 130.465L435.285 126.372L439.105 126.11" stroke="#141516" stroke-miterlimit="10" stroke-linecap="round" stroke-linejoin="round"/>
<path d="M426.102 132.382L434.311 138.566L431.142 142.224L424.07 135.343L426.102 132.382Z" fill="white" stroke="#141516" stroke-miterlimit="10" stroke-linecap="round" stroke-linejoin="round"/>
<path d="M424.069 135.343L433.497 142.833L415.454 172.272C415.454 172.272 412.446 173.143 409.033 171.837C405.619 170.53 402.449 163.214 402.449 162.343C402.449 161.559 424.069 135.343 424.069 135.343Z" fill="#6985D1" stroke="#141516" stroke-miterlimit="10" stroke-linecap="round" stroke-linejoin="round"/>
<path d="M416.916 169.571C416.916 169.571 413.909 163.561 413.747 161.819C413.584 160.077 413.34 156.681 412.365 155.374C411.39 154.068 410.17 153.197 409.764 151.281C409.358 149.364 407.569 150.235 407.326 152.151C407.163 154.068 408.707 155.984 408.707 155.984C408.707 155.984 403.668 154.242 402.855 154.677C402.043 155.113 400.417 155.723 400.823 157.29C401.23 158.771 401.799 160.077 401.799 160.077C401.799 160.077 398.629 164.607 398.629 166.697C398.629 168.787 400.823 172.271 402.449 173.578C404.075 174.884 409.683 176.191 409.683 176.191L416.916 169.571Z" fill="white" stroke="#141516" stroke-miterlimit="10" stroke-linecap="round" stroke-linejoin="round"/>
<path d="M474.708 125.326L456.583 165.653L412.287 168.266C412.287 168.266 408.467 169.137 407.654 173.23C406.841 177.324 407.085 179.24 407.085 179.24C407.085 179.24 436.589 183.072 445.773 183.769C454.958 184.379 466.255 185.685 467.637 184.205C469.019 182.724 485.681 145.707 485.681 145.707" fill="#6985D1"/>
<path d="M474.708 125.326L456.583 165.653L412.287 168.266C412.287 168.266 408.467 169.137 407.654 173.23C406.841 177.324 407.085 179.24 407.085 179.24C407.085 179.24 436.589 183.072 445.773 183.769C454.958 184.379 466.255 185.685 467.637 184.205C469.019 182.724 485.681 145.707 485.681 145.707" stroke="#141516" stroke-miterlimit="10" stroke-linecap="round" stroke-linejoin="round"/>
<path d="M152.73 243.957H148.098V291.774H152.73V243.957Z" fill="#141516" stroke="#141516" stroke-miterlimit="10" stroke-linecap="round" stroke-linejoin="round"/>
<path d="M124.501 198.131L116.348 199.152L121.528 246.644L129.681 245.623L124.501 198.131Z" fill="#141516" stroke="#141516" stroke-miterlimit="10" stroke-linecap="round" stroke-linejoin="round"/>
<path d="M156.306 293.778V285.678H144.521V293.865L97.4609 314.072V323.653H100.712V316.336L150.617 304.23L199.14 316.336V323.653H202.228V314.072L156.306 293.778Z" fill="#8C8F9D" stroke="#141516" stroke-miterlimit="10" stroke-linecap="round" stroke-linejoin="round"/>
<path d="M161.992 243.957H138.828V259.199H161.992V243.957Z" fill="#141516" stroke="#141516" stroke-miterlimit="10" stroke-linecap="round" stroke-linejoin="round"/>
<path d="M97.4589 324C97.4589 321.039 95.2644 318.688 92.5009 318.688C89.7375 318.688 87.543 321.039 87.543 324C87.543 326.962 89.7375 329.313 92.5009 329.313C95.2644 329.313 97.4589 326.962 97.4589 324Z" fill="#141516" stroke="#141516" stroke-miterlimit="10" stroke-linecap="round" stroke-linejoin="round"/>
<path d="M94.6171 324.001C94.6171 322.694 93.6417 321.736 92.5038 321.736C91.2847 321.736 90.3906 322.782 90.3906 324.001C90.3906 325.307 91.366 326.265 92.5038 326.265C93.723 326.265 94.6171 325.22 94.6171 324.001Z" fill="white" stroke="#141516" stroke-miterlimit="10" stroke-linecap="round" stroke-linejoin="round"/>
<path d="M212.631 324C212.631 321.039 210.436 318.688 207.673 318.688C204.909 318.688 202.715 321.039 202.715 324C202.715 326.962 204.909 329.313 207.673 329.313C210.355 329.313 212.631 326.962 212.631 324Z" fill="#141516" stroke="#141516" stroke-miterlimit="10" stroke-linecap="round" stroke-linejoin="round"/>
<path d="M207.59 326.265C208.757 326.265 209.703 325.252 209.703 324.001C209.703 322.75 208.757 321.736 207.59 321.736C206.423 321.736 205.477 322.75 205.477 324.001C205.477 325.252 206.423 326.265 207.59 326.265Z" fill="white" stroke="#141516" stroke-miterlimit="10" stroke-linecap="round" stroke-linejoin="round"/>
<path d="M152.566 323.913H148.665L146.633 295.258H154.517L152.566 323.913Z" fill="#8C8F9D" stroke="#141516" stroke-miterlimit="10" stroke-linecap="round" stroke-linejoin="round"/>
<path d="M152.323 317.816H148.422V329.662H152.323V317.816Z" fill="#141516" stroke="#141516" stroke-miterlimit="10" stroke-linecap="round" stroke-linejoin="round"/>
<path d="M119.568 222.009C109.977 222.967 101.443 215.477 100.468 205.112L95.0223 144.23C94.1283 133.953 101.118 124.807 110.79 123.762C120.381 122.804 128.915 130.295 129.891 140.659L135.336 201.541C136.23 211.818 129.159 220.964 119.568 222.009Z" fill="#8C8F9D" stroke="#141516" stroke-miterlimit="10" stroke-linecap="round" stroke-linejoin="round"/>
<path d="M123.713 221.573C114.122 222.531 105.588 215.041 104.612 204.676L99.1669 143.795C98.2728 133.517 105.263 124.372 114.935 123.327C124.526 122.369 133.06 129.859 134.035 140.224L139.481 201.105C140.375 211.383 133.304 220.528 123.713 221.573Z" fill="#8C8F9D" stroke="#141516" stroke-miterlimit="10" stroke-linecap="round" stroke-linejoin="round"/>
<path d="M202.637 248.748L118.271 251.012C116.401 251.099 114.776 249.445 114.695 247.441L114.288 233.419C114.207 231.415 115.751 229.673 117.621 229.586L201.987 227.322C203.856 227.235 205.482 228.889 205.563 230.893L205.97 244.915C205.97 247.006 204.507 248.661 202.637 248.748Z" fill="#8C8F9D" stroke="#141516" stroke-miterlimit="10" stroke-linecap="round" stroke-linejoin="round"/>
<path d="M165.655 249.445L118.189 251.013C116.319 251.1 114.694 249.445 114.613 247.442L114.206 233.419C114.125 231.416 115.669 229.674 117.539 229.587L165.005 228.019C166.874 227.932 168.5 229.587 168.581 231.59L168.987 245.613C169.069 247.703 167.606 249.358 165.655 249.445Z" fill="#8C8F9D" stroke="#141516" stroke-miterlimit="10" stroke-linecap="round" stroke-linejoin="round"/>
<path d="M213.444 220.267C213.444 220.267 214.175 235.247 216.126 248.574C218.077 261.987 221.247 302.574 221.247 302.574C221.247 302.574 222.953 309.542 225.311 314.42C227.749 319.297 229.618 321.388 229.618 321.388C229.618 321.388 235.877 328.094 235.633 329.139C235.389 330.184 231.488 330.097 227.586 329.313C223.766 328.53 222.953 327.572 220.759 326.004C218.564 324.436 213.688 322.433 211.493 321.649C209.299 320.865 208.649 318.862 209.38 316.51C210.112 314.158 212.469 308.758 212.469 305.449C212.469 302.139 210.518 286.2 205.235 275.661C199.952 265.122 196.863 246.832 196.863 246.832L213.444 220.267Z" fill="white" stroke="#141516" stroke-miterlimit="10" stroke-linecap="round" stroke-linejoin="round"/>
<path d="M214.664 317.294C213.12 315.988 211.738 314.681 210.519 313.462C210.031 314.681 209.625 315.814 209.381 316.597C208.65 318.949 209.381 320.952 211.494 321.736C213.689 322.52 218.565 324.523 220.76 326.091C222.954 327.659 223.686 328.617 227.587 329.401C231.407 330.185 235.39 330.272 235.634 329.227C235.878 328.182 229.619 321.475 229.619 321.475L226.531 323.043C226.449 322.956 218.972 320.865 214.664 317.294Z" fill="#4143EC" stroke="#141516" stroke-miterlimit="10" stroke-linecap="round" stroke-linejoin="round"/>
<path d="M121.196 189.608C121.196 189.608 119.001 198.666 120.22 204.414C121.439 210.076 129.486 223.402 143.466 226.537C157.446 229.673 192.558 228.715 192.558 228.715C192.558 228.715 184.105 242.476 180.935 259.112C178.822 270.086 172.482 285.503 171.507 287.767C170.531 290.119 158.909 294.3 159.315 296.216C159.721 298.132 161.103 309.89 164.029 314.768C166.955 319.645 171.913 321.736 173.864 322.345C175.814 322.955 176.221 322.955 176.221 320.865C176.221 318.774 174.839 315.813 174.839 313.897C174.839 311.981 174.677 299.09 175.408 297.435C176.221 295.78 201.986 252.318 205.968 245.089C209.87 237.947 216.047 224.011 217.754 221.66C219.542 219.308 221.655 216.173 219.948 212.166C218.16 208.16 177.521 194.746 177.521 194.746L175.408 186.646L155.089 185.34L121.196 189.608Z" fill="white" stroke="#141516" stroke-miterlimit="10" stroke-linecap="round" stroke-linejoin="round"/>
<path d="M177.439 194.746L175.326 186.646L155.007 185.34L121.114 189.521C121.114 189.521 118.919 198.579 120.138 204.327C122.089 213.385 129.404 223.315 143.384 226.45C157.364 229.586 192.476 228.628 192.476 228.628C192.476 228.628 195.808 210.772 202.31 203.805C194.508 201.018 177.439 194.746 177.439 194.746Z" fill="#141516" stroke="#141516" stroke-miterlimit="10" stroke-linecap="round" stroke-linejoin="round"/>
<path d="M192.559 228.628C192.559 228.628 200.199 226.537 206.132 223.141Z" fill="white"/>
<path d="M192.559 228.628C192.559 228.628 200.199 226.537 206.132 223.141" stroke="#141516" stroke-miterlimit="10" stroke-linecap="round" stroke-linejoin="round"/>
<path d="M165.977 306.32C164.595 302.836 164.676 295.868 164.839 292.123C161.831 293.691 159.068 295.259 159.312 296.13C159.718 298.046 161.1 309.804 164.026 314.681C166.952 319.559 171.91 321.649 173.861 322.259C175.811 322.869 176.218 322.869 176.218 320.778C176.218 318.688 174.836 315.727 174.836 313.81C172.316 313.549 168.74 312.504 168.74 312.504C168.74 312.504 167.927 311.11 165.977 306.32Z" fill="#4143EC" stroke="#141516" stroke-miterlimit="10" stroke-linecap="round" stroke-linejoin="round"/>
<path d="M163.135 105.994L157.039 108.694C157.039 108.694 161.997 158.079 161.753 165.047C161.591 172.015 161.184 185.95 161.184 185.95C161.184 185.95 169.637 188.65 175.327 186.56L174.92 162.695C174.92 162.695 179.065 139.875 177.44 132.559C175.896 125.156 170.938 112.091 170.938 112.091C170.938 112.091 168.662 106.255 163.135 105.994Z" fill="white" stroke="#141516" stroke-miterlimit="10" stroke-linecap="round" stroke-linejoin="round"/>
<path d="M161.347 127.333L167.28 117.665L174.595 128.988C174.595 128.988 171.425 113.136 171.019 112.091C170.612 111.046 169.231 108.955 166.874 107.213C164.517 105.558 161.753 105.471 160.209 105.297C158.665 105.123 157.039 108.694 157.039 108.694L161.347 127.333Z" fill="white" stroke="#141516" stroke-miterlimit="10" stroke-linecap="round" stroke-linejoin="round"/>
<path d="M158.582 105.21C158.582 105.21 138.75 109.826 137.125 111.133C135.418 112.439 134.686 116.794 135.093 118.449C135.581 120.104 140.051 155.901 140.051 155.901L117.293 191.524C117.293 191.524 124.689 198.144 131.679 199.45C138.669 200.757 153.462 198.753 158.745 196.489C164.028 194.137 164.028 194.137 164.028 194.137C164.028 194.137 166.466 150.849 163.865 133.778C161.264 116.707 158.582 105.21 158.582 105.21Z" fill="#4143EC" stroke="#141516" stroke-miterlimit="10" stroke-linecap="round" stroke-linejoin="round"/>
<path d="M219.379 160.256L227.1 156.598C227.1 156.598 229.457 151.111 229.701 150.676C230.026 150.153 232.627 149.369 233.846 148.15C235.066 147.018 236.772 145.014 237.26 144.84C237.748 144.666 238.479 146.147 237.26 148.15C236.041 150.153 234.009 151.982 234.009 151.982L241.568 149.021C241.568 149.021 244.494 143.708 245.307 146.059C246.119 148.411 242.055 155.466 241.161 157.818C240.267 160.169 239.292 161.302 237.585 161.65C235.878 161.998 230.595 162.957 229.539 163.131C228.482 163.305 221.817 167.399 221.817 167.399L219.379 160.256Z" fill="white" stroke="#141516" stroke-miterlimit="10" stroke-linecap="round" stroke-linejoin="round"/>
<path d="M230.109 158.602C231.491 157.382 233.035 156.076 233.929 156.076C235.636 156.076 239.375 156.424 239.375 156.424C239.375 156.424 241.57 151.111 242.626 150.327C243.683 149.456 244.658 150.676 243.683 152.331" fill="white"/>
<path d="M230.109 158.602C231.491 157.382 233.035 156.076 233.929 156.076C235.636 156.076 239.375 156.424 239.375 156.424C239.375 156.424 241.57 151.111 242.626 150.327C243.683 149.456 244.658 150.676 243.683 152.331" stroke="#141516" stroke-miterlimit="10" stroke-linecap="round" stroke-linejoin="round"/>
<path d="M168.984 109.217C168.984 109.217 173.942 132.211 173.78 140.833C173.617 149.456 171.179 153.724 171.585 156.772C172.073 159.734 173.13 194.573 173.13 194.573L177.437 194.747C177.437 194.747 176.381 181.508 176.543 178.982C176.706 176.457 178.25 166.527 178.25 166.527C178.25 166.527 185.971 182.902 187.028 183.773C188.085 184.644 224.01 168.182 224.01 168.182L221.409 158.776L194.018 164.698C194.018 164.698 188.572 145.45 187.841 141.356C187.028 137.175 186.459 122.63 184.265 118.972C182.07 115.314 168.984 109.217 168.984 109.217Z" fill="#4143EC" stroke="#141516" stroke-miterlimit="10" stroke-linecap="round" stroke-linejoin="round"/>
<path d="M178.25 166.528C178.25 166.528 179.144 162.347 180.688 151.46C182.233 140.485 180.851 131.775 180.851 131.775" stroke="#141516" stroke-miterlimit="10" stroke-linecap="round" stroke-linejoin="round"/>
<path d="M176.545 122.107C177.277 128.03 177.846 135.433 176.87 139.527C175.001 147.192 172.562 153.114 172.562 153.114" stroke="#141516" stroke-miterlimit="10" stroke-linecap="round" stroke-linejoin="round"/>
<path d="M175.164 112.875C175.164 112.875 175.652 115.401 176.139 118.972" stroke="#141516" stroke-miterlimit="10" stroke-linecap="round" stroke-linejoin="round"/>
<path d="M160.371 145.102C162.403 150.415 164.191 155.64 164.191 155.64" stroke="#141516" stroke-miterlimit="10" stroke-linecap="round" stroke-linejoin="round"/>
<path d="M151.023 107.91C151.023 107.91 154.6 131.252 157.363 137.611C157.932 138.917 158.582 140.398 159.151 141.966" stroke="#141516" stroke-miterlimit="10" stroke-linecap="round" stroke-linejoin="round"/>
<path d="M194.91 155.292L200.925 153.463C200.925 153.463 204.826 148.15 205.72 146.843C206.614 145.537 208.809 145.537 210.353 144.492C211.897 143.534 213.929 139.875 214.661 140.485C215.473 141.182 214.661 144.143 213.848 144.927C213.035 145.798 211.247 146.93 210.597 147.453C209.947 147.976 217.831 145.972 217.831 145.972C217.831 145.972 222.951 141.182 223.276 142.488C223.601 143.795 220.919 148.411 220.919 148.411C220.919 148.411 217.18 152.243 215.392 153.898C213.523 155.553 209.053 156.25 207.833 156.511C206.614 156.86 204.42 157.208 204.42 157.208L195.154 160.866L194.91 155.292Z" fill="white" stroke="#141516" stroke-miterlimit="10" stroke-linecap="round" stroke-linejoin="round"/>
<path d="M219.864 149.456C219.864 149.456 216.613 151.111 214.906 151.982Z" fill="white"/>
<path d="M219.864 149.456C219.864 149.456 216.613 151.111 214.906 151.982" stroke="#141516" stroke-miterlimit="10" stroke-linecap="round" stroke-linejoin="round"/>
<path d="M210.678 147.54L207.914 148.15" stroke="#141516" stroke-miterlimit="10" stroke-linecap="round" stroke-linejoin="round"/>
<path d="M140.538 109.914C140.538 109.914 131.435 113.224 130.053 115.75C128.672 118.275 133.63 138.656 137.287 149.892C141.026 161.128 150.86 180.028 152.161 180.725C153.38 181.422 185.729 169.141 193.125 166.615C200.521 164.089 201.822 162.783 201.822 162.783L198.571 153.812L161.427 160.954L149.966 122.717" fill="#4143EC"/>
<path d="M140.538 109.914C140.538 109.914 131.435 113.224 130.053 115.75C128.672 118.275 133.63 138.656 137.287 149.892C141.026 161.128 150.86 180.028 152.161 180.725C153.38 181.422 185.729 169.141 193.125 166.615C200.521 164.089 201.822 162.783 201.822 162.783L198.571 153.812L161.427 160.954L149.966 122.717" stroke="#141516" stroke-miterlimit="10" stroke-linecap="round" stroke-linejoin="round"/>
<path d="M185.323 59.3963C185.323 59.3963 188.899 62.0093 187.111 64.7964C185.242 67.5836 181.421 67.8449 181.421 67.8449L178.008 62.1835C178.008 62.1835 182.072 57.0447 185.323 59.3963Z" fill="#141516" stroke="#141516" stroke-miterlimit="10" stroke-linecap="round" stroke-linejoin="round"/>
<path d="M181.501 62.7935C181.501 62.7935 187.028 76.9034 186.703 78.1227C186.378 79.3421 183.858 81.2583 184.996 83.0873C186.134 84.9164 189.629 88.5745 189.547 89.0971C189.466 89.6197 185.24 92.2326 185.24 92.2326C185.24 92.2326 182.314 103.555 181.095 105.21C179.875 106.865 169.797 104.862 169.797 104.862L167.684 117.578L155.736 105.646L151.266 101.117C151.266 101.117 147.283 81.7809 155.736 70.1968C164.27 58.4386 181.501 62.7935 181.501 62.7935Z" fill="white" stroke="#141516" stroke-miterlimit="10" stroke-linecap="round" stroke-linejoin="round"/>
<path d="M180.772 82.6521C180.772 83.8714 180.284 84.8295 179.796 84.8295C179.309 84.8295 178.902 83.8714 178.902 82.6521C178.902 81.4327 179.39 80.4746 179.878 80.4746C180.365 80.4746 180.772 81.4327 180.772 82.6521Z" fill="#141516"/>
<path d="M180.771 95.0202C177.276 94.6718 175.732 92.4072 175.732 92.4072C175.732 92.4072 175.407 97.546 176.951 97.8073C178.414 98.1557 180.771 95.0202 180.771 95.0202Z" fill="#141516" stroke="#141516" stroke-miterlimit="10" stroke-linecap="round" stroke-linejoin="round"/>
<path d="M177.68 77.9488C177.68 77.9488 180.768 75.1617 183.532 78.4714" stroke="#141516" stroke-miterlimit="10" stroke-linecap="round" stroke-linejoin="round"/>
<path d="M169.879 104.862L164.84 103.556L168.66 111.046L169.879 104.862Z" fill="#141516" stroke="#141516" stroke-miterlimit="10" stroke-linecap="round" stroke-linejoin="round"/>
<path d="M181.503 62.7935C181.503 62.7935 180.447 66.4516 175.082 71.242C169.799 76.0324 165.004 79.0809 165.004 80.3874C165.004 81.6938 165.816 82.9132 164.76 83.2616C163.703 83.61 162.24 82.8261 162.24 82.8261C162.24 82.8261 159.639 90.752 159.233 96.3263C158.827 101.901 160.777 107.126 160.777 107.126C160.777 107.126 149.317 107.823 142.734 102.423C136.15 97.0231 134.281 90.9262 135.012 85.7003C135.744 80.3873 137.857 63.7516 148.017 55.5644C158.176 47.3772 172.806 47.8126 177.683 51.0353C182.641 54.345 186.217 56.7838 185.323 59.4838C184.429 62.0967 181.503 62.7935 181.503 62.7935Z" fill="#141516" stroke="#141516" stroke-miterlimit="10" stroke-linecap="round" stroke-linejoin="round"/>
<path d="M157.525 229.151C157.2 229.151 156.956 229.064 156.631 228.977C155.493 228.367 154.925 226.8 155.412 225.319C159.07 214.606 163.296 195.357 158.988 189.696C158.013 188.825 151.917 187.083 119.243 190.741C118.106 190.828 117.293 190.915 116.886 191.002C114.611 191.176 112.66 194.747 112.172 195.967C111.603 197.36 110.222 197.883 109.084 197.186C107.946 196.489 107.539 194.835 108.027 193.441C108.352 192.657 111.278 185.95 116.48 185.428C116.886 185.428 117.699 185.341 118.756 185.167C153.624 181.247 160.289 183.25 162.321 185.95C169.961 196.141 160.695 224.274 159.639 227.496C159.232 228.541 158.419 229.151 157.525 229.151Z" fill="white" stroke="#141516" stroke-miterlimit="10" stroke-linecap="round" stroke-linejoin="round"/>
<path d="M325.011 147.275H271.53L259.176 192.131H312.575L325.011 147.275Z" fill="#D3D4E1" stroke="#141516" stroke-miterlimit="10" stroke-linecap="round" stroke-linejoin="round"/>
<path d="M220.165 189.692L219.434 192.131H312.578L313.31 189.692H220.165Z" fill="#D3D4E1" stroke="#141516" stroke-miterlimit="10" stroke-linecap="round" stroke-linejoin="round"/>
<path d="M259.99 189.692L259.34 192.131H312.577L313.308 189.692H259.99Z" fill="#141516" stroke="#141516" stroke-miterlimit="10" stroke-linecap="round" stroke-linejoin="round"/>
<path d="M311.85 198.924H302.828V328.439H311.85V198.924Z" fill="white" stroke="#141516" stroke-miterlimit="10" stroke-linecap="round" stroke-linejoin="round"/>
<path d="M311.85 198.924H302.828V220.35H311.85V198.924Z" fill="#141516" stroke="#141516" stroke-miterlimit="10" stroke-linecap="round" stroke-linejoin="round"/>
<path d="M421.655 192.218H192.207V199.447H421.655V192.218Z" fill="white" stroke="#141516" stroke-miterlimit="10" stroke-linecap="round" stroke-linejoin="round"/>
<path d="M354.517 329.484H259.422C268.85 324.781 279.091 322.255 289.495 322.255H324.444C334.848 322.255 345.089 324.694 354.517 329.484Z" fill="white" stroke="#141516" stroke-miterlimit="10" stroke-linecap="round" stroke-linejoin="round"/>
<g opacity="0.3">
<path d="M10.2427 52.5803L-0.726562 64.7412L10.2427 76.9021L21.2119 64.7412L10.2427 52.5803Z" stroke="#141516" stroke-miterlimit="10" stroke-linecap="round" stroke-linejoin="round"/>
<path d="M583.208 105.71L570.25 120.076L583.208 134.442L596.167 120.076L583.208 105.71Z" stroke="#141516" stroke-miterlimit="10" stroke-linecap="round" stroke-linejoin="round"/>
<path d="M42.2801 239.517C47.839 239.517 52.3454 234.672 52.3454 228.695C52.3454 222.718 47.839 217.872 42.2801 217.872C36.7212 217.872 32.2148 222.718 32.2148 228.695C32.2148 234.672 36.7212 239.517 42.2801 239.517Z" stroke="#141516" stroke-miterlimit="10" stroke-linecap="round" stroke-linejoin="round"/>
<path d="M605.936 308.388C611.495 308.388 616.002 303.543 616.002 297.566C616.002 291.589 611.495 286.743 605.936 286.743C600.377 286.743 595.871 291.589 595.871 297.566C595.871 303.543 600.377 308.388 605.936 308.388Z" stroke="#141516" stroke-miterlimit="10" stroke-linecap="round" stroke-linejoin="round"/>
<path d="M391.819 48.6453C397.378 48.6453 401.884 43.7998 401.884 37.8227C401.884 31.8455 397.378 27 391.819 27C386.26 27 381.754 31.8455 381.754 37.8227C381.754 43.7998 386.26 48.6453 391.819 48.6453Z" stroke="#141516" stroke-miterlimit="10" stroke-linecap="round" stroke-linejoin="round"/>
</g>
</g>
<defs>
<clipPath id="clip0_3508_2233">
<rect width="616" height="359" fill="white"/>
</clipPath>
</defs>
</svg>
