<svg width="620" height="359" viewBox="0 0 620 359" fill="none" xmlns="http://www.w3.org/2000/svg">
<g clip-path="url(#clip0_3508_1996)">
<g opacity="0.4">
<path d="M149.411 99.9645L83.4524 77.2912C80.8307 76.353 79.4508 73.382 80.2787 70.411L92.0077 26.4715C92.8356 23.5006 95.4574 21.9369 98.0792 22.8751L164.038 45.5485C166.659 46.4867 168.039 49.4577 167.211 52.4286L155.482 96.3681C154.654 99.1827 151.895 100.746 149.411 99.9645Z" stroke="#141516" stroke-miterlimit="10"/>
<path d="M89.9375 33.8213L165.141 59.7784" stroke="#141516" stroke-miterlimit="10"/>
<path d="M87.7305 42.4209L162.934 68.2216" stroke="#141516" stroke-miterlimit="10"/>
<path d="M140.025 84.3276C139.611 85.8912 139.749 87.4549 140.439 88.7059C139.335 89.3313 138.093 89.4877 136.852 89.0186C134.23 88.0804 132.85 85.1094 133.54 82.1384C134.368 79.1674 137.127 77.6037 139.611 78.3856C140.853 78.8547 141.819 79.7929 142.509 80.8875C141.405 81.5129 140.439 82.7639 140.025 84.3276Z" stroke="#141516" stroke-miterlimit="10"/>
<path d="M149.411 87.4552C148.583 90.4262 145.962 91.9899 143.34 91.2081C140.718 90.2699 139.338 87.2989 140.028 84.3279C140.856 81.3569 143.478 79.7932 146.1 80.575C148.721 81.5132 150.101 84.4842 149.411 87.4552Z" stroke="#141516" stroke-miterlimit="10"/>
<path d="M604.304 301.858L549.523 283.094C546.901 282.155 545.521 279.184 546.349 276.213L555.87 240.405C556.698 237.434 559.32 235.87 561.942 236.809L616.585 255.573C619.207 256.511 620.587 259.482 619.759 262.453L610.238 298.261C609.548 301.076 606.788 302.796 604.304 301.858Z" stroke="#141516" stroke-miterlimit="10"/>
<path d="M554.488 245.878L618.377 267.926" stroke="#141516" stroke-miterlimit="10"/>
<path d="M552.559 253.228L616.447 275.119" stroke="#141516" stroke-miterlimit="10"/>
<path d="M596.99 288.723C596.714 289.974 596.852 291.381 597.404 292.476C596.438 292.945 595.334 293.101 594.368 292.788C592.161 292.007 590.919 289.348 591.609 286.846C592.299 284.345 594.644 282.937 596.852 283.719C597.956 284.032 598.784 284.97 599.336 285.908C598.094 286.534 597.404 287.472 596.99 288.723Z" stroke="#141516" stroke-miterlimit="10"/>
<path d="M604.995 291.538C604.305 294.04 601.959 295.447 599.751 294.665C597.543 293.883 596.302 291.225 596.991 288.723C597.681 286.221 600.027 284.814 602.235 285.596C604.443 286.378 605.685 289.036 604.995 291.538Z" stroke="#141516" stroke-miterlimit="10"/>
<path d="M572.894 20.7584L492.977 62.2246L511.991 109.283L591.908 67.8167L572.894 20.7584Z" stroke="#141516" stroke-miterlimit="10"/>
<path d="M585.002 61.0187L572.859 31.1524C570.513 32.4033 567.754 31.1524 566.65 28.4941L502.209 61.9569C503.313 64.6151 502.209 67.7425 499.863 68.9935L512.006 98.8598C514.352 97.6088 517.112 98.8597 518.216 101.518L582.794 68.0552C581.69 65.397 582.656 62.1133 585.002 61.0187Z" stroke="#141516" stroke-miterlimit="10"/>
<path d="M549.791 75.6976C555.049 71.1205 556.037 62.5801 551.998 56.622C547.959 50.664 540.422 49.5445 535.164 54.1216C529.907 58.6987 528.919 67.2391 532.958 73.1972C536.997 79.1552 544.534 80.2747 549.791 75.6976Z" stroke="#141516" stroke-miterlimit="10"/>
<path d="M545.675 71.4956L546.641 73.6847L545.813 74.1538L544.985 71.9647C543.33 72.7465 541.398 72.9029 540.156 72.2774V70.8701C541.26 71.3392 542.916 71.3392 544.433 70.5573L542.364 65.3972C540.294 65.8663 538.086 66.179 537.12 63.6772C536.43 61.8007 536.844 59.6116 539.466 58.0479L538.5 55.8588L539.328 55.3896L540.156 57.5788C541.398 56.9533 542.916 56.797 544.157 56.9533V58.3606C542.916 58.2043 541.674 58.3606 540.708 58.8297L542.778 63.9899C544.847 63.5208 547.193 63.0517 548.297 65.7099C548.987 67.7427 548.297 69.9319 545.675 71.4956ZM541.812 64.3026L539.88 59.4552C538.224 60.5498 537.81 61.9571 538.362 63.2081C538.914 64.7717 540.156 64.6154 541.812 64.3026ZM546.917 66.4918C546.365 64.9281 544.847 65.0845 543.192 65.3972L545.123 70.2446C547.055 69.15 547.469 67.7427 546.917 66.4918Z" fill="#141516"/>
<path d="M77.7674 215.789L16.5898 221.782L19.3473 257.925L80.5249 251.932L77.7674 215.789Z" stroke="#141516" stroke-miterlimit="10"/>
<path d="M77.4616 245.605L75.6678 222.619C73.8739 222.775 72.2181 221.211 72.0801 219.179L22.6803 224.026C22.8183 226.059 21.4384 227.935 19.6445 228.092L21.4384 251.078C23.2322 250.921 24.8881 252.485 25.0261 254.518L74.4259 249.67C74.2879 247.481 75.6678 245.761 77.4616 245.605Z" stroke="#141516" stroke-miterlimit="10"/>
<path d="M56.9061 236.066C57.32 241.227 53.8703 245.918 49.3167 246.387C44.7631 246.856 40.6234 242.947 40.2095 237.786C39.7955 232.626 43.2452 227.935 47.7988 227.466C52.4904 226.841 56.4921 230.75 56.9061 236.066Z" stroke="#141516" stroke-miterlimit="10"/>
<path d="M49.3145 242.008L49.4525 243.728H48.7626L48.6246 242.008C47.3827 242.008 46.1408 241.696 45.4509 240.914L45.7268 239.976C46.4168 240.601 47.5207 240.914 48.6246 240.914L48.3486 237.005C46.8307 236.692 45.3129 236.379 45.1749 234.503C45.0369 233.095 45.8648 231.688 47.7967 231.375L47.6587 229.655H48.3486L48.4866 231.375C49.4525 231.375 50.4184 231.532 51.2464 232.001L50.9704 232.939C50.1425 232.47 49.3145 232.314 48.6246 232.314L48.9006 236.223C50.4184 236.535 51.9363 236.848 52.2123 238.725C52.3503 240.445 51.3844 241.696 49.3145 242.008ZM48.2106 236.223L47.9347 232.47C46.5548 232.783 46.0028 233.564 46.1408 234.503C46.2788 235.754 47.1067 236.066 48.2106 236.223ZM51.2464 239.037C51.1084 237.943 50.1425 237.63 49.0386 237.317L49.3145 241.07C50.6944 240.914 51.2464 239.976 51.2464 239.037Z" fill="#141516"/>
<path d="M582.829 2.39163C589.459 2.39163 594.834 -3.6991 594.834 -11.2124C594.834 -18.7257 589.459 -24.8164 582.829 -24.8164C576.199 -24.8164 570.824 -18.7257 570.824 -11.2124C570.824 -3.6991 576.199 2.39163 582.829 2.39163Z" stroke="#141516" stroke-miterlimit="10"/>
<path d="M503.735 170.73C510.188 169.006 514.187 161.681 512.666 154.368C511.145 147.056 504.681 142.525 498.227 144.248C491.774 145.972 487.776 153.297 489.297 160.61C490.818 167.923 497.282 172.453 503.735 170.73Z" stroke="#141516" stroke-miterlimit="10"/>
<path d="M497.968 164.232L496.864 166.265L496.036 165.64L497.14 163.607C495.622 162.356 494.518 160.792 494.242 159.229L495.208 158.447C495.484 159.698 496.45 161.261 497.692 162.356L500.314 157.665C498.796 155.945 497.416 154.068 498.658 151.723C499.624 150.003 501.556 149.221 504.039 150.785L505.143 148.752L505.971 149.377L504.867 151.41C505.971 152.348 507.075 153.599 507.489 154.85L506.523 155.632C505.971 154.381 505.143 153.287 504.315 152.661L501.694 157.509C503.211 159.229 504.867 161.105 503.487 163.607C502.521 165.171 500.59 165.952 497.968 164.232ZM501.004 156.57L503.487 152.036C501.694 151.097 500.452 151.567 499.9 152.661C499.072 154.068 499.9 155.319 501.004 156.57ZM502.383 162.669C503.211 161.261 502.246 160.01 501.142 158.603L498.658 163.138C500.452 164.232 501.694 163.92 502.383 162.669Z" fill="#141516"/>
<path d="M29.9122 128.268C22.4609 135.773 11.0078 134.835 4.52239 126.391C-2.10104 117.947 -1.27311 104.969 6.17825 97.6196C13.6296 90.114 25.0827 91.0522 31.5681 99.496C38.1915 107.94 37.3636 120.918 29.9122 128.268Z" stroke="#141516" stroke-miterlimit="10"/>
<path d="M11.0057 121.075L8.52193 123.42L7.694 122.326L10.0398 119.98C8.38394 117.478 7.41802 114.507 7.55601 112.318L9.34986 111.849C9.21187 113.882 10.0398 116.54 11.4197 118.729L16.9392 113.256C15.4213 109.973 14.0415 106.689 16.9392 103.874C19.009 101.842 22.0448 101.685 25.0805 105.125L27.5643 102.78L28.5302 104.031L26.1844 106.376C27.5643 108.253 28.3922 110.442 28.6682 112.475L26.8744 112.944C26.5984 110.911 25.7705 108.878 24.8045 107.471L19.147 113.1C20.6649 116.384 22.1828 119.98 19.423 122.795C17.3532 124.671 14.1794 124.671 11.0057 121.075ZM18.4571 111.536L23.7006 106.22C21.6308 103.874 19.561 103.874 18.3191 105.282C16.8012 107.002 17.3532 109.191 18.4571 111.536ZM17.9051 121.075C19.561 119.355 18.7331 117.166 17.6292 114.664L12.3856 119.98C14.5934 122.326 16.5252 122.326 17.9051 121.075Z" fill="#141516"/>
<path d="M111.654 300.577C111.825 295.139 108.073 290.575 103.275 290.381C98.4766 290.188 94.4485 294.439 94.2778 299.876C94.1071 305.314 97.8585 309.878 102.657 310.072C107.455 310.265 111.483 306.014 111.654 300.577Z" stroke="#141516" stroke-miterlimit="10"/>
<path d="M106.361 304.181L107.327 305.589L106.775 306.058L105.809 304.65C104.705 305.589 103.463 306.058 102.497 305.901L102.359 304.963C103.187 305.119 104.429 304.65 105.257 303.869L102.911 300.741C101.531 301.523 100.013 302.148 98.9095 300.585C98.0816 299.49 98.0816 297.77 99.5994 296.207L98.6335 294.799L99.1855 294.33L100.151 295.737C100.979 294.956 101.945 294.486 102.773 294.486L103.049 295.425C102.083 295.581 101.255 295.894 100.703 296.519L103.049 299.647C104.429 298.865 105.947 298.083 107.189 299.647C107.879 300.741 107.879 302.461 106.361 304.181ZM102.359 299.959L100.151 296.988C99.1855 298.083 99.1855 299.177 99.7374 299.959C100.289 300.898 101.255 300.585 102.359 299.959ZM106.361 300.428C105.671 299.49 104.705 299.959 103.601 300.428L105.809 303.399C106.775 302.148 106.913 301.21 106.361 300.428Z" fill="#141516"/>
</g>
<path opacity="0.2" d="M316.135 265.346C316.135 265.346 309.951 300.927 271.968 309.026C271.968 309.026 262.01 318.035 258.718 323.313C255.425 328.591 237.839 337.6 219.932 365.81C202.024 394.019 175.363 304.567 175.363 304.567L234.306 217.845L316.135 265.346Z" fill="#141516"/>
<path d="M349.94 98.1806C349.94 98.1806 370.418 86.8056 374.914 88.8076C379.411 90.8096 383.748 102.458 366.483 113.741C349.298 125.025 354.437 145.955 354.437 145.955H366.724C366.724 145.955 374.111 149.322 377.002 153.69C379.893 158.058 381.901 172.982 383.587 178.078C385.193 183.174 384.39 188.179 379.893 189.817C379.893 189.817 377.002 204.013 377.805 210.292C378.608 216.571 378.207 220.575 372.907 221.394C367.607 222.122 362.227 217.026 362.628 210.292L358.533 227.127L361.424 233.588C361.424 233.588 366.724 235.59 372.505 241.14C378.207 246.691 383.989 248.238 382.302 254.426C380.696 260.614 377.404 267.348 360.219 259.522C343.034 251.787 328.66 221.303 328.66 221.303L318.301 115.106L349.94 98.1806Z" fill="white"/>
<path opacity="0.4" d="M371.461 159.15C362.146 173.528 372.425 189.998 372.425 189.998C372.425 189.998 366.001 194.093 365.84 204.376C365.76 208.653 366.724 214.659 367.848 220.301C364.636 218.572 362.307 214.75 362.628 210.2L358.533 227.035L361.424 233.496C361.424 233.496 365.198 234.952 369.855 238.774C367.286 245.417 366.563 253.607 366.724 262.07C364.796 261.524 362.628 260.705 360.139 259.613C342.954 251.878 328.58 221.393 328.58 221.393L318.301 115.106L349.94 98.1801C349.94 98.1801 361.102 91.9921 368.811 89.5352C368.249 97.6341 369.614 106.097 370.658 110.738C369.454 111.739 368.089 112.74 366.563 113.741C349.378 124.934 354.437 145.955 354.437 145.955H366.724C366.724 145.955 373.71 149.231 376.761 153.417C374.995 154.6 373.228 156.42 371.461 159.15Z" fill="#6985D1"/>
<path d="M317.901 248.239C317.901 248.239 295.657 297.742 255.505 308.935C255.505 308.935 253.98 318.763 247.154 322.949C243.54 325.224 228.845 350.067 215.996 372.726L144.848 323.313C149.264 318.399 154.243 312.757 159.302 306.842C174.158 289.643 189.978 270.351 194.877 260.887C199.213 252.424 204.673 237.774 209.492 223.942C215.595 206.288 220.574 190.09 220.574 190.09L244.343 160.151L281.684 113.104L283.29 119.11L317.901 248.239Z" fill="white"/>
<path opacity="0.4" d="M281.604 113.104L317.901 248.147C317.901 248.147 295.657 297.651 255.506 308.844C255.506 308.844 253.98 318.672 247.154 322.858C243.862 324.86 231.736 345.153 220.012 365.628C224.348 348.702 236.956 321.766 236.956 321.766C228.845 310.937 231.254 299.471 234.466 302.747C237.598 305.932 245.869 315.123 246.351 315.76C242.738 311.028 241.934 303.475 241.934 303.475C241.934 303.475 251.972 311.028 252.775 298.925C253.578 286.822 246.753 257.247 246.753 257.247L228.925 179.534L281.604 113.104Z" fill="#6985D1"/>
<path d="M318.301 115.106L349.94 98.1806C349.94 98.1806 370.418 86.8056 374.914 88.8076C379.411 90.8096 383.748 102.458 366.483 113.741C349.298 125.025 354.437 145.955 354.437 145.955H366.724C366.724 145.955 374.111 149.322 377.002 153.69C379.893 158.058 381.901 172.982 383.587 178.078C385.193 183.174 384.39 188.179 379.893 189.817C379.893 189.817 377.002 204.013 377.805 210.292C378.608 216.571 378.207 220.575 372.907 221.394C367.607 222.122 362.227 217.026 362.628 210.292L358.533 227.127L361.424 233.588C361.424 233.588 366.724 235.59 372.505 241.14C378.207 246.691 383.989 248.238 382.302 254.426C380.696 260.614 377.404 267.348 360.219 259.522C343.034 251.787 328.66 221.303 328.66 221.303" stroke="#141516" stroke-miterlimit="10" stroke-linecap="round" stroke-linejoin="round"/>
<path d="M379.814 189.817C373.63 191.728 366.483 190.272 363.833 177.987C361.183 165.702 366.483 152.507 370.017 151.324" stroke="#141516" stroke-miterlimit="10" stroke-linecap="round" stroke-linejoin="round"/>
<path d="M362.628 210.2C362.628 210.2 362.227 194.366 367.366 190.453" stroke="#141516" stroke-miterlimit="10" stroke-linecap="round" stroke-linejoin="round"/>
<path opacity="0.4" d="M213.264 288.915C213.264 288.915 198.248 286.822 194.875 279.178C192.064 272.899 177.048 296.468 159.301 306.751C174.157 289.552 189.977 270.26 194.875 260.796C199.211 252.333 204.672 237.682 209.49 223.851C209.249 235.317 203.869 252.788 205.395 261.979C205.395 261.979 199.613 263.617 200.737 270.806C201.942 278.177 213.264 288.915 213.264 288.915Z" fill="#6985D1"/>
<path d="M317.901 248.238C317.901 248.238 295.657 297.742 255.505 308.935C255.505 308.935 253.979 318.763 247.154 322.949C243.54 325.224 228.845 350.067 215.996 372.725" stroke="#141516" stroke-miterlimit="10" stroke-linecap="round" stroke-linejoin="round"/>
<path d="M144.848 323.313C162.033 304.112 188.372 273.627 194.877 260.887C204.754 241.595 220.574 190.09 220.574 190.09L281.604 113.195" stroke="#141516" stroke-miterlimit="10" stroke-linecap="round" stroke-linejoin="round"/>
<path d="M246.75 171.89C246.75 171.89 256.145 181.445 258.795 190.09" stroke="#141516" stroke-miterlimit="10" stroke-linecap="round" stroke-linejoin="round"/>
<path d="M357.489 288.915H256.548C253.577 288.915 251.168 286.185 251.168 282.818V39.304C251.168 35.937 253.577 33.207 256.548 33.207H357.489C360.461 33.207 362.87 35.937 362.87 39.304V282.727C362.87 286.185 360.461 288.915 357.489 288.915Z" fill="#141516"/>
<path d="M329.143 40.2138L326.975 44.6728C326.493 45.6738 325.609 46.2198 324.646 46.2198H289.312C288.349 46.2198 287.465 45.5828 286.984 44.6728L284.815 40.2138C284.334 39.2128 283.45 38.6668 282.487 38.6668H257.834C256.388 38.6668 255.184 40.0318 255.184 41.6698V281.089C255.184 282.727 256.388 284.092 257.834 284.092H356.205C357.65 284.092 358.855 282.727 358.855 281.089V41.6698C358.855 40.0318 357.65 38.6668 356.205 38.6668H331.552C330.508 38.5758 329.625 39.2128 329.143 40.2138Z" fill="#6985D1" stroke="#141516" stroke-miterlimit="10" stroke-linecap="round" stroke-linejoin="round"/>
<path d="M299.348 42.3072C300.146 42.3072 300.793 41.5739 300.793 40.6692C300.793 39.7646 300.146 39.0312 299.348 39.0312C298.549 39.0312 297.902 39.7646 297.902 40.6692C297.902 41.5739 298.549 42.3072 299.348 42.3072Z" stroke="white" stroke-miterlimit="10"/>
<path d="M316.13 40.669C316.13 41.215 315.728 41.67 315.247 41.67C314.765 41.67 314.363 41.215 314.363 40.669C314.363 40.123 314.765 39.668 315.247 39.668C315.728 39.668 316.13 40.123 316.13 40.669Z" stroke="white" stroke-miterlimit="10"/>
<path d="M312.116 40.0322H303.363C303.042 40.0322 302.801 40.3052 302.801 40.6692C302.801 41.0332 303.042 41.3062 303.363 41.3062H312.116C312.437 41.3062 312.678 41.0332 312.678 40.6692C312.678 40.3962 312.437 40.0322 312.116 40.0322Z" fill="white"/>
<path d="M273.411 44.6729H264.016V49.2228H273.411V44.6729Z" stroke="#141516" stroke-miterlimit="10" stroke-linecap="round" stroke-linejoin="round"/>
<path d="M274.938 45.4922H273.492V48.4952H274.938V45.4922Z" stroke="#141516" stroke-miterlimit="10" stroke-linecap="round" stroke-linejoin="round"/>
<path d="M340.225 47.585H338.539V49.223H340.225V47.585Z" stroke="#141516" stroke-miterlimit="10" stroke-linecap="round" stroke-linejoin="round"/>
<path d="M343.518 45.9473H341.832V49.2232H343.518V45.9473Z" stroke="#141516" stroke-miterlimit="10" stroke-linecap="round" stroke-linejoin="round"/>
<path d="M346.729 44.3086H345.043V49.2226H346.729V44.3086Z" stroke="#141516" stroke-miterlimit="10" stroke-linecap="round" stroke-linejoin="round"/>
<path d="M350.022 42.5801H348.336V49.223H350.022V42.5801Z" stroke="#141516" stroke-miterlimit="10" stroke-linecap="round" stroke-linejoin="round"/>
<path opacity="0.5" d="M358.13 91.5371H255.824V202.101H358.13V91.5371Z" fill="white"/>
<path d="M349.94 104.914H264.016V119.474H349.94V104.914Z" fill="white" stroke="#141516" stroke-miterlimit="10" stroke-linecap="round" stroke-linejoin="round"/>
<path d="M349.94 132.214H264.016V146.774H349.94V132.214Z" fill="white" stroke="#141516" stroke-miterlimit="10" stroke-linecap="round" stroke-linejoin="round"/>
<path d="M349.94 157.057H264.016V171.617H349.94V157.057Z" fill="white" stroke="#141516" stroke-miterlimit="10" stroke-linecap="round" stroke-linejoin="round"/>
<path d="M304.729 176.895H264.016V193.911H304.729V176.895Z" fill="white" stroke="#141516" stroke-miterlimit="10" stroke-linecap="round" stroke-linejoin="round"/>
<path d="M350.022 176.895H309.309V193.911H350.022V176.895Z" fill="white" stroke="#141516" stroke-miterlimit="10" stroke-linecap="round" stroke-linejoin="round"/>
<path d="M269.396 102.366V102.73H266.746V98.4531H269.316V98.8171H267.148V100.364H269.075V100.728H267.148V102.366H269.396Z" fill="#141516"/>
<path d="M275.015 100.91V102.821H274.614V101.001C274.614 100.273 274.293 100 273.811 100C273.249 100 272.847 100.455 272.847 101.183V102.912H272.446V101.092C272.446 100.364 272.124 100.091 271.642 100.091C271.08 100.091 270.679 100.546 270.679 101.274V103.003H270.277V99.7274H270.679V100.273C270.839 99.9094 271.241 99.6364 271.723 99.6364C272.205 99.6364 272.526 99.8184 272.767 100.364C273.008 99.9094 273.409 99.6364 273.891 99.6364C274.533 99.5454 275.015 100 275.015 100.91Z" fill="#141516"/>
<path d="M278.147 100.729V102.731H277.746V102.185C277.585 102.549 277.264 102.731 276.782 102.731C276.14 102.731 275.738 102.367 275.738 101.821C275.738 101.366 276.059 100.911 276.863 100.911H277.746V100.729C277.746 100.183 277.505 99.9101 276.943 99.9101C276.541 99.9101 276.22 100.092 275.979 100.274L275.819 99.9101C276.14 99.6371 276.541 99.4551 276.943 99.4551C277.746 99.5461 278.147 99.9101 278.147 100.729ZM277.826 101.821V101.275H276.943C276.381 101.275 276.22 101.548 276.22 101.821C276.22 102.185 276.461 102.458 276.943 102.458C277.344 102.458 277.666 102.185 277.826 101.821Z" fill="#141516"/>
<path d="M279.113 98.5445C279.113 98.3625 279.274 98.2715 279.435 98.2715C279.595 98.2715 279.756 98.3625 279.756 98.5445C279.756 98.7265 279.675 98.9085 279.435 98.9085C279.274 98.8175 279.113 98.6355 279.113 98.5445ZM279.194 99.5455H279.595V102.821H279.194V99.5455Z" fill="#141516"/>
<path d="M280.719 98.1807H281.12V102.731H280.719V98.1807Z" fill="#141516"/>
<path d="M272.048 113.559V113.923H269.398V109.646H271.968V110.01H269.8V111.557H271.727V111.921H269.8V113.559H272.048Z" fill="#141516"/>
<path d="M277.671 112.103V114.014H277.27V112.194C277.27 111.466 276.949 111.193 276.467 111.193C275.905 111.193 275.503 111.648 275.503 112.376V114.105H275.102V112.285C275.102 111.557 274.781 111.284 274.299 111.284C273.737 111.284 273.335 111.739 273.335 112.467V114.196H272.934V110.92H273.335V111.466C273.496 111.102 273.897 110.829 274.379 110.829C274.861 110.829 275.182 111.011 275.423 111.557C275.664 111.102 276.065 110.829 276.547 110.829C277.19 110.647 277.671 111.102 277.671 112.103Z" fill="#141516"/>
<path d="M280.882 111.92V113.922H280.48V113.376C280.32 113.74 279.998 113.922 279.517 113.922C278.874 113.922 278.473 113.558 278.473 113.012C278.473 112.557 278.794 112.102 279.597 112.102H280.48V111.92C280.48 111.374 280.239 111.101 279.677 111.101C279.276 111.101 278.954 111.283 278.714 111.465L278.553 111.101C278.874 110.828 279.276 110.646 279.677 110.646C280.4 110.646 280.882 111.101 280.882 111.92ZM280.48 112.921V112.375H279.597C279.035 112.375 278.874 112.648 278.874 112.921C278.874 113.285 279.115 113.558 279.597 113.558C279.998 113.649 280.32 113.376 280.48 112.921Z" fill="#141516"/>
<path d="M281.766 109.646C281.766 109.464 281.926 109.373 282.087 109.373C282.247 109.373 282.408 109.464 282.408 109.646C282.408 109.828 282.328 110.01 282.087 110.01C281.926 110.01 281.766 109.828 281.766 109.646ZM281.926 110.738H282.328V114.014H281.926V110.738Z" fill="#141516"/>
<path d="M283.371 109.373H283.773V113.923H283.371V109.373Z" fill="#141516"/>
<path d="M287.466 112.103V114.014H287.065V112.194C287.065 111.466 286.744 111.193 286.182 111.193C285.539 111.193 285.218 111.648 285.218 112.376V114.105H284.816V110.829H285.218V111.466C285.459 111.102 285.78 110.829 286.342 110.829C286.985 110.647 287.466 111.102 287.466 112.103Z" fill="#141516"/>
<path d="M290.679 111.92V113.922H290.277V113.376C290.117 113.74 289.795 113.922 289.313 113.922C288.671 113.922 288.27 113.558 288.27 113.012C288.27 112.557 288.591 112.102 289.394 112.102H290.277V111.92C290.277 111.374 290.036 111.101 289.474 111.101C289.073 111.101 288.751 111.283 288.51 111.465L288.35 111.101C288.671 110.828 289.073 110.646 289.474 110.646C290.197 110.646 290.679 111.101 290.679 111.92ZM290.277 112.921V112.375H289.394C288.832 112.375 288.671 112.648 288.671 112.921C288.671 113.285 288.912 113.558 289.394 113.558C289.795 113.649 290.117 113.376 290.277 112.921Z" fill="#141516"/>
<path d="M296.379 112.103V114.014H295.977V112.194C295.977 111.466 295.656 111.193 295.174 111.193C294.612 111.193 294.21 111.648 294.21 112.376V114.105H293.809V112.285C293.809 111.557 293.488 111.284 293.006 111.284C292.444 111.284 292.042 111.739 292.042 112.467V114.196H291.641V110.92H292.042V111.466C292.203 111.102 292.604 110.829 293.086 110.829C293.568 110.829 293.889 111.011 294.13 111.557C294.371 111.102 294.772 110.829 295.254 110.829C295.977 110.647 296.379 111.102 296.379 112.103Z" fill="#141516"/>
<path d="M299.912 112.466H297.503C297.583 113.103 297.985 113.558 298.627 113.558C298.949 113.558 299.27 113.376 299.511 113.103L299.752 113.376C299.511 113.74 299.109 113.922 298.627 113.922C297.744 113.922 297.102 113.194 297.102 112.284C297.102 111.283 297.664 110.646 298.467 110.646C299.27 110.646 299.832 111.283 299.832 112.284C299.912 112.375 299.912 112.375 299.912 112.466ZM297.583 112.102H299.591C299.511 111.465 299.109 111.01 298.547 111.01C297.985 111.01 297.583 111.465 297.583 112.102Z" fill="#141516"/>
<path d="M305.534 112.285C305.534 113.286 305.213 113.923 304.651 113.923C304.329 113.923 304.088 113.65 304.008 113.286C303.767 113.741 303.366 113.923 302.884 113.923C302.081 113.923 301.519 113.286 301.519 112.285C301.519 111.375 302.081 110.738 302.884 110.738C303.366 110.738 303.767 111.011 303.928 111.375V110.738H304.249V113.104C304.249 113.468 304.41 113.559 304.57 113.559C304.892 113.559 305.132 113.104 305.132 112.285C305.132 110.829 304.249 109.919 302.884 109.919C301.519 109.919 300.635 110.92 300.635 112.376C300.635 113.832 301.519 114.833 302.884 114.833C303.205 114.833 303.607 114.742 303.928 114.56L304.008 114.833C303.687 115.015 303.205 115.106 302.884 115.106C301.358 115.106 300.395 113.923 300.395 112.285C300.395 110.647 301.438 109.464 302.964 109.464C304.49 109.555 305.534 110.647 305.534 112.285ZM304.008 112.376C304.008 111.648 303.526 111.193 302.964 111.193C302.322 111.193 301.92 111.648 301.92 112.376C301.92 113.104 302.322 113.65 302.964 113.65C303.526 113.65 304.008 113.104 304.008 112.376Z" fill="#141516"/>
<path d="M308.826 112.466H306.417C306.497 113.103 306.899 113.558 307.541 113.558C307.863 113.558 308.184 113.376 308.425 113.103L308.666 113.376C308.425 113.74 308.023 113.922 307.541 113.922C306.658 113.922 306.016 113.194 306.016 112.284C306.016 111.283 306.578 110.646 307.381 110.646C308.184 110.646 308.746 111.283 308.746 112.284C308.826 112.375 308.826 112.375 308.826 112.466ZM306.417 112.102H308.425C308.344 111.465 307.943 111.01 307.381 111.01C306.899 111.01 306.497 111.465 306.417 112.102Z" fill="#141516"/>
<path d="M314.289 112.103V114.014H313.887V112.194C313.887 111.466 313.566 111.193 313.084 111.193C312.522 111.193 312.12 111.648 312.12 112.376V114.105H311.719V112.285C311.719 111.557 311.398 111.284 310.916 111.284C310.354 111.284 309.952 111.739 309.952 112.467V114.196H309.551V110.92H309.952V111.466C310.113 111.102 310.514 110.829 310.996 110.829C311.478 110.829 311.799 111.011 312.04 111.557C312.281 111.102 312.683 110.829 313.164 110.829C313.887 110.647 314.289 111.102 314.289 112.103Z" fill="#141516"/>
<path d="M317.499 111.92V113.922H317.097V113.376C316.937 113.74 316.616 113.922 316.134 113.922C315.491 113.922 315.09 113.558 315.09 113.012C315.09 112.557 315.411 112.102 316.214 112.102H317.097V111.92C317.097 111.374 316.857 111.101 316.294 111.101C315.893 111.101 315.572 111.283 315.331 111.465L315.17 111.101C315.491 110.828 315.893 110.646 316.294 110.646C317.097 110.646 317.499 111.101 317.499 111.92ZM317.178 112.921V112.375H316.294C315.732 112.375 315.572 112.648 315.572 112.921C315.572 113.285 315.813 113.558 316.294 113.558C316.696 113.649 317.017 113.376 317.178 112.921Z" fill="#141516"/>
<path d="M318.465 109.646C318.465 109.464 318.625 109.373 318.786 109.373C318.947 109.373 319.107 109.464 319.107 109.646C319.107 109.828 319.027 110.01 318.786 110.01C318.625 110.01 318.465 109.828 318.465 109.646ZM318.545 110.738H318.947V114.014H318.545V110.738Z" fill="#141516"/>
<path d="M320.07 109.373H320.472V113.923H320.07V109.373Z" fill="#141516"/>
<path d="M321.273 113.65C321.273 113.468 321.434 113.286 321.595 113.286C321.755 113.286 321.916 113.468 321.916 113.65C321.916 113.832 321.755 114.014 321.595 114.014C321.354 113.923 321.273 113.832 321.273 113.65Z" fill="#141516"/>
<path d="M322.238 112.284C322.238 111.283 322.881 110.646 323.684 110.646C324.166 110.646 324.567 110.828 324.808 111.283L324.487 111.465C324.326 111.101 324.005 111.01 323.684 111.01C323.041 111.01 322.64 111.556 322.64 112.284C322.64 113.012 323.122 113.558 323.684 113.558C324.005 113.558 324.326 113.376 324.487 113.103L324.808 113.285C324.567 113.74 324.166 113.922 323.684 113.922C322.881 113.922 322.238 113.285 322.238 112.284Z" fill="#141516"/>
<path d="M325.289 112.284C325.289 111.283 325.931 110.646 326.735 110.646C327.538 110.646 328.18 111.374 328.18 112.284C328.18 113.285 327.538 113.922 326.735 113.922C325.931 113.922 325.289 113.285 325.289 112.284ZM327.778 112.284C327.778 111.556 327.297 111.01 326.735 111.01C326.092 111.01 325.691 111.556 325.691 112.284C325.691 113.012 326.172 113.558 326.735 113.558C327.377 113.558 327.778 113.103 327.778 112.284Z" fill="#141516"/>
<path d="M333.642 112.103V114.014H333.24V112.194C333.24 111.466 332.919 111.193 332.437 111.193C331.875 111.193 331.474 111.648 331.474 112.376V114.105H331.153V112.285C331.153 111.557 330.831 111.284 330.35 111.284C329.787 111.284 329.386 111.739 329.386 112.467V114.196H328.984V110.92H329.386V111.466C329.546 111.102 329.948 110.829 330.43 110.829C330.912 110.829 331.233 111.011 331.474 111.557C331.715 111.102 332.116 110.829 332.598 110.829C333.24 110.647 333.642 111.102 333.642 112.103Z" fill="#141516"/>
<path d="M270.04 139.585L270.683 140.04L270.522 140.313L269.88 139.858V140.768H269.639V139.858L268.997 140.313L268.836 140.04L269.478 139.585L268.836 139.13L268.997 138.857L269.639 139.312V138.402H269.88V139.312L270.522 138.857L270.683 139.13L270.04 139.585Z" fill="#141516"/>
<path d="M272.29 139.585L272.933 140.04L272.772 140.313L272.13 139.858V140.768H271.889V139.858L271.247 140.313L271.086 140.04L271.728 139.585L271.086 139.13L271.247 138.857L271.889 139.312V138.402H272.13V139.312L272.772 138.857L272.933 139.13L272.29 139.585Z" fill="#141516"/>
<path d="M274.455 139.585L275.097 140.04L274.936 140.313L274.294 139.858V140.768H274.053V139.858L273.411 140.313L273.25 140.04L273.892 139.585L273.25 139.13L273.411 138.857L274.053 139.312V138.402H274.294V139.312L274.936 138.857L275.097 139.13L274.455 139.585Z" fill="#141516"/>
<path d="M276.705 139.585L277.347 140.04L277.186 140.313L276.544 139.858V140.768H276.303V139.858L275.661 140.313L275.5 140.04L276.142 139.585L275.5 139.13L275.661 138.857L276.303 139.312V138.402H276.544V139.312L277.186 138.857L277.347 139.13L276.705 139.585Z" fill="#141516"/>
<path d="M278.873 139.585L279.515 140.04L279.354 140.313L278.712 139.858V140.768H278.471V139.858L277.829 140.313L277.668 140.04L278.31 139.585L277.668 139.13L277.829 138.857L278.471 139.312V138.402H278.712V139.312L279.354 138.857L279.515 139.13L278.873 139.585Z" fill="#141516"/>
<path d="M281.123 139.585L281.765 140.04L281.604 140.313L280.962 139.858V140.768H280.721V139.858L280.079 140.313L279.918 140.04L280.56 139.585L279.918 139.13L280.079 138.857L280.721 139.312V138.402H280.962V139.312L281.604 138.857L281.765 139.13L281.123 139.585Z" fill="#141516"/>
<path d="M283.29 139.585L283.933 140.04L283.772 140.313L283.13 139.858V140.768H282.889V139.858L282.247 140.313L282.086 140.04L282.728 139.585L282.086 139.13L282.247 138.857L282.889 139.312V138.402H283.13V139.312L283.772 138.857L283.933 139.13L283.29 139.585Z" fill="#141516"/>
<path d="M285.458 139.585L286.101 140.04L285.94 140.313L285.298 139.858V140.768H285.057V139.858L284.415 140.313L284.254 140.04L284.896 139.585L284.254 139.13L284.415 138.857L285.057 139.312V138.402H285.298V139.312L285.94 138.857L286.101 139.13L285.458 139.585Z" fill="#141516"/>
<path d="M287.705 139.585L288.347 140.04L288.186 140.313L287.544 139.858V140.768H287.303V139.858L286.661 140.313L286.5 140.04L287.142 139.585L286.5 139.13L286.661 138.857L287.303 139.312V138.402H287.544V139.312L288.186 138.857L288.347 139.13L287.705 139.585Z" fill="#141516"/>
<path d="M289.876 139.585L290.519 140.04L290.358 140.313L289.716 139.858V140.768H289.475V139.858L288.832 140.313L288.672 140.04L289.314 139.585L288.672 139.13L288.832 138.857L289.475 139.312V138.402H289.716V139.312L290.358 138.857L290.519 139.13L289.876 139.585Z" fill="#141516"/>
<path d="M292.123 139.585L292.765 140.04L292.604 140.313L291.962 139.858V140.768H291.721V139.858L291.079 140.313L290.918 140.04L291.56 139.585L290.918 139.13L291.079 138.857L291.721 139.312V138.402H291.962V139.312L292.604 138.857L292.765 139.13L292.123 139.585Z" fill="#141516"/>
<path d="M269.717 127.21C269.717 128.12 269.155 128.666 268.192 128.666H267.148V130.031H266.746V125.754H268.192C269.075 125.754 269.717 126.3 269.717 127.21ZM269.316 127.21C269.316 126.482 268.914 126.118 268.192 126.118H267.148V128.302H268.192C268.914 128.302 269.316 127.938 269.316 127.21Z" fill="#141516"/>
<path d="M272.608 128.028V130.03H272.207V129.484C272.046 129.848 271.725 130.03 271.243 130.03C270.601 130.03 270.199 129.666 270.199 129.12C270.199 128.665 270.52 128.21 271.323 128.21H272.207V128.028C272.207 127.482 271.966 127.209 271.404 127.209C271.002 127.209 270.681 127.391 270.44 127.573L270.28 127.209C270.601 126.936 271.002 126.754 271.404 126.754C272.207 126.754 272.608 127.209 272.608 128.028ZM272.207 129.12V128.574H271.323C270.761 128.574 270.601 128.847 270.601 129.12C270.601 129.484 270.842 129.757 271.323 129.757C271.725 129.757 272.046 129.484 272.207 129.12Z" fill="#141516"/>
<path d="M273.25 129.666L273.411 129.302C273.652 129.484 274.053 129.666 274.455 129.666C275.017 129.666 275.258 129.484 275.258 129.12C275.258 128.301 273.411 128.938 273.411 127.664C273.411 127.118 273.812 126.754 274.535 126.754C274.936 126.754 275.338 126.845 275.579 127.027L275.418 127.391C275.177 127.209 274.856 127.118 274.615 127.118C274.133 127.118 273.892 127.391 273.892 127.664C273.892 128.574 275.739 127.846 275.739 129.12C275.739 129.666 275.338 130.03 274.535 130.03C273.973 130.121 273.491 129.939 273.25 129.666Z" fill="#141516"/>
<path d="M275.898 129.666L276.059 129.302C276.3 129.484 276.701 129.666 277.103 129.666C277.665 129.666 277.906 129.484 277.906 129.12C277.906 128.301 276.059 128.938 276.059 127.664C276.059 127.118 276.461 126.754 277.183 126.754C277.585 126.754 277.986 126.845 278.227 127.027L278.067 127.391C277.826 127.209 277.504 127.118 277.264 127.118C276.782 127.118 276.541 127.391 276.541 127.664C276.541 128.574 278.388 127.846 278.388 129.12C278.388 129.666 277.986 130.03 277.183 130.03C276.621 130.121 276.139 129.939 275.898 129.666Z" fill="#141516"/>
<path d="M283.13 126.846L282.086 130.122H281.685L280.801 127.483L279.918 130.122H279.517L278.473 126.846H278.874L279.758 129.576L280.641 126.846H280.962L281.845 129.576L282.729 126.846H283.13Z" fill="#141516"/>
<path d="M283.289 128.484C283.289 127.483 283.931 126.846 284.735 126.846C285.538 126.846 286.18 127.574 286.18 128.484C286.18 129.394 285.538 130.122 284.735 130.122C283.931 130.122 283.289 129.394 283.289 128.484ZM285.859 128.484C285.859 127.756 285.377 127.21 284.815 127.21C284.172 127.21 283.771 127.756 283.771 128.484C283.771 129.212 284.253 129.758 284.815 129.758C285.377 129.667 285.859 129.212 285.859 128.484Z" fill="#141516"/>
<path d="M288.426 126.754V127.209H288.346C287.783 127.209 287.382 127.664 287.382 128.392V130.03H286.98V126.754H287.382V127.391C287.543 127.027 287.944 126.754 288.426 126.754Z" fill="#141516"/>
<path d="M291.721 125.48V130.03H291.32V129.393C291.079 129.848 290.677 130.03 290.195 130.03C289.392 130.03 288.75 129.393 288.75 128.392C288.75 127.391 289.392 126.754 290.195 126.754C290.677 126.754 291.079 126.936 291.32 127.391V125.48H291.721ZM291.32 128.483C291.32 127.755 290.838 127.209 290.276 127.209C289.633 127.209 289.232 127.755 289.232 128.483C289.232 129.211 289.714 129.757 290.276 129.757C290.918 129.666 291.32 129.211 291.32 128.483Z" fill="#141516"/>
<path d="M297.422 162.699V166.976H297.02V163.063H296.137V162.699H297.422Z" fill="#141516"/>
<path d="M300.955 166.612V166.976H298.225V166.703L299.831 164.974C300.232 164.519 300.313 164.246 300.313 163.882C300.313 163.427 299.992 163.063 299.429 163.063C298.948 163.063 298.626 163.245 298.385 163.518L298.145 163.245C298.466 162.881 298.948 162.608 299.51 162.608C300.313 162.608 300.795 163.063 300.795 163.791C300.795 164.246 300.714 164.61 300.152 165.156L298.867 166.612H300.955Z" fill="#141516"/>
<path d="M303.926 165.793C303.926 166.521 303.444 167.067 302.56 167.067C301.998 167.067 301.517 166.885 301.195 166.521L301.356 166.157C301.597 166.43 302.079 166.612 302.56 166.612C303.203 166.612 303.524 166.248 303.524 165.702C303.524 165.156 303.203 164.883 302.48 164.883H302.239V164.519L303.283 163.063H301.356V162.699H303.765V162.972L302.721 164.519C303.524 164.61 303.926 165.065 303.926 165.793Z" fill="#141516"/>
<path d="M307.703 165.884H306.98V166.976H306.578V165.884H304.41V165.52L306.418 162.699H306.819L304.892 165.52H306.578V164.519H306.98V165.52H307.703V165.884Z" fill="#141516"/>
<path d="M312.035 165.703C312.035 166.431 311.553 166.977 310.67 166.977C310.108 166.977 309.626 166.795 309.305 166.431L309.465 166.067C309.706 166.34 310.108 166.522 310.67 166.522C311.312 166.522 311.633 166.158 311.633 165.612C311.633 165.066 311.312 164.702 310.349 164.702H309.546L309.706 162.518H311.794V162.882H310.027L309.867 164.247H310.349C311.633 164.429 312.035 164.975 312.035 165.703Z" fill="#141516"/>
<path d="M315.408 165.702C315.408 166.521 314.846 167.067 314.123 167.067C313.079 167.067 312.598 166.248 312.598 164.883C312.598 163.427 313.32 162.699 314.364 162.699C314.686 162.699 315.007 162.79 315.248 162.972L315.087 163.336C314.926 163.154 314.605 163.154 314.364 163.154C313.561 163.154 312.999 163.791 312.999 164.883C312.999 164.974 312.999 165.065 312.999 165.247C313.16 164.792 313.642 164.519 314.123 164.519C314.846 164.428 315.408 164.883 315.408 165.702ZM315.007 165.702C315.007 165.156 314.605 164.792 314.043 164.792C313.481 164.792 313.079 165.156 313.079 165.702C313.079 166.157 313.401 166.612 314.123 166.612C314.605 166.612 315.007 166.248 315.007 165.702Z" fill="#141516"/>
<path d="M318.463 162.699V162.972L316.857 166.976H316.455L317.981 163.063H316.054V163.882H315.652V162.699H318.463Z" fill="#141516"/>
<path d="M321.832 165.793C321.832 166.521 321.27 167.067 320.387 167.067C319.504 167.067 318.941 166.612 318.941 165.793C318.941 165.247 319.182 164.883 319.664 164.701C319.263 164.519 319.102 164.246 319.102 163.791C319.102 163.063 319.664 162.608 320.467 162.608C321.27 162.608 321.832 163.063 321.832 163.791C321.832 164.246 321.591 164.61 321.19 164.701C321.591 164.883 321.832 165.247 321.832 165.793ZM321.431 165.793C321.431 165.247 321.029 164.974 320.387 164.974C319.744 164.974 319.343 165.338 319.343 165.793C319.343 166.339 319.744 166.703 320.387 166.703C321.029 166.612 321.431 166.339 321.431 165.793ZM320.387 164.61C320.949 164.61 321.351 164.337 321.351 163.882C321.351 163.427 320.949 163.063 320.387 163.063C319.825 163.063 319.423 163.336 319.423 163.882C319.423 164.246 319.744 164.61 320.387 164.61Z" fill="#141516"/>
<path d="M326.49 164.793C326.49 166.249 325.768 166.977 324.724 166.977C324.402 166.977 324.081 166.886 323.84 166.704L324.001 166.34C324.162 166.522 324.483 166.522 324.724 166.522C325.527 166.522 326.089 165.885 326.089 164.793C326.089 164.702 326.089 164.611 326.089 164.429C325.928 164.884 325.446 165.157 324.965 165.157C324.242 165.157 323.68 164.611 323.68 163.883C323.68 163.064 324.242 162.518 324.965 162.518C326.008 162.609 326.49 163.428 326.49 164.793ZM326.008 163.974C326.008 163.519 325.687 163.064 325.045 163.064C324.483 163.064 324.081 163.428 324.081 163.974C324.081 164.52 324.483 164.884 325.045 164.884C325.607 164.884 326.008 164.52 326.008 163.974Z" fill="#141516"/>
<path d="M328.097 162.699V166.976H327.696V163.063H326.812V162.699H328.097Z" fill="#141516"/>
<path d="M329.062 164.883C329.062 163.518 329.705 162.699 330.588 162.699C331.472 162.699 332.114 163.518 332.114 164.883C332.114 166.248 331.472 167.067 330.588 167.067C329.705 167.067 329.062 166.248 329.062 164.883ZM331.713 164.883C331.713 163.7 331.231 163.063 330.588 163.063C329.946 163.063 329.464 163.7 329.464 164.883C329.464 166.066 329.946 166.703 330.588 166.703C331.231 166.612 331.713 165.975 331.713 164.883Z" fill="#141516"/>
<path d="M333.636 162.699V166.976H333.235V163.063H332.352V162.699H333.636Z" fill="#141516"/>
<path d="M337.09 162.699V166.976H336.688V163.063H335.805V162.699H337.09Z" fill="#141516"/>
<path d="M339.019 162.699V166.976H338.618V163.063H337.734V162.699H339.019Z" fill="#141516"/>
<path d="M342.551 166.612V166.976H339.901V166.703L341.507 164.974C341.908 164.519 341.989 164.246 341.989 163.882C341.989 163.427 341.667 163.063 341.105 163.063C340.623 163.063 340.302 163.245 340.061 163.518L339.82 163.245C340.142 162.881 340.623 162.608 341.185 162.608C341.989 162.608 342.47 163.063 342.47 163.791C342.47 164.246 342.39 164.61 341.828 165.156L340.543 166.612H342.551Z" fill="#141516"/>
<path d="M344.078 162.699V166.976H343.676V163.063H342.793V162.699H344.078Z" fill="#141516"/>
<path d="M279.996 161.698V161.061C279.996 160.424 279.514 159.878 278.952 159.878H268.673C268.111 159.878 267.629 160.424 267.629 161.061V161.698H279.996Z" fill="#141516"/>
<path d="M267.707 162.607V167.43C267.707 168.067 268.189 168.613 268.751 168.613H279.03C279.592 168.613 280.074 168.067 280.074 167.43V162.607H267.707Z" fill="#141516"/>
<path d="M267.871 187.997C267.871 186.632 268.514 185.813 269.397 185.813C270.28 185.813 270.923 186.632 270.923 187.997C270.923 189.362 270.28 190.181 269.397 190.181C268.514 190.181 267.871 189.362 267.871 187.997ZM270.521 187.997C270.521 186.814 270.039 186.177 269.397 186.177C268.754 186.177 268.273 186.814 268.273 187.997C268.273 189.18 268.754 189.817 269.397 189.817C270.039 189.817 270.521 189.18 270.521 187.997Z" fill="#141516"/>
<path d="M274.375 188.998C274.375 189.726 273.813 190.272 272.93 190.272C272.046 190.272 271.484 189.817 271.484 188.998C271.484 188.452 271.725 188.088 272.207 187.906C271.806 187.724 271.645 187.451 271.645 186.996C271.645 186.268 272.207 185.813 273.01 185.813C273.813 185.813 274.375 186.268 274.375 186.996C274.375 187.451 274.134 187.815 273.733 187.906C274.134 188.088 274.375 188.452 274.375 188.998ZM273.974 188.907C273.974 188.361 273.572 188.088 272.93 188.088C272.287 188.088 271.886 188.452 271.886 188.907C271.886 189.453 272.287 189.817 272.93 189.817C273.572 189.817 273.974 189.453 273.974 188.907ZM272.93 187.724C273.492 187.724 273.893 187.451 273.893 186.996C273.893 186.541 273.492 186.177 272.93 186.177C272.368 186.177 271.966 186.45 271.966 186.996C271.966 187.451 272.368 187.724 272.93 187.724Z" fill="#141516"/>
<path d="M276.302 184.994H276.623L274.856 190.818H274.535L276.302 184.994Z" fill="#141516"/>
<path d="M279.355 189.726V190.09H276.705V189.817L278.311 188.088C278.713 187.633 278.793 187.36 278.793 186.996C278.793 186.541 278.472 186.177 277.91 186.177C277.428 186.177 277.107 186.359 276.866 186.632L276.625 186.359C276.946 185.995 277.428 185.722 277.99 185.722C278.793 185.722 279.275 186.177 279.275 186.905C279.275 187.36 279.195 187.724 278.633 188.27L277.348 189.726H279.355Z" fill="#141516"/>
<path d="M282.406 188.907C282.406 189.635 281.924 190.181 281.041 190.181C280.479 190.181 279.997 189.999 279.676 189.635L279.836 189.271C280.077 189.544 280.479 189.726 281.041 189.726C281.683 189.726 282.005 189.362 282.005 188.816C282.005 188.27 281.683 187.906 280.72 187.906H279.917L280.077 185.722H282.165V186.086H280.399L280.238 187.451H280.72C282.005 187.633 282.406 188.088 282.406 188.907Z" fill="#141516"/>
<path d="M269.639 183.083V183.356H267.953V180.717H269.559V180.99H268.194V181.9H269.399V182.173H268.194V183.174H269.639V183.083Z" fill="#141516"/>
<path d="M271.726 183.356L270.923 182.173L270.2 183.356H269.879L270.762 181.991L269.959 180.717H270.28L271.003 181.809L271.726 180.717H271.967L271.164 181.991L272.047 183.356H271.726Z" fill="#141516"/>
<path d="M274.218 181.536C274.218 182.082 273.817 182.446 273.254 182.446H272.612V183.265H272.371V180.626H273.254C273.817 180.626 274.218 180.99 274.218 181.536ZM273.977 181.536C273.977 181.081 273.736 180.899 273.254 180.899H272.612V182.264H273.254C273.736 182.264 273.977 181.991 273.977 181.536Z" fill="#141516"/>
<path d="M275.66 180.626H276.624C277.347 180.626 277.909 181.172 277.909 181.991C277.909 182.81 277.427 183.356 276.624 183.356H275.66V180.626ZM276.624 183.083C277.266 183.083 277.668 182.628 277.668 181.991C277.668 181.354 277.266 180.899 276.624 180.899H275.901V183.083H276.624Z" fill="#141516"/>
<path d="M279.756 182.082V183.356H279.515V183.083C279.435 183.265 279.194 183.447 278.873 183.447C278.471 183.447 278.23 183.174 278.23 182.901C278.23 182.628 278.391 182.355 278.953 182.355H279.515V182.264C279.515 181.9 279.355 181.718 279.034 181.718C278.793 181.718 278.552 181.809 278.471 181.991L278.391 181.809C278.552 181.627 278.793 181.536 279.114 181.536C279.515 181.263 279.756 181.536 279.756 182.082ZM279.515 182.719V182.355H278.953C278.632 182.355 278.471 182.537 278.471 182.719C278.471 182.992 278.632 183.083 278.953 183.083C279.194 183.083 279.435 182.992 279.515 182.719Z" fill="#141516"/>
<path d="M281.365 183.174C281.284 183.265 281.124 183.356 280.963 183.356C280.642 183.356 280.481 183.174 280.481 182.81V181.627H280.16V181.354H280.481V180.899H280.722V181.354H281.284V181.627H280.722V182.81C280.722 183.083 280.803 183.174 281.043 183.174C281.124 183.174 281.204 183.174 281.284 183.083L281.365 183.174Z" fill="#141516"/>
<path d="M283.21 182.355H281.764C281.764 182.81 282.086 183.083 282.487 183.083C282.728 183.083 282.889 182.992 283.049 182.81L283.21 182.992C283.049 183.174 282.808 183.356 282.487 183.356C281.925 183.356 281.523 182.901 281.523 182.355C281.523 181.718 281.925 181.354 282.407 181.354C282.889 181.263 283.21 181.718 283.21 182.355ZM281.764 182.173H283.049C283.049 181.809 282.728 181.536 282.407 181.536C282.005 181.536 281.764 181.809 281.764 182.173Z" fill="#141516"/>
<path d="M312.761 185.812V190.089H312.36V186.176H311.477V185.812H312.761Z" fill="#141516"/>
<path d="M316.215 189.726V190.09H313.565V189.817L315.171 188.088C315.572 187.633 315.653 187.36 315.653 186.996C315.653 186.541 315.331 186.177 314.769 186.177C314.287 186.177 313.966 186.359 313.725 186.632L313.484 186.359C313.806 185.995 314.287 185.722 314.85 185.722C315.653 185.722 316.134 186.177 316.134 186.905C316.134 187.36 316.054 187.724 315.492 188.27L314.207 189.726H316.215Z" fill="#141516"/>
<path d="M319.265 188.906C319.265 189.634 318.784 190.18 317.9 190.18C317.338 190.18 316.856 189.998 316.535 189.634L316.696 189.27C316.937 189.543 317.418 189.725 317.9 189.725C318.543 189.725 318.864 189.361 318.864 188.815C318.864 188.269 318.543 187.996 317.82 187.996H317.579V187.632L318.623 186.176H316.696V185.812H319.105V186.086L318.061 187.632C318.864 187.723 319.265 188.269 319.265 188.906Z" fill="#141516"/>
<path d="M311.555 181.991C311.555 181.172 312.117 180.626 312.759 180.626C313.08 180.626 313.402 180.717 313.643 180.99L313.482 181.172C313.321 180.99 313.08 180.899 312.759 180.899C312.197 180.899 311.796 181.354 311.796 181.991C311.796 182.628 312.197 183.083 312.759 183.083C313 183.083 313.241 182.992 313.482 182.719L313.643 182.901C313.402 183.174 313.161 183.265 312.759 183.265C312.117 183.356 311.555 182.719 311.555 181.991Z" fill="#141516"/>
<path d="M317.416 180.626L316.613 183.265H316.372L315.649 180.99L314.927 183.265H314.686L313.883 180.626H314.124L314.766 182.901L315.489 180.626H315.73L316.453 182.901L317.175 180.626H317.416Z" fill="#141516"/>
<path d="M291.639 213.295H289.551L289.069 214.478H288.668L290.435 210.201H290.836L292.603 214.478H292.201L291.639 213.295ZM291.559 212.931L290.676 210.656L289.792 212.931H291.559Z" fill="#141516"/>
<path d="M292.766 212.839C292.766 211.838 293.408 211.201 294.211 211.201C294.693 211.201 295.094 211.383 295.335 211.838L295.014 212.02C294.854 211.656 294.532 211.565 294.211 211.565C293.569 211.565 293.167 212.111 293.167 212.839C293.167 213.567 293.649 214.113 294.211 214.113C294.532 214.113 294.854 213.931 295.014 213.658L295.335 213.84C295.094 214.295 294.693 214.477 294.211 214.477C293.408 214.477 292.766 213.749 292.766 212.839Z" fill="#141516"/>
<path d="M297.662 214.205C297.501 214.387 297.26 214.478 297.019 214.478C296.457 214.478 296.216 214.114 296.216 213.568V211.566H295.734V211.202H296.216V210.474H296.618V211.202H297.501V211.566H296.618V213.477C296.618 213.841 296.778 214.023 297.1 214.023C297.26 214.023 297.421 213.932 297.501 213.841L297.662 214.205Z" fill="#141516"/>
<path d="M298.305 210.201C298.305 210.019 298.465 209.928 298.626 209.928C298.787 209.928 298.947 210.019 298.947 210.201C298.947 210.383 298.867 210.565 298.626 210.565C298.385 210.474 298.305 210.383 298.305 210.201ZM298.385 211.202H298.786V214.478H298.385V211.202Z" fill="#141516"/>
<path d="M299.508 212.839C299.508 211.838 300.15 211.201 300.953 211.201C301.756 211.201 302.399 211.929 302.399 212.839C302.399 213.84 301.756 214.477 300.953 214.477C300.15 214.477 299.508 213.749 299.508 212.839ZM302.078 212.839C302.078 212.111 301.596 211.565 301.034 211.565C300.391 211.565 299.99 212.111 299.99 212.839C299.99 213.567 300.471 214.113 301.034 214.113C301.596 214.113 302.078 213.567 302.078 212.839Z" fill="#141516"/>
<path d="M305.853 212.567V214.478H305.452V212.658C305.452 211.93 305.13 211.657 304.568 211.657C303.926 211.657 303.605 212.112 303.605 212.84V214.569H303.203V211.293H303.605V211.93C303.846 211.566 304.167 211.293 304.729 211.293C305.371 211.202 305.853 211.657 305.853 212.567Z" fill="#141516"/>
<path d="M308.823 210.565V212.294H310.751V212.658H308.823V214.478H308.422V210.201H310.992V210.565H308.823Z" fill="#141516"/>
<path d="M311.637 210.201C311.637 210.019 311.797 209.928 311.958 209.928C312.119 209.928 312.279 210.019 312.279 210.201C312.279 210.383 312.199 210.565 311.958 210.565C311.717 210.474 311.637 210.383 311.637 210.201ZM311.717 211.202H312.119V214.478H311.717V211.202Z" fill="#141516"/>
<path d="M315.813 211.201V214.022C315.813 215.114 315.331 215.66 314.368 215.66C313.886 215.66 313.324 215.478 313.003 215.205L313.163 214.841C313.404 215.114 313.886 215.296 314.287 215.296C315.01 215.296 315.331 214.932 315.331 214.113V213.658C315.091 214.113 314.689 214.295 314.207 214.295C313.404 214.295 312.762 213.658 312.762 212.748C312.762 211.838 313.404 211.201 314.207 211.201C314.689 211.201 315.091 211.383 315.331 211.838V211.201H315.813ZM315.412 212.748C315.412 212.02 314.93 211.565 314.287 211.565C313.645 211.565 313.244 212.02 313.244 212.748C313.244 213.476 313.725 213.931 314.287 213.931C315.01 213.931 315.412 213.476 315.412 212.748Z" fill="#141516"/>
<path d="M319.425 211.201V214.477H319.104V213.931C318.943 214.295 318.542 214.568 318.06 214.568C317.337 214.568 316.855 214.113 316.855 213.203V211.292H317.257V213.112C317.257 213.84 317.578 214.113 318.14 214.113C318.702 214.113 319.104 213.658 319.104 212.93V211.201H319.425Z" fill="#141516"/>
<path d="M321.992 211.201V211.656H321.912C321.35 211.656 320.948 212.111 320.948 212.839V214.477H320.547V211.201H320.948V211.838C321.109 211.383 321.43 211.201 321.992 211.201Z" fill="#141516"/>
<path d="M325.127 212.93H322.718C322.798 213.567 323.2 214.022 323.842 214.022C324.163 214.022 324.485 213.84 324.726 213.567L324.966 213.84C324.726 214.204 324.324 214.386 323.842 214.386C322.959 214.386 322.316 213.658 322.316 212.748C322.316 211.747 322.879 211.11 323.682 211.11C324.485 211.11 325.047 211.747 325.047 212.748C325.127 212.839 325.127 212.93 325.127 212.93ZM322.718 212.657H324.726C324.645 212.02 324.244 211.565 323.682 211.565C323.2 211.565 322.798 212.02 322.718 212.657Z" fill="#141516"/>
<path d="M293.407 231.677V233.588H291.881V231.768C290.436 231.677 288.991 231.131 288.188 230.403L288.991 228.31C289.713 228.947 290.838 229.402 291.881 229.493V226.672C290.195 226.217 288.348 225.58 288.348 223.214C288.348 221.394 289.472 219.847 291.881 219.574V217.663H293.407V219.483C294.531 219.574 295.575 219.938 296.459 220.484L295.736 222.577C295.013 222.122 294.21 221.758 293.488 221.667V224.579C295.174 225.034 296.941 225.671 296.941 228.037C296.86 229.857 295.736 231.404 293.407 231.677ZM291.881 224.215V221.849C291.078 222.031 290.757 222.577 290.757 223.123C290.757 223.669 291.239 224.033 291.881 224.215ZM294.451 228.31C294.451 227.673 294.05 227.4 293.407 227.127V229.493C294.13 229.311 294.451 228.856 294.451 228.31Z" fill="#141516"/>
<path d="M305.691 229.311V231.586H297.822V229.766L301.837 225.489C302.8 224.488 302.961 223.851 302.961 223.305C302.961 222.395 302.399 221.849 301.275 221.849C300.391 221.849 299.588 222.213 299.107 223.032L297.34 221.758C298.143 220.393 299.588 219.574 301.516 219.574C303.844 219.574 305.37 220.939 305.37 223.032C305.37 224.215 305.049 225.216 303.603 226.763L301.194 229.311H305.691Z" fill="#141516"/>
<path d="M306.656 225.671C306.656 221.758 308.584 219.574 311.153 219.574C313.723 219.574 315.65 221.758 315.65 225.671C315.65 229.584 313.723 231.768 311.153 231.768C308.503 231.768 306.656 229.584 306.656 225.671ZM313.161 225.671C313.161 222.941 312.358 221.849 311.153 221.849C309.949 221.849 309.146 222.941 309.146 225.671C309.146 228.401 309.949 229.493 311.153 229.493C312.277 229.493 313.161 228.31 313.161 225.671Z" fill="#141516"/>
<path d="M316.773 225.671C316.773 221.758 318.701 219.574 321.27 219.574C323.84 219.574 325.767 221.758 325.767 225.671C325.767 229.584 323.84 231.768 321.27 231.768C318.62 231.768 316.773 229.584 316.773 225.671ZM323.278 225.671C323.278 222.941 322.475 221.849 321.27 221.849C320.066 221.849 319.263 222.941 319.263 225.671C319.263 228.401 320.066 229.493 321.27 229.493C322.395 229.493 323.278 228.31 323.278 225.671Z" fill="#141516"/>
<path d="M323.682 261.707H290.356C286.019 261.707 282.566 257.794 282.566 252.88C282.566 247.966 286.019 244.053 290.356 244.053H323.682C328.018 244.053 331.471 247.966 331.471 252.88C331.471 257.703 327.938 261.707 323.682 261.707Z" fill="#141516"/>
<path d="M256.63 233.861C257.835 254.882 249.242 278.178 249.242 278.178L202.907 263.436L194.797 260.888C202.827 248.239 206.682 223.305 204.594 203.194C204.433 201.647 204.353 200.282 204.273 198.917C203.47 182.265 209.573 177.442 214.712 170.071C220.333 162.154 232.861 132.124 232.861 125.026C232.861 117.928 248.52 100.547 245.067 80.8004C245.067 80.8004 249.805 77.4334 254.623 80.1634C256.791 81.4374 258.959 83.8943 260.726 88.4443C264.821 99.2732 259.039 129.849 254.221 137.311L244.826 181.446C244.826 181.446 247.958 187.634 251.089 198.917C253.418 207.653 255.827 219.483 256.63 233.861Z" fill="white"/>
<path opacity="0.4" d="M204.273 198.917C206.923 207.016 209.653 212.567 209.412 223.942C209.171 235.408 203.791 252.88 205.317 262.071C205.317 262.071 204.112 262.435 202.907 263.527L194.797 260.979C202.827 248.33 206.682 223.396 204.594 203.285C204.514 201.647 204.353 200.191 204.273 198.917Z" fill="#6985D1"/>
<path opacity="0.4" d="M254.141 137.311L244.746 181.445C244.746 181.445 247.878 187.633 251.009 198.917C244.665 187.269 239.285 183.811 239.285 183.811C243.541 178.078 246.834 135.946 246.834 135.946C246.834 135.946 260.164 118.201 258.879 99.7279C258.317 91.174 256.47 84.7131 254.703 80.1631C256.872 81.4371 259.04 83.8941 260.806 88.444C264.741 99.2729 259.04 129.849 254.141 137.311Z" fill="#6985D1"/>
<path d="M194.879 260.889C202.909 248.24 206.764 223.397 204.676 203.195C202.588 183.084 209.173 177.988 214.794 170.071C220.335 162.154 232.943 132.125 232.943 125.027C232.943 117.929 248.602 100.548 245.149 80.8009C245.149 80.8009 255.187 73.7939 260.727 88.5358C264.823 99.3647 259.041 129.941 254.223 137.402L244.827 181.537C244.827 181.537 254.865 201.102 256.712 233.953C257.917 254.974 249.324 278.269 249.324 278.269" stroke="#141516" stroke-miterlimit="10" stroke-linecap="round" stroke-linejoin="round"/>
<path d="M225.875 295.014C225.875 295.014 236.395 302.385 242.578 314.033" stroke="#141516" stroke-miterlimit="10" stroke-linecap="round" stroke-linejoin="round"/>
<path d="M255.429 308.936C255.429 308.936 246.354 310.392 238.163 299.291C232.863 292.193 216.963 288.917 213.27 270.262" stroke="#141516" stroke-miterlimit="10" stroke-linecap="round" stroke-linejoin="round"/>
<path opacity="0.2" d="M387.444 364.081C364.237 351.523 378.29 341.422 346.329 325.771C314.368 310.119 314.047 296.742 317.902 265.984C321.756 235.226 318.705 202.557 328.02 199.736C337.335 196.916 320.712 154.601 331.553 139.586L384.874 257.157L387.444 364.081Z" fill="#141516"/>
<path d="M474.089 362.807C472.965 359.258 471.921 355.436 471.037 351.887C469.913 347.337 469.03 343.697 467.022 339.511C466.701 338.874 466.38 338.146 465.978 337.327C463.81 332.959 460.839 326.953 459.072 319.492C457.868 314.487 459.072 302.293 460.196 290.372C460.999 281.818 461.722 273.81 461.481 269.169L461.401 267.531C460.839 255.61 459.715 230.676 457.386 223.851C455.137 217.208 452.969 216.207 449.034 214.478C448.633 214.296 448.231 214.114 447.749 213.841C446.304 213.113 443.815 211.657 440.924 210.019C434.419 206.197 426.389 201.465 422.293 200.828C416.913 200.009 411.693 201.192 410.81 201.465C405.751 197.097 397.239 191.455 394.669 191.364C392.581 191.273 388.004 192.729 385.836 193.548C385.354 193.73 384.952 193.912 384.712 193.912C382.865 192.365 381.339 191.182 380.295 190.636C380.215 190.545 380.054 190.545 379.974 190.454C377.163 189.089 372.827 189.089 370.498 189.18C369.775 189.18 369.213 189.271 368.972 189.271C364.555 181.628 360.219 173.893 358.372 170.617C354.437 163.519 342.231 134.49 342.151 134.217C342.151 134.126 342.071 134.126 341.99 134.035C341.99 134.035 341.99 134.035 341.91 134.035C340.946 133.762 333.96 131.669 331.149 139.404C328.098 147.776 332.434 166.067 336.771 172.71C338.858 175.895 344.399 188.998 350.101 202.466C348.655 204.013 336.931 216.207 331.23 218.573C326.572 220.393 327.696 247.42 328.58 269.169C328.901 277.177 329.222 284.093 329.142 288.188C328.981 296.196 341.83 307.207 354.277 317.854C365.519 327.499 377.163 337.509 378.528 344.789C378.93 346.791 379.974 348.52 381.258 350.34C383.427 353.434 386.157 357.074 387.361 363.99C387.683 366.083 390.654 368.813 392.983 373.181H477.381C476.739 371.179 475.454 367.266 474.089 362.807ZM357.087 218.937C361.183 228.674 363.672 234.407 364.314 235.044C364.877 235.681 364.877 238.775 364.877 241.778C364.877 244.417 364.796 247.238 365.118 249.604C364.154 250.605 357.81 257.066 356.605 262.344L351.225 255.246L349.86 232.86C350.663 231.95 356.204 225.307 357.087 218.937Z" fill="white"/>
<path opacity="0.4" d="M449.838 281.272C451.846 302.293 451.846 313.577 454.095 319.674C457.869 329.956 463.41 331.958 463.41 331.958C461.804 328.409 460.198 324.223 459.073 319.492C457.869 314.487 459.073 302.293 460.198 290.372C461.001 281.818 461.723 273.81 461.563 269.169L461.482 267.531C460.92 255.61 459.796 230.767 457.467 223.851C455.219 217.208 453.051 216.207 449.116 214.478C448.714 214.296 448.313 214.114 447.831 213.841C446.385 213.113 443.896 211.657 441.005 210.019C434.501 206.197 426.47 201.465 422.375 200.919C416.995 200.1 411.775 201.283 410.891 201.556C405.832 197.188 397.32 191.546 394.751 191.455C392.663 191.364 387.041 193.184 384.793 194.003C394.429 202.921 408.322 214.023 408.322 214.023C419.323 216.48 417.878 221.94 422.295 224.943C426.31 227.673 430.164 219.665 433.537 218.937C437.954 218.027 443.013 223.305 442.772 229.766C442.129 247.511 448.152 263.254 449.838 281.272Z" fill="#6985D1"/>
<path opacity="0.4" d="M394.426 216.299C394.426 216.299 385.753 208.109 381.577 205.379C377.402 202.649 376.759 193.276 380.052 190.91C380.132 190.819 380.293 190.819 380.453 190.728C380.373 190.637 380.212 190.637 380.132 190.546C377.321 189.181 372.985 189.181 370.656 189.272C375.474 199.464 379.329 207.199 380.373 208.928C383.826 214.752 394.426 216.299 394.426 216.299Z" fill="#6985D1"/>
<path opacity="0.4" d="M381.18 343.606C381.581 341.422 378.369 335.052 377.004 332.504C373.872 326.589 337.174 289.917 342.554 280.089C347.854 270.261 352.672 277.541 356.045 278.178C358.454 278.633 365.039 274.174 365.039 273.81C364.316 266.257 370.419 261.343 370.419 261.343C370.419 261.343 369.857 231.313 368.412 231.859C366.966 232.405 350.103 186.724 350.103 186.724C350.103 186.724 332.195 159.788 333.239 147.23C334.283 134.672 341.992 134.399 341.992 134.399V134.035C341.028 133.762 334.042 131.669 331.231 139.404C328.18 147.776 332.516 166.067 336.853 172.71C338.94 175.895 344.481 188.998 350.183 202.466C348.737 204.013 337.013 216.207 331.312 218.573C326.654 220.393 327.778 247.42 328.662 269.169C328.983 277.177 329.304 284.093 329.224 288.188C329.063 296.196 341.912 307.207 354.359 317.854C365.601 327.499 377.245 337.509 378.61 344.789C379.012 346.791 380.056 348.52 381.34 350.34C381.18 347.701 381.019 344.789 381.18 343.606ZM357.089 218.937C361.184 228.674 363.674 234.407 364.316 235.044C364.878 235.681 364.878 238.775 364.878 241.778C364.878 244.417 364.798 247.238 365.119 249.604C364.156 250.605 357.812 257.066 356.607 262.344L351.227 255.246L349.862 232.86C350.665 231.95 356.206 225.307 357.089 218.937Z" fill="#6985D1"/>
<path d="M389.369 216.207C389.369 216.207 383.989 214.569 380.375 209.018C376.681 203.467 362.307 178.078 358.292 170.889C354.276 163.7 342.07 134.399 342.07 134.399C342.07 134.399 334.522 131.578 331.551 139.495C328.579 147.503 332.675 165.52 337.092 172.527C341.588 179.443 362.869 233.042 364.555 234.771C366.242 236.5 363.672 250.787 367.125 254.245" stroke="#141516" stroke-miterlimit="10" stroke-linecap="round" stroke-linejoin="round"/>
<path d="M365.441 249.785C365.441 249.785 357.651 257.52 356.768 263.071L350.986 255.336L349.621 232.769C349.621 232.769 356.607 224.852 357.009 217.845" stroke="#141516" stroke-miterlimit="10" stroke-linecap="round" stroke-linejoin="round"/>
<path d="M350.584 202.648C350.584 202.648 337.655 216.48 331.471 218.937C325.288 221.394 329.785 273.264 329.464 288.279C329.143 303.294 376.04 329.411 378.85 344.789C379.974 350.886 384.712 352.16 387.603 363.899" stroke="#141516" stroke-miterlimit="10" stroke-linecap="round" stroke-linejoin="round"/>
<path d="M368.973 189.726C368.973 189.726 376.039 188.998 379.974 190.909C383.909 192.82 400.05 208.472 403.905 211.475C407.759 214.478 413.621 215.57 414.745 218.846" stroke="#141516" stroke-miterlimit="10" stroke-linecap="round" stroke-linejoin="round"/>
<path d="M384.711 194.367C384.711 194.367 391.938 191.637 394.669 191.819C397.399 192.001 407.838 198.917 412.496 203.558C417.153 208.199 421.811 210.747 424.622 211.93" stroke="#141516" stroke-miterlimit="10" stroke-linecap="round" stroke-linejoin="round"/>
<path d="M410.812 201.92C410.812 201.92 416.434 200.373 422.296 201.283C428.158 202.193 442.934 212.021 447.672 214.205C452.41 216.389 454.658 216.844 457.067 224.033C459.556 231.222 460.681 258.43 461.163 269.259C461.644 279.997 456.746 310.937 458.753 319.582C460.761 328.227 464.535 334.961 466.703 339.602" stroke="#141516" stroke-miterlimit="10" stroke-linecap="round" stroke-linejoin="round"/>
<path d="M349.539 232.769C349.539 232.769 348.334 227.491 346.809 226.763" stroke="#141516" stroke-miterlimit="10" stroke-linecap="round" stroke-linejoin="round"/>
<path d="M350.902 255.337C350.902 255.337 351.946 261.252 353.071 264.528C354.195 267.804 352.428 272.445 352.428 272.445" stroke="#141516" stroke-miterlimit="10" stroke-linecap="round" stroke-linejoin="round"/>
<path d="M356.688 263.071C356.527 268.258 361.024 274.264 362.148 273.445" stroke="#141516" stroke-miterlimit="10" stroke-linecap="round" stroke-linejoin="round"/>
<path d="M379.812 232.769C379.812 232.769 384.711 223.851 389.369 223.396C394.026 222.941 399.406 230.494 402.297 229.766C405.188 229.038 408.802 224.215 413.62 223.396C418.438 222.486 420.767 225.125 424.622 225.398C428.476 225.58 428.878 219.756 433.455 219.028C438.113 218.209 439.638 220.848 442.69 221.485C445.741 222.122 446.544 219.392 449.034 217.845" stroke="#141516" stroke-miterlimit="10" stroke-linecap="round" stroke-linejoin="round"/>
</g>
<defs>
<clipPath id="clip0_3508_1996">
<rect width="620" height="359" fill="white"/>
</clipPath>
</defs>
</svg>
