<svg width="620" height="359" viewBox="0 0 620 359" fill="none" xmlns="http://www.w3.org/2000/svg">
<g clip-path="url(#clip0_3509_3571)">
<g opacity="0.4">
<path d="M546.999 107.062H536.891V170.628H546.999V107.062Z" stroke="#141516" stroke-miterlimit="10" stroke-linejoin="round"/>
<path d="M561.323 145.171H551.215V170.551H561.323V145.171Z" stroke="#141516" stroke-miterlimit="10" stroke-linejoin="round"/>
<path d="M575.651 127.273H565.543V170.629H575.651V127.273Z" stroke="#141516" stroke-miterlimit="10" stroke-linejoin="round"/>
<path d="M589.975 157.899H579.867V170.628H589.975V157.899Z" stroke="#141516" stroke-miterlimit="10" stroke-linejoin="round"/>
<path d="M529.805 108.219H523.199" stroke="#141516" stroke-miterlimit="10" stroke-linejoin="round"/>
<path d="M529.805 118.556H523.199" stroke="#141516" stroke-miterlimit="10" stroke-linejoin="round"/>
<path d="M529.805 128.971H523.199" stroke="#141516" stroke-miterlimit="10" stroke-linejoin="round"/>
<path d="M529.805 139.385H523.199" stroke="#141516" stroke-miterlimit="10" stroke-linejoin="round"/>
<path d="M529.805 149.723H523.199" stroke="#141516" stroke-miterlimit="10" stroke-linejoin="round"/>
<path d="M529.805 160.137H523.199" stroke="#141516" stroke-miterlimit="10" stroke-linejoin="round"/>
<path d="M529.805 170.475H523.199" stroke="#141516" stroke-miterlimit="10" stroke-linejoin="round"/>
</g>
<g opacity="0.4">
<path d="M559.889 232.036C573.427 232.036 584.402 221.398 584.402 208.275C584.402 195.153 573.427 184.515 559.889 184.515C546.35 184.515 535.375 195.153 535.375 208.275C535.375 221.398 546.35 232.036 559.889 232.036Z" stroke="#141516" stroke-miterlimit="10" stroke-linejoin="round"/>
<path d="M559.891 184.592V208.275L582.653 217.687" stroke="#141516" stroke-miterlimit="10" stroke-linejoin="round"/>
<path d="M559.891 208.275L576.366 225.401" stroke="#141516" stroke-miterlimit="10" stroke-linejoin="round"/>
</g>
<path d="M378.904 206.423L398.881 209.123L403.657 188.68L385.112 182.894C385.112 182.817 385.112 182.817 385.112 182.74C385.112 175.951 383.68 169.394 381.133 163.531L395.061 150.648L381.61 134.293L366.09 144.322C360.598 140.079 354.231 136.839 347.227 135.064L345.636 117.09H323.987L322.395 134.833C315.312 136.453 308.865 139.539 303.214 143.705L287.614 133.676L274.164 150.03L287.853 162.605C285.067 168.545 283.555 175.18 283.396 182.123L264.852 187.908L269.627 208.352L289.206 205.729C292.31 211.437 296.528 216.452 301.543 220.618L294.379 239.055L313.879 248.158L324.305 231.186C327.569 231.803 330.832 232.112 334.254 232.112C337.438 232.112 340.542 231.803 343.487 231.263L354.072 248.467L373.572 239.364L366.409 221.003C371.423 216.915 375.721 211.977 378.904 206.423ZM295.255 182.74C295.255 161.834 312.765 144.862 334.334 144.862C355.903 144.862 373.412 161.834 373.412 182.74C373.412 203.646 355.903 220.618 334.334 220.618C312.685 220.54 295.255 203.569 295.255 182.74Z" stroke="#141516" stroke-miterlimit="10" stroke-linejoin="round"/>
<path d="M476.202 103.434C485.681 94.2457 485.681 79.3481 476.202 70.1595C466.722 60.9709 451.352 60.9709 441.872 70.1595C432.392 79.3481 432.392 94.2457 441.872 103.434C451.352 112.623 466.722 112.623 476.202 103.434Z" stroke="#141516" stroke-miterlimit="10" stroke-linejoin="round"/>
<path d="M459.05 107.293C470.742 107.293 480.221 98.1055 480.221 86.7724C480.221 75.4392 470.742 66.252 459.05 66.252C447.357 66.252 437.879 75.4392 437.879 86.7724C437.879 98.1055 447.357 107.293 459.05 107.293Z" stroke="#141516" stroke-miterlimit="10" stroke-linejoin="round"/>
<path d="M452.603 92.4044L459.049 86.7729L447.031 76.2041" stroke="#141516" stroke-miterlimit="10" stroke-linejoin="round"/>
<path d="M425.382 94.1782C400.709 70.4177 367.918 57.3032 333.058 57.3032C330.67 57.3032 328.282 57.3803 325.815 57.5346L323.427 47.6602L298.754 81.9122L336.56 102.047L334.649 94.1782C358.765 94.5639 381.448 103.821 398.56 120.33C416.07 137.225 425.78 159.751 425.939 183.743C426.098 207.58 416.707 230.107 399.436 247.233C382.244 264.282 359.322 273.847 334.729 274.31C334.172 274.31 333.535 274.31 332.978 274.31H72.3203V311.108H333.058C333.853 311.108 334.729 311.108 335.525 311.108C370.067 310.491 402.46 296.914 426.656 272.999C450.851 249.007 464.142 217.223 463.983 183.666C463.744 149.722 450.055 118.016 425.382 94.1782Z" fill="#6985D1" stroke="#141516" stroke-miterlimit="10" stroke-linecap="round" stroke-linejoin="round"/>
<path d="M517.944 291.822L485.869 263.896V273.461H437.08C435.409 275.313 433.658 277.087 431.907 278.862C418.377 292.285 402.538 302.776 385.347 310.028L385.188 310.182H485.949V319.748L517.944 291.822Z" fill="#141516" stroke="#141516" stroke-miterlimit="10" stroke-linecap="round" stroke-linejoin="round"/>
<path d="M240.016 184.051C240.016 142.007 269.942 106.675 310.294 96.878L289.283 84.5349L308.384 60.3887C248.373 71.4975 202.848 122.721 202.848 184.051C202.848 214.6 214.149 242.681 232.853 264.513H291.431C261.028 249.778 240.016 219.229 240.016 184.051Z" fill="#141516" stroke="#141516" stroke-miterlimit="10" stroke-linecap="round" stroke-linejoin="round"/>
<path d="M514.762 81.6039C511.181 51.0547 482.687 28.9143 451.17 32.3858C427.85 34.9316 409.305 50.7461 402.699 71.1123C408.032 74.1209 413.205 77.5152 418.14 81.2953C421.085 64.6321 435.013 51.209 453.159 49.2033C475.126 46.8118 494.944 62.1635 497.411 83.4553C499.401 100.427 489.691 116.473 473.932 123.185L470.192 115.316L459.606 138.151L484.359 145.171L481.175 138.536C503.699 128.816 517.548 105.904 514.762 81.6039Z" fill="#141516"/>
<path d="M559.335 326.614C577.709 326.614 592.604 312.177 592.604 294.367C592.604 276.558 577.709 262.121 559.335 262.121C540.961 262.121 526.066 276.558 526.066 294.367C526.066 312.177 540.961 326.614 559.335 326.614Z" fill="#4143EC" stroke="#4143EC" stroke-miterlimit="10" stroke-linecap="round" stroke-linejoin="round"/>
<path d="M562.837 310.105L543.656 306.171V285.419L562.837 289.353V310.105Z" fill="white" stroke="#4143EC" stroke-miterlimit="10" stroke-linecap="round" stroke-linejoin="round"/>
<path d="M577.881 285.882L581.383 293.519L577.562 292.516L577.881 285.882Z" fill="white" stroke="#4143EC" stroke-miterlimit="10" stroke-linecap="round" stroke-linejoin="round"/>
<path d="M562.84 289.353L577.882 285.882V305.014L562.84 310.105V289.353Z" fill="white" stroke="#4143EC" stroke-miterlimit="10" stroke-linecap="round" stroke-linejoin="round"/>
<path d="M577.88 285.882L560.37 281.33L543.656 285.419L562.837 289.353L577.88 285.882Z" fill="white" stroke="#4143EC" stroke-miterlimit="10" stroke-linecap="round" stroke-linejoin="round"/>
<path d="M543.657 285.419L537.688 295.602L557.505 299.845L562.838 289.353L543.657 285.419Z" fill="white" stroke="#4143EC" stroke-miterlimit="10" stroke-linecap="round" stroke-linejoin="round"/>
<path d="M560.371 281.33V288.582" stroke="#4143EC" stroke-miterlimit="10" stroke-linecap="round" stroke-linejoin="round"/>
<path d="M542.941 277.165L548.433 281.871" stroke="white" stroke-miterlimit="10" stroke-linecap="round" stroke-linejoin="round"/>
<path d="M578.597 277.165L573.105 281.871" stroke="white" stroke-miterlimit="10" stroke-linecap="round" stroke-linejoin="round"/>
<path d="M560.449 271.225V278.63" stroke="white" stroke-miterlimit="10" stroke-linecap="round" stroke-linejoin="round"/>
<g opacity="0.4">
<path d="M115.537 151.651H82.9844V110.765H108.135L115.537 117.013V151.651Z" stroke="#141516" stroke-width="1.2286" stroke-miterlimit="10" stroke-linejoin="round"/>
<path d="M108.137 110.765V117.399H115.539L108.137 110.765Z" stroke="#141516" stroke-width="1.2286" stroke-miterlimit="10" stroke-linejoin="round"/>
<path d="M88.4766 122.645H109.09" stroke="#141516" stroke-width="1.2286" stroke-miterlimit="10" stroke-linejoin="round"/>
<path d="M88.4766 127.736H109.09" stroke="#141516" stroke-width="1.2286" stroke-miterlimit="10" stroke-linejoin="round"/>
<path d="M88.4766 132.828H109.09" stroke="#141516" stroke-width="1.2286" stroke-miterlimit="10" stroke-linejoin="round"/>
<path d="M88.4766 137.92H109.09" stroke="#141516" stroke-width="1.2286" stroke-miterlimit="10" stroke-linejoin="round"/>
<path d="M88.4766 143.011H109.09" stroke="#141516" stroke-width="1.2286" stroke-miterlimit="10" stroke-linejoin="round"/>
<path d="M150.877 167.003H118.324V126.116H143.475L150.877 132.365V167.003Z" stroke="#141516" stroke-width="1.2286" stroke-miterlimit="10" stroke-linejoin="round"/>
<path d="M143.477 126.116V132.751H150.878L143.477 126.116Z" stroke="#141516" stroke-width="1.2286" stroke-miterlimit="10" stroke-linejoin="round"/>
<path d="M123.738 137.996H144.432" stroke="#141516" stroke-width="1.2286" stroke-miterlimit="10" stroke-linejoin="round"/>
<path d="M123.738 143.088H144.432" stroke="#141516" stroke-width="1.2286" stroke-miterlimit="10" stroke-linejoin="round"/>
<path d="M123.738 148.257H144.432" stroke="#141516" stroke-width="1.2286" stroke-miterlimit="10" stroke-linejoin="round"/>
<path d="M123.738 153.349H144.432" stroke="#141516" stroke-width="1.2286" stroke-miterlimit="10" stroke-linejoin="round"/>
<path d="M123.738 158.439H144.432" stroke="#141516" stroke-width="1.2286" stroke-miterlimit="10" stroke-linejoin="round"/>
<path d="M115.537 197.706H82.9844V156.819H108.135L115.537 163.145V197.706Z" stroke="#141516" stroke-width="1.2286" stroke-miterlimit="10" stroke-linejoin="round"/>
<path d="M108.137 156.819V163.454H115.539L108.137 156.819Z" stroke="#141516" stroke-width="1.2286" stroke-miterlimit="10" stroke-linejoin="round"/>
<path d="M88.4766 168.776H109.09" stroke="#141516" stroke-width="1.2286" stroke-miterlimit="10" stroke-linejoin="round"/>
<path d="M88.4766 173.868H109.09" stroke="#141516" stroke-width="1.2286" stroke-miterlimit="10" stroke-linejoin="round"/>
<path d="M88.4766 178.96H109.09" stroke="#141516" stroke-width="1.2286" stroke-miterlimit="10" stroke-linejoin="round"/>
<path d="M88.4766 184.052H109.09" stroke="#141516" stroke-width="1.2286" stroke-miterlimit="10" stroke-linejoin="round"/>
<path d="M88.4766 189.143H109.09" stroke="#141516" stroke-width="1.2286" stroke-miterlimit="10" stroke-linejoin="round"/>
<path d="M149.841 207.658H82.5078C77.5733 207.658 73.5938 203.8 73.5938 199.017V111.69C73.5938 106.907 77.5733 103.05 82.5078 103.05H149.921C154.855 103.05 158.835 106.907 158.835 111.69V198.94C158.755 203.8 154.776 207.658 149.841 207.658Z" stroke="#141516" stroke-width="1.2286" stroke-miterlimit="10" stroke-linejoin="round"/>
<path d="M88 208.12V237.744" stroke="#141516" stroke-width="1.2286" stroke-miterlimit="10" stroke-linejoin="round"/>
<path d="M87.999 240.521C88.7902 240.521 89.4316 239.9 89.4316 239.133C89.4316 238.366 88.7902 237.744 87.999 237.744C87.2078 237.744 86.5664 238.366 86.5664 239.133C86.5664 239.9 87.2078 240.521 87.999 240.521Z" fill="#141516" stroke="#141516" stroke-width="1.2286" stroke-miterlimit="10" stroke-linecap="round" stroke-linejoin="round"/>
</g>
<path d="M59.6671 326.614C78.0409 326.614 92.9358 312.177 92.9358 294.367C92.9358 276.558 78.0409 262.121 59.6671 262.121C41.2933 262.121 26.3984 276.558 26.3984 294.367C26.3984 312.177 41.2933 326.614 59.6671 326.614Z" fill="#4143EC" stroke="#4143EC" stroke-miterlimit="10" stroke-linecap="round" stroke-linejoin="round"/>
<path d="M65.3993 305.553C65.8768 305.013 66.1156 304.319 66.1156 303.471L66.2748 302.545C66.7523 299.845 68.0258 295.756 69.7768 293.596C71.3686 291.59 72.4032 289.045 72.4032 286.267C72.4032 279.247 66.1156 273.693 58.7137 274.464C53.222 275.081 48.765 279.247 47.9691 284.57C47.4915 288.119 48.6058 291.436 50.6751 293.905C52.5853 296.065 53.6996 300.462 54.0179 303.316V303.548C54.0179 304.396 54.2567 305.091 54.7342 305.631" fill="white"/>
<path d="M65.3993 305.553C65.8768 305.013 66.1156 304.319 66.1156 303.471L66.2748 302.545C66.7523 299.845 68.0258 295.756 69.7768 293.596C71.3686 291.59 72.4032 289.045 72.4032 286.267C72.4032 279.247 66.1156 273.693 58.7137 274.464C53.222 275.081 48.765 279.247 47.9691 284.57C47.4915 288.119 48.6058 291.436 50.6751 293.905C52.5853 296.065 53.6996 300.462 54.0179 303.316V303.548C54.0179 304.396 54.2567 305.091 54.7342 305.631" stroke="#4143EC" stroke-miterlimit="10" stroke-linecap="round" stroke-linejoin="round"/>
<path d="M65.3995 308.562H55.2119C54.5752 308.562 54.0977 308.099 54.0977 307.482V306.634C54.0977 306.017 54.5752 305.554 55.2119 305.554H65.479C66.1158 305.554 66.5933 306.017 66.5933 306.634V307.482C66.5933 308.099 66.0362 308.562 65.3995 308.562Z" fill="white" stroke="#4143EC" stroke-miterlimit="10" stroke-linecap="round" stroke-linejoin="round"/>
<path d="M65.3995 312.42H55.2119C54.5752 312.42 54.0977 311.957 54.0977 311.34V310.491C54.0977 309.874 54.5752 309.411 55.2119 309.411H65.479C66.1158 309.411 66.5933 309.874 66.5933 310.491V311.34C66.5933 311.957 66.0362 312.42 65.3995 312.42Z" fill="white" stroke="#4143EC" stroke-miterlimit="10" stroke-linecap="round" stroke-linejoin="round"/>
<path d="M55.2109 313.345C55.8477 315.119 57.917 316.431 60.3047 316.431C62.772 316.431 64.8413 315.119 65.3985 313.345H55.2109Z" fill="white" stroke="#4143EC" stroke-miterlimit="10" stroke-linecap="round" stroke-linejoin="round"/>
<path d="M40.8047 286.808H45.7393" stroke="white" stroke-miterlimit="10" stroke-linecap="round" stroke-linejoin="round"/>
<path d="M46.6133 273.848L50.1152 277.319" stroke="white" stroke-miterlimit="10" stroke-linecap="round" stroke-linejoin="round"/>
<path d="M73.5977 286.808H78.6118" stroke="white" stroke-miterlimit="10" stroke-linecap="round" stroke-linejoin="round"/>
<path d="M69.5352 277.782L73.1167 274.388" stroke="white" stroke-miterlimit="10" stroke-linecap="round" stroke-linejoin="round"/>
<path d="M59.9844 268.524V272.999" stroke="white" stroke-miterlimit="10" stroke-linecap="round" stroke-linejoin="round"/>
</g>
<defs>
<clipPath id="clip0_3509_3571">
<rect width="567" height="295" fill="white" transform="translate(26 32)"/>
</clipPath>
</defs>
</svg>
