<svg width="620" height="359" viewBox="0 0 620 359" fill="none" xmlns="http://www.w3.org/2000/svg">
<g clip-path="url(#clip0_3509_3398)">
<g opacity="0.3">
<path d="M122.972 69.8135L81.4023 51.1318L47.4114 131.131L88.9813 149.813L122.972 69.8135Z" stroke="#141516" stroke-miterlimit="10" stroke-linecap="round"/>
<path d="M82.8709 61.7133C82.7466 61.7133 82.6223 61.5855 82.6223 61.5855L56.0234 124.094C56.1477 124.094 56.272 124.221 56.3963 124.221C58.1364 124.988 58.8822 127.034 58.1364 128.695C58.0121 128.951 57.8878 129.207 57.6392 129.462L83.6166 141.095C83.6166 140.839 83.7409 140.456 83.8652 140.2C84.611 138.41 86.5997 137.643 88.2155 138.41L114.814 75.9023C113.074 75.1353 112.328 73.0901 113.074 71.4283L87.3454 59.7959C86.5997 61.7133 84.611 62.4803 82.8709 61.7133ZM90.0799 88.9408C96.2946 91.753 99.1533 99.1671 96.4189 105.559C93.6844 111.95 86.4754 114.89 80.2607 112.078C74.046 109.266 71.1873 101.851 73.9217 95.4601C76.6562 89.0686 83.9895 86.1286 90.0799 88.9408Z" stroke="#141516" stroke-miterlimit="10" stroke-linecap="round"/>
</g>
<g opacity="0.3">
<path d="M183.034 270.177L185.508 316.765L270.273 312.004L267.799 265.417L183.034 270.177Z" stroke="#141516" stroke-miterlimit="10" stroke-linecap="round"/>
<path d="M194.155 310.575C194.155 310.703 194.155 310.831 194.155 310.959L260.404 307.252C260.404 307.124 260.404 306.996 260.404 306.868C260.28 304.951 261.771 303.417 263.511 303.289C263.884 303.289 264.133 303.289 264.381 303.417L262.89 274.272C262.641 274.4 262.268 274.4 262.02 274.4C260.155 274.528 258.664 272.994 258.539 271.204L192.291 274.911C192.415 276.829 190.924 278.362 189.184 278.49L190.675 307.38C192.415 307.252 194.031 308.658 194.155 310.575ZM214.54 291.657C214.167 284.754 219.387 278.746 226.099 278.363C232.811 277.979 238.652 283.348 239.025 290.251C239.398 297.153 234.178 303.161 227.466 303.545C220.63 303.928 214.912 298.687 214.54 291.657Z" stroke="#141516" stroke-miterlimit="10" stroke-linecap="round"/>
</g>
<g opacity="0.3">
<path d="M585.282 211.206L540.051 207.598L533.485 294.643L578.716 298.251L585.282 211.206Z" stroke="#141516" stroke-miterlimit="10" stroke-linecap="round"/>
<path d="M544.778 217.066C544.653 217.066 544.529 217.066 544.405 217.066L539.309 285.071C539.433 285.071 539.557 285.071 539.681 285.071C541.546 285.199 542.913 286.86 542.789 288.778C542.789 289.161 542.665 289.417 542.54 289.673L570.879 291.973C570.879 291.718 570.755 291.334 570.879 291.079C571.003 289.161 572.619 287.755 574.484 287.883L579.58 219.878C577.715 219.75 576.348 218.089 576.472 216.171L548.382 213.998C548.258 215.788 546.642 217.194 544.778 217.066ZM560.314 240.331C567.026 240.842 572.122 246.978 571.625 253.881C571.128 260.783 565.162 266.024 558.45 265.513C551.738 265.002 546.642 258.866 547.139 251.963C547.636 245.06 553.478 239.819 560.314 240.331Z" stroke="#141516" stroke-miterlimit="10" stroke-linecap="round"/>
</g>
<g opacity="0.3">
<path d="M495.666 29.5233L467.57 -7.10742L400.921 46.9617L429.017 83.5925L495.666 29.5233Z" stroke="#141516" stroke-miterlimit="10" stroke-linecap="round"/>
<path d="M464.013 2.9539C463.889 2.82607 463.889 2.82607 463.765 2.69824L411.686 45.0095C411.81 45.1373 411.81 45.1373 411.934 45.2651C413.053 46.7991 412.804 48.8444 411.437 50.1226C411.189 50.3783 410.94 50.5061 410.691 50.6339L428.217 73.5152C428.341 73.2596 428.59 73.0039 428.838 72.8761C430.33 71.7256 432.318 71.9813 433.561 73.3874L485.64 31.204C484.522 29.6701 484.77 27.6248 486.138 26.3465L468.737 3.59304C467.245 4.74349 465.132 4.48784 464.013 2.9539ZM457.923 30.437C462.149 35.9337 461.155 43.859 455.934 48.0774C450.59 52.4235 442.883 51.4009 438.782 46.0321C434.556 40.5355 435.55 32.6101 440.77 28.3918C445.991 24.0456 453.697 25.0682 457.923 30.437Z" stroke="#141516" stroke-miterlimit="10" stroke-linecap="round"/>
</g>
<g opacity="0.3">
<path d="M422.819 207.244L394.723 170.613L328.074 224.682L356.169 261.313L422.819 207.244Z" stroke="#141516" stroke-miterlimit="10" stroke-linecap="round"/>
<path d="M391.174 180.637C391.049 180.509 391.049 180.509 390.925 180.381L338.846 222.692C338.97 222.82 338.97 222.82 339.094 222.948C340.213 224.482 339.965 226.527 338.597 227.805C338.349 228.061 338.1 228.189 337.852 228.317L355.377 251.198C355.501 250.942 355.75 250.687 355.998 250.559C357.49 249.408 359.479 249.664 360.722 251.07L412.801 208.887C411.682 207.353 411.931 205.307 413.298 204.029L395.897 181.276C394.405 182.426 392.292 182.17 391.174 180.637ZM385.083 208.12C389.309 213.616 388.315 221.542 383.094 225.76C377.75 230.106 370.044 229.084 365.942 223.715C361.716 218.218 362.71 210.293 367.931 206.074C373.151 201.728 380.857 202.751 385.083 208.12Z" stroke="#141516" stroke-miterlimit="10" stroke-linecap="round"/>
</g>
<g opacity="0.3">
<path d="M333.877 394.851L305.781 358.221L239.132 412.29L267.228 448.921L333.877 394.851Z" stroke="#141516" stroke-miterlimit="10" stroke-linecap="round"/>
</g>
<g opacity="0.3">
<path d="M481.983 357.669L444.777 384.366L493.353 455.967L530.558 429.269L481.983 357.669Z" stroke="#141516" stroke-miterlimit="10" stroke-linecap="round"/>
</g>
<path d="M620.003 46.0317C579.235 43.0916 552.263 37.7228 551.766 37.7228C549.653 37.8507 534.986 35.0384 515.223 40.0238C495.461 45.0091 449.472 49.2274 449.472 49.2274C449.472 49.2274 442.387 51.6562 441.642 52.9344C440.896 54.2127 423.868 97.5466 421.506 103.427C419.144 109.307 419.393 114.164 421.879 119.022C424.24 123.879 436.67 132.572 443.63 139.602C450.715 146.633 455.314 153.535 458.421 150.595C461.653 147.783 460.783 141.647 460.783 141.647C460.783 141.647 491.732 137.429 497.947 136.79C504.161 136.023 506.523 137.813 507.144 133.466C507.766 129.12 503.664 124.646 503.664 124.646C503.664 124.646 507.393 119.917 506.274 117.616C505.031 115.187 500.184 115.059 497.077 115.315C493.969 115.698 483.529 118.766 483.529 118.766C483.529 118.766 478.557 115.57 479.178 113.653C479.8 111.863 486.139 100.103 486.139 100.103C486.139 100.103 489.619 99.9753 494.715 98.9527C499.811 98.0579 503.788 96.7796 507.641 98.1857C511.495 99.5919 525.415 100.614 530.511 99.7197C535.608 98.8249 548.907 89.6212 548.907 89.6212L620.003 105.6V46.0317Z" fill="white" stroke="#141516" stroke-miterlimit="10" stroke-linecap="round" stroke-linejoin="round"/>
<path d="M570.907 39.6406L567.551 128.481L599.494 137.174L601.234 41.3024L570.907 39.6406Z" fill="#4143EC" stroke="#141516" stroke-miterlimit="10" stroke-linecap="round" stroke-linejoin="round"/>
<path d="M620.001 42.58L601.232 41.3018L599.492 137.173L620.001 142.286V42.58Z" fill="#4143EC" stroke="#141516" stroke-miterlimit="10" stroke-linecap="round" stroke-linejoin="round"/>
<path d="M454.07 68.5293C454.07 68.5293 456.805 77.3495 463.268 81.44" stroke="#141516" stroke-miterlimit="10" stroke-linecap="round" stroke-linejoin="round"/>
<path d="M442.512 79.1387C442.512 79.1387 443.879 86.6805 448.975 88.8536" stroke="#141516" stroke-miterlimit="10" stroke-linecap="round" stroke-linejoin="round"/>
<path d="M447.483 121.706L447.234 124.518C447.234 124.518 458.048 130.654 460.907 141.647" stroke="#141516" stroke-miterlimit="10" stroke-linecap="round" stroke-linejoin="round"/>
<path d="M455.934 117.488L462.024 124.008C462.024 124.008 475.075 126.82 477.561 126.053C480.047 125.286 496.702 119.022 503.662 124.647" stroke="#141516" stroke-miterlimit="10" stroke-linecap="round" stroke-linejoin="round"/>
<path d="M483.529 118.766L477.066 118.51L469.359 114.931C469.359 114.931 473.461 109.562 471.1 105.6" stroke="#141516" stroke-miterlimit="10" stroke-linecap="round" stroke-linejoin="round"/>
<path d="M477.559 126.052C477.559 126.052 485.389 125.413 487.005 131.037C488.621 136.662 485.141 139.858 485.141 139.858" stroke="#141516" stroke-miterlimit="10" stroke-linecap="round" stroke-linejoin="round"/>
<path d="M394.782 72.4922C394.782 72.4922 448.104 104.321 458.545 111.608C468.986 118.894 490.986 125.541 490.986 125.541C490.986 125.541 490.986 203.516 491.358 223.074C491.856 242.76 494.714 298.11 494.714 298.11C494.714 298.11 462.895 281.108 447.731 271.521C435.799 263.852 392.545 233.173 392.545 233.173C392.545 233.173 391.675 176.928 392.794 145.354C393.788 116.465 394.782 72.4922 394.782 72.4922Z" fill="white" stroke="#141516" stroke-miterlimit="10" stroke-linecap="round" stroke-linejoin="round"/>
<path d="M399.133 141.264L479.178 188.049L480.172 281.236L448.477 262.317L447.98 242.504C447.98 242.504 425.98 232.022 399.133 212.209V141.264Z" stroke="#141516" stroke-miterlimit="10" stroke-linecap="round" stroke-linejoin="round"/>
<path d="M462.152 146.377L476.695 153.791" stroke="#141516" stroke-miterlimit="10" stroke-linecap="round" stroke-linejoin="round"/>
<path d="M461.777 154.174L476.32 161.588" stroke="#141516" stroke-miterlimit="10" stroke-linecap="round" stroke-linejoin="round"/>
<path d="M461.277 161.972L475.82 169.386" stroke="#141516" stroke-miterlimit="10" stroke-linecap="round" stroke-linejoin="round"/>
<path d="M399.257 153.663L479.426 202.366L479.302 188.049L399.133 141.264L399.257 153.663Z" fill="#4143EC" stroke="#141516" stroke-miterlimit="10"/>
<path d="M448.103 242.504L447.73 183.319" stroke="#141516" stroke-miterlimit="10" stroke-linecap="round" stroke-linejoin="round"/>
<path d="M400.125 170.153L478.803 215.916" stroke="#141516" stroke-miterlimit="10" stroke-linecap="round" stroke-linejoin="round"/>
<path d="M401.492 184.47L418.893 194.44" stroke="#141516" stroke-miterlimit="10"/>
<path d="M401.867 192.395L419.393 202.365" stroke="#141516" stroke-miterlimit="10"/>
<path d="M453.449 212.208L470.975 222.179" stroke="#141516" stroke-miterlimit="10"/>
<path d="M453.82 224.991L471.221 234.962" stroke="#141516" stroke-miterlimit="10"/>
<path d="M454.07 237.902L471.596 247.873" stroke="#141516" stroke-miterlimit="10"/>
<path d="M454.32 250.685L471.846 260.655" stroke="#141516" stroke-miterlimit="10"/>
<path d="M401.992 201.471L419.518 211.441" stroke="#141516" stroke-miterlimit="10"/>
<path d="M476.196 70.0635C476.196 70.0635 473.71 77.6054 463.393 81.568C452.953 85.4029 444.998 92.4335 436.297 97.8023C427.597 103.171 417.778 112.886 421.879 119.15C425.981 125.413 435.054 124.902 444.128 121.195C453.201 117.36 474.207 100.231 481.167 100.359C488.128 100.487 499.936 99.4641 507.642 98.3136C515.348 97.1631 522.93 92.4335 532.625 86.042" fill="white"/>
<path d="M476.196 70.0635C476.196 70.0635 473.71 77.6054 463.393 81.568C452.953 85.4029 444.998 92.4335 436.297 97.8023C427.597 103.171 417.778 112.886 421.879 119.15C425.981 125.413 435.054 124.902 444.128 121.195C453.201 117.36 474.207 100.231 481.167 100.359C488.128 100.487 499.936 99.4641 507.642 98.3136C515.348 97.1631 522.93 92.4335 532.625 86.042" stroke="#141516" stroke-miterlimit="10" stroke-linecap="round" stroke-linejoin="round"/>
<path d="M260.547 33.9677L249.112 33.8398C249.112 33.8398 231.463 89.0618 224.751 108.492C218.039 127.922 214.559 157.067 214.559 157.067L282.547 68.3535L260.547 33.9677Z" fill="#6985D1" stroke="#141516" stroke-miterlimit="10"/>
<path d="M299.823 36.6516L256.693 32.0498C256.693 32.0498 233.077 89.0613 227.484 114.371C221.891 139.681 216.422 153.231 216.422 153.231C216.422 153.231 245.382 125.492 268.377 94.0466C291.495 62.6008 307.28 40.3587 307.28 40.3587L299.823 36.6516Z" fill="#6985D1" stroke="#141516" stroke-miterlimit="10"/>
<path opacity="0.58" d="M301.811 39.8476L298.828 39.7198L258.93 37.291C258.93 37.291 238.794 86.505 233.823 105.04C228.851 123.575 225.992 141.343 225.992 141.343L301.811 39.8476Z" fill="white"/>
<path d="M267.506 83.4365C272.353 86.5043 272.105 95.8358 267.009 104.017C261.913 112.326 253.958 116.544 249.11 113.476C244.263 110.408 244.512 101.077 249.608 92.8958C254.704 84.5869 262.658 80.3686 267.506 83.4365Z" fill="#6985D1" stroke="#141516" stroke-miterlimit="10"/>
<path d="M324.558 39.2083L299.948 33.4561C299.948 33.4561 266.389 89.445 247.123 111.687C227.858 133.929 209.711 157.194 209.711 157.194C209.711 157.194 234.57 146.584 276.332 111.559C318.219 76.5343 332.637 48.1563 332.637 48.1563L324.558 39.2083Z" fill="#6985D1" stroke="#141516" stroke-miterlimit="10"/>
<path opacity="0.58" d="M321.201 41.5094L301.936 39.8477C301.936 39.8477 273.597 82.6702 258.06 102.611C242.523 122.553 220.523 149.78 220.523 149.78C220.523 149.78 253.71 124.726 274.715 99.7993C295.721 75.0005 327.292 42.6599 327.292 42.6599L321.201 41.5094Z" fill="white"/>
<path d="M346.186 47.2612L322.571 36.7793C322.571 36.7793 279.068 89.4447 250.356 120.251C221.644 151.058 209.712 157.066 209.712 157.066L207.848 164.608C207.848 164.608 247.746 150.291 285.904 110.664C323.938 71.0374 347.181 51.6074 347.181 51.6074L346.186 47.2612Z" fill="#6985D1" stroke="#141516" stroke-miterlimit="10"/>
<path opacity="0.58" d="M344.321 50.5847L327.045 42.7871C327.045 42.7871 284.039 90.0837 264.401 111.048C244.762 131.884 218.039 155.788 218.039 155.788C218.039 155.788 241.531 151.186 260.547 132.778C279.689 114.499 344.321 50.5847 344.321 50.5847Z" fill="white"/>
<path d="M364.454 60.8112L345.686 45.5996C345.686 45.5996 260.794 118.718 241.404 130.989C222.014 143.388 202.748 152.592 202.748 152.592L196.285 163.458C196.285 163.458 219.031 164.864 270.613 136.741C322.195 108.619 367.313 66.0522 367.313 66.0522L364.454 60.8112Z" fill="#6985D1" stroke="#141516" stroke-miterlimit="10"/>
<path opacity="0.58" d="M363.213 63.2405L346.931 52.5029C346.931 52.5029 287.643 100.439 268.999 114.372C250.355 128.305 234.445 138.276 229.474 141.088C224.502 143.9 213.812 150.036 213.812 150.036L218.909 153.487C218.909 153.487 238.423 152.465 270.242 134.313C302.061 116.162 367.067 66.0527 367.067 66.0527L363.213 63.2405Z" fill="white"/>
<path d="M291.494 115.011C293.359 118.59 288.263 125.365 279.935 130.095C271.607 134.824 263.28 135.847 261.415 132.268C259.551 128.689 264.647 121.914 272.975 117.184C281.302 112.454 289.63 111.432 291.494 115.011Z" fill="#6985D1" stroke="#141516" stroke-miterlimit="10"/>
<path d="M372.288 72.1886L365.576 57.4883C365.576 57.4883 312.006 104.529 274.469 125.877C236.932 147.352 197.904 159.24 197.904 159.24L192.062 169.466C192.062 169.466 223.633 169.594 279.565 139.426C335.497 109.259 372.288 85.6106 372.288 85.6106V72.1886Z" fill="#6985D1" stroke="#141516" stroke-miterlimit="10"/>
<path opacity="0.58" d="M371.787 76.0231L363.211 63.2402C363.211 63.2402 318.838 101.844 300.194 114.755C281.55 127.666 239.911 148.885 232.951 150.419C226.115 151.953 223.629 153.487 223.629 153.487L230.714 158.473C230.714 158.473 258.183 151.442 290.375 131.756C322.567 112.071 370.544 81.9032 370.544 81.9032L371.787 76.0231Z" fill="white"/>
<path d="M367.936 107.341C367.936 107.341 373.28 103.889 374.399 93.2797C375.518 82.6699 376.139 75.2559 376.139 75.2559C376.139 75.2559 306.411 117.056 280.433 130.222C254.456 143.388 227.484 150.291 220.772 151.57C214.06 152.848 192.06 156.683 192.06 156.683L178.637 173.045C178.637 173.045 203.62 181.226 233.077 171.894C262.535 162.435 332.885 138.02 339.846 134.568C346.806 131.117 367.936 107.341 367.936 107.341Z" fill="#6985D1" stroke="#141516" stroke-miterlimit="10"/>
<path opacity="0.58" d="M367.936 107.34C367.936 107.34 372.659 93.7903 372.535 90.0832C372.411 86.3762 372.535 80.4961 372.535 80.4961C372.535 80.4961 322.072 109.385 304.173 121.657C286.275 133.801 247.62 149.012 239.417 150.546C231.213 152.08 193.552 158.855 193.552 158.855L183.484 173.811C183.484 173.811 211.823 177.007 239.914 167.419C268.004 157.832 318.84 141.982 320.207 141.342C321.575 140.703 339.846 134.568 339.846 134.568L367.936 107.34Z" fill="white"/>
<path d="M293.856 137.892C295.596 141.599 290.003 147.99 281.426 152.209C272.85 156.427 264.522 156.938 262.782 153.231C261.042 149.524 266.635 143.133 275.212 138.914C283.788 134.696 292.115 134.185 293.856 137.892Z" fill="#6985D1" stroke="#141516" stroke-miterlimit="10"/>
<path d="M255.575 177.007C255.575 177.007 307.654 158.089 319.835 155.404C332.015 152.72 345.315 153.359 345.315 153.359L376.015 95.9639C376.015 95.9639 336.739 109.386 316.354 119.868C295.97 130.35 264.773 147.223 258.061 148.501C251.349 149.78 218.287 151.314 218.287 151.314L201.383 186.85L211.451 192.091L219.53 195.926L255.575 177.007Z" fill="#6985D1" stroke="#141516" stroke-miterlimit="10"/>
<path opacity="0.58" d="M367.687 101.717L342.58 145.051C342.58 145.051 314.241 151.442 295.1 157.45C275.958 163.458 246.128 176.496 241.529 178.797C236.93 181.098 235.066 183.271 231.959 183.527C228.851 183.783 206.105 187.49 206.105 187.49L220.026 154.254C220.026 154.254 257.687 151.186 259.552 150.803C261.416 150.292 317.1 121.275 327.54 117.44C337.732 113.477 367.687 101.717 367.687 101.717Z" fill="white"/>
<path d="M291.125 145.434C292.865 149.141 287.272 155.532 278.696 159.751C270.12 163.969 261.792 164.48 260.052 160.773C258.312 157.066 263.905 150.675 272.481 146.456C281.057 142.238 289.385 141.727 291.125 145.434Z" fill="#6985D1" stroke="#141516" stroke-miterlimit="10"/>
<path d="M103.562 196.948C103.562 196.948 143.958 168.443 146.816 167.037C149.8 165.63 173.912 162.051 177.517 161.029C181.122 160.134 186.093 161.412 189.076 163.202C191.935 165.119 215.799 167.931 219.155 166.27C222.387 164.608 236.184 157.833 239.291 158.472C242.398 158.983 246.251 161.284 243.89 167.42C241.528 173.556 229.099 185.827 224.5 189.023C219.901 192.091 219.901 192.091 219.901 192.091L230.093 187.873L255.698 177.007C255.698 177.007 253.709 188.384 253.336 191.068C252.963 193.753 256.692 197.332 249.732 203.212C242.771 209.092 236.059 214.461 236.059 214.461C236.059 214.461 234.319 220.341 231.585 224.943C228.85 229.545 228.602 230.567 228.477 233.124C228.477 235.681 225.121 250.125 220.523 252.426C215.924 254.727 205.359 255.366 201.257 253.577C197.28 251.787 183.98 252.937 183.98 252.937C183.98 252.937 137.246 253.065 131.28 253.065C125.314 253.065 117.732 256.005 117.732 256.005L113.133 258.306L98.7148 197.843L103.562 196.948Z" fill="#EDEFF7" stroke="#141516" stroke-miterlimit="10" stroke-linecap="round" stroke-linejoin="round"/>
<path d="M104.434 222.514L117.609 255.877L110.027 259.712L104.434 222.514Z" fill="#141516" stroke="#141516" stroke-miterlimit="10"/>
<path d="M220.895 191.836C220.895 191.836 233.2 188.64 239.539 192.731C245.878 196.821 247.742 204.107 247.742 204.107C247.742 204.107 253.832 201.295 253.459 196.182C253.087 191.069 253.087 191.069 253.087 191.069L255.448 177.008L220.895 191.836Z" fill="#141516" stroke="#141516" stroke-miterlimit="10"/>
<path d="M189.824 187.361C189.824 187.361 196.039 187.617 198.525 189.662C201.135 191.707 205.237 193.753 205.237 193.753L211.327 191.963H219.779" stroke="#141516" stroke-miterlimit="10"/>
<path d="M232.579 216.89C232.579 216.89 227.11 224.176 226.364 225.326C225.742 226.477 220.522 233.635 216.296 234.786C212.07 236.064 205.855 234.147 205.855 234.147C205.855 234.147 214.929 241.049 218.906 239.771C222.884 238.493 232.579 216.89 232.579 216.89Z" fill="#141516" stroke="#141516" stroke-miterlimit="10"/>
<path d="M62.2969 205.769C62.2969 205.769 96.9748 190.557 97.472 192.475C97.9691 194.264 98.7149 197.716 98.7149 197.716L113.133 258.179C113.133 258.179 119.223 284.256 117.98 284.383C116.862 284.511 85.1669 293.204 85.1669 293.204L62.2969 205.769Z" fill="white" stroke="#141516" stroke-miterlimit="10"/>
<path d="M-0.84375 351.365L92.625 318.514C92.625 318.514 89.1448 296.655 86.5347 287.196C83.0544 274.285 82.9301 258.562 77.7098 240.538C72.7381 223.281 70.8737 193.114 70.8737 193.114C68.6364 190.046 55.4613 194.903 55.4613 194.903L-0.84375 211.521V351.365Z" fill="#141516" stroke="#141516" stroke-miterlimit="10"/>
</g>
<defs>
<clipPath id="clip0_3509_3398">
<rect width="620" height="359" fill="white"/>
</clipPath>
</defs>
</svg>
