<svg width="620" height="359" viewBox="0 0 620 359" fill="none" xmlns="http://www.w3.org/2000/svg">
<g opacity="0.3">
<path d="M533.739 199.025L517.73 236.711L575.989 267.803L591.998 230.117L533.739 199.025Z" stroke="#141516" stroke-miterlimit="10"/>
<path d="M540.481 207.14C539.393 209.667 536.75 210.713 534.495 209.493C534.34 209.406 534.184 209.319 534.029 209.144L524.855 230.755C525.011 230.842 525.166 230.929 525.4 231.016C527.654 232.236 528.587 235.199 527.499 237.726C527.421 237.813 527.421 237.9 527.343 237.987L568.934 260.295C568.934 260.208 569.012 260.12 569.012 260.033C570.1 257.506 572.743 256.461 574.998 257.681C575.153 257.768 575.309 257.855 575.464 258.029L584.638 236.419C584.482 236.332 584.327 236.244 584.093 236.157C581.839 234.937 580.906 231.975 581.994 229.448C582.072 229.273 582.15 229.099 582.305 228.925L540.714 206.53C540.637 206.705 540.559 206.879 540.481 207.14ZM561.471 236.942C559.683 241.037 555.33 242.78 551.676 240.863C548.022 238.946 546.467 233.979 548.177 229.883C549.965 225.788 554.319 224.045 557.973 225.962C561.704 227.879 563.259 232.846 561.471 236.942Z" stroke="#141516" stroke-miterlimit="10"/>
</g>
<g opacity="0.3">
<path d="M40.8131 146.041L28.168 175.81L74.1869 200.37L86.832 170.601L40.8131 146.041Z" stroke="#141516" stroke-miterlimit="10"/>
<path d="M46.1777 152.412C45.318 154.409 43.2301 155.235 41.4493 154.271C41.3265 154.202 41.2037 154.133 41.0809 153.996L33.7734 171.135C33.8963 171.203 34.0191 171.272 34.2033 171.341C35.9841 172.305 36.721 174.645 35.8613 176.641C35.7999 176.71 35.7999 176.779 35.7385 176.848L68.5913 194.399C68.5913 194.331 68.6527 194.262 68.6527 194.193C69.5124 192.197 71.6003 191.371 73.3811 192.334C73.5039 192.403 73.6267 192.472 73.7495 192.61L80.9955 175.54C80.8727 175.471 80.7499 175.402 80.5657 175.333C78.7849 174.37 78.048 172.029 78.9077 170.033C78.9691 169.896 79.0305 169.758 79.1533 169.62L46.3005 151.931C46.3005 152.068 46.2391 152.206 46.1777 152.412ZM62.7576 175.953C61.3453 179.188 57.9065 180.564 55.0203 179.05C52.1342 177.536 50.906 173.612 52.257 170.377C53.608 167.142 57.1082 165.766 59.9943 167.28C62.8804 168.794 64.1086 172.718 62.7576 175.953Z" stroke="#141516" stroke-miterlimit="10"/>
</g>
<path d="M195.355 214.113H96.5312V235.809H195.355V214.113Z" fill="white" stroke="#4143EC" stroke-miterlimit="10" stroke-linecap="round" stroke-linejoin="round"/>
<path d="M222.726 191.367H123.902V214.114H222.726V191.367Z" fill="white" stroke="#4143EC" stroke-miterlimit="10" stroke-linecap="round" stroke-linejoin="round"/>
<path d="M250.097 168.62H151.273V191.367H250.097V168.62Z" fill="white" stroke="#4143EC" stroke-miterlimit="10" stroke-linecap="round" stroke-linejoin="round"/>
<path d="M277.468 145.873H178.645V168.62H277.468V145.873Z" fill="white" stroke="#4143EC" stroke-miterlimit="10" stroke-linecap="round" stroke-linejoin="round"/>
<path d="M305.776 325.936V145.873H277.382V168.62H250.011V191.367H222.726V214.114H195.355V325.936H305.776Z" fill="#4143EC" stroke="#4143EC" stroke-miterlimit="10" stroke-linecap="round" stroke-linejoin="round"/>
<path d="M305.777 304.24H206.953V325.936H305.777V304.24Z" fill="white" stroke="#4143EC" stroke-miterlimit="10" stroke-linecap="round" stroke-linejoin="round"/>
<path d="M179.633 304.271H278.457V281.524H179.633V304.271Z" fill="white" stroke="#4143EC" stroke-miterlimit="10" stroke-linecap="round" stroke-linejoin="round"/>
<path d="M152.2 281.477H251.023V258.73H152.2V281.477Z" fill="white" stroke="#4143EC" stroke-miterlimit="10" stroke-linecap="round" stroke-linejoin="round"/>
<path d="M124.856 258.682H223.68V235.935H124.856V258.682Z" fill="white" stroke="#4143EC" stroke-miterlimit="10" stroke-linecap="round" stroke-linejoin="round"/>
<path d="M96.5312 325.936V236H124.925V258.747H152.296V281.494H179.581V304.241H206.951V325.936H96.5312Z" fill="#4143EC" stroke="#4143EC" stroke-miterlimit="10" stroke-linecap="round" stroke-linejoin="round"/>
<path d="M384.566 139.596C384.566 139.596 407.348 125.221 410.693 126.561C414.039 127.989 407.826 156.293 406.95 158.168C406.073 160.043 384.566 139.596 384.566 139.596Z" fill="#6985D1" stroke="#141516" stroke-miterlimit="10" stroke-linecap="round" stroke-linejoin="round"/>
<path d="M409.42 130.311C409.42 130.311 408.464 132.007 407.189 134.507C404.959 138.882 402.012 145.489 402.012 149.328C402.012 155.4 405.357 154.864 406.154 150.221L409.021 136.739" stroke="#141516" stroke-miterlimit="10" stroke-linecap="round" stroke-linejoin="round"/>
<path d="M217.768 215.221C224.015 215.221 229.079 207.826 229.079 198.703C229.079 189.581 224.015 182.186 217.768 182.186C211.521 182.186 206.457 189.581 206.457 198.703C206.457 207.826 211.521 215.221 217.768 215.221Z" fill="#6985D1" stroke="#141516" stroke-miterlimit="10" stroke-linecap="round" stroke-linejoin="round"/>
<path d="M320.365 317.186C379.931 317.186 428.219 271.375 428.219 214.864C428.219 158.354 379.931 112.543 320.365 112.543C260.799 112.543 212.512 158.354 212.512 214.864C212.512 271.375 260.799 317.186 320.365 317.186Z" fill="#6985D1" stroke="#141516" stroke-miterlimit="10" stroke-linecap="round" stroke-linejoin="round"/>
<path d="M390.46 285.4C372.139 301.739 347.526 311.739 320.443 311.739C272.012 311.739 231.547 279.775 220.953 236.918" fill="#6985D1"/>
<path d="M390.46 285.4C372.139 301.739 347.526 311.739 320.443 311.739C272.012 311.739 231.547 279.775 220.953 236.918" stroke="#141516" stroke-width="2" stroke-miterlimit="10" stroke-linecap="round" stroke-linejoin="round"/>
<path d="M218.326 218.078C218.326 217.007 218.246 215.936 218.246 214.864C218.246 202.9 220.476 191.561 224.698 180.936" fill="#6985D1"/>
<path d="M218.326 218.078C218.326 217.007 218.246 215.936 218.246 214.864C218.246 202.9 220.476 191.561 224.698 180.936" stroke="#141516" stroke-width="2" stroke-miterlimit="10" stroke-linecap="round" stroke-linejoin="round"/>
<path d="M288.023 123.793C298.219 120.579 309.053 118.793 320.443 118.793C331.834 118.793 342.747 120.579 352.943 123.882" stroke="#141516" stroke-width="5" stroke-miterlimit="10" stroke-linecap="round" stroke-linejoin="round"/>
<path d="M422.243 183.257C422.243 183.257 435.944 178.168 438.015 180.936C440.086 183.704 440.086 216.293 438.413 222.275C436.74 228.346 425.589 226.918 417.703 220.4C409.817 213.882 410.693 204.596 410.693 204.596" fill="#6985D1"/>
<path d="M422.243 183.257C422.243 183.257 435.944 178.168 438.015 180.936C440.086 183.704 440.086 216.293 438.413 222.275C436.74 228.346 425.589 226.918 417.703 220.4C409.817 213.882 410.693 204.596 410.693 204.596" stroke="#141516" stroke-miterlimit="10" stroke-linecap="round" stroke-linejoin="round"/>
<path d="M413.96 203.257L405.676 204.685" stroke="#141516" stroke-miterlimit="10" stroke-linecap="round" stroke-linejoin="round"/>
<path d="M411.887 213.436C411.887 213.436 409.816 229.686 412.285 230.132C414.755 230.578 418.897 222.275 418.897 222.275C418.897 222.275 413.162 214.864 411.887 213.436Z" fill="#141516" stroke="#141516" stroke-miterlimit="10" stroke-linecap="round" stroke-linejoin="round"/>
<path d="M404.324 175.4C405.12 178.792 404.642 181.828 403.288 182.185C401.934 182.542 400.261 180.132 399.465 176.828C398.668 173.435 399.146 170.4 400.5 170.043C401.854 169.596 403.607 172.007 404.324 175.4Z" fill="#141516"/>
<path d="M360.828 130.311C360.828 130.311 386.955 101.025 391.973 106.739C397.071 112.454 395.16 137.364 395.16 140.936C395.16 144.507 395.16 150.936 395.16 150.936" fill="#6985D1"/>
<path d="M360.828 130.311C360.828 130.311 386.955 101.025 391.973 106.739C397.071 112.454 395.16 137.364 395.16 140.936C395.16 144.507 395.16 150.936 395.16 150.936" stroke="#141516" stroke-miterlimit="10" stroke-linecap="round" stroke-linejoin="round"/>
<path d="M392.847 113.079C392.847 113.079 393.246 105.668 390.378 110.311C387.51 114.954 379.147 147.008 381.696 150.758C384.165 154.508 391.254 152.633 392.927 145.668C394.6 138.704 393.325 118.704 393.325 118.704" stroke="#141516" stroke-miterlimit="10" stroke-linecap="round" stroke-linejoin="round"/>
<path d="M250.031 282.722L264.29 325.936H280.061L287.151 303.615" fill="#6985D1"/>
<path d="M250.031 282.722L264.29 325.936H280.061L287.151 303.615" stroke="#141516" stroke-miterlimit="10" stroke-linecap="round" stroke-linejoin="round"/>
<path d="M381.619 288.257L367.918 325.935H352.226L345.137 303.614" fill="#6985D1"/>
<path d="M381.619 288.257L367.918 325.935H352.226L345.137 303.614" stroke="#141516" stroke-miterlimit="10" stroke-linecap="round" stroke-linejoin="round"/>
<path d="M315.108 265.578V256.561C309.134 256.293 304.753 254.15 301.806 250.132C298.859 246.114 297.265 240.132 297.026 232.186L309.214 229.864C309.293 233.078 309.612 235.757 310.09 237.989C310.568 240.132 311.285 241.739 312.32 242.811C313.276 243.882 314.551 244.418 316.144 244.418C317.896 244.418 319.171 243.793 319.808 242.453C320.445 241.203 320.764 239.686 320.764 237.989C320.764 234.686 320.047 231.918 318.693 229.686C317.339 227.453 315.507 225.221 313.117 222.9L305.789 215.846C304.116 214.061 302.602 212.364 301.248 210.489C299.894 208.704 298.859 206.65 298.062 204.239C297.265 201.918 296.867 199.15 296.867 196.025C296.867 189.954 298.381 185.221 301.487 181.829C304.594 178.436 308.736 176.471 313.913 176.025V167.364H318.056V176.025C321.162 176.204 323.711 177.007 325.703 178.436C327.694 179.864 329.207 181.561 330.243 183.704C331.278 185.846 331.995 188.079 332.473 190.579C332.951 193.079 333.19 195.489 333.349 197.811L321.003 199.864C320.923 197.454 320.764 195.311 320.445 193.525C320.127 191.65 319.649 190.221 318.852 189.239C318.135 188.168 316.94 187.721 315.427 187.811C313.834 187.9 312.559 188.614 311.763 189.954C310.966 191.293 310.488 192.811 310.488 194.507C310.488 197.454 311.126 199.864 312.4 201.65C313.675 203.436 315.108 205.221 316.701 206.918L323.87 213.882C325.782 215.846 327.535 217.9 329.128 220.221C330.721 222.453 332.075 224.953 333.031 227.721C333.987 230.489 334.465 233.614 334.465 237.186C334.465 240.578 333.827 243.703 332.633 246.561C331.358 249.418 329.606 251.65 327.296 253.436C324.986 255.221 322.198 256.203 319.011 256.561V265.668H315.108V265.578Z" fill="#141516"/>
<path opacity="0.2" d="M345.776 213.703C360.118 213.703 371.744 201.111 371.744 185.578C371.744 170.045 360.118 157.453 345.776 157.453C331.435 157.453 319.809 170.045 319.809 185.578C319.809 201.111 331.435 213.703 345.776 213.703Z" fill="white"/>
<path d="M86.8477 325.936H529.778" stroke="#141516" stroke-miterlimit="10" stroke-linecap="round" stroke-linejoin="round"/>
<path opacity="0.3" d="M87.7891 48.9134C87.7891 48.9134 84.8568 32.98 75.1677 34.0517C70.7694 34.5519 67.8372 37.0527 65.2237 40.8395C61.9727 45.7696 60.7616 42.9116 56.0445 44.5549C51.8374 45.984 52.4749 49.9852 49.9251 50.6997C47.3116 51.4142 45.3993 48.1989 41.8296 48.9134C38.26 49.6279 36.3477 53.6291 36.3477 53.6291H100.984C100.984 53.6291 100.665 49.2707 96.4582 47.8417C92.3149 46.4127 90.4026 49.9852 87.7891 48.9134Z" stroke="#141516" stroke-miterlimit="10"/>
<path opacity="0.3" d="M547.034 65.8037C547.034 65.8037 542.763 42.4394 528.612 44.0828C522.174 44.7973 517.84 48.4413 514.079 54.0859C509.298 61.3023 507.577 57.0868 500.692 59.5161C494.573 61.6596 495.465 67.4471 491.705 68.5188C487.944 69.5906 485.075 64.8034 479.848 65.8752C474.621 66.9469 471.816 72.7344 471.816 72.7344H566.412C566.412 72.7344 565.966 66.3753 559.783 64.2318C553.664 62.0883 550.859 67.3756 547.034 65.8037Z" stroke="#141516" stroke-miterlimit="10"/>
<g opacity="0.3">
<path d="M152.714 85.8112L170.637 113.52L213.471 78.7082L195.548 50.9998L152.714 85.8112Z" stroke="#141516" stroke-miterlimit="10"/>
<path d="M160.555 83.5434C161.766 85.4011 161.384 87.9734 159.726 89.3309C159.599 89.4024 159.471 89.5453 159.344 89.6167L169.607 105.55C169.734 105.407 169.862 105.336 169.989 105.193C171.646 103.835 173.941 104.264 175.152 106.122C175.216 106.193 175.216 106.265 175.28 106.336L205.877 81.4714C205.813 81.3999 205.749 81.3285 205.749 81.257C204.538 79.3993 204.921 76.8271 206.578 75.4695C206.706 75.3981 206.833 75.2552 206.961 75.1837L196.698 59.2503C196.57 59.3932 196.443 59.4647 196.315 59.6076C194.658 60.9651 192.363 60.5364 191.152 58.6787C191.088 58.5358 190.961 58.3929 190.897 58.25L160.3 83.1147C160.364 83.2576 160.491 83.4005 160.555 83.5434ZM187.965 78.3276C189.941 81.3285 189.303 85.6155 186.626 87.759C183.949 89.974 180.124 89.2595 178.212 86.2586C176.236 83.2576 176.873 78.9706 179.551 76.8271C182.228 74.6121 185.989 75.2552 187.965 78.3276Z" stroke="#141516" stroke-miterlimit="10"/>
</g>
<path d="M312.46 117.042C330.184 117.042 344.553 100.937 344.553 81.0694C344.553 61.2022 330.184 45.0967 312.46 45.0967C294.736 45.0967 280.367 61.2022 280.367 81.0694C280.367 100.937 294.736 117.042 312.46 117.042Z" fill="white" stroke="#141516" stroke-miterlimit="10" stroke-linecap="round" stroke-linejoin="round"/>
<path d="M315.718 117.042C333.442 117.042 347.811 100.937 347.811 81.0694C347.811 61.2022 333.442 45.0967 315.718 45.0967C297.993 45.0967 283.625 61.2022 283.625 81.0694C283.625 100.937 297.993 117.042 315.718 117.042Z" fill="white" stroke="#141516" stroke-miterlimit="10" stroke-linecap="round" stroke-linejoin="round"/>
<path d="M334.886 102.586C345.493 90.6963 345.493 71.4189 334.886 59.5289C324.278 47.639 307.08 47.639 296.472 59.5289C285.865 71.4189 285.865 90.6963 296.472 102.586C307.08 114.476 324.278 114.476 334.886 102.586Z" fill="white" stroke="#141516" stroke-miterlimit="10" stroke-linecap="round" stroke-linejoin="round"/>
<path d="M315.998 102.548V98.5862C313.394 98.4819 311.347 97.5435 310.045 95.7709C308.743 93.9984 307.999 91.2874 307.906 87.7423L313.301 86.6996C313.394 88.1593 313.487 89.3063 313.673 90.349C313.859 91.2874 314.231 92.0173 314.696 92.5386C315.161 93.06 315.719 93.2685 316.371 93.2685C317.208 93.2685 317.673 92.9557 318.045 92.4344C318.324 91.8087 318.51 91.1831 318.51 90.4532C318.51 88.9935 318.231 87.7423 317.58 86.8038C317.022 85.7611 316.185 84.8227 315.068 83.78L311.812 80.652C311.068 79.9221 310.417 79.0879 309.766 78.2538C309.208 77.4196 308.743 76.4812 308.371 75.5428C307.999 74.5001 307.812 73.2489 307.812 71.8934C307.812 69.1824 308.464 67.097 309.859 65.533C311.254 64.0733 313.115 63.1348 315.347 62.9263V59.0684H317.208V62.9263C318.603 63.0306 319.719 63.3434 320.65 63.969C321.58 64.5946 322.231 65.3245 322.696 66.2629C323.161 67.2013 323.533 68.244 323.719 69.2867C323.905 70.4336 324.091 71.4763 324.091 72.519L318.603 73.4574C318.603 72.4148 318.51 71.4763 318.417 70.6422C318.324 69.808 318.045 69.1824 317.766 68.7653C317.394 68.3483 316.929 68.1397 316.185 68.1397C315.44 68.1397 314.882 68.4525 314.51 69.0782C314.138 69.7038 313.952 70.3294 313.952 71.0593C313.952 72.4148 314.231 73.4574 314.789 74.2916C315.347 75.1257 315.998 75.8556 316.743 76.5855L319.905 79.7136C320.743 80.5477 321.58 81.4861 322.231 82.5288C322.975 83.5715 323.533 84.6142 323.998 85.8654C324.464 87.1166 324.65 88.4721 324.65 90.0362C324.65 91.6002 324.371 92.9557 323.812 94.2069C323.254 95.4581 322.51 96.5008 321.394 97.2307C320.371 97.9606 319.161 98.4819 317.673 98.5862V102.653H315.998V102.548Z" fill="white" stroke="#141516" stroke-miterlimit="10" stroke-linecap="round" stroke-linejoin="round"/>
</svg>
