<svg width="620" height="359" viewBox="0 0 620 359" fill="none" xmlns="http://www.w3.org/2000/svg">
<g clip-path="url(#clip0_3509_3504)">
<g opacity="0.3">
<path d="M468.5 224.234L457.934 235.218L468.5 246.202L479.067 235.218L468.5 224.234Z" stroke="#141516" stroke-miterlimit="10" stroke-linecap="round" stroke-linejoin="round"/>
<path d="M161.957 30.1391L151.391 41.123L161.957 52.107L172.524 41.123L161.957 30.1391Z" stroke="#141516" stroke-miterlimit="10" stroke-linecap="round" stroke-linejoin="round"/>
<path d="M128.261 230.202L121.746 236.975L128.261 243.747L134.776 236.975L128.261 230.202Z" stroke="#141516" stroke-miterlimit="10" stroke-linecap="round" stroke-linejoin="round"/>
<path d="M96.5151 129.6L90 136.372L96.5151 143.145L103.03 136.372L96.5151 129.6Z" stroke="#141516" stroke-miterlimit="10" stroke-linecap="round" stroke-linejoin="round"/>
<path d="M423.749 70.247L417.234 77.0195L423.749 83.792L430.265 77.0195L423.749 70.247Z" stroke="#141516" stroke-miterlimit="10" stroke-linecap="round" stroke-linejoin="round"/>
<path d="M189.44 266.681L180.133 276.356L189.44 286.031L198.747 276.356L189.44 266.681Z" stroke="#141516" stroke-miterlimit="10" stroke-linecap="round" stroke-linejoin="round"/>
<path d="M393.449 256.421L386.934 263.193L393.449 269.966L399.964 263.193L393.449 256.421Z" stroke="#141516" stroke-miterlimit="10" stroke-linecap="round" stroke-linejoin="round"/>
<path d="M500.338 27.405L487.855 40.3809L500.338 53.3567L512.821 40.3808L500.338 27.405Z" stroke="#141516" stroke-miterlimit="10" stroke-linecap="round" stroke-linejoin="round"/>
<path d="M178.59 154.227C183.85 154.227 188.114 149.795 188.114 144.328C188.114 138.86 183.85 134.428 178.59 134.428C173.33 134.428 169.066 138.86 169.066 144.328C169.066 149.795 173.33 154.227 178.59 154.227Z" stroke="#141516" stroke-miterlimit="10" stroke-linecap="round" stroke-linejoin="round"/>
<path d="M520.017 188.621C524.977 188.621 528.998 184.441 528.998 179.285C528.998 174.128 524.977 169.948 520.017 169.948C515.056 169.948 511.035 174.128 511.035 179.285C511.035 184.441 515.056 188.621 520.017 188.621Z" stroke="#141516" stroke-miterlimit="10" stroke-linecap="round" stroke-linejoin="round"/>
<path d="M487.117 120.53C490.024 120.53 492.382 118.08 492.382 115.057C492.382 112.034 490.024 109.584 487.117 109.584C484.209 109.584 481.852 112.034 481.852 115.057C481.852 118.08 484.209 120.53 487.117 120.53Z" stroke="#141516" stroke-miterlimit="10" stroke-linecap="round" stroke-linejoin="round"/>
<path d="M381.505 43.1827C381.505 41.3316 380.112 39.8828 378.331 39.8828C376.55 39.8828 375.156 41.3316 375.156 43.1827C375.156 45.0339 376.55 46.4827 378.331 46.4827C380.112 46.4827 381.505 45.0339 381.505 43.1827Z" stroke="#141516" stroke-miterlimit="10" stroke-linecap="round" stroke-linejoin="round"/>
<path d="M248.483 234.176C250.236 234.176 251.658 232.699 251.658 230.876C251.658 229.054 250.236 227.576 248.483 227.576C246.73 227.576 245.309 229.054 245.309 230.876C245.309 232.699 246.73 234.176 248.483 234.176Z" stroke="#141516" stroke-miterlimit="10" stroke-linecap="round" stroke-linejoin="round"/>
<path d="M145.629 324.079C148.238 324.079 150.352 321.881 150.352 319.169C150.352 316.458 148.238 314.26 145.629 314.26C143.021 314.26 140.906 316.458 140.906 319.169C140.906 321.881 143.021 324.079 145.629 324.079Z" stroke="#141516" stroke-miterlimit="10" stroke-linecap="round" stroke-linejoin="round"/>
<path d="M461.255 310.96C461.255 308.545 459.397 306.533 456.997 306.533C454.674 306.533 452.738 308.465 452.738 310.96C452.738 313.375 454.597 315.387 456.997 315.387C459.32 315.306 461.255 313.375 461.255 310.96Z" stroke="#141516" stroke-miterlimit="10" stroke-linecap="round" stroke-linejoin="round"/>
<path d="M427.419 27.2461C427.419 24.8315 425.561 22.8193 423.161 22.8193C420.838 22.8193 418.902 24.751 418.902 27.2461C418.902 29.6607 420.761 31.6728 423.161 31.6728C425.561 31.6728 427.419 29.6607 427.419 27.2461Z" stroke="#141516" stroke-miterlimit="10" stroke-linecap="round" stroke-linejoin="round"/>
</g>
<path d="M231.635 195.703L201.516 212.766" stroke="#4143EC" stroke-width="3" stroke-miterlimit="10" stroke-linecap="round" stroke-linejoin="round"/>
<path d="M174.648 102.983L206.781 116.183" stroke="#4143EC" stroke-width="3" stroke-miterlimit="10" stroke-linecap="round" stroke-linejoin="round"/>
<path d="M213.129 28.373L233.725 62.9016" stroke="#4143EC" stroke-width="3" stroke-miterlimit="10" stroke-linecap="round" stroke-linejoin="round"/>
<path d="M283.357 13L282.273 40.4458" stroke="#4143EC" stroke-width="3" stroke-miterlimit="10" stroke-linecap="round" stroke-linejoin="round"/>
<path d="M370.434 78.2744L397.378 50.3457" stroke="#4143EC" stroke-width="3" stroke-miterlimit="10" stroke-linecap="round" stroke-linejoin="round"/>
<path d="M407.906 134.776L431.134 126.566" stroke="#4143EC" stroke-width="3" stroke-miterlimit="10" stroke-linecap="round" stroke-linejoin="round"/>
<path d="M385.766 196.267L405.277 207.776" stroke="#4143EC" stroke-width="3" stroke-miterlimit="10" stroke-linecap="round" stroke-linejoin="round"/>
<path d="M206.316 77.7109L222.112 90.3473" stroke="#4143EC" stroke-width="3" stroke-miterlimit="10" stroke-linecap="round" stroke-linejoin="round"/>
<path d="M403.73 101.373L386.773 109.583" stroke="#4143EC" stroke-width="3" stroke-miterlimit="10" stroke-linecap="round" stroke-linejoin="round"/>
<path d="M212.123 161.175L194.16 166.648" stroke="#4143EC" stroke-width="3" stroke-miterlimit="10" stroke-linecap="round" stroke-linejoin="round"/>
<path d="M393.121 168.258L401.561 170.511" stroke="#4143EC" stroke-width="3" stroke-miterlimit="10" stroke-linecap="round" stroke-linejoin="round"/>
<path d="M400.397 135.58C397.378 133.407 386.151 135.339 379.028 141.295C371.904 147.251 370.278 149.424 370.278 149.424C370.278 149.424 367.104 126.083 367.104 125.359C367.104 124.634 362.535 80.7694 361.606 74.3305C360.677 67.8916 359.284 58.3137 357.967 56.2211C356.574 54.048 351.076 53.8065 349.218 54.7724C347.36 55.7382 347.36 55.7382 347.36 55.7382C347.36 55.7382 348.289 39.0776 346.431 34.9728C344.572 30.9485 338.843 33.2826 337.217 35.4557C335.591 37.6288 334.429 40.9287 334.429 40.9287C334.429 40.9287 329.164 38.9971 326.145 45.1945C323.125 51.3919 320.88 56.865 320.415 62.821C319.95 68.7769 317.395 76.4231 317.395 76.4231C317.395 76.4231 314.376 71.433 311.201 74.25C308.027 77.1475 304.31 88.3351 303.381 96.4642C302.452 104.593 301.523 126.083 301.523 126.083C301.523 126.083 299.664 135.902 298.735 143.71C297.806 151.597 298.503 184.275 301.91 197.877C305.317 211.479 309.962 220.091 309.962 220.091C309.962 220.091 318.015 247.537 319.176 251.319C320.338 255.102 332.958 307.177 332.958 307.177L370.588 257.517C370.588 257.517 361.142 230.554 359.129 224.357C357.038 218.159 355.722 216.228 355.722 216.228C355.722 216.228 367.181 199.325 373.375 194.255C379.57 189.265 382.821 172.524 384.37 165.119C385.996 157.714 392.655 147.492 396.294 144.112C400.165 140.893 403.34 137.754 400.397 135.58ZM315.46 124.151C314.763 124.151 314.995 114.815 314.995 103.627C314.995 92.4399 316.853 87.3692 316.853 87.3692C315.924 92.3594 317.782 117.23 317.782 118.839C317.782 120.61 316.156 124.151 315.46 124.151Z" fill="white" stroke="#090F0F" stroke-miterlimit="10" stroke-linecap="round" stroke-linejoin="round"/>
<path d="M350.148 220.332C353.013 218.803 353.555 217.193 353.555 217.193" stroke="#090F0F" stroke-miterlimit="10" stroke-linecap="round" stroke-linejoin="round"/>
<path d="M327.613 214.859C327.613 214.859 340.234 223.471 346.428 221.781" stroke="#090F0F" stroke-miterlimit="10" stroke-linecap="round" stroke-linejoin="round"/>
<path d="M370.278 149.424C370.278 149.424 365.478 157.311 364.316 160.128C363.155 163.026 362.458 165.36 360.445 166.567C358.354 167.775 355.645 169.465 355.645 169.465" stroke="#090F0F" stroke-miterlimit="10" stroke-linecap="round" stroke-linejoin="round"/>
<path d="M356.417 151.758C350.61 154.575 342.403 159.565 337.68 166.809" stroke="#090F0F" stroke-miterlimit="10" stroke-linecap="round" stroke-linejoin="round"/>
<path d="M363.153 148.941C363.153 148.941 361.45 149.505 358.895 150.632" stroke="#090F0F" stroke-miterlimit="10" stroke-linecap="round" stroke-linejoin="round"/>
<path d="M335.204 169.948C335.204 169.948 331.1 177.836 329.242 184.033" stroke="#090F0F" stroke-miterlimit="10" stroke-linecap="round" stroke-linejoin="round"/>
<path d="M334.505 40.9287C334.505 40.9287 333.343 50.909 331.718 65.9599C330.092 81.0108 329.162 88.4155 329.395 97.9129C329.627 107.41 332.182 115.781 331.95 116.988" stroke="#090F0F" stroke-miterlimit="10" stroke-linecap="round" stroke-linejoin="round"/>
<path d="M347.361 55.6582C347.361 55.6582 346.664 61.8556 347.361 69.9847C348.058 78.1138 346.664 93.1647 346.664 98.8792C346.664 104.594 346.896 113.206 347.129 115.781C347.361 118.437 348.755 120.289 348.755 120.289" stroke="#090F0F" stroke-miterlimit="10" stroke-linecap="round" stroke-linejoin="round"/>
<path d="M351.695 121.817C351.695 121.817 352.857 123.991 360.445 124.232" stroke="#090F0F" stroke-miterlimit="10" stroke-linecap="round" stroke-linejoin="round"/>
<path d="M334.273 116.022C334.273 116.022 339.771 117.23 343.487 116.505" stroke="#090F0F" stroke-miterlimit="10" stroke-linecap="round" stroke-linejoin="round"/>
<path d="M314.299 126.083C314.299 126.083 314.299 128.498 307.641 130.59" stroke="#090F0F" stroke-miterlimit="10" stroke-linecap="round" stroke-linejoin="round"/>
<path d="M327.383 119.644C328.08 119.161 330.79 118.195 331.486 114.896" stroke="#090F0F" stroke-miterlimit="10" stroke-linecap="round" stroke-linejoin="round"/>
<path d="M327.77 156.185C327.77 156.185 342.016 150.712 351.075 148.78" stroke="#090F0F" stroke-miterlimit="10" stroke-linecap="round" stroke-linejoin="round"/>
<path d="M368.266 397.643H491.608C483.013 385.812 451.578 342.752 449.487 340.579C447.087 338.084 436.634 336.635 436.634 336.635L405.818 309.994L367.26 243.754L330.636 296.633L324.442 270.958L310.66 324.32C310.66 324.32 360.601 387.583 362.536 390.078C362.846 390.561 365.014 393.378 368.266 397.643Z" fill="#090F0F" stroke="#090F0F" stroke-miterlimit="10" stroke-linecap="round" stroke-linejoin="round"/>
<path d="M244.859 212.122C244.859 212.122 234.638 184.918 232.161 179.928C229.683 174.938 216.366 153.207 215.669 147.251C214.972 141.375 212.881 131.556 210.713 127.451C208.545 123.346 214.972 120.69 220.237 125.841C225.502 131.073 228.754 139.524 228.677 141.939C228.599 144.353 240.6 153.448 240.6 153.448L242.768 132.522C242.768 132.522 245.091 80.5277 244.627 72.801C244.162 65.0743 243.698 48.5747 249.582 47.9308C255.466 47.2869 256.396 52.1966 256.396 52.1966C256.396 52.1966 256.628 39.9627 263.209 40.7675C268.242 41.4114 270.178 46.3211 270.875 48.6552C271.649 50.9893 272.5 53.9673 272.5 53.9673C272.5 53.9673 276.682 51.0698 280.708 57.9916C283.031 62.0159 287.986 74.5717 288.76 77.7912C289.535 81.0106 289.767 82.1374 289.767 82.1374C289.767 82.1374 295.342 81.9764 297.742 88.0129C300.219 94.1298 303.704 109.986 307.111 123.185C310.517 136.305 310.362 148.86 310.362 148.86C310.362 148.86 311.679 191.196 308.969 204.637C306.259 218.078 301.149 229.588 300.065 230.634C298.981 231.761 283.882 278.202 283.882 278.202L231.387 258C231.387 258 242.304 230.071 244.085 223.954C245.788 217.837 244.859 212.122 244.859 212.122Z" fill="white" stroke="#090F0F" stroke-miterlimit="10" stroke-linecap="round" stroke-linejoin="round"/>
<path d="M233.863 172.523C233.941 175.179 234.56 176.789 234.56 176.789" stroke="#090F0F" stroke-miterlimit="10" stroke-linecap="round" stroke-linejoin="round"/>
<path d="M239.052 155.863C239.052 155.863 236.109 159.485 234.561 165.844C234.251 167.131 234.096 168.339 233.941 169.465" stroke="#090F0F" stroke-miterlimit="10" stroke-linecap="round" stroke-linejoin="round"/>
<path d="M256.395 52.1963C256.395 52.1963 257.324 69.0179 257.944 77.3884C258.563 85.759 258.873 98.6368 258.873 107.088C258.95 115.539 257.944 126.163 257.402 128.497C256.86 130.831 255.621 133.729 255.621 133.729" stroke="#090F0F" stroke-miterlimit="10" stroke-linecap="round" stroke-linejoin="round"/>
<path d="M272.498 53.9668C272.498 53.9668 269.943 57.1058 270.795 61.1301C271.647 65.1544 275.673 87.771 275.673 90.9904C275.673 94.2903 275.905 122.621 275.983 124.553C276.06 126.485 274.744 132.924 274.124 135.499" stroke="#090F0F" stroke-miterlimit="10" stroke-linecap="round" stroke-linejoin="round"/>
<path d="M289.842 82.2178C289.842 82.2178 286.9 82.5397 287.519 87.3689C288.216 92.1981 289.687 107.812 289.687 112.159C289.687 116.505 290.694 126.566 290.462 136.063C290.307 145.56 292.397 148.86 293.326 151.275" stroke="#090F0F" stroke-miterlimit="10" stroke-linecap="round" stroke-linejoin="round"/>
<path d="M244.162 145.48C244.162 145.48 243.078 150.954 244.549 153.771C245.943 156.588 247.956 162.544 247.956 165.843" stroke="#090F0F" stroke-miterlimit="10" stroke-linecap="round" stroke-linejoin="round"/>
<path d="M254.77 142.824C254.77 142.824 254.228 147.331 254.848 150.229C255.467 153.126 257.403 156.104 257.403 156.104" stroke="#090F0F" stroke-miterlimit="10" stroke-linecap="round" stroke-linejoin="round"/>
<path d="M272.422 149.906C272.422 149.906 271.803 154.655 272.887 157.633C273.971 160.611 275.287 162.865 275.287 162.865" stroke="#090F0F" stroke-miterlimit="10" stroke-linecap="round" stroke-linejoin="round"/>
<path d="M248.652 397.643L297.508 283.112C297.508 283.112 276.68 265.244 262.976 255.827C249.271 246.41 232.856 246.732 232.856 246.732C232.856 246.732 211.409 294.219 210.248 297.277C209.086 300.336 194.143 332.53 194.143 332.53C194.143 332.53 187.561 334.945 184.619 340.418C182.296 344.683 165.882 381.787 158.836 397.643H248.652Z" fill="#6985D1" stroke="#090F0F" stroke-miterlimit="10" stroke-linecap="round" stroke-linejoin="round"/>
<path d="M283.173 290.582C285.345 289.247 286.064 286.335 284.779 284.077C283.495 281.82 280.693 281.072 278.522 282.408C276.35 283.743 275.631 286.655 276.916 288.912C278.2 291.17 281.002 291.917 283.173 290.582Z" fill="#090F0F" stroke="#090F0F" stroke-miterlimit="10" stroke-linecap="round" stroke-linejoin="round"/>
<path d="M278.385 305.407C277.766 307.902 275.288 309.511 272.888 308.867C270.488 308.224 268.939 305.648 269.559 303.153C270.178 300.658 272.656 299.048 275.056 299.692C277.534 300.255 279.005 302.831 278.385 305.407Z" fill="#090F0F" stroke="#090F0F" stroke-miterlimit="10" stroke-linecap="round" stroke-linejoin="round"/>
</g>
<defs>
<clipPath id="clip0_3509_3504">
<rect width="620" height="359" fill="white"/>
</clipPath>
</defs>
</svg>
